<?xml version="1.0" encoding="UTF-8"?><svg xmlns="http://www.w3.org/2000/svg" viewBox="0 0 45.2 51.38"><defs><style>.e{fill:#ffb8ce;}.f{fill:#f99055;}.g{fill:#240100;}.h{fill:#68e07e;}.i{fill:#505088;}</style></defs><g id="a"/><g id="b"><g id="c"><g id="d"><path class="h" d="M31.71,15.02c-2.55-1.56-4.44-1.71-5.84-1.31-2.28,.65-2.73,2.59-6.13,6.09-2.66,2.74-3.99,4.11-5.92,4.74-4.74,1.55-7.81-2.61-10.99-.86C.26,25.1-.17,29.14,.05,31.43c.6,6.2,7.15,10.71,9.03,9.69,.93-.5,.33-2.14,1.46-2.75,1.55-.85,3.43,1.85,6.51,1.4,.23-.03,2.31-.36,2.67-1.54,.55-1.8-3.42-3.89-3-4.85,.5-1.13,5.91,1.97,10.57,.6,7.84-2.31,12.11-16.89,9.01-19.39-.71-.57-2.04-.7-4.59,.42Z"/><g><path class="i" d="M34.23,4.05c.62-.92,1.07-1.96,.77-2.91-.19-.59-.59-.9-.47-1.06,.23-.3,1.86,.39,1.88,1.02,0,.09-.03,.18,.02,.31,.11,.31,.45,.3,.59,.49,.35,.46-.45,2.25-1.77,2.46-.36,.06-.68-.02-.87-.09l-.15-.22Z"/><g><g><path class="i" d="M27.72,25.46c-.73-.28-1.46-.57-2.18-.85,.02-2.16,.56-3.77,.98-4.74,.51-1.19,1-2.32,2.13-2.68,.74-.24,1.47-.09,1.92,.04l-2.84,8.23Z"/><path class="i" d="M25.92,30.9c-.42,.02-.85,.03-1.27,.05-.24-.86-.49-2.21-.16-3.78,.23-1.09,.66-1.95,1.05-2.56,.73,.28,1.46,.57,2.18,.85-.6,1.81-1.2,3.63-1.8,5.44Z"/><path class="i" d="M25.64,30.24c.7,1.43,.94,2.21,.75,2.34-.12,.08-.4-.07-.84-.46-1.33,.33-2.27,.57-2.74,.7-.08,.02-.29,.08-.58,.12-.33,.04-.6,.04-.77,.03,0-.07,.03-.17,.1-.27,.08-.12,.18-.19,.22-.21,.22-.15,.29-.28,.58-.55,.29-.27,1.17-1.02,2.41-1.97l.89,.29Z"/><path class="g" d="M29.63,20.13c.13-1.27-1.39-2.46-2.32-2.77-.14-.05-.7-.23-.78-.09-.02,.04,0,.09,.01,.11,.15,.37-.38,1-.35,1.44,.03,.35,.41,.38,1.64,1.17,.88,.57,1.22,.89,1.5,.75,.23-.12,.27-.48,.28-.62Z"/><path class="e" d="M27.91,26.1c.14-.09,.1-.49-.06-.79-.29-.53-.97-.7-1.98-.95-.44-.11-.81-.16-1.03-.19-.14,.51-.05,.76,.05,.9,.36,.5,1.22,.03,2.25,.61,.41,.23,.64,.51,.78,.42Z"/></g><g><path class="i" d="M38.93,25.46c.73-.28,1.46-.57,2.18-.85-.02-2.16-.56-3.77-.98-4.74-.51-1.19-1-2.32-2.13-2.68-.74-.24-1.47-.09-1.92,.04l2.84,8.23Z"/><path class="i" d="M40.72,30.9c.42,.02,.85,.03,1.27,.05,.24-.86,.49-2.21,.16-3.78-.23-1.09-.66-1.95-1.05-2.56-.73,.28-1.46,.57-2.18,.85,.6,1.81,1.2,3.63,1.8,5.44Z"/><path class="i" d="M41.01,30.24c-.7,1.43-.94,2.21-.75,2.34,.12,.08,.4-.07,.84-.46,1.33,.33,2.27,.57,2.74,.7,.08,.02,.29,.08,.58,.12,.33,.04,.6,.04,.77,.03,0-.07-.03-.17-.1-.27-.08-.12-.18-.19-.22-.21-.22-.15-.29-.28-.58-.55-.29-.27-1.17-1.02-2.41-1.97l-.89,.29Z"/><path class="g" d="M37.01,20.13c-.13-1.27,1.39-2.46,2.32-2.77,.14-.05,.7-.23,.78-.09,.02,.04,0,.09-.01,.11-.15,.37,.38,1,.35,1.44-.03,.35-.41,.38-1.64,1.17-.88,.57-1.22,.89-1.5,.75-.23-.12-.27-.48-.28-.62Z"/><path class="e" d="M38.74,26.1c-.14-.09-.1-.49,.06-.79,.29-.53,.97-.7,1.98-.95,.44-.11,.8-.16,1.03-.19,.14,.51,.05,.76-.05,.9-.36,.5-1.22,.03-2.25,.61-.41,.23-.64,.51-.78,.42Z"/></g><path class="e" d="M36.01,13.97c-.02,.86,.01,1.66,.07,2.39-1.36-.04-2.72-.07-4.1-.1,.07-.41,.13-.81,.2-1.21,.12-.71,.24-1.42,.36-2.12,.01-.06,.02-.1,.03-.16,.14-.78,.27-1.58,.41-2.36l1.39,.12,.87,.08,.42,.03,.58,.05c-.11,.76-.18,1.59-.21,2.46,0,.28-.01,.55-.01,.81Z"/><path class="e" d="M39.36,29.3c-1.09,.17-2.37,.3-3.79,.29-2.09,0-3.89-.29-5.32-.62-.32-2.95-.65-5.91-.97-8.86-.69-.65-1.39-1.3-2.08-1.95,.31-.47,2.2-3.22,5.91-3.85,3.8-.65,6.19,3.15,5.79,3.83,.15,3.72,.31,7.43,.46,11.15Z"/><path class="e" d="M28.15,35.62c0,.13,.02,.26,.02,.26,0,.08,.01,.17,.02,.24,.24,.1,.48,.2,.71,.29,.62,.25,.66,.27,.71,.29,.33,.14,.77,.42,1.27,1.04,.25-.32,.5-.66,.75-1,2.37-3.35,3.6-6.89,4.22-10.05-1.36-.84-2.72-1.69-4.08-2.53-.68,1.9-1.3,3.41-1.74,4.46,0,0-2,4.75-1.88,7Z"/><path class="h" d="M25,39.26c-.9,.84-.86,3.04-2.05,5.34-.26,.51-.52,.89-.68,1.11,.47,.31,.94,.63,1.41,.94,1.09-1.02,2.24-2.21,3.41-3.6,1.57-1.87,2.82-3.68,3.8-5.31,.1-.2,.36-.81,.1-1.4-.04-.09-.08-.17-.14-.25-.16,.14-.27,.15-.34,.14-.24-.06-.2-.52-.52-.72-.17-.11-.37-.09-.57-.07-.62,.07-1.05,.48-1.23,.68-.34,.34-.63,.62-.84,.83-.15,.15-.16,.15-.23,.22-.18,.18-.35,.37-.77,.83-.6,.67-1.02,.94-1.36,1.26Z"/><path class="h" d="M35.68,40.26c-.32,1.28,.18,2.74,1.19,5.6,.31,.86,.58,1.55,.75,1.97h1.43c.16-1.82,.31-3.66,.45-5.52,.14-1.79,.26-3.57,.38-5.33-.02-.08-.09-.27-.27-.44-.19-.17-.4-.22-.48-.23-.06-.03-.12-.05-.17-.07-1.13-.36-2.14,.07-2.4,.18-.06,.21-.11,.42-.16,.63-.16,.66-.21,1.11-.26,1.42-.14,.89-.34,1.35-.45,1.79Z"/><path class="e" d="M36.24,36.52c.08,.16,.15,.31,.22,.45,.51,0,1.03,0,1.54,0,.63,0,1.25,0,1.87,0,0-.24,0-.49,.01-.73,.04-3.92-.22-7.7-.71-11.33-.45,.04-.96,.06-1.52,.03-.93-.05-1.73-.22-2.36-.4-.31,1.01-.58,2.2-.69,3.54-.28,3.64,.76,6.61,1.63,8.44Z"/><path class="g" d="M36.24,10.69c-.11,.76-.18,1.59-.21,2.46,0,.28-.01,.55-.01,.81-.08,.02-.18,.03-.27,.03-.81,0-1.46-.78-1.46-1.75,0-.75,.39-1.39,.95-1.63l.42,.03,.58,.05Z"/><g><path class="f" d="M30.08,8.76c.2,.49,.39,.97,.59,1.46,.34,.53,1,1.37,2.1,1.95,.19,.1,3.34,1.7,5.1-.05,1.01-1.01,1.21-2.78,.51-4.4-.08-.19-.07-.14-.3-.69-.8-1.92-.74-2.35-1.11-2.91-.82-1.24-2.68-1.35-2.91-1.36-1.9-.09-3.74,1.18-4.28,2.78-.51,1.51,.12,2.88,.3,3.23Z"/><path class="g" d="M36.23,9.31c.11-.12,.24-.18,.37-.23,.13-.04,.27-.07,.43-.04-.11,.12-.24,.18-.37,.23-.13,.04-.27,.07-.43,.04Z"/><path class="g" d="M36.56,7.76c.08,.25,.32,.39,.54,.32,.22-.07,.34-.33,.26-.58-.08-.25-.32-.39-.54-.32-.22,.07-.34,.33-.26,.58Z"/><path class="g" d="M36.49,8.07c-.07,0-.13-.06-.12-.13,.01-.5,.27-.93,.67-1.12,.19-.09,.38-.1,.54-.09l.04-.31c0-.07,.07-.12,.14-.11,.07,0,.12,.07,.11,.14l-.06,.43s-.02,.06-.05,.08c-.03,.02-.06,.03-.1,.02-.13-.03-.32-.04-.52,.05-.31,.14-.51,.49-.52,.9,0,.07-.06,.12-.12,.12Z"/><path class="g" d="M33.39,9.09c.08,.25,.32,.39,.54,.32,.22-.07,.34-.33,.26-.58-.08-.25-.32-.39-.54-.32-.22,.07-.34,.33-.26,.58Z"/><path class="g" d="M33.24,9.49c-.07,0-.13-.06-.12-.13,.01-.5,.27-.94,.67-1.12,.16-.08,.35-.1,.54-.09l.04-.31c0-.07,.07-.12,.14-.11,.07,0,.12,.07,.11,.14l-.06,.43s-.02,.07-.05,.09c-.03,.02-.06,.03-.1,.02-.19-.04-.37-.02-.52,.05-.31,.14-.51,.49-.52,.9,0,.07-.06,.12-.12,.12Z"/><path class="g" d="M35.97,10.95c-.06,0-.12-.05-.12-.11,0-.07,.04-.13,.11-.14,.24-.03,.47-.09,.7-.19,.34-.14,.64-.34,.9-.59,.05-.05,.13-.05,.18,0,.05,.05,.05,.13,0,.18-.29,.28-.62,.49-.98,.64-.24,.1-.5,.17-.76,.2h-.02Z"/><path class="g" d="M36.81,11.18s-.09-.02-.11-.07c-.03-.06,0-.14,.05-.17l.49-.26c.06-.03,.14,0,.17,.05,.03,.06,0,.14-.05,.17l-.49,.26s-.04,.01-.06,.01Z"/><path class="g" d="M37.74,6.03c0,.09-.23,.08-.91,.27-.76,.21-.98,.35-1.03,.27-.09-.12,.27-.69,.81-.85,.55-.15,1.15,.16,1.13,.3Z"/><path class="g" d="M34.21,7.06c.02,.09-.2,.14-.81,.5-.68,.4-.85,.59-.93,.53-.12-.09,.08-.74,.57-1.03,.49-.29,1.15-.14,1.17,0Z"/><g><path class="f" d="M30.35,10.45c.36,.61,1.02,.9,1.47,.63,.45-.27,.53-.98,.17-1.59-.36-.61-1.02-.9-1.47-.63-.45,.27-.53,.98-.17,1.59Z"/><g><path class="g" d="M31.45,11.3c-.21,0-.44-.07-.66-.21-.06-.04-.07-.12-.04-.17,.04-.06,.12-.07,.17-.04,.29,.19,.6,.22,.84,.09,.11-.06,.19-.16,.25-.28,.03-.06,.1-.09,.17-.06,.06,.03,.09,.1,.06,.17-.08,.17-.2,.3-.35,.38-.13,.08-.28,.12-.44,.12Z"/><path class="g" d="M30.72,11.01s-.06,0-.08-.03c-.13-.1-.24-.23-.33-.37-.04-.06-.02-.13,.03-.17,.06-.04,.14-.02,.17,.04,.08,.12,.18,.23,.28,.32,.05,.04,.06,.12,.02,.18-.02,.03-.06,.04-.1,.04Z"/><path class="g" d="M30.29,10.45s-.09-.03-.11-.07c-.32-.65-.19-1.35,.28-1.63,.11-.07,.23-.1,.37-.11,.07,0,.13,.05,.13,.12,0,.07-.05,.13-.11,.13-.09,0-.18,.03-.26,.08-.36,.21-.44,.78-.19,1.31,.03,.06,0,.14-.06,.17-.02,0-.04,.01-.05,.01Z"/></g><path class="g" d="M31.66,10.52s-.05,0-.08-.03l-1.01-.78c-.05-.04-.06-.12-.02-.17,.04-.06,.12-.06,.18-.02l1.01,.78c.05,.04,.06,.12,.02,.17-.02,.03-.06,.05-.1,.05Z"/><path class="g" d="M31.1,10.05c-.08,0-.13-.06-.12-.13v-.44c.01-.07,.07-.12,.13-.12,.07,0,.13,.06,.12,.13v.44c-.01,.07-.07,.12-.13,.12Z"/></g></g><path class="i" d="M29.78,26.6c1.54,.07,3.21,.09,5.01,0,1.65-.08,3.19-.22,4.61-.41l-.06-1.41c-1.31,.32-2.96,.61-4.87,.68-1.84,.07-3.45-.07-4.75-.27,.02,.47,.04,.94,.06,1.41Z"/><path class="h" d="M38.78,36.84c-.3,0-.77-.03-1.33-.16-1.06-.25-1.53-.66-1.79-.45-.23,.19-.15,.8,.13,1.17,.49,.64,1.51,.53,1.91,.48,.65-.08,1.14-.34,1.4-.5l-.33-.54Z"/><path class="h" d="M30.61,35.61c-.3,0-.77-.03-1.33-.16-1.06-.25-1.53-.66-1.79-.45-.23,.19-.15,.8,.13,1.17,.49,.64,1.51,.53,1.91,.48,.65-.08,1.14-.34,1.4-.5l-.33-.54Z"/><ellipse class="i" cx="39.32" cy="37.66" rx="1.33" ry="2.4"/><path class="i" d="M29.2,36.36c-.57,1.25-.48,2.51,.2,2.81,.68,.31,1.69-.45,2.25-1.7,.57-1.25,.48-2.51-.2-2.81-.68-.31-1.69,.45-2.25,1.7Z"/><path class="i" d="M24.17,51.25c-.41,0-.82-.02-1.23-.03l-2.7-4.04c.04-.24,.12-.56,.37-.83,.27-.3,.59-.38,.83-.47,.4-.16,.92-.49,1.44-1.28,.59,.44,1.18,.87,1.77,1.31-1.17,2.23-1.07,3.31-.66,3.87,.31,.43,.97,.77,.87,1.11-.06,.22-.4,.32-.68,.36Z"/><path class="i" d="M42.84,51.13h-5.66c-.14-.19-.32-.48-.34-.84-.03-.42,.14-.73,.24-.93,.2-.42,.39-1.08,.32-2.08l1.71-.21c.8,1.16,1.63,1.75,2.25,2.08,.74,.39,1.59,.63,1.7,1.24,.05,.29-.08,.55-.21,.74Z"/><path class="g" d="M39.11,35.54c-.06,0-.12-.05-.12-.11l-1.12-8.66c0-.07,.04-.13,.11-.14,.07-.01,.13,.04,.14,.11l1.12,8.66c0,.07-.04,.13-.11,.14h-.02Z"/><path class="g" d="M31.25,34.61c-.1-.03-.14-.1-.12-.16l1.65-5.35c.02-.07,.09-.1,.16-.08,.07,.02,.1,.09,.08,.16l-1.65,5.35c-.02,.05-.07,.09-.12,.09Z"/><path class="g" d="M32.86,29.01c-.07,0-.12-.05-.12-.12l-.06-2.06c0-.07,.05-.13,.12-.13,.07,0,.13,.05,.13,.12l.06,2.06c0,.07-.05,.13-.12,.13h0Z"/><path class="g" d="M37.64,24.9c-.07,0-.12-.05-.12-.12l-.59-9.47c0-.07,.05-.13,.12-.13,.08,0,.13,.05,.13,.12l.59,9.47c0,.07-.05,.13-.12,.13h0Z"/><path class="g" d="M32.3,25.57c-.06,0-.12-.05-.12-.11l-1.12-10.23c0-.07,.04-.13,.11-.14,.08-.01,.13,.04,.14,.11l1.12,10.23c0,.07-.04,.13-.11,.14h-.01Z"/><path class="g" d="M35.78,14.72s-3.24-.16-3.24-.16c-.07,0-.12-.06-.12-.13,0-.07,.06-.12,.12-.12,0,0,3.24,.16,3.24,.16,.07,0,.12,.06,.12,.13,0,.07-.06,.12-.12,.12Z"/><path class="g" d="M34.92,25.27c-.07,0-.12-.05-.12-.12l-.64-9.74c0-.07,.05-.13,.12-.13,.07,0,.13,.05,.13,.12l.64,9.74c0,.07-.05,.13-.12,.13h0Z"/><path class="g" d="M25.54,32.24c-.06,0-.11-.04-.12-.1l-.22-1.02c-.01-.07,.03-.13,.1-.15,.07-.01,.13,.03,.15,.1l.22,1.02c.01,.07-.03,.13-.1,.15,0,0-.02,0-.03,0Z"/><path class="g" d="M41.1,32.24c-.07,0-.13-.06-.12-.13v-.61c0-.07,.06-.12,.13-.12,.07,0,.13,.06,.12,.13v.61c0,.07-.06,.12-.13,.12Z"/><path class="g" d="M37.73,47.07c-.06,0-.12-.05-.12-.12l-.68-8.74c0-.07,.05-.13,.11-.13,.08,0,.13,.05,.13,.12l.68,8.74c0,.07-.05,.13-.11,.13h0Z"/><path class="g" d="M37.73,38.2s-1.51-.34-1.51-.34c-.07-.02-.11-.08-.09-.15,.02-.07,.09-.11,.15-.09l1.48,.34c.07,.02,.11,.08,.09,.15-.01,.06-.06,.1-.12,.1Z"/><path class="g" d="M28.55,36.82s-.03,0-.05,0l-.96-.41c-.06-.03-.09-.1-.07-.16,.03-.06,.1-.09,.16-.07l.96,.41c.06,.03,.09,.1,.07,.16-.02,.05-.07,.08-.11,.08Z"/><path class="g" d="M42.84,51.25h-5.66c-.07,0-.12-.06-.12-.12s.06-.12,.12-.12h5.66c.07,0,.12,.06,.12,.12s-.06,.12-.12,.12Z"/><path class="g" d="M22.94,51.35s-.08-.02-.1-.06l-2.7-4.04c-.04-.06-.02-.13,.03-.17,.06-.04,.13-.02,.17,.03l2.7,4.04c.04,.06,.02,.13-.03,.17-.02,.01-.05,.02-.07,.02Z"/><path class="g" d="M24.39,51.38h-1.2c-.07,0-.12-.06-.12-.12s.06-.12,.12-.12h1.2c.07,0,.12,.06,.12,.12s-.06,.12-.12,.12Z"/></g><path class="h" d="M37.16,4.46c-.16,.17-1.26-.89-1.67-.6-.26,.18-.14,.8,0,1.28-.28,.09-.56,.18-.84,.27-.2-.13-.78-.5-1.43-.34-.92,.22-1.26,1.34-1.39,1.76-.61,2.01,.88,3.96,1.16,4.3-.64,.42-1.27,.84-1.91,1.25-.34-.24-2.1-1.55-2.42-3.89-.3-2.18,.76-4.43,2.59-5.53,1.29-.77,3.25-1.14,4.63-.28,.93,.58,1.44,1.63,1.3,1.77Z"/><path class="i" d="M30.19,5.62c-1.1,.16-2.24,.11-2.95-.59-.44-.43-.55-.93-.75-.89-.37,.08-.46,1.84,.1,2.14,.08,.04,.18,.05,.27,.15,.23,.23,.07,.54,.18,.75,.26,.52,2.22,.58,2.99-.51,.21-.3,.28-.62,.31-.82l-.14-.23Z"/></g></g></g></g></svg>