<?xml version="1.0" encoding="UTF-8"?><svg xmlns="http://www.w3.org/2000/svg" viewBox="0 0 54.71 78.07"><defs><style>.e{fill:#fff;}.f{fill:#4fb266;}.g{fill:#24a246;}.h{fill:#210b04;}.i{fill:#f99055;}.j{fill:#fccc00;}.k{fill:#68e07e;}.l{fill:#505088;}</style></defs><g id="a"/><g id="b"><g id="c"><g id="d"><path class="j" d="M50.04,71.65c-15.17,2.84-22.56,.81-26.51-1.75-1.47-.96-5.26-3.79-9.55-3-2.05,.38-2.94,1.35-5.62,2.24-3.36,1.11-6.39,1.05-8.36,.84,.91-.88,2.1-2.29,2.63-4.28,.41-1.52,.18-2.46,.21-3.76,.07-2.83,1.31-4.89,3-7.64,2.78-4.52,5.99-7.34,6.33-7.64,3.53-3.13,9.19-11.3,18.5-33.51,1.6-.07,3.2-.14,4.8-.21,10.88,26.72,13.92,37.61,13.8,41.46-.03,1.03-.34,3.23,.55,6,1.12,3.51,3.13,4.74,2.89,7.15-.1,1.06-.66,2.5-2.67,4.09Z"/><g><path class="h" d="M23.77,29.77c-.47,1.29-1.8,1.75-2.55,1.33-.55-.31-.85-1.13-.68-1.98,.34-2.42,.7-4.45,1.01-5.94,1.33-6.51,2.41-8.03,3.68-8.49,.25-.09,.47-.13,.61-.14,.24,2.42,.47,4.84,.71,7.26-.93,2.65-1.86,5.3-2.79,7.96Z"/><path class="f" d="M17.51,18.54l-1.93,1.26c.28,1.72,.64,3.12,.92,4.11,.24,.86,.97,3.3,2.53,5.72,.3,.46,.75,1.13,1.59,1.57,.35,.19,1.45,.77,2.32,.29,1.1-.62,.91-2.44,.9-2.52-.16-1.33-1.11-2.22-1.42-2.53-1.17-1.15-2.63-3.17-3.88-6.98-.34-.31-.69-.61-1.03-.92Z"/><path class="k" d="M21.04,24.91s.34,.58,1.04,1.71c.81,1.29,1.1,1.72,1.21,2.14,.04,.15,.05,.27,.06,.3,.02,.18,.2,1.44-.38,2.02-.55,.55-1.47,.18-1.55,.47-.06,.22,.42,.62,.93,.69,.55,.07,.98-.27,1.17-.42,0,0,.77-.65,.98-1.77,.46-2.41-3.3-5.28-3.47-5.13Z"/><path class="h" d="M44.15,29.45c.99-.48,1.98-.96,2.97-1.44-.47-2.45-1.07-4.42-1.54-5.8,0,0-2.49-7.29-5.05-7.75-.26-.05-.49-.05-.63-.04-.1,2.67-.21,5.33-.31,8l4.55,7.03Z"/><path class="f" d="M49.46,40.02c.67-.37,1.34-.75,2.01-1.12-.46-1.43-.76-2.63-.95-3.47-.71-3.13-.68-4.72-1.95-6.21-.51-.6-1.06-.97-1.44-1.2-1,.45-2,.89-3,1.34,.33,1.1,.7,1.93,.96,2.46,1.42,2.89,2.97,3.82,3.95,6.64,.23,.67,.36,1.23,.43,1.56Z"/><path class="f" d="M54.36,39.57c0,.12-.14,.19-.22,.23-.06,.02-.23,.1-.74-.05-.19-.05-.45-.15-.76-.31-.25-.05-.36,.02-.41,.09-.06,.09-.18,.42,1.08,2.46,0,0,.4,.65,.76,1.28,.06,.08,.82,.96,.6,1.25-.03,.03-.07,.06-.14,.08-.29-.13-.49-.36-.69-.67-.21-.31-.42-.69-.77-1.12-.16-.2-.41-.49-.75-.82-.04,.02-.1,.05-.15,.12-.15,.3,.31,.87,.82,1.95,.23,.46,.69,1.44,.47,1.61-.07,.06-.2,0-.25-.02-.54-.19-.7-.88-.94-1.53-.17-.46-.45-1.1-.91-1.85,.14,.57,.3,1.16,.47,1.76,.14,.5,.29,.98,.43,1.45-.11,.09-.2,.1-.25,.1-.23,0-.47-.31-.52-.77-.29-.86-.58-1.71-.87-2.57-.15,0-.28,0-.42,0,.06,.67,.18,1.23,.27,1.63,.09,.4,.2,.81,.07,.89-.1,.05-.28-.1-.29-.11-.22-.17-.32-.45-.42-.89-.11-.95-.21-1.64-.24-1.78-.03-.14-.06-.27-.06-.27,0-.03-.02-.07-.03-.12,0-.03-.04-.13-.09-.25-.06-.15-.09-.18-.15-.31,0,0-.06-.13-.13-.34-.59-1.71,.98-3.26,1.11-2.93,.59,.26,2.5,.82,2.5,.82,1.2,.36,1.63,.87,1.64,1Z"/><path class="k" d="M43.96,30.09c.09-.58,.42-.94,.42-.94,.37-.42,.84-.48,1.18-.6,1.54-.53,1.71-2.61,2.27-2.51,.48,.08,.87,1.7,.25,2.5-.09,.11-.18,.19-.31,.3-.62,.52-1.19,.63-1.43,.74-.43,.21-.82,.98-.59,3.45-1.22-.86-1.95-2-1.79-2.94Z"/><g><path class="h" d="M33.65,54.69c-.02,.14-.04,.28-.03,.42,.08,2.21,1.25,3.7,2.13,3.7,.92,0,2.19-1.63,2.13-4.07,1.25-2.67,3.13-7.65,2.92-14.03-.11-3.3-.76-6.07-1.42-8.14l-6.5,5.68c.15,5.32,.47,8.22,.75,9.9,.09,.52,.36,2.07,.28,4.13-.04,.99-.15,1.82-.24,2.41Z"/><path class="l" d="M33.99,74.71c.73,.08,1.47,.16,2.21,.23,.05-.55,.14-1.4,.3-2.43,.83-5.3,2.22-7.06,2.34-10.3,.05-1.34-.11-3.31-1.15-5.75,.38-1.47,.4-2.3,.06-2.5-.5-.29-1.77,.77-3.8,3.16-.03,.31-.07,.83-.08,1.49-.03,1.72,.19,3.01,.24,3.28,.19,1.21,.28,4.38-.11,12.83Z"/><path class="l" d="M33.5,77.06c-.08,.39,.2,.76,.59,.76h3.94c.03-.11,.05-.27,0-.44-.11-.37-.51-.54-.67-.62-.39-.2-.88-.7-1.23-2.07l-2.14,.03c-.16,.78-.33,1.56-.49,2.35Z"/></g><path class="l" d="M14.11,77.62l8.84,.02c.4-1.52-.79-1.98-.92-3.88l-1.6-.18c-2.86,3.66-2.92,2.99-5.26,3.47-.43-.04-1.03,.05-1.06,.57Z"/><path class="h" d="M24.25,54.69c1.35,15.31,11.6-18.89,10.97-20.51l-6.18-1.02c-4.56,12.02-4.94,18.42-4.79,21.53Z"/><path class="l" d="M20.05,74.13c.65,.14,1.31,.29,1.97,.43,2.52-7.89,7.32-10.12,5.84-18.08-2.44-2.49-3.82-3.61-4.13-3.36-.18,.14-.03,.68,.44,1.65,0,.18-.02,.44-.04,.76-.27,3.97-1.07,6.81-1.65,8.95-.61,2.23-1.41,5.35-2.41,9.65Z"/><path class="f" d="M40.92,78.07h-7.41c-.1-.17-.19-.36-.25-.58-.29-1.04,.18-1.97,.36-2.29v-16.87c.96-.88,1.94-1.46,2.78-1.76,1-.35,1.82-.3,2.28,.11,.14,.12,.57,.56,.43,1.83,.07,1.27,.02,2.29-.04,2.95-.41,5.14-2.38,7.37-2.07,11.82,.06,.84,.19,1.52,.28,1.92,.35,.08,.84,.21,1.44,.4,1.84,.57,2.09,.95,2.18,1.12,.03,.05,.07,.14,.1,.25,.06,.23,.09,.59-.07,1.11Z"/><path class="f" d="M29.02,59.31c-.4,2.13-.95,4.49-1.75,7.03-1.05,3.29-2.28,6.12-3.48,8.5-.03,.59-.07,1.21-.12,1.83-.04,.47-.08,.95-.12,1.41H13.42c-.22-.22-.44-.5-.53-.78-.07-.18-.09-.37-.04-.53,.2-.63,1.34-.76,2.17-.9,1.25-.22,2.97-.67,5.04-1.72,1.26-5.55,2.51-11.09,3.77-16.63-.33-1.06-.35-1.69-.06-1.9,.16-.12,.43-.1,.77,.05,.9,.39,2.39,1.61,4.49,3.66Z"/><path class="g" d="M36.61,54.12c-.07,0-.13-.06-.12-.13l.69-15.52c0-.07,.06-.12,.13-.12,.07,0,.12,.06,.12,.13l-.69,15.52c0,.07-.06,.12-.12,.12Z"/><path class="g" d="M25.64,54.22c-.1-.02-.14-.09-.12-.16l4.09-16.39c.02-.07,.08-.11,.15-.09,.07,.02,.11,.08,.09,.15l-4.09,16.39c-.01,.06-.07,.09-.12,.09Z"/><path class="k" d="M25.83,58c-1.58,5.95-3.17,11.89-4.74,17.83-2.74,.49-5.47,.97-8.21,1.45-.07-.18-.09-.37-.04-.53,.2-.63,1.34-.76,2.17-.9,1.25-.22,2.97-.67,5.04-1.72,1.26-5.55,2.51-11.09,3.77-16.63-.33-1.06-.35-1.69-.06-1.9,.16-.12,.43-.1,.77,.05,.44,.78,.87,1.56,1.31,2.35Z"/><path class="k" d="M40.99,76.96c-1.72-.51-3.43-1.02-5.16-1.51,.19-6.29,.39-12.59,.56-18.88,1-.35,1.82-.3,2.28,.11,.14,.12,.57,.56,.43,1.83,.07,1.27,.02,2.29-.04,2.95-.41,5.14-2.38,7.37-2.07,11.82,.06,.84,.19,1.52,.28,1.92,.35,.08,.84,.21,1.44,.4,1.84,.57,2.09,.95,2.18,1.12,.03,.05,.07,.14,.1,.25Z"/><path class="l" d="M35.89,14.96l-5.43,.26c.11-2.2,.21-4.39,.32-6.59,1.43-.07,2.86-.14,4.29-.21,.27,2.18,.54,4.35,.81,6.53Z"/><path class="h" d="M34.66,9.08c.07,1.38-.63,2.54-1.55,2.58-.92,.04-1.72-1.04-1.79-2.42-.07-1.38,.63-2.54,1.55-2.58,.92-.04,1.72,1.04,1.79,2.42Z"/><path class="i" d="M32.92,10.78c-1.77,.09-3.27-1.28-3.35-3.04l-.23-4.67c.41-.3,1.58-1.09,3.28-1.13,1.55-.04,2.67,.55,3.12,.82,.07,1.56,.15,3.12,.23,4.68,.09,1.77-1.28,3.27-3.04,3.35Z"/><path class="i" d="M36.67,6.17c.03,.58-.34,1.07-.83,1.09-.48,.02-.9-.43-.93-1.01-.03-.58,.34-1.07,.83-1.09,.48-.02,.9,.43,.93,1.01Z"/><path class="i" d="M30.54,6.3c.03,.58-.34,1.07-.83,1.09-.48,.02-.9-.43-.93-1.01-.03-.58,.34-1.07,.83-1.09,.48-.02,.9,.43,.93,1.01Z"/><g><path class="h" d="M33.65,6.28s-.06-.01-.08-.03c-.05-.05-.05-.13,0-.18,.11-.12,.41-.4,.88-.46,.5-.07,.89,.16,1.03,.25,.06,.04,.07,.12,.03,.17-.04,.06-.12,.07-.17,.03-.12-.08-.43-.27-.85-.21-.39,.05-.64,.28-.73,.38-.02,.03-.06,.04-.09,.04Z"/><path class="h" d="M34.7,6c0,.2-.13,.37-.32,.38-.18,0-.34-.15-.35-.35,0-.2,.13-.37,.32-.38,.18,0,.34,.15,.35,.35Z"/></g><g><path class="h" d="M31.93,6.37s-.06-.01-.08-.03c-.12-.11-.39-.29-.77-.31-.44,0-.72,.2-.83,.29-.05,.05-.13,.04-.18-.01-.04-.05-.04-.13,.01-.18,.13-.11,.49-.37,1-.35,.46,.02,.78,.24,.92,.37,.05,.05,.06,.12,.01,.18-.03,.03-.06,.04-.09,.04Z"/><path class="h" d="M30.83,6.19c0,.2,.17,.36,.35,.35,.18,0,.32-.18,.32-.38,0-.2-.17-.36-.35-.35-.18,0-.32,.18-.32,.38Z"/></g><path class="h" d="M32.38,7.94s.2,.15,.43,.14c.29,0,.46-.2,.49-.24l-.92,.09Z"/><path class="h" d="M32.73,9.92c-.06,0-.11-.04-.12-.1-.01-.07,.03-.13,.1-.14l.87-.15c.06-.02,.13,.03,.14,.1,.01,.07-.03,.13-.1,.15l-.87,.15h-.02Z"/><path class="l" d="M39.83,34.12c.19,3-1.7,5.69-4.4,6.46-3.05,.87-6.47-.91-7.56-4.16,.21-3.04,.42-6.08,.63-9.11-.2-.34-.4-.69-.59-1.05,0,0-.16-.3-.32-.61-.31-.62-1.6-4.76-3.07-10.53,.14-.17,.37-.41,.69-.63,1-.7,2.09-.68,2.7-.69,2.51-.05,2.21-.74,4.83-.81,1.57-.04,1.17,.22,4.3,.4,.58,.03,1.42,.07,2.48,.41,.66,.21,1.18,.47,1.52,.66-.4,4.68-.92,8.1-1.21,9.13-.28,1.01-.58,1.96-.91,2.84,.3,2.57,.59,5.14,.89,7.71Z"/><g><path class="f" d="M16.23,21.95c.78-.23,1.57-.46,2.35-.68,.17-1.29,.3-2.24,.4-2.74,.03-.14,.1-.47-.01-.85-.06-.19-.14-.34-.2-.43,0,0-.11-.17-.27-.32-.25-.23-1.33-.44-2.79-.31-.04-.1-1.44-.63-1.23,.92,.06,.42,.15,.99,.3,1.67,.21-.72,.04-1.34-.35-1.59-.12-.08-.38-.18-.52-.07-.19,.14-.21,.66,.52,2.29,.25,.22,.51,.45,.76,.67,.35,.48,.7,.97,1.04,1.45Z"/><path class="h" d="M14.95,19.46c-.05,0-.1-.03-.12-.09l-.52-1.73c-.02-.07,.02-.14,.08-.16,.07-.02,.14,.02,.16,.08l.52,1.73c.02,.07-.02,.14-.08,.16-.01,0-.02,0-.04,0Z"/><path class="h" d="M14.74,19.75s-.04,0-.06-.02c-.06-.04-.08-.11-.04-.17l.15-.26c.04-.06,.11-.08,.17-.04,.06,.04,.08,.11,.04,.17l-.15,.26s-.07,.06-.11,.06Z"/><path class="h" d="M16.03,17.39s-.09-.03-.11-.07l-.28-.62c-.03-.06,0-.14,.06-.17,.06-.03,.14,0,.16,.06l.28,.62c.03,.06,0,.14-.06,.17-.02,0-.03,.01-.05,.01Z"/><path class="h" d="M16.89,17.22s-.1-.03-.12-.08l-.16-.4c-.03-.06,0-.14,.07-.16,.06-.03,.14,0,.16,.07l.16,.4c.03,.06,0,.14-.07,.16-.02,0-.03,0-.05,0Z"/><path class="h" d="M17.8,17.24s-.08-.02-.11-.06l-.23-.4c-.03-.06-.01-.14,.05-.17,.06-.03,.13-.01,.17,.05l.23,.4c.03,.06,.01,.14-.05,.17-.02,.01-.04,.02-.06,.02Z"/></g><g><path class="l" d="M30.85,4.98c-.72-.02-1.86,.23-1.98,.81-.14,.66,1.05,1.67,2.22,1.66,.68,0,1.59-.36,1.7-.96,.06-.37-.2-.69-.31-.83-.5-.64-1.36-.67-1.62-.68Zm.26,1.85c-.69-.01-1.51-.42-1.49-.81,.02-.4,.91-.85,1.62-.63,.53,.17,1.01,.72,.89,1.07-.14,.38-.93,.37-1.02,.37Z"/><path class="l" d="M33.1,5.66c-.11,.14-.37,.46-.31,.83,.1,.6,1.01,.96,1.7,.96,1.16,0,2.35-1.01,2.22-1.66-.12-.58-1.26-.83-1.98-.81-.26,0-1.12,.03-1.62,.68Zm.35,.8c-.13-.35,.36-.91,.89-1.07,.71-.22,1.61,.23,1.62,.63,.02,.4-.8,.8-1.49,.81-.09,0-.88,0-1.02-.37Z"/></g><path class="g" d="M33.08,43.05s-.05,0-.07-.02l-1.08-.76c-.06-.04-.07-.12-.03-.17,.04-.06,.12-.07,.17-.03l1.08,.76c.06,.04,.07,.12,.03,.17-.02,.03-.06,.05-.1,.05Z"/><path class="g" d="M29.42,39.05c-.08,0-.13-.06-.12-.13l.69-10.91c0-.07,.07-.13,.13-.12,.07,0,.12,.06,.12,.13l-.69,10.91c0,.07-.06,.12-.12,.12Z"/><path class="g" d="M37.4,39.69c-.07,0-.12-.06-.12-.13l.03-12.53c0-.07,.06-.12,.12-.12s.12,.06,.12,.13l-.03,12.53c0,.07-.06,.12-.12,.12Z"/><path class="g" d="M30.11,28.31c-.05,0-.1-.03-.12-.08l-4.88-12.96c-.02-.06,0-.14,.07-.16,.07-.02,.14,0,.16,.07l4.88,12.96c.02,.06,0,.14-.07,.16-.01,0-.03,0-.04,0Z"/><path class="g" d="M37.43,27.16c-.09-.02-.14-.08-.12-.15l2.83-12.61c.01-.07,.08-.11,.15-.09,.07,.02,.11,.08,.09,.15l-2.83,12.61c-.01,.06-.06,.1-.12,.1Z"/><path class="g" d="M32.81,13.67c-.74,0-1.48-.13-2.18-.39-.06-.02-.1-.1-.07-.16,.02-.06,.09-.1,.16-.08,.8,.29,1.64,.41,2.49,.36,.77-.05,1.51-.24,2.21-.57,.06-.03,.14,0,.17,.06,.03,.06,0,.14-.06,.17-.73,.34-1.5,.54-2.3,.59-.14,0-.27,.01-.41,.01Z"/><path class="g" d="M30.2,28.14c-.06,0-.12-.05-.12-.11,0-.07,.04-.13,.11-.14l7.11-.82c.07-.01,.13,.04,.14,.11,0,.07-.04,.13-.11,.14l-7.11,.82h-.01Z"/><path class="g" d="M28.85,24.95c-.06,0-.12-.05-.12-.11,0-.07,.04-.13,.11-.14l9.32-1.07c.06,0,.13,.04,.14,.11,0,.07-.04,.13-.11,.14l-9.32,1.07h-.01Z"/><path class="g" d="M27.67,22.06c-.06,0-.12-.05-.12-.11,0-.07,.04-.13,.11-.14l11.18-1.09c.07-.01,.13,.04,.14,.11,0,.07-.04,.13-.11,.14l-11.18,1.09h-.01Z"/><path class="g" d="M30.2,30.16c-.06,0-.12-.05-.12-.11,0-.07,.04-.13,.11-.14l7.21-.69c.07-.01,.13,.04,.14,.11,0,.07-.04,.13-.11,.14l-7.21,.69h-.01Z"/><path class="g" d="M30.22,32.83c-.06,0-.12-.05-.12-.11,0-.07,.04-.13,.11-.14l7.2-.82c.07,0,.13,.04,.14,.11,0,.07-.04,.13-.11,.14l-7.2,.82h-.01Z"/><path class="g" d="M30.2,34.84c-.06,0-.12-.05-.12-.11,0-.07,.04-.13,.11-.14l7.07-.7c.08-.01,.13,.04,.14,.11,0,.07-.04,.13-.11,.14l-7.07,.7h-.01Z"/><path class="g" d="M26.63,19.05c-.06,0-.12-.05-.12-.11,0-.07,.04-.13,.11-.14l12.9-1.2c.06,0,.13,.04,.14,.11,0,.07-.04,.13-.11,.14l-12.9,1.21h-.01Z"/><path class="g" d="M26.45,22.25c-.06,0-.11-.04-.12-.09l-1.74-6.9c-.02-.07,.02-.14,.09-.15,.06-.02,.13,.02,.15,.09l1.74,6.9c.02,.07-.02,.14-.09,.15,0,0-.02,0-.03,0Z"/><path class="g" d="M40.17,22.83c-.08,0-.13-.07-.12-.14l.88-8.14c0-.06,.06-.11,.12-.11,.08,0,.13,.07,.12,.14l-.88,8.14c0,.06-.06,.11-.12,.11Z"/><path class="h" d="M18.46,20.38s-.05,0-.07-.02c-.06-.04-.07-.12-.04-.17l.3-.45c.04-.06,.12-.07,.17-.03,.06,.04,.07,.12,.04,.17l-.3,.45s-.06,.06-.1,.06Z"/><path class="h" d="M16.04,21.16s-.08-.02-.11-.06l-.18-.3c-.04-.06-.02-.14,.04-.17,.06-.04,.13-.02,.17,.04l.18,.3c.04,.06,.02,.14-.04,.17-.02,.01-.04,.02-.06,.02Z"/><path class="e" d="M34.58,8.14c-.31,.71-1.01,1.17-1.75,1.15-.95-.02-1.47-.81-1.52-.88,.38,.08,.9,.15,1.52,.12,.75-.04,1.35-.23,1.75-.39Z"/><path class="h" d="M50.93,38.8c-.08,0-.13-.07-.12-.14l.07-.65c0-.07,.07-.12,.14-.11,.07,0,.12,.07,.11,.14l-.07,.65c0,.06-.06,.11-.12,.11Z"/><path class="h" d="M49.81,39.42s-.07-.01-.09-.04l-.16-.18c-.05-.05-.04-.13,.01-.18,.05-.05,.13-.04,.18,.01l.16,.18c.05,.05,.04,.13-.01,.18-.02,.02-.05,.03-.08,.03Z"/><path class="h" d="M50.73,42.4c-.06,0-.12-.05-.12-.11l-.04-.3c0-.07,.04-.13,.11-.14,.06,0,.13,.04,.14,.11l.04,.3c0,.07-.04,.13-.11,.14h-.02Z"/><path class="h" d="M51.59,42.54c-.05,0-.1-.04-.12-.09l-.12-.39c-.02-.07,.02-.14,.08-.16,.07-.02,.14,.02,.16,.08l.12,.39c.02,.07-.02,.14-.08,.16-.01,0-.02,0-.04,0Z"/><path class="h" d="M52.12,41.97s-.08-.02-.1-.05l-.18-.25c-.04-.06-.03-.13,.02-.17,.06-.04,.13-.03,.17,.03l.18,.25c.04,.06,.03,.13-.02,.17-.02,.02-.05,.02-.08,.02Z"/><path class="h" d="M45.7,32.53c-.07,0-.12-.06-.12-.12v-1.15c-.01-.07,.04-.13,.11-.13,.07,0,.12,.06,.13,.12v1.15c.01,.07-.04,.13-.11,.13h0Z"/><path class="h" d="M49.56,37.15s-.09-.03-.11-.07l-2.14-4.29c-.03-.06,0-.14,.06-.17,.06-.03,.14,0,.17,.06l2.14,4.29c.03,.06,0,.14-.06,.17-.02,0-.04,.01-.06,.01Z"/><path class="h" d="M22.05,30.49s-.09-.02-.11-.07l-4.64-8.76c-.03-.06,0-.14,.05-.17,.06-.03,.14,0,.17,.05l4.64,8.76c.03,.06,0,.14-.05,.17-.02,0-.04,.01-.06,.01Z"/></g><path class="j" d="M36.02,3.3c.11,.79,.08,1.78-.16,1.83-.16,.03-.21-.37-.57-.66-.95-.77-2.9,.1-2.96-.07-.02-.08,.36-.22,.33-.32-.03-.13-.63,.04-1.42-.1-.72-.13-.86-.39-1.11-.27-.5,.25-.26,1.47-.67,1.57-.07,.02-.14,0-.19-.03-.46-.19-.55-1.22-.35-1.96,.06-.21,.11-.29,.13-.51,.06-.53-.16-.68-.07-.94,.15-.44,1.02-.7,1.66-.5,.31,.1,.35,.24,.61,.24,.41,0,.81-.33,.99-.72,.21-.45,.04-.8,.18-.86,.26-.11,.7,1.07,1.57,1.16,.44,.04,.54-.24,.91-.16,.85,.19,1.09,1.93,1.14,2.3Z"/></g></g></g></svg>