<?xml version="1.0" encoding="UTF-8"?><svg xmlns="http://www.w3.org/2000/svg" viewBox="0 0 44.27 51.96"><defs><style>.e{fill:#fff;}.f{fill:#ea445c;}.g{fill:#4fb266;}.h{fill:#210b04;}.i{fill:#f99055;}.j{fill:#fccc00;}.k{fill:#240100;}.l{fill:#0d3315;}.m{fill:#505088;}</style></defs><g id="a"/><g id="b"><g id="c"><g id="d"><path class="m" d="M44.27,42.47c-1.06,.67-2.66,1.45-4.58,1.39-2.22-.07-3.04-1.2-4.91-1.23-2.39-.03-3.04,1.79-5.65,3.19-4.4,2.36-11.4,1.91-15.3-1.31-1.69-1.4-2.32-2.92-3.99-2.95-2.13-.05-2.97,2.36-4.85,2.38-1.18,.01-2.88-.92-4.99-5.4,1.21-.55,2.96-1.48,4.71-3.07,2.22-2.02,3.31-4.11,3.72-4.79,2.05-3.32,5.69-8.66,12.79-17.77,1.25,.07,2.51,.15,3.76,.22,7.5,8.82,9.89,14.06,10.62,17.27,.35,1.54,.69,4.26,2.82,6.38,.96,.96,2.19,1.68,4.13,3.72,.75,.79,1.34,1.49,1.72,1.96Z"/><path class="g" d="M21.91,6.58c-.12,.22-4.18-3.17-7.76-1.78-1.53,.59-1.76,1.58-3.41,2.13-2.07,.69-4.2-.04-5.7-.8,.04-.39,.08-.78,.12-1.16,1.07,.48,2.63,.98,4.31,.59,2-.45,2.43-1.75,4.02-2.33,3.74-1.36,8.55,3.1,8.42,3.35Z"/><path class="g" d="M20.99,6.19c-.02,.2-4.04-1.11-6.29,.99-.96,.89-.83,1.7-1.89,2.6-1.33,1.13-3.13,1.22-4.46,1.11-.09-.3-.17-.6-.26-.9,.94,.04,2.24-.06,3.37-.84,1.35-.93,1.28-2.02,2.29-2.92,2.37-2.13,7.26-.25,7.24-.03Z"/><path class="j" d="M33.29,21.08c.42-.71,.84-1.41,1.26-2.12-1.5-1.93-3.06-3.03-4.07-3.64-1.24-.74-2.43-1.46-3.64-1.08-.79,.25-1.31,.84-1.59,1.23,2.68,1.87,5.36,3.74,8.04,5.61Z"/><path class="j" d="M13.87,22.84c-.57-.59-1.14-1.19-1.71-1.78,1.03-2.21,2.29-3.64,3.15-4.47,1.05-1.01,2.04-1.97,3.3-1.87,.82,.06,1.46,.52,1.83,.84-2.19,2.43-4.38,4.85-6.57,7.28Z"/><path class="g" d="M29.82,37.38c-.02,.18-.05,.36-.07,.52-.48,.16-.96,.31-1.44,.46-.59,.19-1.17,.38-1.75,.56-.05-.18-.13-.43-.23-.74-.24-.74-.92-2.77-2.06-4.92-1.24-2.34-2.7-4.2-3.83-5.48,1.37-.37,2.91-.91,4.54-1.68,.75-.36,1.45-.73,2.09-1.11,.6,.92,1.21,2.05,1.72,3.37,1.37,3.6,1.3,6.9,1.04,9.01Z"/><path class="g" d="M29.31,14.66c-.04,.54-.2,1.46-.79,2.38-.25,.39-.52,.69-.76,.93v9.95h-9.63v-9.95c-.53-.81-1.08-1.63-1.61-2.44,.25-.27,1.33-1.4,3.07-2.12,.93-.4,2.06-.66,3.35-.61,.43,.02,.84,.07,1.24,.14,.92,.18,.99,.38,1.99,.67,.99,.28,1.21,.17,2.03,.49,.5,.19,.88,.41,1.12,.57Z"/><path class="g" d="M18.28,37.75c.06,.18,.11,.35,.17,.5,.5,.06,1.01,.12,1.5,.18,.61,.07,1.22,.15,1.83,.22,.03-.25,.05-.51,.09-.77,.38-3.14,1.09-6.05,2-8.73-.25-.9-.5-1.8-.75-2.7-.75-.23-1.51-.46-2.26-.69-.75-.23-1.51-.46-2.26-.68-.41,1.02-.79,2.24-1.03,3.64-.65,3.79,.06,7.02,.72,9.04Z"/><path class="j" d="M34.99,14.16l1.34-.02c.21,.97,.41,2.5-.01,4.26-.29,1.22-.78,2.18-1.22,2.86-.67,.34-1.41,.26-1.85-.16-.31-.3-.38-.68-.4-.85,.71-2.03,1.43-4.06,2.14-6.09Z"/><path class="j" d="M18.98,25.75c-.12,.43-.25,.86-.37,1.29-.99-.08-2.51-.34-4.08-1.25-1.08-.63-1.85-1.38-2.38-2-.12-.18-.41-.65-.42-1.33,0-.71,.3-1.21,.42-1.39,.54,.29,1.08,.58,1.63,.86,1.73,1.27,3.47,2.55,5.2,3.82Z"/><g><path class="f" d="M36.42,14.72c-.55,0-1.09-.02-1.64-.03-.34-.8-.59-1.39-.74-1.7-.04-.09-.15-.28-.14-.55,0-.14,.03-.25,.05-.31,0,0,.04-.13,.12-.26,.12-.2,.78-.52,1.75-.69,0-.07,.82-.66,.96,.38,.04,.28,.08,.67,.1,1.14-.26-.43-.26-.86-.05-1.09,.07-.07,.21-.18,.32-.14,.15,.06,.25,.39,.07,1.57l-.37,.57-.42,1.12Z"/><path class="h" d="M36.79,12.93c-.07,0-.13-.06-.12-.13l.04-1.21c0-.07,.06-.13,.13-.12,.07,0,.12,.06,.12,.13l-.04,1.21c0,.07-.06,.12-.12,.12Z"/><path class="h" d="M36.97,13.08s-.06-.01-.09-.04l-.14-.14s-.05-.13,0-.18c.05-.05,.13-.05,.18,0l.14,.14s.05,.13,0,.18c-.02,.03-.06,.04-.09,.04Z"/><path class="h" d="M35.72,11.78c-.09-.01-.13-.08-.12-.14l.07-.45c.01-.07,.07-.12,.14-.1,.07,.01,.11,.07,.1,.14l-.07,.45c0,.06-.06,.11-.12,.11Z"/><path class="h" d="M35.14,11.82c-.08,0-.13-.07-.12-.14l.03-.29c0-.07,.07-.12,.14-.11,.07,0,.12,.07,.11,.14l-.03,.29c0,.06-.06,.11-.12,.11Z"/><path class="h" d="M34.55,11.99c-.1-.02-.14-.09-.12-.16l.08-.3c.02-.07,.09-.11,.15-.09,.07,.02,.11,.09,.09,.15l-.08,.3c-.01,.06-.07,.09-.12,.09Z"/></g><path class="j" d="M26.16,13.6c-1.1,1.17-2.21,2.35-3.3,3.51-1.09-1.24-2.18-2.47-3.28-3.71,.93-.4,2.06-.66,3.35-.61,1.25,.05,2.33,.38,3.23,.81Z"/><path class="j" d="M25.13,14.15c-1.33,.11-2.66,.24-4,.35,.02-.43,.04-.86,.07-1.29,.04-.76,.08-1.52,.12-2.27,0-.06,0-.11,.01-.17,.05-.84,.1-1.68,.15-2.52l1.37-.03,1.26-.03h.57c-.03,.8-.01,1.68,.05,2.6,.08,1.23,.22,2.35,.39,3.35Z"/><path class="k" d="M24.52,10.92c0,1.03-.65,1.87-1.45,1.87s-1.45-.84-1.45-1.87,.65-1.87,1.45-1.87,1.45,.84,1.45,1.87Z"/><path class="i" d="M23.15,.53c-.38,0-.72,.02-1.03,.05-1.73,.2-3.04,1.68-3.04,3.43v3.56c.09,.45,.45,1.96,1.85,3.04,.81,.63,1.64,.85,2.11,.94,.03,0,.06,0,.09,0,.03,0,.06,0,.09,0,.48-.09,1.3-.31,2.11-.94,1.4-1.08,1.76-2.59,1.85-3.04v-3.56c0-1.75-1.31-3.23-3.04-3.43-.32-.04-.65-.06-1-.05Z"/><g><path class="i" d="M19.83,7.22c0,.72-.43,1.3-.95,1.3s-.95-.58-.95-1.3,.43-1.3,.95-1.3,.95,.58,.95,1.3Z"/><path class="i" d="M28.4,7.22c0,.72-.43,1.3-.95,1.3s-.95-.58-.95-1.3,.43-1.3,.95-1.3,.95,.58,.95,1.3Z"/></g><path class="k" d="M22.84,8.57c.14-.08,.28-.1,.41-.1,.14,0,.28,.02,.41,.1-.14,.08-.28,.1-.41,.1-.14,0-.28-.02-.41-.1Z"/><g><path class="k" d="M21.83,6.65c0,.26-.24,.47-.54,.48s-.54-.19-.55-.45c0-.26,.24-.47,.54-.48,.3,0,.54,.19,.55,.45Z"/><path class="k" d="M22.09,7.19c-.06,0-.12-.05-.12-.11,0-.02-.06-.5-.44-.68-.38-.19-.9,.02-1.15,.45-.04,.06-.11,.08-.17,.04-.06-.04-.08-.11-.04-.17,.33-.55,.98-.79,1.48-.54,.49,.24,.57,.81,.58,.88,0,.07-.04,.13-.11,.14h-.01Z"/></g><g><path class="k" d="M24.5,6.65c0,.26,.24,.47,.54,.48s.54-.19,.55-.45c0-.26-.24-.47-.54-.48-.3,0-.54,.19-.55,.45Z"/><path class="k" d="M24.24,7.19c-.08,0-.13-.07-.12-.14,0-.06,.09-.64,.58-.88,.5-.25,1.15,0,1.48,.54,.04,.06,.02,.14-.04,.17-.06,.03-.14,.02-.17-.04-.26-.43-.78-.63-1.16-.45-.37,.18-.43,.66-.44,.68,0,.06-.06,.11-.12,.11Z"/></g><path class="k" d="M22.97,9.69c-.19,0-.38-.02-.57-.05-.07-.01-.11-.08-.1-.15,.01-.07,.07-.11,.15-.1,.23,.04,.47,.06,.7,.04,.35-.02,.7-.11,1.02-.27,.06-.03,.14,0,.17,.06,.03,.06,0,.14-.06,.17-.36,.17-.73,.27-1.11,.29-.07,0-.13,0-.2,0Z"/><path class="k" d="M23.13,10.11c-.06,0-.11-.04-.12-.11-.01-.07,.04-.13,.1-.14l.54-.08c.07-.02,.13,.04,.14,.1,.01,.07-.04,.13-.1,.14l-.54,.08s-.01,0-.02,0Z"/><path class="k" d="M26.24,5.15c-.03,.2-1.14,.15-1.31,.15-.35-.01-1-.04-1.02-.19-.02-.14,.53-.4,1.09-.41,.64-.01,1.27,.3,1.24,.45Z"/><path class="k" d="M22.09,5.25c-.03,.2-1.14,.15-1.31,.15-.35-.01-1-.04-1.02-.19-.02-.14,.53-.4,1.09-.41,.64-.01,1.27,.3,1.24,.45Z"/><path class="g" d="M23.13,6.03c-1.77,0-3.19-.36-4.11-.67,0,.42,0,.83,0,1.24,.24,.32,.76,.91,1.61,1.26,.5,.2,1.18,.48,1.85,.23,.34-.13,.45-.32,.8-.33,.44-.02,.55,.25,1,.36,.68,.16,1.33-.23,1.89-.57,.26-.16,.61-.41,.97-.79v-1.4c-.9,.32-2.29,.67-4.01,.68Zm-2.02,1.62c-1.12-.1-1.94-1.43-1.72-1.78,.17-.25,.94-.02,1.72,.21,.77,.24,1.49,.45,1.51,.78,0,.37-.79,.85-1.51,.79Zm4.03,0c-.73,.06-1.53-.43-1.52-.79,.02-.34,.74-.54,1.52-.78,.78-.23,1.54-.46,1.71-.21,.22,.35-.6,1.68-1.71,1.78Z"/><path class="l" d="M24.24,17.7c0,.75-.61,1.36-1.36,1.36s-1.36-.61-1.36-1.36,.61-1.36,1.36-1.36,1.36,.61,1.36,1.36Z"/><path class="l" d="M23.13,31.64s-.05,0-.07-.02c-.06-.04-.07-.12-.03-.17l.61-.85c.04-.06,.12-.07,.17-.03,.06,.04,.07,.12,.03,.17l-.61,.85s-.06,.05-.1,.05Z"/><path class="l" d="M23.87,30.56c-.07,0-.12-.05-.12-.12l-.1-3.1c0-.07,.05-.13,.12-.13,.07,0,.13,.05,.13,.12l.1,3.1c0,.07-.05,.13-.12,.13h0Z"/><path class="l" d="M18.59,25.36c-.09-.01-.13-.07-.12-.14l.86-6.36s.04-.08,.08-.1l3.21-1.27c.06-.03,.14,0,.16,.07,.03,.06,0,.14-.07,.16l-3.14,1.24-.85,6.29c0,.06-.06,.11-.12,.11Z"/><path class="l" d="M27.24,25.36c-.06,0-.12-.05-.12-.11l-.85-6.29-3.14-1.24c-.06-.03-.1-.1-.07-.16,.03-.06,.1-.1,.16-.07l3.21,1.27s.07,.05,.08,.1l.86,6.36c0,.07-.04,.13-.11,.14h-.02Z"/><path class="l" d="M19.07,37.35c-.08,0-.13-.06-.12-.13l.68-11.48c0-.07,.06-.13,.13-.12,.07,0,.12,.06,.12,.13l-.68,11.48c0,.07-.06,.12-.12,.12Z"/><path class="l" d="M28.73,37.7c-.06,0-.11-.04-.12-.1l-1.85-11.3c-.01-.07,.04-.13,.1-.14,.07,0,.13,.04,.14,.1l1.85,11.3c.01,.07-.04,.13-.1,.14h-.02Z"/><path class="j" d="M31.1,41.88c.56,2.64,.37,4.77,.27,5.85-.08,.92-.22,1.66-.32,2.18l-1.37,.27c-1.05-3.75-2.08-7.51-3.13-11.26,.14-.2,.37-.45,.69-.65,.04-.02,.09-.06,.15-.11,.59-.42,1.09-1.05,1.81-1.15,.11-.02,.6-.09,.75,.16,.1,.18,.02,.47-.21,.72,.08,.16,.18,.37,.28,.62,.58,1.33,.89,2.5,1.07,3.37Z"/><path class="j" d="M17.89,42.42c-.04,2.7,.56,4.75,.86,5.8,.26,.88,.53,1.59,.73,2.08h1.4c.3-3.88,.59-7.77,.89-11.65-.18-.17-.45-.37-.81-.51-.04-.02-.1-.05-.17-.08-.67-.3-1.42-.98-2.18-.84-.09,.02-.45,.08-.53,.32-.07,.21,.07,.49,.36,.71-.05,.17-.1,.4-.16,.66-.31,1.42-.39,2.63-.4,3.51Z"/><rect class="j" x="17.89" y="25.23" width="10.31" height="1.03"/><path class="f" d="M18.19,25.07l2.25,.28c.38,2.05,.4,3.13,.07,3.26-.18,.07-.46-.15-.84-.64-.43,.01-.86,.02-1.29,.03-.42-.4-.84-.8-1.26-1.2,.36-.58,.72-1.15,1.07-1.73Z"/><path class="e" d="M24.55,9.22c.07,.17-.44,.66-1.03,.72-.65,.07-1.29-.4-1.25-.59,.02-.1,.43-.13,1.25-.17,.96-.05,1.01,0,1.03,.04Z"/><path class="k" d="M13.39,22.84c-.05,0-.1-.03-.12-.08-.02-.06,0-.14,.07-.16l.86-.33c.06-.02,.14,0,.16,.07,.02,.06,0,.14-.07,.16l-.86,.33s-.03,0-.04,0Z"/><path class="k" d="M33.65,18.71c-.06,0-.12-.05-.12-.11l-.09-.79c0-.07,.04-.13,.11-.14,.06-.01,.13,.04,.14,.11l.09,.79c0,.07-.04,.13-.11,.14h-.01Z"/><path class="k" d="M26.76,1.51c.51,.74,.58,1.59,.64,2.24,.04,.48,.11,1.26-.16,1.37-.37,.15-.82-1.08-2.23-1.62-.6-.23-1.29-.31-1.43-.07-.1,.16,.12,.36,.01,.63-.13,.34-.63,.45-.77,.48-.38,.08-.68,.01-1.34-.18-1.31-.39-1.5-.56-1.75-.43-.56,.27-.42,1.41-.51,1.4-.12,0-.79-1.9,.21-3.53C20.41,.2,22.26,.06,22.84,.01c.27-.02,2.77-.18,3.92,1.5Z"/><path class="l" d="M21.28,39.55s-.04,0-.05-.01l-2.45-1.17c-.06-.03-.09-.1-.06-.17,.03-.06,.11-.09,.17-.06l2.45,1.17c.06,.03,.09,.1,.06,.17-.02,.04-.07,.07-.11,.07Z"/><path class="l" d="M27.03,39.3s-.08-.02-.11-.06c-.04-.06-.02-.14,.04-.17l2.29-1.36c.06-.04,.14-.02,.17,.04,.04,.06,.02,.14-.04,.17l-2.29,1.36s-.04,.02-.06,.02Z"/><path class="l" d="M30.35,50.09c-.06,0-.12-.05-.12-.11l-1.32-11.12c0-.07,.04-.13,.11-.14,.07-.02,.13,.04,.14,.11l1.32,11.12c0,.07-.04,.13-.11,.14h-.01Z"/><path class="l" d="M19.83,50.32c-.06,0-.12-.05-.12-.12l-.91-11.35c0-.07,.05-.13,.11-.13,.07,0,.13,.05,.13,.12l.91,11.35c0,.07-.05,.13-.11,.13h0Z"/><path class="f" d="M31.84,51.94h-2.34c.05-.62,.1-1.25,.15-1.87,.47-.08,.94-.16,1.4-.24,.62,.43,1.08,.83,1.38,1.13,.5,.48,.56,.64,.53,.75-.09,.31-.98,.24-1.13,.23Z"/><path class="f" d="M18.72,51.94h2.34c-.05-.62-.1-1.25-.15-1.87-.52-.05-1.04-.09-1.56-.14-.53,.38-.94,.74-1.23,1.03-.51,.5-.56,.66-.53,.75,.09,.31,.98,.24,1.13,.23Z"/></g></g></g></svg>