<?xml version="1.0" encoding="UTF-8"?><svg xmlns="http://www.w3.org/2000/svg" viewBox="0 0 44.31 73.39"><defs><style>.e{fill:#fff;}.f{fill:#ea445c;}.g{fill:#4fb266;}.h{fill:#210b04;}.i{fill:#f99055;}.j{fill:#fccc00;}.k{fill:#ef4d4d;}</style></defs><g id="a"/><g id="b"><g id="c"><g id="d"><path class="g" d="M43.07,67.39c-.94-.54-2.37-1.17-4.12-1.17-2.18,0-2.71,.98-4.91,1.15-2.83,.21-3.26-1.32-5.94-1.23-2.96,.1-2.96,2.12-5.82,2.32-2.84,.2-3.52-1.67-7.15-1.56-1.77,.05-1.98,.51-3.64,.66-1.78,.16-4.4-.11-7.78-2.21-.85-1.57-1.52-3.13-2.05-4.66C-5.21,40.58,11.09,18.91,16.13,12.66c1.25,.23,2.49,.45,3.74,.68,9.33,24.99,15.31,34.81,19.19,38.83,1.1,1.13,5.52,5.43,5.24,10.88-.1,1.88-.73,3.39-1.23,4.34Z"/><path class="h" d="M19.9,2.31c-.12,1.94,.04,4.98,1.82,7.63,.82,1.22,1.92,2.26,2.31,2.61,1.77,1.61,3.3,1.53,3.89,2.89,.45,1.02,.1,2.09-.03,2.48-.95,2.92-4.52,3.27-4.58,5.34-.02,.94,.7,1.16,.49,1.69-.45,1.12-3.83,.26-11.22-.44-3.52-.33-4.71-.32-6.15-1.36-2.05-1.47-3.42-4.19-2.67-5.39,.6-.95,2.14-.31,3.38-1.69,.71-.79,.52-1.34,1.12-2.23,.53-.78,1.57-1.7,3.89-2.12L19.9,2.31Z"/><path class="j" d="M18.36,51.08c1.29-.25,2.59-.49,3.88-.74,.75-1.97,1.52-4.44,2.02-7.34,.45-2.61,.59-4.96,.58-6.92-2.28,.61-4.62,1.12-7.03,1.5-.07,.01-.14,.02-.21,.03-.06,1.09-.1,2.23-.1,3.4,0,3.7,.35,7.08,.87,10.07Z"/><path class="j" d="M18.33,51.45c0,1.19,1.02,2.1,2.1,2.1,.83,0,1.61-.53,1.97-1.35-.04-.31-.07-.63-.1-.96-.03-.31-.05-.61-.06-.9-.06-.09-.72-1.01-1.81-.99-1.05,.01-2.1,.89-2.1,2.1Z"/><path class="h" d="M18.56,70.32c.56-.14,1.11-.28,1.67-.42,0-.37,0-.94,.03-1.63,.32-5.38,2.59-7.5,2.72-11.73,.03-1-.04-2.48-.61-4.3-1.35-.21-2.69-.43-4.04-.64-.07,3.93,.05,6.98,.19,9.1,.08,1.18,.23,3.16,.19,5.9-.02,1.56-.1,2.85-.16,3.72Z"/><path class="h" d="M18.07,73.39c1.4-.01,2.8-.02,4.2-.03,.1-.15,.21-.36,.16-.58-.08-.39-.58-.56-.87-.71-.47-.25-1.02-.81-1.35-2.18l-1.63,.16c-.16,.61-.31,1.17-.45,1.73-.08,.33-.18,.71-.13,1.22,.02,.16,.04,.3,.06,.38Z"/><path class="j" d="M11.97,30.31c.62-1.07,1.31-1.92,1.92-2.56-.4-2.09-.8-4.17-1.2-6.26-.77-.39-1.3-1.16-1.3-2.06,0-.59,.23-1.13,.61-1.54-.11-.55-.21-1.1-.32-1.65,.3-.36,.75-.78,1.38-1.09,2-1,4.09-.03,4.42,.13,.37-.16,2.46-1.12,4.46-.13,.63,.31,1.08,.73,1.38,1.09-.11,.55-.21,1.1-.32,1.65,.38,.41,.61,.95,.61,1.54,0,.89-.53,1.67-1.3,2.06-.4,2.09-.8,4.17-1.2,6.26,.62,.65,1.3,1.5,1.92,2.56,1.31,2.25,1.7,4.41,1.83,5.77-1.06,.54-2.6,1.2-4.55,1.62-1.46,.32-3.27,.71-5.54,.3-1.94-.35-3.49-1.14-4.62-1.92,.13-1.36,.52-3.52,1.83-5.77Z"/><path class="f" d="M10.96,26.9c-.86-.35-1.71-.7-2.57-1.05-.1-1.94-.05-4.23,.34-6.76,.16-1.03,.37-1.99,.59-2.89,.61-.49,1.4-.63,2.08-.36,.66,.27,.95,.83,1.03,.99-.49,3.35-.98,6.71-1.48,10.06Z"/><path class="h" d="M6.53,37.55c-.34-.11-.67-.21-1.01-.32,.89-4.31,1.44-7.15,1.8-9.11,.15-.82,.51-2.8,.83-2.78,.12,0,.19,.28,.24,.51,.86,.35,1.71,.7,2.57,1.05-.17,.86-.37,1.51-.5,1.9-1.07,3.16-2.66,4.21-3.59,7.3-.19,.65-.3,1.18-.35,1.46Z"/><path class="h" d="M5.52,37.23c-.28,.29-.69,.78-.99,1.48-.11,.26-.69,1.74-.11,3.33,.29,.79,.93,1.75,1.41,1.66,.19-.03,.36-.23,.38-.43,.04-.4-.62-.52-.87-1.08-.33-.75,.27-1.85,.56-1.83,.15,.01,.29,.33,.29,.6,0,.51-.51,.74-.41,1,.07,.18,.41,.32,.66,.23,.67-.23,.61-2.16,.45-3.22-.09-.61-.24-1.1-.36-1.43-.34-.11-.67-.21-1.01-.32Z"/><path class="f" d="M28.36,25.46c.58-.72,1.16-1.44,1.74-2.16-.85-1.75-1.99-3.73-3.56-5.75-.64-.82-1.28-1.57-1.91-2.24-.77-.14-1.53,.12-1.99,.69-.45,.55-.43,1.19-.42,1.37,2.05,2.7,4.1,5.4,6.14,8.1Z"/><path class="h" d="M23.07,32.99c-.29-.21-.57-.41-.86-.62,1.18-2.73,2.67-5.45,4.56-8.09,.11-.16,.23-.31,.34-.47,.75-.47,1.5-.95,2.25-1.42,.44-.23,.96-.22,1.28,.04,.46,.37,.53,1.22-.03,1.82-.43,.76-.82,1.32-1.07,1.64-2.01,2.66-3.85,3.16-5.69,5.81-.39,.56-.65,1.03-.78,1.28Z"/><g><path class="j" d="M8.88,51.92c0,1.42,1.81,2.03,1.94,2.07,.85,.27,1.6,.09,1.92-.01,.05-.69,.1-1.41,.12-2.15,.01-.34,.02-.67,.03-1.01-.08-.11-.71-.99-1.76-1.02-1.1-.03-2.26,.88-2.25,2.11Z"/><path class="j" d="M8.98,51.31c1.24-.04,2.49-.09,3.73-.13,1.24-2.35,2.57-5.55,3.3-9.5,.32-1.73,.47-3.33,.52-4.77l-6.38-.82c-.69,2.96-1.25,6.52-1.31,10.55-.03,1.66,.03,3.22,.15,4.67Z"/><path class="h" d="M6.76,69.45c.44,.18,.88,.36,1.32,.54,.31-.77,.81-1.99,1.5-3.45,2.06-4.4,3.35-5.75,3.65-8.38,.11-.94,.13-2.42-.46-4.32-1.32-1.31-2.65-2.63-3.97-3.94-.07,.51-.11,1.16,0,1.89,.04,.27,.09,.52,.15,.75-.19,3-.49,6.19-.95,9.54-.35,2.58-.77,5.04-1.23,7.37Z"/><path class="h" d="M1.72,73.14h7.38c.08-.33,.14-.83-.04-1.36-.07-.2-.14-.33-.18-.41-.21-.37-.45-1-.58-2.11-.47-.06-.94-.12-1.41-.18-1.78,2.72-2.79,3.27-3.39,3.23-.16-.01-.75-.09-1.25,.24-.27,.18-.42,.42-.52,.59Z"/></g><path class="f" d="M9.22,16.7c5.41-.03,10.81-.06,16.23-.1-.12-.54-.36-1.29-.96-1.86-1.21-1.17-2.72-.59-3.94-1.51-.46-.34-.92-.91-1.2-1.96-.12-.46-.2-1-.23-1.65-.08,0-.16,0-.24-.02-.44-.03-.85-.06-1.27-.09-.07,0-.15,0-.22,0-.06-.71-.44-1.21-.84-1.24-.08,0-.25,0-.46,.15-.11,3.11-1.03,4.3-1.85,4.82-1.24,.78-2.66,.35-3.94,1.51-.67,.6-.96,1.38-1.1,1.96Z"/><g><path class="h" d="M18.05,14.09c-.15,.19-.39,.28-.62,.23-.33-.07-.45-.37-.46-.39l1.08,.16Z"/><path class="h" d="M16.9,14.65c-.08,.04-.2,.09-.36,.14-.52,.16-.95,.13-1.26,.1-1.1-.09-2.11-.25-2.45-.3,.79,.03,1.57,.05,2.36,.08l1.71-.02Z"/><path class="h" d="M17.9,14.65c.08,.04,.2,.09,.36,.14,.52,.16,.95,.13,1.26,.1,1.1-.09,2.11-.25,2.45-.3-.79,.03-1.57,.05-2.36,.08l-1.71-.02Z"/></g><path class="h" d="M17.62,9.51c-.1,.9,.68,1.87,1.39,1.85,.13,0,.24-.04,.35-.09-.12-.46-.2-1-.23-1.65-.08,0-.16,0-.24-.02-.44-.03-.85-.06-1.27-.09Z"/><path class="i" d="M21.63,6.6c.03,.61-.17,1.07-.42,1.64-.05,.1-.59,1.33-1.26,1.61-.24,.1-.48,.13-.48,.13-.17,.02-.33,.02-.49,0-.19-.02-1.71-.32-2.86-1.42-1.42-1.37-2.69-4.42-1.22-6.36,.91-1.2,2.44-1.43,3.05-1.48,.07,0,.14,0,.23,0,0,0,.33,0,.63,.05,1.1,.16,1.71,.74,1.71,.74,.59,.56,.78,1.38,.83,2.04,.01,.13,.02,.25,.02,.36,0,.13,0,.24,0,.34,0,.3-.02,.5,.01,.93,.06,.77,.21,.96,.24,1.44Z"/><g><path class="h" d="M17.72,5.4c0,.21-.19,.39-.44,.4-.25,.01-.45-.15-.46-.36,0-.21,.19-.39,.44-.4,.25-.01,.45,.15,.46,.36Z"/><path class="k" d="M16.61,5.32c.71-.43,1.06-.42,1.25-.29,.18,.12,.23,.36,.32,.34,.09-.02,.14-.32,.01-.51-.09-.13-.24-.18-.29-.19-.53-.15-1.23,.58-1.29,.65Z"/><path class="h" d="M16.6,5.48s-.08-.02-.11-.06c-.04-.06-.02-.14,.04-.17,.64-.4,1.26-.48,1.59-.2,.03,.02,.05,.05,.08,.08l.14-.16c.05-.05,.12-.06,.18-.01,.05,.05,.06,.12,.01,.18l-.25,.28s-.07,.05-.11,.04c-.04,0-.08-.04-.1-.07-.03-.06-.06-.11-.11-.15-.23-.2-.77-.11-1.3,.22-.02,.01-.04,.02-.07,.02Z"/></g><g><path class="h" d="M21.11,4.99c.06,.2-.08,.43-.31,.51-.23,.08-.47-.02-.54-.22-.06-.2,.08-.43,.31-.51,.23-.08,.47,.02,.54,.22Z"/><path class="k" d="M19.97,5.29c.57-.6,.91-.69,1.13-.62,.21,.07,.32,.29,.4,.24,.08-.05,.05-.34-.13-.49-.12-.11-.28-.11-.33-.11-.55,0-1.03,.89-1.07,.97Z"/><path class="h" d="M19.97,5.45s-.06-.01-.08-.03c-.05-.05-.06-.13,0-.18,.51-.56,1.09-.81,1.48-.62,.03,.02,.07,.03,.1,.06l.09-.19c.03-.06,.11-.09,.17-.06,.06,.03,.09,.1,.06,.17l-.16,.34s-.06,.06-.1,.07c-.04,0-.08-.01-.11-.05-.04-.05-.09-.09-.14-.12-.28-.13-.76,.09-1.19,.56-.02,.03-.06,.04-.09,.04Z"/></g><g><path class="h" d="M16.03,4.46c.29-.09,.69-.18,1.18-.2,.42-.02,.78,.02,1.04,.07,0-.06-.02-.12-.04-.19-.05-.17-.15-.29-.22-.36-.33,.02-.61,.05-.81,.08-.49,.07-.62,.12-.71,.17-.24,.13-.38,.31-.45,.43Z"/><path class="h" d="M18.19,3.77s.08,.12,.11,.22c.06,.17,.07,.34,.05,.34-.02,0-.09-.19-.11-.25-.03-.09-.05-.16-.11-.26-.02-.02-.03-.04-.04-.06h.1Z"/></g><g><path class="h" d="M21.35,3.52c.01,.13,.02,.25,.02,.36-.12,.02-.25,.04-.38,.07-.41,.09-.74,.22-.99,.34,0-.05-.02-.12-.01-.19,0-.18,.07-.31,.12-.4,.33-.07,.6-.11,.81-.13,.2-.02,.34-.03,.44-.04Z"/><path class="h" d="M19.92,3.73c-.02,.06-.04,.14-.05,.24-.02,.18,.02,.34,.04,.34,.02,0,.04-.21,.04-.27,0-.09,0-.17,.04-.28,0-.03,.02-.05,.02-.06l-.09,.04Z"/></g><path class="h" d="M19.53,6.67c.11-.07,.22-.1,.33-.11,.11,0,.23,0,.35,.05-.11,.07-.22,.1-.33,.11-.11,0-.23,0-.35-.05Z"/><path class="h" d="M19.55,7.99c-.3,0-.6-.06-.89-.16-.06-.02-.1-.1-.07-.16,.02-.06,.1-.1,.16-.07,.29,.11,.58,.16,.89,.15,.34-.01,.68-.11,.99-.27,.06-.03,.14-.01,.17,.05,.03,.06,.01,.14-.05,.17-.34,.18-.72,.29-1.1,.3-.03,0-.06,0-.1,0Z"/><path class="k" d="M20.57,7.64c0,.14-.42,.26-.76,.29-.44,.03-.87-.07-.87-.14,0-.02,.05-.02,.15-.06,.31-.14,.35-.45,.53-.45,.03,0,.12,0,.21,0,.04,0,.08-.02,.08-.02,.14-.03,.15-.06,.2-.06,.11,.03,.28,.23,.28,.23,.13,.17,.18,.16,.18,.2Z"/><path class="h" d="M19.68,8.55c-.14,0-.28-.02-.42-.06-.07-.02-.11-.09-.09-.15,.02-.07,.09-.11,.15-.09,.17,.05,.34,.06,.51,.04,.07,0,.14-.02,.22-.05,.07-.02,.14,.02,.16,.08,.02,.07-.02,.14-.08,.16-.09,.03-.18,.05-.26,.06-.06,0-.12,.01-.18,.01Z"/><path class="e" d="M18.8,7.74s.37,.54,.91,.51c.52-.02,.92-.51,.86-.62-.04-.08-.3,.06-.86,.11-.38,.04-.7,.02-.91,0Z"/><path class="f" d="M16.33,38.37l1.23-.1c2.27-1.61,4.53-3.23,6.8-4.84-.18-1.08-.65-2.89-2.06-4.54-.4-.46-.81-.84-1.2-1.15,.41-1.84,.82-3.69,1.23-5.53,1.02-.7,1.58-1.81,1.41-2.87-.11-.73-.53-1.23-.75-1.45,.19-.6,.38-1.21,.56-1.81-2.08-.17-4.16-.34-6.24-.5-1.88,.22-3.76,.44-5.65,.67,.11,.55,.21,1.1,.32,1.65-.08,.07-.9,.88-.73,2.08,.18,1.27,1.31,1.8,1.39,1.83,.36,1.99,.72,3.97,1.08,5.96-.5,.51-1.08,1.18-1.61,2.03-.86,1.38-1.27,2.69-1.48,3.63,1.9,1.65,3.79,3.31,5.69,4.96Z"/><path class="h" d="M18.31,54.82c1.49-.28,2.99-.56,4.48-.84l-.39-1.77c-.85-1.02-1.7-2.04-2.56-3.05-.6,.84-1.2,1.69-1.8,2.53,.09,1.04,.18,2.09,.26,3.13Z"/><path class="j" d="M13.48,28.02c.98,.19,2.14,.34,3.44,.38,1.78,.05,3.33-.14,4.56-.38v-.72c-1.31,.09-2.71,.15-4.19,.14-1.34,0-2.61-.06-3.81-.14v.72Z"/><path class="j" d="M17.37,38.3c-.11-.03-.14-.1-.12-.17l3.86-10.32c.02-.06,.1-.1,.16-.07,.06,.02,.1,.1,.07,.16l-3.86,10.32c-.02,.05-.07,.08-.12,.08Z"/><path class="j" d="M16.45,38.38c-.06,0-.11-.04-.12-.09l-2.87-10.55c-.02-.07,.02-.14,.09-.15,.07-.02,.14,.02,.15,.09l2.87,10.55c.02,.07-.02,.14-.09,.15-.01,0-.02,0-.03,0Z"/><path class="j" d="M22.22,22.32s-.03,0-.05,0l-4.93-2.1-4.35,1.96c-.06,.03-.14,0-.17-.06-.03-.06,0-.14,.06-.17l4.4-1.99s.07-.02,.1,0l4.98,2.12c.06,.03,.09,.1,.07,.16-.02,.05-.07,.08-.12,.08Z"/><path class="j" d="M17.15,27.71s-.06-.01-.09-.03c-.05-.05-.05-.13,0-.18l5.07-5.39c.05-.05,.13-.05,.18,0,.05,.05,.05,.13,0,.18l-5.07,5.39s-.06,.04-.09,.04Z"/><path class="j" d="M17.15,27.71s-.07-.02-.1-.05l-4.31-5.35c-.04-.05-.04-.13,.02-.18,.05-.04,.13-.03,.18,.02l4.31,5.35c.04,.05,.04,.13-.02,.18-.02,.02-.05,.03-.08,.03Z"/><path class="j" d="M17.34,19.43s-.06-.01-.09-.03c-.57-.54-1.78-1.47-3.48-1.6-.62-.05-1.25,.02-1.87,.19-.06,.02-.14-.02-.15-.09-.02-.07,.02-.14,.09-.15,.64-.18,1.3-.25,1.95-.2,1.7,.13,2.93,1.02,3.55,1.6,.86-.62,1.82-1.06,2.85-1.31,1.02-.24,2.07-.28,3.11-.11,.07,.01,.11,.08,.1,.14-.01,.07-.08,.12-.14,.1-1.01-.16-2.02-.12-3.02,.11-1.03,.25-1.99,.69-2.84,1.33-.02,.02-.05,.02-.07,.02Z"/><path class="j" d="M19.31,69.41c-.07,0-.13-.06-.12-.13l.65-15.15c0-.07,.06-.12,.13-.12,.07,0,.12,.06,.12,.13l-.65,15.15c0,.07-.06,.12-.12,.12Z"/><path class="j" d="M19.95,54.39c-.05,0-.1-.03-.12-.08-.02-.06,0-.14,.07-.16l2.69-.98c.06-.02,.14,0,.16,.07,.02,.06,0,.14-.07,.16l-2.69,.98s-.03,0-.04,0Z"/><path class="j" d="M19.95,54.26s-1.76-.37-1.76-.37c-.07-.01-.11-.08-.1-.15,.01-.07,.08-.11,.15-.1l1.73,.36c.07,.01,.11,.08,.1,.15-.01,.06-.06,.1-.12,.1Z"/><path class="j" d="M12.74,54.11s-3.83-1.15-3.83-1.15c-.07-.02-.1-.09-.08-.16,.02-.07,.09-.11,.16-.08l3.79,1.15c.07,.02,.1,.09,.08,.16-.02,.05-.07,.09-.12,.09Z"/><path class="j" d="M6.88,69.2c-.09-.01-.14-.08-.12-.15,.51-2.72,.94-5.5,1.28-8.26,.34-2.73,.6-5.52,.78-8.26,0-.07,.05-.13,.13-.12,.07,0,.12,.06,.12,.13-.18,2.75-.44,5.54-.78,8.28-.34,2.76-.77,5.54-1.28,8.27-.01,.06-.06,.1-.12,.1Z"/><path class="j" d="M20.1,69.33h-1.33c-.07,0-.12-.06-.12-.12s.06-.12,.12-.12h1.33c.07,0,.12,.06,.12,.12s-.06,.12-.12,.12Z"/><path class="j" d="M8.3,69.39s-1.43-.18-1.43-.18c-.07,0-.12-.07-.11-.14,0-.07,.07-.11,.14-.11l1.41,.18c.07,0,.12,.07,.11,.14,0,.06-.06,.11-.12,.11Z"/><path class="j" d="M17.07,27.62c-.07,0-.13-.06-.12-.13l.13-7.35c0-.07,.05-.13,.13-.12,.07,0,.12,.06,.12,.13l-.13,7.35c0,.07-.06,.12-.12,.12Z"/><path class="j" d="M15.01,27.72s-.1-.03-.12-.08l-2.18-5.27c-.03-.06,0-.14,.07-.16,.06-.02,.14,0,.16,.07l2.18,5.27c.03,.06,0,.14-.07,.16-.02,0-.03,0-.05,0Z"/><path class="j" d="M19.23,27.64s-.04,0-.06-.02c-.06-.03-.08-.11-.05-.17l2.98-5.32c.03-.06,.11-.08,.17-.05,.06,.03,.08,.11,.05,.17l-2.98,5.32s-.07,.06-.11,.06Z"/><path class="j" d="M16.97,27.98s-.03,0-.05,0c-.06-.03-.09-.1-.07-.16l2.84-6.69c.03-.06,.1-.09,.16-.07,.06,.03,.09,.1,.07,.16l-2.84,6.69s-.07,.08-.12,.08Z"/><path class="j" d="M17.2,27.87c-.05,0-.1-.03-.12-.08l-2.42-6.48c-.02-.06,0-.14,.07-.16,.06-.03,.14,0,.16,.07l2.42,6.48c.02,.06,0,.14-.07,.16-.01,0-.03,0-.04,0Z"/><path class="h" d="M24,28.7l-2.65,.14c-.45,2.42-.47,3.7-.08,3.84,.21,.08,.54-.17,.99-.75l1.53,.04c.43-.58,.86-1.16,1.29-1.75-.36-.51-.72-1.01-1.08-1.52Z"/><path class="f" d="M17.68,7.07c-.38,0-.75-.1-1.06-.27-.45-.25-1.11-.9-.96-1.55,.1-.42,.51-.76,1.14-.94,.6-.17,1.38-.17,1.77,.23,.09,.1,.16,.21,.21,.3,.08,.14,.13,.22,.22,.25,.07,.02,.17,.01,.27-.03,.13-.31,.32-.58,.56-.8,.44-.39,1.36-.84,1.94-.39,.33,.25,.37,.67,.39,.87,.04,.42-.08,1.05-.56,1.43-.62,.48-1.57,.37-2.23-.25h-.11c-.05,.22-.14,.4-.26,.57-.32,.41-.83,.59-1.35,.59Zm-.11-2.37c-.2,0-.41,.03-.62,.09-.43,.12-.74,.35-.79,.57-.07,.32,.31,.77,.72,1,.6,.34,1.42,.24,1.76-.2,.11-.14,.17-.31,.19-.51v-.1c-.25-.09-.37-.3-.47-.47-.04-.08-.08-.15-.13-.2-.12-.12-.37-.19-.66-.19Zm2.06,.74l.04,.04c.53,.56,1.26,.59,1.64,.29,.3-.23,.4-.66,.37-.98-.02-.15-.04-.4-.2-.52-.28-.22-.91,.02-1.3,.37-.21,.18-.36,.41-.46,.69l-.03,.09-.05,.03Z"/><path class="h" d="M23.7,19.23s-.03,0-.05-.01c-.06-.03-.09-.1-.06-.16l.37-.84c.03-.06,.1-.09,.16-.06,.06,.03,.09,.1,.06,.16l-.37,.84s-.07,.07-.11,.07Z"/><path class="h" d="M11.71,18.36c-.05,0-.1-.03-.12-.08l-.21-.58c-.02-.06,0-.14,.07-.16,.06-.02,.14,0,.16,.07l.21,.58c.02,.06,0,.14-.07,.16-.01,0-.03,0-.04,0Z"/><path class="h" d="M19.08,.3c.47,.59-.27,1.94-.89,2.68-1.4,1.68-4.07,2.48-4.62,1.78-.62-.78,1.1-3.81,3.51-4.56,.16-.05,1.55-.48,2,.1Z"/><path class="h" d="M16.6,3.28c-.52,.49-1.14,1.23-1.27,2.22-.16,1.18,.52,1.64,.83,3.24,.13,.67,.57,2.94-.59,4.15-.48,.5-.65,.22-3.21,1.19-1.31,.5-1.68,.72-2.06,.51-.65-.37-.84-1.74-.34-2.64,.51-.91,1.42-.78,1.71-1.61,.23-.67-.25-1.07-.39-1.97-.16-1.09,.32-1.95,1.14-3.34,.6-1.04,1.64-2.54,3.34-4.08l.83,2.33Z"/><g><ellipse class="i" cx="14.97" cy="6.11" rx=".78" ry="1.06"/><g><path class="h" d="M14.97,7.29c-.31,0-.59-.2-.76-.54-.03-.06,0-.14,.06-.17,.06-.03,.14,0,.17,.06,.18,.37,.54,.5,.82,.31,.06-.04,.13-.02,.17,.03,.04,.06,.02,.13-.03,.17-.13,.09-.27,.13-.42,.13Z"/><path class="h" d="M14.26,6.69c-.05,0-.1-.03-.12-.08-.05-.13-.07-.27-.08-.41,0-.07,.05-.13,.12-.13,.07,0,.13,.05,.13,.12,0,.12,.03,.23,.07,.34,.02,.07-.01,.14-.08,.16-.01,0-.03,0-.04,0Z"/><path class="h" d="M14.19,6.12c-.08,0-.13-.07-.12-.13,.05-.61,.44-1.06,.9-1.06,.11,0,.22,.02,.32,.07,.06,.03,.09,.11,.06,.17-.03,.06-.11,.09-.17,.06-.07-.03-.14-.05-.21-.05-.33,0-.62,.37-.66,.83,0,.07-.06,.12-.12,.12Z"/></g><path class="h" d="M15.13,6.74s-.1-.03-.12-.08l-.39-.97c-.03-.06,0-.14,.07-.16,.06-.03,.14,0,.16,.07l.39,.97c.03,.06,0,.14-.07,.16-.02,0-.03,0-.05,0Z"/><path class="h" d="M14.94,6.17s-.04,0-.07-.02c-.06-.04-.08-.11-.04-.17l.19-.31c.04-.06,.11-.08,.17-.04,.06,.04,.08,.11,.04,.17l-.19,.31s-.06,.06-.11,.06Z"/></g></g></g></g></svg>