<?xml version="1.0" encoding="UTF-8"?><svg xmlns="http://www.w3.org/2000/svg" viewBox="0 0 75.44 59.55"><defs><style>.e{fill:#4fb266;}.f{fill:#210b04;}.g{fill:#f99055;}.h{fill:#fccc00;}.i{fill:#0d3315;}.j{fill:#505088;}</style></defs><g id="a"/><g id="b"><g id="c"><g id="d"><g><path class="g" d="M6.53,15.07c-.11-.04-.23,.09-.29,.15-.03,.05-.16,.2-.15,.73,0,.2,.02,.48,.1,.83-.02,.26-.12,.35-.2,.38-.1,.04-.46,.06-2.12-1.72,0,0-.53-.56-1.05-1.09-.06-.08-.72-1.06-1.06-.92-.04,.02-.08,.05-.11,.11,.05,.32,.22,.57,.47,.86,.25,.28,.56,.6,.89,1.05,.15,.21,.37,.54,.6,.96-.03,.04-.08,.08-.16,.11-.34,.06-.77-.54-1.69-1.32-.39-.34-1.23-1.06-1.45-.9-.08,.05-.05,.2-.05,.25,.04,.58,.67,.92,1.24,1.33,.4,.29,.96,.73,1.57,1.39-.52-.29-1.05-.61-1.59-.93-.45-.27-.88-.54-1.3-.81-.12,.09-.16,.17-.17,.22-.05,.23,.18,.55,.62,.72,.76,.51,1.52,1.03,2.28,1.54-.04,.14-.08,.28-.11,.41-.64-.24-1.16-.5-1.52-.7s-.74-.42-.85-.3c-.08,.08,.02,.3,.03,.32,.11,.26,.36,.44,.76,.64,.9,.36,1.55,.65,1.68,.71,.13,.07,.25,.14,.25,.14,.03,.01,.06,.04,.11,.06,.03,.02,.12,.08,.22,.15,.13,.1,.15,.14,.27,.24,0,0,.11,.09,.3,.22,1.51,1.03,3.46-.09,3.17-.3-.09-.65-.13-2.67-.13-2.67-.03-1.27-.41-1.83-.54-1.88Z"/><path class="g" d="M47.44,20.21c.11,.05,.23-.08,.29-.14,.04-.05,.17-.19,.19-.72,.01-.2,0-.48-.05-.84,.03-.26,.14-.34,.22-.37,.1-.03,.46-.03,2.01,1.84,0,0,.49,.59,.99,1.15,.05,.09,.66,1.1,1,.98,.04-.01,.08-.04,.12-.11-.03-.32-.19-.59-.42-.88-.23-.3-.53-.63-.83-1.1-.14-.22-.34-.56-.54-.99,.03-.04,.08-.08,.17-.1,.34-.04,.73,.58,1.61,1.42,.37,.36,1.17,1.13,1.4,.98,.08-.05,.07-.19,.07-.25,0-.58-.62-.96-1.16-1.4-.38-.31-.91-.79-1.49-1.48,.5,.32,1.02,.67,1.54,1.02,.43,.3,.85,.59,1.25,.89,.13-.08,.16-.16,.18-.21,.07-.23-.15-.56-.57-.76-.73-.56-1.46-1.12-2.19-1.67,.05-.14,.09-.27,.13-.4,.63,.28,1.13,.57,1.48,.79,.35,.22,.71,.46,.83,.35,.08-.08,0-.3-.01-.32-.09-.26-.33-.46-.72-.69-.88-.42-1.51-.74-1.64-.81-.13-.07-.24-.15-.24-.15-.02-.02-.06-.04-.1-.07-.02-.02-.11-.08-.21-.17-.12-.11-.15-.15-.25-.25,0,0-.1-.1-.29-.24-1.45-1.12-3.46-.11-3.18,.12,.06,.66-.02,2.67-.02,2.67-.04,1.27,.3,1.85,.43,1.91Z"/><path class="e" d="M39.08,9.94c.25-.97,.5-1.94,.75-2.91-.1-.12-.25-.26-.46-.36-.66-.34-1.35-.08-1.49-.02-2.15,1.06-4.07,2.05-5.74,2.92-4.89,2.57-7.05,3.9-7.2,5.81-.02,.27,0,.49,.03,.63,0,.12,.07,1.76,1.28,2.47,1.22,.72,3.14,.23,4.17-1.42,2.89-2.37,5.77-4.75,8.66-7.12Z"/><path class="e" d="M46.94,16.71c.15-.02,.62-.1,1.01-.5,.52-.55,.47-1.24,.46-1.35-1.05-1.08-1.85-2.03-2.39-2.69-2.03-2.5-2.7-3.94-4.5-4.71-.72-.31-1.38-.41-1.82-.44-.7,.84-1.4,1.69-2.1,2.53,.78,.84,1.49,1.42,1.95,1.78,2.59,1.99,4.52,2.07,6.48,4.21,.44,.48,.75,.92,.91,1.17Z"/><path class="g" d="M19.84,16.07c.64,.24,1.28,.49,1.92,.73,1.02,.39,2.04,.78,3.07,1.18l1.8-4.5c-2.23-.57-4.47-1.14-6.7-1.71,.09,.74,.14,1.61,.09,2.57-.03,.63-.09,1.21-.17,1.73Z"/><path class="f" d="M19.84,16.07c.64,.24,1.28,.49,1.92,.73,.32-.85-.45-1.95-1.71-2.46-.09,.56-.14,1.14-.2,1.72Z"/><path class="i" d="M46.04,29.98c-.62-2.6-1.25-5.19-1.87-7.79-3.02-2.03-6.04-4.05-9.06-6.08-.34-.31-3.11-2.78-6.07-3.31-1.54-.27-2.91-.07-2.91-.07-.7,.1-1.28,.28-1.67,.42-.25,1.22-.51,2.44-.76,3.66,.06,.44,.76,5.44,4.41,6.86,.48,.19,1.09,.34,1.85,.36,1.88,.7,3.76,1.4,5.65,2.1,3.49,1.29,6.97,2.57,10.44,3.84Z"/><path class="h" d="M24.51,25.81c-2.75,.49-4.82,1.5-4.82,2.43,0,.99,2.38,2.14,5.93,2.46,4.83-.26,9.66-.51,14.49-.77,.16-2.8,.32-5.61,.48-8.41-1.61-.03-3.47,.06-5.52,.4-4.64,.77-8.22,2.5-10.56,3.89Z"/><path class="h" d="M39.2,29.18c2,2.08,5.01,2.44,6.73,.79s1.5-4.67-.49-6.76c-2-2.08-5.01-2.44-6.73-.79-1.72,1.65-1.5,4.67,.49,6.76Z"/><path class="h" d="M52.08,39.07c2.17,1.76,4.28,2.67,4.98,2.07,.75-.64,.07-3.2-2.01-6.1-3.35-3.5-6.69-6.99-10.04-10.49-2.23,1.71-4.46,3.41-6.69,5.12,1.02,1.24,2.31,2.59,3.91,3.92,3.61,3.01,7.26,4.6,9.84,5.47Z"/><path class="i" d="M35.68,43.27c.45-.67,.9-1.33,1.36-2-1.32-2.42-2.6-4.37-3.6-5.81-3.3-4.72-4.81-5.45-5.51-5.73-.57-.23-1.2-.39-2.28-.92-1.46-.71-2.55-1.5-3.25-2.07-.55-.68-1.22-1.07-1.67-.89-.33,.13-.47,.55-.75,1.33-.15,.43-.24,.8-.29,1.05-.12,.33-.25,.86-.11,1.45,.28,1.18,1.4,1.67,1.53,1.72,1.51,.75,3.12,1.67,4.78,2.78,4.4,2.96,7.58,6.29,9.79,9.09Z"/><path class="i" d="M68.82,53.74c.45-.67,.9-1.33,1.36-2-1.32-2.42-2.6-4.37-3.6-5.81-3.3-4.72-4.81-5.45-5.51-5.73-.44-.18-1.26-.33-2.28-.92-1.09-.63-1.85-1.39-2.33-1.95-.44,.17-1.09,.38-1.89,.52-1.69,.29-2.77,.02-3.27,.69-.13,.17-.25,.45-.22,.91,.3,.27,.78,.67,1.4,1.11,.94,.66,1.71,1.05,1.97,1.19,0,0,.92,.47,4.6,2.89,3.45,2.26,8.48,7.67,9.79,9.09Z"/><g><path class="g" d="M19.95,16.33c.52-.63,1.4-1.96,1.55-4.33,0-.14,.11-2.15-1.52-3.34-1.05-.77-2.3-.82-3.24-.56-1.97,.56-3.12,2.68-2.87,3.82,.04,.19,.11,.36,.17,.49,.6,1.11,.87,1.61,.88,1.64,0,0,.01,.05,.05,.08,.02,.02,.05,.04,.06,.05,.14,.09,.28,.19,.42,.28,.67,.84,.93,1.21,1,1.33,.14,.24,.19,.34,.28,.39,.03,.01,.05,.03,.06,.05,.02,.05-.05,.09-.04,.13,.01,.07,.17,.1,.2,.11,.03,0,.26,.05,.36-.08,.04-.05,.05-.11,.05-.11,0,0-.15,.26-.08,.35,.03,.04,.1,.04,.12,.04,.06,0,.09-.01,.11-.02,.14-.02,.38,.67,.64,.82,.37,.22,1.2-.41,1.81-1.15Z"/><path class="g" d="M15.7,15.97c.11,.13,.33,.11,.42,.11,.23-.02,.38-.14,.44-.19,.02-.06,.03-.18-.03-.28-.05-.08-.13-.08-.21-.16-.06-.05-.13-.14-.17-.29-.25-.27-.5-.53-.75-.8,.05,.24,.09,.44,.12,.57,.1,.44,.11,.45,.12,.57,.02,.28-.02,.37,.06,.47Z"/></g><path class="f" d="M15.69,14.11s-.03,0-.05,0l-.3-.13c-.06-.03-.09-.1-.07-.16,.03-.06,.1-.09,.16-.07l.18,.08c.08-.18,.25-.47,.6-.63,.27-.12,.52-.11,.69-.07,.07,.01,.11,.08,.1,.15-.01,.07-.07,.11-.15,.1-.13-.03-.33-.04-.54,.06-.37,.16-.49,.53-.51,.6,0,.04-.03,.06-.07,.08-.02,0-.04,.01-.05,.01Z"/><path class="f" d="M15.77,14.08c.13,.15,.35,.18,.49,.06,.14-.12,.15-.34,.01-.49-.13-.15-.35-.18-.49-.06s-.15,.34-.01,.49Z"/><path class="j" d="M16.58,12.33s-.16,.07-.29,.17c-.21,.16-.58,.58-1.01,1.19-.06-.01-.22-.06-.35-.2-.11-.12-.15-.25-.16-.31,.37-.3,.63-.55,.79-.73,.06-.07,.25-.28,.55-.43,.15-.07,.23-.08,.27-.09,.29-.03,.51,.17,.58,.23-.1,.04-.23,.09-.38,.17Z"/><path class="f" d="M17.31,16.52s-.06-.01-.08-.03c-.05-.05-.05-.13,0-.18l.57-.62s.13-.05,.18,0c.05,.05,.05,.13,0,.18l-.57,.62s-.06,.04-.09,.04Z"/><path class="e" d="M15.53,24.49l-.56,2.96c.11,.11,.27,.24,.49,.33,.68,.3,1.35-.01,1.48-.08,2.07-1.2,3.93-2.31,5.54-3.3,4.71-2.88,6.78-4.35,6.8-6.28,0-.27-.04-.49-.07-.62-.01-.12-.19-1.75-1.44-2.38-1.26-.63-3.15-.02-4.06,1.69-2.72,2.56-5.45,5.12-8.17,7.67Z"/><path class="e" d="M7.18,18.35c-.2,.11-.56,.35-.86,.79-.33,.48-.42,.94-.45,1.18,1.14,.95,2,1.8,2.58,2.41,2.13,2.24,2.88,3.72,4.8,4.4,.74,.26,1.4,.31,1.84,.32,.64-.89,1.29-1.78,1.93-2.66-.84-.79-1.58-1.32-2.06-1.65-2.64-1.77-4.47-1.81-6.74-3.77-.49-.42-.85-.8-1.04-1.02Z"/><path class="e" d="M40.43,40.13l2.18,8.99s-.06,.33-.32,.47c-.26,.14-.6,.07-.82-.2-.12-.52-.38-1.27-.92-2.02-.58-.8-1.17-1.16-2.13-1.85-.67-.49-1.63-1.24-2.74-2.24-.01-.17-.02-.44,.01-.77,.06-.62,.21-.94,.32-1.47,.07-.31,.13-.77,.12-1.36,.11,.18,.28,.47,.48,.83,.21,.38,.21,.42,.28,.47,.5,.33,1.66-.46,1.89-.62,.51-.35,.73-.62,1.09-.58,.26,.03,.45,.22,.56,.37Z"/><path class="e" d="M72.9,49.7c.85,2.92,1.69,5.84,2.54,8.77-.59,.23-1.18,.46-1.77,.69-.15,.08-.34,.17-.56,.24-.28,.09-.54,.14-.75,.16-.26-.24-.54-.58-.53-.99,.02-.76,1.02-.98,1.06-1.63,.03-.43-.4-.76-2.09-1.9-.74-.5-1.4-.94-1.97-1.31-1.14-2.66-2.71-5.72-4.88-8.92-1.26-1.86-2.55-3.49-3.79-4.92,1.35,1.01,2.24,2,2.78,2.68,1.29,1.63,5.51,7.65,5.68,7.69,.12,.03,.24,.04,.24,.04,1.3,.18,2.01-.09,2.4-.42,.25-.19,.64-.65,1.1-.56,.26,.04,.45,.23,.55,.38Z"/><path class="f" d="M39.48,29.89c-.06,0-.12-.05-.12-.11,0-.07,.04-.13,.11-.14,1.32-.12,2.62-.4,3.86-.84,.97-.34,1.91-.78,2.81-1.31,.06-.04,.14-.02,.17,.04,.04,.06,.02,.14-.04,.17-.91,.54-1.87,.98-2.86,1.33-1.26,.44-2.58,.73-3.92,.85h-.01Z"/><path class="f" d="M38.48,10.56c-.06,0-.12-.05-.12-.11l-.08-.61c0-.07,.04-.13,.11-.14,.08-.01,.13,.04,.14,.11l.08,.61c0,.07-.04,.13-.11,.14h-.02Z"/><path class="f" d="M16.08,24.93s-.08-.02-.11-.06l-.39-.6c-.04-.06-.02-.14,.04-.17,.06-.03,.13-.02,.17,.04l.39,.6c.04,.06,.02,.14-.04,.17-.02,.01-.04,.02-.07,.02Z"/><path class="i" d="M20.96,16.5l2.08,.92,.73-.64c.76-1.3,1.51-2.61,2.27-3.91-1.21-.18-2.43-.36-3.64-.54-.48,1.39-.96,2.77-1.44,4.16Z"/></g><path class="h" d="M69.48,7.42c-3.66,1.24-7.58-.88-8.63-1.46-3.19-1.74-2.42-3.32-5.31-4.84-3.84-2.02-8.14-.77-9.21-.46-3.87,1.13-6.44,3.69-8.04,5.29-3.25,3.24-3.2,4.99-5.41,5.45-1.71,.35-3.45-.33-6.11,.8-.52,.22-.92,.44-1.17,.59-.11,.24-.23,.49-.35,.73-.29,.6-.6,1.17-.9,1.72,.21-.28,.63-.75,1.29-.98,2.03-.69,3.62,1.94,5.49,2.17,4.53,.57,7.56-13.41,12.32-13.38,3.13,.01,3.05,6.04,9.33,10.01,.99,.63,6.46,3.94,13.11,2.21,5.65-1.47,8.69-5.69,9.53-6.94-.5-.62-1.28-1.38-2.4-1.64-1.39-.32-2.4,.35-3.53,.73Z"/><path class="j" d="M21.48,12.31c-.6,.31-2.74-2.57-3.12-2.27-.16,.12,.19,.68-.09,1.01-.2,.24-.57,.15-1.08,.14-1.24-.03-1.22,.42-2.34,.4-1.02-.01-1.64-.39-1.94-.04-.18,.21-.07,.5-.18,.53-.23,.07-.93-1-.65-1.4,.24-.34,1.09,0,1.22-.29,.14-.29-.66-.86-.52-1.09,.11-.18,.66,.14,1.03-.14,.25-.19,.17-.44,.39-.75,.28-.4,.78-.5,1.13-.58,3.47-.71,3.57-.91,4.11-.71,2.18,.83,2.67,4.87,2.05,5.19Z"/></g></g></g></svg>