<?xml version="1.0" encoding="UTF-8"?><svg xmlns="http://www.w3.org/2000/svg" viewBox="0 0 74.18 67.62"><defs><style>.e{fill:#fff;}.f{fill:#ea445c;}.g{fill:#4fb266;}.h{fill:#210b04;}.i{fill:#f99055;}.j{fill:#505088;}</style></defs><g id="a"/><g id="b"><g id="c"><g id="d"><path class="h" d="M34.8,33.48c-1.52-2.92,2.39-5.95,.78-8.46-1.05-1.63-3.01-.91-5.27-2.98-1.51-1.39-1.96-2.94-2.61-4.78-3.06-8.64-6.2-11.11-5.07-12.62,1.18-1.57,5.54,2.97,9.56,1.18,3.02-1.34,2.95-4.83,6.05-5.68,1.57-.43,2.83,.13,5.39,1.23,9.06,3.89,13.64,5.84,15.85,6.37,5.06,1.22,6.32,.27,7.76,1.88,2.55,2.85-.72,6.59,.94,12.79,1.64,6.12,6.67,9.38,5.92,10.25-.92,1.07-7.5-4.98-11.44-2.78-2.09,1.17-1.52,3.6-3.59,4.33-3.06,1.08-6.19-3.55-8.86-2.21-1.03,.52-.84,1.39-2.74,2.74-.18,.13-1.55,1.09-3.06,1.55-3.22,.98-8.13,0-9.6-2.82Z"/><g><path class="j" d="M23.31,25.54l1.93-2.67c2.07,1.3,3.75,2.48,4.98,3.38,5.37,3.91,6.3,5.52,6.19,6.87-.02,.27-.08,.48-.13,.62-1.91,0-3.82,0-5.74-.01-2.41-2.73-4.83-5.46-7.24-8.19Z"/><g><path class="j" d="M15.04,17.91c.55-.54,1.09-1.08,1.64-1.62,1.25,.84,2.32,1.46,3.07,1.88,2.83,1.56,4.13,2.06,5.43,3.59,.61,.72,.99,1.4,1.2,1.84,0,.24-.04,.44-.09,.61-.44,1.35-2.27,1.73-2.48,1.77-.97-.62-1.66-1.21-2.1-1.6-2.38-2.16-2.86-3.91-5.29-5.63-.58-.41-1.09-.69-1.39-.84Z"/><path class="j" d="M16.55,18.43c-.18,.26-1.44-.13-2.81-.88-1.37-.75-2.33-1.57-2.15-1.83,.18-.26,1.44,.13,2.81,.88,1.37,.75,2.33,1.57,2.15,1.83Z"/><path class="j" d="M17.74,17.43c-.13-.41-.6-1.61-3.62-3.23-1.27-.68-3.68-1.98-4.13-1.55-.51,.5,1.73,3.1,4.43,4.7,.36,.21,2.61,1.55,3.26,1.07,.3-.22,.14-.75,.06-1Z"/></g><path class="j" d="M52.83,54.42c-.7-.23-1.4-.47-2.09-.7-.12,.25-.32,.61-.61,1.04-1.59,2.39-3.37,2.85-3.88,4.21-.3,.79-.23,2.06,1.54,4.12,.95,.19,1.9,.38,2.85,.58,.08-1.09,.22-2.21,.43-3.35,.4-2.17,1.02-4.14,1.76-5.9Z"/><path class="j" d="M50.46,56.52c-.04,2.07-.08,4.14-.12,6.21,2.69,.41,3.48,.08,3.68-.33,.35-.75-1.31-1.68-1.23-3.51,.05-1.09,.68-1.19,.65-2.41,0-.32-.04-2.01-1.23-2.61-.57-.29-1.17-.21-1.48-.14l-.28,2.79Z"/><path class="f" d="M24.81,51.43c-.12,.08-.24,.14-.38,.2-2.07,.8-3.89,.3-4.24-.5-.36-.84,.64-2.66,2.9-3.56,1.96-2.2,5.8-5.89,11.76-8.2,3.07-1.19,5.87-1.69,8.04-1.9l-2.66,8.21c-4.95,1.95-7.74,2.8-9.4,3.21-.51,.12-2.04,.48-3.91,1.37-.9,.42-1.62,.85-2.12,1.17Z"/><path class="f" d="M50.53,60.03c.07,.12,.12,.26,.16,.39,.34,1.17,.48,3.5-.86,4.18-.84,.42-2.04,.1-3.01-.69-2.41-3.06-5.69-8.06-7.45-14.92-.78-3.04-1.1-5.82-1.2-8.18l7.95,3.36c1.52,5.1,2.13,7.95,2.39,9.64,.08,.52,.3,2.07,1.02,4.01,.35,.93,.71,1.68,.98,2.21Z"/><path class="j" d="M7.25,61.26c.42,.61,.84,1.22,1.25,1.83,.46-.33,1.17-.81,2.05-1.35,4.71-2.89,7.14-2.87,9.77-4.92,1.12-.87,2.59-2.35,3.77-4.98,.13-.07,.26-.17,.25-.26-.04-.25-1.06,0-1.77-.46-.98-.64-.72-2.21-1.23-2.3-.19-.03-.5,.14-.97,1.03-.1,.1-.27,.27-.47,.47,0,0-1.38,1.37-2.82,2.7-3.37,3.13-6.68,5.86-9.83,8.25Z"/><path class="f" d="M46.36,44.18c.31,1.86-3.15,2.93-6.45,2.73-3.73-.23-8.64-2.17-8.24-4.31,.19-.79,.37-1.59,.56-2.38-.56-2.16-1.12-4.33-1.68-6.49,.31-.4,.77-.92,1.4-1.45,.44-.37,2.55-2.13,3.5-1.54,.63,.39,.34,1.57,1.14,1.91,.12,.05,.33,.06,.75,.11,.55,.06,.97,.05,1.34,.07,1.92,.06,8.09,.89,9.32,4.17,.36,.96,.42,2.45-.4,3.51-.48,.62-1.11,.9-1.51,1.04,.09,.88,.18,1.76,.27,2.64Z"/><path class="h" d="M41.05,35.82c-.31,1.48-1.36,2.52-2.35,2.32s-1.55-1.58-1.24-3.06c.31-1.48,1.36-2.52,2.35-2.32,.99,.21,1.55,1.58,1.24,3.06Z"/><path class="i" d="M38.73,37.15c-1.9-.39-3.12-2.25-2.72-4.15l1.04-5.02c.52-.21,1.98-.72,3.79-.3,1.65,.38,2.69,1.32,3.09,1.73-.35,1.67-.69,3.35-1.04,5.02-.39,1.9-2.25,3.12-4.15,2.72Z"/><path class="i" d="M37.34,31.91c-.13,.62-.66,1.04-1.18,.93-.52-.11-.84-.7-.71-1.33,.13-.62,.66-1.04,1.18-.93,.52,.11,.84,.7,.71,1.33Z"/><path class="h" d="M42.37,32.7s-.09-.02-.11-.07c-.06-.12-.24-.4-.59-.47-.33-.07-.61,.09-.72,.15-.06,.04-.14,.02-.17-.04-.04-.06-.02-.14,.04-.17,.13-.09,.48-.28,.91-.19,.45,.1,.68,.45,.76,.6,.03,.06,0,.14-.05,.17-.02,0-.04,.01-.06,.01Z"/><path class="h" d="M41.86,32.45c-.04,.22-.24,.36-.44,.32-.2-.04-.32-.25-.28-.46s.24-.36,.44-.32c.2,.04,.32,.25,.28,.46Z"/><path class="h" d="M38.92,32.1s-.09-.02-.11-.07c-.08-.15-.26-.4-.59-.48-.33-.07-.61,.08-.72,.15-.06,.04-.14,.02-.17-.04-.04-.06-.02-.14,.04-.17,.13-.09,.49-.28,.91-.19,.43,.09,.66,.42,.76,.6,.03,.06,0,.14-.05,.17-.02,0-.04,.01-.06,.01Z"/><path class="h" d="M38.61,31.9c-.04,.22-.24,.36-.44,.32-.2-.04-.32-.25-.28-.46,.04-.22,.24-.36,.44-.32,.2,.04,.32,.25,.28,.46Z"/><path class="h" d="M42.84,31.34s-.16-.06-.36-.07c-.29-.02-.9,.07-1.69,.26-.04-.05-.14-.2-.15-.42,0-.18,.06-.32,.09-.38,.53,.02,.91,0,1.18-.04,.1-.01,.4-.05,.76,.04,.18,.05,.25,.09,.28,.12,.26,.2,.25,.59,.24,.68-.08-.06-.2-.14-.36-.2Z"/><path class="h" d="M37.63,30.38s.17,.04,.34,.13c.26,.14,.74,.52,1.31,1.1,.06-.03,.22-.1,.34-.28,.1-.15,.12-.3,.12-.37-.46-.25-.78-.48-.99-.64-.08-.06-.32-.25-.67-.36-.17-.05-.26-.05-.3-.04-.33,.04-.51,.37-.56,.46,.1-.01,.24-.02,.42,.01Z"/><path class="h" d="M38.93,33.98s.18,.21,.42,.27c.31,.07,.54-.09,.58-.12l-1-.15Z"/><path class="h" d="M39.76,36.25s-.97-.07-.97-.07c-.07,0-.12-.07-.12-.13,0-.07,.06-.12,.12-.12,0,0,.97,.07,.97,.07,.07,0,.12,.07,.12,.13,0,.07-.06,.12-.12,.12Z"/><path class="j" d="M.68,64.87l8.84,.02c.09-.33,.15-.83-.05-1.36-.07-.18-.14-.25-.21-.41-.13-.31-.2-.8,.12-1.58l-2.12-.3c-2.33,2.12-3.49,2.73-4.1,2.81-.48,.06-.94,.24-1.42,.24-.31,0-.69-.03-.91,.22-.1,.11-.14,.25-.15,.35Z"/><path class="j" d="M41.53,33.79c-.27-.03-.55-.11-.82-.24-.32-.16-.6-.39-.83-.68l-.23-.04c-.29,.15-1.23,.56-2.16,.06-.65-.35-1.1-1.05-1.13-1.74,0-.23-.02-.46,.15-.67,.16-.2,.44-.3,.8-.31,.6,0,1.51,.3,2.09,.98,.21,.24,.36,.53,.46,.84,.11,.06,.2,.08,.27,.06,.11-.02,.18-.11,.29-.26,.06-.08,.12-.16,.18-.22,.44-.44,1.33-.42,2.02-.21,.62,.19,1.01,.52,1.08,.89,.12,.62-.69,1.22-1.27,1.43-.29,.1-.6,.14-.92,.11Zm-1.28-1.25c.18,.24,.41,.43,.68,.56,.46,.23,.93,.27,1.35,.12,.51-.18,1-.63,.95-.88-.03-.14-.27-.36-.75-.5-.62-.2-1.28-.15-1.52,.09-.05,.05-.09,.1-.13,.16-.12,.16-.28,.39-.59,.45Zm-2.74-1.86c-.06,0-.13-.01-.18-.01-.2,0-.36,.05-.42,.13-.05,.06-.05,.16-.04,.34,.02,.52,.37,1.05,.86,1.32,.84,.45,1.74-.09,1.75-.09,.02-.01-.03-.05-.03-.05l-.02-.09c-.08-.28-.21-.54-.39-.75-.4-.47-1.03-.74-1.52-.79Z"/><path class="j" d="M40.85,53.09l3.05,1.49c.62-1.71,1.45-4,2.41-6.71,2.28-6.47,3.21-9.41,1.77-11.26-.25-.32-.52-.54-.71-.67-1.5,2.4-2.99,4.81-4.49,7.21-.68,3.32-1.35,6.63-2.03,9.95Z"/><path class="j" d="M37.94,66.29c.75,.2,1.5,.4,2.25,.6,.61-1.67,1.18-3,1.59-3.92,1.56-3.44,2.39-4.79,2.67-7.22,.13-1.13,.09-2.08,.03-2.67-.13-.25-.27-.43-.4-.57-1.09-1.11-2.84-.31-3.04-.21-.48,1.27-.76,2.33-.92,3.01-.86,3.77-.33,5.87-1.47,9.22-.27,.8-.55,1.41-.72,1.76Z"/><path class="j" d="M38.97,65.61c-2.43,.82-3.62,1.32-3.57,1.51,.04,.16,.95,.1,2.72-.18,6.13,.73,7.81,.77,7.84,.59,.03-.21-2.16-.49-4.37-2.29-.48-.39-.86-.77-1.12-1.06l-1.49,1.43Z"/><path class="e" d="M40.55,35.28c.01,.19-.63,.49-1.22,.42-1-.12-1.52-1.26-1.59-1.42,.37,.17,.91,.39,1.59,.59,.79,.23,1.21,.27,1.22,.42Z"/><path class="h" d="M38.62,44.77c-.09,0-.19,0-.28,0-3.96-.17-6.09-3.85-6.18-4.01-.03-.06-.01-.14,.05-.17,.06-.03,.14-.01,.17,.05,.08,.15,2.14,3.73,5.97,3.88,1.78,.08,3.19-.6,4.07-1.18,.06-.04,.13-.02,.17,.04,.04,.06,.02,.14-.04,.17-.86,.57-2.22,1.22-3.93,1.22Z"/><path class="h" d="M9.61,65.26H.23c-.13,0-.23-.1-.23-.23,0-.13,.1-.24,.23-.24H9.61c.13,0,.23,.1,.23,.23,0,.13-.1,.24-.23,.24Z"/><path class="h" d="M26.02,24.09s-.09-.03-.11-.07c-.03-.06,0-.14,.06-.17l.53-.25c.06-.03,.14,0,.17,.06,.03,.06,0,.14-.06,.17l-.53,.25s-.04,.01-.05,.01Z"/><path class="h" d="M23.81,25.99c-.09-.01-.13-.08-.12-.14l.11-.71c.01-.07,.06-.12,.14-.11,.07,.01,.12,.07,.11,.14l-.11,.71c0,.06-.06,.11-.12,.11Z"/><path class="h" d="M40.92,53.85c-.06,0-.12-.05-.12-.11l-.06-.64c0-.07,.04-.13,.11-.14,.08-.01,.13,.04,.14,.11l.06,.64c0,.07-.04,.13-.11,.14h-.01Z"/><path class="h" d="M44.04,54.4c-.11-.03-.14-.1-.12-.17l.32-.87c.02-.06,.09-.1,.16-.07,.06,.02,.1,.1,.07,.16l-.32,.87s-.07,.08-.12,.08Z"/><path class="h" d="M23.53,49.23c-.05,0-.1-.04-.12-.09-.02-.07,.02-.14,.08-.16,1.61-.47,3.2-1.06,4.72-1.75,1.8-.82,3.55-1.81,5.19-2.93,.06-.04,.13-.03,.17,.03,.04,.06,.02,.13-.03,.17-1.65,1.13-3.41,2.12-5.23,2.95-1.53,.7-3.13,1.29-4.75,1.76-.01,0-.02,0-.04,0Z"/><path class="g" d="M44.47,28.24c.04,.2-.14,.28-.3,.74-.13,.4-.1,.67-.12,.99-.04,.94-.45,1.86-.61,1.84-.22-.03,.27-1.85-.53-2.42-.66-.47-1.4,.47-2.83,.2-1.23-.24-1.55-1.1-2.27-.9-.85,.23-.93,1.72-1.27,1.67-.24-.04-.49-.84-.23-1.45,.21-.5,.7-.7,.63-1.05-.04-.19-.2-.2-.3-.41-.21-.43,.14-1,.25-1.18,.69-1.12,2.37-1.54,2.61-1.21,.16,.23-.35,.77-.19,.93,.2,.19,1.09-.57,1.42-.3,.12,.1,.02,.22,.15,.38,.28,.35,.82,.05,1.35,.31,.47,.23,.28,.59,.82,1.06,.64,.56,1.33,.42,1.42,.8Z"/></g><path class="e" d="M36.32,24.13s-.04-.01-.05-.03c-.4-.92-.95-1.65-1.66-2.19-.79-.6-1.45-.7-2.09-.8-.44-.07-.89-.14-1.38-.38-1.4-.68-1.8-2.06-2.53-4.57-.31-1.07-.66-2.29-1.18-3.75-.62-1.78-1.37-3.57-2.2-5.31-.01-.02,0-.05,.02-.07,.03-.01,.05,0,.07,.02,.84,1.74,1.58,3.53,2.21,5.32,.51,1.47,.87,2.68,1.18,3.76,.72,2.48,1.11,3.85,2.47,4.5,.47,.23,.9,.29,1.35,.37,.65,.1,1.32,.21,2.13,.82,.72,.55,1.29,1.29,1.69,2.23,.01,.03,0,.05-.03,.07,0,0-.01,0-.02,0Z"/><path class="e" d="M31.02,8c-.71,0-1.42-.13-2.14-.4-.03,0-.04-.04-.03-.06,0-.03,.04-.04,.06-.03,1.01,.38,2.02,.49,3,.32,3.56-.59,4.99-4.51,5.05-4.68,0-.03,.04-.04,.06-.03,.03,0,.04,.04,.03,.06-.06,.17-1.52,4.14-5.13,4.74-.3,.05-.6,.07-.91,.07Z"/><path class="e" d="M57.26,32.06c-.43,0-.87-.33-1.42-.76-.72-.55-1.71-1.31-3.24-1.76-.89-.26-2.37-.7-3.86-.03-1.3,.59-1.99,1.75-2.29,2.4-.01,.03-.04,.04-.07,.03-.03-.01-.04-.04-.03-.07,.3-.66,1.01-1.85,2.34-2.45,1.52-.68,3.03-.24,3.93,.02,1.55,.46,2.54,1.22,3.27,1.77,.7,.53,1.15,.88,1.65,.68,.41-.17,.52-.59,.67-1.18,.16-.65,.37-1.45,1.05-2.35,.8-1.05,1.89-1.71,2.64-1.98,2.25-.81,5.3,.44,7.57,3.12,.02,.02,.02,.05,0,.07-.02,.02-.05,.02-.07,0-2.25-2.64-5.24-3.88-7.46-3.09-.74,.27-1.8,.92-2.59,1.94-.67,.88-.88,1.67-1.04,2.31-.16,.61-.27,1.06-.73,1.24-.11,.04-.22,.07-.33,.07Z"/><path class="e" d="M47.44,26.45s-.04-.01-.05-.04c-.23-.94-.35-2.28,.39-3.31,.94-1.3,2.79-1.39,3.69-1.44,3.52-.18,6.92,.16,9.4,.41,2.41,.24,4.15,.41,4.34-.05,.09-.21-.22-.45-.64-.79-.63-.51-1.59-1.27-1.92-2.56-.32-1.27,.14-2.28,.59-3.25,.44-.95,.85-1.84,.5-2.9-.53-1.56-2.36-2.27-3.57-2.75-1.75-.68-2.82-.55-3.95-.41-.91,.12-1.86,.23-3.23-.08-2.07-.48-3.29-1.54-4.48-2.58-1.27-1.11-2.58-2.25-4.94-2.65-1.18-.2-2.4-.18-3.63,.05-.03,0-.05-.02-.06-.04,0-.03,.01-.05,.04-.06,1.24-.24,2.48-.26,3.67-.05,2.39,.4,3.71,1.56,4.99,2.67,1.17,1.02,2.39,2.08,4.43,2.56,1.35,.31,2.29,.19,3.2,.08,1.14-.15,2.22-.28,4,.41,1.23,.48,3.08,1.2,3.62,2.81,.37,1.09-.05,2.01-.5,2.97-.44,.96-.9,1.95-.59,3.18,.32,1.25,1.23,1.98,1.89,2.51,.46,.36,.79,.63,.67,.9-.22,.53-1.81,.37-4.44,.11-2.48-.25-5.87-.58-9.38-.4-.88,.04-2.7,.14-3.61,1.4-.72,1-.6,2.3-.37,3.23,0,.03,0,.05-.04,.06h-.01Z"/></g></g></g></svg>