<?xml version="1.0" encoding="UTF-8"?><svg xmlns="http://www.w3.org/2000/svg" viewBox="0 0 47.86 51.86"><defs><style>.e{fill:#ffb8ce;}.f{fill:#ea445c;}.g{fill:#24a246;}.h{fill:#f99055;}.i{fill:#240100;}.j{fill:#0d3315;}.k{fill:#505088;}</style></defs><g id="a"/><g id="b"><g id="c"><g id="d"><path class="f" d="M36.39,11.6c-3.52-1.65-6.92-2.62-8.5-1.18-1.13,1.03-.35,2.39-1.52,3.98-2.1,2.85-6.36,.84-8.5,3.21-2.4,2.66,1.56,6.75-.71,9.91-2.09,2.92-7.44,2.17-12.56,4.9-.25,.13-1.76,.96-3.18,2.56-.82,.92-1.32,1.49-1.42,2.34-.04,.39-.03,1.17,2.07,3.98,1.04,1.39,1.56,2.08,2.29,2.78,1.02,.98,2.71,2.59,4.85,3.05,4.01,.86,9.07-2.49,9.89-6.15,.47-2.12-.65-3.61,.41-4.85,1.1-1.28,3.3-.85,4.3-.87,2.81-.06,6.86-3.89,12.09-21.46l.49-2.2Z"/><path class="e" d="M41.81,9.72c-1.1-.84-.83-.63-1.92-1.47-1.92,1.73-2.88,3.5-3.37,4.62-.56,1.29-1.09,2.51-.53,3.68,.45,.93,1.77,.9,2.23,0,1.2-2.28,2.39-4.56,3.59-6.84Z"/><g><path class="e" d="M43.58,3.98c.1-.43,.26-.95,.51-1.5,.17-.38,.36-.72,.55-1,.87-.39,2.72-1.16,3.14-.61,.25,.32-.08,.96-.11,1.02-.28,.55-.9,.94-1.37,.83-.14-.03-.29-.12-.28-.16,.01-.07,.35,.06,.58-.12,.36-.28,.25-.76,.48-.84,.17-.05,.45,.12,.52,.34,.2,.6-1.19,1.61-2.03,2.07-.48,.27-.91,.43-1.21,.52-.26-.18-.52-.36-.77-.54Z"/><path class="i" d="M47.46,2.09s-1.01-.28-1.01-.28c-.07-.02-.11-.09-.09-.15,.02-.07,.09-.11,.15-.09l.98,.27c.07,.02,.11,.09,.09,.15-.02,.06-.07,.09-.12,.09Z"/><path class="i" d="M45.75,2.53s-.06,0-.08-.03c-.05-.04-.06-.12-.01-.18l.62-.73c.04-.05,.12-.06,.18-.01,.05,.04,.06,.12,.01,.18l-.62,.73s-.06,.04-.09,.04Z"/></g><path class="j" d="M38.71,14.25c-.09-.26-.37-.91-1.05-1.41-.85-.62-1.75-.6-2-.58,.17-.38,.34-.75,.51-1.13,.3-.67,.6-1.33,.9-1.99,.02-.05,.04-.1,.07-.15,.33-.73,.67-1.48,1-2.21l1.33,.48,1.23,.44,.56,.2c-.25,.77-.53,1.56-.84,2.36-.55,1.43-1.13,2.76-1.71,3.99Z"/><path class="j" d="M31.45,34.57s-.08,.1-.17,.2c-.62,.76-.97,1.5-1.18,2.05-1.03-.08-1.38-.38-1.5-.64-.15-.33,.05-.6-.08-1.09-.12-.48-.48-.81-.76-1.01,.06-.24,.12-.48,.18-.72,.9-3.58,1.8-7.15,2.7-10.72,1.62,.14,3.23,.28,4.85,.43-.22,1.69-.52,3.07-.76,4.06,0,0-1.28,5.18-3.27,7.45Z"/><path class="e" d="M44.8,4.2l-.91-1.04c-.86,.45-2.11,1.26-3.11,2.69-.69,.99-1.05,1.97-1.24,2.73,.77,.36,1.53,.73,2.3,1.09,.99-1.82,1.98-3.64,2.96-5.47Z"/><path class="j" d="M33.88,26.88c-1.28-.83-2.56-1.66-3.84-2.49,.4-2.43,1.31-5.89,3.55-9.43,.83-1.32,1.72-2.43,2.56-3.36,.91,.32,1.83,.64,2.74,.96-.1,1.56-.34,3.4-.87,5.4-1.04,3.93-2.76,6.92-4.15,8.91Z"/><path class="j" d="M34.09,26.42c-.62,1.64-2.26,2.53-3.66,2s-2.03-2.29-1.41-3.93c.62-1.64,2.26-2.53,3.66-2,1.4,.53,2.03,2.29,1.41,3.93Z"/><path class="h" d="M36.49,9.88c.22,.05,.42,.07,.6,.07,.16,0,.58-.04,1.14,.05,.24,.04,.42,.08,.56,.12,.34,.09,.86,.28,1.44,.65,.33-.23,.84-.54,1.5-.86,.09-.04,.15-.07,.18-.08,.46-.22,1.46-.73,2.23-1.36,0,0,.69-.56,.6-.93-.07-.18-.16-.28-.25-.35-.07-.1-.16-.24-.11-.38,.03-.12,.15-.13,.17-.24,.02-.09-.13-.13-.25-.35-.01-.03-.02-.05-.03-.06,.04-.17,.08-.41-.04-.51-.09-.08-.23-.03-.33-.02-.74,.09-1.61-1.33-1.77-1.81-.02-.05-.09-.24-.2-.49-.04-.08-.08-.16-.14-.26-.37-.62-.85-.97-1.12-1.18-.11-.08-.22-.16-.33-.22-.59-.35-1.15-.52-1.55-.61-.57-.14-1.52-.28-2.58,.04-.32,.15-.65,.33-1.01,.55-.66,.41-1.19,.86-1.6,1.25-.55,1.16-.73,2.51-.35,3.76,.02,.1,.06,.19,.09,.27,.6,1.59,1.94,2.39,3.16,2.96Z"/><path class="h" d="M43.4,5.68c.01-.07,.03-.18,.1-.29,.07-.11,.13-.12,.18-.24,.02-.04,.05-.14,.02-.27,0-.02-.04-.16-.15-.25-.14-.11-.33-.07-.41-.06-.17,.02-.47-.01-1.02-.27l.47,.84c.27,.18,.54,.36,.81,.53Z"/><path class="i" d="M41.48,4.64c-.08,0-.13-.07-.12-.14,.02-.16,.08-.47,.34-.73,.21-.22,.45-.31,.62-.35,.07-.01,.13,.03,.15,.09,.02,.07-.03,.13-.09,.15-.13,.03-.33,.1-.49,.28-.21,.21-.26,.46-.27,.58,0,.06-.06,.11-.12,.11Z"/><path class="i" d="M41.82,4.29c.06,.26,.26,.44,.43,.4,.18-.04,.27-.29,.21-.55-.06-.26-.26-.44-.43-.4s-.27,.29-.21,.55Z"/><path class="i" d="M40.17,3.74c.08,.05,.26-.21,.97-.74,.49-.35,.69-.44,.67-.52-.04-.12-.6-.16-1.03,.11-.54,.33-.72,1.07-.61,1.15Z"/><path class="i" d="M43.45,6.62c-.12,0-.25-.02-.37-.06-.07-.02-.1-.09-.08-.16,.02-.07,.09-.1,.16-.08,.14,.04,.29,.06,.43,.04,.3-.04,.51-.21,.6-.31,.05-.05,.13-.05,.18,0,.05,.05,.05,.13,0,.18-.12,.12-.37,.33-.75,.38-.05,0-.11,.01-.16,.01Z"/><path class="e" d="M26.11,46.01c-.54-.2-1.08-.39-1.62-.59-.14-2.68,.14-6.62,2.4-10.34,.31-.5,.63-.97,.96-1.41,1.99,.61,3.19,1.56,3.08,2.3-.02,.15-.13,.5-.85,.85-.14,.18-.32,.44-.5,.77-.31,.58-.43,1.07-.46,1.18-.16,.61-.94,2.54-3.03,7.25Z"/><path class="e" d="M23.12,51.73c-.55-1.87-1.1-3.75-1.64-5.62,.1-.22,.28-.51,.6-.7,.35-.21,.7-.2,.94-.22,.44-.03,1.07-.2,1.85-.83,.42,.55,.83,1.1,1.25,1.65-.45,1.22-.73,2.22-.92,2.94-.28,1.1-.42,1.9-1.11,2.4-.34,.25-.71,.34-.97,.38Z"/><path class="i" d="M24.5,45.55c-.07,0-.12-.05-.12-.12l-.03-.76c0-.07,.05-.13,.12-.13,.07,0,.13,.05,.13,.12l.03,.76c0,.07-.05,.13-.12,.13h0Z"/><path class="i" d="M29.64,37.37c-.08,0-.13-.07-.12-.14l.11-1.28c0-.07,.06-.11,.14-.11,.07,0,.12,.07,.11,.14l-.11,1.28c0,.07-.06,.11-.12,.11Z"/><path class="i" d="M22.97,51.86c-.06,0-.11-.04-.12-.09l-1.5-5.62c-.02-.07,.02-.14,.09-.15,.07-.02,.14,.02,.15,.09l1.5,5.62c.02,.07-.02,.14-.09,.15-.01,0-.02,0-.03,0Z"/><path class="e" d="M26.46,23.85c-.36,.06-.92,.19-1.5,.54-.21,.13-1.38,.88-1.68,2.36-.15,.73-.1,1.77,.32,1.96,.17,.08,.4,.03,.51-.1,.22-.27-.25-.71-.17-1.25,.1-.72,1.1-1.19,1.32-1.02,.11,.09,.07,.39-.06,.59-.25,.37-.76,.26-.81,.5-.04,.17,.17,.45,.41,.53,.65,.2,1.52-1.23,1.9-2.08,.22-.49,.33-.93,.4-1.24l-.65-.78Z"/><path class="e" d="M31.08,20.76c-1.13-.79-.85-.59-1.98-1.38,1.06-2.36,2.46-3.81,3.38-4.62,1.06-.92,2.06-1.81,3.34-1.63,1.02,.15,1.39,1.41,.69,2.13-1.81,1.84-3.61,3.67-5.42,5.51Z"/><path class="e" d="M26.73,25.29c-.42-.18-.85-.37-1.27-.55,.16-.95,.56-2.39,1.61-3.78,.73-.96,1.55-1.6,2.22-2.02,.58,.62,1.16,1.24,1.74,1.86l-4.3,4.49Z"/><path class="f" d="M36.05,13.05c-.07-.02-.21-.07-.38-.1-2.7-.45-4.41,3.93-7.64,3.92-.37,0-1.03,0-1.39-.44-.85-1.01,.31-3.85,2.09-5.18,1.89-1.42,4.75-1.34,7.38,0,.94,.84,1.88,1.69,2.82,2.53-.07,.25-.15,.49-.22,.74l-2.66-1.47Z"/><path class="g" d="M29.69,28.34s-.08-.02-.1-.05l-.34-.46c-.04-.05-.03-.13,.02-.17,.05-.04,.13-.03,.17,.02l.34,.46c.04,.05,.03,.13-.02,.17-.02,.02-.05,.03-.08,.03Z"/><path class="g" d="M30.74,23.62s-.07-.02-.1-.05l-.45-.55c-.04-.05-.04-.13,.02-.18,.05-.04,.13-.04,.18,.02l.45,.55c.04,.05,.04,.13-.02,.18-.02,.02-.05,.03-.08,.03Z"/><path class="g" d="M29.28,34.35c-.1-.03-.14-.1-.12-.16l3.18-10.08c.02-.06,.09-.1,.16-.08,.07,.02,.1,.09,.08,.16l-3.18,10.08c-.02,.05-.07,.09-.12,.09Z"/><path class="g" d="M32.46,24.27s-.05,0-.07-.02l-2.07-1.51c-.06-.04-.07-.12-.03-.17,.04-.05,.12-.07,.17-.03l2.07,1.51c.06,.04,.07,.12,.03,.17-.02,.03-.06,.05-.1,.05Z"/><path class="g" d="M35.19,24.94s-2.79-.57-2.79-.57c-.07-.01-.11-.08-.1-.15,.01-.07,.08-.11,.15-.1l2.77,.56c.07,.01,.11,.08,.1,.15-.01,.06-.06,.1-.12,.1Z"/><path class="g" d="M32.46,24.27s-.05,0-.08-.03c-.05-.04-.06-.12-.02-.18l5.85-7.5c.04-.05,.12-.06,.18-.02,.05,.04,.06,.12,.02,.18l-5.85,7.5s-.06,.05-.1,.05Z"/><path class="g" d="M35.66,23.9s-.04,0-.05-.01l-2.13-1.01c-.06-.03-.09-.1-.06-.17s.11-.09,.17-.06l2.13,1.01c.06,.03,.09,.1,.06,.17-.02,.04-.07,.07-.11,.07Z"/><path class="g" d="M36.19,22.76s-.05,0-.07-.02l-1.59-1.09c-.06-.04-.07-.12-.03-.17,.04-.06,.12-.07,.17-.03l1.59,1.09c.06,.04,.07,.12,.03,.17-.02,.04-.06,.05-.1,.05Z"/><path class="g" d="M36.82,21.65s-.05,0-.07-.02l-1.53-1.01c-.06-.04-.07-.12-.04-.17,.04-.06,.12-.07,.17-.04l1.53,1.01c.06,.04,.07,.12,.04,.17-.02,.04-.06,.06-.1,.06Z"/><path class="g" d="M37.35,20.29s-.05,0-.07-.02l-1.14-.81c-.06-.04-.07-.12-.03-.17,.04-.06,.12-.07,.17-.03l1.14,.81c.06,.04,.07,.12,.03,.17-.02,.03-.06,.05-.1,.05Z"/><path class="g" d="M37.77,18.98s-.04,0-.06-.02l-.67-.39c-.06-.03-.08-.11-.05-.17,.03-.06,.11-.08,.17-.05l.67,.39c.06,.03,.08,.11,.05,.17-.02,.04-.07,.06-.11,.06Z"/><path class="k" d="M40.04,.51c.07,.08,.15,.2,.22,.6,.32,1.81-.71,3.18-1.87,5.54-1.32,2.69-1.14,3.23-1.73,3.4-1.65,.47-5.35-3.09-4.68-6.11,.77-3.44,6.93-4.75,8.06-3.43Z"/><g><path class="h" d="M37.94,7.37c.47,.55,1.18,.72,1.58,.37,.41-.34,.36-1.07-.11-1.62-.47-.55-1.18-.72-1.58-.37-.41,.34-.36,1.07,.11,1.62Z"/><g><path class="i" d="M39.01,8.05c-.16,0-.34-.04-.51-.11-.06-.03-.09-.1-.07-.16,.03-.06,.1-.09,.16-.07,.33,.14,.64,.12,.85-.06,.1-.08,.16-.19,.2-.32,.02-.07,.09-.1,.15-.09,.07,.02,.11,.09,.09,.15-.05,.18-.14,.33-.28,.44-.16,.14-.37,.21-.6,.21Z"/><path class="i" d="M38.38,7.87s-.04,0-.06-.02c-.14-.08-.28-.19-.4-.32-.05-.05-.05-.13,0-.18,.05-.05,.13-.05,.18,0,.1,.11,.22,.2,.34,.27,.06,.04,.08,.11,.04,.17-.02,.04-.06,.06-.11,.06Z"/><path class="i" d="M37.86,7.39s-.08-.02-.1-.05c-.43-.59-.43-1.32,0-1.68,.1-.08,.21-.14,.35-.18,.07-.02,.14,.02,.15,.09,.02,.07-.02,.13-.09,.15-.09,.02-.18,.07-.25,.13-.33,.28-.31,.85,.04,1.34,.04,.06,.03,.13-.03,.17-.02,.02-.05,.02-.07,.02Z"/></g><path class="i" d="M39.24,7.22s-.04,0-.06-.01l-1.14-.6c-.06-.03-.08-.11-.05-.17,.03-.06,.11-.08,.17-.05l1.14,.6c.06,.03,.08,.11,.05,.17-.02,.04-.07,.07-.11,.07Z"/><path class="i" d="M38.6,6.84c-.06,0-.11-.04-.12-.11l-.07-.44c-.01-.07,.04-.13,.1-.14,.07-.02,.13,.04,.14,.1l.07,.44c.01,.07-.04,.13-.1,.14,0,0-.01,0-.02,0Z"/></g><path class="k" d="M32.46,3.97c-.4,.12-1.06,.27-1.88,.29-3.79,.06-5.34-3.02-7.6-2.57-1.79,.35-1.25,2.68-3.8,4.13-1.32,.75-3.5,1.32-5.19,.45-2.16-1.12-1.96-3.81-3.27-3.92-1.24-.1-3.01,1.97-2.7,3.88,.16,.99,.88,1.95,1.78,2.39,.89,.44,1.47,.13,1.98,.67,.6,.65,.04,1.37,.57,2.04,.69,.88,2.56,.78,3.8,.2,.88-.41,.75-.73,1.51-1.06,1.72-.76,2.87,.65,4.17,.12,1.77-.71,.83-3.97,2.66-4.74,1.58-.66,2.92,1.07,5.27,.57,1.42-.3,2.42-1.25,3.02-1.96l-.33-.49Z"/></g></g></g></svg>