<?xml version="1.0" encoding="UTF-8"?><svg xmlns="http://www.w3.org/2000/svg" viewBox="0 0 49.28 76.95"><defs><style>.e{fill:#fff;}.f{fill:#4fb266;}.g{fill:#24a246;}.h{fill:#210b04;}.i{fill:#f99055;}.j{fill:#fccc00;}.k{fill:#0d3315;}.l{fill:#ef4d4d;}</style></defs><g id="a"/><g id="b"><g id="c"><g id="d"><path class="j" d="M34.8,14.82c2.38,21.09,.6,27.1-1.87,28.05-.48,.18-1.46,.37-2.28,1.27-2.28,2.51,.57,6.6-1.31,8.55-1.44,1.5-3.53-.47-6.66,1.17-1.22,.64-2.3,1.94-4.45,4.55-2.29,2.77-2.41,3.36-3.38,3.73-1.96,.75-4.45-1.38-6.7-3.35-4-3.5-7.04-6.16-7.68-10.73-.59-4.19,3.84-6.8,2.45-9.2-.73-1.27-1.99-.87-2.63-2.07-1.34-2.53,1.98-8.65,6.99-10.68,3.24-1.31,5.35-.28,8.12-2.4,1.42-1.09,1.51-2,2.67-3.54,1.44-1.91,4.05-4.17,9.23-5.49l7.5,.13Z"/><path class="j" d="M31.22,2.1c1.52-.91,3.63-1.32,5.43-1.02,.99,.16,2.44,.63,2.61,1.31,.21,.81-1.6,1.24-1.27,1.74,.47,.71,4.3,.11,5.72,1.09,.23,.16,.37,.34,.44,.52,.27,.67-.24,1.47-.4,1.68-.86,1.08-3.21-.21-5.83-.28-5.9-.15-9.23,6.03-13.04,4.59-.55-.21-1.65-.78-2.48-.29-.81,.47-.57,1.5-1.1,1.88-1.67,1.18-9.25-5.38-8.27-7.16,.81-1.47,7.79-.47,8.99-1.65,1.07-1.05-.91-2.09,.49-3.31C23.36,.46,25.14-.1,27.02,.01c1.97,.12,3.67,.95,4.21,2.09Z"/><g><path class="j" d="M39.64,44.36c-.85,.64-1.71,1.27-2.56,1.91,.58,1.79,1.15,3.63,1.71,5.5,.2,.69,.4,1.37,.59,2.05-.46,.07-1.82,.21-2.83-.62-.32-.26-.51-.55-.65-.76-.59-.88-.51-1.57-.81-2.42-.69-1.9-1.8-2.51-1.49-3.56,.23-.77,.82-1.15,.82-1.15,.23-.15,.44-.21,.59-.24l1.16-7.62,3.48,6.92Z"/><path class="k" d="M30.27,52.16c-1.31-.13-2.62-.26-3.93-.39-1.48-2.82-2.25-5.34-2.67-7.13-.61-2.61-1.22-5.45-.33-8.83,.32-1.23,.76-2.19,1.09-2.84,1.79,.73,3.66,1.64,5.57,2.75,.39,.23,.77,.46,1.14,.69-.23,1.95-.43,3.98-.57,6.09-.24,3.39-.32,6.62-.3,9.65Z"/><path class="k" d="M42.53,49.12c.1,.06,1.05,.63,1.89,.23,.9-.43,1.38-1.83,.74-3.18-.68-3.1-1.79-5.46-2.66-7-1.1-1.96-2.71-4.75-5.94-6.79-.65-.41-1.22-.7-1.61-.88-2.86,1.04-4.69,2.87-4.56,4.55,.02,.31,.12,.71,.41,1.15,.97,1.25,2.42,3.04,4.31,5.14,.46,.51,.98,1.09,1.59,1.72,1.27,1.31,3.18,3.11,5.83,5.06Z"/><path class="k" d="M30.28,52.09c.14,1.18-.78,2.2-1.85,2.32-.82,.1-1.66-.34-2.11-1.11,0-.31,0-.64-.01-.97,0-.31-.02-.61-.04-.9,.05-.09,.6-1.08,1.69-1.19,1.04-.1,2.19,.65,2.32,1.85Z"/><path class="k" d="M32.19,70.86l-1.7-.23c-.03-.36-.1-.93-.22-1.62-.93-5.31-3.42-7.16-4.04-11.35-.15-.99-.24-2.47,.12-4.34,1.31-.36,2.63-.73,3.94-1.09,.52,3.9,.74,6.94,.84,9.07,.06,1.18,.13,3.17,.48,5.88,.2,1.55,.42,2.82,.58,3.68Z"/><path class="k" d="M23.78,36.12c1.2,.49,2.72,.99,4.52,1.28,.99,.17,1.9,.24,2.72,.26,.04-.47,.19-.47,.23,0,.8,0,1.72-.06,2.72-.26,2.54-.48,4.46-1.55,5.67-2.39-.85-1.48-1.84-3.05-2.98-4.65-.64-.91-1.29-1.76-1.92-2.57,.33-1.69,.65-3.39,.98-5.1,.08-.39,.15-.77,.23-1.16,.77-.39,1.3-1.17,1.3-2.06,0-.59-.23-1.13-.61-1.54,.03-.13,.05-.26,.08-.39,.08-.42,.17-.84,.25-1.27-.31-.36-.75-.77-1.39-1.09-.66-.33-1.34-.45-1.95-.45-1.24,0-2.25,.47-2.47,.57-.37-.16-2.45-1.12-4.45-.13-.63,.32-1.08,.73-1.38,1.09,.08,.43,.16,.85,.25,1.27,.02,.13,.04,.26,.07,.39-.38,.42-.61,.95-.61,1.54,0,.89,.53,1.67,1.3,2.06,.08,.39,.15,.77,.23,1.16,.33,1.7,.65,3.4,.98,5.1-.61,.65-1.31,1.5-1.92,2.57-1.32,2.25-1.7,4.4-1.83,5.77Z"/><path class="k" d="M38.87,27.02c.77-.51,1.54-1.03,2.31-1.54-.22-1.85-.68-4.11-1.66-6.56-.39-.98-.82-1.86-1.25-2.66-.64-.37-1.41-.37-2,0-.62,.39-.78,1.03-.82,1.18,1.14,3.19,2.28,6.38,3.42,9.57Z"/><path class="k" d="M20.14,26.69c-.62-.69-1.25-1.37-1.87-2.06,.66-1.74,1.66-3.82,3.21-5.95,.62-.85,1.25-1.61,1.86-2.27,.71-.2,1.46-.02,1.94,.49,.5,.53,.51,1.19,.51,1.34-1.88,2.82-3.77,5.63-5.65,8.45Z"/><path class="f" d="M13.39,35.89c-.3-.18-.6-.37-.9-.55,.99-2.63,2.28-5.47,3.95-8.4,.52-.92,1.05-1.79,1.59-2.62,.33-.89,.64-1.33,.93-1.32,.47,.02,.91,1.18,1.31,3.51-.35,.84-.71,1.46-.94,1.85-1.71,2.76-3.56,3.38-5.25,6.21-.34,.58-.57,1.07-.69,1.33Z"/><path class="f" d="M45.94,37.83c.31-.18,.61-.35,.92-.53-.92-2.66-2.12-5.53-3.7-8.51-.49-.93-1-1.82-1.51-2.67-.03-.12-.28-1.22-.89-1.35-.6-.13-1.53,.7-1.88,2.25,.41,1.41,.95,2.43,1.36,3.09,1.59,2.58,3.38,3.33,5.06,6.37,.33,.59,.54,1.09,.65,1.35Z"/><path class="f" d="M12.88,34.36c-.36,.16-.93,.47-1.46,1.02-.2,.2-1.28,1.37-1.31,3.07-.02,.84,.23,1.97,.71,2.06,.19,.04,.42-.08,.51-.26,.18-.36-.39-.71-.41-1.32-.03-.81,.93-1.62,1.19-1.5,.13,.06,.15,.41,.05,.66-.19,.47-.74,.51-.75,.78,0,.2,.27,.45,.53,.46,.71,.03,1.36-1.79,1.59-2.83,.14-.6,.18-1.11,.19-1.47l-.82-.66Z"/><path class="f" d="M46.51,36.42c.36,.16,.93,.47,1.46,1.02,.2,.2,1.28,1.37,1.31,3.07,.02,.84-.23,1.97-.71,2.06-.19,.04-.42-.08-.51-.26-.18-.36,.39-.71,.41-1.32,.03-.81-.93-1.62-1.19-1.5-.13,.06-.15,.41-.05,.66,.19,.47,.74,.51,.75,.78,0,.2-.27,.45-.53,.46-.71,.03-1.36-1.79-1.59-2.83-.14-.6-.18-1.11-.19-1.47,.27-.22,.55-.44,.82-.66Z"/><path class="k" d="M31.19,76.62c.93-.03,1.85-.05,2.78-.08,.08,.03,.31,.12,.43,.02,.15-.13,.02-.51-.09-.72-.32-.59-.85-.5-1.25-.93-.44-.47-.21-1.04-.35-2.12-.08-.6-.25-1.47-.61-2.5-.57-.21-1.14-.43-1.71-.64-.08,.18-.18,.45-.24,.78-.17,.99,.16,1.81,.29,2.12,.3,.79,.63,2.02,.78,4.06Z"/><path class="k" d="M22.71,17.89c5.41-.03,10.81-.06,16.22-.1-.11-.55-.35-1.29-.95-1.87-1.21-1.17-2.72-.59-3.94-1.51-.65-.48-1.33-1.46-1.42-3.61-.08,0-.16-.01-.25-.02-.49-.03-.99-.07-1.48-.1-.49,.03-.99,.07-1.48,.1-.08,0-.16,.01-.25,.02-.09,2.15-.77,3.13-1.42,3.61-1.22,.91-2.68,.36-3.94,1.51-.66,.6-.95,1.38-1.09,1.96Z"/><path class="i" d="M30.87,2.89c.32,0,.59,.01,.85,.04,1.43,.17,2.5,1.38,2.5,2.81v2.92c-.07,.37-.37,1.61-1.52,2.49-.67,.51-1.35,.7-1.74,.77-.03,0-.05,0-.08,0-.02,0-.05,0-.08,0-.39-.07-1.07-.26-1.74-.77-1.15-.89-1.45-2.13-1.52-2.49v-2.92c0-1.44,1.08-2.65,2.5-2.81,.26-.03,.53-.05,.82-.04Z"/><g><path class="i" d="M33.62,7.7c0,.59,.35,1.06,.78,1.06s.78-.48,.78-1.06-.35-1.06-.78-1.06-.78,.48-.78,1.06Z"/><ellipse class="i" cx="27.36" cy="7.7" rx=".78" ry="1.06"/></g><path class="h" d="M31.22,9.03c-.11-.06-.23-.08-.34-.08-.11,0-.23,.02-.34,.08,.11,.06,.23,.08,.34,.08,.11,0,.23-.02,.34-.08Z"/><g><path class="f" d="M31.53,15.28c-.15,.19-.39,.28-.62,.23-.33-.07-.45-.37-.46-.39l1.08,.16Z"/><path class="f" d="M30.38,15.84c-.08,.04-.2,.09-.36,.14-.52,.16-.95,.13-1.26,.1-1.1-.09-2.11-.25-2.45-.3l2.36,.08,1.71-.02Z"/><path class="f" d="M31.38,15.84c.08,.04,.2,.09,.36,.14,.52,.16,.95,.13,1.26,.1,1.1-.09,2.11-.25,2.45-.3l-2.36,.08-1.71-.02Z"/></g><path class="h" d="M30.84,10.93c-.21,0-.42-.04-.61-.12-.06-.03-.09-.1-.07-.16,.03-.06,.1-.09,.16-.07,.17,.07,.36,.11,.54,.1,.17,0,.34-.04,.5-.12,.06-.03,.14,0,.17,.06,.03,.06,0,.14-.06,.17-.19,.09-.39,.13-.59,.14h-.05Z"/><path class="h" d="M30.92,10.32s-.08,0-.13,0c-.53-.03-.93-.24-1.16-.41-.06-.04-.07-.12-.03-.17,.04-.06,.12-.07,.17-.03,.21,.15,.57,.33,1.04,.36,.58,.03,1.02-.2,1.24-.34,.06-.04,.13-.02,.17,.03,.04,.06,.02,.14-.03,.17-.22,.15-.67,.39-1.26,.39Z"/><path class="e" d="M30.13,10.09c.11,.07,.4,.23,.8,.23,.37,0,.64-.14,.76-.21-.16-.06-.43-.14-.76-.15-.35,0-.63,.07-.8,.13Z"/><path class="l" d="M30.04,10.08s.05,.05,.1,.07c.24,.11,.4-.15,.73-.16,.34-.01,.49,.25,.8,.15,.06-.02,.1-.05,.13-.07-.05-.09-.2-.31-.47-.41-.16-.06-.29-.06-.4-.06-.15,0-.42,0-.66,.2-.12,.09-.18,.2-.22,.28Z"/><g><g><path class="h" d="M32.17,7.4c0,.21,.2,.39,.45,.39s.45-.16,.45-.37c0-.21-.2-.39-.45-.39-.25,0-.45,.16-.45,.37Z"/><path class="l" d="M33.75,7.38c-.41-.24-.92-.43-1.32-.25-.35,.16-.48,.54-.53,.51-.06-.03,.06-.67,.48-.87,.39-.18,.99,.03,1.37,.6Z"/></g><path class="h" d="M31.89,7.74s-.04,0-.06-.02c-.06-.04-.08-.11-.04-.17,.12-.2,.28-.35,.46-.46,.46-.25,1.06-.18,1.58,.18,.06,.04,.07,.12,.03,.17-.04,.06-.12,.07-.17,.03-.44-.31-.94-.37-1.32-.17-.15,.08-.27,.2-.37,.37-.02,.04-.06,.06-.11,.06Z"/></g><g><g><path class="h" d="M29.78,7.4c0,.21-.2,.39-.45,.39-.25,0-.45-.16-.45-.37,0-.21,.2-.39,.45-.39s.45,.16,.45,.37Z"/><path class="l" d="M28.2,7.38c.41-.24,.92-.43,1.32-.25,.35,.16,.48,.54,.53,.51,.06-.03-.06-.67-.48-.87-.39-.18-.99,.03-1.37,.6Z"/></g><path class="h" d="M30.06,7.74s-.08-.02-.11-.06c-.1-.16-.22-.28-.37-.37-.37-.21-.88-.14-1.32,.17-.06,.04-.13,.03-.17-.03-.04-.06-.03-.13,.03-.17,.52-.36,1.12-.43,1.58-.18,.19,.1,.34,.26,.46,.46,.04,.06,.02,.14-.04,.17-.02,.01-.04,.02-.06,.02Z"/></g><g><path class="h" d="M27.91,6.46c.3-.05,.71-.09,1.2-.04,.42,.04,.77,.13,1.03,.21,0-.06,0-.12-.01-.19-.03-.17-.11-.3-.17-.38-.33-.03-.61-.03-.82-.03-.5,0-.63,.04-.73,.07-.25,.09-.41,.26-.5,.36Z"/><path class="h" d="M30.14,6.06c.03,.05,.06,.13,.08,.23,.04,.17,.02,.34,0,.34-.02,0-.06-.2-.07-.27-.02-.09-.03-.17-.08-.28-.01-.03-.02-.05-.03-.06l.09,.03Z"/></g><g><path class="h" d="M33.78,5.85c-.3-.05-.71-.09-1.2-.04-.42,.04-.77,.13-1.03,.21,0-.06,0-.12,.01-.19,.03-.17,.11-.3,.17-.38,.33-.03,.61-.03,.82-.03,.5,0,.63,.04,.73,.07,.25,.09,.41,.26,.5,.36Z"/><path class="h" d="M31.55,5.45c-.03,.05-.06,.13-.08,.23-.04,.17-.02,.34,0,.34,.02,0,.06-.2,.07-.27,.02-.09,.03-.17,.08-.28,.01-.03,.02-.05,.03-.06l-.09,.03Z"/></g><path class="l" d="M30.34,10.38c-.02,.06,.25,.23,.55,.23,.24,0,.47-.13,.46-.18,0-.01-.02-.04-.46-.06-.36-.02-.54-.02-.55,0Z"/><path class="f" d="M19.28,37.31c.39,1.91,1.16,2.67,1.74,3.02,1.52,.92,2.69-.38,6.35-.27,2.4,.07,3.09,.66,4.28,.03,1.38-.73,.99-1.81,2.33-2.69,1.78-1.17,3.37,.13,5.52-.95,1.1-.55,1.77-1.43,2.14-2.03-2.3-2.21-4.6-4.43-6.9-6.64-1.28,1.46-2.56,2.93-3.85,4.39-1.12-1.46-2.24-2.93-3.37-4.39-3.41,2.02-4.52,3.91-4.89,5.29-.17,.64-.39,1.97-1.48,3.06-.65,.65-1.37,.99-1.88,1.17Z"/><path class="f" d="M25.03,19.47c0,.89,.53,1.67,1.3,2.06,.08,.39,.15,.77,.23,1.16,1.51-.7,3.02-1.39,4.53-2.09,1.55,.7,3.09,1.39,4.64,2.09,0-.02,.11-.56,.11-.58,.04-.19,.07-.39,.11-.58,.77-.39,1.3-1.17,1.3-2.06,0-.59-.23-1.13-.61-1.54,.03-.13,.05-.26,.08-.39-.39-.26-1.19-.71-2.29-.76-1.95-.09-3.27,1.15-3.51,1.39-.12-.16-1.15-1.52-2.93-1.54-1.3-.01-2.18,.71-2.41,.91,0,.06,.02,.13,.03,.19,.01,.06,.02,.13,.04,.19-.38,.42-.61,.95-.61,1.54Z"/><path class="g" d="M30.9,32.3c-.07,0-.13-.06-.12-.13l.33-11.52c0-.07,.06-.12,.12-.12,.07,0,.13,.06,.12,.13l-.33,11.52c0,.07-.06,.12-.12,.12Z"/><path class="g" d="M30.9,32.3s-.04,0-.06-.01c-.06-.03-.09-.11-.05-.17l4.83-9.49c.03-.06,.11-.09,.17-.05,.06,.03,.09,.11,.05,.17l-4.83,9.49s-.07,.07-.11,.07Z"/><path class="g" d="M30.9,32.3s-.09-.03-.11-.07l-4.35-9.49c-.03-.06,0-.14,.06-.17,.06-.03,.14,0,.17,.06l4.35,9.49c.03,.06,0,.14-.06,.17-.02,0-.03,.01-.05,.01Z"/><path class="g" d="M27.95,51.21c-.06,0-.12-.05-.12-.11l-1.35-11.03c0-.07,.04-.13,.11-.14,.06,0,.13,.04,.14,.11l1.35,11.03c0,.07-.04,.13-.11,.14h-.02Z"/><path class="g" d="M30.27,52.29s-.04,0-.05-.01l-2.32-1.07c-.06-.03-.09-.1-.06-.17,.03-.06,.1-.09,.17-.06l2.31,1.07c.06,.03,.09,.1,.06,.17-.02,.05-.07,.07-.11,.07Z"/><path class="g" d="M26.27,52.36s-.08-.02-.1-.05c-.04-.06-.02-.13,.03-.17l1.69-1.15c.06-.04,.13-.02,.17,.03,.04,.06,.02,.13-.03,.17l-1.69,1.15s-.05,.02-.07,.02Z"/><path class="g" d="M44.83,48.73s-.08-.02-.11-.06l-7.22-11.42c-.04-.06-.02-.14,.04-.17,.06-.04,.14-.02,.17,.04l7.22,11.42c.04,.06,.02,.14-.04,.17-.02,.01-.04,.02-.07,.02Z"/><path class="g" d="M42.65,49.31c-.11-.03-.14-.11-.12-.17l.9-2.35c.02-.07,.1-.1,.16-.07,.06,.02,.1,.1,.07,.16l-.9,2.35s-.07,.08-.12,.08Z"/><path class="g" d="M43.55,46.96c-.06,0-.11-.04-.12-.1-.01-.07,.03-.13,.1-.15l1.66-.37c.07-.02,.13,.03,.15,.1,.01,.07-.03,.13-.1,.15l-1.66,.37s-.02,0-.03,0Z"/><path class="j" d="M30.37,76.95c1.54-.04,3.08-.08,4.62-.12,.02-.23,.02-.76-.29-1.31-.45-.82-1.25-1.09-1.43-1.14-.74-5.93-1.48-11.86-2.22-17.78-.24-.42-.61-.99-1.17-1.58-.65-.68-1.12-1.17-1.63-1.2-.89-.05-1.88,1.28-2.41,3.24,.12,.59,.25,1.19,.4,1.8,1,4.03,2.47,7.54,4.09,10.54-.22,.19-.52,.51-.67,.96-.47,1.37,.87,2.45,1,4.51,.03,.5,0,1.21-.29,2.09Z"/><path class="h" d="M30.46,70.12c-.06,0-.11-.04-.12-.1l-.14-.6c-.02-.07,.03-.13,.09-.15,.07-.02,.13,.03,.15,.09l.14,.6c.02,.07-.03,.13-.09,.15,0,0-.02,0-.03,0Z"/><path class="h" d="M34.98,76.95h-4.43c-.07,0-.12-.06-.12-.12s.06-.12,.12-.12h4.43c.07,0,.12,.06,.12,.12s-.06,.12-.12,.12Z"/><path class="h" d="M32.64,75.12s-.06-.01-.09-.04c-.05-.05-.05-.13,0-.18l.62-.62s.13-.05,.18,0c.05,.05,.05,.13,0,.18l-.62,.62s-.06,.04-.09,.04Z"/><path class="h" d="M31.28,58.62s-.06-.01-.09-.04l-2.84-2.75s-.05-.13,0-.18c.05-.05,.13-.05,.18,0l2.84,2.75s.05,.13,0,.18c-.02,.03-.06,.04-.09,.04Z"/><path class="h" d="M26.32,59.3s-.04,0-.06-.02c-.06-.03-.08-.11-.05-.17l1.96-3.41c.03-.06,.11-.08,.17-.05,.06,.03,.08,.11,.05,.17l-1.96,3.41s-.07,.06-.11,.06Z"/><path class="h" d="M35.45,45.78s-.08-.02-.11-.06l-.22-.35c-.04-.06-.02-.14,.04-.17,.06-.04,.14-.02,.17,.04l.22,.35c.04,.06,.02,.14-.04,.17-.02,.01-.04,.02-.07,.02Z"/><path class="h" d="M38.9,53.96c-.51,0-1.15-.1-1.79-.44-1.03-.54-1.49-1.39-1.64-1.66-.33-.59-.35-.97-.38-1.33-.02-.35-.05-.67-.35-1.19-.16-.28-.33-.48-.5-.68-.28-.34-.55-.67-.69-1.26-.07-.31-.1-.63-.08-.96,0-.07,.05-.13,.13-.12,.07,0,.12,.06,.12,.13-.02,.3,0,.6,.07,.88,.13,.53,.37,.82,.64,1.15,.17,.21,.35,.42,.52,.72,.33,.57,.36,.94,.38,1.3,.02,.35,.05,.69,.35,1.23,.14,.26,.58,1.06,1.54,1.56,.82,.43,1.61,.44,2.14,.38,.07,0,.13,.04,.14,.11,0,.07-.04,.13-.11,.14-.15,.02-.31,.03-.49,.03Z"/><path class="h" d="M39.11,35.69s-.04,0-.05-.01c-.06-.03-.09-.1-.06-.17,.22-.47,.28-.89,.16-1.24-.2-.58-.83-.86-1.44-1.12-.15-.06-.29-.13-.43-.19-1.19-.58-2.23-1.61-3.08-3.07-.03-.06-.01-.14,.05-.17,.06-.04,.14-.02,.17,.05,.82,1.42,1.82,2.42,2.97,2.97,.13,.07,.28,.13,.42,.19,.63,.27,1.35,.59,1.58,1.27,.14,.42,.08,.9-.17,1.43-.02,.04-.07,.07-.11,.07Z"/><path class="h" d="M22.06,39.45s-.08-.02-.1-.06c-.04-.06-.02-.14,.04-.17,1.12-.74,1.74-1.55,1.85-2.42,.07-.52-.07-.92-.19-1.31-.15-.45-.28-.87-.07-1.37,.24-.55,.7-.73,1.24-.95,.4-.16,.85-.34,1.3-.7,.83-.68,1.37-1.77,1.59-3.24,0-.07,.07-.12,.14-.1,.07,.01,.12,.07,.11,.14-.23,1.54-.8,2.69-1.68,3.4-.48,.39-.95,.58-1.36,.74-.51,.2-.91,.36-1.11,.82-.18,.41-.06,.77,.08,1.19,.13,.39,.28,.84,.2,1.42-.12,.94-.78,1.82-1.96,2.59-.02,.01-.05,.02-.07,.02Z"/><path class="h" d="M28.9,34.97c-.09-.02-.14-.08-.12-.15l.71-3.33c.01-.07,.08-.11,.15-.1,.07,.01,.11,.08,.1,.15l-.71,3.33c-.01,.06-.06,.1-.12,.1Z"/><path class="h" d="M31.71,34.76c-.06,0-.11-.04-.12-.1l-.42-1.95c-.01-.07,.03-.13,.1-.15,.07-.01,.13,.03,.15,.1l.42,1.95c.01,.07-.03,.13-.1,.15,0,0-.02,0-.03,0Z"/><path class="k" d="M31.08,20.72c-.06,0-.12-.05-.12-.12l-.17-2.43c0-.07,.05-.13,.12-.13,.06-.02,.13,.05,.13,.12l.17,2.43c0,.07-.05,.13-.12,.13h0Z"/><path class="k" d="M35.86,21.56s-.92-.36-.92-.36c-.06-.03-.1-.1-.07-.16,.03-.06,.1-.09,.16-.07l.88,.35c.06,.03,.1,.1,.07,.16-.02,.05-.07,.08-.12,.08Z"/><path class="k" d="M26.34,21.73s-.08-.02-.11-.06c-.04-.06-.02-.14,.04-.17l.55-.35c.06-.04,.14-.02,.17,.04,.04,.06,.02,.14-.04,.17l-.55,.35s-.04,.02-.07,.02Z"/><path class="k" d="M30.96,18.94c-.06,0-.11-.04-.12-.1-.01-.07,.03-.13,.1-.14l5.54-.92c.06-.01,.13,.04,.14,.1,.01,.07-.03,.13-.1,.14l-5.54,.92h-.02Z"/><path class="k" d="M30.96,18.94s-5.34-.9-5.34-.9c-.07-.01-.11-.08-.1-.14,.01-.07,.07-.12,.14-.1l5.32,.9c.07,.01,.11,.08,.1,.14-.01,.06-.06,.1-.12,.1Z"/><path class="k" d="M35.13,21.16c-.1-.02-.14-.09-.12-.16l.75-2.97c.02-.07,.09-.11,.15-.09,.07,.02,.11,.09,.09,.15l-.75,2.97c-.01,.06-.06,.09-.12,.09Z"/><path class="k" d="M26.8,21.31c-.07,0-.12-.05-.12-.12l-.18-3.01c0-.07,.05-.13,.12-.13,.07,0,.13,.05,.13,.12l.18,3.01c0,.07-.05,.13-.12,.13h0Z"/><path class="k" d="M34.92,21.14s-3.88-.65-3.88-.65c-.07-.01-.11-.08-.1-.14,.01-.07,.07-.11,.14-.1l3.86,.65c.07,.01,.11,.08,.1,.14-.01,.06-.06,.1-.12,.1Z"/><path class="k" d="M26.83,21.38c-.06,0-.11-.04-.12-.1-.01-.07,.03-.13,.1-.15l4.23-.89c.07-.01,.13,.03,.15,.1,.01,.07-.03,.13-.1,.15l-4.23,.89s-.02,0-.03,0Z"/><path class="j" d="M35.33,17c.6-.3,1.01-.64,1.27-.89,.73-.71,.93-1.37,1.72-1.64,.12-.04,.29-.08,.61-.14,.7-.14,1.05-.21,1.21-.09,.29,.22,.19,.87,.05,1.25-.32,.91-1.15,1.29-1.04,1.51,.09,.18,.67-.07,.78,.1,.22,.35-1.53,2.23-2.45,1.86-.07-.03-.21-.18-.51-.49-.55-.57-.67-.79-1.04-1.08-.14-.11-.34-.25-.59-.39Z"/><path class="j" d="M27.07,16.74c-.6-.3-1.01-.64-1.27-.89-.73-.71-.93-1.37-1.72-1.64-.12-.04-.29-.08-.61-.14-.7-.14-1.05-.21-1.21-.09-.29,.22-.19,.87-.05,1.25,.32,.91,1.15,1.29,1.04,1.51-.09,.18-.67-.07-.78,.1-.22,.35,1.53,2.23,2.45,1.86,.07-.03,.21-.18,.51-.49,.55-.57,.67-.79,1.04-1.08,.14-.11,.34-.25,.59-.39Z"/><path class="h" d="M41.64,26.25s-.05,0-.07-.02l-.76-.53c-.06-.04-.07-.12-.03-.17,.04-.06,.12-.07,.17-.03l.76,.53c.06,.04,.07,.12,.03,.17-.02,.04-.06,.05-.1,.05Z"/><path class="h" d="M39.24,27.33s-.06-.01-.08-.03c-.05-.05-.06-.12-.01-.18l1.44-1.62c.05-.05,.13-.06,.18-.01,.05,.05,.06,.12,.01,.18l-1.44,1.62s-.06,.04-.09,.04Z"/><path class="h" d="M19.5,27.33c-.06,0-.11-.04-.12-.1l-.76-3.33c-.02-.07,.03-.13,.09-.15,.07-.01,.13,.03,.15,.09l.76,3.33c.02,.07-.03,.13-.09,.15,0,0-.02,0-.03,0Z"/><path class="h" d="M13.47,34.97c-.07,0-.12-.05-.12-.12l-.02-.62c0-.07,.05-.13,.12-.13,.08,0,.13,.05,.13,.12l.02,.62c0,.07-.05,.13-.12,.13h0Z"/><path class="h" d="M45.69,37.21s-.09-.02-.11-.06c-.03-.06-.01-.14,.05-.17l1.17-.66c.06-.03,.14-.01,.17,.05,.03,.06,.01,.14-.05,.17l-1.17,.66s-.04,.02-.06,.02Z"/></g><path class="j" d="M37.87,2.6c-.04-.76-1.87-1.54-3.5-1.4-1.68,.14-2.78,1.21-3.13,1.58,.05-.09,.61-1.05,.18-1.82-.48-.86-1.82-.84-2.61-.56-.14,.05-.62,.23-1.18,.86-1.04,1.15-1.27,2.57-1.33,3.35,.42,1.61,.78,2.04,1.06,2.04,.73,0,.98-2.85,1.94-2.94,.54-.05,1.07,.78,1.5,1.66,.39-.48,1.02-1.14,1.66-1.03,1.08,.17,1.31,2.35,2.06,2.33,.39-.01,.38-.8,1.03-1.79,1.02-1.55,2.35-1.61,2.32-2.27Z"/></g></g></g></svg>