<?xml version="1.0" encoding="UTF-8"?><svg xmlns="http://www.w3.org/2000/svg" viewBox="0 0 42.12 49.87"><defs><style>.e{fill:#fff;}.f{fill:#ea445c;}.g{fill:#4fb266;}.h{fill:#f99055;}.i{fill:#240100;}.j{fill:#68e07e;}.k{fill:#505088;}</style></defs><g id="a"/><g id="b"><g id="c"><g id="d"><path class="f" d="M32.31,44.4c-5.45,2.3-9.09,1.92-11.46,1.06-2.33-.85-2.86-1.95-5.47-2.29-3.07-.4-4.31,.88-7.87,.24-1.55-.27-2.2-1.25-3.8-1.19-1.32,.05-2.38,.63-3.07,1.1-.42-1.19-.89-3.11-.49-5.32,.49-2.73,2.06-4.51,3.93-6.46,5.12-5.37,9.38-8.85,13.34-12.52,2.39-2.22,4.24-4.1,5.33-5.25,1.29,.18,2.58,.36,3.87,.55-1.18,5.08-2.85,15.96,2.87,25.98,.87,1.52,1.82,2.88,2.82,4.09Z"/><g><g><g><path class="g" d="M12.01,22.86c.6,.6,1.19,1.2,1.79,1.79,2.13-.96,3.5-2.18,4.27-3.02,.95-1.02,1.87-1.99,1.73-3.27-.09-.83-.55-1.5-.87-1.88-2.31,2.12-4.62,4.25-6.93,6.37Z"/><path class="k" d="M9.44,15.68c.21-.24,.54-.69,.71-1.34,.09-.36,.1-.69,.09-.93-.83-.31-1.66-.63-2.49-.94-.34,.59-.68,1.18-1.02,1.78,.44,.58,.88,1.17,1.32,1.75,.36,1.41,1.04,3.4,2.42,5.49,.99,1.5,2.03,2.6,2.87,3.37,.09,.07,.24,.16,.4,.13,.29-.06,.41-.51,.47-.74,.27-1-.21-2.38-.45-3-1.44-1.86-2.88-3.72-4.32-5.58Z"/><path class="i" d="M9.2,16.13c-.1-.02-.14-.09-.12-.16l.1-.36c.02-.07,.09-.11,.15-.09,.07,.02,.1,.09,.09,.15l-.1,.36c-.02,.05-.07,.09-.12,.09Z"/><path class="i" d="M8.67,14.74s-.05,0-.07-.02c-.06-.04-.07-.12-.03-.17l.41-.61c.04-.06,.12-.07,.17-.03,.06,.04,.07,.12,.03,.17l-.41,.61s-.06,.06-.1,.06Z"/><path class="i" d="M9.08,14.13s-.82-.17-.82-.17c-.07-.01-.11-.08-.1-.15,.01-.07,.08-.11,.15-.1l.8,.17c.07,.01,.11,.08,.1,.15-.01,.06-.06,.1-.12,.1Z"/><path class="i" d="M12.83,24.18c-.09-.01-.14-.08-.12-.15l.37-2.07c.01-.07,.08-.11,.14-.1,.07,.01,.11,.08,.1,.15l-.37,2.07c-.01,.06-.06,.1-.12,.1Z"/></g><path class="g" d="M26.77,15.31c-1.37,.11-2.74,.23-4.13,.34,.02-.41,.05-.82,.07-1.23,.05-.73,.09-1.45,.13-2.17,0-.06,0-.11,.01-.16,.05-.8,.1-1.61,.15-2.41l1.41-.03,1.3-.03h.59c-.03,.77-.01,1.61,.05,2.49,.09,1.18,.22,2.25,.4,3.21Z"/><path class="j" d="M30.99,17.48c-.23,.16-.47,.36-.73,.6-.33,.31-.59,.62-.79,.89v9.53h-9.91v-9.53c-.08-.23-.3-.76-.83-1.17-.33-.25-.65-.37-.87-.43,.02-.24,.08-.6,.28-.98,.45-.84,1.33-1.13,2.72-1.71,1-.42,2.23-.71,3.65-.66,.77,.02,1.47,.14,2.11,.33,.47,.13,.78,.27,1.4,.54,1.15,.5,1.72,.75,2.16,1.22,.23,.24,.57,.67,.8,1.38Z"/><path class="i" d="M26.14,12.22c0,.99-.67,1.79-1.49,1.79s-1.49-.8-1.49-1.79,.67-1.79,1.49-1.79,1.49,.8,1.49,1.79Z"/><path class="h" d="M24.72,1.67c-.4,0-.74,.02-1.06,.06-1.79,.21-3.13,1.72-3.13,3.52v3.65c.09,.46,.47,2.01,1.91,3.12,.84,.64,1.69,.87,2.18,.96,.03,0,.06,0,.09,0,.03,0,.06,0,.09,0,.49-.09,1.34-.32,2.18-.96,1.44-1.11,1.82-2.66,1.91-3.12v-3.65c0-1.8-1.35-3.31-3.13-3.52-.32-.04-.67-.06-1.03-.06Z"/><g><path class="h" d="M21.27,7.7c0,.74-.44,1.33-.98,1.33s-.98-.6-.98-1.33,.44-1.33,.98-1.33,.98,.6,.98,1.33Z"/><path class="h" d="M30.1,7.7c0,.74-.44,1.33-.98,1.33s-.98-.6-.98-1.33,.44-1.33,.98-1.33,.98,.6,.98,1.33Z"/></g><path class="i" d="M24.41,9.93c.14-.08,.28-.1,.43-.1,.14,0,.28,.02,.43,.1-.14,.08-.28,.1-.43,.1-.14,0-.28-.02-.43-.1Z"/><g><path class="i" d="M23.37,7.96c0,.26-.25,.48-.56,.49-.31,0-.56-.2-.56-.46,0-.26,.25-.48,.56-.49,.31,0,.56,.2,.56,.46Z"/><path class="i" d="M23.63,8.51c-.06,0-.12-.05-.12-.11,0,0-.06-.51-.45-.7-.39-.19-.93,.02-1.19,.46-.04,.06-.11,.08-.17,.04-.06-.04-.08-.11-.04-.17,.33-.56,1-.81,1.52-.56,.51,.25,.59,.87,.59,.9,0,.07-.04,.13-.11,.14h-.01Z"/></g><path class="i" d="M26.11,7.96c0,.26,.25,.48,.56,.49,.31,0,.56-.2,.56-.46,0-.26-.25-.48-.56-.49-.31,0-.56,.2-.56,.46Z"/><path class="i" d="M25.85,8.51c-.08,0-.13-.07-.12-.14,0-.03,.08-.65,.59-.9,.52-.25,1.18,0,1.52,.56,.04,.06,.02,.14-.04,.17-.06,.03-.14,.02-.17-.04-.27-.45-.8-.65-1.19-.46-.39,.19-.45,.7-.45,.7,0,.06-.06,.11-.12,.11Z"/><path class="i" d="M24.54,11.07c-.2,0-.39-.02-.59-.05-.07-.01-.11-.08-.1-.15,.01-.07,.08-.11,.15-.1,.24,.05,.48,.06,.73,.04,.37-.02,.72-.12,1.06-.28,.06-.03,.14,0,.17,.06,.03,.06,0,.14-.06,.17-.36,.17-.75,.27-1.15,.3-.07,0-.14,0-.2,0Z"/><path class="i" d="M24.7,11.51c-.06,0-.11-.04-.12-.11-.01-.07,.04-.13,.1-.14l.56-.09c.07-.02,.13,.04,.14,.1,.01,.07-.04,.13-.1,.14l-.56,.08s-.01,0-.02,0Z"/><path class="i" d="M27.54,6.12c.09,.18-.89,.79-1.04,.88-.31,.19-.88,.54-.98,.42-.1-.11,.23-.65,.7-.97,.54-.38,1.26-.47,1.32-.33Z"/><path class="i" d="M23.83,7.57c-.13,.16-1.09-.47-1.24-.56-.3-.19-.87-.56-.81-.7,.06-.13,.68-.07,1.18,.21,.57,.32,.97,.93,.87,1.05Z"/><path class="g" d="M41.09,49.87h-5.71c-.15-.19-.33-.48-.35-.85,0-.08,0-.15,0-.22,.02-.32,.16-.55,.23-.71,.2-.43,.4-1.09,.32-2.11,.57-.07,1.16-.14,1.73-.21,.81,1.17,1.65,1.76,2.28,2.1,.23,.12,.47,.23,.69,.34,.5,.25,.94,.49,1.02,.91,.05,.29-.08,.56-.22,.75Z"/><path class="g" d="M33.86,38.9c-.32,1.3,.18,2.77,1.2,5.66,.31,.87,.59,1.57,.76,1.99h1.44c.16-1.84,.31-3.7,.46-5.58,.14-1.81,.27-3.61,.39-5.39,.06-.08,.12-.2,.15-.34,.1-.49-.78-1.61-.95-1.64-.54-.1-.95,.72-2.36,1.33-.09,.04-.16,.07-.2,.08-.06,.21-.11,.43-.16,.63-.17,.66-.21,1.12-.27,1.44-.15,.9-.35,1.36-.46,1.81Z"/><path class="k" d="M34.69,36.19c.17,.05,.33,.11,.49,.15,.36-.38,.71-.76,1.07-1.14,.43-.46,.87-.92,1.3-1.38-.18-.17-.36-.34-.53-.51-2.53-2.44-5.07-4.84-7.62-7.21-.67,.26-1.44,.6-2.26,1.06-.78,.44-1.45,.9-2,1.33,.77,1.39,1.59,2.41,2.21,3.09,0,0,2.9,3.19,7.35,4.62Z"/><path class="j" d="M34.13,36.19c-.4-.81,1.84-3.57,3.25-3.04,.81,.3,1.15,1.58,1.08,2.49-.06,.65-.35,1.45-.69,1.47-.36,.02-.42-.82-1.01-.97-.52-.13-.78,.44-1.58,.44-.29,0-.89-.07-1.05-.39Z"/><path class="i" d="M36.01,46.67s-.07-.01-.09-.04l-.34-.37c-.05-.05-.04-.13,0-.18,.05-.05,.13-.04,.18,0l.34,.37c.05,.05,.04,.13,0,.18-.02,.02-.05,.03-.08,.03Z"/><path class="i" d="M36.99,46.28s-.04,0-.06-.02c-.06-.04-.08-.11-.04-.17l.35-.59c.04-.06,.11-.08,.17-.04,.06,.04,.08,.11,.04,.17l-.35,.59s-.06,.06-.11,.06Z"/><path class="j" d="M41.09,49.87h-5.71c-.15-.19-.33-.48-.35-.85,0-.08,0-.15,0-.22,.89,.27,2.37,.97,3.83,.41,.77-.3,1.03-.76,1.41-1,.5,.25,.94,.49,1.02,.91,.05,.29-.08,.56-.22,.75Z"/><path class="g" d="M7.35,49.87h5.71c.15-.19,.33-.48,.35-.85,0-.08,0-.15,0-.22-.02-.32-.16-.55-.23-.71-.2-.43-.4-1.09-.32-2.11-.57-.07-1.16-.14-1.73-.21-.81,1.17-1.65,1.76-2.28,2.1-.23,.12-.47,.23-.69,.34-.5,.25-.94,.49-1.02,.91-.05,.29,.08,.56,.22,.75Z"/><path class="g" d="M14.58,38.9c.32,1.3-.18,2.77-1.2,5.66-.31,.87-.59,1.57-.76,1.99h-1.44c-.16-1.84-.31-3.7-.46-5.58-.14-1.81-.27-3.61-.39-5.39-.06-.08-.12-.2-.15-.34-.1-.49,.78-1.61,.95-1.64,.54-.1,.95,.72,2.36,1.33,.09,.04,.16,.07,.2,.08,.06,.21,.11,.43,.16,.63,.17,.66,.21,1.12,.27,1.44,.15,.9,.35,1.36,.46,1.81Z"/><path class="k" d="M13.75,36.19c-.17,.05-.33,.11-.49,.15-.36-.38-.71-.76-1.07-1.14-.43-.46-.87-.92-1.3-1.38,.18-.17,.35-.34,.53-.51,2.68-2.57,5.39-5.01,8.12-7.34,.54,.39,1.13,.79,1.76,1.19,.82,.51,1.62,.95,2.37,1.33-.94,1.37-1.87,2.39-2.58,3.09,0,0-3.35,3.33-7.35,4.62Z"/><path class="j" d="M14.31,36.19c.4-.81-1.84-3.57-3.25-3.04-.81,.3-1.15,1.58-1.08,2.49,.06,.65,.35,1.45,.69,1.47,.36,.02,.42-.82,1.01-.97,.52-.13,.78,.44,1.58,.44,.29,0,.89-.07,1.05-.39Z"/><path class="i" d="M12.43,46.67s-.06-.01-.08-.03c-.05-.05-.05-.13,0-.18l.34-.37s.13-.05,.18,0c.05,.05,.05,.13,0,.18l-.34,.37s-.06,.04-.09,.04Z"/><path class="i" d="M11.45,46.28s-.08-.02-.11-.06l-.35-.59c-.04-.06-.02-.14,.04-.17,.06-.04,.14-.02,.17,.04l.35,.59c.04,.06,.02,.14-.04,.17-.02,.01-.04,.02-.06,.02Z"/><path class="j" d="M7.35,49.87h5.71c.15-.19,.33-.48,.35-.85,0-.08,0-.15,0-.22-.89,.27-2.37,.97-3.83,.41-.77-.3-1.03-.76-1.41-1-.5,.25-.94,.49-1.02,.91-.05,.29,.08,.56,.22,.75Z"/><path class="g" d="M23.57,28.13c-.51-.38-2.42-1.41-3.14-1.93-1-.72-1.43-1.48-1.77-1.32-.3,.14-.22,.86-.22,.9,.22,1.82,4.35,2.9,5.18,3.11,.08-.11,.19-.31,.13-.5-.04-.14-.14-.22-.19-.25Z"/><path class="g" d="M25.01,28.13c.51-.38,2.42-1.41,3.14-1.93,1-.72,1.43-1.48,1.77-1.32,.3,.14,.22,.86,.22,.9-.22,1.82-4.35,2.9-5.18,3.11-.08-.11-.19-.31-.13-.5,.04-.14,.14-.22,.19-.25Z"/><path class="g" d="M28.02,14.88c-.88,4.54-1.76,9.07-2.63,13.62,0,.04,0,.07-.02,.11-.7,0-1.41,0-2.11,.02,0-.04,0-.09-.02-.13-.79-4.6-1.58-9.22-2.38-13.82,1-.42,2.23-.71,3.65-.66,1.38,.04,2.55,.4,3.51,.87Z"/><g><path class="g" d="M36.83,22.86c-.6,.6-1.19,1.2-1.79,1.79-2.13-.96-3.5-2.18-4.28-3.02-.95-1.02-1.87-1.99-1.73-3.27,.09-.83,.55-1.5,.87-1.88,2.31,2.12,4.62,4.25,6.93,6.37Z"/><path class="k" d="M39.41,15.68c-.21-.24-.54-.69-.71-1.34-.09-.36-.1-.69-.09-.93,.83-.31,1.66-.63,2.49-.94,.34,.59,.68,1.18,1.02,1.78-.44,.58-.88,1.17-1.32,1.75-.36,1.41-1.04,3.4-2.42,5.49-.99,1.5-2.03,2.6-2.87,3.37-.09,.07-.24,.16-.4,.13-.29-.06-.41-.51-.47-.74-.27-1,.21-2.38,.45-3,1.44-1.86,2.88-3.72,4.32-5.58Z"/><path class="i" d="M39.65,16.13c-.05,0-.1-.04-.12-.09l-.1-.36c-.02-.07,.02-.14,.09-.15,.07-.02,.14,.02,.15,.09l.1,.36c.02,.07-.02,.14-.09,.15-.01,0-.02,0-.03,0Z"/><path class="i" d="M40.18,14.74s-.08-.02-.1-.06l-.41-.61c-.04-.06-.02-.13,.03-.17,.06-.04,.13-.02,.17,.03l.41,.61c.04,.06,.02,.13-.03,.17-.02,.01-.05,.02-.07,.02Z"/><path class="i" d="M39.77,14.13c-.06,0-.11-.04-.12-.1-.01-.07,.03-.13,.1-.15l.8-.17c.07-.01,.13,.03,.15,.1,.01,.07-.03,.13-.1,.15l-.8,.17s-.02,0-.03,0Z"/><path class="i" d="M36.01,24.18c-.06,0-.11-.04-.12-.1l-.37-2.07c-.01-.07,.03-.13,.1-.15,.06-.01,.13,.03,.14,.1l.37,2.07c.01,.07-.03,.13-.1,.15h-.02Z"/></g><path class="k" d="M19.86,19.17l-.3,.93c-.95-.81-1.9-1.62-2.86-2.44-.09-.59,.14-1.04,.44-1.11,.05-.01,.2-.04,.41,.09-.06-.21-.12-.55-.04-.97,.16-.83,.78-1.28,.94-1.39,.34,.32,1.43,1.39,1.6,3.09,.07,.75-.05,1.38-.18,1.8Z"/><path class="k" d="M29.02,19.41l.3,.93c.95-.81,1.9-1.62,2.86-2.44,.09-.59-.14-1.04-.44-1.11-.05-.01-.2-.04-.41,.09,.06-.21,.12-.55,.04-.97-.16-.83-.78-1.28-.94-1.39-.42,.45-1.52,1.72-1.57,3.55-.01,.51,.06,.96,.15,1.33Z"/><path class="i" d="M19.12,18.64s-.07-.02-.1-.05l-1.62-2.03c-.04-.05-.03-.13,.02-.18,.05-.04,.13-.03,.18,.02l1.62,2.03c.04,.05,.03,.13-.02,.18-.02,.02-.05,.03-.08,.03Z"/><path class="i" d="M30.14,18.86s-.05,0-.07-.02c-.06-.04-.07-.12-.04-.17l1.2-1.86c.04-.06,.12-.07,.17-.04,.06,.04,.07,.12,.04,.17l-1.2,1.86s-.06,.06-.1,.06Z"/><path class="i" d="M24.8,22.28c-.06,0-.11-.04-.12-.09l-2.09-7.74c-.02-.07,.02-.13,.09-.15,.07-.02,.14,.02,.15,.09l2.09,7.74c.02,.07-.02,.13-.09,.15-.01,0-.02,0-.03,0Z"/><path class="i" d="M24.8,22.28c-.1-.02-.14-.09-.12-.16l1.9-7.63c.02-.07,.08-.11,.15-.09,.07,.02,.11,.08,.09,.15l-1.9,7.63c-.01,.06-.06,.09-.12,.09Z"/><path class="i" d="M13.41,34.12s-.07-.01-.1-.04c-.04-.05-.04-.13,.01-.18l7.12-6.06c.05-.04,.13-.04,.18,.01,.04,.05,.04,.13-.01,.18l-7.12,6.06s-.05,.03-.08,.03Z"/><path class="i" d="M35.03,34.65s-.07-.01-.09-.04l-6.48-6.59s-.05-.13,0-.18c.05-.05,.13-.05,.18,0l6.48,6.59s.05,.13,0,.18c-.02,.02-.06,.04-.09,.04Z"/><path class="e" d="M26.56,10.2c-.31,.65-.93,1.09-1.63,1.15-.81,.06-1.59-.4-1.95-1.16,.48,.13,1.15,.26,1.95,.24,.65-.01,1.21-.12,1.63-.23Z"/></g><path class="f" d="M20.39,3.44c-.19,.38-.4,3,.12,3.09,.6,.1,1.37-3.23,2.11-3.12,.59,.09,.75,2.3,1.44,2.31,.17,0,.36-.13,.79-.1,.23,.02,.31,.06,.45,.08,.72,.11,1.07-.74,1.74-.69,.28,.02,.5,.17,.94,.49,.61,.45,.68,.78,.9,.75,.37-.05,.64-1.09,.56-1.97-.03-.36-.11-1.28-.78-1.84-.41-.34-.69-.24-1.12-.69-.4-.43-.34-.72-.64-.84-.55-.23-1.28,.53-1.4,.4-.13-.14,.66-.94,.56-1.14-.21-.43-2.49-.07-3.8,1.03-.26,0-.39-.28-.52-.29-.31-.02-.64,1.5-.98,1.92-.02,.03-.15,.14-.38,.6Z"/></g></g></g></g></svg>