<?xml version="1.0" encoding="UTF-8"?><svg xmlns="http://www.w3.org/2000/svg" viewBox="0 0 62.05 74.84"><defs><style>.e{fill:#ffb8ce;}.f{fill:#fff;}.g{fill:#ea445c;}.h{fill:#4fb266;}.i{fill:#210b04;}.j{fill:#f99055;}.k{fill:#68e07e;}.l{fill:#ef4d4d;}</style></defs><g id="a"/><g id="b"><g id="c"><g id="d"><g><path class="k" d="M10.79,12.61c.8-.46,1.6-.93,2.4-1.39,1.6,1.1,3.38,2.54,5.14,4.4,.72,.76,1.36,1.51,1.93,2.23,.95,1.39,.68,2.85,.06,3.21-.55,.31-1.67-.09-2.46-1.13-2.36-2.44-4.71-4.87-7.07-7.31Z"/><path class="k" d="M3.25,3.94c.24-.25,.49-.51,.73-.76,2.16,1.11,4.88,2.87,7.36,5.66,.71,.8,1.33,1.61,1.86,2.38l-2.38,1.43c-.69-.53-1.19-1-1.48-1.29-2.35-2.36-2.59-4.26-4.94-6.46-.49-.46-.93-.79-1.15-.96Z"/><path class="i" d="M4.81,3.71c-.11-.49-.29-1.06-.57-1.69-.2-.43-.41-.81-.61-1.12C2.65,.46,.58-.4,.1,.21c-.27,.36,.09,1.08,.12,1.14,.31,.61,1.01,1.05,1.54,.93,.16-.04,.33-.13,.32-.18-.01-.08-.39,.06-.65-.14-.4-.31-.28-.86-.54-.94-.19-.06-.5,.13-.59,.38-.23,.68,1.34,1.8,2.27,2.32,.54,.3,1.02,.48,1.36,.59,.29-.2,.58-.4,.87-.6Z"/></g><path class="h" d="M12.98,36.32c-.02-1.45-.04-2.91-.06-4.36,1.72-.57,3.69-1.09,5.9-1.47,4.18-.72,7.86-.68,10.74-.42-1.21,2.55-2.41,5.11-3.62,7.66-1.71,.39-3.09,.42-4.04,.38-1.06-.04-1.91-.19-6.96-1.35-.8-.18-1.47-.34-1.96-.45Z"/><path class="h" d="M32.69,32.15c1.46,2.38,.9,5.39-1.26,6.71-2.16,1.32-5.09,.46-6.56-1.92-1.46-2.38-.9-5.39,1.26-6.71,2.16-1.32,5.09-.46,6.56,1.92Z"/><path class="h" d="M38.08,48.54c-1.18,.58-2.36,1.16-3.54,1.75-1.38-1.17-2.86-2.57-4.34-4.26-2.8-3.18-4.69-6.34-5.97-8.94,2.81-.31,5.62-.61,8.42-.92,1.22,1.25,1.98,2.41,2.44,3.24,.08,.14,.15,.27,.22,.42,.39,.78,1.48,2.97,2.27,6.21,.14,.6,.33,1.45,.5,2.49Z"/><path class="h" d="M23.81,52.72c-.59,.31-1.19,.6-1.77,.9-1.32-2.91-3.01-6.15-5.21-9.56-.65-1-1.31-1.95-1.96-2.86-.93-1.31-1.87-2.51-2.78-3.62-1.21-1.95-1.22-4.03-.2-5.04,.21-.21,.63-.55,1.42-.68,.92,1.32,1.84,2.63,2.76,3.95,.68,.56,1.55,1.36,2.47,2.39,.55,.63,1.24,1.4,1.87,2.36,.3,.45,.58,.94,.84,1.47,1.29,2.7,.56,4,1.89,8.63,.13,.43,.25,.81,.36,1.15,.12,.36,.22,.66,.31,.9Z"/><path class="h" d="M27.12,52.68l-1.38,8.29s-.17,.26-.44,.28c-.27,.02-.52-.16-.61-.46,.08-.48,.14-1.2-.05-2.02-.2-.87-.56-1.39-1.12-2.31-.39-.65-.92-1.61-1.49-2.85,.33-.7,.65-1.4,.98-2.11,.17,.12,.33,.22,.48,.31,1.04,.59,1.72,.6,2.17,.46,.28-.08,.76-.33,1.12-.1,.21,.12,.3,.35,.34,.5Z"/><path class="h" d="M46.41,66.06c-.59,.3-1.19,.59-1.78,.9-1.31-2.91-3.01-6.15-5.21-9.56-1.09-1.67-2.19-3.22-3.27-4.63-.49-.64-.99-1.27-1.47-1.86-1.21-1.95-1.22-4.02-.2-5.04,.21-.21,.63-.54,1.42-.67,.92,1.32,1.84,2.63,2.76,3.95,.68,.56,1.56,1.36,2.48,2.39,.13,.15,.27,.3,.4,.47,.76,.86,1.64,1.96,2.31,3.36,1.3,2.71,.56,4.01,1.9,8.64,.12,.43,.24,.81,.36,1.15,.11,.36,.22,.66,.31,.9Z"/><path class="h" d="M49.72,66.02l-1.39,8.28s-.17,.27-.44,.29c-.26,.02-.51-.17-.6-.46,.08-.47,.14-1.2-.06-2.03-.2-.86-.56-1.38-1.11-2.31-.39-.64-.92-1.6-1.5-2.84,.33-.7,.65-1.4,.98-2.11,.18,.12,.34,.22,.49,.31,1.03,.58,1.71,.59,2.16,.46,.28-.09,.77-.33,1.13-.11,.2,.13,.29,.35,.34,.51Z"/><path class="i" d="M29.44,30.01c.77,.38,1.65,.92,2.53,1.69,.29,.25,.55,.51,.79,.76-1.2,1.99-2.4,3.99-3.59,5.98-.45-.21-1.1-.56-1.76-1.14-.86-.75-1.3-1.5-1.85-2.42-.68-1.14-1.43-2.24-2.05-3.41-.8-1.51-2.37-3.71-5.74-6.69l.34-5.9c.09-.28,.39-1.31-.08-2.49-.06-.16-.14-.31-.21-.44-.48-.84-1.16-1.25-1.39-1.38,.21-.25,.42-.5,.63-.76,.32-.39,.65-.78,.97-1.17,1.55,1.1,3.09,2.2,4.64,3.3,.67,.4,1.64,1.1,2.42,2.24,1.36,1.98,1.2,3.57,1.89,6.22,.36,1.4,1.05,3.36,2.48,5.6Z"/><path class="i" d="M21.84,24.13c.7,1.04,.42,2.46-.63,3.16-1.04,.7-2.46,.42-3.16-.63-.7-1.04-.42-2.46,.63-3.16,1.04-.7,2.46-.42,3.16,.63Z"/><path class="i" d="M17.9,15.53c-.02,.15-.06,.29-.1,.42-.48-.84-1.16-1.25-1.39-1.38,.21-.25,.42-.5,.63-.76,.03,0,.05,0,.08,0,.56,.08,.91,.85,.78,1.7Z"/><g><g><path class="j" d="M17.19,14.45c-.23,.2-.52,.33-.83,.33-.63,0-1.17-.05-1.61-.09-.13-.01-.88-.1-1.6-.49-.19-.1-.39-.23-.45-.46-.09-.33,.11-.58,.13-.6,0-.07,0-.11-.03-.13-.06-.07-.18-.04-.25-.15-.05-.1-.08-.25,0-.34,.05-.05,.12-.07,.15-.07-.02-.02-.19-.17-.16-.37,.02-.09,.06-.15,.12-.19,.08-.05,.17-.11,.27-.19,.62-.5,.92-1.23,.93-1.57,0-.04,0-.2,.04-.41,.01-.07,.03-.14,.05-.22,.14-.54,.42-.91,.58-1.12,.41-.53,.89-.84,1.22-1.02,.39-.22,1.07-.53,1.92-.52,1.54,.02,3.55,1.16,3.77,2.98,.23,1.84-1.48,3.5-2.53,3.78-.16,.04-.66,.14-1.22,.49-.19,.12-.36,.24-.5,.36Z"/><path class="j" d="M13.16,11.68c-.03-.06-.07-.14-.15-.22-.08-.08-.14-.07-.21-.15-.02-.03-.08-.11-.08-.22,0-.02,0-.14,.07-.24,.09-.12,.26-.14,.33-.15,.15-.02,.39-.12,.78-.47-.06,.27-.13,.54-.19,.81-.18,.21-.37,.43-.55,.64Z"/></g><path class="i" d="M15.14,10.86c-.06,0-.12-.05-.12-.11-.01-.12-.07-.36-.28-.56-.19-.18-.41-.23-.52-.25-.07,0-.12-.07-.11-.14,0-.07,.07-.12,.14-.11,.14,.02,.42,.08,.66,.31,.26,.25,.33,.55,.35,.71,0,.07-.04,.13-.11,.14h-.02Z"/><path class="i" d="M14.65,10.34c-.09,.2-.27,.31-.41,.25-.14-.06-.17-.27-.08-.47,.09-.2,.27-.31,.41-.25,.14,.06,.17,.27,.08,.47Z"/><path class="i" d="M13.21,12.77c-.22,0-.35-.14-.38-.18-.04-.05-.04-.13,.01-.18,.05-.04,.13-.04,.18,.01,.02,.02,.09,.09,.19,.09,.04,0,.08,0,.12-.03,.06-.03,.14,0,.17,.05,.03,.06,0,.14-.05,.17-.08,.04-.15,.06-.24,.06Z"/><path class="l" d="M12.97,12.31c.04,.12,.06,.22,.08,.29-.06,0-.22-.02-.34-.14-.01-.01-.23-.22-.15-.44,.03-.07,.09-.17,.17-.17,.1,0,.17,.21,.25,.46Z"/><g><path class="i" d="M14.92,8.97s-.16-.04-.29,.05c-.11,.08-.13,.19-.14,.22l.43-.27Z"/><path class="i" d="M14.96,8.99s-.12,.09-.2,.14c-.14,.09-.17,.09-.17,.12,0,.09,.44,.14,.86,.35,.3,.15,.51,.34,.64,.49,0-.08,0-.14-.02-.2-.15-.62-.97-.86-1.11-.9Z"/></g><path class="i" d="M13.09,13.17s-.29-.07-.29-.07c-.07-.02-.11-.08-.09-.15,.02-.07,.08-.11,.15-.09l.26,.06c.07,.02,.11,.08,.09,.15-.01,.06-.07,.1-.12,.1Z"/></g><g><path class="j" d="M17.29,12.15c-.24,.54-.76,.83-1.15,.65-.4-.18-.52-.76-.28-1.29,.24-.54,.76-.83,1.15-.65,.4,.18,.52,.76,.28,1.29Z"/><g><path class="i" d="M16.39,12.98c-.1,0-.2-.02-.3-.06-.13-.06-.25-.16-.33-.29-.04-.06-.02-.14,.04-.17,.06-.04,.14-.02,.17,.04,.06,.09,.13,.16,.22,.2,.19,.09,.44,.03,.66-.14,.05-.04,.13-.04,.18,.02,.04,.05,.04,.13-.02,.18-.19,.16-.41,.24-.62,.24Z"/><path class="i" d="M17.03,12.67s-.06-.01-.09-.03c-.05-.05-.05-.13,0-.18,.08-.08,.15-.18,.2-.28,.03-.06,.11-.09,.17-.05,.06,.03,.08,.11,.05,.17-.07,.13-.15,.24-.24,.34-.02,.03-.06,.04-.09,.04Z"/><path class="i" d="M17.33,12.17c-.11-.03-.14-.1-.12-.17,.16-.44,.04-.89-.26-1.03-.07-.03-.13-.04-.21-.04-.07,0-.13-.05-.13-.12,0-.07,.05-.13,.12-.13,.12,0,.22,.02,.32,.06,.43,.19,.6,.77,.39,1.34-.02,.05-.07,.08-.12,.08Z"/></g><path class="i" d="M16.22,12.35s-.07-.01-.09-.04c-.05-.05-.05-.13,0-.18l.76-.73s.13-.05,.18,0c.05,.05,.05,.13,0,.18l-.76,.73s-.06,.04-.09,.04Z"/><path class="i" d="M16.63,11.91c-.06,0-.12-.05-.12-.11l-.05-.36c0-.07,.04-.13,.11-.14,.07,0,.13,.04,.14,.11l.05,.36c0,.07-.04,.13-.11,.14h-.02Z"/></g><path class="g" d="M27.12,52.68l-1.38,8.29s-.17,.26-.44,.28c-.27,.02-.52-.16-.61-.46,.08-.48,.14-1.2-.05-2.02-.2-.87-.56-1.39-1.12-2.31-.39-.65-.92-1.61-1.49-2.85-1.32-2.91-3.01-6.15-5.21-9.56-.65-1-1.31-1.95-1.96-2.86-.03-.41,0-.82,.2-.93,.6-.3,1.83,2.2,3.32,2.12,.57-.03,1.26-.44,2.02-1.83,.3,.45,.58,.94,.84,1.47,1.29,2.7,.56,4,1.89,8.63,.13,.43,.25,.81,.36,1.15,1.04,.59,1.72,.6,2.17,.46,.28-.08,.76-.33,1.12-.1,.21,.12,.3,.35,.34,.5Z"/><path class="g" d="M49.72,66.02l-1.39,8.28s-.17,.27-.44,.29c-.26,.02-.51-.17-.6-.46,.08-.47,.14-1.2-.06-2.03-.2-.86-.56-1.38-1.11-2.31-.39-.64-.92-1.6-1.5-2.84-1.31-2.91-3.01-6.15-5.21-9.56-1.09-1.67-2.19-3.22-3.27-4.63,.07-.12,.21-.33,.46-.42,.88-.32,1.79,1.44,2.97,1.41,.46-.01,1.14-.29,1.97-1.75,.76,.86,1.64,1.96,2.31,3.36,1.3,2.71,.56,4.01,1.9,8.64,.12,.43,.24,.81,.36,1.15,1.03,.58,1.71,.59,2.16,.46,.28-.09,.77-.33,1.13-.11,.2,.13,.29,.35,.34,.51Z"/><path class="g" d="M18.01,16.4c.52,.25,1.31,.54,2.25,.48,.81-.05,1.15-.31,1.72-.19,1.05,.22,1.61,1.47,1.78,1.81,1.56,3.14,7.82,5.68,8.28,5.86,6.1,2.41,10.39-2.59,12.79-.31,3.67,3.49-3.74,14.18-.04,17.63,3.29,3.07,12.2-2.54,14.17,.33,1.15,1.67-1.04,4.77-.61,4.98,.55,.27,4.8-4.71,3.43-7.11-1.28-2.24-5.65-.12-8.01-2.66-2.44-2.63,.87-6.43-.9-10.62-1.09-2.58-3.6-4.11-15.48-7.68-4.38-1.32-10.16-2.95-17.05-4.61,0,.13-.04,1.01-.79,1.62-.65,.53-1.39,.48-1.54,.47Z"/><path class="i" d="M33.32,36.9c.11,.13,.21,.25,.32,.38l-7.6,3.24c-.46-.85-.91-1.7-1.37-2.55,.23-.69,.52-1.86,.35-3.3-.31-2.56-1.89-4.16-2.41-4.65,2.15-.2,4.31-.4,6.46-.6,.29,.08,3.22,.91,4.23,3.75,.6,1.69,.2,3.18,.02,3.74Z"/><path class="i" d="M25.82,61.35c-.19-.03-.32-.2-.29-.38l1.37-8.83c.03-.18,.2-.31,.38-.28,.19,.03,.32,.2,.29,.38l-1.37,8.83c-.03,.18-.2,.31-.38,.28Z"/><path class="i" d="M48.33,74.83c-.19-.03-.32-.2-.29-.38l1.37-8.83c.03-.18,.2-.31,.38-.28,.19,.03,.32,.2,.29,.38l-1.37,8.83c-.03,.18-.2,.31-.38,.28Z"/><path class="f" d="M27.64,38.29c-.92,0-1.85-.11-2.75-.34-.03,0-.04-.03-.04-.06,0-.03,.03-.04,.06-.04,1.61,.41,3.31,.45,4.91,.12,1.14-.23,2.23-.65,3.24-1.23,.02-.01,.05,0,.07,.02,.01,.02,0,.05-.02,.07-1.02,.59-2.12,1.01-3.27,1.24-.72,.15-1.47,.22-2.21,.22Z"/><path class="f" d="M23.04,30.19s-.05-.02-.05-.05c0-.03,.02-.05,.05-.05l4.66-.25s.05,.02,.05,.05c0,.03-.02,.05-.05,.05l-4.66,.25h0Z"/><path class="i" d="M17.67,37.63s-2.38-.74-2.38-.74c-.07-.02-.1-.09-.08-.16,.02-.07,.09-.1,.16-.08l2.34,.73c.07,.02,.1,.09,.08,.16-.02,.05-.07,.09-.12,.09Z"/><path class="i" d="M37.01,48.81c-.05,0-.1-.03-.12-.09-.02-.07,.01-.14,.08-.16l1.08-.36c.06-.02,.14,.01,.16,.08,.02,.07-.01,.14-.08,.16l-1.08,.36s-.03,0-.04,0Z"/><path class="i" d="M13.12,31.81c.83,.35,.79,2.09,.76,3.51-.03,1.27-.07,3.08-.78,3.29-.96,.29-3.47-2.32-2.84-4.58,.4-1.42,2.01-2.58,2.86-2.23Z"/><path class="i" d="M32.24,48.19c-.5,.8,.83,2.41,1.77,3.21,.46,.39,1.39,1.18,1.91,.89,.49-.28,.39-1.37,.2-2-.48-1.63-2.18-2.37-2.66-2.56-.86,.02-1.13,.31-1.23,.47Z"/><path class="k" d="M29.54,25.94c.33-.86,.66-1.73,.99-2.59-1.34-1.41-3.04-2.94-5.15-4.38-.86-.59-1.7-1.1-2.51-1.55-1.53-.71-2.92-.22-3.17,.45-.22,.6,.35,1.64,1.51,2.25,2.78,1.94,5.56,3.88,8.33,5.82Z"/><path class="k" d="M39.29,32.02l.64-.84c-1.43-1.96-3.6-4.36-6.76-6.37-.91-.58-1.8-1.06-2.64-1.46-.34,.86-.69,1.71-1.03,2.57,.63,.6,1.18,1.02,1.51,1.25,2.71,1.95,4.61,1.88,7.16,3.86,.53,.42,.93,.79,1.13,.99Z"/><path class="i" d="M39.33,30.39c.39,.01,1.01,.08,1.7,.35,.45,.18,1.79,.8,2.5,2.21,.38,.75,.63,1.88,.24,2.16-.15,.11-.42,.1-.57-.02-.32-.25,.05-.81-.19-1.37-.32-.75-1.53-1.07-1.72-.85-.09,.12,.04,.43,.24,.62,.37,.35,.89,.14,1.01,.39,.09,.17-.05,.52-.28,.64-.63,.33-1.96-1.13-2.65-1.88-.39-.43-.69-.81-.89-1.07,.2-.4,.4-.79,.61-1.19Z"/><path class="i" d="M30.26,24.15s-.04,0-.06-.01c-.06-.03-.09-.11-.06-.17l.27-.54c.03-.06,.11-.09,.17-.06,.06,.03,.09,.11,.06,.17l-.27,.54s-.07,.07-.11,.07Z"/><path class="i" d="M29.95,26.07c-.05,0-.1-.03-.12-.09l-.12-.4c-.02-.07,.02-.14,.08-.16,.07-.02,.14,.02,.16,.08l.12,.4c.02,.07-.02,.14-.08,.16-.01,0-.02,0-.04,0Z"/><path class="i" d="M11.14,12.98c-.09-.01-.13-.08-.12-.14l.08-.55c.01-.07,.07-.12,.14-.1,.07,.01,.12,.07,.1,.14l-.08,.55c0,.06-.06,.11-.12,.11Z"/><path class="f" d="M.46,1.51s-.04-.01-.05-.04c0-.03,0-.05,.03-.06l1.1-.31s.05,0,.06,.03c0,.03,0,.05-.03,.06L.47,1.5h-.01Z"/><path class="f" d="M2.37,2s-.74-.83-.74-.83c-.02-.02-.02-.05,0-.07,.02-.02,.05-.02,.07,0l.7,.81s.02,.05,0,.07c0,0-.02,.01-.03,.01Z"/><path class="e" d="M18.94,6.85c-.5-.11-1.97-.45-2.38,.15-.3,.45,.3,.93,.22,2.14-.06,.98-.48,1.02-.43,1.79,.06,1.09,.96,2.18,1.89,2.39,.09,.02,.34,.04,.84,.08,.39,.03,1.1,.14,1.35,.08,.37-.08,2.3-.5,2.7-1.92,.3-1.06-.42-2.03-.9-2.68-1.12-1.52-2.72-1.91-3.29-2.04Z"/><path class="e" d="M21.89,10.02c-.15-.25,1.66-2.35,3.76-2.23,1.49,.08,1.71,1.22,3.2,1.91,3.68,1.69,7.8-2.97,10.04-1.12,1.33,1.1,.77,2.91,2.3,3.57,1.11,.47,1.75-.33,3.35,.16,.46,.14,.77,.32,2.54,1.7,2.79,2.17,2.65,2.21,3.05,2.35,2.45,.84,4.76-1.7,5.4-1.02,.47,.5-.3,2.42-1.74,3.49-2.24,1.68-5.17,.84-5.43,.76-1.99-.62-1.88-1.68-3.87-2.26-2.27-.66-2.92,.58-4.68-.16-2.14-.89-2.38-3.31-3.92-3.13-.8,.09-1.03,.71-2.1,.82-1.02,.1-1.36-.42-2.64-.82-2.28-.71-2.92,.38-4.6-.46-.32-.16-1.71-.86-2.05-2.17-.2-.77,.09-1.29-.27-1.61-.63-.59-2.22,.46-2.34,.25Z"/></g></g></g></svg>