<?xml version="1.0" encoding="UTF-8"?><svg xmlns="http://www.w3.org/2000/svg" viewBox="0 0 77.44 83.1"><defs><style>.e{fill:#fff;}.f{fill:#210b04;}.g{fill:#f99055;}.h{fill:#fccc00;}.i{fill:#68e07e;}.j{fill:#0d3315;}.k{fill:#505088;}</style></defs><g id="a"/><g id="b"><g id="c"><g id="d"><path class="k" d="M77.44,51.32c-1.19,1.04-3.11,2.52-5.73,3.81-3.41,1.67-3.95,1.01-6,2.4-3.7,2.52-3.25,5.94-6.56,6.53-.94,.17-2.04,.09-3.48,.83-1.64,.85-2.43,2.11-2.84,2.62-1.18,1.47-4.08,2.7-11.73,1.42-5.14-17.34-10.29-34.69-15.43-52.03,1.69-.23,3.38-.46,5.07-.68l46.7,35.11Z"/><g><path class="h" d="M13.79,11.35l-2.39,2.26c1.56,1.88,2.95,3.39,4,4.5,4.58,4.81,6.3,5.53,7.62,5.24,.26-.06,.47-.14,.59-.21-.17-.94-.5-2.2-1.18-3.57-.84-1.69-1.88-2.89-2.64-3.63-2-1.53-4-3.06-6-4.6Z"/><path class="j" d="M5.24,3.05c-.51,.57-1.02,1.15-1.53,1.72,.91,1.2,1.59,2.23,2.05,2.96,1.71,2.72,2.2,4.23,3.89,5.22,.68,.4,1.32,.57,1.75,.66,.48,1.29,.9,1.92,1.26,1.89,.51-.05,.88-1.43,1.13-4.15-.68-.93-1.3-1.59-1.72-2-2.29-2.26-4.06-2.63-5.92-4.97-.44-.56-.75-1.05-.92-1.34Z"/><path class="j" d="M39.32,57.05c.04,.14,.08,.27,.14,.4,.98,1.99,2.65,2.87,3.45,2.52,.84-.37,1.34-2.38,.29-4.58,.06-2.95-.25-8.26-3.04-14.01-1.44-2.97-3.16-5.23-4.61-6.86l-3.63,7.83c2.3,4.8,3.77,7.32,4.71,8.74,.29,.44,1.17,1.74,1.93,3.66,.37,.92,.61,1.72,.76,2.3Z"/><path class="h" d="M47.77,75.2c.7-.23,1.41-.46,2.11-.68-.18-.52-.44-1.34-.71-2.35-1.4-5.18-.85-7.35-2.05-10.36-.5-1.25-1.44-2.98-3.39-4.79-.4-.02-1.02-.09-1.75-.3-1.43-.42-2.15-1.08-2.53-.81-.16,.11-.3,.42-.08,1.35,0,.15,.02,.37,.1,.62,.08,.25,.19,.43,.28,.56,.33,.43,.81,1.09,1.33,1.94,.86,1.41,1.33,2.57,1.57,3.06,2.04,4.12,3.72,8.07,5.11,11.77Z"/><path class="j" d="M25.54,36.81c.18,1.39,.4,2.7,.65,3.93,.42,.6,2.48,3.46,5.01,3.28,3.27-.23,5.94-5.42,5.33-8.77l-1.01-5.57c.21-.58,.4-1.18,.58-1.8,1.14-4.05,1.19-7.84,.87-10.93-.84-.24-2-.51-3.41-.66-.51-.05-2.2-.2-4.89,.11-1.77,.21-4.23,.64-7.11,1.65,.78,5.29,1.65,9.12,2.13,10.1,.2,.4,.42,.83,.42,.83,.33,.63,.67,1.23,1.01,1.79,.03,1.85,.16,3.88,.44,6.05Z"/><path class="h" d="M43.29,29.93l2.7-1.88c-1.27-2.09-2.42-3.79-3.3-5.04-3.83-5.43-5.42-6.39-6.77-6.3-.08,0-.29-.05-.44,.07-.23,.19-.16,.63-.13,.81,.07,.82,.24,1.83,.6,2.94,.58,1.77,1.42,3.11,2.08,3.98,1.76,1.81,3.51,3.62,5.27,5.42Z"/><path class="j" d="M50.54,39.4c.59-.49,1.17-.99,1.76-1.48-.72-1.32-1.24-2.44-1.59-3.23-1.29-2.94-1.55-4.51-3.09-5.74-.62-.49-1.22-.76-1.64-.91-.29-1.06-.6-1.6-.94-1.62-.52-.03-1.1,1.14-1.75,3.5,.53,1.02,1.06,1.77,1.41,2.23,1.93,2.57,3.63,3.2,5.13,5.78,.36,.62,.59,1.14,.71,1.46Z"/><path class="j" d="M25.82,13.36c0,.68,.02,1.37,.03,2.05,.01,1.09,.03,2.19,.04,3.28h4.84l-.9-6.86c-.66,.36-1.44,.72-2.35,1.04-.59,.21-1.16,.36-1.67,.48Z"/><path class="f" d="M25.82,13.36c0,.68,.02,1.37,.03,2.05,.91-.02,1.64-1.14,1.64-2.5-.56,.13-1.12,.29-1.67,.45Z"/><g><path class="g" d="M26.13,13.56c.79,.22,2.36,.49,4.59-.32,.13-.05,2.01-.76,2.45-2.74,.28-1.27-.17-2.44-.79-3.19-1.3-1.58-3.7-1.78-4.65-1.09-.16,.12-.28,.24-.38,.36-.77,1-1.12,1.44-1.15,1.46,0,0-.04,.03-.06,.08-.01,.03-.02,.06-.02,.08l-.09,.49c-.5,.95-.73,1.34-.82,1.44-.16,.22-.23,.31-.24,.42,0,.03,0,.06-.03,.08-.04,.03-.1,0-.14,.02-.06,.04-.02,.2-.02,.23,0,.03,.06,.26,.22,.3,.06,.02,.12,0,.12,0,0,0-.3-.03-.35,.07-.02,.04,0,.11,0,.12,.02,.05,.05,.07,.06,.09,.07,.12-.46,.62-.5,.91-.05,.43,.86,.93,1.78,1.19Z"/><path class="g" d="M24.76,9.52c-.08,.16,.03,.35,.07,.42,.11,.2,.28,.29,.35,.33,.06-.01,.18-.04,.24-.14,.05-.08,.03-.15,.06-.26,.02-.07,.07-.17,.2-.27l.43-1.01c-.2,.14-.36,.26-.47,.34-.37,.27-.37,.28-.47,.34-.25,.14-.35,.13-.4,.24Z"/></g><path class="f" d="M27.73,9.63c-.06,0-.11-.04-.12-.1-.02-.11-.09-.31-.27-.47-.29-.26-.65-.24-.75-.22-.03,0-.07,0-.1-.03-.03-.02-.04-.06-.04-.09v-.33c0-.07,.05-.13,.12-.13,.07,0,.12,.05,.13,.12v.2c.2,0,.54,.04,.82,.3,.23,.21,.32,.47,.35,.61,.01,.07-.03,.13-.1,.15,0,0-.02,0-.03,0Z"/><path class="f" d="M26.51,8.83c-.09,.18-.02,.39,.14,.47,.17,.08,.37,0,.46-.19,.09-.18,.02-.39-.14-.47-.17-.08-.37,0-.46,.19Z"/><path class="f" d="M28.44,8.86s-.13-.12-.27-.2c-.23-.13-.77-.3-1.49-.45-.01-.06-.03-.22,.04-.4,.07-.15,.17-.24,.22-.28,.43,.22,.75,.35,.99,.43,.09,.03,.35,.12,.61,.33,.12,.1,.17,.18,.19,.21,.14,.25,.05,.53,.02,.62-.07-.08-.18-.18-.31-.28Z"/><path class="f" d="M25.81,11.57s-.84-.28-.84-.28c-.07-.02-.1-.09-.08-.16,.02-.07,.09-.1,.16-.08l.8,.28c.07,.02,.1,.09,.08,.16-.02,.05-.07,.08-.12,.08Z"/><path class="f" d="M25.42,11.37s-.08-.02-.1-.05l-.47-.62c-.04-.06-.03-.13,.02-.18,.06-.04,.13-.03,.17,.02l.47,.62c.04,.06,.03,.13-.02,.18-.02,.02-.05,.03-.08,.03Z"/><path class="h" d="M36.2,77.98c1.88-2.27,3.76-4.54,5.64-6.81-.2-.28-.54-.64-1.08-.82-.2-.07-.36-.09-.45-.1-.44-.06-1.1-.24-2.05-.84-.39,.37-.77,.75-1.16,1.12,.09,1.18-.03,2.1-.15,2.72-.41,2.05-.61,3.08-.82,3.55-.05,.11-.21,.46-.1,.84,.04,.16,.12,.27,.17,.34Z"/><path class="j" d="M22,53.59c-.03,1.03-.09,3.38,.87,3.73,1.11,.41,2.95-2.14,3.23-2.53,1.98-1.71,8.12-15.43,8.13-17.34-2.3,.47-4.6,.94-6.9,1.41-4.44,7.03-5.25,11.92-5.32,14.73Z"/><path class="h" d="M37.25,71.16l1.4-1.44c-.34-.42-.88-1.09-1.48-1.95-3.3-4.67-3.28-7.28-5.54-9.65-1.01-1.05-2.73-2.33-5.79-2.98-3.07,.29-4.63,.69-4.67,1.21-.02,.32,.55,.69,1.71,1.1,1.69,1.36,3.41,2.82,5.15,4.39,3.49,3.16,6.56,6.3,9.23,9.32Z"/><g><g><path class="j" d="M50.53,42.1c.19,.42,.49,1.03,.93,1.72,.57,.89,1.39,1.95,1.54,1.86,.07-.04,0-.39-.71-1.85,.54,1.24,.87,1.84,.98,1.8,.16-.05-.06-1.29-.68-3.7,.33,.95,.58,1.69,.75,2.2,.14,.43,.34,1.03,.48,1.01,.06,0,.08-.11,.09-.16,.15-.59-.38-2.97-.49-3.42,.65,1.56,1.04,2.32,1.15,2.28,.13-.04-.07-1.03-.57-2.95-.59-1.05-1.19-2.1-1.78-3.15l-2.2,.5c.16,1.28,.33,2.57,.49,3.85Z"/><path class="j" d="M50.14,41.66c.25,.34,.42,.5,.54,.46,.16-.05,.18-.48,.08-1.28-.16-.78-.32-1.56-.48-2.34l-.24-.25c-.19,.39-.69,1.56-.23,2.78,.09,.24,.21,.45,.33,.63Z"/></g><path class="f" d="M52.81,45.09s-.09-.02-.11-.07l-.62-1.16c-.03-.06,0-.14,.05-.17,.06-.03,.14,0,.17,.05l.62,1.16c.03,.06,0,.14-.05,.17-.02,0-.04,.01-.06,.01Z"/><path class="f" d="M51.93,43.5c-.06,0-.11-.04-.12-.1l-.28-1.37c-.01-.07,.03-.13,.1-.15,.07-.01,.13,.03,.15,.1l.28,1.37c.01,.07-.03,.13-.1,.15h-.03Z"/><path class="f" d="M50.53,42.05c-.06,0-.11-.04-.12-.1l-.41-2.19c-.01-.07,.03-.13,.1-.15,.07-.01,.13,.03,.15,.1l.41,2.19c.01,.07-.03,.13-.1,.15h-.02Z"/></g><g><path class="j" d="M5.71,4.4c-.13-.58-.34-1.26-.68-2-.23-.51-.48-.96-.73-1.33C3.14,.54,.68-.47,.12,.25c-.33,.42,.11,1.28,.15,1.36,.37,.73,1.2,1.25,1.83,1.1,.19-.04,.39-.16,.38-.22-.02-.09-.46,.08-.77-.16-.48-.37-.33-1.02-.64-1.12-.22-.07-.6,.15-.7,.45-.27,.8,1.59,2.14,2.7,2.75,.64,.35,1.21,.57,1.61,.7,.34-.24,.69-.48,1.03-.72Z"/><path class="e" d="M.54,1.78s-.04-.01-.05-.04c0-.03,0-.05,.03-.06l1.3-.37s.05,0,.06,.03c0,.03,0,.05-.03,.06l-1.3,.37h-.01Z"/><path class="e" d="M2.82,2.36s-.87-.98-.87-.98c-.02-.02-.02-.05,0-.07,.02-.02,.05-.02,.07,0l.83,.97s.02,.05,0,.07c0,0-.02,.01-.03,.01Z"/></g><path class="h" d="M46.85,72.81c1.03,6.11,1.2,8.38,1.03,8.95-.03,.1-.2,.6,.04,.98,.13,.2,.33,.31,.49,.37,.38-.15,1.09-.49,1.72-1.23,.83-.98,.98-2.05,1.02-2.45-.69-2.56-1.39-5.13-2.08-7.69l-2.21,1.07Z"/><path class="h" d="M25.95,39.56c1.29,.01,2.94-.1,4.79-.54,2.78-.67,4.9-1.82,6.26-2.72-.05-.31-.11-.63-.16-.94-1.59,1.01-3.86,2.18-6.74,2.94-1.64,.43-3.14,.64-4.43,.73l.28,.53Z"/><path class="i" d="M43.14,55.64s-.84-.19-.84-.19c-.07-.02-.11-.08-.09-.15,.02-.07,.09-.11,.15-.09l.82,.18c.07,.02,.11,.08,.09,.15-.01,.06-.06,.1-.12,.1Z"/><path class="i" d="M41.05,56.37c-.08,0-.13-.07-.12-.13,.22-2.78,.06-5.58-.49-8.3-.78-3.91-2.32-7.59-4.56-10.94-.04-.06-.02-.13,.03-.17,.06-.04,.13-.02,.17,.03,2.26,3.38,3.81,7.1,4.6,11.03,.55,2.75,.71,5.56,.49,8.37,0,.07-.06,.12-.12,.12Z"/><path class="i" d="M22.68,55.7c-.07,0-.12-.06-.12-.12,0-.7,.05-1.42,.15-2.13,.36-2.39,1.29-4.04,2.2-5.63,.91-1.59,1.85-3.24,2.17-5.62,.13-.97,.21-1.94,.22-2.91,0-.07,.06-.12,.12-.12,.07,0,.13,.06,.12,.13-.02,.97-.09,1.96-.23,2.94-.33,2.43-1.28,4.1-2.2,5.71-.9,1.57-1.82,3.2-2.17,5.55-.1,.7-.15,1.4-.15,2.09,0,.07-.06,.12-.12,.13h0Z"/><path class="i" d="M28.8,20.87s-.03,0-.05-.01c-.06-.03-.09-.1-.07-.16l1.94-4.53c.03-.06,.1-.09,.16-.07,.06,.03,.09,.1,.07,.16l-1.94,4.53s-.07,.08-.12,.08Z"/><path class="i" d="M27.14,20.57s-.1-.03-.12-.08l-1.47-3.55c-.03-.06,0-.14,.07-.16,.06-.03,.14,0,.16,.07l1.47,3.55c.03,.06,0,.14-.07,.16-.02,0-.03,0-.05,0Z"/><path class="i" d="M35.71,36.21s-.06-.01-.09-.04c-1.15-1.15-2.18-2.41-3.07-3.76-1.85-2.79-3.12-5.92-3.75-9.31-.01-.07,.03-.13,.1-.15,.07-.01,.13,.03,.15,.1,.63,3.35,1.87,6.45,3.71,9.21,.88,1.33,1.91,2.58,3.04,3.72,.05,.05,.05,.13,0,.18-.02,.02-.06,.04-.09,.04Z"/><path class="i" d="M27.16,38.91c-.06,0-.11-.04-.12-.1-.48-2.24-.75-4.54-.82-6.82-.09-3.02,.18-6.05,.8-9.02,.01-.07,.08-.11,.15-.1,.07,.01,.11,.08,.1,.15-.62,2.95-.88,5.96-.79,8.96,.07,2.26,.34,4.54,.81,6.77,.01,.07-.03,.13-.1,.15,0,0-.02,0-.03,0Z"/><path class="i" d="M25.91,21.82c0,1.22,.99,2.22,2.22,2.22s2.22-.99,2.22-2.22-.99-2.22-2.22-2.22-2.22,.99-2.22,2.22Z"/><path class="f" d="M30.15,12.17c.88-2.35,.89-3.14,.61-3.31-.29-.18-.78,.43-1.25,.22-.54-.24-.17-1.17-.75-2.25-.63-1.18-1.79-1.34-1.67-1.96,.07-.38,.53-.73,.94-.74,.63,0,1.09,.8,1.33,.65,.13-.08,.02-.32,.16-.43,.22-.17,.75,.19,1.14,.45,1.75,1.14,1.54,.84,2,1.27,.16,.14,1.97,1.82,1.53,2.82-.2,.45-.68,.39-.82,.88-.17,.62,.49,1.11,.24,1.51-.16,.26-.48,.12-.82,.47-.26,.28-.14,.45-.37,.78-.26,.37-.66,.5-1.27,.69-.26,.08-.64,.18-1.11,.23l.09-1.29Z"/><path class="f" d="M49.88,75.32c-.06,0-.12-.04-.12-.11l-.13-.88c0-.07,.04-.13,.11-.14,.07-.01,.13,.04,.14,.11l.13,.88c0,.07-.04,.13-.11,.14h-.02Z"/><path class="f" d="M38.37,70.13c-.06,0-.11-.04-.12-.09l-.05-.22c-.02-.07,.02-.14,.09-.15,.06-.02,.13,.02,.15,.09l.05,.22c.02,.07-.02,.14-.09,.15,0,0-.02,0-.03,0Z"/><path class="f" d="M42.73,59.86c-.07,0-.12-.06-.12-.12v-2.17c0-.07,.06-.12,.12-.12s.12,.06,.12,.12v2.17c0,.07-.06,.12-.12,.12Z"/><path class="f" d="M41.15,59.46s-.05,0-.08-.02l-.9-.67c-.05-.04-.07-.12-.03-.17,.04-.06,.12-.07,.18-.03l.9,.67c.05,.04,.07,.12,.03,.17-.03,.03-.06,.05-.1,.05Z"/><path class="f" d="M25.06,57.49l-2.19-.04c-.07,0-.12-.06-.12-.13,0-.07,.06-.12,.12-.12l2.19,.04c.07,0,.12,.06,.12,.13,0,.07-.06,.12-.12,.12Z"/><path class="f" d="M46.36,71.74c-.05,0-.1-.03-.12-.08-.02-.06,0-.14,.07-.16l2.44-.92c.07-.03,.14,0,.16,.07,.02,.06,0,.14-.07,.16l-2.44,.92s-.03,0-.04,0Z"/><path class="f" d="M46.85,72.45s-.1-.03-.12-.08c-.03-.06,0-.14,.07-.16l2.15-.83c.06-.02,.14,0,.16,.07,.03,.06,0,.14-.07,.16l-2.15,.83s-.03,0-.04,0Z"/><path class="f" d="M47.22,73.21c-.05,0-.1-.04-.12-.09-.02-.07,.02-.14,.09-.15l2.04-.57c.07-.02,.14,.02,.15,.09,.02,.07-.02,.14-.09,.15l-2.04,.57s-.02,0-.03,0Z"/><path class="f" d="M37.01,70.68s-.05,0-.08-.03c-.05-.04-.07-.12-.02-.18l1.09-1.42c.04-.06,.12-.07,.17-.02,.05,.04,.07,.12,.02,.18l-1.09,1.42s-.06,.05-.1,.05Z"/><path class="f" d="M36.45,70.12s-.05,0-.07-.02c-.06-.04-.07-.12-.03-.17l1.03-1.52c.04-.06,.12-.07,.17-.03,.06,.04,.07,.12,.03,.17l-1.03,1.52s-.06,.05-.1,.05Z"/><path class="f" d="M35.68,69.54s-.06-.01-.08-.03c-.05-.05-.05-.12,0-.18l1.49-1.66c.05-.05,.12-.05,.18,0,.05,.05,.05,.12,0,.18l-1.49,1.66s-.06,.04-.09,.04Z"/></g></g></g></g></svg>