<?xml version="1.0" encoding="UTF-8"?><svg xmlns="http://www.w3.org/2000/svg" viewBox="0 0 54.13 53.57"><defs><style>.e{fill:#ffb8ce;}.f{fill:#ea445c;}.g{fill:#f99055;}.h{fill:#fccc00;}.i{fill:#240100;}.j{fill:#68e07e;}.k{fill:#0d3315;}.l{fill:#505088;}</style></defs><g id="a"/><g id="b"><g id="c"><g id="d"><path class="l" d="M17.96,48.13c-2.58-1.33-5.32-2.65-8.21-3.96-3.28-1.47-6.45-2.78-9.49-3.93-.66-3.44,.06-5.14,.9-6.06,1.51-1.64,3.32-.67,5.65-2.45,2.44-1.87,1.53-3.87,3.85-5.24,2.37-1.4,3.84,.05,6.22-1.23,2.37-1.28,2.45-3.56,3.97-5.81,1.49-2.19,4.5-4.58,11.2-5.43,1.29,0,2.58,0,3.87,0-6.18,4.46-8.37,8.85-9.19,12.11-1.45,5.72,.6,10.62-2.64,13.28-2.29,1.88-5.15,.92-6.46,3.11-1.03,1.71-.33,4.01,.35,5.59Z"/><g><path class="j" d="M43.64,20.4c.3-.77,.6-1.55,.89-2.32-1.71-1.53-3.36-2.26-4.42-2.63-1.03-.36-3.03-1.03-3.63-.25-.53,.69,.33,2.16,.52,2.47,2.21,.91,4.42,1.82,6.63,2.72Z"/><path class="h" d="M36.41,17.83c-1.06-1.45-1.59-2.18-1.63-2.81-.07-1.25,.75-2.51,1.28-2.47,.52,.04,.75,1.37,1.27,1.33,.26-.02,.34-.36,.66-.36,.32,0,.56,.34,.62,.42,.31,.44,.08,.85,.03,2.2-.01,.26-.06,1.29-.39,2.55-.11,.41-.15,.61-.3,.67-.21,.07-.54-.14-1.54-1.52Z"/><path class="f" d="M39.27,28.54c-1.08,.17-2.35,.29-3.76,.28-2.08,0-3.86-.28-5.28-.61-.31-2.93-.64-5.86-.97-8.79-.68-.64-1.38-1.29-2.06-1.93,.23-.36,1.4-2.04,3.58-3.09,.3-.16,.63-.28,.98-.41,.4-.14,.84-.24,1.3-.33,.94-.16,1.79-.04,2.54,.24,.25,.08,.49,.2,.71,.33,1.79,.98,2.75,2.78,2.49,3.23,.16,3.68,.3,7.38,.46,11.06Z"/><path class="k" d="M28.14,53.57l-3.02-4.73c.08-.22,.23-.52,.52-.74,.33-.25,.69-.27,.9-.3,.46-.06,1.11-.25,1.91-.85,.35,.39,.7,.77,1.05,1.16-.53,1.34-.58,2.4-.5,3.15,.08,.79,.32,1.66-.13,2.08-.21,.2-.51,.23-.73,.22Z"/><path class="f" d="M29.62,37c.04,.17,.09,.33,.13,.48,.25,.05,.5,.1,.75,.15,.65,.13,.7,.14,.75,.15,.34,.08,.83,.27,1.43,.77,.19-.36,.37-.73,.54-1.12,1.68-3.71,2.21-7.38,2.22-10.58-1.49-.57-2.96-1.13-4.45-1.69-.49,.92-.98,2.03-1.35,3.31-.97,3.49-.53,6.57-.03,8.52Z"/><path class="k" d="M27.95,40.84c-.51,1.11,.34,3.12,.11,5.68-.05,.57-.15,1.02-.21,1.27,.55,.11,1.1,.23,1.65,.34,.61-1.37,1.22-2.9,1.79-4.57,.64-1.89,1.12-3.67,1.48-5.29-.15-.19-.38-.43-.71-.62-.05-.04-.1-.07-.16-.1-.85-.52-1.89,.08-2.16-.32-.02-.03-.05-.09-.06-.18-.2,.33-.34,.61-.43,.8-.17,.38-.22,.53-.52,1.34-.31,.84-.59,1.25-.78,1.66Z"/><path class="f" d="M44.02,26.38c.13-.12,.24-.24,.35-.36-.08-.24-.17-.48-.25-.72-.23-.67-.24-.7-.25-.72-.12-.35-.26-.9-.35-1.77-.31,.07-.63,.15-.94,.24-3.89,1.03-7.35,2.56-10.39,4.35,.18,.41,.37,.88,.52,1.42,.25,.89,.36,1.69,.39,2.35,1.04-.04,2.25-.17,3.54-.51,3.5-.92,5.94-2.86,7.38-4.27Z"/><path class="k" d="M42.56,39.94l-4.93-2.68c-.04-.23-.05-.57,.1-.9,.17-.38,.47-.57,.64-.69,.37-.27,.85-.75,1.26-1.66l1.47,.31c.15,1.55,.65,2.56,1.09,3.2,.44,.63,1.09,1.28,.89,1.88-.09,.27-.33,.44-.54,.55Z"/><path class="k" d="M40.14,26.61c-.7,1.11-.67,2.64-.6,5.65,.02,.91,.07,1.64,.1,2.09l1.34,.44c.71-1.67,1.42-3.36,2.13-5.07,.68-1.65,1.35-3.29,2-4.91,.01-.14,.02-.35-.02-.59-.02-.13-.22-1.18-1.02-1.48-.09-.03-.46-.16-.8-.02-.35,.14-.47,.45-.91,.53-.09,.02-.16,.02-.21,.02-.12,.18-.23,.36-.34,.54-.36,.57-.54,.98-.69,1.26-.41,.79-.74,1.16-.98,1.55Z"/><path class="j" d="M35.77,14.71c-1.34,.14-2.69,.28-4.04,.43,.02-.38,.02-.76,.04-1.13v-.08c.01-.21,.01-.42,.02-.63,.01-.5,.03-1.01,.05-1.5v-.16c.04-.79,.06-1.59,.09-2.37l1.39-.06,.87-.03,.41-.02,.58-.03c-.01,.77,.03,1.59,.12,2.46,.03,.27,.06,.54,.09,.8,.05,.43,.1,.86,.18,1.26,.01,.1,.03,.2,.04,.29,.05,.27,.1,.54,.16,.79Z"/><path class="i" d="M35.18,9.12c-.01,.76,.03,1.59,.11,2.45,.03,.27,.06,.54,.09,.8-.08,.03-.17,.05-.26,.06-.79,.1-1.54-.58-1.66-1.53-.1-.74,.21-1.42,.72-1.73l.41-.02,.58-.03Z"/><g><path class="g" d="M29.14,7.82c.26,.45,.52,.9,.79,1.35,.41,.47,1.17,1.2,2.34,1.62,.21,.07,3.52,1.2,5-.78,.85-1.14,.8-2.9-.12-4.39-.11-.18-.09-.12-.39-.64-1.06-1.77-1.06-2.21-1.5-2.7-.98-1.1-2.82-.95-3.05-.93-1.88,.18-3.5,1.69-3.81,3.33-.29,1.56,.53,2.81,.75,3.13Z"/><path class="i" d="M35.26,7.49c.09-.13,.21-.21,.33-.28,.13-.06,.26-.11,.42-.1-.09,.13-.21,.21-.33,.28-.13,.06-.26,.11-.42,.1Z"/><path class="i" d="M35.77,5.48c.11,.23,.37,.34,.57,.24,.21-.1,.28-.37,.17-.61-.11-.23-.37-.34-.57-.24s-.28,.37-.17,.61Z"/><path class="i" d="M35.31,6.24c-.06,0-.12-.05-.12-.11-.06-.5,.13-.96,.5-1.19,.18-.11,.36-.15,.51-.16v-.31c0-.07,.05-.13,.12-.13,.07,0,.13,.05,.13,.12v.43s0,.07-.03,.09c-.03,.02-.06,.03-.09,.04-.14,0-.32,0-.5,.12-.28,.18-.43,.56-.39,.95,0,.07-.04,.13-.11,.14h-.01Z"/><path class="i" d="M32.72,7.38c.11,.23,.37,.34,.57,.24s.28-.37,.17-.61c-.11-.23-.37-.34-.57-.24-.21,.1-.28,.37-.17,.61Z"/><path class="i" d="M32.33,8.09c-.06,0-.12-.05-.12-.11-.06-.5,.13-.96,.5-1.19,.18-.12,.36-.16,.51-.16v-.31c0-.07,.05-.13,.12-.13,.07,0,.13,.05,.13,.12v.43s0,.07-.03,.09c-.02,.02-.06,.04-.09,.04-.14,0-.32,0-.5,.12-.28,.18-.44,.56-.39,.95,0,.07-.04,.13-.11,.14h-.02Z"/><path class="i" d="M35.21,9.14c-.05,0-.1-.04-.12-.09-.02-.07,.02-.14,.08-.16,.23-.07,.45-.16,.66-.28,.31-.18,.58-.42,.8-.71,.04-.05,.12-.06,.18-.02,.05,.04,.06,.12,.02,.18-.25,.31-.54,.57-.87,.77-.22,.13-.46,.24-.71,.31-.01,0-.02,0-.04,0Z"/><path class="i" d="M36.07,9.24s-.08-.02-.1-.05c-.04-.06-.03-.13,.03-.17l.45-.32c.05-.04,.13-.03,.17,.03,.04,.06,.03,.13-.03,.17l-.45,.32s-.05,.02-.07,.02Z"/><path class="e" d="M36.34,3.76c0,.09-.21,.11-.86,.39-.72,.31-.91,.48-.98,.41-.1-.11,.16-.72,.68-.95,.51-.23,1.15,0,1.16,.14Z"/><path class="e" d="M33.24,5.06c.03,.08-.18,.17-.73,.6-.61,.49-.75,.7-.84,.65-.13-.08-.03-.74,.41-1.09,.44-.35,1.11-.3,1.15-.17Z"/><g><path class="g" d="M29.65,9.44c.44,.55,1.13,.74,1.53,.41s.38-1.04-.06-1.59c-.44-.55-1.13-.74-1.53-.41-.41,.32-.38,1.04,.06,1.59Z"/><g><path class="i" d="M30.7,10.14c-.17,0-.35-.04-.53-.12-.06-.03-.09-.1-.06-.17s.1-.09,.17-.06c.31,.14,.63,.13,.83-.03,.1-.08,.16-.18,.2-.31,.02-.07,.09-.1,.16-.08,.07,.02,.1,.09,.08,.16-.05,.17-.15,.32-.29,.43-.16,.12-.35,.19-.56,.19Z"/><path class="i" d="M30.07,9.94s-.04,0-.07-.02c-.14-.08-.27-.19-.38-.32-.05-.05-.04-.13,0-.18,.05-.05,.13-.04,.18,0,.1,.11,.21,.2,.32,.27,.06,.04,.08,.11,.04,.17-.02,.04-.06,.06-.11,.06Z"/><path class="i" d="M29.57,9.45s-.08-.02-.1-.05c-.4-.59-.38-1.3,.05-1.64,.1-.08,.22-.13,.35-.16,.07-.01,.13,.03,.15,.09,.01,.07-.03,.13-.09,.15-.09,.02-.17,.06-.24,.12-.33,.26-.32,.82,0,1.31,.04,.06,.02,.13-.03,.17-.02,.01-.05,.02-.07,.02Z"/></g><path class="i" d="M30.92,9.33s-.04,0-.06-.02l-1.1-.62c-.06-.03-.08-.11-.05-.17,.03-.06,.11-.08,.17-.05l1.1,.62c.06,.03,.08,.11,.05,.17-.02,.04-.06,.06-.11,.06Z"/><path class="i" d="M30.31,8.94c-.06,0-.12-.05-.12-.11l-.05-.43c0-.07,.04-.13,.11-.14,.08-.01,.13,.04,.14,.11l.05,.43c0,.07-.04,.13-.11,.14h-.02Z"/></g></g><path class="h" d="M30.08,18.45c.14-1.79,.22-2.69-.09-3.25-.59-1.1-1.96-1.74-2.38-1.43-.42,.31,.08,1.56-.39,1.8-.23,.12-.48-.13-.75,.04-.28,.17-.3,.59-.31,.68-.04,.54,.38,.77,1.13,1.89,.14,.22,.73,1.07,1.67,1.97,.3,.29,.45,.45,.61,.41,.21-.05,.38-.4,.52-2.1Z"/><path class="k" d="M25.9,31.64c-.04,.08-.17,.08-.23,.07-.05,0-.19-.02-.47-.3-.11-.1-.25-.26-.4-.49-.15-.12-.25-.12-.31-.09-.07,.04-.27,.22-.18,2.04,0,0,.03,.58,.04,1.14,.02,.07,.2,.94-.05,1.05-.03,.01-.07,.02-.12,0-.15-.19-.19-.42-.22-.7-.03-.28-.03-.62-.1-1.03-.03-.19-.09-.48-.2-.82-.03,0-.09,0-.14,.03-.21,.15-.11,.7-.16,1.6-.02,.39-.07,1.22-.27,1.25-.07,.01-.14-.07-.16-.11-.29-.32-.15-.85-.07-1.37,.05-.37,.1-.9,.07-1.57-.11,.44-.22,.89-.33,1.35-.09,.38-.17,.76-.24,1.13-.11,.02-.17,0-.2-.02-.15-.09-.2-.38-.07-.71,.12-.68,.24-1.36,.36-2.04-.1-.05-.19-.1-.28-.15-.21,.47-.33,.89-.42,1.19-.08,.3-.16,.61-.28,.62-.09,0-.15-.17-.15-.18-.08-.19-.05-.42,.05-.74,.27-.68,.46-1.17,.49-1.28,.03-.1,.06-.2,.06-.2,0-.02,.01-.05,.02-.09,0-.02,.02-.1,.03-.2,.01-.12,0-.16,.01-.27,0,0,0-.11,.04-.28,.23-1.36,1.85-1.82,1.82-1.55,.3,.39,1.37,1.46,1.37,1.46,.67,.68,.77,1.18,.73,1.27Z"/><path class="j" d="M25.27,24.42c-.66-.5-1.32-1.01-1.98-1.51,.66-2.2,1.68-3.68,2.39-4.55,.69-.84,2.04-2.46,2.96-2.11,.81,.32,.85,2.02,.85,2.37-1.41,1.93-2.82,3.86-4.22,5.8Z"/><path class="k" d="M23.76,30.22l-1.34,.15c-.32-.89-.68-2.3-.46-3.99,.16-1.17,.55-2.11,.91-2.79-.07-.19-.03-.39,.09-.53,.12-.13,.28-.15,.33-.15,.65,.47,1.3,.95,1.96,1.42-.5,1.96-.99,3.93-1.49,5.89Z"/><path class="k" d="M49.31,13.02c.09-.02,.16,.08,.2,.14,.02,.04,.1,.16,.06,.56-.01,.15-.05,.36-.13,.61,0,.19,.07,.27,.12,.3,.07,.04,.34,.08,1.71-1.13,0,0,.43-.38,.87-.74,.05-.06,.61-.74,.86-.61,.03,.01,.06,.04,.08,.09-.06,.23-.21,.41-.41,.61s-.46,.41-.74,.72c-.13,.15-.32,.37-.52,.67,.02,.03,.05,.07,.11,.09,.25,.07,.61-.35,1.36-.87,.31-.23,.99-.7,1.15-.57,.05,.04,.03,.15,.02,.19-.07,.43-.57,.64-1.02,.91-.32,.19-.77,.48-1.27,.93,.41-.18,.83-.38,1.26-.58,.35-.17,.7-.34,1.03-.51,.09,.07,.1,.14,.11,.18,.02,.18-.17,.39-.51,.49-.6,.33-1.21,.66-1.81,.99,.02,.11,.04,.21,.05,.32,.5-.13,.9-.29,1.19-.41,.29-.12,.58-.26,.66-.17,.05,.07-.04,.22-.05,.23-.1,.19-.3,.3-.61,.43-.7,.21-1.2,.37-1.31,.41-.1,.04-.2,.08-.2,.08-.02,0-.05,.02-.08,.04-.02,.01-.09,.05-.18,.1-.1,.06-.12,.09-.22,.16,0,0-.09,.06-.24,.15-1.2,.66-2.58-.31-2.35-.45,.12-.48,.29-1.98,.29-1.98,.11-.95,.44-1.34,.54-1.37Z"/><path class="k" d="M49.53,15.58c.32,.32,.63,.64,.95,.96-.49,.81-1.38,1.97-2.83,2.84-1.01,.61-1.99,.89-2.75,1.02-.08,.08-.24,.2-.47,.26-.48,.11-.86-.19-.92-.23,.26-.85,.53-1.7,.79-2.55,1.74-.77,3.48-1.53,5.23-2.3Z"/><path class="j" d="M39.09,24.14c-.93,2.25-1.86,4.5-2.8,6.75-.46,.13-.92,.27-1.38,.4-.04-.35-.28-1.98-1.75-3.16-1.27-1.02-2.65-1.06-3.05-1.05,.69-.18,2.79-.8,3.43-2.52,.34-.92,.02-1.76-.03-2.37-.28-3.41-1.61-6.07-2.73-7.78,.3-.16,.63-.28,.98-.41v-.08c.01-.21,.01-.42,.02-.63l3.78,.34c.01,.1,.03,.2,.04,.29,.25,.08,.49,.2,.71,.33,1.03,1.67,1.38,3.1,1.5,4.14,.33,2.71-.62,5.04,.37,5.66,.3,.19,.65,.15,.9,.09Z"/><path class="h" d="M33.32,38.93c-.4,1.1-1.18,1.83-1.73,1.63-.55-.2-.68-1.26-.28-2.36,.4-1.1,1.18-1.83,1.73-1.63,.55,.2,.68,1.26,.28,2.36Z"/><path class="h" d="M45.08,23.76c.3,1.13,.22,2.14-.19,2.25-.41,.11-.98-.72-1.28-1.85-.3-1.13-.22-2.14,.19-2.25,.41-.11,.98,.72,1.28,1.85Z"/><path class="i" d="M32.77,36.67c-.09-.01-.13-.08-.12-.14,.15-.99,.26-2,.34-2.99,.14-1.79,.16-3.6,.06-5.39,0-.07,.05-.13,.12-.13,.07,0,.13,.05,.13,.12,.1,1.8,.08,3.62-.06,5.43-.08,1-.19,2.01-.34,3.01,0,.06-.06,.11-.12,.11Z"/><path class="i" d="M38.2,27c-.05,0-.1-.03-.12-.08-.02-.07,0-.14,.07-.16l2.95-1.1c.07-.02,.14,0,.16,.07,.02,.07,0,.14-.07,.16l-2.95,1.1s-.03,0-.04,0Z"/><path class="i" d="M36.29,18.71s-.05,0-.08-.03l-5.25-4.16c-.05-.04-.06-.12-.02-.17,.04-.05,.12-.06,.17-.02l5.25,4.16c.05,.04,.06,.12,.02,.17-.02,.03-.06,.05-.1,.05Z"/><path class="i" d="M36.29,18.71c-.07,0-.13-.06-.12-.13l.11-4.2c0-.07,.06-.12,.12-.12,.07,0,.13,.06,.12,.13l-.11,4.2c0,.07-.06,.12-.12,.12Z"/><path class="h" d="M37.84,19.19c0,1.06-.68,1.91-1.52,1.91s-1.52-.86-1.52-1.91,.68-1.91,1.52-1.91,1.52,.86,1.52,1.91Z"/></g><path class="e" d="M35.71,2.74c-.56,.39-1.72-.95-2.4-.54-.52,.31-.09,1.25-.74,1.74-.5,.38-1.08,.05-1.59,.53-.28,.26-.36,.59-.41,.78-.45,1.8,1.83,3.86,1.23,5.02-.52,1-2.61,.23-3.59,1.67-.47,.69-.23,1.2-.69,1.47-.81,.47-1.71-1.01-3.47-1.14-1.53-.12-3.16,.81-4.04,1.92-.95,1.2-.68,2.16-1.67,2.66-.75,.37-1.85,.3-2.29-.25-.44-.55-.02-1.33-.49-1.67-.29-.22-.62-.04-1.16,0-1.19,.1-2.6-.5-2.68-1.06-.11-.75,2.26-.86,3.35-2.74,.98-1.68-.22-2.79,.61-3.88,1.59-2.09,7.28,.32,8.29-1.59,.27-.51,.23-1.14,.83-2.54,.12-.29,.31-.61,.6-.97C26.82,.35,29.06,.07,29.59,.03c.04,0,.07,0,.09,0,1.23-.09,2.16,.15,2.8,.31,2.55,.63,2.97,.46,3.28,.98,.28,.48,.27,1.21-.05,1.43Z"/><path class="f" d="M32.89,8.51c-.24,0-.47-.03-.69-.1-.59-.17-1.53-.75-1.52-1.54,0-.5,.41-1.01,1.08-1.38,.66-.36,1.57-.56,2.12-.21,.13,.08,.24,.19,.33,.29,.14,.15,.23,.24,.36,.25,.11,0,.24-.04,.37-.13,.07-.41,.22-.78,.45-1.1,.44-.61,1.39-1.31,2.14-.97,.43,.2,.59,.67,.67,.89,.16,.48,.19,1.24-.27,1.8-.59,.72-1.75,.83-2.67,.27l-.19,.06c0,.27-.05,.52-.16,.75-.35,.74-1.21,1.1-2.02,1.1Zm.27-2.9c-.34,0-.77,.12-1.16,.33-.5,.28-.82,.64-.82,.95,0,.42,.6,.88,1.16,1.05,.74,.21,1.78-.04,2.12-.74,.1-.2,.13-.43,.1-.69l-.02-.17c-.35-.03-.55-.24-.7-.41-.08-.08-.15-.16-.22-.21-.11-.07-.27-.1-.45-.1Zm2.17,.44l.1,.07c.81,.54,1.72,.37,2.11-.11,.31-.38,.31-.94,.18-1.33-.06-.18-.16-.49-.4-.6-.42-.19-1.14,.27-1.52,.81-.2,.28-.33,.6-.37,.97v.1l-.09,.06s-.04,.03-.06,.04l.06-.02Z"/></g></g></g></svg>