<?xml version="1.0" encoding="UTF-8"?><svg xmlns="http://www.w3.org/2000/svg" viewBox="0 0 44.72 75.52"><defs><style>.e{fill:#ea445c;}.f{fill:#4fb266;}.g{fill:#210b04;}.h{fill:#f99055;}.i{fill:#fccc00;}.j{fill:#ef4d4d;}</style></defs><g id="a"/><g id="b"><g id="c"><g id="d"><path class="f" d="M41.93,65.06c-9.53,3.02-12.57,2.54-13.36,1.27-.33-.53-.08-.91-.4-1.63-1.38-3.05-8.68-2.53-10.72-2.39-2.99,.21-7.77,.97-13.35,3.81C.41,63.6-.1,61.83,.02,60.73c.33-3.05,5.88-3.77,6.05-6.94,.11-2-2.05-2.58-2.45-5.47-.33-2.39,.81-4.35,1.39-5.39,2.31-4.15,7.61-15.13,14.85-30.21l5-.15c7.55,5.96,9.29,11,9.49,14.51,.25,4.36-1.86,7.03,0,10.87,1.96,4.05,6.37,5.33,5.88,7.43-.4,1.73-3.58,1.66-3.76,3.1-.26,2.09,6.72,2.81,7.97,7.01,1.03,3.48-.83,7.11-2.49,9.57Z"/><path class="f" d="M23.68,3.16c.04-.41,.02-.97-.25-1.51C22.61,.05,20.06-.44,18.78,.41c-.13,.09-.23,.18-.32,.28-.82,.99-.52,1.83-.99,2.61-.69,1.14-2.19,.41-2.97,1.52-.72,1.04,.21,2.22-.49,2.91-.81,.8-2.62-.45-3.08,.19-.34,.48,.25,1.76,1.05,2.03,.29,.1,.37-.02,.71,.08,.78,.22,.82,.93,1.34,1.16,1.04,.46,2.58-1.71,3.26-1.23,.38,.26,.08,.88,.47,1.48,.59,.91,2.14,.86,3,.84,2.13-.05,3.14-.96,4.39-.59,.17,.05,.51,.17,.9,.06,.58-.16,.64-.67,1.04-.71,.58-.07,.81,.95,1.48,1.01,.62,.06,.71-1.13,1.71-1.41,.43-.12,.51,.06,.98-.06,.84-.21,1.65-1.05,1.51-1.52-.21-.71-2.4-.07-2.91-1.03-.55-1.04,1.25-2.8,.68-3.46-.34-.39-1.15,.04-1.44-.35-.42-.57,.95-1.81,.68-2.4-.26-.57-2.06-.59-7.49,.9l1.39,.46Z"/><path class="e" d="M29.61,36.64c-.44,.18-.92,.36-1.43,.52-.91,.31-1.94,.57-3.09,.76-.99,.16-1.9,.24-2.72,.26-.03-.36-.12-.45-.18-.27-.02,.06-.04,.15-.05,.27-.82-.02-1.74-.1-2.72-.26-1.01-.17-1.93-.4-2.75-.65-.65-.2-1.25-.42-1.77-.63,.13-1.37,.51-3.51,1.82-5.77,.16-.28,.33-.54,.49-.79,.48-.7,.98-1.29,1.43-1.77-.41-2.09-.8-4.18-1.21-6.26-.77-.39-1.3-1.16-1.3-2.06,0-.58,.23-1.13,.6-1.53-.1-.55-.21-1.1-.32-1.65,.31-.36,.75-.78,1.39-1.09,2-1,4.09-.04,4.42,.13,.37-.17,2.45-1.13,4.45-.13,.63,.31,1.08,.73,1.38,1.09-.1,.55-.21,1.1-.32,1.65,.38,.41,.6,.95,.6,1.53,0,.9-.52,1.67-1.3,2.06-.4,2.09-.8,4.18-1.2,6.26,.54,.57,1.14,1.31,1.7,2.21,.07,.11,.15,.24,.22,.36,1.31,2.26,1.7,4.4,1.83,5.77Z"/><path class="e" d="M31.43,27.18c.74-.55,1.48-1.11,2.23-1.66-.38-1.91-1-4.11-2.01-6.46-.41-.96-.85-1.84-1.29-2.65-.71-.32-1.51-.26-2.1,.17-.57,.42-.72,1.04-.75,1.22,1.31,3.13,2.62,6.25,3.93,9.38Z"/><path class="e" d="M13.31,26.93c-.72-.58-1.44-1.16-2.17-1.74,.45-1.89,1.15-4.07,2.24-6.38,.45-.94,.91-1.81,1.39-2.6,.72-.3,1.52-.21,2.09,.25,.56,.44,.68,1.07,.71,1.25-1.42,3.08-2.84,6.15-4.26,9.23Z"/><path class="i" d="M30.57,16.81c-5.41-.03-10.81-.06-16.22-.1,.11-.55,.35-1.29,.95-1.87,1.21-1.17,2.72-.59,3.94-1.51,.65-.48,1.33-1.46,1.42-3.61,.08,0,.16-.01,.25-.02,.5-.03,.99-.07,1.48-.1,.49,.03,.99,.07,1.48,.1,.08,0,.16,.01,.25,.02,.09,2.15,.77,3.13,1.42,3.61,1.22,.91,2.68,.36,3.94,1.51,.66,.6,.95,1.38,1.09,1.96Z"/><path class="g" d="M23.85,10.49c0,.71-.65,1.29-1.45,1.29s-1.45-.58-1.45-1.29,.65-1.29,1.45-1.29,1.45,.58,1.45,1.29Z"/><path class="h" d="M22.41,1.8c-.32,0-.59,.01-.85,.04-1.43,.17-2.5,1.38-2.5,2.81v2.92c.07,.37,.37,1.61,1.52,2.49,.67,.51,1.35,.7,1.74,.77,.03,0,.05,0,.08,0,.02,0,.05,0,.08,0,.39-.07,1.07-.26,1.74-.77,1.15-.89,1.45-2.13,1.52-2.49v-2.92c0-1.44-1.08-2.65-2.5-2.81-.26-.03-.53-.05-.82-.04Z"/><g><path class="h" d="M19.66,6.62c0,.59-.35,1.06-.78,1.06s-.78-.48-.78-1.06,.35-1.06,.78-1.06,.78,.48,.78,1.06Z"/><path class="h" d="M26.71,6.62c0,.59-.35,1.06-.78,1.06s-.78-.48-.78-1.06,.35-1.06,.78-1.06,.78,.48,.78,1.06Z"/></g><path class="g" d="M22.06,7.95c.11-.06,.23-.08,.34-.08,.11,0,.23,.02,.34,.08-.11,.06-.23,.08-.34,.08-.11,0-.23-.02-.34-.08Z"/><g><path class="g" d="M21.75,14.19c.15,.19,.39,.28,.62,.23,.33-.07,.45-.37,.46-.39l-1.08,.16Z"/><path class="g" d="M22.9,14.75c.08,.04,.2,.09,.36,.14,.52,.16,.95,.13,1.26,.1,1.1-.09,2.11-.25,2.45-.3l-2.36,.08-1.71-.02Z"/><path class="g" d="M21.9,14.75c-.08,.04-.2,.09-.36,.14-.52,.16-.95,.13-1.26,.1-1.1-.09-2.11-.25-2.45-.3l2.36,.08,1.71-.02Z"/></g><path class="e" d="M29.61,36.64c-.18,1.96-.53,4.28-1.23,6.84-.78,2.84-1.77,5.22-2.71,7.12-.08,.01-.16,.01-.24,.02-1.23,.11-2.46,.23-3.69,.35-.23-3.04-.26-6.42,.09-10.1,.1-1.02,.22-2,.36-2.95,.02-.14,.04-.29,.06-.43,.07,0,.15,0,.22,0,1.93-.13,3.83-.34,5.69-.61,.48-.07,.97-.15,1.45-.23Z"/><path class="e" d="M25.66,51.51c0,.33,0,.65,0,.96,0,.02-.02,.03-.04,.05-.09,.17-.21,.32-.34,.44-.46,.48-1.09,.73-1.71,.67-1.02-.1-1.91-1-1.91-2.1,0-.1,0-.15,0-.19,0-.13,.04-.25,.07-.37,.29-1,1.29-1.6,2.23-1.53,.74,.06,1.25,.54,1.5,.87,.12,.15,.18,.27,.2,.3,0,.29,0,.59-.02,.9Z"/><path class="e" d="M25.82,56.83c-.53,4.2-2.99,6.1-3.82,11.43-.08,.48-.13,.92-.15,1.26-.02,.14-.03,.26-.04,.37-.56,.08-1.13,.17-1.69,.26,.14-.86,.34-2.14,.5-3.69,.3-2.72,.34-4.71,.37-5.89,.07-2.12,.23-5.15,.67-9.03,1.21,.26,2.42,.57,3.63,.89,.11,.02,.22,.05,.33,.08,.4,1.87,.33,3.33,.2,4.33Z"/><path class="g" d="M37.16,37.02c.32-.15,.64-.3,.96-.45-.36-2.47-1.16-5.59-2.98-8.79-.44-.77-.9-1.47-1.36-2.12,.1-.36,.1-.57,0-.64-.24-.16-1.04,.51-2.41,2.02,.28,.83,.57,1.45,.74,1.81,1.48,2.99,3.19,3.82,4.52,6.76,.28,.62,.45,1.13,.53,1.4Z"/><path class="g" d="M38.12,36.57c.32,.25,.79,.68,1.17,1.34,.14,.24,.91,1.63,.54,3.29-.18,.82-.69,1.85-1.18,1.83-.19,0-.39-.18-.43-.37-.09-.4,.55-.59,.72-1.18,.22-.78-.51-1.8-.8-1.74-.15,.03-.24,.36-.2,.63,.07,.51,.6,.67,.54,.94-.04,.19-.36,.37-.62,.32-.7-.14-.89-2.06-.87-3.13,.01-.61,.1-1.12,.17-1.47,.32-.15,.64-.3,.96-.45Z"/><path class="g" d="M7.67,36.6c-.32-.15-.64-.3-.96-.45,.36-2.47,1.16-5.59,2.98-8.79,.44-.77,.9-1.47,1.36-2.12-.1-.36-.1-.57,0-.64,.24-.16,1.04,.51,2.41,2.02-.28,.83-.57,1.45-.74,1.81-1.48,2.99-3.19,3.82-4.52,6.76-.28,.62-.45,1.13-.53,1.4Z"/><path class="g" d="M6.71,36.16c-.31,.25-.79,.68-1.17,1.34-.14,.24-.91,1.63-.54,3.29,.18,.82,.69,1.85,1.18,1.83,.19,0,.39-.18,.43-.37,.09-.4-.55-.59-.72-1.18-.22-.78,.51-1.8,.8-1.74,.15,.03,.24,.36,.2,.63-.07,.51-.6,.67-.54,.94,.04,.19,.36,.37,.62,.32,.7-.14,.89-2.06,.87-3.13-.01-.61-.1-1.12-.17-1.47-.32-.15-.64-.3-.96-.45Z"/><path class="g" d="M22.44,9.84c-.3,0-.51-.08-.64-.14-.06-.03-.09-.1-.06-.17,.03-.06,.1-.09,.17-.06,.11,.05,.28,.11,.5,.12,.24,0,.43-.05,.54-.1,.06-.03,.14,0,.16,.07,.03,.06,0,.14-.06,.16-.13,.06-.34,.12-.61,.12Z"/><g><g><path class="g" d="M21.11,6.32c0,.21-.2,.39-.45,.39-.25,0-.45-.16-.45-.37,0-.21,.2-.39,.45-.39,.25,0,.45,.16,.45,.37Z"/><path class="j" d="M19.53,6.29c.41-.24,.92-.43,1.32-.25,.35,.16,.48,.54,.53,.51,.06-.03-.06-.67-.48-.87-.39-.18-.99,.03-1.37,.6Z"/></g><path class="g" d="M21.39,6.65s-.08-.02-.11-.06c-.1-.16-.22-.28-.37-.37-.37-.21-.88-.14-1.32,.17-.06,.04-.14,.03-.17-.03-.04-.06-.03-.13,.03-.17,.52-.36,1.12-.43,1.58-.18,.19,.1,.34,.26,.46,.46,.04,.06,.02,.14-.04,.17-.02,.01-.04,.02-.06,.02Z"/></g><g><g><path class="g" d="M23.5,6.32c0,.21,.2,.39,.45,.39,.25,0,.45-.16,.45-.37,0-.21-.2-.39-.45-.39-.25,0-.45,.16-.45,.37Z"/><path class="j" d="M25.08,6.29c-.41-.24-.92-.43-1.32-.25-.35,.16-.48,.54-.53,.51-.06-.03,.06-.67,.48-.87,.39-.18,.99,.03,1.37,.6Z"/></g><path class="g" d="M23.22,6.65s-.04,0-.06-.02c-.06-.04-.08-.11-.04-.17,.12-.2,.28-.35,.46-.46,.46-.25,1.06-.18,1.58,.18,.06,.04,.07,.12,.03,.17-.04,.06-.12,.07-.17,.03-.44-.31-.94-.37-1.32-.17-.19,.1-.3,.26-.37,.37-.02,.04-.07,.06-.11,.06Z"/></g><g><path class="g" d="M25.32,5.25c-.3-.05-.71-.09-1.2-.04-.42,.04-.77,.13-1.03,.21,0-.06,0-.12,.01-.19,.03-.17,.11-.3,.17-.38,.33-.03,.61-.03,.82-.03,.5,0,.63,.04,.73,.07,.25,.09,.41,.26,.5,.36Z"/><path class="g" d="M23.09,4.85c-.03,.05-.06,.13-.08,.23-.04,.17-.02,.34,0,.34,.02,0,.06-.2,.07-.27,.02-.09,.03-.17,.08-.28,.01-.03,.02-.05,.03-.06l-.09,.03Z"/></g><g><path class="g" d="M19.44,5.19c.3-.05,.71-.09,1.2-.04,.42,.04,.77,.13,1.03,.21,0-.06,0-.12-.01-.19-.03-.17-.11-.3-.17-.38-.33-.03-.61-.03-.82-.03-.5,0-.63,.04-.73,.07-.25,.09-.41,.26-.5,.36Z"/><path class="g" d="M21.67,4.79c.03,.05,.06,.13,.08,.23,.04,.17,.02,.34,0,.34-.02,0-.06-.2-.07-.27-.02-.09-.03-.17-.08-.28-.01-.03-.02-.05-.03-.06l.09,.03Z"/></g><path class="g" d="M21.82,69.88c-.3,1.32-.61,2.64-.91,3.96,0,.18-.04,.42-.12,.7-.13,.44-.24,.82-.54,.94-.5,.2-1.14-.48-1.2-.54-.09-.09-.27-.3-.37-.61-.12-.4-.03-.71,.08-1.15,.3-1.3,.1-1.37,.43-2.36,.1-.3,.19-.58,.38-.93,.09-.17,.92-1.74,1.62-1.58,.38,.09,.65,.68,.68,1.14,.01,.18-.01,.34-.04,.45Z"/><path class="i" d="M28.34,20.48c-.18,1.41-1.15,2.2-1.35,2.35-.33,1.87-.65,3.75-.98,5.62-.56,0-1.13,0-1.68,0-1.15,0-2.31,.02-3.45,.03-.77,0-1.53,0-2.31,.02,0-.03,0-.07-.02-.1-.35-1.93-.7-3.86-1.05-5.79-.2-.12-1.06-.66-1.37-1.76-.41-1.43,.46-2.59,.55-2.71,.83,.67,1.65,1.35,2.48,2.02,1.08,.87,2.16,1.74,3.23,2.61,1.32-1.13,2.64-2.26,3.96-3.38,.48-.41,.97-.82,1.45-1.24,.16,.26,.67,1.14,.52,2.33Z"/><path class="g" d="M25.68,50.61c0,.29,0,.59-.02,.9,0,.33,0,.65,0,.96,0,.02-.02,.03-.04,.05,.4,1.85,.33,3.31,.2,4.31-.53,4.2-2.99,6.1-3.82,11.43-.08,.48-.13,.92-.15,1.26-.3-.34-.49-1.11-.53-1.66-.04-.6,.11-1.08,.17-1.24,1.09-3.29,2.04-6.62,3.21-9.87,.67-1.85,.57-2.45,.59-3.79,0-.17,0-.35,0-.53,.02-.48,.05-1.06,.14-1.79,0-.1,.02-.21,.04-.32,.09-.72,.23-1.59,.43-2.66,1.17-6.21,2.46-7.75,2.28-10.48,0-.1,0-.2-.02-.3-.04-.28-.08-.56-.14-.88-.56-2.94-2.22-5.64-1.63-6,.23-.13,.68,.17,1.18,.52,.07,.11,.15,.24,.22,.36,1.31,2.26,1.7,4.4,1.83,5.77-.18,1.96-.53,4.28-1.23,6.84-.78,2.84-1.77,5.22-2.71,7.12Z"/><path class="e" d="M22.87,51.41c-1.1-.1-2.21-.22-3.3-.33l-.62-.06c-.92-1.95-1.88-4.33-2.66-7.13-.75-2.69-1.16-5.16-1.38-7.24,.48-.17,.92-.28,1.32-.35,1.14-.19,1.93,0,2.48,.25,.8,.38,1.81,1.23,3.53,1.38,.09,0,.16,0,.21,.02,.16,1.08,.3,2.21,.4,3.37,.33,3.68,.28,7.06,.03,10.09Z"/><path class="e" d="M22.95,51.92c0,1.15-.9,2.04-1.92,2.14-.5,.04-1-.11-1.41-.41-.26-.18-.48-.42-.64-.71-.02,0-.03-.03-.04-.05,0-.32,.02-.63,.02-.97,0-.31,0-.6-.02-.9,.03-.05,.22-.38,.57-.66,.28-.24,.65-.45,1.14-.48,.94-.07,1.94,.54,2.22,1.53,.04,.13,.06,.25,.07,.38,0,.05,0,.1,0,.14Z"/><path class="e" d="M22.68,70.33c-.03-.41-.08-.96-.18-1.63-.79-5.32-3.25-7.24-3.75-11.44-.12-1-.18-2.46,.23-4.31,.2-.07,.41-.12,.6-.17,1.12-.29,2.24-.56,3.36-.85,.42,3.93,.56,6.97,.61,9.08,.02,1.18,.05,3.18,.33,5.9,.16,1.55,.35,2.83,.48,3.69-.56-.09-1.13-.18-1.69-.27Z"/><path class="g" d="M24.28,69.98c.41,1.4,.83,2.8,1.24,4.2,.63,.46,.72,.73,.67,.9-.11,.41-1.11,.4-2.6,.38-.07,0-.21,0-.31-.1-.18-.18-.04-.52,0-.81,.12-.79-.44-1.02-.67-2.3-.03-.18-.1-.55-.08-1,.04-.98,.45-1.72,.73-2.14l1,.88Z"/><path class="g" d="M23.35,70.21c-.17,.16-.46,.13-.67,.08-.03-.37-.08-.92-.18-1.59-.79-5.32-3.25-7.24-3.75-11.44-.12-1-.18-2.46,.23-4.31-.02,0-.03-.03-.04-.05,0-.32,.02-.63,.02-.97,0-.31,0-.6-.02-.9-.92-1.95-1.88-4.33-2.66-7.13-.75-2.69-1.16-5.16-1.38-7.24,.48-.17,.92-.28,1.32-.35,1.21,2.82,2.44,7.56,3.05,11.81,.13,.93,.21,1.65,.25,2.25,.03,.27,.04,.5,.05,.72,.03,.69,.02,1.19,.02,1.69,0,.28,0,.56,.04,.88,.04,.55,.14,1.22,.35,2.18,1.35,6.33,2.24,10.53,3.19,12.74,.12,.29,.56,1.3,.2,1.63Z"/><path class="g" d="M16.64,37.56c-.22-.19-.52-.4-.9-.59-.31-.15-.6-.26-.84-.32,.13-1.37,.51-3.51,1.82-5.77,.16-.28,.33-.54,.49-.79,.53-.1,1.07-.19,1.6-.28-.64,.72-1.97,2.43-2.29,4.95-.14,1.12-.04,2.08,.11,2.8Z"/><path class="i" d="M27.78,30.88c-1.14,1.88-2.29,3.75-3.42,5.62-.38,.61-.75,1.24-1.13,1.85-.24,.02-.47,.05-.72,.07-.28-.37-.56-.73-.84-1.1-1.65-2.15-3.29-4.29-4.95-6.44,.2-.43,.48-.95,.91-1.49,.32-.4,.63-.73,.92-.98,.04-.04,.07-.06,.1-.09h7.21s.09,.08,.14,.13c.3,.27,.62,.59,.93,1.01,.4,.52,.66,1.02,.85,1.42Z"/><path class="g" d="M23.51,59.67c-.07,0-.12-.05-.12-.12-.04-1.19-.11-2.42-.2-3.63-.09-1.31-.17-2.05-.24-2.71-.05-.47-.09-.88-.13-1.42-.14-1.87-.05-2.96,.03-4.02,.08-.97,.15-1.89,.06-3.36-.12-1.88-.38-3.75-.78-5.56-.01-.07,.03-.13,.1-.15,.07-.01,.13,.03,.15,.1,.4,1.83,.66,3.71,.78,5.6,.09,1.49,.01,2.46-.06,3.4-.08,1.05-.17,2.13-.03,3.98,.04,.54,.08,.94,.13,1.42,.07,.65,.15,1.4,.24,2.71,.09,1.22,.16,2.44,.2,3.64,0,.07-.05,.13-.12,.13h0Z"/><path class="i" d="M28.03,19.65c-1.86,1.13-3.71,2.26-5.57,3.38-2.03-1.13-4.06-2.26-6.09-3.38v-3.35h11.66v3.35Z"/><path class="e" d="M22.71,19.45c-.16,0-.33,0-.49,.01-.25-.39-.56-.81-.93-1.23-.75-.85-1.53-1.45-2.17-1.86,.49-.31,1.68-.95,3.32-.97,1.73-.02,2.99,.67,3.48,.97-.61,.36-1.37,.89-2.12,1.68-.46,.49-.82,.97-1.1,1.4Z"/><path class="g" d="M22.46,28.63c-.07,0-.12-.06-.12-.12v-6.87c0-.07,.06-.12,.12-.12s.12,.06,.12,.12v6.87c0,.07-.06,.12-.12,.12Z"/><path class="g" d="M22.46,29.18s-3.84-.74-3.84-.74c-.07-.01-.11-.08-.1-.15,.01-.07,.08-.12,.15-.1l3.81,.74c.07,.01,.11,.08,.1,.15-.01,.06-.06,.1-.12,.1Z"/><path class="g" d="M22.76,29.2c-.06,0-.11-.04-.12-.1-.01-.07,.03-.13,.1-.15l3.25-.63c.07-.02,.13,.03,.15,.1,.01,.07-.03,.13-.1,.15l-3.25,.63s-.02,0-.02,0Z"/><path class="g" d="M19.18,23.06c-.58,0-1.17-.11-1.72-.33-.06-.02-.1-.1-.07-.16,.03-.06,.1-.1,.16-.07,.67,.26,1.39,.36,2.09,.28,1.25-.14,2.12-.78,2.53-1.15,.05-.05,.13-.04,.18,0,.05,.05,.04,.13,0,.18-.43,.39-1.35,1.07-2.67,1.22-.16,.02-.33,.03-.49,.03Z"/><path class="g" d="M25.53,23.22c-.35,0-.74-.05-1.14-.17-.95-.28-1.58-.85-1.94-1.27-.04-.05-.04-.13,.01-.18,.05-.04,.13-.04,.18,.01,.34,.4,.93,.93,1.82,1.2,1.06,.32,1.98,.08,2.43-.09,.06-.02,.14,0,.16,.07,.02,.06,0,.14-.07,.16-.31,.12-.82,.26-1.45,.26Z"/><path class="g" d="M16.37,19.03c-.35,.13-.92-.55-1.22-.9-.55-.65-.43-.84-.87-1.25-.65-.61-1.45-.72-1.42-.93,.02-.13,.33-.1,.38-.27,.07-.23-.41-.43-.65-.89-.28-.54-.17-1.33,.13-1.45,.13-.05,.31,0,1.41,1.03,.63,.59,.83,.82,1.04,1.01,.48,.43,1.27,.93,2.64,1.12-.23,.12-.54,.32-.79,.68-.59,.83-.28,1.72-.65,1.86Z"/><path class="g" d="M28.15,19.22c.35,.13,.92-.55,1.22-.9,.55-.65,.43-.84,.87-1.25,.65-.61,1.45-.72,1.42-.93-.02-.13-.33-.1-.38-.27-.07-.23,.41-.43,.65-.89,.28-.54,.17-1.33-.13-1.45-.13-.05-.31,0-1.41,1.03-.63,.59-.83,.82-1.04,1.01-.48,.43-1.27,.93-2.64,1.12,.23,.12,.54,.32,.79,.68,.59,.83,.28,1.72,.65,1.86Z"/><path class="j" d="M23.38,8.96c0,.27-.44,.49-.98,.49s-.98-.22-.98-.49,.44-.49,.98-.49,.98,.22,.98,.49Z"/><path class="g" d="M22.36,9.23c-.59,0-1.04-.24-1.26-.39-.06-.04-.07-.12-.03-.17,.04-.06,.12-.07,.17-.03,.21,.14,.65,.38,1.24,.34,.47-.03,.82-.21,1.04-.36,.06-.04,.13-.03,.17,.03,.04,.06,.03,.13-.03,.17-.24,.17-.64,.38-1.17,.41-.04,0-.09,0-.13,0Z"/><g><path class="i" d="M20.45,5.23c-.72-.02-1.86,.23-1.98,.81-.14,.66,1.05,1.67,2.22,1.66,.68,0,1.59-.36,1.7-.96,.06-.37-.2-.69-.31-.83-.5-.64-1.36-.67-1.62-.68Zm.26,1.85c-.69-.01-1.51-.42-1.49-.81,.02-.4,.91-.85,1.62-.63,.53,.17,1.01,.72,.89,1.07-.14,.38-.93,.37-1.02,.37Z"/><path class="i" d="M22.71,5.91c-.11,.14-.37,.46-.31,.83,.1,.6,1.01,.96,1.7,.96,1.16,0,2.35-1.01,2.22-1.66-.12-.58-1.26-.83-1.98-.81-.26,0-1.12,.03-1.62,.68Zm.35,.8c-.13-.35,.36-.91,.89-1.07,.71-.22,1.61,.23,1.62,.63,.02,.4-.8,.8-1.49,.81-.09,0-.88,0-1.02-.37Z"/></g><path class="f" d="M26.25,1.91c.31,.37,1.62,1.96,.97,3.36-.26,.56-.93,1.29-1.65,1.23-1.24-.11-1.29-2.46-2.87-2.79-.75-.16-1.39,.23-1.88-.23-.39-.37-.31-.92-.46-.93-.36-.03-.54,3.07-1.25,3.15-.37,.04-.89-.75-.88-1.49,.01-.89,.78-1.48,1.58-2.08,.95-.71,2.92-2.18,4.87-1.43,.81,.31,1.28,.88,1.57,1.23Z"/></g></g></g></svg>