<?xml version="1.0" encoding="UTF-8"?><svg xmlns="http://www.w3.org/2000/svg" viewBox="0 0 54.89 73.2"><defs><style>.f{fill:#ffb8ce;}.g{fill:#ea445c;}.h{fill:#210b04;}.i{fill:#f99055;}.j{fill:#fccc00;}.k{fill:#240100;}.l{fill:#68e07e;}.m{fill:#505088;}.n{fill:#ef4d4d;}</style></defs><g id="a"/><g id="b"><g id="c"><g id="d"><path class="g" d="M54.69,58.66c-.66,.21-1.65,.47-2.87,.55-1.9,.13-2.31-.31-3.6-.22-2.66,.18-2.86,2.26-5.32,2.45-2.4,.19-2.76-1.43-4.87-1.16-2.41,.32-2.77,2.56-5.35,3.45-1.19,.41-3.04,.59-5.81-.65,2.32-4.68,4.28-10.4,1.83-13.75-4.47-6.1-19.25,1.6-24.74-4.01C.67,41.97,.48,33.6,11.24,13.03c1.65-.11,3.29-.23,4.94-.34,6.95,10.4,14.28,16.04,19.83,19.3,6.42,3.77,11.86,5.15,15.6,10.91,3.44,5.28,3.55,11.37,3.08,15.77Z"/><g id="e"><g><path class="l" d="M9.24,7.32c-.05-.43-6.36-.26-6.58-.96-.17-.52,3.18-1.01,3.11-1.82-.07-.8-3.41-.98-3.47-1.67-.07-.83,4.67-1.57,5.98-1.78,2.61-.41,10.71-1.68,12.38-.06,.76,.74-.4,1.52,.82,2.76,.64,.65,1.31,.8,1.36,1.34,.04,.43-.35,.8-1.79,1.69-1.83,1.13-2.74,1.69-3.47,1.9-3.81,1.09-9.12-.52-9.02-1.04,.03-.18,.7-.22,.68-.36Z"/><path class="f" d="M10.25,27.55c-.62,.65-1.3,1.5-1.92,2.56-1.31,2.25-1.7,4.41-1.83,5.77,.77,.72,2.28,1.92,4.51,2.49,2.54,.65,4.6,.12,5.64-.16,2.14-.58,3.67-1.61,4.56-2.33-.13-1.36-.52-3.52-1.83-5.77-.62-1.07-1.31-1.92-1.92-2.56h-7.21Z"/><path class="j" d="M18.66,21.29c.77-.39,1.3-1.16,1.3-2.06,0-.59-.23-1.13-.61-1.54,.11-.55,.21-1.1,.32-1.65-.3-.36-.75-.78-1.38-1.09-2-1-4.09-.03-4.42,.13-.37-.16-2.46-1.12-4.46-.13-.63,.31-1.08,.73-1.38,1.09,.11,.55,.21,1.1,.32,1.65-.38,.41-.61,.95-.61,1.54,0,.89,.53,1.67,1.3,2.06h9.62Z"/><path class="f" d="M25.94,23.51c.43-.82,.87-1.64,1.3-2.45-1.16-1.56-2.66-3.28-4.59-4.97-.78-.69-1.56-1.3-2.3-1.84-.78,.01-1.48,.41-1.82,1.06-.33,.63-.2,1.25-.16,1.42,2.52,2.26,5.05,4.52,7.57,6.79Z"/><path class="m" d="M23.83,10.94l1.71-.12c.09,.25,.25,.69,.42,1.25,.99,3.2,.65,4.25,1.45,7.62,.15,.63,.85,1.66,.53,2.86-.08,.29-.19,.51-.26,.65-.29,.64-.85,1.09-1.48,1.15-.89,.07-1.82-.67-1.97-1.79,.03-.78,.06-1.54,.08-2.03,.19-4.76,.23-6.19-.13-8.13-.12-.67-.27-1.19-.36-1.45Z"/><path class="f" d="M22.13,16.51c-5.41-.03-10.81-.06-16.23-.1,.12-.54,.36-1.29,.96-1.86,1.21-1.17,2.72-.59,3.94-1.51,.46-.34,.92-.91,1.2-1.96,.12-.46,.2-1,.23-1.65,.08,0,.16,0,.24-.02,.44-.03,.85-.06,1.27-.09,.07,0,.15,0,.22,0,.06-.71,.44-1.21,.84-1.24,.08,0,.25,0,.46,.15,.11,3.11,1.03,4.3,1.85,4.82,1.24,.78,2.66,.35,3.94,1.51,.67,.6,.96,1.38,1.1,1.96Z"/><path class="f" d="M15.02,38.18c-.41-.03-.82-.07-1.23-.1l-6.8-4.84c.18-1.08,.65-2.89,2.06-4.54,.4-.46,.81-.84,1.2-1.15-.41-1.84-.82-3.69-1.23-5.53-1.02-.7-1.58-1.81-1.42-2.87,.11-.73,.53-1.23,.75-1.45-.19-.6-.38-1.21-.56-1.81,2.08-.17,4.16-.34,6.24-.5,1.88,.22,3.76,.44,5.65,.66-.11,.55-.21,1.1-.32,1.65,.08,.07,.9,.88,.73,2.08-.18,1.27-1.31,1.8-1.39,1.83-.36,1.99-.72,3.97-1.08,5.96,.5,.51,1.08,1.18,1.61,2.03,.86,1.38,1.27,2.69,1.48,3.63-1.9,1.65-3.79,3.31-5.69,4.96Z"/><g><path class="m" d="M25.75,9.2c.02,.82,.03,1.63,.05,2.45,.04,.1,.09,.2,.13,.31l-1.57,.5v-.14c-.35-.07-.96-.23-1.55-.69-.33-.26-.56-.53-.71-.75,.52-.84,1.02-1.68,1.53-2.54,.71,.29,1.41,.57,2.12,.86Z"/><path class="k" d="M24.31,10.98s-.81-.26-.81-.26c-.07-.02-.1-.09-.08-.16,.02-.06,.09-.1,.16-.08l.77,.25c.07,.02,.1,.09,.08,.16-.02,.05-.07,.09-.12,.09Z"/><path class="k" d="M23.53,10.73s-.06,0-.08-.03c-.05-.04-.06-.12-.02-.18l.58-.69c.05-.05,.12-.06,.18-.02,.05,.04,.06,.12,.02,.18l-.58,.69s-.06,.04-.1,.04Z"/></g><path class="f" d="M2.09,23.51c-.43-.82-.87-1.64-1.3-2.45,1.16-1.56,2.66-3.28,4.59-4.97,.78-.69,1.56-1.3,2.3-1.84,.78,.01,1.48,.41,1.82,1.06,.33,.63,.2,1.25,.16,1.42-2.52,2.26-5.05,4.52-7.57,6.79Z"/><path class="m" d="M4.2,10.94l-1.71-.12c-.09,.25-.25,.69-.42,1.25-.99,3.2-.65,4.25-1.45,7.62-.15,.63-.85,1.66-.53,2.86,.08,.29,.19,.51,.26,.65,.29,.64,.85,1.09,1.48,1.15,.89,.07,1.82-.67,1.97-1.79-.03-.78-.06-1.54-.08-2.03-.19-4.76-.23-6.19,.13-8.13,.12-.67,.27-1.19,.36-1.45Z"/><g><path class="m" d="M2.27,9.2c-.02,.82-.03,1.63-.05,2.45-.04,.1-.09,.2-.13,.31l1.57,.5v-.14c.35-.07,.96-.23,1.55-.69,.33-.26,.56-.53,.71-.75-.52-.84-1.02-1.68-1.53-2.54-.71,.29-1.42,.57-2.12,.86Z"/><path class="k" d="M3.71,10.98c-.05,0-.1-.03-.12-.09-.02-.07,.01-.14,.08-.16l.78-.25c.06-.02,.14,.02,.16,.08,.02,.07-.01,.14-.08,.16l-.78,.25s-.03,0-.04,0Z"/><path class="k" d="M4.49,10.73s-.07-.02-.1-.04l-.58-.69c-.04-.05-.04-.13,.02-.18,.05-.04,.13-.04,.18,.02l.58,.69c.04,.05,.04,.13-.02,.18-.02,.02-.05,.03-.08,.03Z"/></g><path class="i" d="M14.03,1.51c-.32,0-.59,.01-.85,.04-1.43,.17-2.5,1.38-2.5,2.81v2.92c.07,.37,.37,1.61,1.52,2.49,.67,.51,1.35,.7,1.74,.77,.03,0,.05,0,.08,0,.03,0,.05,0,.08,0,.39-.07,1.07-.26,1.74-.77,1.15-.89,1.45-2.13,1.52-2.49v-2.92c0-1.44-1.08-2.65-2.5-2.81-.26-.03-.53-.05-.82-.04Z"/><g><ellipse class="i" cx="10.49" cy="6.32" rx=".78" ry="1.06"/><path class="i" d="M18.33,6.32c0,.59-.35,1.06-.78,1.06s-.78-.48-.78-1.06,.35-1.06,.78-1.06,.78,.48,.78,1.06Z"/></g><path class="h" d="M13.68,7.65c.11-.06,.23-.08,.34-.08,.11,0,.23,.02,.34,.08-.11,.06-.23,.08-.34,.08-.11,0-.23-.02-.34-.08Z"/><path class="h" d="M14.06,9.55c-.25,0-.45-.05-.64-.14-.06-.03-.09-.1-.06-.17,.03-.06,.1-.09,.17-.06,.16,.07,.33,.11,.5,.12,.19,0,.37-.03,.54-.1,.06-.03,.14,0,.16,.07,.03,.06,0,.14-.07,.16-.19,.08-.4,.12-.61,.12Z"/><path class="h" d="M12.73,6.11c0,.21-.2,.39-.45,.39-.25,0-.45-.16-.45-.37,0-.21,.2-.39,.45-.39,.25,0,.45,.16,.45,.37Z"/><path class="n" d="M11.15,5.99c.41-.24,.92-.43,1.32-.25,.35,.16,.48,.54,.53,.51,.06-.03-.06-.67-.48-.87-.39-.18-.99,.03-1.37,.6Z"/><path class="h" d="M13.01,6.36s-.08-.02-.11-.06c-.1-.16-.22-.28-.37-.37-.37-.21-.88-.14-1.32,.17-.06,.04-.13,.03-.17-.03-.04-.06-.03-.13,.03-.17,.52-.36,1.12-.43,1.58-.18,.19,.1,.34,.26,.46,.46,.04,.06,.02,.14-.04,.17-.02,.01-.04,.02-.06,.02Z"/><path class="h" d="M15.15,6.16c0,.21,.2,.39,.45,.39,.25,0,.45-.16,.45-.37,0-.21-.2-.39-.45-.39-.25,0-.45,.16-.45,.37Z"/><path class="n" d="M16.7,5.99c-.41-.24-.92-.43-1.32-.25-.35,.16-.48,.54-.53,.51-.06-.03,.06-.67,.48-.87,.39-.18,.99,.03,1.37,.6Z"/><path class="h" d="M14.84,6.36s-.04,0-.06-.02c-.06-.04-.08-.11-.04-.17,.12-.2,.28-.35,.46-.46,.46-.25,1.06-.18,1.58,.18,.06,.04,.07,.12,.03,.17-.04,.06-.12,.07-.17,.03-.44-.31-.94-.37-1.32-.17-.15,.08-.27,.2-.37,.37-.02,.04-.06,.06-.11,.06Z"/><g><path class="h" d="M16.94,4.17c-.3-.05-.71-.09-1.2-.04-.42,.04-.77,.13-1.03,.21,0-.06,0-.12,.01-.19,.03-.17,.11-.3,.17-.38,.33-.03,.61-.03,.82-.03,.5,0,.64,.04,.73,.07,.25,.09,.41,.26,.5,.36Z"/><path class="h" d="M14.71,3.77c-.03,.05-.06,.13-.08,.23-.04,.17-.02,.34,0,.34,.02,0,.06-.2,.07-.27,.02-.09,.03-.17,.08-.28,.01-.03,.02-.05,.03-.06l-.09,.03Z"/></g><g><path class="h" d="M11.12,4.47c.3-.05,.71-.09,1.2-.04,.42,.04,.77,.13,1.03,.21,0-.06,0-.12-.01-.19-.03-.17-.11-.3-.17-.38-.33-.03-.61-.03-.82-.03-.5,0-.63,.04-.73,.07-.25,.09-.41,.26-.5,.36Z"/><path class="h" d="M13.35,4.07c.03,.05,.06,.13,.08,.23,.04,.17,.02,.34,0,.34-.02,0-.06-.2-.07-.27-.02-.09-.03-.17-.08-.28-.01-.03-.02-.05-.03-.06l.09,.03Z"/></g><path class="m" d="M14.76,8.78c0,.31-.38,.55-.85,.55s-.85-.25-.85-.55,.38-.55,.85-.55,.85,.25,.85,.55Z"/><path class="h" d="M13.99,8.94c-.59,0-1.04-.24-1.26-.39-.06-.04-.07-.12-.03-.17,.04-.06,.12-.07,.17-.03,.21,.14,.66,.38,1.24,.34,.47-.03,.82-.21,1.04-.36,.06-.04,.13-.03,.17,.03,.04,.06,.03,.13-.03,.17-.24,.17-.64,.38-1.17,.41-.04,0-.09,0-.13,0Z"/><g><path class="f" d="M15.05,50.89c1.29-.25,2.59-.49,3.88-.74,.76-1.86,1.57-4.34,2.02-7.34,.41-2.72,.4-5.1,.27-6.98-1.98,.55-4.01,1.21-6.08,1.99-.26,.1-.52,.2-.78,.3-.08,.87-.15,1.77-.18,2.7-.13,3.78,.27,7.17,.87,10.07Z"/><path class="f" d="M15.01,51.26c0,1.19,1.02,2.1,2.1,2.1,.83,0,1.61-.53,1.97-1.35-.04-.31-.07-.63-.1-.96-.03-.31-.05-.61-.06-.9-.06-.09-.72-1.01-1.81-.99-1.05,.01-2.1,.89-2.1,2.1Z"/><path class="l" d="M15.24,70.12c.56-.14,1.11-.28,1.67-.42,0-.36,0-.94,.03-1.63,.32-5.38,2.59-7.5,2.72-11.73,.03-1-.04-2.48-.61-4.3-1.35-.21-2.69-.43-4.04-.64-.07,3.93,.05,6.98,.19,9.1,.08,1.18,.23,3.16,.19,5.9-.02,1.56-.1,2.85-.16,3.72Z"/><path class="m" d="M14.76,73.2l4.2-.03c.1-.15,.21-.36,.16-.58-.08-.39-.58-.56-.87-.71-.47-.25-1.02-.81-1.35-2.18-.54,.05-1.09,.11-1.63,.16-.16,.61-.31,1.17-.45,1.73-.08,.33-.18,.71-.13,1.22,.02,.16,.04,.3,.06,.38Z"/><path class="l" d="M15,54.62c1.49-.28,2.99-.56,4.48-.84l-.39-1.77c.16-.9-.51-1.65-1.18-1.67-.65-.01-1.34,.67-1.26,1.55,.24-.68-.2-1.36-.73-1.45-.51-.09-1.13,.35-1.18,1.04,.09,1.04,.18,2.09,.26,3.13Z"/><path class="m" d="M18.87,53.13c0,1.14-.8,2.06-1.79,2.06s-1.79-.92-1.79-2.06,.8-2.06,1.79-2.06,1.79,.92,1.79,2.06Z"/></g><g><path class="f" d="M12.67,50.89c-1.29-.25-2.59-.49-3.88-.74-.76-1.86-1.57-4.34-2.02-7.34-.41-2.72-.4-5.1-.27-6.98,1.98,.55,4.01,1.21,6.08,1.99,.26,.1,.52,.2,.78,.3,.08,.87,.15,1.77,.18,2.7,.13,3.78-.27,7.17-.87,10.07Z"/><path class="f" d="M12.7,51.26c0,1.19-1.02,2.1-2.1,2.1-.83,0-1.61-.53-1.97-1.35,.04-.31,.07-.63,.1-.96,.03-.31,.05-.61,.06-.9,.06-.09,.72-1.01,1.81-.99,1.05,.01,2.1,.89,2.1,2.1Z"/><path class="l" d="M12.48,70.12c-.56-.14-1.11-.28-1.67-.42,0-.36,0-.94-.03-1.63-.32-5.38-2.59-7.5-2.72-11.73-.03-1,.04-2.48,.61-4.3,1.35-.21,2.69-.43,4.04-.64,.07,3.93-.05,6.98-.19,9.1-.08,1.18-.23,3.16-.19,5.9,.02,1.56,.1,2.85,.16,3.72Z"/><path class="m" d="M12.96,73.2l-4.2-.03c-.1-.15-.21-.36-.16-.58,.08-.39,.58-.56,.87-.71,.47-.25,1.02-.81,1.35-2.18,.54,.05,1.09,.11,1.63,.16,.16,.61,.31,1.17,.45,1.73,.08,.33,.18,.71,.13,1.22-.02,.16-.04,.3-.06,.38Z"/><path class="l" d="M12.72,54.62c-1.49-.28-2.99-.56-4.48-.84l.39-1.77c-.16-.9,.51-1.65,1.18-1.67,.65-.01,1.34,.67,1.26,1.55-.24-.68,.2-1.36,.73-1.45,.51-.09,1.13,.35,1.18,1.04-.09,1.04-.18,2.09-.26,3.13Z"/><path class="m" d="M8.85,53.13c0,1.14,.8,2.06,1.79,2.06s1.79-.92,1.79-2.06-.8-2.06-1.79-2.06-1.79,.92-1.79,2.06Z"/></g><path class="m" d="M17.72,27.84c-.91,.26-2.12,.5-3.56,.54-1.79,.05-3.27-.25-4.31-.54v-.54c1.24,.15,2.65,.24,4.19,.23,1.34-.01,2.57-.1,3.68-.23v.54Z"/><path class="h" d="M12.99,38.64s-.06-.01-.09-.04l-5.79-5.58s-.05-.13,0-.18c.05-.05,.13-.05,.18,0l5.79,5.58s.05,.13,0,.18c-.02,.03-.06,.04-.09,.04Z"/><path class="h" d="M15.01,38.5s-.06-.01-.08-.03c-.05-.05-.06-.13,0-.18l4.95-5.44c.05-.05,.13-.05,.18,0,.05,.05,.06,.13,0,.18l-4.95,5.44s-.06,.04-.09,.04Z"/><path class="h" d="M16.76,51.01c-.08,0-.13-.06-.12-.13l.97-15.5c0-.07,.07-.13,.13-.12,.07,0,.12,.06,.12,.13l-.97,15.5c0,.07-.06,.12-.12,.12Z"/><path class="h" d="M11.12,50.84c-.06,0-.12-.05-.12-.11l-1.73-15.68c0-.07,.04-.13,.11-.14,.06-.01,.13,.04,.14,.11l1.73,15.68c0,.07-.04,.13-.11,.14h-.01Z"/><path class="h" d="M9.46,34.99s-.04,0-.05-.01c-.06-.03-.09-.1-.06-.17l2.98-6.48c.03-.06,.1-.09,.17-.06s.09,.1,.06,.17l-2.98,6.48s-.07,.07-.11,.07Z"/><path class="h" d="M17.62,35.41c-.05,0-.1-.03-.12-.09l-2.13-6.91c-.02-.07,.02-.14,.08-.16,.07-.02,.14,.02,.16,.08l2.13,6.91c.02,.07-.02,.14-.08,.16-.01,0-.02,0-.04,0Z"/><path class="h" d="M12.6,27.44c-.05,0-.1-.03-.12-.08l-1.92-5.62c-.02-.07,.01-.14,.08-.16,.07-.02,.14,.01,.16,.08l1.92,5.62c.02,.07-.01,.14-.08,.16-.01,0-.03,0-.04,0Z"/><path class="h" d="M15.6,27.33c-.09-.02-.14-.08-.12-.15l1.1-5.75c.01-.07,.08-.12,.15-.1,.07,.01,.11,.08,.1,.15l-1.1,5.75c-.01,.06-.06,.1-.12,.1Z"/><path class="h" d="M3.54,20.2s-.06-.01-.08-.03c-.05-.05-.05-.13,0-.18l4.72-5.08c.05-.05,.13-.05,.18,0,.05,.05,.05,.13,0,.18l-4.72,5.08s-.06,.04-.09,.04Z"/><path class="h" d="M13.01,13.85c-.08,0-.13-.07-.12-.13l.24-3.18c0-.07,.06-.13,.13-.12,.07,0,.12,.06,.12,.13l-.24,3.18c0,.07-.06,.12-.12,.12Z"/><path class="h" d="M8.43,15.12c-.05,0-.1-.04-.12-.09-.02-.07,.02-.14,.09-.15l4.48-1.27c.07-.02,.14,.02,.15,.09,.02,.07-.02,.14-.09,.15l-4.48,1.27s-.02,0-.03,0Z"/><path class="h" d="M14.62,13.74c-.07,0-.12-.06-.12-.12l-.02-3.06c0-.07,.06-.12,.12-.13,.07,0,.12,.06,.13,.12l.02,3.06c0,.07-.06,.12-.12,.13h0Z"/><path class="h" d="M19.34,15.42s-4.77-1.69-4.77-1.69c-.06-.02-.1-.09-.08-.16,.02-.06,.09-.1,.16-.08l4.72,1.68c.06,.02,.1,.09,.08,.16-.02,.05-.07,.08-.12,.08Z"/><path class="h" d="M24.3,20.89s-.07-.01-.09-.04l-4.85-5.48c-.05-.05-.04-.13,.01-.18,.05-.05,.13-.04,.18,.01l4.85,5.48c.05,.05,.04,.13-.01,.18-.02,.02-.05,.03-.08,.03Z"/><path class="h" d="M9.39,21.9c-.06,0-.12-.05-.12-.12,0-.07,.05-.13,.11-.13,.38-.03,.76-.1,1.13-.21,.75-.22,1.44-.6,2.05-1.12,.05-.04,.13-.04,.18,.01,.04,.05,.04,.13-.01,.18-.64,.54-1.36,.94-2.14,1.17-.38,.11-.78,.19-1.18,.22h0Z"/><path class="h" d="M18.25,21.63c-.58-.02-1.14-.14-1.66-.38-.56-.25-1.06-.63-1.46-1.09-.05-.05-.04-.13,.01-.18,.05-.04,.13-.04,.18,.01,.38,.43,.85,.79,1.38,1.03,.49,.22,1.02,.35,1.56,.36,.07,0,.12,.06,.12,.13,0,.07-.06,.12-.12,.12Z"/><path class="l" d="M15.95,16.39c0,1.19-.97,2.16-2.16,2.16s-2.16-.97-2.16-2.16,.97-2.16,2.16-2.16,2.16,.97,2.16,2.16Z"/><path class="l" d="M17.54,1.88c0,1.02-1.69,1.85-3.77,1.85-1.14,0-2.01-.65-3.77-1.85-.42-.29-.6-.44-.59-.63,.02-.69,2.3-1.42,4.36-1.22,1.56,.15,3.77,.91,3.77,1.85Z"/></g></g></g></g></g></svg>