<svg version="1.2" baseProfile="tiny-ps" xmlns="http://www.w3.org/2000/svg" viewBox="0 0 898 898" width="100" height="100">
	<title>20juni2021-15-ai</title>
	<defs>
		<radialGradient id="grd1" gradientUnits="userSpaceOnUse"  cx="368.015" cy="786.323" r="83.201">
			<stop offset="0.574" stop-color="#130c0e"  />
			<stop offset="0.798" stop-color="#130c0e"  />
			<stop offset="1" stop-color="#130c0e"  />
		</radialGradient>
		<radialGradient id="grd2" gradientUnits="userSpaceOnUse"  cx="488.041" cy="782.803" r="85.26">
			<stop offset="0.574" stop-color="#130c0e"  />
			<stop offset="0.798" stop-color="#130c0e"  />
			<stop offset="1" stop-color="#130c0e"  />
		</radialGradient>
		<radialGradient id="grd3" gradientUnits="userSpaceOnUse"  cx="448.701" cy="346.136" r="308.995">
			<stop offset="0.574" stop-color="#130c0e"  />
			<stop offset="0.798" stop-color="#130c0e"  />
			<stop offset="1" stop-color="#130c0e"  />
		</radialGradient>
	</defs>
	<style>
		tspan { white-space:pre }
		.shp0 { fill: url(#grd1) } 
		.shp1 { fill: url(#grd2) } 
		.shp2 { fill: url(#grd3) } 
	</style>
	<g id="Logo">
		<g id="&lt;Group&gt;">
			<g id="&lt;Group&gt;">
				<path id="&lt;Path&gt;" class="shp0" d="M434.95 720.66L434.95 689.55L368.55 689.55L368.55 747.84C368.55 768.56 366.83 785.1 363.39 797.29C360.03 809.57 353.97 819.73 345.21 827.83C336.54 835.94 321.8 844.04 301.08 852.07L312.79 883.1C344.31 873.44 368.87 861.81 386.4 848.14C403.92 834.46 416.36 817.76 423.81 798.03C431.18 778.22 434.95 752.43 434.95 720.66Z" />
				<path id="&lt;Path&gt;" class="shp1" d="M488.57 688.81L488.57 747.84C488.57 768.56 486.85 785.1 483.41 797.29C480.06 809.57 474 819.73 465.24 827.83C456.56 835.94 441.82 844.04 421.11 852.07L432.82 883.1C464.34 873.44 488.9 861.81 506.42 848.14C523.94 834.46 536.39 817.76 543.84 798.03C551.2 778.22 554.97 752.43 554.97 720.66L554.97 682.51C554.56 682.59 554.07 682.67 553.58 682.75C535.73 685.78 514.04 687.75 488.57 688.81Z" />
				<path id="&lt;Compound Path&gt;" fill-rule="evenodd" class="shp2" d="M738.53 398.25C738.53 441.72 733.54 480.04 723.63 513.12C713.72 546.19 699.23 573.95 680.15 596.3C663.7 615.86 643.48 631.99 619.57 644.6C600.82 654.35 579.29 661.39 554.97 665.81C553.58 666.13 552.19 666.38 550.8 666.63C533.77 669.49 512.97 671.37 488.57 672.44C475.88 672.93 462.13 673.18 447.31 673.18L158.87 673.18L158.87 654.26C170.74 651.15 179.18 648.2 184.33 645.34C189.49 642.56 193.5 638.95 196.29 634.53C199.15 630.19 201.2 623.89 202.51 615.62C203.82 607.43 204.39 594.41 204.39 576.65L204.39 242.61C204.39 224.6 203.82 211.5 202.51 203.39C201.2 195.29 199.07 189.06 196.12 184.64C193.18 180.3 189.25 176.78 184.33 174.08C179.42 171.38 170.99 168.35 158.87 164.99L158.87 146.08L368.55 146.08L368.55 107.36C368.55 86.89 367.57 72.89 365.52 65.35C363.55 57.82 360.28 52.01 355.69 48C351.03 44.07 341.61 40.14 327.2 36.37L327.2 19.1L596.23 19.1L596.23 36.37C585.92 38.99 578.47 41.53 573.8 44.15C569.22 46.77 565.61 49.96 562.91 53.89C560.21 57.74 558.16 63.55 556.85 71.33C555.63 79.11 554.97 91.14 554.97 107.36L554.97 151.89C570.12 154.43 583.87 157.87 596.23 162.13C627.18 172.77 653.38 188.57 674.75 209.37C696.12 230.25 712.08 256.2 722.65 287.23C733.21 318.26 738.53 355.26 738.53 398.25ZM434.95 146.08L476.7 146.08C480.71 146.08 484.72 146.08 488.57 146.24L488.57 107.36C488.57 86.89 487.59 72.89 485.54 65.35C483.58 57.82 480.3 52.01 475.72 48C472.85 45.54 468.1 43.17 461.55 40.71C458.44 41.86 455.82 43 453.78 44.15C449.19 46.77 445.59 49.96 442.89 53.89C440.19 57.74 438.14 63.55 436.83 71.33C435.6 79.11 434.95 91.14 434.95 107.36L434.95 146.08ZM659.69 405.21C659.69 352.89 652.24 309.99 637.17 276.42C622.11 242.77 600.82 218.29 573.39 202.82C567.5 199.54 561.36 196.51 554.97 193.98C535.16 185.87 513.05 181.2 488.57 179.98C484.15 179.73 479.73 179.65 475.15 179.65C470.48 179.65 455.17 179.65 434.95 179.81C415.62 179.81 391.8 179.89 368.55 180.14C325.4 180.3 284.06 180.71 276.61 181.2L276.61 637.23C281.68 637.72 324.34 638.13 368.55 638.38L368.55 196.51C391.72 196.35 415.46 196.19 434.95 196.19L434.95 638.71C452.55 638.79 465.98 638.79 470.89 638.79C476.95 638.79 482.84 638.63 488.57 638.38L488.57 196.35C513.38 197.74 535.65 202.9 554.97 211.82L554.97 625.77C562.01 623.07 568.81 619.96 575.19 616.44C589.03 608.66 601.56 597.93 612.61 584.18C623.66 570.43 632.67 554.54 639.63 536.69C646.59 518.76 651.66 498.87 654.94 477.01C658.13 455.15 659.69 431.16 659.69 405.21Z" />
			</g>
		</g>
	</g>
</svg>