<?xml version="1.0" encoding="UTF-8"?><svg xmlns="http://www.w3.org/2000/svg" viewBox="0 0 249.82 279.03"><defs><style>.d{fill:#2898ce;}.e{fill:#4eb7e9;}.f{fill:#028ab6;}.g{fill:#009fd1;}.h{fill:#f7d133;}.i{fill:#dbb427;}</style></defs><g id="a"/><g id="b"><g id="c"><g><path class="e" d="M124.9,.06V159.03l-67.16-21.06c-4.34-1.36-9.01-.83-12.92,1.49l-10.33,6.03c-5.76,3.41-9.31,9.57-9.41,16.26-.46,28.85,4.14,105.45,63.95,117.07,0,0-62.16,8.74-83.56-86.84-1.79-7.95-3.11-16-3.97-24.08C-.02,154.63-.32,141.18,.31,127.8,1.87,94.45,7,34.74,23.89,2.81c0,0,44.71,50.8,84.45,79.48L124.9,.06Z"/><path class="g" d="M108.35,82.31L124.91,.06C68.89-1.32,39.66,19.89,39.66,19.9c16.55,17.39,43.6,44.29,68.69,62.41Z"/><path class="h" d="M124.9,.06V131.71L31.9,50.14C2.56,98.79,1.53,164.1,1.5,167.91-.02,154.63-.32,141.18,.31,127.8,1.87,94.45,7,34.74,23.89,2.81c0,0,44.71,50.8,84.45,79.48L124.9,.06Z"/><path class="d" d="M124.92,.06V159.03l67.16-21.06c4.34-1.36,9.01-.83,12.92,1.49l10.33,6.03c5.76,3.41,9.31,9.57,9.41,16.26,.46,28.85-4.14,105.45-63.95,117.07,0,0,62.16,8.74,83.56-86.84,1.79-7.95,3.11-16,3.97-24.08,1.52-13.28,1.82-26.73,1.19-40.11-1.56-33.35-6.69-93.06-23.58-124.99,0,0-44.71,50.8-84.45,79.48L124.92,.06Z"/><path class="f" d="M141.47,82.31L124.91,.06c56.02-1.38,85.25,19.83,85.25,19.83-16.55,17.39-43.6,44.29-68.69,62.41Z"/><path class="i" d="M124.92,.06V131.71L217.92,50.14c29.34,48.65,30.37,113.96,30.4,117.77,1.52-13.28,1.82-26.73,1.19-40.11-1.56-33.35-6.69-93.06-23.58-124.99,0,0-44.71,50.8-84.45,79.48L124.92,.06Z"/></g></g></g></svg>