<?xml version="1.0" encoding="UTF-8"?><svg xmlns="http://www.w3.org/2000/svg" viewBox="0 0 281.17 338.17"><defs><style>.d{fill:#fff;}.e{fill:#87171a;}.f{fill:#551313;}.g{fill:#9a1c1f;}.h{fill:#3e1212;}.i{fill:#111a13;}</style></defs><g id="a"/><g id="b"><g id="c"><g><path class="g" d="M140.58,0V338.17h-11.74c-11.15,0-21.92-3.96-30.44-11.18l-14.92-12.63-29.62-25.1c-14.77-12.52-23.85-30.51-25.14-49.84l-7.26-109.9C17.06,62.65,67.49,3.85,134.4,.22c2.04-.11,4.07-.19,6.18-.22Z"/><path class="f" d="M21.48,129.5S-3.82,118.48,.5,145.01l5.6,35.28c.63,3.99,1.69,7.92,3.35,11.6,2.91,6.45,8.28,14.24,17.01,12.9l-4.97-75.29Z"/><path class="i" d="M60.36,55.53s-33.33,26.54-18.51,144.41c0,0,6.63,78.99,69.12,37.64,0,0,17.21-11.85,18.43-42.81,1.18-29.93-14.67-58.33-41.19-72.24-.23-.12-.45-.24-.68-.35,0,0-33.94-11.73-27.15-66.65Z"/><path class="d" d="M53.57,144.24l50.3,18.98s10.07,3.18,9.49,16.49c-.46,10.52-10.42,17.98-20.78,16.09-14.56-2.66-34.34-13.45-39-51.56Z"/><path class="i" d="M140.58,237.76v100.42h-11.74c-11.15,0-21.92-3.96-30.44-11.18l-14.92-12.63s8.52-64.61,57.1-76.61Z"/><path class="g" d="M140.58,277.08c-2.78-.31-21.91,0-21.91,0l-12.03,12.34h33.94v-12.34Z"/><path class="e" d="M140.58,0V338.17h11.74c11.15,0,21.92-3.96,30.44-11.18l14.92-12.63,29.62-25.1c14.77-12.52,23.85-30.51,25.14-49.84l7.26-109.9C264.11,62.65,213.68,3.85,146.77,.22c-2.04-.11-4.07-.19-6.18-.22Z"/><path class="h" d="M259.69,129.5s25.3-11.03,20.98,15.51l-5.6,35.28c-.63,3.99-1.69,7.92-3.35,11.6-2.91,6.45-8.28,14.24-17.01,12.9l4.97-75.29Z"/><path class="i" d="M220.81,55.53s33.33,26.54,18.51,144.41c0,0-6.63,78.99-69.12,37.64,0,0-17.21-11.85-18.42-42.81-1.18-29.93,14.67-58.33,41.19-72.24,.23-.12,.45-.24,.68-.35,0,0,33.94-11.73,27.15-66.65Z"/><path class="d" d="M227.6,144.24l-50.3,18.98s-10.07,3.18-9.49,16.49c.46,10.52,10.42,17.98,20.78,16.09,14.56-2.66,34.34-13.45,39-51.56Z"/><path class="i" d="M140.58,237.76v100.42h11.74c11.15,0,21.92-3.96,30.44-11.18l14.92-12.63s-8.52-64.61-57.1-76.61Z"/><path class="e" d="M140.58,277.08c2.78-.31,21.91,0,21.91,0l12.03,12.34h-33.94v-12.34Z"/></g></g></g></svg>