<?xml version="1.0" encoding="UTF-8"?><svg xmlns="http://www.w3.org/2000/svg" viewBox="0 0 281.95 315.58"><defs><style>.d{fill:#fff;}.e{fill:#44823d;}.f{fill:#f7d133;}.g{fill:#10160f;}.h{fill:#2b5d2e;}.i{fill:#d1ad2b;}.j{fill:#22371a;}</style></defs><g id="a"/><g id="b"><g id="c"><g><g><path class="e" d="M140.97,0V128.3c-.29-.12-64.6-24.27-102.72-73.66C51.7,31.44,75.06,13.28,103.63,5l.04-.04C113.35,2.17,123.59,.49,134.29,.12c2.21-.08,4.43-.12,6.68-.12Z"/><path class="e" d="M64.16,203.1c-17.92,8.59-30.35,5.89-38.27,1.16,.35,9.75,2,19.44,5.16,28.8,0,0,0,.04,.05,.08,29.53,88.33,109.86,82.35,109.86,82.35V157.8c-23.13,21.29-76.8,45.3-76.8,45.3Z"/></g><path class="f" d="M140.97,128.3S51.34,94.73,20.77,25.73c0,0-41.23,88.87-7.52,164.17,1.95,4.36,4.83,8.44,8.75,11.65,7.45,6.1,20.99,11.69,42.16,1.55,0,0,53.69-24.02,76.81-45.31v-29.49Z"/><path class="j" d="M29.37,75.98s-24.41,81.19,23.8,113.47c0,0,45.87-15.04,66.83-41.17,0,0-66.04-34.33-90.63-72.3Z"/><path class="d" d="M38.95,101.48s-13.37,54,19.7,75c0,0,29.57-9.34,42.81-27.61,0,0-45.02-22.01-62.51-47.38Z"/><path class="j" d="M140.96,186.71v128.79s-80.33,5.98-109.86-82.35c.99,1.48,17.02,25.33,39.41,26.81,0,0,25.02-53.29,70.45-73.25Z"/><path class="f" d="M140.97,0V81.16C102.53,52.96,103.63,5,103.63,5l.04-.04C113.35,2.17,123.59,.49,134.29,.12c2.21-.08,4.43-.12,6.68-.12Z"/><g><path class="h" d="M140.97,0V128.3c.29-.12,64.6-24.27,102.72-73.66-13.44-23.2-36.81-41.36-65.38-49.64l-.04-.04C168.6,2.17,158.35,.49,147.66,.12c-2.21-.08-4.43-.12-6.68-.12Z"/><path class="h" d="M217.79,203.1c17.92,8.59,30.35,5.89,38.27,1.16-.35,9.75-2,19.44-5.16,28.8,0,0,0,.04-.05,.08-29.53,88.33-109.86,82.35-109.86,82.35V157.8c23.13,21.29,76.8,45.3,76.8,45.3Z"/></g><path class="i" d="M140.97,128.3s89.63-33.57,120.2-102.57c0,0,41.23,88.87,7.52,164.17-1.95,4.36-4.83,8.44-8.75,11.65-7.45,6.1-20.99,11.69-42.16,1.55,0,0-53.69-24.02-76.81-45.31v-29.49Z"/><path class="g" d="M252.57,75.98s24.41,81.19-23.8,113.47c0,0-45.87-15.04-66.83-41.17,0,0,66.04-34.33,90.63-72.3Z"/><path class="d" d="M243,101.48s13.37,54-19.7,75c0,0-29.57-9.34-42.81-27.61,0,0,45.02-22.01,62.51-47.38Z"/><path class="g" d="M140.99,186.71v128.79s80.33,5.98,109.86-82.35c-.99,1.48-17.02,25.33-39.41,26.81,0,0-25.02-53.29-70.45-73.25Z"/><path class="i" d="M140.97,0V81.16C179.42,52.96,178.32,5,178.32,5l-.04-.04C168.6,2.17,158.35,.49,147.66,.12c-2.21-.08-4.43-.12-6.68-.12Z"/></g></g></g></svg>