<?xml version="1.0" encoding="UTF-8"?><svg xmlns="http://www.w3.org/2000/svg" viewBox="0 0 297.71 324.69"><defs><style>.d{fill:#d0ae2b;}.e{fill:#fff;}.f{fill:#2d1010;}.g{fill:#c1272d;}.h{fill:#f7d133;}.i{fill:#551313;}.j{fill:#9a1c1f;}</style></defs><g id="a"/><g id="b"><g id="c"><g><path class="h" d="M148.86,36.9v109.38s-57.48-14.28-77.02-76.83c0,0,20.18-32.55,77.02-32.55Z"/><path class="g" d="M71.84,69.46c-43.06,56.93-32.23,116.09-23.73,142.92,3.79,11.96,11.16,22.63,21.66,29.52,15.74,10.33,29.65,7.79,39.15,3.23,5.85-2.81,11.02-6.96,15.08-12.02,11.62-14.48,24.86-13.9,24.86-13.9v-72.92s-57.48-14.28-77.02-76.83Z"/><path class="h" d="M124,233.11c-4.06,5.06-9.23,9.21-15.08,12.02-9.49,4.55-23.4,7.09-39.15-3.23-10.49-6.88-17.87-17.55-21.66-29.52,12.98,102.55,100.74,112.31,100.74,112.31v-105.48s-13.24-.58-24.86,13.9Z"/><path class="i" d="M63.54,101.69s-23.47,67.9,3.75,116.71c6.68,11.97,22.97,14.72,33.37,5.79,.16-.14,.32-.28,.48-.42,0,0,22.14-24.42,39.39-32.55,0,0-21.92-29.42-62.24-24.19-5.08,.66-9.89-2.27-11.44-7.14-3.01-9.5-6.31-27.67-3.32-58.19Z"/><path class="e" d="M67.2,183.24s36.52-18.39,59.09,8.79c0,0-39.31,29.79-59.09-8.79Z"/><path class="i" d="M60.86,85.94c-30,51.53-20.43,102.2-12.74,126.42,0,0-61.57-44.61-45.43-186.19C3.63,17.77,4.88,9.06,6.41,0c0,0,33.67,26.96,65.43,69.46-4.14,5.47-7.81,10.98-10.98,16.49Z"/><path class="h" d="M71.84,69.46c-4.14,5.47-7.81,10.98-10.98,16.49C44.22,61.1,18.05,38.36,2.7,26.17,3.63,17.77,4.88,9.06,6.41,0c0,0,33.67,26.96,65.43,69.46Z"/><path class="d" d="M148.86,36.9v109.38s57.48-14.28,77.02-76.83c0,0-20.18-32.55-77.02-32.55Z"/><path class="j" d="M225.87,69.46c43.06,56.93,32.23,116.09,23.73,142.92-3.79,11.96-11.16,22.63-21.66,29.52-15.74,10.33-29.65,7.79-39.15,3.23-5.85-2.81-11.02-6.96-15.08-12.02-11.62-14.48-24.86-13.9-24.86-13.9v-72.92s57.48-14.28,77.02-76.83Z"/><path class="d" d="M173.72,233.11c4.06,5.06,9.23,9.21,15.08,12.02,9.49,4.55,23.4,7.09,39.15-3.23,10.49-6.88,17.87-17.55,21.66-29.52-12.98,102.55-100.74,112.31-100.74,112.31v-105.48s13.24-.58,24.86,13.9Z"/><path class="f" d="M234.17,101.69s23.47,67.9-3.75,116.71c-6.68,11.97-22.97,14.72-33.37,5.79-.16-.14-.32-.28-.48-.42,0,0-22.14-24.42-39.39-32.55,0,0,21.92-29.42,62.24-24.19,5.08,.66,9.89-2.27,11.44-7.14,3.01-9.5,6.31-27.67,3.32-58.19Z"/><path class="e" d="M230.51,183.24s-36.52-18.39-59.09,8.79c0,0,39.31,29.79,59.09-8.79Z"/><path class="f" d="M236.85,85.94c30,51.53,20.43,102.2,12.74,126.42,0,0,61.57-44.61,45.43-186.19-.94-8.4-2.19-17.11-3.71-26.17,0,0-33.67,26.96-65.43,69.46,4.14,5.47,7.81,10.98,10.98,16.49Z"/><path class="d" d="M225.87,69.46c4.14,5.47,7.81,10.98,10.98,16.49,16.64-24.85,42.82-47.58,58.17-59.77-.94-8.4-2.19-17.11-3.71-26.17,0,0-33.67,26.96-65.43,69.46Z"/></g></g></g></svg>