<?xml version="1.0" encoding="UTF-8"?><svg xmlns="http://www.w3.org/2000/svg" viewBox="0 0 271.95 317.25"><defs><style>.d{fill:#394fa0;}.e{fill:#fff;}.f{fill:#222d6b;}.g{fill:#181948;}.h{fill:#29367b;}.i{fill:#80d3f3;}.j{fill:#4fadd1;}</style></defs><g id="a"/><g id="b"><g id="c"><g><path class="d" d="M136,163.77v75.8l-21-21.52-61.01,39.31S-34.69,118.23,78.66,34.63c0,0,13.34,76.74,57.34,129.15Z"/><path class="i" d="M78.66,34.63s13.34,76.74,57.34,129.15V0s-41.01,2.18-57.34,34.63Z"/><path class="i" d="M136,239.57v77.67s-44.01-1.87-82.01-59.89l61.01-39.31,21,21.52Z"/><path class="f" d="M47.99,86.56s-29.5,73.93,9.5,128.68c0,0,49.51-11.28,67.01-39.57,0,0-23.5-29.22-75.51-18.46,0,0-9.21-38.66-1-70.66Z"/><path class="e" d="M50.74,175.68s27.75-23.13,62.51,1.66c0,0-36,31.06-62.51-1.66Z"/><path class="i" d="M27.01,104.61h0l-17.7-31.3s-27.34,72.37,11.67,147.86l22.21,15.93c-13.21-28.09-31.99-81.21-16.18-132.49Z"/><path class="h" d="M135.95,163.77v75.8l21-21.52,61.01,39.31s88.68-139.13-24.67-222.73c0,0-13.34,76.74-57.34,129.15Z"/><path class="j" d="M193.29,34.63s-13.34,76.74-57.34,129.15V0s41.01,2.18,57.34,34.63Z"/><path class="j" d="M135.95,239.57v77.67s44.01-1.87,82.01-59.89l-61.01-39.31-21,21.52Z"/><path class="g" d="M223.96,86.56s29.5,73.93-9.5,128.68c0,0-49.51-11.28-67.01-39.57,0,0,23.5-29.22,75.51-18.46,0,0,9.21-38.66,1-70.66Z"/><path class="e" d="M221.21,175.68s-27.75-23.13-62.51,1.66c0,0,36,31.06,62.51-1.66Z"/><path class="j" d="M244.93,104.61h0l17.7-31.3s27.34,72.37-11.67,147.86l-22.21,15.93c13.21-28.09,31.99-81.21,16.18-132.49Z"/></g></g></g></svg>