<?xml version="1.0" encoding="UTF-8"?><svg xmlns="http://www.w3.org/2000/svg" viewBox="0 0 260.05 296.89"><defs><style>.d{fill:#fff;}.e{fill:#1f1a50;}.f{fill:#814a97;}.g{fill:#652d7b;}.h{fill:#47276e;}.i{fill:#2b296e;}.j{fill:#602d8c;}</style></defs><g id="a"/><g id="b"><g id="c"><g><path class="f" d="M130.02,125.3v31.7s-24.92,37.47-81.37,56.62c0,0-100.02-64.05-13.24-206.69,0,0,5.23,80.23,94.61,118.37Z"/><path class="j" d="M74.36,87.44c13.43,14.09,31.44,27.52,55.67,37.86V52.5l-55.67,34.95Z"/><path class="i" d="M29.14,49.53S-6.93,145.61,47.95,183.74c0,0,41.82-2.97,68.48-40.12,0,0-31.89-31.2-78.93-14.86,0,0-14.64-36.65-8.36-79.24Z"/><path class="d" d="M39.33,146.6s24.83-26.5,64.56-2.72c0,0-34.76,38.38-64.56,2.72Z"/><path class="i" d="M48.65,213.62s-18.61-11.93-32.81-36.94c14.59,126.8,114.18,120.14,114.18,120.14V157s-24.92,37.47-81.37,56.62Z"/><path class="i" d="M44,40.22c5.65,14.18,15,31.12,30.36,47.23h0l55.67-34.95V0C68.95,0,44.07,40.11,44,40.22Z"/><path class="g" d="M130.02,125.3v31.7s24.92,37.47,81.37,56.62c0,0,100.02-64.05,13.24-206.69,0,0-5.23,80.23-94.61,118.37Z"/><path class="h" d="M185.69,87.44c-13.43,14.09-31.44,27.52-55.67,37.86V52.5l55.67,34.95Z"/><path class="e" d="M230.91,49.53s36.07,96.08-18.82,134.22c0,0-41.82-2.97-68.48-40.12,0,0,31.89-31.2,78.93-14.86,0,0,14.64-36.65,8.36-79.24Z"/><path class="d" d="M220.72,146.6s-24.83-26.5-64.56-2.72c0,0,34.76,38.38,64.56,2.72Z"/><path class="e" d="M211.39,213.62s18.61-11.93,32.81-36.94c-14.59,126.8-114.18,120.14-114.18,120.14V157s24.92,37.47,81.37,56.62Z"/><path class="e" d="M216.05,40.22c-5.65,14.18-15,31.12-30.36,47.23h0l-55.67-34.95V0c61.08,0,85.96,40.11,86.03,40.22Z"/></g></g></g></svg>