<?xml version="1.0" encoding="UTF-8"?><svg xmlns="http://www.w3.org/2000/svg" viewBox="0 0 304.38 310.57"><defs><style>.d{fill:#fff;}.e{fill:#006091;}.f{fill:#9e2126;}.g{fill:#c1272d;}.h{fill:#00496e;}.i{fill:#4a89c3;}.j{fill:#3d71a0;}</style></defs><g id="a"/><g id="b"><g id="c"><g><path class="g" d="M152.19,.09V190.12s-12.8-.67-26.8,12.94c-4.13,4.01-8.67,7.57-13.8,10.18-18,9.14-56.7,19.99-84.91-34.2-3.41-6.55-5.83-13.56-7.5-20.76-3.88-16.64-12.49-50.62-19.18-55.24,0,0,54.1,0,124.64,41.09,0,0,1.74-82.37-27.98-131.29-1.14-1.87-.37-4.28,1.67-5.09C105.69,4.83,123.72-.76,152.19,.09Z"/><path class="i" d="M125.4,203.05c-4.13,4.01-8.67,7.57-13.8,10.18-15.14,7.69-44.93,16.57-70.8-13.04h0c-2.1,30.91,28.15,43.01,28.15,43.01,20.09,7.76,26.94,22.83,26.94,22.83,23.74,50.68,56.32,44.28,56.32,44.28v-120.19s-12.8-.67-26.8,12.94Z"/><path class="e" d="M95.87,266.02s-6.85-15.07-26.94-22.83c0,0-11.46-4.6-19.78-15.33,0,0,11.74,51.93,74.09,73.8h0c-8.97-6.39-18.75-17.24-27.37-35.65Z"/><path class="i" d="M124.64,144.13s1.65-79.19-26.31-128.39C38.84,41.77,31.62,107.24,31.62,107.24h0c22.55,4.78,55.45,15.01,93.01,36.89Z"/><path class="e" d="M61.29,141.39s22.94,16.09,49.65,22.6c0,0,12.08,2.52,11.43,13.15-.24,3.94-2.35,7.5-5.33,10.08-5.47,4.72-16.66,10.92-32.8,2.89,0,0-23.97-12.77-22.94-48.73Z"/><path class="d" d="M73.65,156.46s15.01,9.34,32.06,12.51c0,0,7.69,1.16,7.65,7.89-.01,2.49-1.22,4.81-3.01,6.54-3.28,3.17-10.11,7.45-20.56,2.96,0,0-15.54-7.21-16.14-29.89Z"/><path class="e" d="M152.19,230.41c-1.86,1-17.95,6.16-26.58,8.9-3.2,1.02-5.27,4.07-5.06,7.42l1.53,23.91c.2,3.15,1.76,6.06,4.28,7.97l25.84,19.59v-67.8Z"/><path class="f" d="M152.19,.09V190.12s12.8-.67,26.8,12.94c4.13,4.01,8.67,7.57,13.8,10.18,18,9.14,56.7,19.99,84.91-34.2,3.41-6.55,5.83-13.56,7.5-20.76,3.88-16.64,12.49-50.62,19.18-55.24,0,0-54.1,0-124.64,41.09,0,0-1.74-82.37,27.98-131.29,1.14-1.87,.37-4.28-1.67-5.09-7.37-2.92-25.4-8.51-53.87-7.66Z"/><path class="j" d="M178.99,203.05c4.13,4.01,8.67,7.57,13.8,10.18,15.14,7.69,44.93,16.57,70.8-13.04h0c2.1,30.91-28.15,43.01-28.15,43.01-20.09,7.76-26.94,22.83-26.94,22.83-23.74,50.68-56.32,44.28-56.32,44.28v-120.19s12.8-.67,26.8,12.94Z"/><path class="h" d="M208.51,266.02s6.85-15.07,26.94-22.83c0,0,11.46-4.6,19.78-15.33,0,0-11.74,51.93-74.09,73.8h0c8.97-6.39,18.75-17.24,27.37-35.65Z"/><path class="j" d="M179.75,144.13s-1.65-79.19,26.31-128.39c59.49,26.04,66.7,91.5,66.7,91.5h0c-22.55,4.78-55.45,15.01-93.01,36.89Z"/><path class="h" d="M243.09,141.39s-22.94,16.09-49.65,22.6c0,0-12.08,2.52-11.43,13.15,.24,3.94,2.35,7.5,5.33,10.08,5.47,4.72,16.66,10.92,32.8,2.89,0,0,23.97-12.77,22.94-48.73Z"/><path class="d" d="M230.73,156.46s-15.01,9.34-32.06,12.51c0,0-7.69,1.16-7.65,7.89,.01,2.49,1.22,4.81,3.01,6.54,3.28,3.17,10.11,7.45,20.56,2.96,0,0,15.54-7.21,16.14-29.89Z"/><path class="h" d="M152.19,230.41c1.86,1,17.95,6.16,26.58,8.9,3.2,1.02,5.27,4.07,5.06,7.42l-1.53,23.91c-.2,3.15-1.76,6.06-4.28,7.97l-25.84,19.59v-67.8Z"/></g></g></g></svg>