<?xml version="1.0" encoding="UTF-8"?><svg xmlns="http://www.w3.org/2000/svg" viewBox="0 0 268.31 297.8"><defs><style>.d{fill:#fff;}.e{fill:#c1272d;}.f{fill:#f7d133;}.g{fill:#551313;}.h{fill:#301111;}.i{fill:#9f1d21;}.j{fill:#d5b129;}</style></defs><g id="a"/><g id="b"><g id="c"><g><path class="e" d="M86.94,181.73l-10.02,8,5.86,11.89h.04l23.2,46.94h28.15v49.24s-79.01-2.23-99.69-118.8c-.9-4.83-1.65-9.87-2.29-15.09,0,0-25.22-26.87-30.97-71.07l-.04-.04C-2.21,67.11,1.06,35.59,19.64,.11c.04-.07,.04-.11,.04-.11,0,0,9.35,47.05,57.54,36.99,5.14-1.08,9.98-3.03,14.68-5.37,7.06-3.53,21.92-9.4,42.26-9.4V180.11l-25.64-15.6-21.58,17.22Z"/><path class="g" d="M134.16,22.23V104.46c-2.97-18.52-26.42-23.52-46.02-24.42C47.11,78.2,15.36,44.63,19,5.37c.26-2.95,.6-4.86,.64-5.26,.04-.07,.04-.11,.04-.11,0,0,9.35,47.05,57.54,36.99,5.14-1.08,9.98-3.03,14.68-5.37,7.06-3.53,21.92-9.4,42.26-9.4Z"/><path class="f" d="M88.14,80.04C47.11,78.2,15.36,44.63,19,5.37c.26-2.95,.6-4.86,.64-5.26C19.64,.11,0,52.23,40.95,78.05c0,0,13.99,9.14,42.54,13.77,1.05,.17,2.13,.32,3.18,.45,6.23,.75,39.83,6.01,47.48,33.21v-21.01c-2.97-18.52-26.42-23.52-46.02-24.42Z"/><path class="g" d="M76.92,189.73l5.89,11.89h-.04c-.94-.25-31.45-8.72-48.31-22.62-.9-4.83-1.65-9.87-2.29-15.09,0,0-25.22-26.87-30.97-71.07,.9,2.23,30.44,73.23,85.73,88.9l-10.02,8Z"/><polygon class="g" points="106.01 248.55 134.16 280.97 134.16 248.55 106.01 248.55"/><path class="d" d="M102.74,138.47c-8.07,5.01-25.22,12.97-43.61,5.15-5.14-2.16-9.72-5.26-13.55-9.04-7.13-6.99-11.6-16.28-12.09-26.26-.19-4.21,.26-8.9,1.84-13.76,0,0,17.49,18.91,57.24,22.51,0,0,12.54,.36,15.35,8.97,1.5,4.72-.86,9.76-5.18,12.43Z"/><path class="g" d="M41.03,109.65c-.64,8.61,1.99,18.05,4.54,24.93-7.13-6.99-11.6-16.28-12.09-26.26-.19-4.21,.26-8.9,1.84-13.76,0,0,17.49,18.91,57.24,22.51-24.32,3.67-51.53-7.42-51.53-7.42Z"/><path class="i" d="M181.37,181.73l10.02,8-5.86,11.89h-.04l-23.2,46.94h-28.15v49.24s79.01-2.23,99.69-118.8c.9-4.83,1.65-9.87,2.29-15.09,0,0,25.22-26.87,30.97-71.07l.04-.04c3.38-25.68,.11-57.2-18.47-92.69-.04-.07-.04-.11-.04-.11,0,0-9.35,47.05-57.54,36.99-5.14-1.08-9.98-3.03-14.68-5.37-7.06-3.53-21.92-9.4-42.26-9.4V180.11l25.64-15.6,21.58,17.22Z"/><path class="h" d="M134.16,22.23V104.46c2.97-18.52,26.42-23.52,46.02-24.42,41.02-1.84,72.78-35.41,69.14-74.67-.26-2.95-.6-4.86-.64-5.26-.04-.07-.04-.11-.04-.11,0,0-9.35,47.05-57.54,36.99-5.14-1.08-9.98-3.03-14.68-5.37-7.06-3.53-21.92-9.4-42.26-9.4Z"/><path class="j" d="M180.17,80.04c41.02-1.84,72.78-35.41,69.14-74.67-.26-2.95-.6-4.86-.64-5.26,0,0,19.64,52.12-21.31,77.94,0,0-13.99,9.14-42.54,13.77-1.05,.17-2.13,.32-3.18,.45-6.23,.75-39.83,6.01-47.48,33.21v-21.01c2.97-18.52,26.42-23.52,46.02-24.42Z"/><path class="h" d="M191.4,189.73l-5.89,11.89h.04c.94-.25,31.45-8.72,48.31-22.62,.9-4.83,1.65-9.87,2.29-15.09,0,0,25.22-26.87,30.97-71.07-.9,2.23-30.44,73.23-85.73,88.9l10.02,8Z"/><polygon class="h" points="162.31 248.55 134.16 280.97 134.16 248.55 162.31 248.55"/><path class="d" d="M165.57,138.47c8.07,5.01,25.22,12.97,43.61,5.15,5.14-2.16,9.72-5.26,13.55-9.04,7.13-6.99,11.6-16.28,12.09-26.26,.19-4.21-.26-8.9-1.84-13.76,0,0-17.49,18.91-57.24,22.51,0,0-12.54,.36-15.35,8.97-1.5,4.72,.86,9.76,5.18,12.43Z"/><path class="h" d="M227.28,109.65c.64,8.61-1.99,18.05-4.54,24.93,7.13-6.99,11.6-16.28,12.09-26.26,.19-4.21-.26-8.9-1.84-13.76,0,0-17.49,18.91-57.24,22.51,24.32,3.67,51.53-7.42,51.53-7.42Z"/></g></g></g></svg>