<?xml version="1.0" encoding="UTF-8"?>
<svg width="700pt" height="700pt" version="1.1" viewBox="0 0 700 700" xmlns="http://www.w3.org/2000/svg">
 <g>
  <path d="m70 140c0-12.887 10.445-23.332 23.332-23.332h513.34c12.887 0 23.332 10.445 23.332 23.332s-10.445 23.332-23.332 23.332h-513.34c-12.887 0-23.332-10.445-23.332-23.332z"/>
  <path d="m70 280c0-12.887 10.445-23.332 23.332-23.332h513.34c12.887 0 23.332 10.445 23.332 23.332s-10.445 23.332-23.332 23.332h-513.34c-12.887 0-23.332-10.445-23.332-23.332z"/>
  <path d="m93.332 396.67c-12.887 0-23.332 10.445-23.332 23.332s10.445 23.332 23.332 23.332h513.34c12.887 0 23.332-10.445 23.332-23.332s-10.445-23.332-23.332-23.332z"/>
 </g>
</svg>
