<?xml version="1.0" encoding="utf-8"?>
<!-- Generator: Adobe Illustrator 26.2.1, SVG Export Plug-In . SVG Version: 6.00 Build 0)  -->
<svg version="1.1" id="Layer_1" xmlns="http://www.w3.org/2000/svg" xmlns:xlink="http://www.w3.org/1999/xlink" x="0px" y="0px"
	 viewBox="0 0 560 326.7" style="enable-background:new 0 0 560 326.7;" xml:space="preserve">
<g>
	<path d="M0,23.3C0,10.4,10.4,0,23.3,0h513.3C549.6,0,560,10.4,560,23.3s-10.4,23.3-23.3,23.3H23.3C10.4,46.7,0,36.2,0,23.3L0,23.3z
		"/>
	<path d="M0,163.3C0,150.4,10.4,140,23.3,140h513.3c12.9,0,23.3,10.4,23.3,23.3s-10.4,23.3-23.3,23.3H23.3
		C10.4,186.7,0,176.2,0,163.3L0,163.3z"/>
	<path d="M23.3,280C10.4,280,0,290.4,0,303.3s10.4,23.3,23.3,23.3h513.3c12.9,0,23.3-10.4,23.3-23.3S549.6,280,536.7,280H23.3z"/>
</g>
</svg>
