<?xml version="1.0" encoding="utf-8"?>
<!-- Generator: Adobe Illustrator 26.2.1, SVG Export Plug-In . SVG Version: 6.00 Build 0)  -->
<svg version="1.1" id="Layer_1" xmlns="http://www.w3.org/2000/svg" xmlns:xlink="http://www.w3.org/1999/xlink" x="0px" y="0px"
	 viewBox="0 0 296.5 475.1" style="enable-background:new 0 0 296.5 475.1;" xml:space="preserve">
<style type="text/css">
	.st0{fill-rule:evenodd;clip-rule:evenodd;}
</style>
<g>
	<path d="M166.1,49.7v5.3h28c3.3,0,6.2,1.8,7.8,4.4c2,1.7,3.3,4.2,3.1,7l-0.7,7.8l82,0v390.8l-276.3,0V74.1h83.1v-9.9
		c0-5.1,4.2-9.2,9.2-9.2h29.7v-5.3H0v425.5h296.5V49.7L166.1,49.7z"/>
	<path d="M203.3,74.1h1l0.7-7.8c0.2-2.8-1.1-5.3-3.1-7c0.9,1.4,1.4,3.1,1.4,4.8L203.3,74.1z"/>
	<path d="M164.4,49.7h1.7v5.3h-1.7V49.7z"/>
	<path d="M106.5,57.7c-4.6,0-8.4,3.8-8.4,8.4v19.8h100.4l0-10.8v-9c0-1.6-0.5-3.1-1.3-4.4c-1.5-2.4-4.1-4-7.1-4h-27v-43
		C163,6.6,156.3,0,148.3,0c-8.1,0-14.7,6.6-14.7,14.7v43L106.5,57.7z M148.3,8c3.7,0,6.8,3,6.8,6.8c0,3.7-3,6.8-6.8,6.8
		c-3.7,0-6.8-3-6.8-6.8C141.5,11,144.5,8,148.3,8z"/>
	<path class="st0" d="M77.6,125h141.3v12.4H77.6V125z"/>
	<path class="st0" d="M29.4,156.1h237.7v12.4H29.4V156.1z"/>
	<path class="st0" d="M29.4,177.8h237.7v12.4H29.4V177.8z"/>
	<path class="st0" d="M29.4,199.6h237.7V212H29.4V199.6z"/>
	<path class="st0" d="M29.4,221.4h111.4v12.4H29.4L29.4,221.4z"/>
	<path d="M151.6,449.5l-46.3-68.9c-2.9-4.3-1.8-10.2,2.6-13.2c4.3-2.9,10.2-1.8,13.2,2.6l34.3,51l97.4-85.3
		c3.9-3.5,9.9-3.1,13.4,0.9c3.4,3.9,3.1,9.9-0.9,13.4L151.6,449.5z"/>
</g>
</svg>
