<?xml version="1.0" encoding="utf-8"?>
<!-- Generator: Adobe Illustrator 26.2.1, SVG Export Plug-In . SVG Version: 6.00 Build 0)  -->
<svg version="1.1" id="Layer_1" xmlns="http://www.w3.org/2000/svg" xmlns:xlink="http://www.w3.org/1999/xlink" x="0px" y="0px"
	 viewBox="0 0 544.2 261.7" style="enable-background:new 0 0 544.2 261.7;" xml:space="preserve">
<g>
	<path d="M272.1,0C170.6,0,69.6,43.3,0,130.8c139.1,174.6,405.1,174.6,544.2,0C474.7,43.3,373.2,0,272.1,0L272.1,0z M272.1,230.1
		c-54.7,0-99.3-44.2-99.3-99.3c0-54.7,44.2-99.3,99.3-99.3s99.3,44.6,99.3,99.3S326.8,230.1,272.1,230.1z"/>
	<path d="M309.7,116.4c-15.3,0-28-12.2-28-28c0-8.3,3.5-15.3,9.2-20.6c-6.1-1.3-12.2-2.6-18.8-2.6c-36.3,0-65.6,29.3-65.6,65.6
		s29.3,65.6,65.6,65.6s65.6-29.3,65.6-65.6c0-9.2-1.8-17.9-5.2-25.8C327.2,112,318.9,116.4,309.7,116.4L309.7,116.4z"/>
</g>
</svg>
