<svg xmlns="http://www.w3.org/2000/svg" width="1169" height="312" viewBox="0 0 1169 312" version="1.1"><path d="M 984.798 28.049 C 981.884 31.047, 969.745 44.075, 957.823 57 C 945.900 69.925, 931.950 84.639, 926.823 89.698 C 917.500 98.896, 917.500 98.896, 906 101.461 C 899.675 102.872, 890.487 105.176, 885.583 106.579 C 880.678 107.983, 873.703 110.565, 870.083 112.316 C 863.500 115.500, 863.500 115.500, 873.230 115.786 C 880.158 115.990, 883.758 115.662, 885.730 114.650 C 887.254 113.867, 892.325 112.034, 897 110.576 C 901.675 109.118, 906.400 107.666, 907.500 107.349 C 908.600 107.032, 905.936 110.087, 901.581 114.137 C 897.225 118.186, 889.779 124.657, 885.034 128.515 C 880.289 132.374, 874.145 136.982, 871.381 138.755 C 868.618 140.529, 864.926 142.478, 863.178 143.088 C 861.430 143.697, 860 144.602, 860 145.098 C 860 145.594, 864.462 146, 869.916 146 C 879.832 146, 879.832 146, 887.666 140.799 C 892.553 137.554, 901.798 129.319, 912.242 118.908 C 928.983 102.220, 928.983 102.220, 940.524 100.475 C 946.871 99.516, 952.223 98.904, 952.417 99.115 C 952.612 99.327, 949.208 105.125, 944.852 112 C 940.497 118.875, 934.531 129.225, 931.595 135 C 928.659 140.775, 925.201 148.650, 923.911 152.500 C 922.408 156.986, 921.566 161.835, 921.566 166 C 921.567 170.267, 922.166 173.617, 923.309 175.750 C 925.051 179, 925.051 179, 934.026 179 C 938.962 179, 943 178.801, 943 178.557 C 943 178.314, 941.987 176.401, 940.750 174.307 C 938.933 171.232, 938.529 169.144, 938.650 163.452 C 938.761 158.268, 939.804 153.376, 942.597 144.952 C 944.734 138.504, 950.401 125.635, 955.565 115.500 C 964.738 97.500, 964.738 97.500, 975.439 97.654 C 981.325 97.738, 986.326 97.993, 986.553 98.220 C 986.780 98.446, 986.454 99.985, 985.830 101.640 C 985.206 103.294, 985.004 105.881, 985.383 107.390 C 985.839 109.209, 987.172 110.592, 989.341 111.498 C 991.139 112.249, 996.523 113.182, 1001.305 113.570 C 1006.087 113.958, 1010 114.613, 1010 115.025 C 1010 115.438, 1008.400 118.102, 1006.444 120.946 C 1004.487 123.789, 1000.388 129.350, 997.335 133.302 C 994.281 137.255, 990.413 143.191, 988.740 146.494 C 986.926 150.074, 985.657 154.174, 985.599 156.645 C 985.533 159.411, 986.128 161.483, 987.387 162.875 C 988.425 164.022, 990.687 165.226, 992.414 165.550 C 994.443 165.930, 997.587 165.378, 1001.298 163.990 C 1004.457 162.808, 1010.520 159.238, 1014.771 156.057 C 1019.022 152.876, 1026.151 146.724, 1030.613 142.387 C 1038.726 134.500, 1038.726 134.500, 1034.804 141.500 C 1032.647 145.350, 1029.962 150.525, 1028.839 153 C 1027.715 155.475, 1026.563 159.143, 1026.279 161.151 C 1025.847 164.212, 1026.130 164.999, 1028.031 166.017 C 1029.437 166.769, 1032.021 166.995, 1034.826 166.610 C 1037.315 166.269, 1042.310 164.368, 1045.926 162.385 C 1049.542 160.402, 1058.032 154.931, 1064.792 150.227 C 1071.553 145.523, 1083.928 136.175, 1092.292 129.452 C 1100.657 122.730, 1109.270 115.681, 1111.433 113.787 C 1113.746 111.763, 1114.929 110.074, 1114.305 109.688 C 1113.721 109.328, 1103.851 116.530, 1092.372 125.693 C 1080.892 134.857, 1068.184 144.522, 1064.132 147.170 C 1060.080 149.819, 1055.019 152.456, 1052.886 153.031 C 1050.094 153.782, 1048.414 153.757, 1046.886 152.939 C 1045.103 151.985, 1044.849 151.165, 1045.298 147.816 C 1045.592 145.623, 1047.607 140.155, 1049.775 135.665 C 1051.944 131.174, 1056.619 122.530, 1060.164 116.456 C 1063.710 110.381, 1071.761 97.501, 1078.055 87.833 C 1089.500 70.255, 1089.500 70.255, 1094.500 69.659 C 1097.250 69.331, 1106.475 68.327, 1115 67.427 C 1123.525 66.527, 1138.034 65.725, 1147.243 65.645 C 1159.229 65.541, 1163.988 65.169, 1163.993 64.335 C 1163.997 63.617, 1161.208 62.909, 1156.716 62.488 C 1152.709 62.113, 1139.547 62.307, 1127.466 62.919 C 1115.385 63.531, 1102.912 64.308, 1099.750 64.645 C 1096.588 64.982, 1094 64.914, 1094 64.493 C 1094 64.071, 1098.324 57.672, 1103.608 50.272 C 1110.116 41.159, 1112.889 36.489, 1112.200 35.800 C 1111.512 35.112, 1109.082 37.481, 1104.671 43.142 C 1101.088 47.739, 1095.744 54.645, 1092.795 58.488 C 1089.742 62.465, 1086.370 65.773, 1084.966 66.166 C 1083.610 66.546, 1074.960 68.027, 1065.743 69.457 C 1056.527 70.887, 1043.867 73.350, 1037.609 74.931 C 1031.351 76.511, 1024.041 78.861, 1021.365 80.152 C 1016.500 82.500, 1016.500 82.500, 1025.778 82.788 C 1033.802 83.037, 1036.309 82.675, 1044.317 80.110 C 1049.410 78.478, 1059.778 75.942, 1067.357 74.473 C 1074.936 73.005, 1081.362 72.028, 1081.636 72.303 C 1081.911 72.577, 1078.362 77.909, 1073.750 84.151 C 1069.137 90.393, 1061.915 100.455, 1057.701 106.512 C 1053.486 112.569, 1046.317 121.538, 1041.769 126.444 C 1037.221 131.350, 1029.832 138.570, 1025.349 142.490 C 1020.867 146.409, 1014.539 151.033, 1011.288 152.766 C 1008.037 154.498, 1003.493 156.217, 1001.189 156.586 C 997.147 157.232, 997 157.162, 997 154.578 C 997 153.106, 997.742 150.466, 998.648 148.713 C 999.555 146.960, 1003.096 141.694, 1006.517 137.013 C 1009.938 132.331, 1013.471 127.060, 1014.368 125.300 C 1015.266 123.539, 1016 120.332, 1016 118.172 C 1016 115.862, 1015.368 113.721, 1014.465 112.971 C 1013.621 112.270, 1009.320 111.380, 1004.908 110.992 C 1000.496 110.604, 996.405 109.805, 995.817 109.217 C 995.228 108.628, 995.016 107.072, 995.346 105.758 C 995.676 104.444, 998.913 99.891, 1002.541 95.639 C 1009.136 87.910, 1009.136 87.910, 1001.864 88.205 C 994.636 88.498, 994.573 88.525, 991.435 92.645 C 989.152 95.643, 987.894 96.547, 986.889 95.910 C 986.125 95.427, 981.337 95.024, 976.250 95.015 C 971.163 95.007, 967 94.780, 967 94.512 C 967 94.243, 971.923 84.455, 977.939 72.762 C 983.955 61.068, 990.030 48.046, 991.439 43.824 C 992.848 39.602, 993.997 34.427, 993.993 32.324 C 993.990 30.221, 993.112 27.172, 992.042 25.549 C 990.097 22.599, 990.097 22.599, 984.798 28.049 M 416.764 27.780 C 415.388 29.860, 408.879 40.322, 402.299 51.030 C 395.719 61.739, 385.141 79.275, 378.793 90 C 372.444 100.725, 364.098 115.138, 360.246 122.030 C 356.393 128.921, 351.225 138.596, 348.761 143.530 C 346.298 148.463, 343.502 154.879, 342.549 157.786 C 341.192 161.925, 341.074 163.384, 342.008 164.510 C 343.030 165.741, 343.582 165.749, 345.851 164.570 C 347.308 163.812, 356.160 155.387, 365.523 145.846 C 374.886 136.306, 393.955 116.238, 407.899 101.250 C 421.843 86.262, 433.376 74, 433.528 74 C 433.680 74, 430.754 80.638, 427.028 88.750 C 423.301 96.862, 418.620 107.868, 416.626 113.206 C 414.632 118.545, 413 124.507, 413 126.456 C 413 129.266, 413.392 130, 414.892 130 C 415.932 130, 419.115 127.904, 421.964 125.343 C 424.813 122.781, 437.124 109.636, 449.322 96.131 C 461.520 82.626, 475.512 67.374, 480.416 62.238 C 485.321 57.102, 490.634 51.973, 492.224 50.840 C 493.814 49.708, 495.321 48.987, 495.572 49.239 C 495.823 49.490, 495.071 52.802, 493.899 56.598 C 492.728 60.394, 487.504 73.625, 482.290 86 C 477.076 98.375, 471.532 112.325, 469.971 117 C 468.409 121.675, 466.377 129.259, 465.454 133.853 C 464.460 138.805, 464.038 143.835, 464.417 146.208 C 464.769 148.409, 465.749 151.548, 466.595 153.184 C 467.441 154.819, 469.663 156.797, 471.534 157.579 C 473.405 158.360, 475.888 159, 477.051 159 C 478.296 159, 478.998 158.485, 478.756 157.750 C 478.530 157.063, 477.148 156.358, 475.684 156.185 C 474.220 156.011, 472.342 154.899, 471.511 153.712 C 470.647 152.478, 470 149.391, 470 146.500 C 470 143.719, 471.169 137.865, 472.598 133.489 C 474.027 129.114, 477.339 120.748, 479.958 114.898 C 482.577 109.048, 489.931 94.606, 496.301 82.804 C 502.671 71.003, 510.630 55.765, 513.988 48.943 C 518.920 38.921, 520.036 35.767, 519.796 32.519 C 519.525 28.841, 519.240 28.475, 516.428 28.200 C 514.070 27.970, 511.884 28.984, 507.022 32.563 C 503.539 35.127, 495.203 42.687, 488.499 49.363 C 481.794 56.038, 465.102 73.832, 451.404 88.905 C 437.707 103.977, 424.383 118.602, 421.795 121.405 C 419.208 124.207, 417.070 125.938, 417.045 125.252 C 417.020 124.565, 419.845 118.940, 423.323 112.752 C 426.801 106.563, 435.752 90.925, 443.215 78 C 450.678 65.075, 457.818 52.372, 459.081 49.772 C 460.344 47.172, 461.132 44.798, 460.832 44.498 C 460.532 44.198, 459.654 44.196, 458.881 44.492 C 458.108 44.789, 447.581 55.281, 435.488 67.809 C 423.395 80.337, 405.632 99.118, 396.015 109.544 C 386.399 119.970, 371.137 136.037, 362.100 145.250 C 353.064 154.463, 345.306 162, 344.860 162 C 344.414 162, 344.493 160.832, 345.036 159.405 C 345.579 157.978, 347.884 153.590, 350.160 149.655 C 352.435 145.720, 360.537 133.147, 368.165 121.716 C 375.792 110.285, 388.184 92.285, 395.701 81.716 C 403.219 71.147, 415.274 54.400, 422.492 44.500 C 429.709 34.600, 435.952 25.938, 436.366 25.250 C 436.945 24.287, 435.067 24, 428.192 24 C 419.266 24, 419.266 24, 416.764 27.780 M 976.451 43.723 C 969.328 52.921, 957.711 67.433, 950.636 75.973 C 943.560 84.513, 936.810 92.550, 935.636 93.833 C 933.500 96.165, 933.500 96.165, 944.500 95.481 C 953.853 94.899, 955.725 94.498, 957 92.799 C 957.825 91.700, 963.364 83.308, 969.309 74.150 C 975.254 64.993, 982.404 52.925, 985.198 47.332 C 988.590 40.543, 990.440 35.476, 990.766 32.082 C 991.035 29.280, 990.839 27, 990.329 27 C 989.819 27, 983.575 34.525, 976.451 43.723 M 700.510 38.735 C 698.866 41.338, 692.934 49.576, 687.329 57.042 C 681.723 64.508, 671.386 77.340, 664.358 85.558 C 657.330 93.776, 645.487 106.731, 638.040 114.347 C 630.593 121.963, 620.953 130.875, 616.617 134.151 C 610.283 138.938, 608.123 140.047, 605.617 139.803 C 602.976 139.546, 602.370 138.965, 601.652 136 C 600.997 133.297, 601.313 131.151, 603.039 126.577 C 604.268 123.319, 608.029 116.584, 611.398 111.609 C 614.766 106.635, 619.030 101.549, 620.873 100.307 C 622.716 99.065, 625.828 97.748, 627.789 97.380 C 630.882 96.800, 631.674 97.082, 633.764 99.512 C 635.530 101.565, 636.008 103.005, 635.555 104.907 C 635.215 106.333, 634.839 108.127, 634.719 108.892 C 634.598 109.658, 634.985 110.457, 635.578 110.668 C 636.170 110.879, 637.183 109.894, 637.828 108.479 C 638.472 107.064, 639 104.869, 639 103.601 C 639 102.333, 637.987 99.808, 636.750 97.990 C 635.513 96.172, 633.314 93.806, 631.864 92.732 C 630.415 91.658, 627.220 90.554, 624.764 90.277 C 621.561 89.916, 618.978 90.358, 615.621 91.843 C 613.048 92.981, 608.263 96.469, 604.988 99.592 C 601.713 102.716, 597.686 107.372, 596.039 109.939 C 594.392 112.505, 590.222 117.065, 586.772 120.072 C 583.323 123.078, 578.250 127.371, 575.500 129.611 C 572.750 131.852, 567.110 135.978, 562.968 138.782 C 558.825 141.585, 552.525 145.256, 548.968 146.939 C 544.350 149.123, 541.020 149.999, 537.327 149.999 C 533.251 150, 531.516 149.463, 529.149 147.472 C 527.496 146.081, 525.378 142.937, 524.441 140.485 C 523.204 137.244, 522.922 134.648, 523.409 130.973 C 523.778 128.194, 524.557 124.872, 525.140 123.593 C 526.099 121.487, 527.020 121.216, 534.850 120.738 C 539.901 120.430, 546.627 119.202, 551.016 117.786 C 555.149 116.452, 561.088 113.726, 564.212 111.727 C 567.336 109.729, 570.679 106.894, 571.640 105.427 C 573.314 102.873, 573.305 102.608, 571.444 99.161 C 570.375 97.181, 567.971 94.535, 566.102 93.281 C 563.559 91.574, 561.277 91, 557.034 91 C 553.915 91, 548.919 91.718, 545.932 92.596 C 542.944 93.474, 537.430 95.797, 533.678 97.758 C 529.926 99.719, 523.599 104.365, 519.617 108.084 C 514.504 112.859, 511.372 116.827, 508.951 121.596 C 506.203 127.011, 505.540 129.452, 505.606 133.924 C 505.660 137.553, 506.451 140.989, 507.871 143.763 C 509.072 146.108, 511.875 149.346, 514.100 150.958 C 516.326 152.570, 520.479 154.373, 523.329 154.965 C 526.804 155.686, 530.180 155.724, 533.572 155.081 C 536.354 154.554, 541.578 153.013, 545.179 151.657 C 548.781 150.301, 553.252 148.418, 555.114 147.473 C 556.976 146.527, 562.848 142.645, 568.162 138.845 C 573.477 135.045, 580.946 129.047, 584.761 125.515 C 591.697 119.093, 591.697 119.093, 591.233 123.930 C 590.977 126.590, 591.295 130.365, 591.940 132.317 C 592.584 134.270, 594.888 137.473, 597.059 139.434 C 600.295 142.358, 601.781 143, 605.307 143 C 608.396 143, 610.981 142.129, 614.479 139.911 C 617.158 138.212, 624.558 131.718, 630.925 125.480 C 642.500 114.137, 642.500 114.137, 635.708 127.818 C 631.973 135.343, 627.982 144.571, 626.838 148.325 C 625.427 152.957, 624.914 156.755, 625.240 160.149 C 625.508 162.932, 626.464 165.892, 627.398 166.825 C 628.562 167.988, 630.669 168.477, 634.288 168.426 C 637.843 168.376, 641.136 167.512, 644.646 165.712 C 647.477 164.260, 653.182 160.345, 657.324 157.013 C 661.466 153.680, 668.687 146.884, 673.370 141.909 C 681.885 132.864, 681.885 132.864, 682.192 137.658 C 682.442 141.541, 682.951 142.676, 684.875 143.631 C 686.554 144.464, 688.094 144.515, 690.132 143.804 C 691.717 143.251, 696.904 140.358, 701.657 137.373 C 706.410 134.389, 721.296 124.274, 734.737 114.895 C 748.178 105.516, 759.321 97.990, 759.500 98.171 C 759.678 98.352, 753.131 107.725, 744.951 119 C 736.771 130.275, 728.207 142.768, 725.919 146.762 C 723.632 150.756, 720.868 156.447, 719.777 159.410 C 718.039 164.128, 717.960 165.144, 719.146 167.612 C 719.995 169.378, 721.708 170.774, 723.741 171.356 C 726.470 172.137, 727.969 171.795, 733.241 169.189 C 736.683 167.487, 743.325 163.045, 748 159.317 C 752.675 155.589, 762.043 146.905, 768.818 140.019 C 775.593 133.134, 784.031 123.917, 787.568 119.538 C 791.106 115.159, 794 110.959, 794 110.205 C 794 109.450, 793.588 108.983, 793.084 109.167 C 792.579 109.350, 787.754 114.675, 782.360 121 C 776.967 127.325, 768.942 136.016, 764.527 140.313 C 760.112 144.610, 753.200 150.348, 749.166 153.063 C 744.631 156.116, 740.742 158, 738.975 158 C 737.404 158, 735.778 157.450, 735.363 156.779 C 734.948 156.107, 734.709 154.233, 734.832 152.615 C 734.956 150.997, 736.412 147.160, 738.069 144.087 C 739.726 141.014, 746.125 131.275, 752.291 122.445 C 758.456 113.615, 764.380 104.745, 765.457 102.734 C 766.992 99.864, 767.203 98.479, 766.436 96.298 C 765.898 94.770, 764.682 93.370, 763.734 93.187 C 762.785 93.005, 755.748 97.150, 748.095 102.400 C 735.964 110.721, 734.372 111.561, 735.675 108.950 C 736.709 106.877, 736.955 104.691, 736.473 101.842 C 736.036 99.253, 734.551 96.389, 732.466 94.114 C 729.534 90.915, 728.599 90.501, 724.327 90.507 C 721.258 90.512, 717.679 91.402, 714.500 92.952 C 711.552 94.389, 706 98.899, 700.969 103.944 C 696.277 108.650, 690.250 115.875, 687.575 120 C 684.608 124.574, 677.209 132.988, 668.605 141.570 C 660.847 149.309, 652.031 157.296, 649.013 159.320 C 645.996 161.344, 642.499 163, 641.242 163 C 639.759 163, 638.546 162.099, 637.787 160.431 C 636.891 158.465, 636.895 156.532, 637.805 152.196 C 638.458 149.079, 641.099 142.287, 643.672 137.102 C 646.245 131.916, 652.036 122.156, 656.539 115.412 C 661.043 108.668, 668.242 98.504, 672.538 92.825 C 676.834 87.146, 684.201 77.775, 688.908 72 C 693.616 66.225, 702.997 55.313, 709.754 47.750 C 722.040 34, 722.040 34, 712.770 34.002 C 703.500 34.004, 703.500 34.004, 700.510 38.735 M 553.115 95.548 C 551.254 96.356, 546.840 99.079, 543.308 101.600 C 539.776 104.120, 534.904 108.708, 532.481 111.795 C 530.058 114.883, 528.231 117.564, 528.421 117.754 C 528.611 117.944, 531.632 117.139, 535.133 115.965 C 538.635 114.791, 543.075 112.873, 545 111.703 C 546.925 110.533, 550.906 107.314, 553.847 104.551 C 556.787 101.788, 559.836 98.284, 560.622 96.764 C 562.018 94.064, 561.987 94.001, 559.276 94.039 C 557.749 94.061, 554.977 94.739, 553.115 95.548 M 722.500 101.898 C 720.850 102.937, 714.723 108.673, 708.885 114.644 C 703.047 120.615, 695.734 128.544, 692.635 132.263 C 689.536 135.983, 687 139.696, 687 140.513 C 687 141.331, 687.300 142, 687.667 142 C 688.034 142, 691.222 140.413, 694.752 138.472 C 698.281 136.532, 708.106 130.139, 716.585 124.266 C 726.510 117.390, 732 112.965, 732 111.840 C 732 110.880, 732.522 108.948, 733.161 107.547 C 734.032 105.634, 734.037 104.378, 733.182 102.500 C 732.304 100.573, 731.293 100.001, 728.771 100.004 C 726.972 100.006, 724.150 100.858, 722.500 101.898 M 828.173 148.170 C 824.693 148.569, 820.193 149.431, 818.173 150.085 C 816.153 150.740, 812.025 152.516, 809 154.032 C 805.975 155.549, 801.400 158.642, 798.834 160.906 C 796.267 163.170, 793.155 167.114, 791.917 169.671 C 790.391 172.824, 789.674 176.119, 789.689 179.910 C 789.701 182.985, 790.427 187.185, 791.302 189.244 C 792.893 192.989, 792.893 192.989, 790.197 193.570 C 788.713 193.890, 784.521 195.013, 780.880 196.065 C 777.239 197.118, 771.535 199.798, 768.205 202.022 C 764.874 204.246, 760.769 207.638, 759.081 209.561 C 757.393 211.483, 755.050 214.942, 753.873 217.248 C 752.676 219.595, 751.513 224.198, 751.232 227.701 C 750.932 231.433, 751.266 235.888, 752.059 238.731 C 753.007 242.128, 754.852 244.966, 758.476 248.596 C 761.945 252.073, 765.459 254.415, 769.531 255.965 C 773.464 257.461, 778.571 258.404, 784.500 258.726 C 791.043 259.083, 795.253 258.758, 799.920 257.537 C 803.451 256.613, 808.851 254.589, 811.920 253.040 C 814.989 251.491, 819.806 247.784, 822.625 244.803 C 825.444 241.823, 828.567 237.835, 829.566 235.942 C 830.668 233.852, 831.405 230.275, 831.441 226.837 C 831.487 222.449, 830.986 220.479, 829.220 218.087 C 826.940 215, 826.940 215, 830.260 215 C 832.086 215, 836.228 214.310, 839.465 213.467 C 842.702 212.624, 847.573 210.725, 850.289 209.246 C 853.006 207.768, 856.302 204.978, 857.614 203.047 C 858.926 201.116, 860 198.311, 860 196.815 C 860 195.318, 859.478 192.948, 858.839 191.547 C 858.201 190.146, 857.028 189, 856.232 189 C 855.241 189, 855.018 189.551, 855.522 190.750 C 855.926 191.713, 856.457 193.410, 856.702 194.522 C 856.951 195.656, 856.194 197.756, 854.979 199.300 C 853.786 200.816, 851.166 202.894, 849.155 203.918 C 847.145 204.942, 843.025 206.574, 840 207.544 C 835.777 208.899, 829.391 209.460, 812.500 209.958 C 792.299 210.554, 790.111 210.796, 785.744 212.917 C 783.128 214.187, 779.865 216.560, 778.493 218.190 C 777.122 219.820, 775.716 222.285, 775.369 223.668 C 775.022 225.050, 775.273 227.968, 775.928 230.153 C 776.582 232.337, 778.620 235.788, 780.457 237.821 C 782.294 239.854, 785.610 242.536, 787.825 243.782 C 790.229 245.133, 792.100 245.648, 792.463 245.059 C 792.799 244.517, 792.269 243.378, 791.286 242.528 C 790.304 241.679, 787.925 239.674, 786 238.074 C 782.823 235.433, 782.500 234.685, 782.500 229.972 C 782.500 225.311, 782.841 224.496, 785.835 221.997 C 787.669 220.465, 791.269 218.604, 793.835 217.861 C 796.401 217.117, 801.650 216.537, 805.500 216.571 C 810.657 216.617, 813.610 217.209, 816.717 218.820 C 819.036 220.023, 821.398 221.875, 821.967 222.938 C 822.535 224, 823 226.385, 823 228.238 C 823 230.091, 821.853 233.908, 820.452 236.721 C 819.051 239.533, 815.867 243.712, 813.377 246.007 C 810.887 248.301, 806.296 251.367, 803.175 252.819 C 798.897 254.809, 795.531 255.543, 789.500 255.803 C 782.574 256.100, 780.896 255.824, 777 253.746 C 774.150 252.225, 771.485 249.706, 769.731 246.875 C 767.771 243.710, 766.790 240.521, 766.372 235.953 C 765.975 231.612, 766.284 227.592, 767.316 223.671 C 768.161 220.466, 770.347 215.359, 772.176 212.323 C 774.004 209.287, 777.660 205.076, 780.301 202.965 C 782.941 200.854, 787.353 198.379, 790.105 197.465 C 795.109 195.803, 795.109 195.803, 799.135 198.594 C 802.116 200.659, 804.700 201.495, 809.083 201.812 C 812.916 202.090, 815.533 201.802, 816.502 200.998 C 817.326 200.314, 818 198.662, 818 197.327 C 818 195.466, 817.124 194.532, 814.253 193.332 C 811.587 192.218, 808.858 191.939, 804.795 192.364 C 799.083 192.961, 799.083 192.961, 798.412 189.384 C 798.036 187.377, 798.276 183.984, 798.960 181.654 C 799.630 179.369, 801.540 175.355, 803.204 172.734 C 804.867 170.113, 808.315 166.129, 810.864 163.880 C 813.414 161.632, 817.644 158.702, 820.265 157.371 C 822.886 156.040, 827.744 154.256, 831.061 153.406 C 834.572 152.506, 838.429 152.140, 840.295 152.529 C 842.058 152.896, 844.513 153.838, 845.750 154.621 C 846.987 155.405, 848 156.668, 848 157.428 C 848 158.453, 847.009 158.677, 844.159 158.295 C 840.846 157.850, 840.022 158.157, 838.159 160.525 C 836.972 162.034, 836 164.048, 836 165 C 836 165.952, 836.933 167.916, 838.073 169.365 C 839.591 171.296, 841.061 172, 843.573 172 C 845.689 172, 847.780 171.220, 849.040 169.960 C 850.162 168.838, 851.512 166.784, 852.040 165.395 C 852.568 164.006, 853 161.731, 853 160.339 C 853 158.947, 852.264 156.563, 851.364 155.040 C 850.465 153.517, 848.436 151.507, 846.856 150.574 C 845.276 149.640, 841.849 148.554, 839.241 148.161 C 836.634 147.767, 831.653 147.771, 828.173 148.170 M 608.457 160.863 C 606.784 161.883, 604.210 164.150, 602.737 165.900 C 601.265 167.650, 598.059 172.776, 595.614 177.291 C 593.169 181.806, 589.101 190.369, 586.574 196.319 C 584.047 202.270, 580.165 212.620, 577.948 219.319 C 575.159 227.748, 572.615 233.337, 569.690 237.466 C 567.365 240.747, 563.641 244.711, 561.415 246.276 C 558.555 248.286, 556.110 249.138, 553.081 249.179 C 550.065 249.221, 548.199 248.643, 546.787 247.231 C 545.601 246.045, 544.567 243.338, 544.260 240.612 C 543.974 238.076, 544.313 233.863, 545.013 231.250 C 545.713 228.638, 547.674 223.837, 549.372 220.581 C 551.070 217.326, 554.556 212.510, 557.119 209.878 C 559.682 207.247, 562.953 204.799, 564.387 204.439 C 565.822 204.079, 567.672 204.044, 568.498 204.361 C 569.324 204.678, 570 206.128, 570 207.582 C 570 209.037, 569.020 211.971, 567.822 214.103 C 566.624 216.234, 565.928 218.262, 566.276 218.609 C 566.623 218.956, 568.016 218.962, 569.371 218.622 C 570.726 218.282, 572.772 216.487, 573.917 214.634 C 575.063 212.780, 576 209.834, 576 208.087 C 576 206.046, 575.122 204.031, 573.545 202.455 C 572.195 201.105, 569.833 199.952, 568.295 199.894 C 566.758 199.836, 564.150 199.872, 562.500 199.974 C 560.850 200.076, 557.674 201.217, 555.442 202.509 C 553.211 203.802, 549.457 206.951, 547.100 209.507 C 544.743 212.064, 541.258 217.574, 539.354 221.751 C 537.162 226.562, 535.682 231.604, 535.318 235.502 C 534.882 240.171, 535.158 242.531, 536.464 245.284 C 537.630 247.740, 539.550 249.572, 542.409 250.956 C 544.731 252.080, 548.350 253, 550.450 253 C 552.550 253, 556.120 252.447, 558.384 251.771 C 560.886 251.024, 564.540 248.569, 567.703 245.510 C 572.905 240.479, 572.905 240.479, 573.522 244.130 C 573.861 246.139, 575.120 248.682, 576.319 249.783 C 577.519 250.884, 579.961 252.093, 581.747 252.471 C 583.585 252.860, 586.621 252.627, 588.747 251.934 C 590.811 251.261, 593.850 249.585, 595.500 248.210 C 597.150 246.835, 599.456 244.414, 600.625 242.830 C 602.750 239.950, 602.750 239.950, 603.843 244.291 C 604.444 246.679, 605.854 249.463, 606.976 250.478 C 608.254 251.635, 610.364 252.273, 612.629 252.188 C 614.820 252.105, 617.591 251.024, 619.664 249.442 C 621.546 248.007, 624.866 244.580, 627.043 241.827 C 631 236.820, 631 236.820, 631 241.775 C 631 245.203, 631.612 247.508, 632.984 249.253 C 634.075 250.640, 636.118 252.064, 637.523 252.416 C 639.080 252.807, 641.468 252.397, 643.640 251.366 C 645.600 250.436, 648.845 247.474, 650.852 244.782 C 654.500 239.889, 654.500 239.889, 655.124 243.638 C 655.504 245.920, 656.797 248.289, 658.430 249.693 C 660.124 251.150, 662.398 252, 664.605 252 C 666.527 252, 669.329 251.364, 670.831 250.587 C 672.334 249.810, 675.588 246.998, 678.063 244.337 C 680.539 241.677, 683.613 237.789, 684.896 235.697 C 686.179 233.606, 687.418 232.085, 687.651 232.318 C 687.883 232.550, 686.771 236.286, 685.179 240.620 C 683.588 244.954, 681.301 250.576, 680.097 253.112 C 677.909 257.725, 677.909 257.725, 665.205 260.969 C 658.217 262.753, 649.300 265.531, 645.388 267.142 C 641.477 268.753, 636.399 271.679, 634.104 273.643 C 631.809 275.608, 629.047 278.949, 627.966 281.068 C 626.884 283.187, 626 286.267, 626 287.913 C 626 289.559, 626.512 292.030, 627.139 293.405 C 627.765 294.779, 629.860 296.655, 631.796 297.573 C 634.439 298.827, 637.109 299.128, 642.528 298.780 C 648.431 298.401, 650.904 297.667, 656.144 294.736 C 659.666 292.767, 665.098 288.481, 668.216 285.213 C 671.333 281.944, 676.778 274.822, 680.315 269.385 C 686.462 259.937, 687.005 259.398, 692.623 257.194 C 695.855 255.925, 700.594 253.365, 703.153 251.505 C 705.712 249.644, 708.943 246.630, 710.334 244.806 C 711.725 242.982, 714.919 237.774, 717.432 233.231 C 719.944 228.689, 722 224.266, 722 223.403 C 722 222.540, 721.457 222.014, 720.793 222.236 C 720.129 222.457, 717.317 226.540, 714.543 231.309 C 711.769 236.078, 707.752 241.809, 705.614 244.044 C 703.477 246.279, 699.044 249.463, 695.763 251.119 C 692.482 252.776, 689.690 253.989, 689.559 253.815 C 689.428 253.642, 692.331 244.950, 696.012 234.500 C 699.692 224.050, 703.719 213.475, 704.962 211 C 706.204 208.525, 708.403 205.238, 709.849 203.696 C 712.477 200.892, 712.477 200.892, 706.004 201.196 C 699.530 201.500, 699.530 201.500, 692.842 213.772 C 689.164 220.521, 683.618 229.857, 680.517 234.517 C 677.417 239.177, 673.353 244.154, 671.487 245.577 C 669.622 247.001, 667.286 248.011, 666.297 247.824 C 664.981 247.574, 664.420 246.391, 664.200 243.399 C 663.977 240.358, 664.935 236.965, 667.955 230.102 C 670.185 225.034, 673.909 217.425, 676.229 213.194 C 678.550 208.962, 681.562 204.465, 682.924 203.200 C 685.400 200.899, 685.400 200.899, 678.450 201.200 C 671.500 201.500, 671.500 201.500, 663.500 216.577 C 659.100 224.869, 653.798 234.411, 651.718 237.780 C 649.638 241.149, 646.765 244.827, 645.333 245.953 C 643.902 247.079, 642.062 248, 641.245 248 C 640.052 248, 639.843 246.848, 640.183 242.151 C 640.487 237.947, 641.786 233.843, 644.802 227.556 C 647.110 222.746, 649.899 217.546, 650.999 216.001 C 652.100 214.456, 653 212.698, 653 212.096 C 653 211.481, 651.215 211, 648.934 211 C 646.698 211, 644.034 211.447, 643.014 211.993 C 641.993 212.539, 638.788 217.151, 635.891 222.243 C 632.994 227.334, 628.904 233.849, 626.803 236.719 C 624.702 239.590, 621.974 242.896, 620.741 244.065 C 619.509 245.235, 617.433 246.609, 616.128 247.118 C 614.498 247.754, 613.292 247.658, 612.271 246.810 C 611.201 245.922, 610.914 244.246, 611.244 240.813 C 611.496 238.192, 613.105 233.198, 614.820 229.715 C 616.535 226.231, 620.548 220.273, 623.739 216.474 C 626.929 212.675, 631.450 208.225, 633.785 206.584 C 636.602 204.604, 639.247 203.600, 641.650 203.600 C 644.402 203.600, 645.796 204.260, 647.466 206.355 C 649.423 208.810, 649.806 208.939, 650.970 207.537 C 652.063 206.219, 651.969 205.623, 650.390 203.879 C 649.353 202.733, 647.289 201.166, 645.802 200.398 C 644.316 199.629, 640.939 199, 638.300 199.001 C 635.104 199.001, 631.494 199.951, 627.495 201.842 C 623.507 203.729, 619.672 206.667, 616.075 210.592 C 612.843 214.118, 609.264 219.524, 607.199 224 C 605.296 228.125, 601.780 234.539, 599.387 238.254 C 596.993 241.969, 593.565 245.905, 591.768 247 C 589.970 248.096, 587.938 248.994, 587.250 248.996 C 586.563 248.998, 585.100 248.100, 584 247 C 582.501 245.501, 582 243.667, 582 239.678 C 582 236.751, 582.749 232.139, 583.665 229.428 C 584.749 226.216, 587.412 222.236, 591.310 218 C 594.600 214.425, 599.513 208.125, 602.230 204 C 604.946 199.875, 609.679 191.457, 612.748 185.294 C 616.836 177.085, 618.448 172.643, 618.776 168.687 C 619.029 165.635, 618.725 162.355, 618.077 161.143 C 617.335 159.758, 615.969 159.001, 614.215 159.004 C 612.722 159.006, 610.131 159.842, 608.457 160.863 M 611.067 168.906 C 609.929 170.504, 607.379 174.667, 605.400 178.156 C 603.422 181.645, 599.555 189.450, 596.808 195.500 C 594.061 201.550, 590.951 208.750, 589.897 211.500 C 587.980 216.500, 587.980 216.500, 590.539 213.500 C 591.946 211.850, 595.756 206.562, 599.006 201.748 C 602.256 196.935, 606.989 188.818, 609.524 183.712 C 612.059 178.605, 614.387 172.531, 614.698 170.214 C 615.056 167.549, 614.872 166, 614.200 166 C 613.615 166, 612.205 167.308, 611.067 168.906 M 1011.174 186.314 C 1009.978 187.587, 1009 189.526, 1009 190.623 C 1009 191.720, 1009.563 193.348, 1010.250 194.240 C 1010.938 195.132, 1012.175 195.946, 1013 196.049 C 1013.825 196.153, 1015.270 196.184, 1016.211 196.118 C 1017.152 196.053, 1018.840 195.015, 1019.961 193.811 C 1021.082 192.608, 1022 190.615, 1022 189.383 C 1022 188.151, 1021.293 186.436, 1020.429 185.571 C 1019.564 184.707, 1017.618 184, 1016.103 184 C 1014.517 184, 1012.426 184.982, 1011.174 186.314 M 897.805 186.750 C 896.977 187.713, 895.513 191.825, 894.550 195.890 C 893.587 199.954, 891.908 206.029, 890.818 209.390 C 889.728 212.750, 886.888 219.639, 884.507 224.698 C 882.125 229.756, 878.562 236.328, 876.588 239.301 C 874.615 242.274, 873 245.223, 873 245.854 C 873 246.484, 873.412 247, 873.916 247 C 874.420 247, 876.160 245.313, 877.782 243.250 C 879.405 241.188, 882.223 236.847, 884.044 233.605 C 885.865 230.362, 889.055 223.612, 891.132 218.605 C 894.909 209.500, 894.909 209.500, 898.646 209.817 C 900.701 209.992, 903.196 210.570, 904.191 211.102 C 905.186 211.635, 906 212.740, 906 213.558 C 906 214.376, 903.990 218.523, 901.534 222.773 C 899.077 227.023, 896.405 233.075, 895.596 236.222 C 894.574 240.193, 894.402 242.914, 895.032 245.110 C 895.531 246.851, 896.698 249.114, 897.625 250.138 C 898.676 251.299, 900.669 252, 902.923 252 C 905.109 252, 907.959 251.033, 910.140 249.551 C 912.122 248.204, 915.099 245.056, 916.755 242.557 C 919.765 238.011, 919.765 238.011, 920.844 242.295 C 921.437 244.651, 922.953 247.544, 924.211 248.723 C 925.470 249.902, 927.767 251.347, 929.315 251.933 C 930.863 252.520, 933.338 252.997, 934.815 252.994 C 936.292 252.991, 939.174 252.524, 941.219 251.956 C 943.264 251.388, 946.254 249.815, 947.863 248.462 C 949.472 247.108, 951.009 246, 951.278 246 C 951.547 246, 951.990 246.854, 952.263 247.898 C 952.536 248.942, 953.953 250.578, 955.411 251.534 C 956.985 252.565, 960.825 253.469, 964.857 253.758 C 969.577 254.095, 973.455 253.719, 977.566 252.524 C 982.043 251.222, 984.622 249.664, 988.170 246.116 C 992.858 241.428, 992.858 241.428, 993.466 244.671 C 993.801 246.454, 995.243 248.833, 996.672 249.957 C 998.280 251.221, 1000.756 252, 1003.170 252 C 1005.315 252, 1008.247 251.229, 1009.684 250.287 C 1012.274 248.591, 1012.287 248.595, 1011.114 250.787 C 1009.982 252.903, 1010.109 253, 1014.010 253 C 1017.022 253, 1018.668 252.377, 1020.295 250.623 C 1021.508 249.315, 1024.750 244.295, 1027.500 239.468 C 1030.250 234.640, 1035.200 227.895, 1038.500 224.478 C 1041.800 221.061, 1046.075 217.308, 1048 216.137 C 1049.925 214.966, 1051.838 214.006, 1052.250 214.004 C 1052.662 214.002, 1053 214.627, 1053 215.394 C 1053 216.160, 1050.808 221.003, 1048.128 226.157 C 1045.448 231.310, 1042.943 237.375, 1042.561 239.636 C 1042.088 242.437, 1042.351 244.903, 1043.385 247.379 C 1044.339 249.663, 1045.943 251.412, 1047.702 252.087 C 1049.241 252.678, 1051.980 252.926, 1053.788 252.637 C 1055.597 252.349, 1058.522 250.904, 1060.288 249.426 C 1062.055 247.948, 1064.908 244.769, 1066.630 242.362 C 1068.351 239.955, 1071.389 234.886, 1073.380 231.097 C 1075.371 227.308, 1077 223.711, 1077 223.104 C 1077 222.497, 1076.438 222.004, 1075.750 222.008 C 1075.063 222.013, 1072.925 225.006, 1071 228.659 C 1069.075 232.313, 1065.786 237.711, 1063.692 240.655 C 1061.597 243.600, 1058.547 246.700, 1056.912 247.545 C 1055.278 248.390, 1053.448 248.777, 1052.845 248.404 C 1052.145 247.972, 1051.956 245.718, 1052.321 242.180 C 1052.757 237.950, 1054.804 232.803, 1060.947 220.487 C 1065.376 211.606, 1069 204.038, 1069 203.670 C 1069 203.301, 1068.155 203, 1067.122 203 C 1066.089 203, 1063.502 203.727, 1061.372 204.616 C 1059.242 205.504, 1054.408 208.231, 1050.628 210.675 C 1046.849 213.118, 1041.260 217.453, 1038.209 220.309 C 1032.661 225.500, 1032.661 225.500, 1036.081 219.196 C 1037.961 215.729, 1041.188 210.658, 1043.250 207.926 C 1045.313 205.194, 1047 202.744, 1047 202.480 C 1047 202.216, 1044.940 202, 1042.423 202 C 1038.756 202, 1037.306 202.547, 1035.128 204.750 C 1033.632 206.262, 1028.661 214.587, 1024.081 223.250 C 1019.500 231.912, 1013.970 241.025, 1011.791 243.500 C 1008.821 246.875, 1007.110 248, 1004.950 248 C 1003.168 248, 1001.692 247.292, 1001.076 246.143 C 1000.415 244.907, 1000.424 243.047, 1001.105 240.582 C 1001.667 238.545, 1005.024 230.116, 1008.564 221.851 C 1012.104 213.586, 1015 205.738, 1015 204.412 C 1015 202.134, 1014.671 202, 1009.063 202 C 1003.126 202, 1003.126 202, 1003.653 205.250 C 1004.018 207.507, 1003.213 210.943, 1001.017 216.500 C 999.277 220.900, 995.895 228.100, 993.500 232.500 C 991.105 236.900, 987.651 241.940, 985.823 243.699 C 983.995 245.459, 980.700 247.639, 978.500 248.545 C 974.500 250.191, 974.500 250.191, 977.699 246.845 C 979.459 245.005, 981.596 241.827, 982.449 239.782 C 983.302 237.737, 984 234.036, 984 231.558 C 984 228.846, 982.760 223.956, 980.886 219.276 C 979.087 214.782, 977.588 208.968, 977.336 205.500 C 977.054 201.613, 977.373 198.620, 978.243 197 C 979.260 195.108, 980.305 194.546, 982.543 194.689 C 984.169 194.793, 986.860 195.166, 988.523 195.519 C 990.839 196.010, 991.979 195.680, 993.404 194.106 C 995.151 192.176, 995.163 191.898, 993.609 189.526 C 992.442 187.746, 991.060 187, 988.927 187 C 987.263 187, 984.618 187.663, 983.051 188.474 C 981.483 189.284, 978.603 191.814, 976.651 194.095 C 974.698 196.376, 969.401 205.500, 964.878 214.371 C 960.356 223.242, 955.383 231.693, 953.828 233.151 C 952.273 234.609, 951 236.686, 951 237.766 C 951 238.847, 950.057 240.929, 948.905 242.393 C 947.753 243.858, 945.071 245.943, 942.945 247.028 C 940.819 248.113, 937.781 249, 936.195 249 C 934.531 249, 932.504 248.108, 931.405 246.894 C 930.076 245.424, 929.522 243.383, 929.573 240.144 C 929.613 237.590, 929.951 234.294, 930.324 232.821 C 930.887 230.599, 931.981 229.857, 936.721 228.479 C 939.866 227.564, 944.049 225.996, 946.015 224.992 C 947.981 223.989, 951.495 221.102, 953.823 218.577 C 956.151 216.051, 958.493 212.834, 959.028 211.427 C 959.562 210.021, 960 207.582, 960 206.007 C 960 204.106, 959.115 202.449, 957.365 201.073 C 955.916 199.933, 953.328 199.004, 951.615 199.010 C 949.902 199.015, 946.250 200.076, 943.500 201.366 C 940.736 202.664, 936.178 206.183, 933.307 209.237 C 929.929 212.830, 926.324 218.385, 922.995 225.130 C 920.180 230.834, 916.335 237.623, 914.452 240.218 C 912.568 242.813, 909.873 245.693, 908.462 246.617 C 906.524 247.887, 905.615 248.015, 904.743 247.143 C 903.879 246.279, 903.870 244.652, 904.707 240.659 C 905.322 237.727, 908.565 229.487, 911.913 222.347 C 915.261 215.207, 918 208.221, 918 206.822 C 918 204.279, 918 204.279, 908.266 204.788 C 898.532 205.297, 898.532 205.297, 901.752 201.630 C 903.522 199.613, 905.251 196.847, 905.594 195.482 C 905.937 194.117, 905.942 191.906, 905.607 190.570 C 905.271 189.233, 904.291 187.433, 903.427 186.570 C 902.564 185.706, 901.284 185, 900.584 185 C 899.883 185, 898.633 185.787, 897.805 186.750 M 802 195.768 C 802 196.269, 803.146 197.201, 804.547 197.839 C 805.948 198.478, 808.873 199, 811.047 199 C 813.221 199, 815 198.577, 815 198.059 C 815 197.541, 814.663 196.923, 814.250 196.684 C 813.837 196.445, 810.913 195.936, 807.750 195.553 C 804.446 195.153, 802 195.244, 802 195.768 M 947.859 206.277 C 945.496 208.080, 941.134 213.125, 938.165 217.489 C 935.008 222.130, 933.246 225.582, 933.919 225.806 C 934.551 226.017, 936.940 225.441, 939.227 224.526 C 941.514 223.611, 944.702 221.925, 946.311 220.778 C 947.921 219.632, 950.534 216.650, 952.119 214.151 C 953.796 211.507, 955 208.227, 955 206.304 C 955 204.114, 954.520 203, 953.578 203 C 952.795 203, 950.222 204.475, 947.859 206.277 M 965.768 220.435 C 960.922 230.170, 960.306 232.009, 961.547 233.039 C 962.346 233.702, 963 235.090, 963 236.122 C 963 237.155, 962.582 238, 962.071 238 C 961.561 238, 960.436 238.707, 959.571 239.571 C 958.707 240.436, 958 242.631, 958 244.450 C 958 247.197, 958.519 247.972, 961.064 249.026 C 963.753 250.140, 964.448 250.056, 966.752 248.336 C 968.195 247.258, 970.196 245.279, 971.198 243.937 C 972.200 242.595, 973.358 239.515, 973.771 237.092 C 974.185 234.669, 974.135 227.920, 973.660 222.093 C 973.185 216.267, 972.491 210.946, 972.119 210.269 C 971.723 209.549, 969.085 213.772, 965.768 220.435 M 1032 226.500 C 1032 226.775, 1032.225 227, 1032.500 227 C 1032.775 227, 1033 226.775, 1033 226.500 C 1033 226.225, 1032.775 226, 1032.500 226 C 1032.225 226, 1032 226.225, 1032 226.500 M 688 230.500 C 688 230.775, 688.225 231, 688.500 231 C 688.775 231, 689 230.775, 689 230.500 C 689 230.225, 688.775 230, 688.500 230 C 688.225 230, 688 230.225, 688 230.500 M 668.500 264.715 C 667.400 264.980, 661.571 266.780, 655.547 268.715 C 649.522 270.649, 642.960 273.263, 640.964 274.523 C 638.967 275.783, 636.213 278.146, 634.843 279.774 C 633.474 281.402, 631.751 284.186, 631.016 285.961 C 630.090 288.196, 629.965 290.003, 630.609 291.844 C 631.416 294.150, 632.170 294.541, 636.335 294.807 C 639.737 295.026, 642.492 294.463, 645.816 292.872 C 648.608 291.535, 654.579 286.563, 660.599 280.565 C 666.153 275.029, 671.452 269.038, 672.374 267.250 C 673.962 264.173, 673.957 264.006, 672.276 264.116 C 671.299 264.180, 669.600 264.449, 668.500 264.715" stroke="none" fill="#443c3c" fill-rule="evenodd"/><path d="M 137 1.422 C 132.875 2.149, 126.007 3.727, 121.737 4.928 C 117.467 6.129, 110.042 8.690, 105.237 10.619 C 100.432 12.548, 93.575 15.722, 90 17.673 C 86.425 19.623, 79.225 24.188, 74 27.816 C 68.775 31.444, 59.775 39.162, 54 44.968 C 48.225 50.773, 40.907 59.175, 37.739 63.640 C 34.570 68.104, 29.660 76.157, 26.829 81.535 C 23.998 86.913, 20.394 94.731, 18.822 98.907 C 17.250 103.083, 15.033 110.100, 13.895 114.500 C 12.757 118.900, 11.198 126.325, 10.431 131 C 9.663 135.675, 9.035 146.025, 9.035 154 C 9.035 161.975, 9.663 172.325, 10.431 177 C 11.198 181.675, 12.757 189.100, 13.895 193.500 C 15.033 197.900, 17.250 204.917, 18.822 209.093 C 20.394 213.269, 23.998 221.087, 26.829 226.465 C 29.660 231.843, 34.570 239.881, 37.739 244.326 C 40.907 248.771, 48.225 257.153, 54 262.954 C 59.775 268.754, 68.775 276.539, 74 280.253 C 79.225 283.967, 88.450 289.436, 94.500 292.405 C 100.550 295.374, 109.588 299.164, 114.583 300.827 C 119.579 302.490, 127.046 304.548, 131.177 305.401 C 135.307 306.255, 144.211 307.477, 150.964 308.118 C 160.238 308.999, 166.281 309.004, 175.670 308.140 C 182.507 307.511, 191.527 306.289, 195.716 305.424 C 199.906 304.558, 207.421 302.499, 212.417 300.847 C 217.412 299.195, 226.450 295.407, 232.500 292.429 C 238.550 289.452, 247.403 284.200, 252.174 280.758 C 256.945 277.316, 263.854 271.842, 267.528 268.594 C 271.202 265.345, 277.128 259.270, 280.697 255.094 C 284.266 250.917, 289.559 243.900, 292.459 239.500 C 295.360 235.100, 299.610 227.763, 301.905 223.195 C 304.200 218.627, 307.390 211.202, 308.993 206.695 C 310.597 202.188, 312.642 195.591, 313.537 192.036 C 314.433 188.481, 315.796 181.731, 316.565 177.036 C 317.335 172.341, 317.965 161.975, 317.965 154 C 317.965 146.025, 317.335 135.659, 316.565 130.964 C 315.796 126.269, 314.433 119.519, 313.537 115.964 C 312.642 112.409, 310.597 105.812, 308.993 101.305 C 307.390 96.798, 304.200 89.373, 301.905 84.805 C 299.610 80.237, 295.361 72.900, 292.462 68.500 C 289.563 64.100, 283.952 56.761, 279.993 52.192 C 276.033 47.622, 269.353 40.940, 265.147 37.343 C 260.941 33.745, 253.198 27.932, 247.939 24.424 C 242.681 20.916, 234.560 16.282, 229.894 14.126 C 225.227 11.970, 217.346 8.844, 212.379 7.180 C 207.413 5.517, 200.009 3.396, 195.925 2.469 C 190.530 1.244, 182.486 0.689, 166.500 0.441 C 151.288 0.205, 142.186 0.507, 137 1.422 M 143.641 31.609 C 138.768 32.369, 130.043 34.576, 124.251 36.514 C 118.459 38.453, 110.633 41.660, 106.861 43.642 C 103.089 45.624, 96.515 49.673, 92.251 52.639 C 87.988 55.605, 81.173 61.287, 77.107 65.266 C 73.041 69.245, 67.149 75.931, 64.014 80.125 C 60.879 84.318, 56.041 92.193, 53.262 97.625 C 50.483 103.056, 47.062 111.157, 45.660 115.626 C 44.258 120.095, 42.372 127.695, 41.469 132.513 C 40.492 137.728, 39.828 146.425, 39.828 154 C 39.828 161.575, 40.492 170.272, 41.469 175.487 C 42.372 180.305, 44.258 187.905, 45.660 192.374 C 47.062 196.843, 50.483 204.944, 53.262 210.375 C 56.041 215.807, 60.878 223.682, 64.011 227.875 C 67.144 232.069, 72.586 238.364, 76.104 241.864 C 79.622 245.365, 84.975 250.133, 88 252.461 C 91.025 254.788, 97.100 258.794, 101.500 261.362 C 105.900 263.931, 113.550 267.577, 118.500 269.464 C 123.450 271.352, 129.525 273.419, 132 274.057 C 134.475 274.695, 140.550 275.835, 145.500 276.591 C 150.450 277.346, 158.550 277.964, 163.500 277.964 C 168.450 277.964, 176.550 277.346, 181.500 276.591 C 186.450 275.835, 192.525 274.692, 195 274.050 C 197.475 273.408, 202.650 271.717, 206.500 270.292 C 210.350 268.868, 216.007 266.453, 219.071 264.927 C 222.134 263.401, 228.659 259.454, 233.571 256.157 C 238.482 252.859, 246.211 246.412, 250.746 241.831 C 255.281 237.249, 261.204 230.459, 263.908 226.741 C 266.611 223.024, 271.066 215.599, 273.807 210.241 C 276.548 204.884, 279.938 196.843, 281.340 192.374 C 282.742 187.905, 284.628 180.305, 285.531 175.487 C 286.508 170.272, 287.172 161.575, 287.172 154 C 287.172 146.425, 286.508 137.728, 285.531 132.513 C 284.628 127.695, 282.742 120.095, 281.340 115.626 C 279.938 111.157, 276.517 103.056, 273.738 97.625 C 270.959 92.193, 266.126 84.318, 262.996 80.125 C 259.867 75.931, 253.975 69.199, 249.904 65.164 C 245.832 61.130, 238.197 54.952, 232.937 51.436 C 227.677 47.919, 220.027 43.505, 215.937 41.626 C 211.847 39.747, 204.746 37.032, 200.158 35.592 C 195.569 34.152, 187.360 32.305, 181.914 31.487 C 176.469 30.669, 167.623 30.051, 162.257 30.114 C 156.890 30.176, 148.513 30.849, 143.641 31.609" stroke="none" fill="#f3a4a4" fill-rule="evenodd"/></svg>