<?xml version="1.0" encoding="UTF-8"?><svg id="a" xmlns="http://www.w3.org/2000/svg" viewBox="0 0 270 270"><defs><style>.b{fill:#fff;}</style></defs><path class="b" d="M0,270V0H270V270H0ZM46.55,31.55c-.14,1.69-.32,2.82-.32,3.95-.07,52.66-.1,105.32-.26,157.99,0,3.07,1.28,4.32,3.77,5.56,19.37,9.66,38.67,19.46,58,29.2,8.41,4.24,16.85,8.42,26.02,13.01,0-4.28-.27-7.75,.07-11.16,.38-3.77-1.22-5.49-4.51-7.11-21.81-10.72-43.48-21.73-65.25-32.54-2.96-1.47-4.42-3.08-4.4-6.74,.23-44.5,.24-88.99,.33-133.49,0-1.6,.18-3.2,.31-5.5h73.03v-13.16H46.55Zm90.3,13.29c2.22,0,3.85,0,5.48,0,20.99,.11,41.97,.31,62.96,.27,4.07,0,5.83,.78,5.8,5.49-.24,44.47-.25,88.94-.16,133.42,0,3.4-1.12,4.93-4.07,6.38-21.95,10.8-43.82,21.77-65.65,32.81-1.74,.88-4.12,2.49-4.34,4.02-.59,4.3-.21,8.73-.21,13.8,2.99-1.44,5.08-2.41,7.14-3.44,25.29-12.65,50.53-25.4,75.92-37.86,3.89-1.91,5.18-4.14,5.16-8.37-.11-38.14,0-76.29,.03-114.43,.01-14.96,0-29.91,0-45.21h-88.08v13.11Zm-26.15,36.04v84.3c-4.29,0-8.27-.2-12.22,.06-3.68,.24-4.47-1.31-4.37-4.7,.29-9.16,.27-18.32,.31-27.49,0-1.71-.25-3.41-.49-6.36-7.13,5.21-13.3,9.63-19.35,14.23-.75,.57-1.15,2.04-1.15,3.09-.04,10.66-.22,21.32,.17,31.97,.25,6.82,4.88,11.07,11.65,11.25,11.16,.3,22.32,.47,33.48,.42,8.13-.04,12.99-5.08,13.12-13.19,.1-6.5,.03-13,.03-19.5,0-8.9,0-17.8,0-27.47-3.42,2.12-6.12,3.79-9.79,6.07,1.42-4.9,2.38-8.74,3.65-12.47,.88-2.59,.54-4.29-1.94-5.82-3.15-1.94-6.04-4.31-10.15-7.3,4.96,0,8.43-.16,11.87,.05,2.8,.17,4.51-.62,4.78-3.59,.58-6.42,1.46-12.84,1.68-19.27,.29-8.75,.07-17.51,.07-26.32h-48.98c2.2,6.94,4.01,13.34,6.38,19.51,.48,1.25,3.03,2.3,4.69,2.4,5.3,.3,10.62,.11,16.54,.11Zm28.49,123.95c1.22-.07,1.77,.05,2.18-.14,16.83-8.02,33.65-16.06,50.43-24.17,.92-.44,2.13-1.55,2.15-2.38,.17-7.38,.1-14.76,.1-23.1-11.62,5.25-22.22,10.04-33.49,15.13V58.77h-21.56c0,9.88-.12,19.36,.05,28.83,.09,5.13,.63,10.25,1.02,15.36,.29,3.8,2.12,5.53,6.19,5.05,3.26-.38,6.6-.08,9.91-.08-2.14,2.56-4.21,4.28-6.53,5.54-4.31,2.35-5.85,5.3-3.67,10.11,1.3,2.88,1.79,6.13,2.92,10.2-3.68-2.34-6.42-4.08-9.7-6.16v77.21Z"/><path d="M46.55,31.55h86.8v13.16H60.33c-.14,2.3-.31,3.9-.31,5.5-.09,44.5-.11,88.99-.33,133.49-.02,3.67,1.43,5.27,4.4,6.74,21.77,10.81,43.44,21.82,65.25,32.54,3.3,1.62,4.89,3.34,4.51,7.11-.34,3.41-.07,6.88-.07,11.16-9.18-4.58-17.61-8.77-26.02-13.01-19.33-9.74-38.63-19.54-58-29.2-2.49-1.24-3.78-2.49-3.77-5.56,.16-52.66,.19-105.32,.26-157.99,0-1.13,.18-2.27,.32-3.95Z"/><path d="M136.85,44.85v-13.11h88.08c0,15.29,.01,30.25,0,45.21-.03,38.14-.14,76.29-.03,114.43,.01,4.23-1.27,6.46-5.16,8.37-25.39,12.46-50.63,25.21-75.92,37.86-2.06,1.03-4.15,2-7.14,3.44,0-5.07-.39-9.51,.21-13.8,.21-1.53,2.59-3.14,4.34-4.02,21.83-11.04,43.7-22.01,65.65-32.81,2.95-1.45,4.08-2.99,4.07-6.38-.09-44.47-.08-88.95,.16-133.42,.02-4.71-1.73-5.5-5.8-5.49-20.99,.03-41.97-.16-62.96-.27-1.63,0-3.27,0-5.48,0Z"/><path d="M110.71,80.88c-5.92,0-11.25,.19-16.54-.11-1.66-.09-4.21-1.15-4.69-2.4-2.37-6.18-4.17-12.57-6.38-19.51h48.98c0,8.81,.22,17.57-.07,26.32-.21,6.44-1.1,12.85-1.68,19.27-.27,2.97-1.98,3.77-4.78,3.59-3.44-.21-6.91-.05-11.87-.05,4.11,2.99,7,5.35,10.15,7.3,2.48,1.53,2.82,3.23,1.94,5.82-1.27,3.73-2.23,7.56-3.65,12.47,3.67-2.27,6.37-3.95,9.79-6.07,0,9.67,0,18.57,0,27.47,0,6.5,.07,13-.03,19.5-.12,8.11-4.99,13.15-13.12,13.19-11.16,.05-22.33-.12-33.48-.42-6.77-.18-11.4-4.43-11.65-11.25-.39-10.65-.21-21.31-.17-31.97,0-1.05,.4-2.52,1.15-3.09,6.05-4.6,12.22-9.02,19.35-14.23,.24,2.94,.5,4.65,.49,6.36-.04,9.16-.02,18.33-.31,27.49-.11,3.39,.69,4.94,4.37,4.7,3.95-.26,7.93-.06,12.22-.06V80.88Z"/><path d="M139.2,204.83V127.63c3.28,2.09,6.02,3.82,9.7,6.16-1.13-4.07-1.61-7.32-2.92-10.2-2.17-4.8-.64-7.76,3.67-10.11,2.32-1.26,4.39-2.98,6.53-5.54-3.31,0-6.65-.3-9.91,.08-4.07,.48-5.9-1.25-6.19-5.05-.4-5.12-.94-10.24-1.02-15.36-.16-9.47-.05-18.95-.05-28.83h21.56v111.41c11.26-5.09,21.87-9.88,33.49-15.13,0,8.34,.07,15.72-.1,23.1-.02,.82-1.23,1.93-2.15,2.38-16.78,8.11-33.61,16.14-50.43,24.17-.4,.19-.96,.07-2.18,.14Z"/></svg>