<?xml version="1.0" encoding="utf-8"?>
<!-- Generator: Adobe Illustrator 26.2.1, SVG Export Plug-In . SVG Version: 6.00 Build 0)  -->
<svg version="1.1" id="a" xmlns="http://www.w3.org/2000/svg" xmlns:xlink="http://www.w3.org/1999/xlink" x="0px" y="0px"
	 viewBox="0 0 270 270" style="enable-background:new 0 0 270 270;" xml:space="preserve">
<style type="text/css">
	.st0{fill:none;}
</style>
<path class="st0" d="M0,270V0h270v270H0z M46.5,31.5c-0.1,1.7-0.3,2.8-0.3,4c-0.1,52.7-0.1,105.3-0.3,158c0,3.1,1.3,4.3,3.8,5.6
	c19.4,9.7,38.7,19.5,58,29.2c8.4,4.2,16.8,8.4,26,13c0-4.3-0.3-7.8,0.1-11.2c0.4-3.8-1.2-5.5-4.5-7.1
	c-21.8-10.7-43.5-21.7-65.2-32.5c-3-1.5-4.4-3.1-4.4-6.7c0.2-44.5,0.2-89,0.3-133.5c0-1.6,0.2-3.2,0.3-5.5h73V31.6L46.5,31.5
	L46.5,31.5z M136.9,44.8c2.2,0,3.9,0,5.5,0c21,0.1,42,0.3,63,0.3c4.1,0,5.8,0.8,5.8,5.5c-0.2,44.5-0.2,88.9-0.2,133.4
	c0,3.4-1.1,4.9-4.1,6.4c-21.9,10.8-43.8,21.8-65.7,32.8c-1.7,0.9-4.1,2.5-4.3,4c-0.6,4.3-0.2,8.7-0.2,13.8c3-1.4,5.1-2.4,7.1-3.4
	c25.3-12.6,50.5-25.4,75.9-37.9c3.9-1.9,5.2-4.1,5.2-8.4c-0.1-38.1,0-76.3,0-114.4c0-15,0-29.9,0-45.2h-88.1L136.9,44.8L136.9,44.8z
	 M110.7,80.9v84.3c-4.3,0-8.3-0.2-12.2,0.1c-3.7,0.2-4.5-1.3-4.4-4.7c0.3-9.2,0.3-18.3,0.3-27.5c0-1.7-0.2-3.4-0.5-6.4
	c-7.1,5.2-13.3,9.6-19.3,14.2c-0.8,0.6-1.2,2-1.2,3.1c0,10.7-0.2,21.3,0.2,32c0.2,6.8,4.9,11.1,11.7,11.2
	c11.2,0.3,22.3,0.5,33.5,0.4c8.1,0,13-5.1,13.1-13.2c0.1-6.5,0-13,0-19.5c0-8.9,0-17.8,0-27.5c-3.4,2.1-6.1,3.8-9.8,6.1
	c1.4-4.9,2.4-8.7,3.7-12.5c0.9-2.6,0.5-4.3-1.9-5.8c-3.2-1.9-6-4.3-10.2-7.3c5,0,8.4-0.2,11.9,0.1c2.8,0.2,4.5-0.6,4.8-3.6
	c0.6-6.4,1.5-12.8,1.7-19.3c0.3-8.8,0.1-17.5,0.1-26.3h-49c2.2,6.9,4,13.3,6.4,19.5c0.5,1.2,3,2.3,4.7,2.4
	C99.4,81.1,104.8,80.9,110.7,80.9L110.7,80.9z M139.2,204.8c1.2-0.1,1.8,0.1,2.2-0.1c16.8-8,33.6-16.1,50.4-24.2
	c0.9-0.4,2.1-1.6,2.1-2.4c0.2-7.4,0.1-14.8,0.1-23.1c-11.6,5.2-22.2,10-33.5,15.1V58.8H139c0,9.9-0.1,19.4,0.1,28.8
	c0.1,5.1,0.6,10.2,1,15.4c0.3,3.8,2.1,5.5,6.2,5.1c3.3-0.4,6.6-0.1,9.9-0.1c-2.1,2.6-4.2,4.3-6.5,5.5c-4.3,2.3-5.9,5.3-3.7,10.1
	c1.3,2.9,1.8,6.1,2.9,10.2c-3.7-2.3-6.4-4.1-9.7-6.2V204.8L139.2,204.8z"/>
<g>
	<path d="M46.1,30.2h86.8v13.2h-73c-0.1,2.3-0.3,3.9-0.3,5.5c-0.1,44.5-0.1,89-0.3,133.5c0,3.7,1.4,5.3,4.4,6.7
		c21.8,10.8,43.4,21.8,65.2,32.5c3.3,1.6,4.9,3.3,4.5,7.1c-0.3,3.4-0.1,6.9-0.1,11.2c-9.2-4.6-17.6-8.8-26-13
		c-19.3-9.7-38.6-19.5-58-29.2c-2.5-1.2-3.8-2.5-3.8-5.6c0.2-52.7,0.2-105.3,0.3-158C45.8,33,46,31.8,46.1,30.2L46.1,30.2z"/>
	<path d="M136.4,43.5V30.3h88.1c0,15.3,0,30.2,0,45.2c0,38.1-0.1,76.3,0,114.4c0,4.2-1.3,6.5-5.2,8.4
		c-25.4,12.5-50.6,25.2-75.9,37.9c-2.1,1-4.1,2-7.1,3.4c0-5.1-0.4-9.5,0.2-13.8c0.2-1.5,2.6-3.1,4.3-4c21.8-11,43.7-22,65.6-32.8
		c2.9-1.4,4.1-3,4.1-6.4c-0.1-44.5-0.1-88.9,0.2-133.4c0-4.7-1.7-5.5-5.8-5.5c-21,0-42-0.2-63-0.3C140.3,43.5,138.6,43.5,136.4,43.5
		L136.4,43.5z"/>
	<path d="M110.2,79.5c-5.9,0-11.2,0.2-16.5-0.1C92,79.3,89.5,78.2,89,77c-2.4-6.2-4.2-12.6-6.4-19.5h49c0,8.8,0.2,17.6-0.1,26.3
		c-0.2,6.4-1.1,12.8-1.7,19.3c-0.3,3-2,3.8-4.8,3.6c-3.4-0.2-6.9-0.1-11.9-0.1c4.1,3,7,5.3,10.2,7.3c2.5,1.5,2.8,3.2,1.9,5.8
		c-1.3,3.7-2.2,7.6-3.7,12.5c3.7-2.3,6.4-3.9,9.8-6.1c0,9.7,0,18.6,0,27.5c0,6.5,0.1,13,0,19.5c-0.1,8.1-5,13.1-13.1,13.2
		c-11.2,0.1-22.3-0.1-33.5-0.4c-6.8-0.2-11.4-4.4-11.7-11.2c-0.4-10.6-0.2-21.3-0.2-32c0-1.1,0.4-2.5,1.2-3.1
		c6.1-4.6,12.2-9,19.3-14.2c0.2,2.9,0.5,4.6,0.5,6.4c0,9.2,0,18.3-0.3,27.5c-0.1,3.4,0.7,4.9,4.4,4.7c3.9-0.3,7.9-0.1,12.2-0.1
		L110.2,79.5L110.2,79.5z"/>
	<path d="M138.7,203.4v-77.2c3.3,2.1,6,3.8,9.7,6.2c-1.1-4.1-1.6-7.3-2.9-10.2c-2.2-4.8-0.6-7.8,3.7-10.1c2.3-1.3,4.4-3,6.5-5.5
		c-3.3,0-6.6-0.3-9.9,0.1c-4.1,0.5-5.9-1.2-6.2-5.1c-0.4-5.1-0.9-10.2-1-15.4c-0.2-9.5-0.1-19-0.1-28.8h21.6v111.4
		c11.3-5.1,21.9-9.9,33.5-15.1c0,8.3,0.1,15.7-0.1,23.1c0,0.8-1.2,1.9-2.1,2.4c-16.8,8.1-33.6,16.1-50.4,24.2
		C140.5,203.5,140,203.4,138.7,203.4L138.7,203.4z"/>
</g>
</svg>
