<svg xmlns="http://www.w3.org/2000/svg" viewBox="0 0 64 80" x="0px" y="0px" width="40px" height="40px"><path d="M32,45a1,1,0,0,0,.316-.051C32.712,44.817,42,41.622,42,33a6.006,6.006,0,0,0-6-6,5.914,5.914,0,0,0-4,1.544A5.914,5.914,0,0,0,28,27a6.006,6.006,0,0,0-6,6c0,8.622,9.288,11.817,9.684,11.949A1,1,0,0,0,32,45ZM24,33a4,4,0,0,1,4-4,3.96,3.96,0,0,1,3.2,1.625,1.037,1.037,0,0,0,1.6,0A3.96,3.96,0,0,1,36,29a4,4,0,0,1,4,4c0,6.36-6.479,9.324-8,9.932C30.476,42.328,24,39.382,24,33ZM15,54H49a9.01,9.01,0,0,0,9-9V19a9.01,9.01,0,0,0-9-9H46V9a3,3,0,0,0-6,0v1H27a1,1,0,0,0,0,2H40v3a3,3,0,0,0,6,0V12h3a7.008,7.008,0,0,1,7,7v1H11a1,1,0,0,0,0,2H56V45a7.008,7.008,0,0,1-7,7H15a7.008,7.008,0,0,1-7-7V19a7.008,7.008,0,0,1,7-7h3v3a3,3,0,0,0,6,0V9a3,3,0,0,0-6,0v1H15a9.01,9.01,0,0,0-9,9V45A9.01,9.01,0,0,0,15,54ZM44,15a1,1,0,0,1-2,0V9a1,1,0,0,1,2,0ZM20,9a1,1,0,0,1,2,0v6a1,1,0,0,1-2,0Z"/></svg>