<svg xmlns="http://www.w3.org/2000/svg" viewBox="0 0 64 80" x="0px" y="0px" width="40px" height="40px"><path d="M15,54H49a9.011,9.011,0,0,0,9-9V19a9.011,9.011,0,0,0-9-9H46V9a3,3,0,0,0-6,0v1H27a1,1,0,0,0,0,2H40v3a3,3,0,0,0,6,0V12h3a7.008,7.008,0,0,1,7,7v1H11a1,1,0,0,0,0,2H56V45a7.008,7.008,0,0,1-7,7H15a7.008,7.008,0,0,1-7-7V19a7.008,7.008,0,0,1,7-7h3v3a3,3,0,0,0,6,0V9a3,3,0,0,0-6,0v1H15a9.011,9.011,0,0,0-9,9V45A9.011,9.011,0,0,0,15,54ZM44,15a1,1,0,0,1-2,0V9a1,1,0,0,1,2,0ZM20,9a1,1,0,0,1,2,0v6a1,1,0,0,1-2,0ZM14,37a2,2,0,1,1,2,2A2,2,0,0,1,14,37Zm0,8a2,2,0,1,1,2,2A2,2,0,0,1,14,45Zm8-16a2,2,0,1,1,2,2A2,2,0,0,1,22,29Zm0,8a2,2,0,1,1,2,2A2,2,0,0,1,22,37Zm0,8a2,2,0,1,1,2,2A2,2,0,0,1,22,45Zm8-16a2,2,0,1,1,2,2A2,2,0,0,1,30,29Zm0,8a2,2,0,1,1,2,2A2,2,0,0,1,30,37Zm0,8a2,2,0,1,1,2,2A2,2,0,0,1,30,45Zm8-16a2,2,0,1,1,2,2A2,2,0,0,1,38,29Zm0,8a2,2,0,1,1,2,2A2,2,0,0,1,38,37Zm0,8a2,2,0,1,1,2,2A2,2,0,0,1,38,45Zm8-16a2,2,0,1,1,2,2A2,2,0,0,1,46,29Zm0,8a2,2,0,1,1,2,2A2,2,0,0,1,46,37Z"/></svg>