<svg xmlns:dc="http://purl.org/dc/elements/1.1/" xmlns:cc="http://creativecommons.org/ns#" xmlns:rdf="http://www.w3.org/1999/02/22-rdf-syntax-ns#" xmlns:svg="http://www.w3.org/2000/svg" xmlns="http://www.w3.org/2000/svg" version="1.1" viewBox="0 0 48 60" x="0px" y="0px"><g transform="translate(-0.00381454,-4.7136653e-4)"><path style="color:#000000;font-style:normal;font-variant:normal;font-weight:normal;font-stretch:normal;font-size:medium;line-height:normal;font-family:sans-serif;font-variant-ligatures:normal;font-variant-position:normal;font-variant-caps:normal;font-variant-numeric:normal;font-variant-alternates:normal;font-variant-east-asian:normal;font-feature-settings:normal;font-variation-settings:normal;text-indent:0;text-align:start;text-decoration:none;text-decoration-line:none;text-decoration-style:solid;text-decoration-color:#000000;letter-spacing:normal;word-spacing:normal;text-transform:none;writing-mode:lr-tb;direction:ltr;text-orientation:mixed;dominant-baseline:auto;baseline-shift:baseline;text-anchor:start;white-space:normal;shape-padding:0;shape-margin:0;inline-size:0;clip-rule:nonzero;display:inline;overflow:visible;visibility:visible;opacity:1;isolation:auto;mix-blend-mode:normal;color-interpolation:sRGB;color-interpolation-filters:linearRGB;solid-color:#000000;solid-opacity:1;vector-effect:none;fill:#000000;fill-opacity:1;fill-rule:nonzero;stroke:none;stroke-linecap:round;stroke-linejoin:round;stroke-miterlimit:4;stroke-dasharray:none;stroke-dashoffset:0;stroke-opacity:1;color-rendering:auto;image-rendering:auto;shape-rendering:auto;text-rendering:auto;enable-background:accumulate;stop-color:#000000;stop-opacity:1" d="m 23.29774,45.618547 c 4.61761,1.006512 9.39464,0.07135 13.63804,-3.41538 1.31959,-1.08428 1.3981,-3.081661 0.23478,-4.300646 -1.38481,-1.451074 -3.69498,-3.805728 -6.35705,-6.497927 -1.55212,-1.569736 -4.11318,-1.574041 -5.67343,-0.01381 l -2.83533,2.835333 c -0.40178,0.401778 -1.0221,0.400398 -1.42388,-0.0014 l -7.09731,-7.097309 c -0.40178,-0.401776 -0.40316,-1.022104 -10e-4,-1.42388 l 2.83119,-2.83119 c 1.56245,-1.562434 1.55811,-4.12741 -0.0138,-5.681712 -2.6905,-2.660338 -5.0434,-4.968776 -6.49378,-6.352912 -1.219,-1.1633117 -3.21635,-1.0848032 -4.30065,0.234782 -3.48676,4.243372 -4.42328,9.02184 -3.41676,13.639427 1.00652,4.617584 3.87554,9.079611 7.85267,13.056715 3.97713,3.977103 8.4391,6.843398 13.05672,7.849909 z M 4.34258,24.28519 c -0.89417,-4.102127 -0.1337,-8.120387 3.00658,-11.942093 0.32208,-0.391969 0.99531,-0.420873 1.37555,-0.05801 1.42841,1.363176 3.78171,3.670975 6.46892,6.328052 0.80197,0.792914 0.80368,2.046857 0.005,2.844999 l -2.83119,2.831192 c -1.16608,1.16607 -1.1647,3.086231 10e-4,4.252307 l 7.09731,7.097308 c 1.16609,1.166078 3.08623,1.167456 4.25231,0.0014 L 26.5543,32.805 c 0.79593,-0.79593 2.04734,-0.792822 2.83809,0.0069 2.65882,2.688911 4.96698,5.042583 6.33082,6.471683 0.36284,0.380212 0.33397,1.053461 -0.058,1.375544 -3.82174,3.140257 -7.83994,3.900744 -11.9421,3.006584 C 19.62094,42.771555 15.44132,40.140468 11.65525,36.354426 7.86918,32.568385 5.23674,28.387317 4.34258,24.28519 Z"/><path style="color:#000000;font-style:normal;font-variant:normal;font-weight:normal;font-stretch:normal;font-size:medium;line-height:normal;font-family:sans-serif;font-variant-ligatures:normal;font-variant-position:normal;font-variant-caps:normal;font-variant-numeric:normal;font-variant-alternates:normal;font-variant-east-asian:normal;font-feature-settings:normal;font-variation-settings:normal;text-indent:0;text-align:start;text-decoration:none;text-decoration-line:none;text-decoration-style:solid;text-decoration-color:#000000;letter-spacing:normal;word-spacing:normal;text-transform:none;writing-mode:lr-tb;direction:ltr;text-orientation:mixed;dominant-baseline:auto;baseline-shift:baseline;text-anchor:start;white-space:normal;shape-padding:0;shape-margin:0;inline-size:0;clip-rule:nonzero;display:inline;overflow:visible;visibility:visible;opacity:1;isolation:auto;mix-blend-mode:normal;color-interpolation:sRGB;color-interpolation-filters:linearRGB;solid-color:#000000;solid-opacity:1;vector-effect:none;fill:#000000;fill-opacity:1;fill-rule:nonzero;stroke:none;stroke-linecap:round;stroke-linejoin:round;stroke-miterlimit:4;stroke-dasharray:none;stroke-dashoffset:0;stroke-opacity:1;color-rendering:auto;image-rendering:auto;shape-rendering:auto;text-rendering:auto;enable-background:accumulate;stop-color:#000000" d="m 27.33462,20.751255 c -1.36003,-1.360033 -3.04205,-2.339662 -4.8586,-2.82014 a 1,1 0 0 0 -1.22224,0.711249 1,1 0 0 0 0.71125,1.222245 c 1.45996,0.386162 2.83975,1.185231 3.95538,2.30086 1.0771,1.077101 1.86061,2.404201 2.26081,3.810366 a 1,1 0 0 0 1.23605,0.686391 1,1 0 0 0 0.68777,-1.234675 C 29.60775,23.680227 28.6477,22.064334 27.33462,20.751255 Z"/><path style="color:#000000;font-style:normal;font-variant:normal;font-weight:normal;font-stretch:normal;font-size:medium;line-height:normal;font-family:sans-serif;font-variant-ligatures:normal;font-variant-position:normal;font-variant-caps:normal;font-variant-numeric:normal;font-variant-alternates:normal;font-variant-east-asian:normal;font-feature-settings:normal;font-variation-settings:normal;text-indent:0;text-align:start;text-decoration:none;text-decoration-line:none;text-decoration-style:solid;text-decoration-color:#000000;letter-spacing:normal;word-spacing:normal;text-transform:none;writing-mode:lr-tb;direction:ltr;text-orientation:mixed;dominant-baseline:auto;baseline-shift:baseline;text-anchor:start;white-space:normal;shape-padding:0;shape-margin:0;inline-size:0;clip-rule:nonzero;display:inline;overflow:visible;visibility:visible;opacity:1;isolation:auto;mix-blend-mode:normal;color-interpolation:sRGB;color-interpolation-filters:linearRGB;solid-color:#000000;solid-opacity:1;vector-effect:none;fill:#000000;fill-opacity:1;fill-rule:nonzero;stroke:none;stroke-linecap:round;stroke-linejoin:round;stroke-miterlimit:4;stroke-dasharray:none;stroke-dashoffset:0;stroke-opacity:1;color-rendering:auto;image-rendering:auto;shape-rendering:auto;text-rendering:auto;enable-background:accumulate;stop-color:#000000" d="m 30.87015,17.215721 c -2.37958,-2.379589 -5.38791,-4.001692 -8.59024,-4.621054 a 1,1 0 0 0 -1.17114,0.789972 1,1 0 0 0 0.79135,1.172526 c 2.79018,0.539649 5.4512,1.968146 7.55582,4.07277 2.03357,2.03357 3.43886,4.590397 4.01753,7.282371 a 1,1 0 0 0 1.1891,0.766492 1,1 0 0 0 0.76649,-1.186337 c -0.66354,-3.086792 -2.25963,-5.977462 -4.55891,-8.27674 z"/><path style="color:#000000;font-style:normal;font-variant:normal;font-weight:normal;font-stretch:normal;font-size:medium;line-height:normal;font-family:sans-serif;font-variant-ligatures:normal;font-variant-position:normal;font-variant-caps:normal;font-variant-numeric:normal;font-variant-alternates:normal;font-variant-east-asian:normal;font-feature-settings:normal;font-variation-settings:normal;text-indent:0;text-align:start;text-decoration:none;text-decoration-line:none;text-decoration-style:solid;text-decoration-color:#000000;letter-spacing:normal;word-spacing:normal;text-transform:none;writing-mode:lr-tb;direction:ltr;text-orientation:mixed;dominant-baseline:auto;baseline-shift:baseline;text-anchor:start;white-space:normal;shape-padding:0;shape-margin:0;inline-size:0;clip-rule:nonzero;display:inline;overflow:visible;visibility:visible;opacity:1;isolation:auto;mix-blend-mode:normal;color-interpolation:sRGB;color-interpolation-filters:linearRGB;solid-color:#000000;solid-opacity:1;vector-effect:none;fill:#000000;fill-opacity:1;fill-rule:nonzero;stroke:none;stroke-linecap:round;stroke-linejoin:round;stroke-miterlimit:4;stroke-dasharray:none;stroke-dashoffset:0;stroke-opacity:1;color-rendering:auto;image-rendering:auto;shape-rendering:auto;text-rendering:auto;enable-background:accumulate;stop-color:#000000" d="M 34.40569,13.680187 C 31.01514,10.289642 26.68765,8.0357259 22.11833,7.2955103 a 1,1 0 0 0 -1.14491,0.8272598 1,1 0 0 0 0.82588,1.1462858 c 4.13204,0.6693784 8.09033,2.7235021 11.19218,5.8253451 2.99779,2.997794 5.02112,6.799618 5.75629,10.788902 a 1,1 0 0 0 1.16424,0.802401 1,1 0 0 0 0.8024,-1.16424 C 39.90201,21.113069 37.68253,16.95703 34.40569,13.680187 Z"/><path style="color:#000000;font-style:normal;font-variant:normal;font-weight:normal;font-stretch:normal;font-size:medium;line-height:normal;font-family:sans-serif;font-variant-ligatures:normal;font-variant-position:normal;font-variant-caps:normal;font-variant-numeric:normal;font-variant-alternates:normal;font-variant-east-asian:normal;font-feature-settings:normal;font-variation-settings:normal;text-indent:0;text-align:start;text-decoration:none;text-decoration-line:none;text-decoration-style:solid;text-decoration-color:#000000;letter-spacing:normal;word-spacing:normal;text-transform:none;writing-mode:lr-tb;direction:ltr;text-orientation:mixed;dominant-baseline:auto;baseline-shift:baseline;text-anchor:start;white-space:normal;shape-padding:0;shape-margin:0;inline-size:0;clip-rule:nonzero;display:inline;overflow:visible;visibility:visible;opacity:1;isolation:auto;mix-blend-mode:normal;color-interpolation:sRGB;color-interpolation-filters:linearRGB;solid-color:#000000;solid-opacity:1;vector-effect:none;fill:#000000;fill-opacity:1;fill-rule:nonzero;stroke:none;stroke-linecap:round;stroke-linejoin:round;stroke-miterlimit:4;stroke-dasharray:none;stroke-dashoffset:0;stroke-opacity:1;color-rendering:auto;image-rendering:auto;shape-rendering:auto;text-rendering:auto;enable-background:accumulate;stop-color:#000000" d="M 37.94122,10.144653 C 33.54354,5.7469688 27.90286,2.8674952 21.9747,2.0115446 a 1,1 0 0 0 -1.13386,0.8465949 1,1 0 0 0 0.84798,1.1324746 c 5.47671,0.7907674 10.73696,3.4670263 14.83819,7.5682529 3.96458,3.964581 6.6018,9.0177 7.48539,14.307863 a 1,1 0 0 0 1.15181,0.823117 1,1 0 0 0 0.82174,-1.153191 C 45.03005,19.813594 42.19242,14.395847 37.94122,10.144653 Z"/></g></svg>