<svg xmlns:dc="http://purl.org/dc/elements/1.1/" xmlns:cc="http://creativecommons.org/ns#" xmlns:rdf="http://www.w3.org/1999/02/22-rdf-syntax-ns#" xmlns:svg="http://www.w3.org/2000/svg" xmlns="http://www.w3.org/2000/svg" xmlns:sodipodi="http://sodipodi.sourceforge.net/DTD/sodipodi-0.dtd" xmlns:inkscape="http://www.inkscape.org/namespaces/inkscape" version="1.1" x="0px" y="0px" viewBox="0 0 100 125"><g transform="translate(0,-952.36218)"><path style="font-size:medium;font-style:normal;font-variant:normal;font-weight:normal;font-stretch:normal;text-indent:0;text-align:start;text-decoration:none;line-height:normal;letter-spacing:normal;word-spacing:normal;text-transform:none;direction:ltr;block-progression:tb;writing-mode:lr-tb;text-anchor:start;baseline-shift:baseline;opacity:1;color:#000000;fill:#000000;fill-opacity:1;stroke:none;stroke-width:4;marker:none;visibility:visible;display:inline;overflow:visible;enable-background:accumulate;font-family:Sans;-inkscape-font-specification:Sans" d="M 49.78125 6 A 2.0002 2.0002 0 0 0 49.25 6.15625 L 18.6875 18.5 A 2.0002 2.0002 0 0 0 18.6875 22.1875 L 49.25 34.5625 A 2.0002 2.0002 0 0 0 50.75 34.5625 L 76.125 24.28125 L 76.125 30.84375 C 75.117348 31.504203 74.4375 32.633267 74.4375 33.9375 C 74.4375 35.984202 76.099956 37.65625 78.125 37.65625 C 80.150044 37.65625 81.78125 35.984202 81.78125 33.9375 C 81.78125 32.643088 81.119948 31.506482 80.125 30.84375 L 80.125 22.65625 L 81.3125 22.1875 A 2.0002 2.0002 0 0 0 81.3125 18.5 L 50.75 6.15625 A 2.0002 2.0002 0 0 0 49.78125 6 z M 50 10.15625 L 75.25 20.34375 L 50 30.5625 L 24.75 20.34375 L 50 10.15625 z M 31.4375 34.375 A 2.0002 2.0002 0 0 0 29.65625 36.40625 C 29.65625 47.7336 38.758444 56.9375 50 56.9375 C 61.241557 56.9375 70.34375 47.7336 70.34375 36.40625 A 2.0002 2.0002 0 1 0 66.34375 36.40625 C 66.34375 45.60953 59.071777 52.9375 50 52.9375 C 40.928224 52.9375 33.65625 45.60953 33.65625 36.40625 A 2.0002 2.0002 0 0 0 31.4375 34.375 z M 50 62.8125 C 30.88446 62.8125 15 75.6785 15 92 A 2.0002 2.0002 0 0 0 17 94 L 83 94 A 2.0002 2.0002 0 0 0 85 92 C 85 75.6785 69.115539 62.8125 50 62.8125 z M 50 66.8125 C 66.473793 66.8125 79.482829 77.2152 80.75 90 L 19.25 90 C 20.517171 77.2152 33.526205 66.8125 50 66.8125 z " transform="translate(0,952.36218)"/></g></svg>