<svg xmlns="http://www.w3.org/2000/svg" viewBox="0 0 672 840" x="0px" y="0px" height="40" width="40" ><path d="M57.383,270.177a7,7,0,0,1,1.44-9.794l273-203a7,7,0,0,1,8.354,0l273,203a7,7,0,1,1-8.354,11.234L336,71.723,67.177,271.617A7,7,0,0,1,57.383,270.177ZM441,616h84a42.047,42.047,0,0,0,42-42V287a7,7,0,0,0-14,0V574a28.032,28.032,0,0,1-28,28H441a7.008,7.008,0,0,1-7-7V357a21.023,21.023,0,0,0-21-21H259a21.023,21.023,0,0,0-21,21V595a7.008,7.008,0,0,1-7,7H147a28.032,28.032,0,0,1-28-28V287a7,7,0,0,0-14,0V574a42.047,42.047,0,0,0,42,42h84a21.023,21.023,0,0,0,21-21V357a7.008,7.008,0,0,1,7-7H413a7.008,7.008,0,0,1,7,7V595A21.023,21.023,0,0,0,441,616ZM287,469a21,21,0,1,1-21,21A21.023,21.023,0,0,1,287,469Zm0,14a7,7,0,1,0,7,7A7.008,7.008,0,0,0,287,483Z"/></svg>