<svg xmlns="http://www.w3.org/2000/svg" viewBox="0 0 672 840" x="0px" y="0px" height="40" width="40" ><path d="M56,497V238a7,7,0,0,1,14,0V497a28.032,28.032,0,0,0,28,28H574a28.032,28.032,0,0,0,28-28V238a7,7,0,0,1,14,0V497a42.047,42.047,0,0,1-42,42H98A42.047,42.047,0,0,1,56,497Zm0-308V175a42.047,42.047,0,0,1,42-42H574a42.047,42.047,0,0,1,42,42v14a7,7,0,0,1-2.866,5.649L364.941,376.29a48.842,48.842,0,0,1-57.884,0L58.866,194.649A7,7,0,0,1,56,189Zm14-3.551L315.319,364.992a34.846,34.846,0,0,0,41.355,0L602,185.449V175a28.032,28.032,0,0,0-28-28H98a28.032,28.032,0,0,0-28,28Z"/></svg>