<svg xmlns:dc="http://purl.org/dc/elements/1.1/" xmlns:cc="http://creativecommons.org/ns#" xmlns:rdf="http://www.w3.org/1999/02/22-rdf-syntax-ns#" xmlns:svg="http://www.w3.org/2000/svg" xmlns="http://www.w3.org/2000/svg" xmlns:sodipodi="http://sodipodi.sourceforge.net/DTD/sodipodi-0.dtd" xmlns:inkscape="http://www.inkscape.org/namespaces/inkscape" viewBox="0 0 8.4666667 10.583333625" version="1.1" x="0px" y="0px" height="40" width="40" ><svg:g><svg:path style="color:#000000;font-style:normal;font-variant:normal;font-weight:normal;font-stretch:normal;font-size:medium;line-height:normal;font-family:sans-serif;font-variant-ligatures:normal;font-variant-position:normal;font-variant-caps:normal;font-variant-numeric:normal;font-variant-alternates:normal;font-feature-settings:normal;text-indent:0;text-align:start;text-decoration:none;text-decoration-line:none;text-decoration-style:solid;text-decoration-color:#000000;letter-spacing:normal;word-spacing:normal;text-transform:none;writing-mode:lr-tb;direction:ltr;text-orientation:mixed;dominant-baseline:auto;baseline-shift:baseline;text-anchor:start;white-space:normal;shape-padding:0;clip-rule:nonzero;display:inline;overflow:visible;visibility:visible;opacity:1;isolation:auto;mix-blend-mode:normal;color-interpolation:sRGB;color-interpolation-filters:linearRGB;solid-color:#000000;solid-opacity:1;vector-effect:none;fill:#000000;fill-opacity:1;fill-rule:nonzero;stroke:none;stroke-width:0.5291667;stroke-linecap:round;stroke-linejoin:round;stroke-miterlimit:4;stroke-dasharray:none;stroke-dashoffset:0;stroke-opacity:1;color-rendering:auto;image-rendering:auto;shape-rendering:auto;text-rendering:auto;enable-background:accumulate" d="M 0.26355152,3.369902e-8 A 0.26460981,0.26460981 0 0 0 6.0547787e-8,0.26354983 V 3.5450033 A 0.26460981,0.26460981 0 0 0 0.26355152,3.8085529 H 3.5429375 A 0.26460981,0.26460981 0 0 0 3.8085527,3.5450033 V 0.26354983 A 0.26460981,0.26460981 0 0 0 3.5429375,3.369902e-8 Z m 4.65862978,0 A 0.26460981,0.26460981 0 0 0 4.6581139,0.26354983 V 3.5450033 A 0.26460981,0.26460981 0 0 0 4.9221813,3.8085529 H 8.2010514 A 0.26460981,0.26460981 0 0 0 8.4666666,3.5450033 V 0.26354983 A 0.26460981,0.26460981 0 0 0 8.2010514,3.369902e-8 Z M 0.52916672,0.52916669 H 3.2793861 V 3.2793863 H 0.52916672 Z m 4.65862978,0 H 7.9375 V 3.2793863 H 5.1877965 Z M 0.26355152,4.6581136 A 0.26460981,0.26460981 0 0 0 6.0547787e-8,4.9216632 V 8.2010498 A 0.26460981,0.26460981 0 0 0 0.26355152,8.4666666 H 3.5429375 A 0.26460981,0.26460981 0 0 0 3.8085527,8.2010498 V 4.9216632 A 0.26460981,0.26460981 0 0 0 3.5429375,4.6581136 Z m 4.65862978,0 A 0.26460981,0.26460981 0 0 0 4.6581139,4.9216632 V 8.2010498 A 0.26460981,0.26460981 0 0 0 4.9221813,8.4666666 H 8.2010514 A 0.26460981,0.26460981 0 0 0 8.4666666,8.2010498 V 4.9216632 A 0.26460981,0.26460981 0 0 0 8.2010514,4.6581136 Z M 0.52916672,5.1872803 H 3.2793861 V 7.9374999 H 0.52916672 Z m 4.65862978,0 H 7.9375 V 7.9374999 H 5.1877965 Z"/></svg:g></svg>