<svg xmlns="http://www.w3.org/2000/svg" xmlns:xlink="http://www.w3.org/1999/xlink" version="1.1" x="0px" y="0px" viewBox="0 0 24 30" height="40" width="40"  style="enable-background:new 0 0 24 24;" xml:space="preserve"><g><path d="M23.079,7.072l-0.766-0.487c-0.005-0.144-0.016-0.286-0.032-0.427l0.681-0.595c0.172-0.15,0.221-0.398,0.117-0.603   l-1.046-2.064c-0.104-0.204-0.334-0.313-0.555-0.262l-0.884,0.197c-0.105-0.098-0.215-0.191-0.326-0.28l0.061-0.905   c0.016-0.229-0.126-0.438-0.344-0.509l-2.199-0.72c-0.217-0.073-0.454,0.014-0.577,0.207l-0.486,0.766   c-0.145,0.005-0.287,0.016-0.428,0.032l-0.596-0.682c-0.151-0.172-0.401-0.22-0.603-0.117l-1.771,0.898   c-0.916-0.287-1.901-0.444-2.87-0.444c-3.769,0-7.19,2.27-8.517,5.651c-0.39,1.015-0.48,2.104-0.264,3.145   c0.087,0.447,0.197,0.718,0.233,0.797c0.318,0.574-0.245,1.925-0.538,2.444c-0.64,0.883-0.827,1.554-0.571,2.051   c0.278,0.541,0.906,0.556,0.89,0.545c0.32,0.057,0.388,0.815,0.376,1.086c-0.011,0.264,0.184,0.492,0.447,0.52   c0.236,0.025,0.352,0.072,0.382,0.067c-0.029,0.091-0.148,0.262-0.263,0.373c-0.19,0.18-0.208,0.476-0.043,0.679   c0.5,0.612,0.164,1.408,0.151,1.438c-0.021,0.047-0.035,0.097-0.041,0.148c-0.035,0.306,0.066,0.591,0.283,0.804   c0.683,0.669,2.492,0.483,3.093,0.396c0.513-0.134,0.95-0.091,1.338,0.139c0.893,0.529,1.223,1.853,1.226,1.866   c0.047,0.192,0.203,0.339,0.397,0.374c0.03,0.006,0.06,0.008,0.089,0.008c0.164,0,0.32-0.08,0.414-0.219   c1.113-1.646,5.511-3.178,7.111-3.629c0.133-0.038,0.245-0.129,0.309-0.252c0.063-0.122,0.073-0.266,0.027-0.396   c-0.194-0.547-0.163-1.31,0.089-2.257c0.344-1.206,0.943-2.262,0.941-2.262h-0.001c0.374-0.536,0.678-1.128,0.924-1.751   l1.867-0.946c0.204-0.103,0.313-0.332,0.263-0.554l-0.197-0.885c0.098-0.104,0.191-0.214,0.279-0.326l0.905,0.061   c0.224,0.01,0.437-0.126,0.509-0.343l0.72-2.199C23.356,7.433,23.271,7.195,23.079,7.072z M16.112,16.589   c-0.245,0.92-0.312,1.693-0.199,2.348c-1.289,0.398-4.872,1.608-6.605,3.214c-0.255-0.549-0.689-1.237-1.379-1.648   c-0.625-0.372-1.337-0.456-2.05-0.259c-0.94,0.127-1.983,0.068-2.174-0.097c0.113-0.326,0.332-1.177-0.104-1.99   c0.197-0.274,0.394-0.681,0.254-1.094c-0.109-0.32-0.377-0.542-0.8-0.661c-0.064-0.688-0.362-1.531-1.193-1.676   c-0.029-0.006-0.141-0.017-0.17-0.013c0-0.002-0.055-0.261,0.518-1.056c0.13-0.227,1.25-2.25,0.599-3.419   C2.8,10.217,2.722,10.015,2.655,9.676C2.477,8.817,2.552,7.923,2.871,7.091c1.176-2.998,4.225-5.013,7.585-5.013   c0.793,0,1.597,0.119,2.355,0.335l0.156,0.697c-0.098,0.104-0.191,0.214-0.279,0.326l-0.905-0.061   c-0.237-0.012-0.438,0.126-0.509,0.343l-0.72,2.199c-0.071,0.218,0.014,0.456,0.208,0.579l0.766,0.484   c0.005,0.143,0.015,0.286,0.032,0.427l-0.682,0.596c-0.172,0.151-0.22,0.398-0.117,0.603l1.046,2.064   c0.103,0.204,0.333,0.311,0.554,0.262l0.885-0.197c0.104,0.098,0.214,0.191,0.325,0.28l-0.061,0.905   c-0.016,0.228,0.126,0.438,0.344,0.509l2.199,0.72c0.051,0.017,0.104,0.024,0.155,0.024c0.168,0,0.328-0.085,0.422-0.231   l0.486-0.766c0.145-0.006,0.287-0.016,0.428-0.032l0.407,0.465c-0.209,0.502-0.457,0.985-0.778,1.449   C17.146,14.105,16.497,15.237,16.112,16.589z M21.736,9.168l-0.788-0.053c-0.171-0.004-0.341,0.069-0.442,0.211   c-0.155,0.221-0.333,0.428-0.526,0.615c-0.126,0.121-0.18,0.298-0.142,0.468l0.172,0.771l-1.371,0.695l-0.519-0.594   c-0.116-0.132-0.293-0.196-0.462-0.164c-0.261,0.045-0.524,0.063-0.81,0.061c-0.179,0.016-0.336,0.085-0.43,0.232l-0.424,0.667   l-1.46-0.479l0.053-0.788c0.012-0.174-0.068-0.342-0.211-0.442c-0.221-0.155-0.427-0.333-0.614-0.527   c-0.122-0.125-0.298-0.178-0.469-0.141l-0.771,0.172L11.829,8.5l0.593-0.519c0.131-0.115,0.193-0.29,0.164-0.461   c-0.046-0.264-0.065-0.536-0.061-0.808c0.003-0.175-0.085-0.339-0.232-0.433l-0.668-0.421l0.479-1.46l0.788,0.053   c0.171,0.007,0.341-0.068,0.442-0.211c0.155-0.221,0.333-0.428,0.526-0.615c0.126-0.121,0.18-0.298,0.142-0.469l-0.172-0.77   l1.371-0.695l0.519,0.594c0.115,0.131,0.289,0.192,0.462,0.164c0.261-0.044,0.536-0.063,0.809-0.061   c0.172-0.002,0.337-0.085,0.431-0.232l0.424-0.667l1.46,0.478l-0.053,0.788c-0.012,0.174,0.068,0.342,0.211,0.442   c0.22,0.155,0.427,0.333,0.616,0.528c0.121,0.125,0.298,0.179,0.468,0.14l0.77-0.171l0.694,1.371l-0.592,0.517   c-0.131,0.115-0.193,0.289-0.164,0.461c0.046,0.263,0.066,0.535,0.062,0.809c-0.003,0.174,0.085,0.337,0.231,0.43l0.667,0.424   L21.736,9.168z"/><path d="M16.92,3.137c-2.01,0-3.646,1.636-3.646,3.646s1.636,3.646,3.646,3.646c2.011,0,3.646-1.636,3.646-3.646   S18.931,3.137,16.92,3.137z M16.92,9.429c-1.459,0-2.646-1.187-2.646-2.646s1.187-2.646,2.646-2.646s2.646,1.187,2.646,2.646   S18.379,9.429,16.92,9.429z"/></g></svg>