<svg xmlns="http://www.w3.org/2000/svg" viewBox="0 0 90 112.5" height="40" width="40"  fill="none" x="0px" y="0px"><path d="M83.6669 41.633C82.9333 41.633 82.3378 41.0376 82.3378 40.3092V33.3978C82.3378 29.0225 78.7763 25.4606 74.4009 25.4606H15.5912C11.2158 25.4606 7.65299 29.0225 7.65299 33.3978V40.3092C7.65299 41.0429 7.05743 41.633 6.32909 41.633C5.59543 41.633 5 41.0376 5 40.3092V33.3978C5 27.5605 9.75383 22.8076 15.5912 22.8076H74.4009C80.2383 22.8076 84.9908 27.5552 84.9908 33.3978V40.3092C84.9961 41.0376 84.4006 41.633 83.6669 41.633Z" fill="black"/><path d="M74.405 80.0204H15.5953C9.7579 80.0204 5.00537 75.1081 5.00537 69.0687V47.1335C5.00537 46.3998 5.6008 45.8096 6.33446 45.8096C7.06812 45.8096 7.65707 46.4051 7.65707 47.1335V69.0687C7.65707 73.6461 11.2199 77.3729 15.5953 77.3729H74.405C78.7804 77.3729 82.3419 73.6461 82.3419 69.0687V47.1335C82.3419 46.3998 82.9373 45.8096 83.671 45.8096C84.4047 45.8096 85.0001 46.4051 85.0001 47.1335V69.0687C84.9948 75.1028 80.2424 80.0204 74.405 80.0204Z" fill="black"/><path d="M58.5229 21.6216C57.7892 21.6216 57.1938 21.0262 57.1938 20.2979V19.2665C57.1938 15.6195 54.2278 12.6528 50.5808 12.6528H39.4055C35.7585 12.6528 32.7912 15.6195 32.7912 19.2665V20.2979C32.7912 21.0315 32.1956 21.6216 31.4673 21.6216C30.7336 21.6216 30.1382 21.0262 30.1382 20.2979V19.2665C30.1382 14.1575 34.2965 10 39.4055 10H50.5808C55.6898 10 59.8468 14.1575 59.8468 19.2665V20.2979C59.8468 21.0262 59.2565 21.6216 58.5229 21.6216Z" fill="black"/><path d="M45.3257 55.5987H44.6768C40.009 55.5987 36.2129 51.8029 36.2129 47.1351C36.2129 42.4673 40.009 38.6768 44.6768 38.6768H45.3257C49.9935 38.6768 53.7883 42.4727 53.7883 47.1351C53.7883 51.7976 49.9935 55.5987 45.3257 55.5987ZM44.6768 41.3296C41.471 41.3296 38.8659 43.9345 38.8659 47.1403C38.8659 50.3461 41.471 52.9512 44.6768 52.9512H45.3257C48.5315 52.9512 51.1366 50.3461 51.1366 47.1403C51.1366 43.9345 48.5315 41.3296 45.3257 41.3296H44.6768Z" fill="black"/><path d="M73.0264 48.3005H56.4712C55.7375 48.3005 55.1421 47.7051 55.1421 46.9714C55.1421 46.2377 55.7375 45.6477 56.4712 45.6477H72.6435L82.9674 39.1829C83.5894 38.7948 84.4081 38.9808 84.7962 39.6028C85.1843 40.2248 84.9989 41.0437 84.3769 41.4318L73.7338 48.0985C73.5211 48.2314 73.2763 48.3005 73.0264 48.3005Z" fill="black"/><path d="M33.5287 48.3005H16.9735C16.7236 48.3005 16.4786 48.2314 16.2713 48.0985L5.62818 41.4318C5.00617 41.0437 4.81956 40.2248 5.20765 39.6028C5.59574 38.9808 6.41443 38.7948 7.03645 39.1829L17.3616 45.6477H33.5339C34.2676 45.6477 34.863 46.2431 34.863 46.9714C34.8577 47.7104 34.2624 48.3005 33.5287 48.3005Z" fill="black"/></svg>