<?xml version="1.0" encoding="utf-8"?>
<!-- Generator: Adobe Illustrator 26.2.1, SVG Export Plug-In . SVG Version: 6.00 Build 0)  -->
<svg version="1.1" id="Layer_1" xmlns="http://www.w3.org/2000/svg" xmlns:xlink="http://www.w3.org/1999/xlink" x="0px" y="0px"
	 viewBox="0 0 212.8 212.8" style="enable-background:new 0 0 212.8 212.8;" xml:space="preserve">
<g>
	<path d="M209.5,193.7c4.4,4.4,4.4,11.5,0,15.8c-4.4,4.4-11.5,4.4-15.8,0l-54.8-54.8c-2.2-2.2-6-2.5-8.5-0.8c0,0-1.5,1.2-4.8,3
		c-12.3,7-26.5,11-41.6,11c-46.4,0-84-37.6-84-84C0,37.6,37.6,0,84,0c46.4,0,84,37.6,84,84c0,15.2-4.1,29.5-11.2,41.9
		c-1.8,3.2-2.8,4.4-2.8,4.4c-1.8,2.6-1.4,6.4,0.7,8.6L209.5,193.7z M84,145.6c34,0,61.6-27.6,61.6-61.6c0-34-27.6-61.6-61.6-61.6
		C50,22.4,22.4,50,22.4,84C22.4,118,50,145.6,84,145.6z"/>
</g>
</svg>
