<?xml version="1.0" encoding="utf-8"?>
<!-- Generator: Adobe Illustrator 26.2.1, SVG Export Plug-In . SVG Version: 6.00 Build 0)  -->
<svg version="1.1" id="Layer_1" xmlns="http://www.w3.org/2000/svg" xmlns:xlink="http://www.w3.org/1999/xlink" x="0px" y="0px"
	 viewBox="0 0 517 511" style="enable-background:new 0 0 517 511;" xml:space="preserve">
<g>
	<path d="M471.7,98.7L517,54l-40.5-11.6L461.4,0l-43,44.7l-5,36.7l-25.5,24.4C346.7,67.5,291.5,44.1,231,44.1
		c-127.4,0-231,103.6-231,231s103.6,231,231,231s231-103.6,231-231c0-56.8-20.6-108.8-54.8-149.1l23.2-22.2L471.7,98.7z
		 M422.8,275.1c0,105.8-86,191.8-191.8,191.8s-191.8-86-191.8-191.8c0-105.8,86-191.8,191.8-191.8c49.4,0,94.5,18.8,128.5,49.6
		l-32.3,30.8c-25.8-22.4-59.5-35.9-96.3-35.9c-81.2,0-147.3,66.1-147.3,147.3c0,81.2,66.1,147.3,147.3,147.3
		c81.2,0,147.3-66.1,147.3-147.3c0-34.4-11.9-66.1-31.7-91.2l32.3-30.8C406.3,186.3,422.8,228.8,422.8,275.1L422.8,275.1z
		 M339.1,275.1c0,59.6-48.5,108.1-108.1,108.1c-59.6,0-108.1-48.5-108.1-108.1c0-59.6,48.5-108.1,108.1-108.1c25.6,0,49.2,9,67.8,24
		l-35.5,33.9c-9.3-6-20.4-9.5-32.3-9.5c-33,0-59.7,26.7-59.7,59.7c0,33,26.7,59.7,59.7,59.7s59.7-26.7,59.7-59.7
		c0-10.9-3-21.1-8.1-30l35.5-33.9C331.2,229.1,339.1,251.2,339.1,275.1L339.1,275.1z"/>
</g>
</svg>
