<?xml version="1.0" encoding="utf-8"?>
<!-- Generator: Adobe Illustrator 26.2.1, SVG Export Plug-In . SVG Version: 6.00 Build 0)  -->
<svg version="1.1" id="Layer_1" xmlns="http://www.w3.org/2000/svg" xmlns:xlink="http://www.w3.org/1999/xlink" x="0px" y="0px"
	 viewBox="0 0 475.1 475.1" style="enable-background:new 0 0 475.1 475.1;" xml:space="preserve">
<style type="text/css">
	.st0{fill-rule:evenodd;clip-rule:evenodd;}
</style>
<g>
	<path d="M255.4,49.7v5.3h28c3.3,0,6.2,1.8,7.8,4.4c2,1.7,3.3,4.2,3.1,7l-0.7,7.8l82,0v390.8l-276.3,0V74.1h83.1v-9.9
		c0-5.1,4.2-9.2,9.2-9.2h29.7v-5.3H89.3v425.5h296.5V49.7L255.4,49.7z"/>
	<path d="M292.7,74.1h1l0.7-7.8c0.2-2.8-1.1-5.3-3.1-7c0.9,1.4,1.4,3.1,1.4,4.8L292.7,74.1z"/>
	<path d="M253.7,49.7h1.7v5.3h-1.7V49.7z"/>
	<path d="M195.8,57.7c-4.6,0-8.4,3.8-8.4,8.4v19.8h100.4l0-10.8v-9c0-1.6-0.5-3.1-1.3-4.4c-1.5-2.4-4.1-4-7.1-4h-27v-43
		c0-8.1-6.6-14.7-14.7-14.7c-8.1,0-14.7,6.6-14.7,14.7v43L195.8,57.7z M237.6,8c3.7,0,6.8,3,6.8,6.8c0,3.7-3,6.8-6.8,6.8
		c-3.7,0-6.8-3-6.8-6.8C230.8,11,233.8,8,237.6,8z"/>
	<path class="st0" d="M166.9,125h141.3v12.4H166.9V125z"/>
	<path class="st0" d="M118.7,156.1h237.7v12.4H118.7V156.1z"/>
	<path class="st0" d="M118.7,177.8h237.7v12.4H118.7V177.8z"/>
	<path class="st0" d="M118.7,199.6h237.7V212H118.7V199.6z"/>
	<path class="st0" d="M118.7,221.4h111.4v12.4H118.7L118.7,221.4z"/>
	<path d="M240.9,449.5l-46.3-68.9c-2.9-4.3-1.8-10.2,2.6-13.2c4.3-2.9,10.2-1.8,13.2,2.6l34.3,51l97.4-85.3
		c3.9-3.5,9.9-3.1,13.4,0.9c3.4,3.9,3.1,9.9-0.9,13.4L240.9,449.5z"/>
</g>
</svg>
