<?xml version="1.0" encoding="UTF-8"?>
<svg width="700pt" height="700pt" version="1.1" viewBox="0 0 700 700" xmlns="http://www.w3.org/2000/svg">
 <path d="m350 23.332c-68.07 0-133.36 27.043-181.49 75.176-48.133 48.137-75.176 113.42-75.176 181.49s27.043 133.36 75.176 181.49c48.137 48.133 113.42 75.176 181.49 75.176s133.36-27.043 181.49-75.176c48.133-48.137 75.176-113.42 75.176-181.49s-27.043-133.36-75.176-181.49c-48.137-48.133-113.42-75.176-181.49-75.176zm0 466.67c-55.695 0-109.11-22.125-148.49-61.508-39.383-39.383-61.508-92.797-61.508-148.49s22.125-109.11 61.508-148.49c39.383-39.383 92.797-61.508 148.49-61.508s109.11 22.125 148.49 61.508c39.383 39.383 61.508 92.797 61.508 148.49s-22.125 109.11-61.508 148.49c-39.383 39.383-92.797 61.508-148.49 61.508zm23.332-233.33h116.67v46.668l-116.67-0.003907v116.67h-46.664v-116.67h-116.67v-46.664h116.67v-116.67h46.668z"/>
</svg>
