<?xml version="1.0" encoding="utf-8"?>
<!-- Generator: Adobe Illustrator 26.2.1, SVG Export Plug-In . SVG Version: 6.00 Build 0)  -->
<svg version="1.1" id="Layer_1" xmlns="http://www.w3.org/2000/svg" xmlns:xlink="http://www.w3.org/1999/xlink" x="0px" y="0px"
	 viewBox="0 0 544.2 544.2" style="enable-background:new 0 0 544.2 544.2;" xml:space="preserve">
<g>
	<path d="M272.1,141.3C170.6,141.3,69.6,184.6,0,272.1c139.1,174.6,405.1,174.6,544.2,0C474.7,184.6,373.2,141.3,272.1,141.3
		L272.1,141.3z M272.1,371.4c-54.7,0-99.3-44.2-99.3-99.3c0-54.7,44.2-99.3,99.3-99.3s99.3,44.6,99.3,99.3S326.8,371.4,272.1,371.4z
		"/>
	<path d="M309.7,257.6c-15.3,0-28-12.2-28-28c0-8.3,3.5-15.3,9.2-20.6c-6.1-1.3-12.2-2.6-18.8-2.6c-36.3,0-65.6,29.3-65.6,65.6
		s29.3,65.6,65.6,65.6s65.6-29.3,65.6-65.6c0-9.2-1.8-17.9-5.2-25.8C327.2,253.3,318.9,257.6,309.7,257.6L309.7,257.6z"/>
</g>
</svg>
