<svg xmlns="http://www.w3.org/2000/svg" data-name="Layer 1" viewBox="0 0 100 125" x="0px" y="0px"><title>69</title><path d="M45,5v9.21722A22.3954,22.3954,0,0,0,30.38574,23.8584,17.84181,17.84181,0,0,0,28.419,39.29688a20.8924,20.8924,0,0,0,12.71,12.68066l14.18945,5.39258a10.97167,10.97167,0,0,1,6.77441,6.49121,7.916,7.916,0,0,1-.92382,6.92676c-3.6045,5.68359-12.61915,7.3164-18.915,3.42187l-9.13086-5.64551-5.25977,8.50586,9.13086,5.64453A23.90143,23.90143,0,0,0,45,85.82678V95H55V85.77228A22.38645,22.38645,0,0,0,69.61426,76.1416a17.84179,17.84179,0,0,0,1.96679-15.43847,20.89237,20.89237,0,0,0-12.71-12.68067L44.68164,42.62988a10.97167,10.97167,0,0,1-6.77441-6.49121,7.916,7.916,0,0,1,.92382-6.92676c3.60547-5.68261,12.62208-7.31445,18.915-3.42187l9.13086,5.64551,5.25977-8.50586-9.13086-5.64453A23.907,23.907,0,0,0,55,14.17535V5Z"/></svg>