<?xml version="1.0" encoding="utf-8"?>
<svg viewBox="74.586 34.374 500 500" xmlns="http://www.w3.org/2000/svg">
  <g transform="matrix(0.027405, 0, 0, 0.027405, 220.811035, 126.754143)" style="">
    <path d="M88.8,447.3l23.5,72.8c-35.8,32.6-76.2,0-76.2,0l23.4-72.4c-7.1-3.5-11.7-9.6-11.7-16.6c0-9.4,8.6-17.3,20.2-19.3 l-2.4-83.9l-55.5-21.3l354.8-131.4l375,131.4L375,446.6L81.6,334c0.2,24.5,0.3,67.8,0,78.2c10.6,2.5,18.3,10,18.3,18.9 C99.9,437.8,95.5,443.7,88.8,447.3z M148.2,391.9v120.2C276.1,462.3,375,574.8,375,574.8c72.1-104.9,223.3-62.7,223.3-62.7V385.5 L375,471.2L148.2,391.9z"/>
  </g>
  <g transform="matrix(1, 0, 0, 1, 0.389651, 5.762294)">
    <g transform="matrix(1, 0, 0, 1, 171.948364, -11.150235)">
      <line style="fill: rgb(216, 216, 216); stroke: rgb(0, 0, 0);" x1="2.688" y1="144.911" x2="42.688" y2="144.324"/>
      <line style="fill: rgb(216, 216, 216); stroke: rgb(0, 0, 0);" x1="2.54" y1="142.312" x2="42.54" y2="141.725"/>
    </g>
  </g>
  <g transform="matrix(1, 0, 0, 1, 72.661461, 3.964211)">
    <g transform="matrix(1, 0, 0, 1, 171.948364, -11.150235)">
      <line style="fill: rgb(216, 216, 216); stroke: rgb(0, 0, 0);" x1="2.688" y1="144.911" x2="42.688" y2="144.324"/>
      <line style="fill: rgb(216, 216, 216); stroke: rgb(0, 0, 0);" x1="2.54" y1="142.312" x2="42.54" y2="141.725"/>
    </g>
  </g>
</svg>