<?xml version="1.0" encoding="UTF-8"?><svg xmlns="http://www.w3.org/2000/svg" viewBox="0 0 188.62 191.9"><defs><style>.d{fill:#dfefe7;}.e{fill:#fff;}.f,.g{fill:#413c3d;}.f,.h,.i,.j,.k,.l,.m,.n{mix-blend-mode:multiply;}.o,.l{fill:#0a6362;}.p{fill:#ffe700;}.q,.j{fill:#e23b21;}.r{isolation:isolate;}.h{opacity:.4;}.h,.s{fill:#009a9a;}.t{fill:#000527;}.u{fill:#0d8585;}.i,.v{fill:#f4d9bf;}.w{fill:#e30613;}.x{fill:#dde6ec;}.y{fill:#aa1a14;}.k,.l{opacity:.3;}.a`{fill:#3c190a;}.aa,.n{fill:#f39f00;}.ab{fill:#cac7a8;}.ac{fill:none;}.ad,.m{fill:#007bba;}.m{opacity:.5;}.ae{fill:#002a29;}.af{fill:#025352;}.ag{fill:#c39368;}.ah{fill:#e3bb94;}</style></defs><g class="r"><g id="a"/><g id="b"><g id="c"><g><g><path class="q" d="M181.48,48.25c.59-.55,7.97-4.56,3.53-4.96-1.88-.17-3.89,.19-5.74,.48-2.91,.46-5.83,.86-8.74,1.34-15.97,2.6-31.77,7.03-46.85,12.87-14.35,5.56-28.28,13.47-39.45,24.17-.06,0-.13,.04-.22,.13-3.5,3.74-7.8,6.66-11.46,10.24-3.28,3.2-7.16,5.57-10.24,8.99-3.14,3.49-5.76,7.47-8.18,11.48-1.08,1.79-2.69,3.58-3.44,5.54-.68,1.78-2.09,3.09-2.46,4.96-.04,.18,0,.33,.22,.3,7.63-.98,15.63,.69,23.31,1.39,8.43,.77,16.77,1.58,25.11,3.11,15.77,2.9,31.66,5.93,46.87,11.12,3.55,1.21,7.55,2.63,10.66,4.78,1.13,.78,3.03,3.59,4.66,2.02,1.04-1,1.13-2.49,1.17-3.85,.11-4.48-.14-8.35,1.58-12.62,3.13-7.75,9.93-12.88,15.09-19.15,1.82-2.21,3.4-4.75,4.4-7.44,1.14-3.05,.52-5.99-.5-8.96-1.2-3.5-3.28-6.58-5.13-9.75-2.16-3.68-3.92-8.05-4.51-12.29-1.2-8.61,4.23-18.23,10.32-23.89Z"/><path class="j" d="M109.94,86.79c-.33-.25-.38-.88,.13-.98,13.71-2.76,27.88,2.31,40.56,7.14,6.42,2.45,12.79,5.12,18.79,8.48,2.75,1.54,5.27,3.14,7.71,5.14,.56,.46,1.13,.91,1.7,1.36,.99-1.52,1.86-3.12,2.48-4.79,.86-2.28,.72-4.51,.17-6.73-7.24-3.65-14.72-6.82-22.31-9.6-8.45-3.09-17.07-5.76-25.8-7.93-8.13-2.02-17.08-5.77-25.52-3.49-.61,.16-.91-.65-.41-.98,19.81-13.03,43.99-15.54,67.32-17.55,.52-.92,1.07-1.82,1.66-2.68-16.62,.46-33.14,2.85-49.25,7.26-.58,.16-.96-.7-.41-.98,10.37-5.31,21.3-8.07,32.4-11.33,8.25-2.42,16.59-4.91,25.14-5.87-1.67-.04-3.4,.25-5.02,.5-2.91,.46-5.83,.86-8.74,1.34-15.97,2.6-31.77,7.03-46.85,12.87-14.35,5.56-28.28,13.47-39.45,24.17-.06,0-.13,.04-.22,.13-3.5,3.74-7.8,6.66-11.46,10.24-3.28,3.2-7.16,5.57-10.24,8.99-3.14,3.49-5.76,7.47-8.18,11.48-1.08,1.79-2.69,3.58-3.44,5.54-.68,1.78-2.09,3.09-2.46,4.96-.04,.18,0,.33,.22,.3,7.63-.98,15.63,.69,23.31,1.39,8.43,.77,16.77,1.58,25.11,3.11,15.77,2.9,31.66,5.93,46.87,11.12,1.54,.53,3.16,1.1,4.76,1.74-6.32-21.59-20.79-40.85-38.56-54.36Z"/><path class="t" d="M78.35,89.56c.02,.09,.23-.11,.22-.21-.05-.3,.19-.79,.57-1.35-.42,.46-.89,1.03-.79,1.55Z"/><path class="t" d="M79.57,87.53c.16-.2,.31-.39,.47-.59-.1,.1-.21,.2-.31,.29-.22,.27-.41,.53-.58,.78,.16-.18,.32-.35,.43-.48Z"/></g><g><path class="v" d="M83.25,83.51s21.28-20.94,30.6-22.47c9.32-1.53,27.41,6.74,27.57,6.96,.16,.22,5.83-3.47,10.42-.35,4.6,3.13,5.39,7.16,4.37,8.45,0,0-.16,2.33-2.24,3.89,0,0-.29,2.67-3.36,3.4,0,0-1.15,3.73-4.32,3-3.17-.73-3.9-3.98-3.9-3.98,0,0-4.98,1.88-6.11-1.3-1.13-3.18,1.42-7.59,1.42-7.59,0,0-14.37-3.41-21.18-1.6-6.8,1.8-22.75,22.59-22.75,22.59l-10.51-11.02Z"/><path class="aa" d="M135.41,72.77c3.28,.9,5.25-2.29,5.07-5.22-3.83-1.76-18.54-7.82-26.63-6.5-9.32,1.52-30.6,22.47-30.6,22.47l10.51,11.02s17.51-18.56,24.31-20.36c4.89-1.3,12.12-2.13,16.69-1.24,.15-.15,.37-.24,.64-.16Z"/><path class="aa" d="M135.41,72.77c3.28,.9,5.25-2.29,5.07-5.22-3.83-1.76-18.54-7.82-26.63-6.5-9.32,1.52-30.6,22.47-30.6,22.47l10.51,11.02s17.51-18.56,24.31-20.36c4.89-1.3,12.12-2.13,16.69-1.24,.15-.15,.37-.24,.64-.16Z"/><path class="n" d="M91.31,83.47c-1.37-2.53-.24-5.54,1.16-8.42-5.25,4.56-9.22,8.46-9.22,8.46l10.51,11.02s2.21-2.34,5.36-5.44c-3.14-1.16-6.32-2.87-7.81-5.62Z"/><path class="n" d="M122.15,61.49c-3.04-.57-5.95-.82-8.3-.44-2.47,.4-5.78,2.18-9.31,4.55,2.81,7.59,15.09,3.3,17.61-4.12Z"/><path class="ag" d="M139.73,79.56s.5-.1,1.25-.06c.75,.04,1.77,.2,2.7,.66,.24,.11,.46,.25,.67,.4,.23,.12,.4,.34,.58,.5,.17,.18,.31,.39,.43,.58,.09,.21,.2,.41,.25,.59,.04,.2,.07,.37,.1,.53,.02,.15-.01,.3-.01,.41-.02,.22-.04,.34-.04,.34,0,0-.03-.12-.09-.33-.04-.1-.05-.23-.1-.36-.06-.13-.14-.28-.2-.44-.09-.15-.22-.29-.31-.45-.13-.15-.28-.29-.43-.43-.18-.13-.33-.27-.53-.38-.19-.12-.38-.24-.6-.33-.41-.22-.86-.37-1.28-.53-.42-.14-.83-.26-1.18-.36-.72-.2-1.19-.32-1.19-.32Z"/><path class="ag" d="M142.38,82.43s.1-.17,.27-.34c.09-.09,.19-.18,.3-.27,.12-.09,.24-.17,.36-.26,.13-.07,.24-.16,.37-.22,.12-.07,.22-.13,.34-.17,.1-.05,.18-.1,.25-.14l.12-.06s0,.04,0,.12c0,.05,0,.09-.02,.15-.02,.05-.02,.13-.06,.18-.03,.06-.07,.12-.11,.19-.04,.06-.08,.14-.14,.19-.11,.12-.24,.23-.38,.33-.28,.18-.6,.29-.86,.31-.26,.03-.44-.02-.44-.02Z"/><path class="ag" d="M149.23,79.45s.29,.1,.61,.39c.08,.07,.17,.15,.25,.25,.08,.09,.17,.19,.25,.3,.13,.24,.3,.48,.39,.76,.04,.14,.08,.29,.12,.42,.05,.14,.03,.28,.05,.42,.02,.13,.01,.27,.01,.39,0,.12-.02,.24-.05,.35-.1,.43-.23,.68-.23,.68,0,0-.1-.29-.16-.68-.01-.19-.11-.41-.16-.65-.04-.23-.14-.46-.22-.71-.03-.12-.07-.24-.13-.35-.05-.11-.09-.23-.13-.35-.11-.21-.19-.43-.28-.61-.18-.38-.3-.63-.3-.63Z"/><path class="ag" d="M152.73,76.32s.24,.13,.49,.43c.14,.14,.27,.32,.4,.53,.14,.2,.23,.45,.34,.68,.07,.25,.15,.5,.19,.74,.02,.25,.03,.48,.01,.68-.08,.4-.2,.64-.2,.64,0,0-.12-.27-.2-.6-.07-.17-.14-.37-.2-.57-.03-.1-.09-.21-.12-.32-.04-.11-.08-.21-.12-.32-.09-.22-.16-.45-.24-.66-.07-.21-.14-.42-.2-.59-.1-.36-.15-.62-.15-.62Z"/><path class="ag" d="M154.58,73.64s.23,.03,.52,.2c.15,.08,.29,.2,.45,.34,.15,.14,.28,.32,.41,.5,.09,.21,.21,.39,.26,.6,.03,.1,.04,.21,.05,.3,.02,.09,.04,.18,.02,.27-.04,.35-.12,.55-.12,.55,0,0-.15-.2-.26-.46-.02-.07-.09-.13-.12-.21-.04-.07-.09-.14-.12-.22-.03-.08-.1-.15-.14-.23l-.14-.24c-.05-.08-.11-.16-.15-.24-.06-.08-.09-.17-.15-.24-.1-.15-.18-.31-.26-.44-.15-.27-.24-.48-.24-.48Z"/></g><path class="g" d="M132.06,145.48s8.57,7.32,10.63,5.66c2.06-1.66,17.77-23.09,17.77-23.09,0,0,1.26-2.23,3.66-.4,2.4,1.83,.97,4.91,0,6.31-.97,1.4-16.12,27.19-21.72,27.19-6.8,0-18.1-7.81-18.1-7.81l7.75-7.86Z"/><path class="f" d="M164.13,127.64c-2.4-1.83-3.66,.4-3.66,.4,0,0-6.27,8.55-11.41,15.27,2.03,1.52,4.12,2.95,6.29,4.27,4.46-6.46,8.31-12.95,8.79-13.63,.97-1.4,2.4-4.48,0-6.31Z"/><path class="f" d="M131.58,152.77c1.3-1.46,2.69-3,3.83-4.68-1.88-1.35-3.35-2.62-3.35-2.62l-7.75,7.86s1.74,1.2,4.26,2.66c1.07-1.05,2.07-2.16,3.01-3.22Z"/><g><path class="o" d="M111.27,156.01h0c1.47,1.14,2.98,2.2,4.38,3,0,0,16.29-3.78,19.46-19.47l-2.34-2.54h0c-4.74,18.72-21.5,19.02-21.5,19.02Z"/><path class="u" d="M103.39,149.05s3.77,3.77,7.88,6.95h0s16.76-.29,21.5-19.02h0l-4.52-4.92-24.87,16.98Z"/></g><g><g><path class="ah" d="M62.71,95.55s-20.82,24.38-26.48,23.53c-5.66-.86-19.02-10.06-19.02-10.06,0,0,1.55-3.69,0-6.56-1.54-2.87-3.73-5.23-7.37-4.63,0,0-2.06-1.8-4.25,.35,0,0-1.84,.26-2.66,2.31,0,0-2.4,.56-2.19,5.36,0,0-1.41,2.14-.34,5.27,1.07,3.13,5.23,7.93,11.92,2.83,0,0,15.63,17.9,27.72,14.81,12.09-3.09,28.86-20.51,28.86-20.51l-6.2-12.69Z"/><path class="aa" d="M62.71,95.55s-20.82,24.38-26.48,23.53c-4.75-.72-14.91-7.31-18.05-9.41-1.3,2.13-3.01,4.18-5.08,5.12,3.28,3.51,19.51,17.83,30.01,15.14,12.09-3.09,25.8-21.7,25.8-21.7l-6.2-12.69Z"/><path class="aa" d="M62.71,95.55s-20.82,24.38-26.48,23.53c-4.75-.72-14.91-7.31-18.05-9.41-1.3,2.13-3.01,4.18-5.08,5.12,3.28,3.51,19.51,17.83,30.01,15.14,12.09-3.09,25.8-21.7,25.8-21.7l-6.2-12.69Z"/><path class="n" d="M38.88,121.11c-2.34,1.58-4.79,4.51-5.74,7.61,3.5,1.36,6.96,1.98,9.96,1.21,3.01-.77,6.12-2.5,9.1-4.67-3.23-4.16-8.06-7.69-13.32-4.15Z"/><path class="n" d="M57.1,106.42c.34-.2,.78-.08,.98,.26,1.83,3.03,2.84,6.4,3.87,9.77,4.17-4.44,6.96-8.22,6.96-8.22l-6.2-12.69s-10.71,12.54-18.86,19.32c4.62-2.49,8.7-5.83,13.26-8.45Z"/><path class="ag" d="M13.05,108.23c-.34-.24-.63-.56-.87-.92-.24-.35-.45-.73-.57-1.15-.07-.2-.11-.42-.15-.64-.03-.22-.05-.44-.05-.65-.01-.22,.02-.44,.04-.66,.02-.22,.08-.43,.12-.65v.04c.02-.21,.03-.45,0-.64,0-.09-.05-.2-.04-.16,0,.02,.14,.07,.12,.06-.06,0-.12,.01-.16,.02l-.69,.11c-.24,.03-.48,.07-.72,.09-.48,.06-.99,.06-1.49,.02-.25-.03-.51-.07-.78-.17-.25-.08-.53-.27-.72-.54-.17-.29-.19-.65-.14-.89,.02-.22,.1-.51,.19-.74,.17-.48,.4-.92,.69-1.32,.29-.4,.62-.77,1-1.07,.19-.15,.4-.29,.61-.4,.22-.11,.45-.2,.7-.19-.24,.04-.43,.18-.63,.3-.18,.14-.36,.29-.52,.47-.31,.35-.58,.72-.81,1.12-.23,.4-.42,.82-.53,1.25-.06,.23-.09,.4-.12,.65-.03,.23,.01,.36,.08,.49,.09,.11,.23,.21,.42,.27,.18,.06,.4,.1,.62,.12,.44,.04,.9,0,1.36-.03,.23-.03,.46-.05,.69-.08l.71-.1c.07,0,.13-.02,.19-.02h.1s.09,.02,.13,.04c.08,.03,.17,.1,.2,.15,.16,.23,.14,.37,.16,.52,.01,.28-.01,.52-.05,.78h0v.04c-.05,.19-.11,.38-.15,.57-.03,.19-.07,.38-.08,.59-.02,.2,0,.39,0,.59,.01,.2,.03,.39,.08,.59,.08,.39,.21,.78,.38,1.14,.18,.37,.41,.71,.68,1.02Z"/><path class="ag" d="M3.79,108.71s.05,.27,.27,.66c.2,.39,.64,.9,1.33,1.13,.35,.1,.74,.14,1.16,.1,.2-.02,.44-.07,.62-.11,.26-.08,.36-.14,.51-.27,.27-.26,.37-.69,.33-1.15-.02-.45-.19-.92-.4-1.35-.44-.88-1.16-1.6-1.96-2.04-.8-.46-1.68-.61-2.43-.58-.19,0-.37,.02-.54,.05-.17,.01-.34,.04-.49,.07-.31,.05-.57,.14-.79,.21-.43,.15-.68,.24-.68,.24,0,0,.06-.03,.16-.1,.11-.07,.26-.17,.47-.27,.21-.1,.46-.23,.77-.33,.3-.12,.66-.22,1.07-.27,.8-.12,1.81-.04,2.75,.44,.94,.46,1.77,1.27,2.28,2.27,.25,.5,.43,1.05,.46,1.62,.04,.57-.12,1.21-.59,1.63-.22,.2-.57,.34-.77,.37-.29,.04-.5,.07-.75,.07-.48,.02-.94-.08-1.33-.24-.4-.16-.7-.43-.9-.69-.21-.26-.34-.53-.41-.75-.09-.22-.12-.4-.13-.53-.02-.12-.02-.19-.02-.19Z"/><path class="ag" d="M2.93,100.47s.21,0,.58,.02c.36,.04,.89,.1,1.5,.29,.31,.09,.64,.2,.97,.35,.34,.14,.68,.32,1.03,.53,.34,.22,.69,.46,1,.74,.32,.29,.63,.59,.9,.93,.28,.34,.49,.7,.72,1.08,.09,.18,.18,.36,.27,.54,.08,.2,.15,.4,.22,.6,.06,.2,.11,.4,.15,.6,.03,.2,.04,.4,.05,.59,0,.39-.06,.76-.21,1.06-.12,.32-.32,.56-.5,.76-.19,.18-.38,.32-.54,.42-.32,.19-.53,.23-.53,.23,0,0,.18-.1,.45-.34,.26-.23,.59-.64,.74-1.2,.09-.27,.08-.59,.07-.91-.03-.16-.05-.33-.09-.5-.06-.17-.1-.34-.16-.51-.07-.16-.14-.33-.22-.5-.1-.18-.2-.35-.3-.54-.2-.31-.41-.66-.67-.96-.24-.32-.52-.6-.8-.87-.29-.27-.59-.51-.89-.73-.31-.21-.61-.41-.92-.58-.31-.16-.6-.31-.88-.44-.56-.24-1.04-.42-1.39-.52-.35-.1-.55-.15-.55-.15Z"/><path class="ag" d="M5.74,98.02s.2-.08,.49-.07c.29,0,.66,.09,1.01,.28,.08,.05,.16,.11,.24,.17,.08,.05,.14,.14,.21,.2,.12,.15,.22,.31,.26,.46,.05,.15,.06,.28,.05,.38,0,.09-.02,.13-.02,.13,0,0-.04-.03-.11-.09-.05-.06-.16-.12-.24-.2-.11-.07-.22-.15-.34-.23-.13-.07-.25-.16-.4-.23-.27-.16-.56-.34-.78-.5-.22-.15-.37-.3-.37-.3Z"/></g><path class="ag" d="M10.13,106.48s.17,0,.37,.01c.2,.01,.42,.02,.53-.03,.06,0,.12-.04,.2-.06,.03-.03,.07-.05,.11-.07,.04-.03,.08-.06,.12-.09,.15-.12,.3-.22,.3-.22,0,0,.02,.04,.04,.11,.01,.07,.04,.17,.01,.29,0,.12-.06,.26-.16,.4-.06,.06-.11,.14-.2,.19-.08,.05-.17,.1-.27,.12-.2,.04-.39,.02-.54-.05-.15-.06-.26-.16-.34-.24-.16-.18-.18-.36-.18-.36Z"/></g><path class="aa" d="M124.08,110.51c-3.8-4.49-8.61-7.09-13.47-10.21-5.32-3.42-10.41-7.22-15.8-10.52-3.92-2.4-7.95-4.72-11.2-8-3.56,3.48-7.05,7.35-10.02,11.56l-11.96,6.27c.23,6.5,1.49,12.93,4.18,18.93,2.37,5.29,5.45,10.15,8.88,14.77,.3,.26,.6,.5,.9,.73,0,0,21.33,2.57,36.85-6.74,7.71-4.63,11.54-10.1,13.44-14.34-.56-.85-1.15-1.67-1.81-2.45Z"/><path class="p" d="M84.31,94.53l-3.5,17.14,7.19-.73-3.04,18.98s10.6-24.7,10.87-24.61c.28,.09-10.69,1.22-10.69,1.22l-.83-12Z"/><g><path class="ae" d="M75.6,134.05c7.35,15.03,22.5,20.98,22.5,20.98-3.4-22.5-22.5-20.98-22.5-20.98Z"/><path class="o" d="M84.49,132.36c-5.15,.93-8.89,1.69-8.89,1.69,0,0,19.1-1.51,22.5,20.98,0,0,1.32-.17,3.42-.58h0c-2.3-21.62-17.02-22.09-17.03-22.09Z"/><path class="l" d="M94.56,144.4c1.61,2.76,2.88,6.23,3.54,10.63,0,0,1.32-.17,3.42-.58-.47-4.43-1.47-7.95-2.75-10.78-1.35,.33-2.79,.65-4.21,.74Z"/><path class="s" d="M125.7,113.47c-5.02,10.46-16.27,15.47-16.27,15.47-6.24,.29-17.49,2.07-24.94,3.42,0,0,14.73,.47,17.03,22.09h0c7.34-1.45,24.23-5.92,27.34-16.69,4-13.83-3.15-24.29-3.15-24.29Z"/><path class="h" d="M109.29,129.19c3.3-.17,5.58-1.36,8.13-3.38,3.82-3.01,7.06-6.39,9.26-10.62-.58-1.11-.98-1.72-.98-1.72-5.02,10.46-16.27,15.47-16.27,15.47-.92,.05-1.97,.12-3.08,.23,.98,.04,1.97,.07,2.94,.02Z"/></g><path class="g" d="M75.6,134.05s-8.66,1.8-14.83,8.06c-6.17,6.26-17.66,32.67-17.66,32.67l2.92,8.66s18.52-36.84,25.46-38.91c6.95-2.07,21.8-2.09,21.8-2.09,0,0-4.96-8.41-17.68-8.39Z"/><path class="f" d="M50.28,159.46c-3.95,7.9-7.18,15.31-7.18,15.31l2.92,8.66s4.62-9.2,10.12-18.66c-1.8-1.94-3.75-3.73-5.86-5.31Z"/><path class="f" d="M77.79,134.99c1.77,.85,3.48,1.67,5,2.93,1.69,1.4,3.22,2.96,4.49,4.67,3.47-.15,6-.15,6-.15,0,0-4.96-8.48-17.68-8.39,0,0-.03,0-.09,.02,.83,.34,1.67,.63,2.28,.92Z"/><path class="d" d="M161.75,137.78c1.3-2.08,2.17-3.52,2.38-3.83,.97-1.4,2.4-4.48,0-6.31-2.4-1.83-3.66,.4-3.66,.4,0,0-1.81,2.48-4.29,5.81,2.11,.82,3.96,2.25,5.57,3.93Z"/><g><path class="w" d="M14.47,164.6c.08-.08,.15-.16,.22-.24-.15,.13-.22,.24-.22,.24Z"/><path class="ad" d="M32.85,173.42c11.12,11.71,12.42,16.12,12.49,16.37,.89-2.45,10.75-19.83,10.75-19.83,0,0-4.17-8.09-9.94-10.06-3.56-1.22-5.3,12.94-9.46,10.54-9.33-5.4-16.97-11-20.33-7.8,1.86,.06,7.36,1.16,16.49,10.79Z"/><path class="ab" d="M22.27,166.26c-5.06-3.23-7-2.39-7.59-1.9-.07,.08-.15,.16-.22,.24,0,0,1.66,6.67,10.27,16.1,8.61,9.44,16.85,12.39,19.38,10.78,1.67-2.99-15.44-21.14-21.84-25.22Z"/><path class="q" d="M32.85,173.42c-9.13-9.62-14.63-10.73-16.49-10.79-.49,.48-1.04,1.05-1.67,1.73,.59-.49,2.53-1.33,7.59,1.9,6.41,4.08,23.51,22.23,21.84,25.22,.58-.37,.96-.98,1.22-1.7-.07-.25-1.37-4.66-12.49-16.37Z"/></g><path class="af" d="M123.48,130.79s-.23-.05-.63-.12c-.4-.09-.98-.18-1.68-.32-.69-.15-1.51-.25-2.37-.41-.43-.08-.89-.13-1.34-.2-.45-.06-.92-.15-1.38-.21-.47-.05-.93-.1-1.39-.16-.46-.05-.91-.13-1.35-.14-.44-.03-.86-.06-1.27-.1-.4-.02-.78-.08-1.13-.07-1.41,0-2.35-.05-2.35-.05,0,0,.93-.12,2.35-.24,.36-.04,.74,0,1.15-.01,.41,0,.84,.01,1.29,.02,.45,0,.9,.05,1.36,.1,.46,.05,.93,.09,1.41,.14,.47,.06,.94,.15,1.4,.22,.46,.08,.91,.15,1.35,.25,.86,.19,1.67,.38,2.35,.58,.69,.18,1.25,.37,1.64,.5,.39,.13,.61,.22,.61,.22Z"/><path class="ad" d="M71.2,88.72c-4.21,3.05-8.59,6.21-12.5,9.81-1.13,1.32-2.25,2.65-3.41,3.93-.78,.87-1.67,1.69-2.53,2.54-.67,.89-1.27,1.82-1.86,2.78,5.07-1.77,21.64-3.83,26.74-4.77,.09-.08,7.15-10.14,8.17-12.75,1.87-4.82,4.35-9.54,6.87-14.05,.36-.64,.95-1.32,1.51-2.03-8.13,4.01-15.67,9.25-22.99,14.55Z"/><g class="k"><path class="s" d="M125.7,113.47c-2.13,4.45-5.4,7.91-8.44,10.43,1.47,2.96,2.86,7.45,.82,11.58-1.73,3.51-10.62,6.67-18.98,8.94,1.12,2.7,1.98,5.99,2.41,10.03,7.34-1.45,24.23-5.92,27.34-16.69,4-13.83-3.15-24.29-3.15-24.29Z"/></g><g><path class="ad" d="M168.48,125.15c-2.44-1.82-4.67-2.52-6.42-2.71-1.38,1.33-2.67,3.57-3.43,4.84-1.18,1.99-10.3,9.72-10.3,9.72,1.77,.52,9.27,8.26,12.48,11.01,.44,.38,6.54-7.72,7.13-7.82,5.51-.87,12.96,7.93,16.32,8.82,.98,.26,1.81,.28,2.47,.1,.07-.11,.13-.22,.19-.34,4.03-7.15-12.67-19.3-18.46-23.61Z"/><path class="q" d="M183.66,136.11c-6.87-8.37-17.12-14.19-19.23-14.72-.77-.2-1.59,.28-2.38,1.05,1.75,.2,3.98,.9,6.42,2.71,5.79,4.31,22.49,16.46,18.46,23.61-.07,.12-.13,.23-.19,.34,3.08-.84,2.58-6.11-3.08-12.99Z"/></g><g><g><g><path class="q" d="M107.35,29.32c-1.2,.6-4.54,2.66-4.54,2.66,0,0,4.89-12.61,4.2-15.43,0,0-.08-.77-1.71,0-1.63,.77-8.49,5.31-9.86,5.49,0,0,4.54-5.75,4.63-9.18,0,0-4.8-.86-7.71-.69,0,0,4.03-3.26,5.83-3.51,1.8-.26-6.52-1.8-15.17-.86,0,0,1.54-2.23,3.35-3.09,1.8-.86-17.15-5.06-27.01-1.11,0,0,1.8-2.57,3.34-3.26,1.54-.69-13.98-.86-20.07,4.8,0,0,1.8-4.28,2.74-5.14C45.35,0,24.95,3.77,15.51,24.18c0,0-.68-5.49,0-9.69,.69-4.2-11.58,9.01-11.23,24.01,0,0-1.11-3-2.06-6-.94-3-5.83,15.78,5.06,29.15l.34-3.6s-2.65-12.43,1.55-20.06c0,0-2.15,6.69,1.37,12.65,0,0,.86-11.79,9.09-16.42,0,0-1.29,2.66-.95,7.29,0,0,11.75-12.95,22.21-15.61,0,0-2.66,5.57-2.14,5.66,.52,.09,14.24-5.15,20.75-9.6,0,0-1.54,4.29-.6,4.03,.94-.26,5.23-3.6,5.23-3.6,0,0,1.37,12.86,3.17,12.43,1.8-.43,5.65-8.23,5.65-8.23,0,0,8.75,16.38,10.29,26.24,0,0,2.57-2.4,3.86-6.08,1.29-3.69,4.89-5.92,7.38-2.4,2.49,3.52,5.57,15.52-3.86,11.58,0,0,3.09,1.62-.52,16.03,0,0,11.15-6.17,14.75-22.47l-4.12,2.06s6.18-12.52,7.38-19.81c0,0,.43-3-.77-2.4Z"/><path class="ac" d="M107.35,29.32c-1.2,.6-4.54,2.66-4.54,2.66,0,0,4.89-12.61,4.2-15.43,0,0-.08-.77-1.71,0-1.63,.77-8.49,5.31-9.86,5.49,0,0,4.54-5.75,4.63-9.18,0,0-4.8-.86-7.71-.69,0,0,4.03-3.26,5.83-3.51,1.8-.26-6.52-1.8-15.17-.86,0,0,1.54-2.23,3.35-3.09,1.8-.86-17.15-5.06-27.01-1.11,0,0,1.8-2.57,3.34-3.26,1.54-.69-13.98-.86-20.07,4.8,0,0,1.8-4.28,2.74-5.14C45.35,0,24.95,3.77,15.51,24.18c0,0-.68-5.49,0-9.69,.69-4.2-11.58,9.01-11.23,24.01,0,0-1.11-3-2.06-6-.94-3-5.83,15.78,5.06,29.15l.34-3.6s-2.65-12.43,1.55-20.06c0,0-2.15,6.69,1.37,12.65,0,0,.86-11.79,9.09-16.42,0,0-1.29,2.66-.95,7.29,0,0,11.75-12.95,22.21-15.61,0,0-2.66,5.57-2.14,5.66,.52,.09,14.24-5.15,20.75-9.6,0,0-1.54,4.29-.6,4.03,.94-.26,5.23-3.6,5.23-3.6,0,0,1.37,12.86,3.17,12.43,1.8-.43,5.65-8.23,5.65-8.23,0,0,8.75,16.38,10.29,26.24,0,0,2.57-2.4,3.86-6.08,1.29-3.69,4.89-5.92,7.38-2.4,2.49,3.52,5.57,15.52-3.86,11.58,0,0,3.09,1.62-.52,16.03,0,0,11.15-6.17,14.75-22.47l-4.12,2.06s6.18-12.52,7.38-19.81c0,0,.43-3-.77-2.4Z"/></g><g><path class="y" d="M10.32,50.02l.26,.21c.23-2.08,1.7-11.8,8.95-15.96,2.68-4.4,6.36-8.09,6.36-8.09-17.88,7.54-15.57,23.84-15.57,23.84Z"/><path class="y" d="M49.13,18.05c-23.24,5.93-30.44,22.82-30.47,22.9,0,.18,.01,.36,.03,.55,0,0,11.75-12.95,22.21-15.61,0,0-.14,.3-.35,.75,3.61-5.76,8.58-8.59,8.58-8.59Z"/><path class="y" d="M7.28,61.65l.34-3.6s-2.46-11.55,1.12-19.22c.57-3.54,1.25-6.44,1.25-6.44-10.65,11.93-2.71,29.26-2.71,29.26Z"/><path class="y" d="M38.75,31.55c.52,.09,14.2-5.13,20.73-9.58,1.57-3.15,3.23-6.09,3.23-6.09-7.09,7.43-23.96,15.67-23.96,15.67Z"/><path class="y" d="M58.9,25.98c.92-.25,5-3.43,5.21-3.59,1-2.68,2.25-5.48,2.25-5.48-2.63,3.77-7.46,9.07-7.46,9.07Z"/><path class="y" d="M83.25,52.82s2.57-2.4,3.86-6.08c.3-.85,.72-1.61,1.21-2.25-.25-7.65-5.07-14.19-5.07-14.19,3.29,8.92,0,22.53,0,22.53Z"/><path class="y" d="M66.85,34.64c.15,.14,.3,.21,.46,.17,1.63-.39,4.96-6.84,5.56-8.04-.14-6.47-2.5-10.43-2.5-10.43,.8,8.8-3.51,18.29-3.51,18.3Z"/></g><g><path class="y" d="M96.82,54.41c-1.84,1.66-3.49,2.07-4.78,1.99,2.89,.82,4.29-.2,4.78-1.99Z"/><path class="y" d="M103.1,31.8c-.18,.12-.3,.19-.3,.19,0,0,4.89-12.61,4.2-15.43,0,0-.03-.24-.34-.32-.04,.17-2.34,11-9.26,21.43,0,0,3.1-2.77,5.7-5.87Z"/><path class="y" d="M89.69,25.58s3.01-1.31,5.96-3.6c-.08,.03-.16,.05-.22,.06,0,0,4.54-5.75,4.63-9.18,0,0-5.34,9.5-10.37,12.72Z"/><path class="y" d="M84.88,15.54s2.48-2.01,7.52-3.41c.5-.4,4.09-3.23,5.77-3.47,.24-.04,.3-.09,.21-.16h0s-10.36,.47-13.5,7.04Z"/><path class="y" d="M74.99,11.82s2.6-2.31,8.08-4.13c.33-.45,1.7-2.24,3.27-2.98,.12-.06,.14-.13,.08-.22-.04,0-6.36,.72-11.43,7.33Z"/><path class="y" d="M62.77,.25l-.09,.09c.06-.03,.09-.06,.09-.09Z"/><path class="y" d="M90.63,55.91s.12,.06,.29,.28c.33,.11,.7,.18,1.11,.21-.44-.12-.9-.28-1.4-.49Z"/><path class="y" d="M4.3,36.72c-.03,.59-.04,1.18-.03,1.78,0,0-1.11-3-2.06-6-.07-.24-.17-.32-.28-.31,.05,.29,1.36,7.39,2.49,9.07,0,0,0-2.1-.13-4.54Z"/><path class="y" d="M107.69,29.25c-.02,.09-5.16,19.11-10.06,24.36-.28,.29-.55,.56-.82,.79-.49,1.79-1.89,2.81-4.78,1.99-.41-.03-.77-.1-1.11-.21,.67,.88,2.07,4.23-.81,15.75,0,0,11.15-6.17,14.75-22.47l-4.12,2.06s6.18-12.52,7.38-19.81c0,0,.33-2.37-.43-2.47Z"/><path class="y" d="M51.92,10.17s3.08-3.74,7.45-6.62c.26-.36,1.89-2.58,3.31-3.21,0,0-5.84,1.35-10.76,9.83Z"/><path class="y" d="M38.15,11.08s1.7-3.02,4.51-5.98c-.01,.02-.03,.03-.05,.05,0,0,1.5-3.57,2.48-4.84-1.45,.88-5.41,3.84-6.94,10.78Z"/><path class="y" d="M13.94,30.29s.49-2.75,1.57-6.14c-.04-.34-.66-5.59,0-9.66,.08-.45,0-.7-.2-.76-.14,.23-4.06,6.84-1.37,16.56Z"/></g></g><g><path class="v" d="M90.63,55.91c9.43,3.94,6.34-8.06,3.86-11.58-2.49-3.51-6.09-1.29-7.38,2.4-1.29,3.69-3.86,6.08-3.86,6.08-1.54-9.86-10.29-26.24-10.29-26.24,0,0-3.86,7.8-5.65,8.23-1.81,.43-3.17-12.43-3.17-12.43,0,0-4.29,3.34-5.23,3.6-.95,.26,.6-4.03,.6-4.03-6.51,4.46-20.24,9.69-20.75,9.6-.51-.09,2.14-5.66,2.14-5.66-10.46,2.66-22.21,15.61-22.21,15.61-.34-4.63,.95-7.29,.95-7.29-8.23,4.63-9.09,16.42-9.09,16.42-3.51-5.96-1.37-12.65-1.37-12.65-4.2,7.63-1.55,20.06-1.55,20.06,0,0,6.34,9.43,6.17,13.72-.17,4.29-5.66,21.61,13.38,28.47,0,0,20.58,6.69,35.67,1.2,15.1-5.49,26.07-25.04,27.27-29.5,3.61-14.41,.52-16.03,.52-16.03Z"/><path class="i" d="M94.49,44.33c-2.49-3.51-6.09-1.29-7.38,2.4-1.29,3.69-3.86,6.08-3.86,6.08-1.54-9.86-10.29-26.24-10.29-26.24,0,0-3.86,7.8-5.65,8.23-1.81,.43-3.17-12.43-3.17-12.43,0,0-4.29,3.34-5.23,3.6-.95,.26,.6-4.03,.6-4.03-6.51,4.46-20.24,9.69-20.75,9.6-.41-.07,1.23-3.71,1.89-5.11-1.79,1.84-3.43,3.81-4.78,6.02,2.85-.42,5.77-.72,8.39-1.94,2.15-1.01,4.21-2.02,6.56-2.47,.66-.13,1.27,.68,.7,1.2-1.38,1.26-2.79,2.48-4.22,3.68,5.34-2.04,10.21-5.04,15.21-7.86,.46-.26,1.09,.06,1.08,.62-.13,5.11,.18,10.16,1.28,15.15,1.65-1.97,3.06-4.13,4.68-6.14,.24-.3,.77-.26,1.02,0,2.66,2.81,3.78,6.7,4.71,10.37,1.22,4.84,2.84,9.61,3.69,14.53,1.47,8.49,.86,17.29-2.79,25.2-3.45,7.47-8.99,13.58-16.61,16.89-1.54,.67-3.12,1.18-4.73,1.59,2.75-.32,5.48-.9,8.04-1.83,15.1-5.49,26.07-25.04,27.27-29.5,3.61-14.41,.52-16.03,.52-16.03,9.43,3.94,6.34-8.06,3.86-11.58Z"/><path class="ad" d="M23.93,82.05c3.25-3,5.05-8.98,9.42-10.59,6.31-2.33,12.76,.94,19.18-.5,4.95-1.11,12.71-3.96,15.32-8.35,1.86-3.13,.39-8.18-1.62-11.57-3.36-5.68-11.09-4.04-16.35-2.99-3.74,.75-7.4,1.97-11.01,3.21-6.55,2.25-13.31,5.12-18.46,9.89-3.03,2.81-6.01,6.61-6.3,10.88-.3,4.42,3.97,15.42,9.83,10.02Z"/><path class="m" d="M52.17,60.57c-5.17,.43-9.83,1.75-14.56,3.88-3.84,1.72-7.93,3.49-11.33,6-3.17,2.34-5.2,5.36-7.55,8.34,0,.34,.09,.49,.33,.27,.19-.17,.4-.21,.59-.18,2.95-2.41,5.46-5.3,8.76-7.28,3.45-2.07,7.01-4.03,10.79-5.45,6.52-2.46,13.35-3.93,20.15-5.44-2.34-.23-4.69-.35-7.19-.14Z"/><path class="e" d="M51.92,88.56s17.12-.93,18.3-11.56c.94-8.49-3.07-11.32-3.07-11.32,0,0-3.27,12.23-15.24,22.88Z"/><g><path class="ag" d="M94.45,47.19s-.49,.1-1.1,.41c-.16,.07-.31,.18-.47,.28-.15,.11-.31,.23-.45,.38-.16,.13-.27,.32-.41,.47-.1,.19-.25,.35-.32,.56-.09,.2-.19,.39-.24,.61-.06,.21-.14,.41-.17,.62-.03,.21-.1,.41-.11,.61-.02,.2-.05,.39-.07,.56-.04,.35-.04,.65-.07,.86-.03,.21-.04,.33-.04,.33,0,0-.04-.12-.09-.32-.05-.21-.15-.5-.18-.87-.02-.18-.04-.38-.05-.6-.02-.21,.01-.44,.03-.68,.01-.23,.06-.48,.13-.72,.05-.25,.16-.48,.26-.73,.1-.24,.27-.44,.41-.66,.18-.19,.34-.39,.54-.53,.19-.16,.4-.27,.6-.37,.2-.09,.4-.17,.58-.2,.37-.1,.69-.1,.9-.09,.22,.01,.34,.05,.34,.05Z"/><path class="ag" d="M94.45,50.96s-.13,.24-.47,.46c-.16,.12-.38,.21-.62,.27-.12,.02-.25,.06-.39,.05-.14,0-.27,0-.41-.02-.27-.05-.53-.15-.75-.28-.21-.14-.39-.29-.5-.46-.13-.14-.2-.3-.25-.4-.05-.1-.07-.16-.07-.16,0,0,.06,.02,.17,.07,.11,.04,.23,.12,.39,.19,.16,.08,.34,.14,.53,.22,.2,.05,.39,.12,.59,.14,.2,.05,.41,.05,.61,.05,.2,0,.4-.02,.57-.04,.34-.04,.6-.09,.6-.09Z"/></g><path class="x" d="M57.82,86.98s.25-.22,.68-.6c.43-.38,1.02-.96,1.72-1.64,.35-.34,.72-.73,1.1-1.14,.4-.4,.77-.86,1.19-1.31,.4-.46,.81-.95,1.22-1.44,.39-.51,.82-1,1.18-1.54,.38-.52,.78-1.05,1.12-1.59,.18-.27,.35-.54,.52-.8,.16-.27,.32-.54,.47-.8,.16-.27,.31-.52,.46-.77,.13-.26,.27-.52,.4-.76,.26-.5,.51-.96,.69-1.42,.19-.45,.38-.86,.55-1.22,.14-.38,.25-.71,.35-.97,.2-.54,.32-.85,.32-.85,0,0-.07,.33-.2,.89-.07,.28-.14,.62-.24,1.01-.12,.39-.26,.82-.43,1.29-.15,.48-.37,.96-.6,1.49-.12,.26-.23,.53-.36,.8-.14,.27-.29,.54-.43,.81-.15,.27-.3,.55-.45,.83-.17,.27-.34,.55-.52,.82-.34,.56-.73,1.1-1.12,1.64-.38,.54-.83,1.04-1.23,1.56-.41,.5-.86,.97-1.28,1.43-.87,.89-1.72,1.68-2.48,2.32-.75,.65-1.43,1.12-1.9,1.46-.47,.34-.76,.5-.76,.5Z"/><path class="q" d="M17.57,56.45s-2.06-1.26-2.74-.97c-.69,.29,1.6,1.94,1.89,1.94s1.08,.17,.85-.97Z"/><g><path class="a`" d="M52.37,57.02c.52,2.16,.17,4.1-.77,4.33-.95,.22-2.13-1.34-2.66-3.51-.52-2.16-.18-4.1,.77-4.33,.94-.23,2.14,1.34,2.65,3.5Z"/><path class="e" d="M50.02,55.85c.1,.67-.05,1.24-.34,1.29-.29,.05-.61-.46-.72-1.13-.1-.67,.06-1.24,.34-1.29,.29-.04,.61,.46,.72,1.13Z"/></g><g><path class="a`" d="M23.24,69.7c.52,2.16,.17,4.1-.77,4.33-.95,.23-2.14-1.34-2.66-3.5-.52-2.17-.17-4.1,.78-4.33,.94-.23,2.13,1.34,2.65,3.5Z"/><path class="e" d="M20.88,68.53c.1,.67-.05,1.24-.34,1.29-.29,.05-.61-.45-.72-1.12-.1-.66,.05-1.24,.34-1.29,.29-.04,.61,.46,.72,1.12Z"/></g><path class="ag" d="M35.75,74.17s-.47,.66-1.17,1.66c-.34,.5-.74,1.08-1.12,1.71-.19,.32-.37,.66-.51,1-.15,.32-.19,.74-.1,.77,0,.02,.03,.02,.04,.03,0,0,.03,.02-.02,0h.04l.07,.04c.1,.03,.2,.08,.27,.08l.23,.04h.28c.37,.02,.75,.01,1.12-.02,.74-.07,1.44-.17,2.03-.26,1.2-.2,2-.32,2-.32,0,0-.74,.35-1.91,.71-.59,.18-1.29,.36-2.05,.48-.39,.05-.79,.11-1.21,.09-.21,0-.43-.01-.68-.07-.13-.01-.21-.05-.31-.08l-.07-.03h-.04c-.08-.04-.05-.04-.08-.05-.07-.05-.15-.08-.2-.15-.26-.27-.26-.62-.22-.85,.04-.25,.12-.46,.2-.66,.17-.39,.4-.74,.61-1.06,.44-.64,.91-1.19,1.33-1.64,.84-.89,1.47-1.41,1.47-1.41Z"/><path class="ag" d="M64.79,66.91s.12-.3,.41-.64c.3-.36,.76-.77,1.35-1.04,.14-.06,.29-.12,.45-.16,.15-.05,.32-.05,.47-.07,.15-.02,.31,.01,.45,.02,.14,.03,.27,.08,.39,.12,.11,.06,.21,.13,.29,.19,.08,.05,.12,.13,.17,.18,.09,.11,.13,.17,.13,.17,0,0-.08-.02-.21-.06-.06-.02-.13-.05-.21-.06-.09,0-.18-.02-.28-.04-.1,0-.21,0-.31,0-.11,.03-.22,.03-.34,.06-.23,.07-.48,.14-.72,.26-.25,.1-.49,.24-.73,.35-.23,.13-.45,.25-.65,.35-.38,.21-.67,.34-.67,.34Z"/><path class="ag" d="M30.95,90.03s.07,.2,.26,.53c.19,.34,.52,.8,1.02,1.3,.51,.5,1.19,1.05,2.1,1.45,.9,.41,1.98,.7,3.19,.86,1.21,.11,2.54,.12,3.92-.06,1.4-.14,2.77-.62,4.12-1.31,2.7-1.4,5.23-3.53,7.53-5.84,2.31-2.31,4.42-4.83,6.24-7.3,.9-1.24,1.75-2.45,2.53-3.63,.76-1.18,1.46-2.32,2.06-3.4,.59-1.07,1.13-2.07,1.56-2.97,.44-.9,.79-1.7,1.05-2.37,.26-.67,.47-1.2,.58-1.57,.12-.36,.19-.56,.19-.56,0,0-.05,.2-.15,.57-.1,.37-.26,.92-.49,1.6-.47,1.37-1.25,3.28-2.4,5.48-1.16,2.19-2.63,4.68-4.45,7.2-1.81,2.51-3.91,5.08-6.24,7.43-2.36,2.32-4.94,4.46-7.75,5.88-1.38,.72-2.91,1.19-4.33,1.28-1.42,.15-2.78,.1-4.03-.05-1.24-.2-2.35-.55-3.25-1.02-.91-.46-1.59-1.05-2.08-1.58-.49-.54-.79-1.04-.95-1.38-.17-.35-.23-.55-.23-.55Z"/></g><path class="q" d="M45.64,46.16s.86,.8,1.6,0c.75-.8,2.12-2.85,2.12-2.85,0,0-2.46,.34-3.72,2.85Z"/></g></g></g></g></g></svg>