<?xml version="1.0" encoding="UTF-8"?><svg xmlns="http://www.w3.org/2000/svg" xmlns:xlink="http://www.w3.org/1999/xlink" viewBox="0 0 3429.17 2869.58"><defs><style>.f{fill:#4758ff;}.g{fill:#a1411d;}.h{fill:#330303;}.i{fill:#555;}.j{fill:#dbb307;}.k{fill:#fff;}.l{fill:#462510;}.m{fill:#0c1b8e;}.n{fill:#540505;}.o{fill:#663419;}.p{fill:url(#e);}.p,.q{mix-blend-mode:multiply;}.r{isolation:isolate;}.s{fill:#890606;}.t{fill:#6d0505;}.u{fill:#f66;}.v{fill:#fed1a7;}.w{fill:#846c09;}.x{fill:#ea5c5c;}.y{fill:#bb0200;}.a`{fill:#bf856c;}.aa{fill:#bfb7b1;}.ab{fill:#233ae2;}.ac{fill:#d3a600;}.ad{fill:#30261e;}.ae{fill:#e5e5e5;}.af{fill:#48382c;}.ag{fill:#604b3b;}.ah{fill:#e8e3e3;}.ai{fill:#f8c700;}.aj{fill:#232322;}.ak{fill:#58090d;}.al{fill:#ccc;}.am{fill:#f2e2a0;}.an{fill:#fbdd66;}.ao{fill:#1a1a1a;}.ap{fill:#1f1008;}.aq{fill:#6d0303;}.ar{fill:#42070a;}.q{fill:url(#d);}.as{fill:#161615;}.at{fill:#351c0c;}.au{fill:#333332;}.av{fill:#ffb190;}</style><radialGradient id="d" cx="1045.75" cy="1217.84" fx="1045.75" fy="1217.84" r="97.15" gradientTransform="translate(-350.7 214.22) scale(1.37 .84)" gradientUnits="userSpaceOnUse"><stop offset="0" stop-color="#f5b8be"/><stop offset=".36" stop-color="#f8ced2"/><stop offset="1" stop-color="#fff"/></radialGradient><radialGradient id="e" cx="509.68" cy="1220.58" fx="509.68" fy="1220.58" r="97.15" gradientTransform="translate(1562.47 676.4) rotate(90) scale(1.19 .84)" xlink:href="#d"/></defs><g class="r"><g id="a"/><g id="b"><g id="c"><g><g><g><path class="s" d="M3342.52,1577.02c-96.54,10.08-139.91,85.75-163.71,167.17-12.49,42.7-19.59,86.98-26.16,124.2-19.09,108.22-131.71,190.28-219.78,206.76-88.06,16.48-103.54,141.33-108.19,201.28-4.66,59.94-85.44,127.32-110.27,132.05-24.83,4.72-65.21,74.63-68.87,88.2-.68,2.53-5.92,10.74-14.3,22.6-36.63,51.84-133.2,173.3-170.73,193.79l-268.55,22.29-416.77-557.49-372.59-498.41s-59.05-190.17,130.08-311.51c67.96-43.61,167.74-62.62,278.1-67.02,196.74-7.86,427.1,30.66,570.72,58.93,224.19,44.14,269,41.87,616.32,18.21,347.32-23.66,274.01,107.42,344.68,198.96Z"/><path class="n" d="M3342.52,1577.02c-96.54,10.08-139.91,85.75-163.71,167.17-28.99-88.79-441.75-178.84-667.53-193.78-226.21-14.97-586.79-248.59-417.04,101.96l-283.45-351.45c196.74-7.86,427.1,30.66,570.72,58.93,224.19,44.14,269,41.87,616.32,18.21,347.32-23.66,274.01,107.42,344.68,198.96Z"/><path class="n" d="M1920.66,1835.39c-3.92-98.34,337.51-5.07,374.08,23.2,36.57,28.27,259.43,234.35,356.52,261.23,97.09,26.88,180.53,55.5,178.66,95.05,9.11-46.26,37.06-116.89,85.51-135.81-116.2,4.47-217.26-17.27-304.34-74.33-87.08-57.06-323.95-209.41-323.95-209.41l-276.48-259.32-315.72-54.95-45.44,213.92,271.17,140.43Z"/><path class="n" d="M2631.25,2519.27c-36.63,51.84-133.2,173.3-170.73,193.79l-268.55,22.29-416.77-557.49-111.48-382.69c172.93,338.76,672.41,670.52,967.53,724.09Z"/><path class="h" d="M3312.62,1502.44c-12.63-36.86-25.68-74.97-69.05-100.37-47.91-28.06-126.11-37.33-246.08-29.15-344.26,23.45-388.49,26.47-614.97-18.12-165.59-32.6-313.06-52.15-438.31-58.1-191.52-9.1-330.91,13.41-414.29,66.92-43.81,28.11-78.04,62.27-101.74,101.54-18.99,31.47-31.29,66.24-36.54,103.34-8.94,63.13,5.44,110.52,6.06,112.5l9.86-3.06c-.15-.47-14.36-47.51-5.64-108.44,8.02-56.01,37.71-135.69,133.58-197.2,135.56-86.98,427.77-89.53,845.04-7.38,110.93,21.84,178.56,32.59,262.85,34.63,81.39,1.96,172.59-3.92,354.81-16.33,116.2-7.92,194.75,1.16,240.16,27.76,40.06,23.46,51.93,58.12,64.5,94.81,7.71,22.49,15.65,45.67,30.38,67.22-30.6,4.6-57.6,16.22-80.37,34.62-21.82,17.63-39.76,41.04-54.84,71.56-27.19,55.02-38.87,122.03-48.26,175.88-.74,4.22-1.46,8.37-2.18,12.44-18.28,103.63-126.17,185.84-215.64,202.58-40.03,7.49-70.06,36.96-89.25,87.58-15.72,41.46-20.74,87.41-23.14,118.37-4.46,57.37-83.56,123.09-106.09,127.38-28.43,5.4-69.44,79.16-72.87,91.89-4.61,14.17-138.38,189.14-182.53,213.24l4.95,9.06c27.29-14.9,80.61-77.71,109.96-113.82,34.72-42.72,75.12-96.66,77.57-105.75,3.47-12.87,43.23-80.37,64.85-84.48,14.61-2.78,42.14-22.47,65.46-46.81,17.07-17.82,46.14-53.2,48.99-89.9,1.36-17.47,5.49-70.64,22.5-115.51,17.83-47.03,45.26-74.31,81.5-81.1,46.53-8.71,96.9-34.28,138.19-70.15,32.8-28.5,74.3-76.06,85.72-140.78,.72-4.07,1.44-8.23,2.18-12.46,9.27-53.19,20.82-119.39,47.35-173.08,30.65-62.02,75.03-95.24,135.79-101.6l9.2-.96-5.66-7.32c-17.12-22.17-25.7-47.21-33.99-71.43Z"/></g><g><path class="y" d="M2511.6,2699.59c-20.84,18.11-107.52,97.25-253.93,89.12-7.07-.4-14.28-.99-21.62-1.81-159.51-17.73-386.73-262.59-507.04-470.89l453.61,252.28c44.93,52.83,91.2,88.99,140.86,110.67,57.19,24.97,118.87,30.74,188.11,20.63Z"/><path class="s" d="M2511.6,2699.59c-20.84,18.11-107.52,97.25-253.93,89.12,60.42-23.13,87.07-74.18,65.81-109.75,57.19,24.97,118.87,30.74,188.11,20.63Z"/><path class="h" d="M2186.56,2564.95l-7.86,6.69c90.98,106.99,189.09,149.18,316.23,135.29-74.7,60.43-161.52,85.61-258.3,74.85-71.65-7.96-165.82-65.69-265.18-162.55-89.2-86.95-175.93-198.41-237.96-305.79l-8.94,5.16c62.48,108.17,149.85,220.44,239.69,308.02,48.24,47.03,95.17,85.01,139.47,112.89,48.51,30.53,92.84,48.2,131.78,52.52,30.58,3.4,60.41,3.23,89.36-.47,34.51-4.42,67.75-13.87,99.43-28.31,46.6-21.24,76.35-47.21,89.05-58.3l14.95-13-17.42,2.54c-131.73,19.2-231.77-20.72-324.3-129.54Z"/></g><g><path class="y" d="M3419.41,1708.13c-31.77-36.22-87.19-108.83-190.94-153.83-42.12-18.27-92.24-32-151.97-36.87-206.79-16.88-418.27-2.39-539.44-28.03-224.59-47.55-472.65-237.75-764.78-108.43l-331.18,75.05-97.11-34.08c171.69-162.46,506.54-201.87,776.27-180.91,63.88,4.97,118.64,12.71,166.83,21.57,155.3,28.59,242.31,68.83,345.98,65.27,135.83-4.67,382.79-89.48,526.78-75.55,143.99,13.93,292.37,116.33,259.54,455.82Z"/><path class="s" d="M3419.41,1708.13c-31.77-36.22-87.19-108.83-190.94-153.83,180.47,14.37,116.85-179.99-36.59-250.6-157.25-72.36-424.03,47.36-563.33,79.07-127.69,29.07-206.05-72.51-341.45-120.19,155.3,28.59,242.31,68.83,345.98,65.27,135.83-4.67,382.79-89.48,526.78-75.55,143.99,13.93,292.37,116.33,259.54,455.82Z"/><path class="s" d="M1536.54,1305.83c-25.89,46.09-31.63,78.04,19.59,80.74-48.93,24.19-153.05,118.45-154.69,119.24-1.63,.79-75.79-86.26-75.79-86.26,0,0,159.88-96.78,210.89-113.72Z"/><path class="h" d="M3268.1,1277.06c-31.92-16-68.17-26.05-107.73-29.88-83.74-8.1-199.78,16.41-312,40.11-81.42,17.2-158.33,33.45-215.46,35.41-63.87,2.2-121.08-12.36-193.52-30.8-78.78-20.05-176.82-45-318.71-56.02-146.68-11.39-298.08-3.66-426.31,21.76-73,14.47-139.16,34.6-196.65,59.82-62.86,27.58-115.78,61.47-157.27,100.73l7.09,7.5c172.47-163.19,512.05-199.73,772.33-179.51,141,10.95,238.57,35.78,316.96,55.73,73.24,18.64,131.08,33.36,196.42,31.11,58.03-2,135.37-18.33,217.24-35.63,111.46-23.54,226.71-47.89,308.87-39.94,82.09,7.94,148.62,43.81,192.41,103.74,54.76,74.94,76.14,187.41,63.59,334.39-.58-.68-1.16-1.36-1.75-2.05-23.68-27.62-59.46-69.36-113.26-105.67-64.11-43.28-139.29-68.7-223.43-75.57-89.18-7.28-177.24-8.7-262.4-10.08-111.54-1.8-207.87-3.36-276.39-17.87-63.5-13.44-128.39-38.17-197.09-64.35-86.39-32.92-175.71-66.96-270.43-81.41-107.78-16.44-206.05-4.13-300.42,37.65l4.18,9.44c207.07-91.67,388.01-22.72,562.99,43.96,69.08,26.33,134.34,51.19,198.62,64.8,69.5,14.71,166.29,16.28,278.37,18.09,84.99,1.37,172.88,2.79,261.73,10.04,190.71,15.56,281.12,121.01,329.69,177.66,3.45,4.03,6.71,7.83,9.75,11.29l7.87,8.97,1.15-11.87c15.04-155.5-6.64-274.45-64.43-353.54-24.42-33.42-55.38-59.67-92.02-78.04Z"/></g><path class="h" d="M2929.78,2070.35c-195.37,25.02-364.59-92.22-488.28-177.91-60.25-41.74-107.84-74.72-141.12-78.08l-1.04,10.27c30.63,3.09,77.25,35.39,136.28,76.29,60.36,41.82,135.48,93.86,219.42,131.41,97.74,43.72,188.06,59.51,276.03,48.25,.83-.11,1.66-.22,2.49-.33l-1.37-10.23c-.81,.11-1.61,.21-2.42,.32Z"/></g><g><g><g><path class="ah" d="M2885.36,2531.4c-39.25-27.25-71.47-66.96-89.76-69.76-18.28-2.81-39.3,14.98-51.15,30.18l301.76,368.89c74.83,8.45,70.02-96.81,27.03-169.03-42.99-72.22-141.45-128.05-187.88-160.27Z"/><path class="i" d="M3077.67,2689.04c-36.44-61.22-112.28-110.99-162.46-143.92-9.89-6.49-19.23-12.62-26.91-17.95-16.85-11.7-32.48-25.81-46.27-38.27-18.89-17.06-33.81-30.54-45.65-32.36-20.42-3.13-42.93,15.33-56,32.1l8.14,6.35c12.25-15.72,31.32-30.55,46.3-28.25,8.78,1.35,24.09,15.17,40.3,29.81,14.02,12.66,29.91,27.01,47.3,39.09,7.78,5.4,17.18,11.57,27.13,18.1,49.39,32.41,124.03,81.4,159.26,140.57,30.47,51.19,39.4,114.45,20.33,144-8.8,13.63-23.04,19.43-42.34,17.26l-1.16,10.26c6.01,.68,11.67,.67,16.95,0,15.1-1.94,27.11-9.35,35.22-21.91,10.68-16.55,14.17-42.01,9.82-71.68-4.13-28.14-14.76-57.69-29.95-83.2Z"/></g><g><path class="f" d="M3014.77,2862.51c-63.86-12.47-91.88-48.34-127-55.25-35.13-6.9-165.96-56.91-225.18-79.39-59.22-22.49-318.59-130.21-371.96-130.01-53.35,.2-128.31-26.42-172.74-50.82-44.42-24.41-372.13-92.98-527.18-231.29l268.44-383.35c113.32,41.9,351.46,348.32,414.55,385.68,38.94-3.37,160.19,29.95,236.59,80.71,31.36,20.84,59.47,49.78,86.75,74.58,25.37,23.09,50.06,42.59,76,48.61,6.91,1.61,14.09-1.14,21.47-5.81,18.53-11.69,38.35-35.41,58.5-32.19,28.17,4.5,92.7,78.39,148.62,104.49,20.6,9.61,45.35,27.17,69.41,48.65,40.32,35.98,78.68,82.99,92.13,122.05,.32,.94,.63,1.87,.93,2.81,19.83,62.68,14.53,113.03-49.32,100.54Z"/><path class="ab" d="M2165.26,2279.16c-3.44-8.81-248.02-76.92-248.02-76.92l-113.77,149.84c181,23.07,380.14,115.5,439.83,148.32,38,20.89,91.87,34.12,139.53,44.03,1.94-3.89,4.26-7.39,7.09-9.62,39.4-33.1,52.92-78.76,64.85-124.15-160.25-70.82-288.22-128.23-289.5-131.5Z"/><path class="m" d="M3000.09,2657.91c-32.08-33.25-68.08-60.97-96.3-74.14-27.92-13.03-58.36-38.51-85.21-60.99-27.69-23.18-49.57-41.49-64.77-43.92-16.62-2.65-31.68,9.43-46.25,21.12-12.29,9.85-23.88,19.16-33.35,16.96-31.04-7.22-61.03-35.33-92.77-65.1-21.55-20.21-43.83-41.1-68.29-57.35-34.85-23.16-82.31-44.92-133.63-61.27-43.66-13.91-83.38-21.64-104.54-20.41-23.98-15.09-73.05-68-129.7-129.08-94.96-102.4-213.15-229.84-284.34-256.17l-3.58,9.68c68.88,25.47,186.13,151.91,280.35,253.51,58.28,62.85,108.61,117.12,133.35,131.77l1.42,.84,1.65-.14c39.52-3.42,159.76,31.01,233.3,79.87,23.74,15.77,45.7,36.37,66.94,56.28,32.79,30.75,63.75,59.78,97.5,67.63,14.35,3.33,28.48-8,42.15-18.96,12.82-10.28,26.07-20.91,38.17-18.97,12.39,1.98,35.41,21.25,59.77,41.64,27.34,22.89,58.33,48.83,87.47,62.43,55.89,26.09,140.57,109.84,159.74,170.4,13.03,41.17,13.27,71.61,.67,85.72-8.48,9.5-23.31,12.26-44.08,8.2-35.79-7-59.84-21.4-81.05-34.1-16.16-9.68-30.12-18.03-45.95-21.15-33.16-6.52-156.76-53.48-216.16-76.05l-8.17-3.1c-10.63-4.04-27.58-10.77-49.04-19.29-97.86-38.87-280.02-111.22-324.77-111.06-51.44,.19-124.58-25.1-170.24-50.19-11.87-6.52-41.91-15.69-83.47-28.37-114.75-35.02-328.36-100.2-442.76-202.25l-6.87,7.7c50.34,44.9,125.2,87.82,222.5,127.55,82.14,33.54,164.2,58.58,224.12,76.87,39.43,12.03,70.58,21.54,81.51,27.54,46.82,25.72,122.05,51.66,175.24,51.46,42.75-.16,230.63,74.47,320.92,110.33,21.5,8.54,38.48,15.28,49.19,19.35l8.17,3.1c64.24,24.41,183.82,69.85,217.84,76.53,14.06,2.76,27.3,10.69,42.63,19.87,20.86,12.49,46.81,28.03,84.38,35.37,10.31,2.02,19.48,2.51,27.47,1.49,11.06-1.42,19.85-5.74,26.29-12.94,19.38-21.71,11.49-64.03,1.47-95.71-9.44-29.83-33.91-66.23-68.91-102.5Z"/></g><g><path class="y" d="M3014.77,2862.51c-63.86-12.47-91.88-48.34-127.01-55.24-6.86-1.35-17.37-4.34-30.27-8.45-.01,0-.02,0-.04,0-53.23-16.94-147.22-52.84-194.86-70.94-39.23-14.9-166.28-67.19-263.11-100.75,67.86-54.59,97.63-186.86,79.89-246.73,10.85,5.83,21.25,11.97,30.91,18.39,60.57,40.26,108.95,110.68,162.74,123.18,24.27,5.64,51.79-42.51,79.96-38,28.17,4.5,92.7,78.39,148.62,104.49,37.96,17.72,90.12,62.47,125.92,109,16.92,22,30.18,44.39,36.55,64.52,19.83,62.68,14.53,113.03-49.32,100.54Z"/><path class="s" d="M2971.03,2637.11c-72.89-31.81-172.35-75.28-276.53-120.96-32.25-14.14-64.96-28.49-97.46-42.8-29.31-12.88-58.44-25.7-86.95-38.27-20.48,40.27-31.76,85.97-58.56,123.25,.93,.2,1.85,.41,2.75,.61,52.38,11.79,575.04,220.03,589.01,229.8,6.18-2.71,13.22-14.73,19.87-29.59-13.45-39.07-51.81-86.07-92.13-122.05Z"/><path class="s" d="M3014.77,2862.51c-63.86-12.47-91.88-48.34-127.01-55.24-6.86-1.35-17.37-4.34-30.27-8.45,44.47,9.79,105.94,22.19,140.4,23.49,55.77,2.11,60.32-43.57-51.84-115.91l81.5-8.94c16.92,22,30.18,44.39,36.55,64.52,19.83,62.68,14.53,113.03-49.32,100.54Z"/><path class="h" d="M3000.09,2657.91c-32.08-33.25-68.08-60.97-96.3-74.14-27.92-13.03-58.36-38.51-85.21-60.99-27.69-23.18-49.57-41.49-64.77-43.92-2.77-.44-5.65-.48-8.56-.11-13.37,1.71-25.74,11.63-37.7,21.22-10.31,8.26-20.04,16.07-28.54,17.16-1.71,.22-3.28,.15-4.81-.2-31.04-7.21-61.03-35.33-92.77-65.1-21.55-20.21-43.83-41.1-68.29-57.35-9.48-6.3-20.02-12.57-31.32-18.64l-10.9-5.86,3.51,11.87c16.85,56.88-11.48,187.58-78.18,241.25l-7.26,5.84,8.81,3.05c70.39,24.39,156.68,58.67,213.78,81.35,21.5,8.54,38.48,15.28,49.18,19.35l8.17,3.11c64.24,24.41,183.82,69.85,217.84,76.53,14.06,2.76,27.3,10.69,42.63,19.87,20.86,12.49,46.81,28.03,84.38,35.37,10.26,2.01,19.5,2.51,27.43,1.49h0c13.46-1.72,23.58-7.75,30.07-17.9,14.62-22.88,6.83-61.98-2.28-90.76-9.44-29.83-33.91-66.23-68.91-102.5Zm62.49,187.7c-4.83,7.56-12.25,11.88-22.68,13.22h0c-6.84,.88-14.96,.41-24.14-1.38-35.79-7-59.84-21.4-81.05-34.1-16.16-9.68-30.12-18.04-45.95-21.15-33.16-6.52-156.76-53.48-216.16-76.05l-8.17-3.1c-10.63-4.04-27.58-10.77-49.03-19.29-54.92-21.81-136.8-54.34-205.74-78.55,28.72-26.21,52.28-67.7,66.84-118.03,12.32-42.59,16.11-85.86,10.56-116.63,7.22,4.13,14.05,8.33,20.38,12.54,23.74,15.77,45.7,36.37,66.94,56.28,32.79,30.75,63.75,59.78,97.5,67.63,2.7,.63,5.55,.76,8.46,.39,11.39-1.46,22.22-10.15,33.69-19.35,10.85-8.7,22.06-17.69,32.55-19.03,1.93-.25,3.82-.23,5.61,.06,12.39,1.98,35.41,21.25,59.77,41.64,27.34,22.89,58.33,48.83,87.47,62.43,55.89,26.09,140.57,109.84,159.74,170.4,12.11,38.26,13.29,66.64,3.42,82.09Z"/><g><path class="k" d="M2423.75,2354.59c18.18,62.28-14.56,201.91-87.77,252.2,18.26,5.13,39.99,12.18,63.51,20.33,67.86-54.59,97.63-186.86,79.89-246.73-17.69-9.5-36.61-18.15-55.63-25.79Z"/><path class="ah" d="M2454.76,2410.66c-11.93,45.39-25.44,91.05-64.85,124.15-2.82,2.23-5.14,5.73-7.09,9.62,25.93,5.39,50.01,9.79,68.7,13.9,26.8-37.28,38.08-82.98,58.56-123.25-18.76-8.27-37.25-16.43-55.32-24.42Z"/><path class="i" d="M2483.72,2376.86l-1.9-1.02c-17.08-9.18-35.97-17.94-56.15-26.04l-9.85-3.96,2.97,10.19c17.6,60.28-14.49,197.56-85.74,246.5l-9.08,6.24,10.61,2.98c16.98,4.78,38.25,11.58,63.22,20.24l2.7,.94,2.23-1.79c31.85-25.62,58.05-69.65,73.77-123.97,13.97-48.28,16.97-97.42,7.84-128.25l-.61-2.06Zm-85.28,244.44c-19.36-6.68-36.48-12.23-51.07-16.58,40.72-32.87,62.24-87.28,71.69-118.02,13.88-45.12,18.24-91.18,12.04-123.51,15.6,6.56,30.33,13.5,43.91,20.71,15.42,57.27-12.21,183.32-76.57,237.4Z"/></g></g><path d="M2699.3,2526.1c-10.5-3.13-20.42-6.09-28.07-9.72l-4.43,9.32c8.36,3.97,18.65,7.04,29.55,10.29,25.41,7.58,54.21,16.17,60.1,38.13l9.97-2.67c-7.38-27.52-39.11-36.99-67.11-45.35Z"/></g><g><g><path class="k" d="M3162.73,2803.51l-56.06-72.49-235.49-304.52c12.26-14.87,33.76-32.07,51.96-28.76,18.19,3.31,49.31,43.89,87.81,72.2,27.1,19.93,72.39,48.72,113.27,84.23,27.8,24.15,53.56,51.41,70.16,81.12,40.99,73.37,42.92,178.72-31.64,168.23Z"/><path class="ah" d="M3162.73,2803.51l-56.06-72.49c-4.92-67.76-10.78-138.53-14.72-153.72,25.05,19.85,37.92,1.64,32.27-23.13,27.8,24.15,53.56,51.41,70.16,81.12,40.99,73.37,42.92,178.72-31.64,168.23Z"/><path class="ah" d="M2921.36,2445.95c1.8-17.57,27.09-27.75,41.27-16.27-9.39-23.66-43.6-47.02-87.73-12.47,15.24,6.14,46.46,28.74,46.46,28.74Z"/><path class="i" d="M3040.41,2484.46c-9.71-6.76-18.88-13.14-26.41-18.68-16.53-12.16-31.76-26.69-45.2-39.52-18.42-17.57-32.97-31.45-44.75-33.59-20.32-3.69-43.33,14.15-56.86,30.56l7.96,6.57c12.68-15.38,32.14-29.68,47.05-26.97,8.74,1.59,23.66,15.83,39.47,30.91,13.67,13.04,29.15,27.82,46.21,40.36,7.63,5.61,16.86,12.04,26.62,18.84,48.49,33.75,121.76,84.76,155.35,144.88,29.06,52.01,36.26,115.49,16.38,144.51-9.16,13.38-23.56,18.8-42.8,16.09l-1.44,10.22c6.59,.93,12.79,1.01,18.54,.28,14.41-1.85,26.06-8.86,34.21-20.76,11.13-16.25,15.31-41.6,11.77-71.39-3.35-28.24-13.18-58.07-27.66-83.99-34.75-62.19-109.2-114.02-158.46-148.31Z"/></g><g><path class="f" d="M3131.24,2804.46c-63.48-14.22-90.52-50.84-125.44-58.69-34.92-7.86-164.33-61.44-222.91-85.53-58.58-24.1-314.92-138.88-368.26-140.14-53.34-1.26-127.54-29.92-171.29-55.53-43.75-25.61-279.42-114.52-356.3-182.14l114.47-439.35c6.07,2.44,12.48,5.66,19.2,9.58,117.3,68.49,325.95,350.34,384.63,387.3,39.01-2.3,159.32,34.32,234.3,87.15,59.45,41.89,105.89,113.62,159.32,127.59,5.6,1.47,11.45,.04,17.48-2.97,19.96-9.9,41.96-36.89,63.49-32.84,28.03,5.28,90.52,80.9,145.7,108.52,55.17,27.62,139.55,114.71,157.66,177.9,18.12,63.2,11.44,113.39-52.05,99.16Z"/><path class="ab" d="M2552.8,2279.89c-60.29-25.96-121.66-41.47-147.46-39.95-58.68-36.96-267.33-318.81-384.63-387.3l-4.08,195.82c119.79-39.62,332.96,225.59,346.4,249.31,38.75-9.67,117.62,12.83,190.92,44.21,3.25-20.76,2.04-41.82-1.15-62.09Z"/><path class="m" d="M3122.17,2599.53c-31.16-34.12-66.39-62.81-94.23-76.74-27.55-13.79-57.28-40.09-83.51-63.3-27.05-23.93-48.41-42.83-63.54-45.68-16.53-3.11-31.93,8.56-46.81,19.84-12.55,9.52-24.4,18.5-33.81,16.04-30.83-8.06-60.04-36.99-90.96-67.62-20.99-20.79-42.69-42.28-66.69-59.2-34.21-24.1-81.05-47.15-131.91-64.91-43.26-15.1-82.76-23.92-103.94-23.26-23.56-15.74-71.16-69.97-126.11-132.58-92.13-104.96-206.78-235.59-277.22-263.86l-3.84,9.58c68.16,27.35,181.91,156.95,273.31,261.09,56.54,64.42,105.37,120.05,129.7,135.37l1.4,.88,1.65-.1c39.6-2.33,158.85,35.37,231.02,86.22,23.3,16.42,44.69,37.6,65.37,58.09,31.93,31.63,62.09,61.51,95.61,70.27,14.25,3.72,28.69-7.22,42.65-17.8,13.09-9.93,26.63-20.19,38.67-17.92,12.33,2.32,34.81,22.21,58.61,43.26,26.71,23.63,56.97,50.41,85.73,64.8,55.15,27.61,137.51,113.65,155.01,174.71,11.9,41.51,11.3,71.95-1.67,85.71-8.74,9.26-23.63,11.62-44.29,6.99-35.59-7.97-59.23-23.02-80.09-36.3-15.89-10.12-29.61-18.85-45.35-22.4-32.96-7.42-155.2-57.74-213.95-81.92l-8.13-3.35c-10.52-4.33-27.28-11.52-48.5-20.63-96.76-41.53-276.87-118.84-321.6-119.9-51.43-1.22-123.85-28.5-168.8-54.83-13.51-7.91-44.33-21.46-83.35-38.61-87.27-38.36-219.15-96.34-272.14-142.95l-6.82,7.75c54.19,47.67,186.95,106.03,274.81,144.65,38.72,17.02,69.3,30.46,82.29,38.07,46.1,26.99,120.59,54.98,173.77,56.24,42.74,1.01,228.5,80.75,317.77,119.06,21.26,9.13,38.06,16.34,48.65,20.69l8.13,3.35c63.54,26.15,181.8,74.83,215.61,82.45,13.98,3.15,27,11.44,42.08,21.03,20.5,13.05,46.02,29.3,83.37,37.67,10.93,2.45,20.6,3.13,28.98,2.06,10.37-1.33,18.76-5.35,25.07-12.04,19.96-21.17,13.24-63.69,4.09-95.63-8.62-30.07-32.09-67.13-66.08-104.35Z"/></g><g><path class="y" d="M3131.24,2804.46c-41.58-9.31-67.52-28.24-90.28-42.39-12-7.47-23.12-13.6-35.17-16.31-34.92-7.86-164.33-61.44-222.91-85.53-38.81-15.97-164.37-71.71-260.24-107.9,69.32-52.72,102.7-184.12,86.61-244.46,10.68,6.12,20.89,12.55,30.38,19.23,59.45,41.89,105.89,113.62,159.32,127.59,24.1,6.3,52.93-41.08,80.97-35.8,28.03,5.28,90.52,80.9,145.7,108.52,23.19,11.61,51.54,33.73,77.96,60.15,36.43,36.45,69.2,81.11,79.7,117.75,18.12,63.2,11.44,113.39-52.05,99.16Z"/><path class="s" d="M3131.24,2804.46c-41.58-9.31-67.52-28.24-90.28-42.39,27.2,3.77,59.72,4.53,87.39-4.25,57.03-18.1,8.86-111.36-24.89-170.24l.12-.03c36.43,36.45,69.2,81.11,79.7,117.75,18.12,63.2,11.44,113.39-52.05,99.16Z"/><path class="s" d="M2862.71,2480.05c.05-31.22,48.03-40.26,72.63-19.71-13.72-21.37-44.17-46.95-60.44-43.13-16.28,3.82-67.8,39.32-67.8,39.32l55.62,23.52Z"/><path class="s" d="M2846.7,2470.11c-11.29-2.47-16.41-9.03-30.25-18.39-6.03,3-11.88,4.44-17.48,2.97-53.43-13.97-99.87-85.69-159.32-127.59-9.63-6.78-20.01-13.3-30.86-19.5,4.35,20.38,4.93,41.18,2.79,61.48,46.43,23.94,84.19,49.13,98,67.77,39.13,52.8,152.87,62.12,160.61,116.62,29.51-37.4-1.28-78.51-23.49-83.36Z"/><path class="h" d="M3122.17,2599.53c-31.16-34.12-66.39-62.81-94.23-76.74-27.55-13.79-57.28-40.09-83.51-63.3-27.05-23.93-48.41-42.83-63.54-45.68-3.04-.57-6.22-.65-9.45-.24-13.08,1.68-25.43,11.03-37.37,20.08-10.34,7.84-20.11,15.24-28.55,16.32-1.89,.24-3.61,.15-5.26-.28-30.83-8.06-60.04-36.99-90.96-67.62-20.99-20.79-42.69-42.28-66.69-59.2-9.31-6.56-19.67-13.12-30.8-19.49l-10.74-6.15,3.19,11.96c15.28,57.32-16.61,187.2-84.75,239.02l-7.42,5.64,8.72,3.29c69.69,26.31,155.01,62.93,211.47,87.16,21.26,9.12,38.05,16.33,48.64,20.69l8.13,3.35c63.54,26.15,181.8,74.83,215.61,82.45,13.98,3.15,27,11.44,42.08,21.03,20.51,13.05,46.02,29.3,83.37,37.67,10.87,2.44,20.61,3.13,28.94,2.07h0c12.95-1.66,22.81-7.5,29.3-17.36,14.85-22.55,8.14-61.57-.1-90.32-8.62-30.07-32.09-67.13-66.08-104.35Zm57.57,189c-4.83,7.33-12.02,11.52-21.99,12.79h0c-7.14,.91-15.67,.28-25.37-1.9-35.59-7.97-59.23-23.02-80.09-36.3-15.89-10.12-29.61-18.85-45.35-22.4-32.96-7.42-155.2-57.74-213.95-81.92l-8.13-3.35c-10.52-4.33-27.27-11.52-48.49-20.63-54.3-23.31-135.26-58.06-203.51-84.15,29.42-25.41,54.11-66.24,70.04-116.16,13.48-42.24,18.46-85.39,13.75-116.3,7.11,4.33,13.81,8.71,20.03,13.09,23.3,16.42,44.69,37.6,65.37,58.09,31.93,31.63,62.09,61.51,95.61,70.27,2.91,.76,6,.94,9.18,.53,11.17-1.43,22-9.64,33.47-18.33,10.86-8.23,22.09-16.74,32.44-18.07,2.19-.28,4.23-.23,6.23,.14,12.33,2.32,34.81,22.21,58.61,43.26,26.71,23.63,56.97,50.41,85.73,64.8,55.15,27.61,137.51,113.65,155.01,174.71,10.97,38.26,11.45,66.55,1.41,81.8Z"/><g><path class="k" d="M2554.35,2280.56c16.47,62.76-20.08,201.44-94.64,249.7,18.11,5.63,39.64,13.27,62.93,22.06,69.32-52.72,102.7-184.12,86.61-244.46-17.42-9.98-36.1-19.15-54.9-27.31Z"/><path class="ah" d="M2608.78,2307.6c-17.77-10.15-36.82-19.46-55.98-27.7,3.19,20.27,4.4,41.33,1.15,62.09,19.92,8.53,39.43,17.72,57.62,27.1,2.14-20.3,1.56-41.1-2.79-61.48Z"/><path class="i" d="M2613.68,2304.46l-1.87-1.07c-16.83-9.64-35.47-18.91-55.42-27.56l-9.74-4.22,2.69,10.27c15.95,60.74-19.89,197.09-92.45,244.06l-9.25,5.99,10.52,3.27c16.84,5.24,37.92,12.63,62.64,21.96l2.67,1.01,2.27-1.73c32.54-24.74,59.93-68.04,77.13-121.91,15.28-47.87,19.63-96.92,11.35-127.98l-.55-2.08Zm-91.93,242.02c-19.18-7.21-36.13-13.23-50.6-17.97,41.61-31.74,64.61-85.55,74.9-116.01,15.11-44.73,20.73-90.64,15.41-123.14,15.42,6.98,29.95,14.33,43.32,21.9,13.84,57.67-17.23,182.92-83.04,235.21Z"/></g></g><path class="h" d="M2825.1,2459.54c-10.41-3.42-20.25-6.65-27.79-10.49l-4.68,9.2c8.25,4.2,18.45,7.55,29.25,11.1,25.19,8.27,53.75,17.65,59.03,39.76,0,0,2.96-21.07-10.53-30.15-12.93-8.7-29.67-14.29-45.28-19.42Z"/></g><g><path class="y" d="M2008.14,2085.97c-26.68,44.46-54.53,124.91-47.3,163.3,7.23,38.38,5.95,64.56-6.6,74.84-9.75,7.99-123.48,38.23-217.24,42.11-26.95,1.1-52.24,.03-72.95-4.37-59.12-16.33-86.91-46.68-91.78-60.7l350.81-431.68,37.54-46.21c59.32,2.81,96.2,37.97,106.47,73.08,10.28,35.1-32.28,145.19-58.96,189.65Z"/><path class="s" d="M2008.14,2085.97c-26.68,44.46-54.53,124.91-47.3,163.3,7.23,38.38,5.95,64.56-6.6,74.84-9.75,7.99-123.48,38.23-217.24,42.11,61.22-9.53,132.09-31.47,166.29-44.25,47.07-17.59,32.81-32.72,26.55-93.58s45.4-132.99,77.75-193.4c32.34-60.4-18.71-103.97-49.19-53.05l-35.32-112.47,37.54-46.21c59.32,2.81,96.2,37.97,106.47,73.08,10.28,35.1-32.28,145.19-58.96,189.65Z"/><path class="h" d="M2035.36,1843.56c-20.28-15.31-46.04-24.12-74.5-25.47l-.49,10.31c57.06,2.7,92.23,36.79,101.77,69.37,9.24,31.56-29.88,137.97-58.43,185.54-28.58,47.62-55.3,127.88-47.95,166.91,8.89,47.24,2.3,64.08-4.8,69.89-10.64,8.56-192.26,56.5-285.69,36.71-61.57-17.04-84.84-47.9-88.14-57.38l-9.75,3.39c5.83,16.75,36.02,47.62,95.29,63.98l.3,.07c38.15,8.12,90,4.73,132.27-.68,17.01-2.18,32.47-4.68,44.86-6.9,53.08-9.49,109.03-24.36,117.4-31.21,13.66-11.18,16.41-37.28,8.41-79.79-6.72-35.69,19.09-113.74,46.66-159.68,27.43-45.72,70.43-156.38,59.49-193.75-5.72-19.55-18.75-37.78-36.69-51.32Z"/></g></g><g><g><g><path class="f" d="M1163.69,1909.78c-9.16-3.09-23.4-6.7-41.52-10.74-114.5-25.53-383.74-68.43-502.69-108.6-137.75-46.52-406.82-300.05-443.64-316.72-47.54,12.45-95.99-40.89-119.61-89.89l30.54-39.17,93.59-120.09s77.1,96.49,105.12,143.78c70.23,33.79,224.67,72.2,402.67,183.14,78.54,8.44,259.08,18.85,330.13,40.97l145.41,317.34Z"/><path class="ab" d="M1122.17,1899.04l-88.43-131.68c-67.04,30.17-248.97,33.04-349.61-39.63-55.66,11.85-147.29-25.76-235.87-78.65-9.55,6.38-19.66,12.08-29.5,17.89,72.49,55.15,146.71,105.23,200.73,123.48,118.95,40.17,388.18,83.08,502.69,108.6Z"/><path class="m" d="M621.14,1785.55c-93.94-31.73-248.63-159.9-351-244.72-46.48-38.52-80.07-66.34-92.17-71.82l-1.67-.75-1.77,.46c-41,10.74-87.05-33.86-112.25-84.28l118.11-151.54c16.27,20.57,76.81,97.83,100.65,138.06l.8,1.34,1.41,.68c20.85,10.03,49.46,20.62,82.6,32.88,82.01,30.35,194.32,71.91,319.58,149.99l1,.63,1.18,.13c19.22,2.07,44.03,4.21,72.76,6.68,85.76,7.4,203.21,17.53,256.39,34.08l3.07-9.85c-54.24-16.89-172.34-27.07-258.57-34.51-28.09-2.42-52.42-4.52-71.37-6.54-125.75-78.22-238.25-119.86-320.46-150.28-32.15-11.9-60.01-22.21-80.31-31.84-28.49-47.46-101.6-139.1-104.72-143.01l-4.08-5.11-130.12,166.94,1.39,2.89c24.52,50.88,71.01,100.15,117.83,94.15,1.94-.25,3.89-.59,5.82-1.03,12.32,6.63,46.07,34.6,88.32,69.61,102.95,85.3,258.52,214.21,354.28,246.55,81.52,27.53,234.42,56.54,357.29,79.86,85.7,16.26,159.71,30.3,186.91,39.48l3.3-9.78c-27.88-9.41-102.22-23.51-188.29-39.84-122.55-23.25-275.07-52.19-355.91-79.49Z"/></g><g><g><path class="y" d="M180.36,1224.55l-124.13,159.26c23.62,49,72.07,102.34,119.61,89.89,19.98,9.05,108.38,87.86,207.06,165.49,77.7-47.79,105.77-138.74,106.03-190.73-89.29-38.05-161.44-59.93-203.45-80.14-28.02-47.28-105.12-143.78-105.12-143.78Z"/><path class="s" d="M201.1,1427.12c-55,17.45-79.55-11.78-70.07-28.02,9.48-16.24,40.56-39.88,38.89-52.96-1.68-13.08-2.69-66.14-2.69-66.14l-80.46,64.64-30.54,39.17c23.62,49,72.07,102.34,119.61,89.89,19.84,8.99,107.15,86.77,205,163.87,7.9-5.28,15.93-10.34,23.2-16.3-110.56-72.96-205.42-161.51-202.95-194.15Z"/><path class="t" d="M81.75,1425.06l9.95,10c9.56-2.09,16.29-21.74,15.71-26.29,19.18-5.93,29.06-21.35,30.65-38.32,14.62-9.97,23.57-14.58,26.07-22.13,2.36-8.68,.32-22.3,.32-22.3l-14.87-3.3-72.04,85.24,4.21,17.09Z"/><path class="h" d="M369.43,1396.19c-32.15-11.9-60.02-22.21-80.32-31.84-28.49-47.46-101.6-139.1-104.72-143.01l-4.08-5.11-130.12,166.94,1.39,2.89c12.34,25.61,30.17,49.98,48.92,66.86,22.96,20.68,46.79,30.12,68.91,27.28,1.94-.25,3.89-.59,5.82-1.03,12.32,6.63,46.07,34.6,88.33,69.61,32.99,27.34,74.05,61.35,116.15,94.47l2.83,2.23,3.07-1.89c35.45-21.8,64.5-54.99,84.01-95.97,15.4-32.35,24.32-68.49,24.48-99.13l.02-3.43-3.15-1.34c-45.55-19.41-85.91-34.35-121.52-47.53Zm13.8,236.7c-41-32.33-80.89-65.38-113.09-92.06-46.49-38.52-80.08-66.35-92.17-71.83l-1.67-.75-1.77,.46c-2.11,.55-4.28,.97-6.43,1.25-40.96,5.24-83.12-40.13-105.82-85.53l118.11-151.54c16.27,20.57,76.81,97.83,100.65,138.06l-.38,.91,2.58,1.11c20.85,10.03,49.47,20.62,82.61,32.89,34.66,12.83,73.83,27.33,117.86,45.99-1.31,43.41-23.6,131.84-100.47,181.04Z"/></g><g><path class="k" d="M382.9,1639.2c12.34,9.71,24.85,19.4,37.4,28.94,86-47.47,115.35-146.6,114.08-199.48-15.58-7.21-30.75-13.92-45.45-20.18-.26,51.99-28.33,142.94-106.03,190.73Z"/><path class="ah" d="M404.05,1621.27c-7.27,5.96-15.3,11.02-23.2,16.3,12.5,9.85,25.18,19.69,37.91,29.38,9.84-5.81,19.95-11.5,29.5-17.89-14.89-8.89-29.68-18.21-44.21-27.8Z"/><path class="i" d="M490.95,1443.72l-7.14-3.04-.04,7.77c-.21,42.56-22.13,136.27-103.57,186.36l-6.3,3.88,5.82,4.58c12.95,10.18,25.55,19.94,37.47,28.99l2.68,2.03,2.94-1.62c49.37-27.25,77.24-69.42,91.92-100,16.3-33.93,25.57-72.85,24.82-104.13l-.08-3.21-2.91-1.35c-14.79-6.84-30.13-13.66-45.6-20.25Zm-70.22,218.25c-9.3-7.08-18.99-14.58-28.93-22.35,32.64-21.77,59.45-53.43,77.81-92,14.13-29.68,22.8-62.54,24.26-91.42,11.98,5.17,23.84,10.46,35.39,15.77-.03,51.06-28.98,144.25-108.53,190Z"/></g></g><g><path class="y" d="M22.38,1306.06c-18.52,20.87-23.05,45.73-9.07,73.61,13.98,27.89,50.42,53.66,65.47,44.8,15.05-8.86,18.54-29.74,15.68-37.08l-72.08-81.34Z"/><path class="s" d="M58.23,1385.87c3.99,19.14-48.87-13.69-50.63-43.23-9.84,26.98,29.1,73.74,51.87,80.07,22.78,6.33,35.54-21.89,35.54-21.89l-36.79-14.94Z"/><path class="h" d="M89.65,1389.27c2.09,5.35-1.02,23.41-13.49,30.75-2.42,1.43-6.25,1.43-11.08,0-16.68-4.92-37.84-24.06-47.16-42.67-12.44-24.81-9.64-47.65,8.32-67.88l-7.72-6.85c-20.74,23.36-24.14,50.8-9.83,79.35,10.61,21.17,34.09,42.22,53.47,47.94,4.55,1.34,8.65,1.78,12.29,1.31,2.56-.33,4.88-1.1,6.95-2.32,17.56-10.34,21.55-33.98,17.87-43.4l-9.61,3.76Z"/></g><g><path class="y" d="M54.6,1235.65c-21.53,15.47-50.16,47.66-33.86,93.75,16.31,46.09,55.74,71.1,74.28,71.42,18.54,.32,32.59-25.37,24.33-44.74l-64.75-120.43Z"/><path class="s" d="M88.38,1348.19c5.18,20.15,2.59,33.78-15.28,27.39-17.87-6.38-54.79-66.69-52.49-82.59-8.17,15.21,10.17,83.96,51.38,103.26,41.2,19.29,50.18-23.48,50.22-32.16-7.93-1.01-33.83-15.9-33.83-15.9Z"/><path class="h" d="M114.61,1358.1c3.6,8.43,2.27,19.31-3.39,27.71-4.28,6.36-10.15,9.95-16.11,9.84-15.96-.28-53.89-23.87-69.5-67.98-16.5-46.65,16.88-76.96,32-87.83l-6.02-8.38c-17.01,12.23-54.55,46.42-35.71,99.66,16.84,47.61,57.43,74.48,79.05,74.86,1.22,.02,2.43-.05,3.63-.2,8.16-1.05,15.75-6.08,21.22-14.2,7.67-11.4,9.33-25.78,4.32-37.52l-9.49,4.05Z"/></g><g><path class="y" d="M120.5,1295.81l8.07-108.56c-38.54,3.01-81.45,35.09-82.62,71.09-1.17,35.99,2.49,55.56,24.6,74.7,22.11,19.14,39.41,33.88,53.66,27.81,14.25-6.06,29.72-17.68,22.09-32.12s-22.83-24.82-25.8-32.92Z"/><path class="s" d="M111.04,1292.68c3.8,20.61,5,41.27-15.79,34.68-20.79-6.59-47.58-35.24-43.81-82.55-12.5,31.08-7.33,57.88,6.7,74.87,14.03,16.99,48.72,46.37,65.06,43.12,16.35-3.25,27.51-28.96,26-33.97-1.51-5.01-38.16-36.16-38.16-36.16Z"/><path class="h" d="M134.44,1305.33c-4.15-4.37-8.07-8.5-9.09-11.3l-9.69,3.55c1.76,4.8,6.18,9.46,11.29,14.85,5.19,5.47,11.06,11.66,14.79,18.71,1.55,2.93,1.82,5.69,.84,8.46-2.05,5.77-9.67,11.94-20.39,16.5-11.48,4.88-28.52-9.88-48.26-26.97-20.9-18.09-23.93-36.41-22.82-70.63,1.1-33.89,42.77-63.38,77.86-66.11l-.8-10.29c-40.19,3.13-86.08,36.33-87.38,76.06-1.2,36.86,2.44,58.05,26.38,78.77,19.86,17.19,37.31,32.3,53.16,30.27,1.99-.26,3.96-.78,5.9-1.61,7.95-3.38,21.91-10.81,26.07-22.54,1.95-5.48,1.45-11.27-1.44-16.73-4.39-8.3-10.78-15.04-16.42-20.99Z"/></g><g><path class="y" d="M109.35,1189.14c-35.19,27.63-14.29,96.06,17.31,126.12,31.6,30.06,52.54-4.99,49.57-23.69l52.07-44.82c-33.71-46.55-83.75-85.24-118.95-57.61Z"/><path class="s" d="M185.4,1234.6c4.51,10.41-58.41,65.29-77.51,51.55,12,28.23,28.11,52.47,59.57,36.31,21.38-31.64,17.94-87.85,17.94-87.85Z"/><path class="h" d="M143.48,1175.27c-13.98-1.96-26.54,1.34-37.32,9.81-12.34,9.68-19.32,24.62-20.2,43.21-1.46,30.7,14.16,68.85,37.14,90.71,12.36,11.76,22.95,13.89,30.64,12.91,3.62-.46,6.61-1.62,8.83-2.79,13.72-7.21,20.77-25.66,18.76-38.36l-10.19,1.62c1.42,8.96-3.99,22.67-13.36,27.6-9.93,5.22-20.47-1.72-27.55-8.46-20.66-19.65-35.25-55.23-33.94-82.74,.51-10.81,3.75-25.75,16.27-35.58,8.5-6.67,18.43-9.26,29.52-7.71,24.75,3.47,55.43,27.5,82.06,64.28l8.36-6.05c-28.25-39.01-61.51-64.6-88.99-68.45Z"/></g><g><path class="y" d="M285.48,1368.33l-75.4,43.18c-3.97-1.87-7.61-4.1-10.93-6.61-39.45-29.73-35.53-99.75-35.33-108.57-38.04,50.54-88.1,18.51-89.84,7.17-.6-3.89,1.55-10.01,5.16-16.89,6.88-13.16,19.06-29.09,27.47-37.58,11.4-11.49,25.99-36.28,51.88-37.28,25.89-1,70.84,25.04,89.68,45.75,18.84,20.71,37.17,87.15,37.32,110.84Z"/><path class="s" d="M210.77,1403.33c-3.44,1.74-7.4,2.13-11.62,1.57-39.45-29.73-35.53-99.75-35.33-108.57-38.04,50.54-88.1,18.51-89.84,7.17-.6-3.89,1.55-10.01,5.16-16.89l3.54-.98c14.19,22.75,56.23,32.11,92.65-30.36,5.74,29.04,13.26,128.37,35.44,148.08Z"/><path class="h" d="M158.29,1206.59c-22.87,.89-37.49,18.13-48.17,30.72-2.57,3.03-4.99,5.89-7.18,8.09-10.62,10.72-36.35,43.97-34.06,58.89,1.31,8.54,15.61,19.07,31.23,23,12.88,3.24,36.22,4.65,58.42-17.06,.33,19.63,2.36,44.16,12.01,64.9,14.64,31.49,41.74,31.73,41.74,31.73-40.09-18.92-44.36-76.39-43.34-108.97,.02-.58,.03-1.06,.04-1.43l.37-16.05-9.65,12.82c-19.43,25.82-40.76,27.56-55.23,24.47-15.88-3.39-24.85-12.66-25.38-14.98-1.23-7.99,17.11-35.85,31.19-50.05,2.47-2.49,5.02-5.5,7.72-8.68,9.96-11.75,22.37-26.38,40.69-27.08,23.71-.92,66.92,23.46,85.66,44.06,14.73,16.2,30.39,65.48,34.77,94.46,.76,5.01,1.92,12.12,1.94,15.64l9.58-2.76c-.14-23.79-18.13-91.71-38.66-114.28-20.32-22.34-66.65-48.48-93.7-47.43Z"/></g><path class="m" d="M683.98,1569.31c11.57,11.8,27.79,43.14,45.67,88.26,0,0-2.49-33.39-9.46-48.07-9.45-19.91-19.62-38-28.85-47.42l-7.37,7.23Z"/></g><g><g><path class="f" d="M1923.13,1796.83s-11.27,67.82-23.17,129.37c-8.77,45.31-17.87,87.22-23.09,96.22-12.31,21.23-229.95,208.65-343.12,227.77-197.21-68.4-443.82-325.48-500.21-485.9l56.06-90.42,337.82-182.85,268.69,91.79,10.47,3.58c29.49,13.57,49.94,146.22,216.56,210.44Z"/><path class="ab" d="M1923.13,1796.83s-11.27,67.82-23.17,129.37c-22.78,33.38-53.43,65.61-91.23,78.74,64.23-118.44-20.31-194.71-45.78-213.03-25.47-18.32-97.41-134.74-158.86-143.22l92.01-65.88,10.47,3.58c29.49,13.57,49.94,146.22,216.56,210.44Z"/><path class="m" d="M1738.29,1621.24c-11.72-21.01-19.47-34.9-29.56-39.54l-4.31,9.38c7.03,3.24,14.9,17.34,24.86,35.19,26.65,47.77,71.05,127.37,188.08,173.84-9.95,59.44-35.46,203.37-44.95,219.73-5.28,9.1-60.93,60.24-132.35,113.12-86.26,63.87-159.28,103.55-205.88,111.92-200.15-70.13-446.3-326.95-500.42-480.93,0,0-2.73,25.91,18.51,64.82,36.86,67.5,98.32,144.61,172.62,217.35,102.95,100.79,214.91,176.95,307.16,208.94l1.25,.43,1.3-.22c61.66-10.41,149.1-67.76,211.59-114.03,65.74-48.68,127.68-103.39,135.13-116.24,12.43-21.43,43.4-206.32,46.89-227.34l.69-4.15-3.92-1.51c-116.48-44.9-160.43-123.69-186.7-170.77Z"/></g><g><path class="ai" d="M1376.46,1915.79c-.41,.19-.82,.36-1.22,.53l-32.27-47.88c10.38-6.79,78.57-66.98,36.87-85.12-42.24-18.37-88.62,35.35-83.34,88.15-.23-.28-.47-.54-.7-.81-26.12-29.66-97.16-21-96.84,7.99,.32,29.25,44.97,38.24,87.46,31.15,0,0,13.5,29.94,19.67,46.05-6.23,1.94-12.23,3.68-18.04,5.21-55,14.62-91.27,11.82-114.61,.29-30.8-15.21-39.09-45.63-38.23-71.21,.96-29.04,23.58-56.72,45.76-76.21,13.72-12.06,27.26-20.98,35.4-25.15,14.84-7.59,36.16-4.27,49.25,7.88-2.97-53.93,67.01-77.17,111.44-87.91,9.53-2.3,19.29-3.39,28.87-3.25,38.76,.58,74.62,21.26,80.71,62.69,7.49,51.07-75.46,132.15-110.17,147.59Z"/><path class="am" d="M1173.44,1961.35c-30.8-15.21-39.09-45.63-38.23-71.21,.96-29.04,23.58-56.72,45.76-76.21,2.4-1.47,4.84-2.86,7.32-4.18-46.78,59.23-40.94,105.01-14.84,151.6Z"/><path class="j" d="M1376.46,1915.79l-11.94-19.06s40.96-28.89,76.88-70.43c34.71-40.15,24.53-92.46-35.47-120.78,38.76,.58,74.62,21.26,80.71,62.69,7.49,51.07-75.46,132.15-110.17,147.59Z"/><path class="j" d="M1306.08,1955.86c-6.23,1.94-12.23,3.68-18.04,5.21-2.51-6.78-10.61-27.64-14.46-26.71-4.6,1.11-69.97,1.11-84.63-27.12-14.66-28.23-2.36-58.51,24.1-67.45,26.46-8.94,70.54-.53,80.64,24.79l2.1,6.1c-26.12-29.66-97.16-21-96.84,7.99,.32,29.25,44.97,38.24,87.46,31.15,0,0,13.5,29.94,19.67,46.05Z"/><path class="w" d="M1405.27,1700.34c-9.85-.09-19.75,1.06-29.43,3.4-72.45,17.51-111.1,45.38-115.13,82.92-7.71-4.49-16.78-7.01-26.03-7.09-7.49-.07-14.63,1.53-20.67,4.62-25.64,13.12-82.39,57.96-83.97,105.79-.82,24.65,6.61,46.44,20.91,61.35,15.58,16.25,38.85,24.62,69.16,24.88,24.55,.21,53.99-4.97,87.51-15.42l5.25-1.64-1.97-5.14c-6.15-16.06-19.23-45.09-19.78-46.32l-1.63-3.62-3.92,.65c-9.32,1.55-18.6,2.3-27.58,2.22-25.9-.23-53.65-7.79-53.88-28.34-.04-3.47,1.42-6.71,4.33-9.63,7.16-7.17,22.34-11.72,38.67-11.57,19.5,.17,36.48,6.67,45.42,17.38l10.77,12.91-1.67-16.73c-2.34-23.41,6.28-48.98,22.49-66.73,11.54-12.64,25.26-19.54,38.61-19.43,5.13,.04,10.19,1.14,15.05,3.25,8.57,3.73,9.93,8.62,10.22,11.98,1.78,21.08-37.86,57.56-47.85,64.09l-4.38,2.86,37.55,55.71,3.9-1.61c35.4-14.64,122.54-98.94,114.52-153.64-5.92-40.36-39.86-66.7-86.47-67.11Zm37.31,152.68c-23.75,27.87-49.88,48.81-65.52,56.76l-27.1-40.21c13.36-10.85,50.47-45.07,48.32-70.42-.54-6.37-3.82-15.1-16.39-20.57-6.13-2.67-12.55-4.05-19.07-4.11-16.32-.14-32.77,7.95-46.32,22.79-15.31,16.76-24.56,39.79-25.49,62.34-11.26-7.84-26.79-12.39-43.81-12.54-19.26-.17-36.91,5.43-46.06,14.6-4.88,4.89-7.42,10.77-7.35,17.03,.25,23.44,24.82,38.21,64.11,38.55,8.31,.07,16.84-.52,25.42-1.75,3.28,7.35,10.86,24.48,15.92,37.04-30.28,9.04-56.84,13.53-79.03,13.33-27.42-.24-48.22-7.54-61.8-21.71-16.67-17.38-18.46-41.21-18.04-53.86,1.46-44.13,57.95-86.5,78.36-96.94,4.56-2.33,10.05-3.54,15.88-3.49,10.21,.09,20.49,4.04,27.51,10.56l9.37,8.71-.7-12.77c-2.04-37.08,34.13-64.87,107.5-82.61,8.86-2.14,17.92-3.19,26.92-3.11,31.31,.27,70.1,15.7,76.34,58.29,3.05,20.8-11.14,51.45-38.94,84.08Z"/></g><path class="v" d="M1234.07,1632.58l16.49-29.7-12.29-91.5-185.94,97.13c25.64,10.59,50.62,40.15,63.61,55.83,3.87,1.04,8.03,2.13,12.38,3.25,38.54,.66,79.03-8.92,105.76-35.01Z"/><path class="av" d="M1060.51,1610.74c44.03,.72,129.42-32.18,147.35-27.54,17.94,4.64,27.22,41.03,27.66,44.44,15.2-7.73,26.5-32.3,26.14-35.14s-1.27-91.17-1.27-91.17l-199.88,109.42Z"/><path class="m" d="M1208.07,1644.15c-27.8,17.1-62.87,20.45-104.26,9.96l-2.54,10.01c23.59,5.98,45.33,7.69,65.09,5.16,17.26-2.21,33-7.66,47.11-16.34,28.63-17.61,49.89-49.38,58.33-87.15l-10.07-2.25c-7.83,35.07-27.39,64.45-53.66,80.61Z"/><g><g><path class="y" d="M1133.06,1752.9c-7.75,25.27-40.41,24.1-62.77,10.93-3.58-2.11-7.73-5.14-12.16-8.94-30.12-25.84-73-87.87-35.48-146.44l8.8,.49,31.96,1.8,24.01,31.03c56.05,16.34,53.39,85.85,45.64,111.12Z"/><path class="s" d="M1133.06,1752.9c-7.75,25.27-40.41,24.1-62.77,10.93-3.58-2.11-7.73-5.14-12.16-8.94-.26-.51-.51-1.03-.74-1.55,46.53,6.76,38.67-54.67,11.78-79.55,5.12-.66,42.29,14.24,45.37,20.2-3.06-23.89-57.58-61.42-102.32-63.2l19.24-21.85,31.96,1.8,24.01,31.03c56.05,16.34,53.39,85.85,45.64,111.12Z"/><path class="g" d="M1054.3,1603.74l-3.94,9.54c11.54,4.77,27.91,19.44,42.44,35.11,6.29,1.02,12.76,2.63,18.5,5.44-17.14-20.48-40.14-43.12-57-50.09Z"/><path class="h" d="M1085.97,1646.74c15.98,4.66,28.04,14.36,35.86,28.86,13.72,25.42,11.13,59.98,6.28,75.8-2.13,6.93-6.58,11.76-13.23,14.34-11.26,4.37-28.13,1.82-41.98-6.35-17.8-10.49-48.27-43.34-57.14-80.52-5.78-24.24-2.01-46.99,11.22-67.63l-8.69-5.57c-14.8,23.09-19.02,48.52-12.57,75.59,9.67,40.54,42.04,75.29,61.94,87.01,13.17,7.76,28.4,11.13,41.25,9.49,3.43-.44,6.7-1.24,9.71-2.41,9.61-3.73,16.31-10.97,19.36-20.94,5.55-18.1,9.63-56.13-7.07-83.72-14.31-23.64-44.95-23.95-44.95-23.95Z"/></g><g><path class="ai" d="M1084.56,1690.68c-13.17,3.86-20.27,19.15-15.87,34.14,4.4,14.99,18.64,24.01,31.81,20.14,13.17-3.87,20.27-19.15,15.87-34.14-4.4-14.99-18.64-24.01-31.81-20.14Z"/><path class="am" d="M1096.65,1692.1c-20.2,10.39-21.64,36.44-3.07,50.54-21.31-1.61-25.02-8.07-26.03-11.41-1.01-3.34,2.51-34.57,2.51-34.57l26.59-4.56Z"/><path class="w" d="M1087.32,1684.84c-1.42,.18-2.84,.48-4.21,.88-15.88,4.66-24.57,22.85-19.37,40.55,4.66,15.87,19.27,26.41,34,24.53h0c1.42-.18,2.84-.48,4.21-.88,7.81-2.29,14.12-7.86,17.75-15.67,3.53-7.58,4.1-16.42,1.62-24.87-4.66-15.87-19.27-26.41-34-24.53Zm23.02,45.05c-2.36,5.08-6.38,8.68-11.3,10.12-.86,.25-1.74,.44-2.62,.55h0c-9.75,1.25-19.54-6.14-22.79-17.2-3.59-12.24,1.96-24.68,12.38-27.74,.86-.25,1.74-.44,2.62-.55,9.75-1.25,19.54,6.14,22.79,17.2,1.78,6.05,1.39,12.3-1.08,17.61Z"/></g></g></g><g><g><path class="f" d="M2331.13,1859.05c-.24,16.22-26.93,33.51-45.97,38.26-5.56,19.79-48.01,22.33-56.13,17.59-38.93,16.55-68.73-8.54-73.61-24.1-44.13-4.14-57.88-22.44-63.31-41.79-1.62-5.8-2.5-11.69-3.22-17.32-3.13-24.46,13.5-75.15,19.82-80-21.07-6.55-233.26-110.61-296.3-214.68-15.4,33.19-151.04,102.58-207.04,116.69l-184.41-100.87c-6.53-56.97,14.35-116.68,93.9-151.53,9.2-4.03,20.49-8.42,33.38-12.99,98.66-34.96,291.84-80.52,368.53-56.59,86.71,27.05,279.2,230.17,297.11,270.65,69.41,45.45,122.89,115.49,141.55,148.36,18.66,32.87,14.31,75.63-24.28,108.32Z"/><path class="ab" d="M1916.76,1331.72c-76.69-23.93-269.86,21.63-368.53,56.59,101.59-9.19,290.91-35.6,329.33,10.48,31.58-6.9,87.19,24.75,139.98,70.56,13.46-14.68,33.17-20.52,51.9-27.89-55.43-51.47-114.38-97.79-152.69-109.74Z"/><path class="m" d="M2217.92,1598.86c-11.21-22.87-64.59-83.84-123.22-140.56-43.56-42.15-124.39-115.28-176.41-131.51-49.52-15.45-139.48-2.3-206.22,11.45-73.54,15.15-155.49,39.14-199.3,58.33-39.07,17.12-62.22,34.65-71.43,58.36-14.7,37.82,5.61,73.83,5.61,73.83-6.41-56-6.33-89.32,69.96-122.73,76.63-33.57,312.55-96.13,398.31-69.38,36.5,11.39,99.3,58.43,172.3,129.07,65.07,62.96,113.79,121.04,121.62,138.74l.62,1.39,1.28,.84c66.18,43.34,119.92,111.41,139.89,146.59,15.24,26.85,17.17,67.7-23.13,101.83l-1.79,1.52-.03,2.35c-.18,12.34-23.28,28.64-42.06,33.33l-2.91,.72-.81,2.89c-1.6,5.69-7.9,9.29-12.9,11.32-14.05,5.69-32.28,5.19-35.66,3.22l-2.24-1.31-2.38,1.01c-19.59,8.32-35.17,4.77-44.8,.33-12.22-5.64-19.9-14.96-21.87-21.23l-1.03-3.27-3.42-.32c-55.57-5.21-59.23-33.77-61.9-54.63-2.99-23.33,13.08-70.49,17.91-75.31l7.82-6.01-9.5-2.95c-9.18-2.85-66.09-29.4-131.2-70.21-55.95-35.07-129.5-88.21-162.21-142.21l-5.02-8.28-4.08,8.78c-14.46,31.16-148.62,100-203.62,113.86,0,0,22.69,5.3,65.59-13.55,55.8-24.52,122.08-62.34,142.69-88.56,35.53,53.29,106.63,104.52,161.17,138.71,54.66,34.26,107.36,60.56,127.31,68.92-8.71,16.63-19.74,57.52-17.1,78.13,3.5,27.37,11.99,56.98,68.01,63.27,3.82,8.18,12.79,18.09,26.11,24.24,11.19,5.16,29.02,9.35,51.14,.62,5.34,1.73,14.4,2.1,23.83,.89,6.27-.8,12.7-2.3,18.31-4.57,8.93-3.61,15.07-8.83,17.92-15.21,19.16-5.64,44.63-21.96,47.03-40.01,18.17-15.92,29.81-35.12,33.7-55.65,3.74-19.75,.32-39.72-9.91-57.74-20.34-35.84-74.83-104.94-141.98-149.32Z"/></g><g><g><path class="y" d="M2213.87,1602.37c-8.05-18.21-51.4-69.29-104.57-122.47-68.72,30.97-135.17,107.4-154.48,187.2,71.39,47.16,142.17,80.95,153.88,84.59-6.32,4.86-22.95,55.54-19.82,80,3.13,24.46,9.19,53.74,66.53,59.12,4.88,15.56,34.69,40.65,73.61,24.1,8.12,4.74,50.57,2.2,56.13-17.59,19.05-4.75,45.74-22.04,45.97-38.26,38.59-32.69,42.94-75.45,24.28-108.32-18.66-32.87-72.14-102.91-141.55-148.36Z"/><path class="s" d="M2355.42,1750.73c-18.66-32.87-72.14-102.91-141.55-148.36-8.02-18.13-51.05-68.88-103.92-121.82-16.94,9.82-36.36,14.72-50.8,28.53,43.89,45.99,79.82,97.96,88.85,138.72,71.25-3.34,194.19,102.97,168.54,146.69,8.22,28.38-6.23,41.1-31.27,33.38-3.67,23.65-31.18,32.39-44.63,18.78-3.52,18.66-51.96,15.04-53.57,2.52-4.85-28.86-38.21-54.65-47.27-39.62-9.06,15.03-15.54,36.67,3,50.49-21.34,9.97-40.73,1.99-50.7-11.04,5.43,19.35,19.18,37.65,63.31,41.79,4.88,15.56,34.69,40.65,73.61,24.1,8.12,4.74,50.57,2.2,56.13-17.59,19.05-4.75,45.74-22.04,45.97-38.26,38.59-32.69,42.94-75.45,24.28-108.32Z"/><path class="aq" d="M2142.81,1860.04c-3.28-34.65,24.38-29.33,30.24-19.67,5.86,9.65,7.65,20.6,6.8,23.02,4.76-11.01,9.51-37.06-1.75-46.79-11.27-9.73-35.31-10.89-38.37-4.72-3.06,6.17-13.61,32.19,3.08,48.16Z"/><path class="h" d="M2217.92,1598.86c-9.9-20.15-53.46-71.08-104.97-122.61l-2.52-2.52-3.25,1.46c-34.55,15.57-69.22,42.8-97.61,76.68-29.6,35.32-50.27,74.75-59.77,114.01l-.85,3.52,3.02,2c64.32,42.5,127.23,73.67,148.9,82.79-8.72,16.62-19.75,57.53-17.11,78.15,3.5,27.37,11.99,56.98,68,63.27,7.08,15.32,30.55,33.14,60.05,29.36,5.7-.73,11.47-2.23,17.18-4.48,6.21,2.1,16.29,1.87,23.78,.91,9.09-1.16,29.95-5.38,36.33-19.82,19.16-5.65,44.62-21.96,47.02-40.01,18.17-15.92,29.81-35.12,33.7-55.65,3.74-19.75,.32-39.72-9.91-57.74-20.34-35.84-74.83-104.95-141.98-149.32Zm109.88,256.25l-1.13,1.51-.69,2.35c-.18,12.34-23.28,28.64-42.06,33.33l-2.91,.72-.81,2.89c-2.49,8.85-16.48,13.69-28.74,15.26-10.77,1.38-18.23,.21-19.83-.72l-2.24-1.31-2.38,1.01c-5.51,2.34-11.06,3.88-16.51,4.58-26.99,3.46-46.7-14.47-50.16-25.48l-1.03-3.27-3.42-.32c-55.57-5.21-59.23-33.77-61.9-54.63-2.99-23.32,13.08-70.48,17.91-75.31l7.82-6.01-9.5-2.95c-9.73-3.03-78.53-35.42-149.52-81.96,18.96-72.77,80.15-146.92,147.48-178.7,50.07,50.33,93.23,100.89,100.96,118.36l.62,1.39,1.28,.84c66.18,43.34,119.92,111.41,139.89,146.59,15.24,26.85,17.17,67.7-23.13,101.84Z"/></g><g><path class="k" d="M1911.45,1636.63c14.15,10.62,28.77,20.82,43.36,30.46,19.31-79.8,85.76-156.23,154.48-187.2-12.8-12.8-26.16-25.72-39.74-38.33-71.44,31.23-140.93,111.99-158.11,195.06Z"/><path class="ah" d="M2069.45,1441.46c-18.73,7.37-38.44,13.21-51.9,27.89,14.25,12.37,28.29,25.77,41.61,39.73,14.44-13.8,33.86-18.71,50.8-28.53-13.03-13.05-26.65-26.23-40.5-39.09Z"/><path class="i" d="M2073.07,1437.78l-2.48-2.3-3.1,1.35c-36,15.74-71.98,43.98-101.32,79.53-30.23,36.63-51.46,78.97-59.78,119.21l-.66,3.21,2.62,1.97c13.48,10.12,28.15,20.43,43.62,30.64l6.13,4.05,1.73-7.14c18.16-75.05,81.91-152.31,151.59-183.7l6.81-3.07-5.28-5.28c-13.23-13.23-26.64-26.17-39.87-38.46Zm-63.5,114.08c-27.82,33.19-47.75,70.01-57.93,106.91-12.09-8.12-23.64-16.27-34.45-24.3,17.11-76.59,80.01-154.21,151.36-186.8,10.59,9.89,21.29,20.18,31.9,30.7-32.3,15.95-64.33,41.82-90.88,73.5Z"/></g></g><path class="h" d="M2316.54,1794.48c1.12,.67,4.99,3.88,8,17.14,4.88,21.49,3.16,48.79-1.65,56.06l8.87,4.65c6.18-9.32,7.78-31.79,4.92-51-3.83-25.72-20.13-26.86-20.13-26.86Z"/><path class="h" d="M2240.65,1846.65c2.85,7.75-2.32,40.77-12.23,58.37-4.21,7.48-7.36,8.81-8.51,9.04l.48,2.46,14.06-1.75c1.01-1.41,2.11-2.91,2.97-4.68,18.96-38.96,3.24-63.43,3.24-63.43Z"/><path class="h" d="M2285.28,1827.86c4.4,15.94,2.93,65.08-11.53,76.25l7.21,6.45c5.06-2.78,9.3-8.91,11.35-17.11,9.18-36.83-7.02-65.59-7.02-65.59Z"/><path class="h" d="M2165.65,1804.55c-8.06-2.91-16.69-2.1-24.96,2.34-8.18,4.4-13.37,14.21-13.29,27.66,.13,23.59,19.98,29.71,19.98,29.71-4.89-3.01-10.06-15.83-9.67-29.41,.28-9.45,3.14-16.33,7.86-18.87,5.7-3.06,11.27-3.64,16.56-1.73,7.55,2.73,14.23,10.47,18.81,21.79,2.34,5.8,1.93,12.42-1.23,19.69-5.83,13.42-19.42,25.33-29.19,29.09l3.7,9.63c11.59-4.46,27.78-18.1,34.95-34.61,4.24-9.76,4.7-19.33,1.34-27.67-5.69-14.08-14.52-23.9-24.87-27.64Z"/></g><g><g><path class="y" d="M1480.2,1389.55c-45.6,35.12-60.8,110.45-70.75,187.87-9.27,72.11-78.47,109.48-114.54,98.69-8.33-2.49-16.36-8.73-23.52-17.96-18.66-24.09-31.39-68.59-28.12-120.49,.22-3.53,.52-7.08,.89-10.68,1.15-11.06,3.02-22.42,5.72-33.94l65.02-98.7,12.99-.38,152.3-4.4Z"/><path class="s" d="M1327.9,1393.95l-83.24,132.23c.95,3.3,1.4,6.66,1.54,10.07,64.04-31.48,123-109.63,148.49-104.15,26.95,5.8-20.93,101.34-17.63,127.12-4.65-.91-21.36-20.99-22.41-24.66,8.05,34.24,6.63,130.58-83.26,123.58,7.16,9.23,15.18,15.47,23.52,17.96,36.07,10.79,105.28-26.58,114.54-98.69,9.95-77.42,29.94-161.16,79.03-193.17l-160.58,9.71Z"/><path class="h" d="M1404.33,1576.76c-4.26,33.18-22.79,62.65-50.83,80.87-19.91,12.93-41.79,18.11-57.11,13.53-30.87-9.24-63.16-84.53-41.48-176.95l-10.05-2.36c-21.57,91.91,8.4,177.17,48.57,189.2,7.03,2.11,15.12,2.54,23.69,1.45,13.54-1.74,28.3-7.31,42-16.21,30.59-19.87,50.8-52.02,55.45-88.21,9.74-75.78,24.81-150.58,68.78-184.45,0,0-23.25,5.23-36.34,26.48-24.87,40.36-35.19,98.39-42.67,156.66Z"/></g><g><circle class="ai" cx="1324.27" cy="1608.95" r="33.07" transform="translate(-569.68 2478.07) rotate(-75.19)"/><path class="am" d="M1325.13,1578.01c-19.65,15.81-22,51.66,5.59,61.72-29.87-.8-37.68-18.88-39.15-34.87-1.47-16,30.93-27.08,33.56-26.84Z"/><path class="w" d="M1319.42,1571.03c-20.91,2.68-35.74,21.86-33.06,42.77,2.68,20.91,21.86,35.74,42.77,33.06,20.91-2.68,35.74-21.86,33.06-42.77-2.68-20.91-21.86-35.74-42.77-33.06Zm8.4,65.6c-15.26,1.95-29.27-8.87-31.22-24.13-1.95-15.26,8.87-29.27,24.14-31.22,15.26-1.95,29.27,8.87,31.22,24.14,1.95,15.26-8.87,29.27-24.13,31.22Z"/></g></g><g><g><path class="au" d="M1949.88,2006.22h-.01c-24.06,51.66-54.59,103.89-85.13,141.09-93.36,113.7-219.65,180.74-281.41,174-40.84-7.37-98.49-61.54-122.11-103.78l13.85,7.14,23.75,14.53c43.5-9.42,124.93-24.24,239.46-140.44,43.96-44.59,76.17-90.8,99.22-134.17,46.72-87.87,55.81-164.07,48.68-191.54,11.58,6.23,78.39,22.33,105.8,55.82,16.6,20.27-5.17,98.14-42.1,177.36Z"/><path class="aj" d="M1949.88,2006.22h-.01c-2.12,1.23-4.28,2.25-6.47,3.06,35.98-105.9-42.42-119.13-105.9-44.7,46.72-87.87,55.81-164.07,48.68-191.54,11.58,6.23,78.39,22.33,105.8,55.82,16.6,20.27-5.17,98.14-42.1,177.36Z"/><path class="as" d="M1995.98,1825.6c-21.98-26.85-67.73-42.83-92.32-51.41-6.82-2.38-12.71-4.44-15.04-5.69l-10.4-5.59,2.97,11.43c5.11,19.68,1.05,67.05-19.93,124.56-17.89,49.05-54.39,122.9-126.65,196.22-114.85,116.52-201.65,135.64-242.56,144.51,0,0,37.07,2.22,60.74-6.44,46.86-17.14,111.43-51.94,189.18-130.82,73.57-74.64,110.76-149.92,129-199.93,19.09-52.33,24.59-96.26,21.9-121.12,2.19,.79,4.67,1.66,7.42,2.61,23.62,8.25,67.59,23.6,87.73,48.2,23.29,28.45-46.43,213.46-127.25,311.9-42.81,52.14-96.51,98.67-151.19,131-49.68,29.37-95.41,44.37-125.49,41.17-19.68-3.62-45.71-19.49-71.47-43.58-16.38-15.33-30.95-32.53-41.24-48.34l-17.49-9.59c10.27,20.41,29.04,44.29,51.67,65.46,27.25,25.49,55.26,42.34,76.86,46.24l.36,.05c7.38,.81,15.59,.62,24.48-.52,29.97-3.84,67.72-18.45,107.56-42,55.69-32.93,110.35-80.28,153.91-133.33,36.32-44.24,76.07-114.5,103.73-183.37,13.8-34.36,43.72-116.94,23.53-141.62Z"/><path class="m" d="M1441.73,2201.64l-3.22,9.85c18.67,10.67,36.98,20.05,54.77,28.05l19.1-2.98c-23.18-9.49-46.85-21.27-70.65-34.92Z"/><path class="as" d="M1492.03,2239.64s32.93,1.96,56.53-5.06l-6.03-8.66c-20.86,7.26-37.87,10.98-50.5,13.71Z"/></g><g><g><path class="ai" d="M1740.2,2079.24l-140.6,98.36s-11.09,26.28-10.58,30.26c3.03,14.64,70.73,82.86,113.82,80.81,47.46-17.64,129.16-92.85,145.88-115.8,2.3-7.62,2.99-24.25-1.22-27.59-25.08-19.92-107.31-66.03-107.31-66.03Z"/><path class="ac" d="M1740.31,2081.54l-4.93,25.1s97.72,55.51,108.75,66.43c7.29-3.25,5.1-23.39,3.38-27.8-1.72-4.4-107.21-63.74-107.21-63.74Z"/><path class="an" d="M1741.22,2082.29l-5.93,25.14-144.34,98.84s4.71-26.42,6.08-27.76c1.37-1.33,144.19-96.22,144.19-96.22Z"/><path class="w" d="M1742.73,2074.74l-2.83-1.59-144.47,101.07-.58,1.37c-7.72,18.29-11.4,29.36-10.94,32.92l.07,.39c3.63,17.52,73.5,87.09,119.12,84.92l.8-.04,.75-.28c47.78-17.76,130.66-93.44,148.25-117.6l.52-.71,.25-.84c1.59-5.26,4.89-26.9-2.95-33.12-25.12-19.95-104.62-64.6-107.99-66.49Zm101.3,95.81c-17.65,23.46-97.26,95.8-142.2,112.98-16.95,.41-41.52-11.57-67.63-33.01-23.8-19.54-38.25-38-39.98-43.25,.5-3.32,5.15-15.71,9.58-26.31l136.71-95.64c14.6,8.25,81.6,46.42,103.64,63.86,1.61,2.47,1.76,14.24-.12,21.37Z"/></g><path class="w" d="M1851.78,2172.75c-5.93-8.45-94.45-61.76-111.77-69.42l-3.43-1.52-2.5,2.8c-11.26,12.6-102.18,70.37-145.56,97.38l2.61,10.53c25.02-15.56,125.83-78.64,147.84-98.29,24.99,12.22,99.39,58.62,104.46,64.56-.04-.04-.06-.08-.09-.12l8.45-5.93Z"/><g><path class="ai" d="M1699.64,2136.61c-38.12,25.82-92.56,59.9-110.61,71.14,0,.03,0,.08,0,.11,3.03,14.64,70.73,82.86,113.82,80.81,25.09-9.32,59.74-34.73,89.31-60.01-45.14,5.03-99.04-6.96-99.04-6.96l6.52-85.09Z"/><path class="am" d="M1659.18,2176.32s-58.6,32.94-55.79,36.82c2.81,3.88,32.58,34.75,44.27,41.73-12.1-19.26-19.84-55.65,11.52-78.55Z"/><path class="w" d="M1698.62,2217.55l6.99-91.21-8.86,6c-38.44,26.03-94.26,60.95-110.45,71.03l-2.65,1.65,.22,2.96v.21l.11,.71c3.63,17.52,73.5,87.09,119.12,84.92l.8-.04,.75-.28c30.16-11.21,69.87-42.98,90.86-60.92l12.77-10.91-16.69,1.86c-36.43,4.06-79.35-3.33-92.97-5.98Zm3.21,65.99c-16.95,.41-41.52-11.57-67.63-33.01-20.84-17.11-34.51-33.38-38.75-40.7,18.23-11.38,63.1-39.54,98.24-63l-6.05,78.93,4.37,.97c1.97,.44,43.59,9.56,84.61,8.19-29.61,24.14-56.34,41.56-74.78,48.61Z"/></g></g></g></g><g><g><path class="v" d="M440.5,1130.98s-117.16-97.39-127.9,2.19c-10.74,99.58,83.55,190.59,150.38,158.58-6.03-42.21-22.48-160.77-22.48-160.77Z"/><path class="av" d="M462.98,1291.75c-6.03-42.21-22.48-160.77-22.48-160.77,0,0-90.17-74.95-119.55-26.09,68.77-11.3,95.78,73.18,85.05,129.97-3.14,16.61-12.26,36.18-29.72,42.27,27.45,20.22,59.36,27.71,86.69,14.62Z"/><path class="g" d="M393.96,1151.6c-14.77-15.8-27.83-23.28-37.47-20.42-19.95,5.92-18.96,28.8-19,28.97,0,0-6.12-30.35,16.84-37.57,13.03-4.1,28.75,4.4,46.11,22.96l-6.48,6.05Z"/><path class="g" d="M359.55,1176.58c-.1-.95-2.23-23.47,9.85-34.59,5.77-5.31,13.55-7.11,23.11-5.34l-1.61,8.72c-6.76-1.25-11.69-1.38-16.12,.85-12.26,6.17-15.22,30.36-15.22,30.36Z"/><path class="g" d="M439.85,1302.47h-.01c-28.18,2.24-59.07-11.62-84.75-38.04-34.44-35.42-51.96-84.66-46.89-131.74,4.09-37.94,23.52-47.39,39.1-48.63,39.42-3.14,93.75,41.6,96.04,43.51l1.32,1.1,.24,1.7c.16,1.19,16.51,119.03,22.47,160.75l.46,3.22-2.93,1.4c-7.85,3.76-16.28,6.02-25.05,6.72Zm-91.84-209.57c-18.05,1.44-28.19,14.77-30.99,40.74-4.8,44.48,11.81,91.06,44.43,124.6,23.84,24.51,52.15,37.41,77.69,35.38h.01c6.59-.53,12.96-2.06,18.98-4.56-5.88-41.28-19.76-141.31-21.76-155.74-8.45-6.74-55.67-43.03-88.35-40.43Z"/></g><g><g><path class="l" d="M1556.9,887.01c4.1,14.26,36.37,273.85-154.3,369.65-3.19,1.61-6.46,3.17-9.79,4.69l-958.86,47.52c-4.81-182.06-117.73-269.34-150.09-386.59-32.36-117.25-16.59-219.86,66.16-277.86,82.75-58,266.79-254.99,517.99-351.9,132.8-51.24,259.58-33.52,359.04,4.47,88.67,33.86,155.64,83.82,185.83,115.37,205.38-102.6,230.05,108.13,186.09,153.06-8.46-93.14-118.87-79.58-142.85-59.17,70.75,19.84,106.44,226.27,111.08,280.6,4.64,54.32,51.64,96.29,113.53,123.62-57.88,3.94-114.1-6.2-123.82-23.45Z"/><path class="o" d="M336.51,692.38c-101.72,90.49-37.32,268.38,32.5,353.09-57.15-130.27-92.8-255.19-32.5-353.09Z"/><path class="at" d="M1556.9,887.01c4.1,14.26,36.37,273.85-154.3,369.65-6.66-13.36-12.94-31.24-18.15-55.06-25.02-114.15-12.59-333.1-15.03-388.28-5.25,4.14-32.29,45.76-29.24,69.64-22.74-42.18-31.12-179.84-75.22-181.13,27.7-51.82,.31-289.55-37.91-404.85,88.67,33.86,155.64,83.82,185.83,115.37,205.38-102.6,230.05,108.13,186.09,153.06-8.46-93.14-118.87-79.58-142.85-59.17,70.75,19.84,106.44,226.27,111.08,280.6,4.64,54.32,51.64,96.29,113.53,123.62-57.88,3.94-114.1-6.2-123.82-23.45Z"/><path class="l" d="M1415.23,436.71c45.29-43.57,140.49-46.51,164.54,2.83-21.66-12.64-69.24-5.01-71.79-.83,49.21-.91,66.01,33.94,68.59,42.09-68.44-22.84-130.12-4.92-132.86-2.26,13.98-17.21,76.11-28.63,86.71-21.12-20.58-16.25-71.72-9.32-75.07-5.42,15.48-23.56,68.22-36.1,83.93-30.79-10.08-9.5-85.55-6-124.04,15.5Z"/><path class="ap" d="M1682.81,905.74c-67.2-29.68-106.43-72.07-110.47-119.34-2.47-28.94-12.76-93.91-30.95-154.28-20.97-69.6-45.77-112.17-73.84-126.83,17.94-8.27,53.75-13.75,83.21-1.73,25.77,10.52,40.26,31.49,43.06,62.32l1.01,11.13,7.82-7.99c25.93-26.51,28.62-101.56-5.32-148.13-21.03-28.86-72.72-68.8-183.38-14.84-35.21-35.61-107.88-87.3-201.65-119.95-53.92-18.77-108.45-28.98-162.07-30.33-63.12-1.59-125.05,9.14-184.09,31.92-189.59,73.14-340.01,202.12-439.55,287.47-33.07,28.35-59.19,50.75-79.55,65.02-41.05,28.77-67.4,69.09-78.33,119.85-10.18,47.26-6.76,102.31,10.16,163.61,12.3,44.58,35.9,84.6,60.89,126.96,40.33,68.38,86.04,145.87,89.01,258.39l10.32-.27c-3.05-115.19-49.48-193.91-90.44-263.37-24.63-41.76-47.89-81.2-59.83-124.46-33.89-122.82-11.11-219.51,64.15-272.26,20.77-14.56,47.06-37.1,80.34-65.64,99-84.89,248.61-213.17,436.54-285.67,134.58-51.92,258.66-29.46,339.05-1.47,94.45,32.89,166.9,85.23,200.23,120.06l2.63,2.75,3.4-1.7c43.22-21.59,80.93-30.44,112.1-26.31,25.88,3.43,46.64,15.65,61.71,36.32,28.58,39.21,27.86,97.06,13.19,125.02-7.27-34.51-29.29-50.55-47.52-57.99-38.02-15.52-85.74-5.44-101.89,8.31l-6.76,5.4s14.59,5.52,17.43,7.06c59.29,32.02,93.35,210.87,98.61,272.5,3.97,46.46,38.43,88.16,97.67,118.86-40.24,.45-73.75-5.94-89.54-14.34-1.51-.8-11.78-6.25-12.95-7.09l-5.17,4.22c2.11,8.85,10.82,76.95-5.12,155.27-14.47,71.07-53.33,165.61-156.28,212.46l4.27,9.39c47.01-21.39,85.17-54.03,113.43-97,22.76-34.62,39.14-75.93,48.68-122.79,12.79-62.83,9.93-119.82,7.03-146.02,23.67,13.63,73.64,18.33,116.99,15.37l20.86-1.42-19.12-8.45Z"/></g><path class="ap" d="M1397.38,496.57c-29.57,4.69-39.32,27.75-39.32,27.75,4.32-6.16,18.66-13.97,40.96-17.56,28.13-4.52,54.73,.08,71.15,12.31l3.32-4.46-8.93-10.8c-18.14-8.53-42.22-11.2-67.18-7.24Z"/><path class="ap" d="M1480.53,793.76s-2.23,30.18,30.85,66.15c19.86,21.59,45.91,40.38,71.66,47.82l2.86-9.92c-49.12-14.19-101.48-79.31-105.38-104.05Z"/></g><g><path class="v" d="M1415.31,1316.15c-22.6,148.58-302.59,318.55-541.82,328.36-35.23,1.45-68.6-1.04-100-6.59-181.77-32.13-297.31-166.97-324.52-235.8-24.33-61.53-25.88-134.03-26.51-199-.19-20.25-.31-39.76-1-57.98-1.12-29.95-6.79-62.26-14.35-95.39-11.81-51.71-28.25-105.39-39.31-155.18-18.18-81.67-17.48-196.62,24.16-256.68l29.01-7.24,750.75-187.41,221.25,355.51s37.32,418.81,22.33,517.41Z"/><path class="av" d="M1392.99,798.74s37.31,418.8,22.32,517.41c-22.6,148.57-302.59,318.54-541.81,328.36-35.23,1.45-68.6-1.04-100-6.6,138.94,7.56,319.26-55.29,453.73-166.34,161.54-133.41,103.44-370.49,37.08-441.77-66.36-71.27-93.34-222.3-108.15-274.74-14.38-3.94-99.77-20.75-143.22-89.18-65.64,74.31-317.17,105.36-391.89,45.56-22.99,19.13-136.24,55.6-224.76-3.59l24.68-77.21,750.75-187.41,221.26,355.51Z"/><g><path class="a`" d="M1111.48,1204c.31,3.93,3.76,6.87,7.69,6.55,3.93-.31,6.87-3.76,6.55-7.69-.31-3.93-3.76-6.87-7.69-6.55-3.93,.31-6.87,3.76-6.55,7.69Z"/><path class="a`" d="M1051.81,1251.03c.25,3.15,3,5.49,6.15,5.24,3.15-.25,5.49-3,5.24-6.15-.25-3.15-3-5.49-6.15-5.24-3.15,.25-5.49,3-5.24,6.15Z"/><path class="a`" d="M1007.05,1219.85c.31,3.93,3.76,6.87,7.69,6.55,3.93-.31,6.87-3.76,6.55-7.69-.31-3.93-3.76-6.87-7.69-6.55-3.93,.31-6.87,3.76-6.55,7.69Z"/><path class="a`" d="M1053.12,1217.97c.19,2.36,2.25,4.12,4.61,3.93,2.36-.19,4.12-2.25,3.93-4.61-.19-2.36-2.25-4.12-4.61-3.93-2.36,.19-4.12,2.25-3.93,4.61Z"/><path class="a`" d="M1090.97,1234.3c.19,2.36,2.25,4.12,4.61,3.93,2.36-.19,4.12-2.25,3.93-4.61-.19-2.36-2.25-4.12-4.61-3.93-2.36,.19-4.12,2.25-3.93,4.61Z"/><path class="a`" d="M1073.02,1193.45c.25,3.15,3,5.49,6.15,5.24,3.15-.25,5.49-3,5.24-6.15-.25-3.15-3-5.49-6.15-5.24-3.15,.25-5.49,3-5.24,6.15Z"/></g><g><path class="a`" d="M473.25,1252.01c.31,3.93-2.62,7.37-6.55,7.69-3.93,.31-7.37-2.62-7.69-6.55-.31-3.93,2.62-7.37,6.55-7.69,3.93-.31,7.37,2.62,7.69,6.55Z"/><path class="a`" d="M521.81,1249.93c.25,3.15-2.1,5.9-5.24,6.15-3.15,.25-5.9-2.1-6.15-5.24-.25-3.15,2.1-5.9,5.24-6.15,3.15-.25,5.9,2.1,6.15,5.24Z"/><path class="a`" d="M578.88,1251.11c.31,3.93-2.62,7.37-6.55,7.69-3.93,.31-7.37-2.62-7.69-6.55-.31-3.93,2.62-7.38,6.55-7.69,3.93-.31,7.37,2.62,7.69,6.55Z"/><path class="a`" d="M552.31,1272.94c.19,2.36-1.57,4.42-3.93,4.61-2.36,.19-4.42-1.57-4.61-3.93-.19-2.36,1.57-4.42,3.93-4.61,2.36-.19,4.42,1.57,4.61,3.93Z"/><path class="a`" d="M490.84,1292.88c.19,2.36-1.57,4.42-3.93,4.61-2.36,.19-4.42-1.57-4.61-3.93-.19-2.36,1.57-4.42,3.93-4.61,2.36-.19,4.42,1.57,4.61,3.93Z"/><path class="a`" d="M515.7,1276.57c.25,3.15-2.1,5.9-5.24,6.15-3.15,.25-5.9-2.1-6.15-5.24-.25-3.15,2.1-5.9,5.24-6.15,3.15-.25,5.9,2.1,6.15,5.24Z"/></g><ellipse class="q" cx="1079.55" cy="1235.04" rx="132.86" ry="81.43" transform="translate(-174.18 177.25) rotate(-8.69)"/><ellipse class="p" cx="539.32" cy="1283.16" rx="81.43" ry="115.66" transform="translate(-786.83 1705.87) rotate(-84.88)"/><path class="g" d="M388.83,633.34l-1.11,1.6c-43.15,62.24-43.19,178.79-24.97,260.74,5.7,25.65,12.96,52.83,19.98,79.12,15.54,58.2,31.6,118.38,33.57,170.52,.6,15.94,.76,32.72,.92,50.5,.63,67.24,1.34,143.46,26.95,208.21,15.22,38.49,60.06,102.82,136.31,157.44,60.39,43.25,160.28,93.67,293.22,88.21,16.47-.68,33.54-2.14,50.73-4.34h.04c109.53-14.03,227.99-58.45,324.97-121.85,98.48-64.39,160.79-139.67,170.96-206.55,14.92-98.1-20.76-501.52-22.28-518.65l-.11-1.23-223.9-359.75-785.29,196.03Zm1021.38,682.03c-9.73,63.98-70.39,136.68-166.41,199.46-95.72,62.59-212.58,106.41-320.63,120.25h-.04c-16.9,2.17-33.67,3.6-49.85,4.27-130,5.34-227.71-43.98-286.78-86.29-74.43-53.31-118.02-115.65-132.72-152.84-24.9-62.96-25.6-138.16-26.22-204.51-.17-17.85-.33-34.7-.93-50.79-2-53.3-18.22-114.05-33.91-172.79-6.99-26.19-14.22-53.26-19.88-78.7-9.41-42.32-13.14-91.52-10.23-134.99,3.29-49.1,14.52-89.17,32.52-116.04l774.21-193.27,218.62,351.28c2.21,25.13,36.59,420.69,22.25,514.96Z"/></g><g><g><path class="av" d="M1524.73,956.54c-78.4-85.59-154.54,54.36-158.75,105.7l16.86,92.99c118.21,24.97,210.74-123.53,141.89-198.69Z"/><path class="g" d="M1411.44,1160.16c-12.03,.96-23.12,.06-34.46-4.52,0,0,95.5,7.81,149.23-74.27,21.91-33.47,29-84.99-4.75-121.84-21.72-23.71-44.13-31.62-66.79-24.07-53.49,17.82-89.87,130.57-89.87,130.57,1.97-36.62,34.93-119.75,87-138.96,17.89-6.6,45.91-6.6,76.2,26.46,30.93,33.77,33.2,84.43,5.91,132.22-21.73,38.06-71.46,70.32-122.48,74.39Z"/></g><path class="g" d="M1506.18,1042.91c7.05-30.36-7.87-55.27-28.84-63-29.24-10.79-66.11,40.81-87.28,96.13,0,0,13.91-59.81,48.5-94,16.01-15.82,32.41-14.63,41.66-10.51,45.9,20.43,28.41,71.22,25.96,71.39Z"/><path class="g" d="M1408.56,1034.75l.79-10.23c18.21-17.81,35.96-28.66,51.58-24.93,20.22,4.83,23.9,21.14,23.9,21.14-.28-.36-5.69-11.58-24.25-14.08-17.98-2.42-35.79,12.22-52.02,28.09Z"/></g><path class="l" d="M1287.61,601.81l25.14,19.65,55.36,43.26c41.49,47.11,105.32,208.5,105.32,208.5-102.86,39.38-91.44,291.12-88.98,328.38-8.3-15.12-13.46-28.34-28.23-94.08-14.78-65.74-57.27-99.61-95.6-146.15-37.55-45.59-69.09-182.89-59.26-250.22,.09-.61,.19-1.23,.29-1.83-36.07,.34-77.23-6.73-112.28-23.57-32.14-15.42-59.16-39.09-72.42-72.78-13.55,22.52-58.81,71.02-168.84,91.75-16.38,3.09-34.2,5.57-53.56,7.25-12.22,1.06-24.01,1.57-35.34,1.58-63.24,.05-112.4-15.6-146.63-39.44-43.03,36.15-96.56,53.93-143.57,55.9-38.36,1.61-72.38-7.31-92.77-25.37-45.64-40.4-98.1-125.02-19.23-294.67,62.99-135.51,214.08-222.55,304.29-247.94,22.72-6.39,41.58-8.87,54.2-7.23-29.02,15.34-71.17,98.68-88.71,161.95,3.49-6.45,7.12-12.77,10.84-19C760.25,93.57,1009.81,8.58,1101.09,5.26c2.26-.08,4.4-.11,6.45-.1-148.87,101.64-130.81,329.57-89.76,381.21,2.59,3.26,5.28,5.82,8.01,7.6,73.79-215.74,303.83-275.43,404.02-258.17,1.64,.28,3.24,.58,4.81,.9-9.67,5.08-18.8,11.38-27.4,18.77-119.35,102.16-138.91,407.83-119.6,446.33Z"/><path class="o" d="M548.02,230.18c-95.16,69.41-290.4,243.38-164.18,452.67-2.53-37.83-5.32-113.78,10.52-143.56,14.95,53.58,22.17,137.06,87.21,148.38-51.58-122.89,8.9-210.4,12.57-217.81-24.59,6.62-64.54,91.89-63.78,106.83-22.38-156.68,88.07-260.24,88.07-260.24-67,45.58-136.29,181.63-139.16,222.46-20.11-66.79,67.38-225.63,168.73-308.74Z"/><path class="o" d="M894.31,90.46c-339.2,179.68-374.68,486.72-237.86,580.18-21.51-59.67-3.6-204.17,35.56-236.93-5,109.89,20.65,269.62,140.97,193.52-75.11-4.26-72.34-145.08-61.74-170.71,27.34,10.37,46.1,75.6,42.51,88.2,52.47-77.82,70.03-197.99,52.84-237.41-5.21,40.55-28.75,136.28-39.69,153.09-27.02-30.45-71.35-45.59-71.35-45.59-7.66,6.38-7.29,129.65-6.65,152.69-43.64-69.95-4.42-209.08,2.95-217.74-42.92,13.97-97.79,54.91-132.34,170.33,27.57-260.2,218.94-396.1,274.82-429.65Z"/><path class="o" d="M1305.43,159.21c-180.12,56.01-354.93,315.98-226.16,495.45-2.75-62.08-6.8-134.39,22.51-176.3-4.12,49.08,45.57,112.09,53.92,123.16-48.71-163.71-28.03-333.78,149.73-442.31Z"/><path class="at" d="M1312.75,621.46l-25.14-19.65c-.47-.94-.92-2.05-1.35-3.3-3.56,5.01-6.82,10.23-10.05,15.49,.37,40.37-2.99,72.38-11.26,87.84,44.1,1.29,52.48,138.96,75.22,181.13-3.06-23.89,23.98-65.5,29.24-69.64,2.44,55.18-9.99,274.13,15.03,388.28-2.46-37.26-13.88-289,88.98-328.38,0,0-63.83-161.39-105.32-208.5l-55.36-43.26Z"/><path class="l" d="M1378.68,533.5c93.63-36.27,144.36,89.04,149.6,175.08-13.88-27.13-45.58-67-53.69-67.12-3.36,64.02,16.72,121.57,32.29,143.85-36.63-24.21-59.25-74.5-61.59-92.7-11.73,25.78,5.38,132.27-7.93,154.78-14.1-101.09-62.3-188.57-75.57-201.9,38.41,2.02,54.85,53.67,56.6,67.32,4.74-30.67,6.87-81.81,18.35-96,1.34,19.48,20.04,66.23,24.98,77.73-13.64-43.34-.06-90.75,.07-94.24,6.69,2.61,27.67,26.52,29.12,33.27-4.09-36.47-45.25-100.57-112.25-100.09Z"/><path class="at" d="M1290.54,597.58l22.22,23.88c-13.94,37.82-30.66,69.08-49.97,81.42-15.24,5.78-37.61,8.19-61.42,8.26-57.68,.19-123.7-13.4-116.63-26.32,1.45,.37,3,.68,4.64,.92,50.61,7.73,187.46-41.25,155.25-94.61-33.26-55.09-3.83-240.57,40.77-285.01-6.82,.87-37.92,19.89-56.63,40.78,37.52-103.93,125.01-180.1,201.05-211.09,1.64,.28,3.24,.58,4.81,.9-143.72,75.44-164.79,419.59-144.08,460.87Z"/><path class="at" d="M1022.08,394.17c-20.39,102.62-9.21,175.76-7.11,193.68,0,0,1.04,11.74,1.64,22.45-42.67,53.2-110.18,81.45-168.5,94.41-35.67,7.94-67.9,10.15-88.9,8.83-5.1-.31-9.55-.83-13.21-1.53,156.39-24.65,242.54-200.62,233.27-224.87-3.76,12.81-27.35,51.29-69.41,65.92,63.05-67.42,28.95-309.71,53.09-355.96-6.24,5.42-38.2,38.8-58.72,89.22,2.93-96.36,70.77-221.62,196.87-281.07,2.26-.08,4.4-.11,6.45-.1-148.87,101.64-130.95,327.2-85.46,389.01Z"/><path class="at" d="M626.78,316.75c3.49-6.45,1.42-6.29,5.14-12.51-63.22,135.46-68.94,254.3-72.77,272.92-3.93,17.46,13.51,75.35,53.42,96.95-26.52,31.72-96.81,55.83-143.57,55.9-3.69,0-7.22-.14-10.58-.44,10.62-1.36,116.84-26.52,77.5-87.01-39.34-60.48,7.03-215.95,21.76-269.48-7.1,4.77-36.09,43.17-44.54,73.54-5.66-91.33,85.87-236.3,157.95-287.88,22.72-6.39,31.77-5.59,44.39-3.95-29.02,15.34-71.17,98.68-88.71,161.95Z"/><path class="ap" d="M1437.02,141.28l12.79-6.71-14.14-2.91c-65.61-13.52-181.1,7.59-274.86,74.08-41.36,29.33-75.61,65.22-101.79,106.67-14.31,22.65-26.15,46.95-35.52,72.72-14.47-16.03-28.63-59.78-29.51-119.28-.61-41.08,5.97-180.98,116.48-256.42l13.6-9.29-16.47-.13c-28.34-.23-70.7,8.27-116.22,23.33-38.01,12.57-96.53,35.84-159.46,75.27-60.06,37.63-131.05,94.49-185.07,175.04,2.02-5.12,4.15-10.3,6.41-15.54,21.87-50.78,47.25-89.54,64.67-98.74l14.36-7.59-16.1-2.09c-16.71-2.17-42.89,2.37-73.7,12.8-33.06,11.19-68.62,28.07-102.83,48.81-49.9,30.25-140.6,96.01-187.31,196.5-76.91,165.46-31.31,254.85,20.49,300.71,23.55,20.84,64.88,30.42,110.56,25.63,1.82-.19,3.63-.4,5.44-.63,45.3-5.8,88.95-24.43,124.04-52.92,41.55,27.53,102.95,43.4,182.14,36.53,6.89-.6,13.59-1.32,20.11-2.16,72.17-9.24,121.46-32.16,150.88-50.56,23.08-14.44,40.13-29.83,51.82-43.68,14.2,27.46,33.15,48.5,57.41,63.86,31.09,19.67,71.42,30.07,120.37,31.12-3.5,31.84,.78,78.2,11.9,126.83,12.38,54.14,30.75,99.8,49.15,122.14,8.35,10.14,16.94,19.73,25.25,29.01,29.83,33.31,58.01,64.77,69.3,115,14.84,66,20.15,79.77,28.74,95.43l11.21,20.44-1.53-23.26c-.92-14.01-5.03-87.65,4.96-162.37,5.45-40.77,14.18-74.7,25.93-100.87,14.05-31.26,32.48-51.44,54.78-59.98,0,0-31.44,1.86-50.58,30.81-46.47,70.26-48.35,203.48-46.68,264.18-4.2-13.27-9.2-33-16.76-66.64-11.88-52.85-40.93-85.28-71.68-119.62-8.24-9.2-16.76-18.71-24.97-28.68-35.53-43.14-66.7-174.48-58.64-242.33,38.5-.18,58.17-14.4,58.17-14.4-179.75,23.02-228.29-53.75-249.15-113.5,0,0-4.78,16.61-1.99,22.79-28.12,35.99-94.31,80.63-199.36,94.08-6.36,.81-12.87,1.52-19.52,2.09-144.37,12.53-226.74-52.27-233.48-122.75,0,0-7.23,29.28,12.57,59.32,7.64,11.59,18.52,21.65,30.89,30.99-34.57,27.34-77.48,44.83-121.79,49.48-42.85,4.5-81.22-4.13-102.64-23.09-70.52-62.43-76.73-162.23-17.97-288.63,45.56-98.01,134.4-162.38,183.3-192.02,63.24-38.34,122.19-58.1,155.75-60.42-28.73,28-63.28,98.89-78.86,155.28-36.48,68.35-34.9,119.43-34.9,119.43,40.18-165.82,158.35-269.38,250.41-327.05,92.17-57.75,194.11-90.96,253.39-96.27-36.13,28.48-63.76,66.46-82.26,113.14-21.49,54.23-25.38,107.04-24.86,141.79,.9,60.41,15.56,112.5,36.09,129.88-13.15,45.94-7.67,79.53-7.67,79.53,18.67-138.51,94.43-218.53,154.7-261.26,54.69-38.78,110.04-57.29,146.84-65.98,38.49-9.09,76.23-12.09,106.09-8.62-28.96,19.17-54.54,50.56-76.2,93.52-20.48,40.63-37,90.4-49.09,147.93-11.39,54.16-17.75,108.69-18.32,150.88-.67,49.9,16.14,67.61,16.14,67.61-9.31-18.57-9.16-114.34,12.28-216.37,15.2-72.33,52.64-199.93,132.51-241.85Z"/><g><path class="f" d="M1088.57,1080.52c-3.54,82.16-107.16,147.25-194.76,153.84-87.6,6.59-123.38-20.03-144.54-31.78-17.12-9.5-57.56-18.28-92.51-1.59-8.27,3.96-16.25,9.32-23.52,16.44-2.08,2-4.17,3.89-6.26,5.71-10.6,9.28-21.24,16.46-31.74,21.89-76.43,39.63-153.74-15.46-161.23-27.41-2.72-4.33-6.97-9.04-11.55-14.52-.19-20.25-.31-39.76-1-57.98-1.12-29.95-6.79-62.26-14.35-95.39,1.46-.78,3.1-1.34,4.91-1.65,101.25-138.53,230.64-9.91,288.88-11,52.74-1,123.09-104.21,238.05-118.36,12.34-1.51,23.8-1.67,34.4-.65,88.2,8.46,117.99,98.14,115.22,162.44Z"/><path class="ab" d="M1088.58,1080.51c-3.55,82.16-107.17,147.26-194.77,153.85-87.6,6.59-123.39-20.04-144.54-31.78-17.11-9.5-57.56-18.27-92.51-1.59,25.38-18.82,49.99-36.31,63.51-39.79,26.86-6.91,76.67,47.99,145.97,56.46,69.3,8.47,158.93-31.91,188.58-107.39,27.87-70.95-14.98-167.57-81.46-192.2,88.2,8.46,118,98.15,115.22,162.44Z"/><path class="m" d="M537.24,1264.32c-55.1,0-101.19-33.72-107.61-43.96-1.93-3.08-4.83-6.5-8.18-10.45-.96-1.13-1.95-2.3-2.95-3.5l-1.18-1.41-.08-8.57c-.17-17.99-.32-34.98-.93-51.11-.98-26.21-5.5-56.22-14.22-94.44l-.88-3.84s41.25-67.54,123.39-68.42c41.54-.44,82.59,18.38,115.57,33.15,24.5,10.97,45.58,20.44,60.64,20.15,20.66-.39,46.05-19.04,75.44-40.64,42.06-30.9,94.39-69.36,162.08-77.69,12.38-1.52,24.35-1.75,35.53-.67,41.24,3.96,74.33,25.69,95.7,62.85,16.97,29.5,25.78,67.76,24.18,104.96-1.7,39.51-25.84,78.29-67.96,109.2-37.72,27.68-86.9,46.21-131.57,49.57-9.25,.7-18.31,1.05-26.92,1.05-62.98,0-95.18-18.76-114.42-29.96-2.17-1.26-4.19-2.44-6.1-3.5-8.59-4.77-25.89-10.33-46.36-10.33-15.14,0-29.08,2.99-41.42,8.88-8.22,3.93-15.66,9.14-22.13,15.47-1.94,1.86-4.04,3.79-6.48,5.91-10.44,9.14-21.46,16.74-32.77,22.59-18.81,9.76-39.13,14.7-60.37,14.71Zm-109.64-63.12c.58,.69,1.15,1.36,1.72,2.03,3.46,4.08,6.74,7.94,9.06,11.65,5.03,8.02,47.57,39.12,98.86,39.12,19.57,0,38.28-4.56,55.62-13.55,10.57-5.47,20.9-12.6,30.72-21.19,2.34-2.05,4.28-3.81,6.08-5.55,7.25-7.1,15.62-12.96,24.87-17.38,13.75-6.56,29.18-9.89,45.87-9.89,22.42,0,41.23,6.01,51.37,11.63,1.96,1.09,4.05,2.3,6.28,3.61,19.52,11.37,49.03,28.56,109.22,28.56,8.36,0,17.15-.34,26.14-1.02,42.82-3.22,90.01-21.02,126.24-47.6,39.55-29.02,62.19-65,63.75-101.32,2.18-50.45-18.13-148.22-110.56-157.08-10.44-1-21.65-.79-33.28,.64-65.01,8-116.14,45.57-157.23,75.76-30.81,22.64-57.41,42.18-81.35,42.64-17.34,.36-39.4-9.56-65.05-21.05-33.75-15.12-72.03-33.55-111.35-32.25-78.7,2.6-111.43,64.17-111.43,64.17,8.2,36.72,12.48,66,13.45,91.81,.61,16.27,.77,33.33,.94,51.4l.05,4.88Z"/></g><path class="l" d="M424.34,999.08c19.3-61.44,87.58-83.48,123.76-67.3-63.7-86.65-129.45-4.23-123.76,67.3Z"/><path class="l" d="M847.89,887.81c41.81-34.64,129.35-31.21,175.93,7.53-89.88-128.58-172.32-69.66-175.93-7.53Z"/><g><g><path class="av" d="M745.98,1533.52s50.17,39.79,103.89-8.42c-5.59,23.52-28.9,41.32-49.05,42.39-24.8,1.32-45.01-16.3-54.84-33.97Z"/><path class="g" d="M798.69,1553.89c-33.06,1.36-51.89-20.54-51.89-20.54,32.44,16.37,72.05,12.79,103.35-9.34,0,0-18.08,28.63-51.46,29.88Z"/></g><g><path class="k" d="M838.5,1175.71s-24.17-98.49,47.15-164.43c58.58-54.16,124.1-22.6,130.3,59.91,5.18,68.94-32.86,123.12-177.44,104.52Z"/><path class="ae" d="M885.64,1011.28c-71.31,65.94-47.15,164.43-47.15,164.43,4.49-27.93,9.01-46.31,15.51-66.09,20.31-61.9,74.51-108,126.03-82.77,26.76,13.76,36.59,67.98,21.08,103.44,4.68-14.11,17.64-24.02,14.83-59.1-6.6-82.47-71.72-114.07-130.3-59.91Z"/><g><g><ellipse class="ag" cx="930.34" cy="1103.9" rx="62" ry="69.84" transform="translate(-84.77 77.41) rotate(-4.56)"/><path class="af" d="M903.72,1064.38c-13.96,3.95-25.18,11.78-33.8,22.35,5.92-28.39,27.52-50.27,54.87-52.45,29.97-2.39,56.87,19.66,65.06,51.11-18.97-26.99-55.56-30.16-86.13-21.01Z"/><path class="aa" d="M957.71,1103.2s23.45,1.6,15,28.05c-8.45,26.45-44.95,39.61-69.02,21.03-24.07-18.57-16.2-43.16-3.72-44.81,12.48-1.66,57.75-4.27,57.75-4.27Z"/><path class="ad" d="M864.16,1109.17c-3.28-41.1,23.74-76.91,60.23-79.82,36.49-2.91,68.84,28.17,72.11,69.27,3.28,41.11-23.74,76.91-60.23,79.82-36.49,2.91-68.84-28.17-72.12-69.27Zm8.75-.7c2.84,35.67,30.92,62.64,62.58,60.12,31.67-2.52,55.11-33.6,52.27-69.27-2.84-35.67-30.92-62.64-62.58-60.12-31.67,2.52-55.11,33.6-52.27,69.27Z"/></g><path class="ao" d="M891.74,1109.12c1.84,23.12,19.98,40.54,40.51,38.91,20.53-1.64,35.67-21.71,33.83-44.83-1.84-23.12-19.98-40.54-40.5-38.91-20.53,1.64-35.67,21.71-33.83,44.83Z"/><path class="k" d="M920.45,1080.7c.74,9.29-5.34,17.35-13.58,18-8.24,.66-15.52-6.34-16.26-15.62-.74-9.29,5.34-17.35,13.58-18,8.24-.66,15.52,6.34,16.26,15.62Z"/><path class="k" d="M962.39,1132.57c.5,6.3-3.62,11.77-9.22,12.22-5.59,.45-10.53-4.3-11.04-10.6-.5-6.3,3.62-11.77,9.22-12.22,5.59-.45,10.53,4.3,11.04,10.6Z"/></g><path class="m" d="M837.9,1180.36l-3.19-.41-.77-3.13c-.25-1.04-6.19-25.76-3.29-59.02,2.69-30.81,13.87-74.9,51.8-109.98,18.09-16.72,37.85-26.37,57.15-27.91,17.82-1.42,34.48,4.03,48.19,15.77,18.73,16.04,30.39,42.73,32.83,75.14,5.08,67.56-31.91,106.43-106.96,112.42h-.01c-21.83,1.74-47.31,.77-75.74-2.89Zm50.93-165.64c-61.4,56.77-49.63,139.7-46.42,156.74,26.45,3.23,50.15,4.05,70.49,2.43h.01c69.95-5.58,103.04-40.02,98.35-102.36-2.25-29.91-12.75-54.31-29.58-68.72-11.77-10.08-26.06-14.76-41.34-13.54-17.18,1.37-35,10.17-51.52,25.45Z"/></g><path class="m" d="M1044.09,994.95s-58.51-69.45-135.16-40.45c-51.98,19.67-75.32,77.4-75.32,77.4,0,0,83.51-140.14,210.48-36.96Z"/><path class="m" d="M434.01,1090.41s9.37-99.07,101.24-88.82c67.42,7.52,83.78,61.01,83.78,61.01-20.33-49.4-149.55-99.53-185.01,27.82Z"/><g><path class="k" d="M625.89,1187.49s-2.7-117.67-64.29-153.25c-61.59-35.58-118.82,15.27-98.93,81.42,11.16,37.1,43.17,122.32,163.22,71.83Z"/><path class="ae" d="M561.6,1034.24c-28.14-16.26-67.94-16.54-92.22,15.83,20.37-17.74,54.29-17.2,68.11-6.62,43.76,32.32,82.93,89.48,38.34,136.6-35.37,10.31-69.89,7.29-94.71-21.41,21.09,33.96,62.01,63.66,144.78,28.85,0,0-2.7-117.67-64.29-153.25Z"/><g><g><ellipse class="ag" cx="561.91" cy="1133.29" rx="55.92" ry="65.86" transform="translate(-88.27 48.23) rotate(-4.56)"/><path class="af" d="M504.46,1123.37s50.67-56.86,105.96-14.71c-7.11-21.81-22.42-50.31-62.33-40.69-40.7,9.81-43.63,55.4-43.63,55.4Z"/><path class="ad" d="M567.5,1203.39c-33.19,2.65-62.7-26.65-65.78-65.3-3.08-38.65,21.42-72.25,54.61-74.9,33.19-2.65,62.7,26.65,65.78,65.3,3.08,38.65-21.42,72.25-54.61,74.9Zm-10.47-131.31c-28.29,2.25-49.11,31.54-46.42,65.29,2.69,33.75,27.89,59.37,56.18,57.12,28.29-2.25,49.11-31.55,46.42-65.29-2.69-33.75-27.89-59.37-56.18-57.11Z"/></g><path class="aa" d="M533.43,1147.92s-12.4-3.94-7.56,11.79c4.83,15.73,23.15,32.86,51.16,24.12,23.15-7.22,40.19-46.17,21.18-50.63-3.55,17.29-64.78,14.71-64.78,14.71Z"/><path class="ao" d="M529.3,1140.24c2.93,21.38,20.69,36.6,39.66,34,18.97-2.6,31.98-22.04,29.05-43.41-2.93-21.38-20.69-36.6-39.66-34-18.97,2.6-31.98,22.04-29.05,43.41Z"/><path class="k" d="M555.4,1110.63c.72,9.08-5.22,16.96-13.28,17.61-8.06,.64-15.18-6.2-15.91-15.28-.72-9.08,5.22-16.96,13.28-17.61,8.06-.64,15.18,6.2,15.91,15.28Z"/><path class="k" d="M596.41,1161.36c.49,6.16-3.54,11.51-9.01,11.95-5.47,.44-10.3-4.21-10.79-10.37-.49-6.16,3.54-11.51,9.01-11.95,5.47-.44,10.3,4.21,10.79,10.37Z"/></g><path class="m" d="M569.07,1207.12h-.01c-33.43,2.66-60.68-7.92-81-31.46-16.5-19.11-24.83-42.67-29.66-58.72-7.7-25.61-4.62-51.26,8.45-70.38,11.2-16.38,28.98-26.69,48.78-28.26,15.69-1.25,32.36,2.92,48.21,12.08,63.03,36.41,66.41,152.1,66.52,157.01l.07,3.04-2.8,1.18c-21.13,8.89-40.83,14.11-58.55,15.53Zm-52.74-179.93c-17.35,1.38-32.31,10.05-42.12,24.4-11.54,16.89-14.19,39.77-7.27,62.78,6.68,22.21,27,89.78,101.4,83.86h.01c15.98-1.27,33.77-5.87,52.94-13.67-.98-18.45-8.63-115.67-61.93-146.46-14.27-8.24-29.15-12.02-43.03-10.91Z"/></g><path class="v" d="M729.52,1212.43c-9.03-22.35-37.25-41.09-71.9-22.78-34.65,18.31-37.88,47.24-27.61,73.29,10.27,26.05,44.59,38.22,87.7,25.77,24.79-35.16,11.81-76.28,11.81-76.28Z"/><path class="av" d="M630.19,1255.04s40.79,58.67,86.65,3.84c35.17-42.04-16.04-75.4-16.04-75.4,17.8,7.54,56.27,49.62,44.06,85.34-7.55,22.1-15.09,30.94-39.79,35.78-24.69,4.83-61.56-12.65-74.89-49.57Z"/><path class="g" d="M696.98,1297.78c-12.42,.99-25.03,.14-36-3.03-29.82-8.62-44.1-31.33-40.19-63.95,3.28-27.39,23.25-48.36,50.8-53.84,45.88-9.12,58.9,36.53,58.9,36.53-11.09-20.32-33.41-30.52-56.87-26-18.23,3.51-38.89,17.07-42.18,44.59-4.11,34.34,15.42,47.44,32.53,52.38,33.2,9.59,75.22-4.19,81.75-17.95,0,0-10.42,26.02-48.73,31.27Z"/><g><path class="ak" d="M940.33,1295.03c-30.1,46.06-42.07,110.82-72.68,156.17-19.34,28.71-46.15,49.64-89.77,53.12-45.03,3.59-67.17-6.38-84.77-31.08-8.28-11.64-15.57-26.53-23.76-44.82-25.03-55.92-47.63-70.26-52.25-72.73,27.99,13.01,178.65,37.33,323.24-60.66Z"/><path class="ar" d="M849.04,1473.64c-14.94,8.39-33.43,14.06-53.72,15.68-53.11,4.23-98.4-20.88-101.21-56.08-2.8-35.18,37.94-67.15,91.05-71.38,52.72-4.2,97.77,20.54,101.15,55.33l-37.27,56.46Z"/><path class="u" d="M867.42,1455.15c-19.34,28.71-46.15,49.64-89.77,53.12-45.03,3.59-67.17-6.38-84.77-31.08-.75-1.85,1.8-7.04,6.64-13.26,14.62-18.64,49.93-46.22,77.97-18.34,44.34-30.88,72.19-25.58,87.14-1.16,.74,1.19,1.44,2.42,2.1,3.7,.4,2.05,.61,4.42,.69,7.02Z"/><path class="x" d="M864.64,1444.43c-16-17.13-46.16-20.74-74.25,1.1-18.3,14.23-23.21,49.14-23.21,49.14,0,0-4.74-15.47,.2-30.91,4.96-15.44,2.34-17.92-14.93-22.19-16.9-4.17-46.03,16.73-52.93,22.35,14.62-18.64,49.93-46.22,77.97-18.34,44.34-30.88,72.19-25.58,87.14-1.16Z"/><path class="k" d="M665.28,1366.03s-3.21,36.09,77.08,34.34c34.52-.75,139.65-19.01,146.62-75.46-39.72,17.38-117.49,52-223.7,41.12Z"/><path class="al" d="M888.97,1324.92c-39.72,17.38-117.49,52-223.7,41.12,0,0-1.48,16.77,23,26.89-4.68-6.13-2.96-13.42,.12-13.32,51.72,1.61,109.66-8.74,169.43-27.48,1.19-.37,7.35,2.28,2.22,14.33,15.57-10.69,26.81-24.34,28.93-41.53Z"/><path class="g" d="M778.3,1509.66c-68.57,5.47-87.34-19.89-113.84-79.06-24.76-55.3-46.98-68.63-49.86-70.18-.27-.13-.54-.26-.79-.38l4.47-9.73s.38,.15,1.09,.52c12.05,5.6,56.12,15.54,116.44,10.73,50.06-3.99,125.65-19.54,201.52-70.97l20.1-13.14-12.61,20.51c-14.53,22.22-25.03,49.63-35.18,76.14-24.29,63.44-49.41,129.03-131.34,135.56Zm-139.39-142.05c9.87,11.28,22.29,29.49,35.33,58.62,25.41,56.75,40.89,77.72,103.21,72.75,75.19-5.99,98.02-65.6,122.18-128.71,7.61-19.86,15.41-40.23,25.02-58.83-71.38,43.23-140.76,57.03-187.99,60.79-40.68,3.24-75.04,0-97.75-4.63Z"/></g><path class="g" d="M589.68,1368.3s36.46,3.36,35.4-36.86c-5.89,16.05-25.29,35.52-35.4,36.86Z"/><path class="g" d="M944.87,1256.37s-5.3,34.59,35.33,37.63c-16.05-8.04-32.77-26.77-35.33-37.63Z"/></g></g></g></g></g></g></svg>