<?xml version="1.0" encoding="UTF-8"?><svg xmlns="http://www.w3.org/2000/svg" viewBox="0 0 2357.96 2385.26"><defs><style>.d{fill:#dd6b6b;}.e{fill:#ffc464;}.f{fill:#fff;}.g{fill:#681a04;}.h{fill:#fc7070;}.i{fill:#10a0ff;}.j{fill:#eba77f;}.k{fill:#ff8585;}.l{fill:#35150d;}.m{fill:#f9c99f;}.n{fill:#0883f2;}.o{fill:#632d28;}.p{fill:#662907;}.q{fill:#a80000;}.r{fill:#ea680f;}.s{fill:#895003;}.t{fill:#e5a80e;}.u{fill:#5e0000;}.v{fill:#fffc85;}.w{fill:#0b59b5;}.x{fill:#e2dbcf;}.y{fill:#930000;}.a`{fill:#3d2360;}.aa{fill:#d5dce0;}.ab{fill:#ef1616;}.ac{fill:#7945bf;}.ad{fill:#451e12;}.ae{fill:#fce481;}.af{fill:#c60013;}.ag{fill:#946acc;}.ah{fill:#840202;}.ai{fill:#6338a8;}.aj{fill:#4b4c4c;}.ak{fill:#f7cf0b;}.al{fill:#fd9b02;}.am{fill:#490004;}</style></defs><g id="a"/><g id="b"><g id="c"><g><g><g><path class="ab" d="M2142.35,552.47c42.22,168.17-45.11,366.34-205.9,551.08-160.8,184.74-327.61,154.94-523,93.77-195.39-61.17-265.05,15.68-265.05,15.68,0,0-475.87,99.3-508.37,195.24-29.69,121.43,25.62,517.15,116.96,662.58,91.34,145.43,286.14,90.43,376.28,68.29,90.14-22.14,261.8,75.59,373.2-40.36,111.4-115.95,199.03,7.27,353.8-177.08,154.77-184.35,70.45-481.31,177.3-581.79,108.2-101.75,296.43-187.76,317.48-453.1,13.62-171.67-126.46-294.24-212.7-334.31Z"/><path class="af" d="M2201.47,588.03c55.53,60.21,77.56,120.37,92.04,189.28,29.33,164.05-75.95,361.95-191.44,460.1-188.34,153.9-412.76,181.03-687.79,79.59-187.78-69.26-384.8-48.38-574.5-21.21-98.84,33.36-186.44,73.19-199.74,112.46-29.69,121.43,25.62,517.15,116.96,662.58,91.34,145.43,286.14,90.43,376.28,68.29,90.14-22.14,261.8,75.59,373.2-40.36,111.4-115.95,199.03,7.27,353.8-177.08,154.77-184.35,70.45-481.31,177.3-581.79,108.2-101.75,296.43-187.76,317.48-453.1,10.78-135.86-74.7-240.96-153.58-298.76Z"/><path class="y" d="M1355.57,1377.89c226.93,275.44,391.09,390.95,334.45,475.38-103.24,153.91-426.06-162.46-467.1-487.78-19.09,256.24-363.97,215.32-514.47,97.84-33.59,230.08,10.69,568.09,109.78,669.89,99.78,63.46,241.87,23.86,315.03,5.89,90.14-22.14,261.8,75.59,373.2-40.36,111.4-115.95,199.03,7.27,353.8-177.08,97.88-116.58,100.14-278.19,115.6-406.66-169.82,58.76-440.56,6.33-620.3-137.12Z"/><path class="h" d="M1936.45,1103.56c-160.8,184.74-327.61,154.94-523,93.77-41.13-12.88-76.63-19.59-107.15-22.23,20.16,4.39,41.21,9.2,61.36,16.35,172.2,61.09,366.27,118.28,503.18,9.19,175.97-140.21,353.53-417.36,274-637.11,35.81,165.77-51.1,359.33-208.4,540.05Z"/><path class="am" d="M2143.2,550.66l-3.81-1.77,1.02,4.07c39.36,156.76-33.61,351.83-205.47,549.28-87.7,100.75-183.94,145.09-302.9,139.55-72.13-3.36-147.4-24.28-217.99-46.38-43.96-13.76-85.15-21.63-122.42-23.36-98.56-4.59-139.35,34.05-144.26,39.12-26.88,5.63-477.03,101.35-509.29,196.59-14.41,58.96-9.29,185.78,13.06,323.09,24.47,150.31,62.43,274.61,104.15,341.03,38.28,60.94,99.48,93.79,181.91,97.63,69.02,3.22,139.37-14.26,185.91-25.83l10.63-2.63c11.64-2.86,25.47-3.87,42.29-3.09,22.16,1.03,46.82,5.01,72.92,9.21,29.47,4.75,59.94,9.66,90.84,11.1,73.3,3.41,126.72-15.06,168.11-58.15,48.58-50.56,92.96-55.21,139.95-60.13,59.46-6.23,126.85-13.29,213.95-117.04,84.38-100.51,97.96-233.73,109.95-351.27,10.12-99.22,18.86-184.9,67.18-230.35,21.85-20.54,46.88-40.38,73.38-61.38,101.52-80.44,227.86-180.54,244.72-393.03,13.29-167.66-120.6-292.96-213.85-336.28Zm209.86,335.96c-16.71,210.75-137.04,306.09-243.21,390.2-26.57,21.05-51.67,40.94-73.64,61.6-49.41,46.47-58.22,132.84-68.42,232.85-11.93,116.97-25.45,249.54-109.04,349.11-86.06,102.51-149.73,109.19-211.3,115.64-47.74,5-92.82,9.73-142.41,61.34-40.54,42.19-92.98,60.28-165.05,56.92-30.68-1.43-61.03-6.32-90.39-11.05-26.22-4.23-50.98-8.22-73.37-9.26-17.21-.8-31.41,.25-43.43,3.2l-10.64,2.63c-46.32,11.51-116.33,28.9-184.76,25.72-81.04-3.78-141.17-35.99-178.7-95.76-40.84-65.02-79.56-191.95-103.59-339.55-22.27-136.82-27.43-263.02-13.18-321.33,31.77-93.77,502.14-192.93,506.89-193.92l.63-.13,.44-.48c.39-.43,40.42-43.01,141.57-38.3,36.92,1.72,77.77,9.52,121.41,23.18,70.85,22.18,146.42,43.17,219,46.56,120.28,5.61,217.54-39.17,306.1-140.92,171.26-196.76,244.75-391.43,207.34-548.79,92.02,44.43,220.72,167.17,207.76,330.54Z"/></g><path class="am" d="M1422.52,1925.46s17.69,33.99,51.52,64.05c30.49,27.09,71.71,53.28,118.55,55.46,10.25,.48,20.78-.2,31.52-2.26l-.76-3.93c-111.62,21.49-199.96-111.97-200.84-113.32Z"/><path class="am" d="M1710.28,1418.75s61.57,8.54,145.22-9.53c71.53-15.45,159.93-49.81,244.11-119.16l-2.55-3.09c-182.14,150.07-384.77,131.96-386.78,131.78Z"/></g><g><g><path class="j" d="M823.69,1311.35c62,10,124,7,185-3,10.27-36.81,19.82-74.35,29.88-111.37-47.4,5.71-94.92,11.68-136.31,12.56-38.21,.81-77.29-6.59-116.09-19.67,10.89,26.14,22.14,52.09,32.51,78.49,5,14,6,28,5,43Z"/><path class="ac" d="M1257.13,1200.05c-47.9-22.85-133.03-13.38-218.57-3.07-10.06,37.02-19.61,74.56-29.88,111.37-61,10-123,13-185,3,1-15,0-29-5-43-10.37-26.4-21.62-52.35-32.51-78.49-201.35-67.91-394.99-289.34-418.95-315.64-28.57-31.37-144.56-34.77-176.44,47.84,13.09,148.79,319.99,366.67,416.14,423.22,22.5,175.93,135.5,351.35,169.57,479.14,2.43,77.75,54.68,204.15,103.99,307.14,35.73,3.81,108.66,9.87,153.27,1.76-12.17-81.8-26.53-163.28-29.34-179.46,0,0,20.69-14.39,45.39-28.59,22.41,52.09,90.74,141.52,155.8,219.72,48.63-16.58,106.79-43.76,131.54-55.67-47.81-105.06-103.71-208.6-132.28-282.98-44.64-116.22,21.19-340.09,34.02-386.22,0,0,196.32,198.71,211.93,207.45,15.61,8.74,85.35-26.73,104.78-71.21-64.39-136.5-224-320.82-298.44-356.33Z"/><path class="ai" d="M1257.13,1200.05c-16.31-7.78-36.93-11.81-60.42-13.34,55.3,18.11,85.42,41.12,116.73,72.53,92.85,93.15,162.25,204.8,224.2,319.23,3.2-4.61,15.8-17.23,17.92-22.1-64.39-136.5-224-320.82-298.44-356.33Z"/><path class="ai" d="M1243.62,1332.51c-63.77,165.23-152.05,324.1-72.14,500.03,41.48,85.7,96.16,178.67,140.09,261.03,13.36-6.09,17.63-.43,25.55-4.24-47.81-105.06-103.71-208.6-132.28-282.98-44.64-116.22,21.19-340.09,34.02-386.22,0,0,196.32,198.71,211.93,207.45,8.14,4.56-.35,8.61,22.43-5.9-81.47-62.62-127.68-141.45-205.71-214.9-15.24-16.73-25.2-46.3-23.9-74.27Z"/><path class="ai" d="M1012.93,2135.97c7.38-.63,14.41-1.47,20.81-2.64-8.58-57.68-23.4-144.88-29.34-179.46-.07,12.24-29.78-25.42-25.98-11.13,18.33,68.99,25.36,140.06,34.51,193.23Z"/><path class="ai" d="M1012.61,2135.99c.11,0,.22-.01,.32-.02-.04-.73-.06-1.45-.1-2.18-.07,.74-.15,1.47-.22,2.2Z"/><path class="ai" d="M574.31,1273.24c-8.05,6.41-41.51-17.42-63.91-33.91-131.15-95.21-269.33-205.38-297.54-351.51-9.14,9.24-16.78,20.53-22.07,34.24,13.09,148.79,319.99,366.67,416.14,423.22,.98,7.64,2.18,15.29,3.49,22.93-4.12-37.97-14.72-75.51-36.1-94.97Z"/><path class="ag" d="M680.73,1538.53c-42.53-100.49-58.32-148.45-86.21-233.35,7.02,16.22,13.25,37.56,15.88,63.03,28.74,168.16,133.49,333.98,166.08,456.22,2.43,77.75,54.68,204.15,103.99,307.14,6.74,.72,11.28,2.17,20.23,2.94-19.38-49.79-65.34-161.56-78.25-215.15-41.94-174.16-79.19-233.06-141.72-380.82Z"/><path class="ag" d="M574.31,1273.24c7.52,10.36,14.17,20.99,20.22,31.94-6.86-15.86-14.47-26.84-20.22-31.94Z"/><path class="ai" d="M1205.59,2144.99c7.11-2.42,2.55-2.81,9.93-5.61-40.58-60.35-95.23-147.16-139.43-230.07-5.18-9.72-18.34,26.9-25.09,19.11,30.17,52.72,100.09,151.06,154.59,216.57Z"/><path class="a`" d="M1257.99,1198.24c-16.78-8.01-38.76-12.54-67.17-13.87-46.62-2.17-104.27,4.79-160.02,11.53-44,5.31-89.49,10.81-128.58,11.64-6.08,.13-12.33,.05-18.58-.24h-.03c-201.14-9.38-424.46-234.07-511.14-330.24l-3.77-4.17c-10.7-11.75-33.39-19.79-59.23-21-42.48-1.98-99.55,15.02-120.56,69.47l-.17,.43,.04,.46c13.64,155.05,335.4,376.49,416.27,424.27,13.94,107.4,61.73,215.33,103.91,310.59,26.89,60.72,52.28,118.07,65.52,167.62,2.6,79.89,58.07,211.41,104.18,307.7l.48,1.01,1.11,.12c15.15,1.62,38.46,3.79,63.48,4.96,38.38,1.79,68.78,.71,90.36-3.22l1.91-.35-.28-1.92c-7.56-50.83-17.21-109.92-28.67-175.64l-.46-2.61c4.38-3,21.86-14.82,42.26-26.66,24.88,56,97.93,149.31,155.2,218.14l.88,1.06,1.3-.45c49.22-16.78,108.54-44.58,131.76-55.75l1.76-.85-.81-1.78c-19.3-42.41-39.74-84.23-59.52-124.66-28.65-58.58-55.71-113.92-72.72-158.21-28.36-73.83-17.45-201.37,32.43-379.07l.72-2.57c23.59,23.86,195.04,196.99,209.96,205.34,1.64,.92,3.75,1.44,6.27,1.56,22.89,1.07,82.94-31.65,101.31-73.71l.36-.83-.39-.82c-66-139.92-227.23-322.85-299.39-357.28Zm198.29,428.65c-1.9-.09-3.41-.44-4.51-1.06-12.15-6.8-143.65-138.45-211.49-207.11l-2.42-2.46-2.57,9.2c-50.12,178.55-60.99,306.94-32.32,381.59,17.08,44.45,44.17,99.86,72.86,158.53,19.48,39.84,39.62,81.02,58.65,122.77-24.06,11.54-80.7,37.94-128.24,54.28-57.68-69.38-130.95-163.14-154.62-218.17l-.89-2.06-1.95,1.12c-24.48,14.08-45.32,28.53-45.53,28.68l-1.05,.73,.89,5.13c11.31,64.85,20.86,123.25,28.37,173.61-21.16,3.59-50.6,4.54-87.56,2.82-24.32-1.13-47.02-3.22-62.13-4.82-45.89-95.96-100.85-226.43-103.31-305.33l-.07-.45c-13.3-49.9-38.8-107.47-65.79-168.42-42.2-95.3-90.02-203.31-103.73-310.46l-.12-.97-.85-.5c-40.59-23.87-142.75-91.53-238.9-176.79-76.4-67.74-168.9-165.08-176.21-244.42,20.38-52.12,75.43-68.39,116.47-66.48,24.81,1.16,46.44,8.7,56.45,19.69l3.76,4.16c87.02,96.55,311.3,322.13,513.95,331.56,6.33,.3,12.68,.38,18.85,.25,39.29-.83,84.89-6.34,128.98-11.67,55.59-6.72,113.07-13.66,159.36-11.5,27.87,1.3,49.34,5.71,65.63,13.48,71.47,34.09,231.17,215.39,297.11,354.55-17.89,39.55-75.85,71.48-97.1,70.49Z"/></g><g><g><path class="ab" d="M977.01,1338.5l53.28,2.48,88.4-152.55c-34.03,2.76-70.16,7.39-105.73,11.63l-35.95,138.44Z"/><path class="af" d="M1005.31,1339.82l24.99,1.16,88.4-152.55c-18.35,1.49-37.33,3.53-56.48,5.75-18.7,49.49-41.52,96.55-56.9,145.63Z"/><path class="am" d="M1030.52,1195.94l-19.14,2.3-36.92,142.14,56.96,2.65,90.92-156.91-3.81,.31c-28.41,2.3-58.71,5.96-88.01,9.5Zm-1.34,142.99l-49.61-2.31,34.99-134.73,16.44-1.98c27.95-3.38,56.82-6.86,84.05-9.17l-85.87,148.19Z"/></g><g><path class="ab" d="M692.68,1147.94l123.87,196.44,51.99-5.59-31.54-135.28c-48.52-9.55-97.37-29.69-144.31-55.57Z"/><path class="af" d="M774.47,1185.72c22.65,50.57,38.07,105.48,59.49,156.79l34.58-3.72-31.54-135.28c-20.84-4.1-41.74-10.17-62.53-17.79Z"/><path class="am" d="M837.38,1201.55c-44.71-8.8-93.07-27.42-143.73-55.36l-6.8-3.75,128.67,204.06,55.48-5.96-32.35-138.74-1.27-.25Zm-19.81,140.71l-119.1-188.89c48.1,25.84,94.11,43.27,136.87,51.85l30.74,131.83-48.5,5.21Z"/></g></g><path class="ac" d="M764.8,1298.95c20.33,44.55,49.93,70.03,160.39,63,110.46-7.03,148.42-25.41,153.41-68.66,0,0-71.14,22.85-144.27,22.87-73.12,.02-146.33-7.67-169.53-17.21Z"/><path class="a`" d="M764.8,1298.95s21.97,9.21,57.55,13.51c16.78,2.03,36.52,3.86,58.32,4.88,38.73,1.81,84.13,1.98,130.84-5.77,42.2-7,67.09-18.27,67.09-18.27-47.48,13.51-95.77,19.16-139.78,20.54-96.82,3.04-172.92-14.62-174.02-14.88Z"/><g><path class="ak" d="M1002.16,1371.72s-93.22,48.35-160.23,140.01c22.89-4.27,149.49-2.97,149.49-2.97-28.01,28.06-165.58,180.47-165.58,180.47,30.36-21.28,251.72-216.54,251.72-216.54-42.81,2.01-153.62,2.18-153.62,2.18,12.8-16.76,78.23-103.15,78.23-103.15Z"/><path class="t" d="M1061.19,1473.28c-82.82,59.05-148.14,137.19-223.14,202.44-7.63,8.44-12.21,13.51-12.21,13.51,30.36-21.28,251.72-216.54,251.72-216.54-4.7,.22-10.26,.42-16.37,.6Z"/><path class="ae" d="M999.17,1375.68c1.91-2.52,3-3.96,3-3.96,0,0-93.22,48.35-160.23,140.01,2.24-.42,5.5-.78,9.52-1.1,42.06-50.91,95.49-93.24,147.72-134.96Z"/><path class="s" d="M927.98,1472.86c17.08-22.44,75.78-99.93,75.78-99.93l5.35-7.06-7.86,4.08c-.94,.48-94.41,49.62-160.93,140.61l-2.98,4.07,4.96-.93c19.95-3.72,121.24-3.16,144.39-2.98-33.84,34.85-161.01,175.7-162.34,177.17l-11.85,13.13,14.49-10.15c30.11-21.1,242.85-208.71,251.89-216.68l4.27-3.77-5.69,.27c-37.65,1.77-129.13,2.12-149.48,2.17Zm-84.78,200.15c37.05-40.94,127.67-140.83,149.63-162.84l3.36-3.36-4.75-.05c-4.88-.05-113.58-1.12-145.07,2.34,54.04-72.15,124.53-117,148.4-130.93-16.29,21.5-61.97,81.79-72.43,95.5l-2.46,3.22h4.05c1.06,0,102.32-.19,148.05-1.95-26.79,23.6-172.79,152.05-228.79,198.08Z"/></g><path class="a`" d="M1229.81,1445.25l3.82,1.19c14.77-47.31,10-113.93,10-113.93,0,.66,.76,66.04-13.82,112.74Z"/><path class="a`" d="M574.31,1273.24c.27,.24,27.25,25.04,34.47,97.56l3.98-.39c-7.4-74.3-38.45-97.17-38.45-97.17Z"/><g><g><path class="ab" d="M264.09,280.04c-56.04-29.31-234.23,70.51-226.34,158.99,7.89,88.47,105.16,121.04,105.16,121.04,.52,11.89,3.98,260.04,21.33,373.28,156.36-22.92,231.05-72.26,265.69-107.79-44.76-84.12-166.35-305.25-166.35-305.25,28.72-14.68,56.56-210.96,.52-240.27Z"/><path class="h" d="M38.64,446.3c12.39,82.98,104.27,113.77,104.27,113.77,.52,11.89,3.98,260.04,21.33,373.28,4.03-.59,18.41-2.95,22.33-3.57-23.56-121.39-26.54-295.41-24.47-379.49-50.47-11.35-103.09-45.94-123.47-103.98Z"/><path class="af" d="M429.92,825.55c-44.76-84.12-166.35-305.25-166.35-305.25,12.24-6.25,24.31-45.48,29.8-90.71-20.61,24.66-42.27,48.54-72.05,66.45-11.24,3.17,2.66,22.31,9.52,33.72,70.56,103.81,121.66,217.27,145.56,336.81,24.04-14.22,41.29-28.48,53.52-41.02Z"/><path class="am" d="M266.23,520.99c16.52-12.3,31.94-77.94,32.22-139.05,.15-32.11-3.99-88.28-33.44-103.68-6.01-3.14-13.5-4.95-22.26-5.35-47.2-2.2-122.84,34.86-168.6,82.6-27.45,28.64-40.73,57.58-38.4,83.69,7.41,83.1,93.46,117.92,105.2,122.29,.06,2.16,.15,6.25,.28,11.97,3.78,172.6,10.86,293.78,21.03,360.19l.3,1.96,1.96-.29c155.43-22.78,230.89-71.51,266.83-108.37l1.02-1.05-.69-1.29c-42.22-79.35-154.21-283.16-165.46-303.63Zm-100.31,410.09c-9.99-66.65-16.95-186.97-20.69-357.7-.16-7.33-.26-12-.32-13.4l-.06-1.37-1.3-.44c-.96-.32-96.12-33.15-103.8-119.32-2.81-31.49,18.73-61.19,37.3-80.56,44.31-46.23,120.11-83.49,165.53-81.38,8.17,.38,15.1,2.03,20.59,4.9,20.14,10.53,31.54,47.02,31.29,100.12-.28,60.88-16.03,128.54-31.79,136.6l-1.84,.94,.99,1.81c1.21,2.2,120.86,219.83,165.65,303.93-35.75,36.14-110.02,83.36-261.55,105.88Z"/></g><path class="ab" d="M2.17,326.76c-2.76,49.26,28.17,84.07,37.04,91.16,17.23,13.79,50.27,5.32,53.47-11.82,3.85-20.61-2.98-58.5-18.79-92.02-18.98-40.27-68.96-36.59-71.72,12.68Z"/><path class="af" d="M48.15,288.81c-19.65,40.8,29.88,101.96,4.34,120.2-5.37,2.38-12.45,4.65-18.84,3.59,2.23,2.39,4.18,4.23,5.55,5.33,17.23,13.79,50.27,5.32,53.47-11.82,3.85-20.61-2.98-58.5-18.79-92.02-6.19-13.13-15.67-21.55-25.74-25.28Z"/><path class="am" d="M37.77,284.61c-17.49-.82-35.9,11.87-37.59,42.04-2.73,48.91,27.11,84.3,37.78,92.84,5.47,4.38,12.67,6.89,20.83,7.27h0c15.29,.71,33.34-6.84,35.86-20.29,4.18-22.37-3.61-60.71-18.94-93.24-8.11-17.2-22.29-27.9-37.93-28.63Zm52.94,121.13c-1.86,9.94-16.39,17.74-31.74,17.03-7.31-.34-13.71-2.55-18.52-6.4-10.25-8.21-38.93-42.27-36.29-89.49,1.54-27.44,17.89-39,33.41-38.27,14.14,.66,27.04,10.5,34.5,26.34,14.77,31.34,22.61,69.53,18.63,90.8Z"/></g><g><path class="ak" d="M429.92,825.55c-34.63,35.53-109.33,84.88-265.69,107.79,4.12,26.92,9.03,46.24,14.87,52.93,30.42,34.79,163.82-20.4,163.82-20.4,59.98-26.57,120.88-73.13,101.37-112.75-2.57-5.21-7.6-14.83-14.37-27.57Z"/><path class="ae" d="M164.24,933.35c4.12,26.92,9.03,46.24,14.87,52.93,4.09,4.68,10.08,7.69,17.32,9.46-6.17-21.51-9.82-43.5-9.86-65.96-7.27,1.24-14.68,2.45-22.33,3.57Z"/><path class="t" d="M444.3,853.12c-2.57-5.21-7.6-14.83-14.37-27.57-12.31,12.63-29.73,27.02-54.05,41.33,10.48,23.73,14.19,49.54,11.66,75.27,41.15-26.09,71.32-59.49,56.77-89.03Z"/><path class="s" d="M431.69,824.61l-1.29-2.42-1.91,1.96c-35.5,36.42-110.22,84.59-264.54,107.21l-1.99,.29,.3,1.99c4.55,29.69,9.57,47.33,15.34,53.94,6.38,7.3,17.38,11.36,32.71,12.08h.01c49.91,2.33,129.98-30.54,133.41-31.96,42.08-18.64,91.36-50.48,103.5-83.91,4.05-11.17,3.67-21.79-1.14-31.55-2.45-4.97-7.3-14.27-14.4-27.62Zm11.78,57.81c-11.7,32.25-60.03,63.31-101.31,81.6-.82,.34-82.63,33.93-131.65,31.64h0c-14.2-.66-24.25-4.27-29.89-10.71-5.07-5.79-9.81-22.59-14.09-49.92,151.39-22.5,226.4-69.68,262.91-106.14,6.39,12.04,10.79,20.48,13.07,25.11,4.31,8.75,4.64,18.31,.97,28.42Z"/></g><g><path class="ab" d="M50.55,273.62c-2.76,49.26,23.48,88.85,28.92,98.82,20.99,38.46,65.69,26.88,67.07-7.1,.86-21.18-11.36-76.04-24.28-104.39-19.05-41.8-68.96-36.59-71.72,12.68Z"/><path class="af" d="M105.99,240.48c-12.45,26.68,11.92,91.44,7.84,125.46-.55,11.88-24.7,24.73-37.76,.55,15.41,33.42,36.41,31.74,47.09,28.96,12.69-3.3,22.75-14.27,23.4-30.11,.86-21.18-11.36-76.04-24.28-104.39-1.91-4.18-7.31-12.08-16.28-20.46Z"/><path class="am" d="M86.4,230.84c-17.03-.79-36.14,12.22-37.84,42.67-2.53,45.2,19.02,82.34,27.13,96.33,.83,1.44,1.53,2.63,2.04,3.56,8.33,15.26,21.31,24.39,35.63,25.06h0c9.13,.43,17.77-2.65,24.32-8.66,6.62-6.06,10.48-14.72,10.87-24.38,.92-22.59-11.88-77.7-24.46-105.3-8.02-17.61-22.11-28.55-37.69-29.28Zm48.57,156.01c-5.76,5.29-13.38,7.99-21.43,7.61h0c-12.89-.6-24.66-8.98-32.31-22.98-.52-.95-1.23-2.18-2.09-3.65-7.95-13.7-29.06-50.09-26.59-94.1,1.56-27.88,18.03-39.62,33.66-38.9,14.05,.65,26.85,10.73,34.24,26.94,13.14,28.84,24.91,83.64,24.1,103.48-.36,8.71-3.67,16.18-9.58,21.6Z"/></g><g><path class="ab" d="M119.78,238.07c-2.29,49.29,18.81,109.58,24.68,119.29,14.12,23.35,51.3,12.67,58.68-3.27,8.8-19.03,2.58-94.47-11.64-128.7-15.11-36.38-69.78-29.04-71.72,12.68Z"/><path class="af" d="M159.96,369.34c16.58,5.14,37.81-3.62,43.19-15.25,1.89-4.1,3.09-10.81,3.66-19.16,2.08-30.31-.6-109.49-26.73-123.96-16.87,50.45,27.74,131.93-20.12,158.37Z"/><path class="am" d="M158.68,200.01c-10-.47-19.97,2.84-27.36,9.06-8.3,6.99-12.98,16.99-13.54,28.91-2.35,50.68,19.15,110.79,24.97,120.42,5.32,8.81,14.42,13.94,25.62,14.47h0c15.27,.71,31.68-7.33,36.58-17.93,9.21-19.92,2.38-96.64-11.61-130.3-6.1-14.69-19.06-23.89-34.66-24.62Zm42.65,153.24c-4.21,9.1-19.21,16.25-32.76,15.62h0c-6.95-.33-16.47-2.76-22.38-12.54-5.49-9.09-26.67-69.15-24.4-118.17,.5-10.78,4.69-19.78,12.12-26.03,6.63-5.58,15.6-8.54,24.6-8.12,14.02,.65,25.66,8.93,31.16,22.15,14.71,35.42,19.91,109.29,11.68,127.09Z"/></g><g><path class="ab" d="M193.86,221.36c-2.76,49.26,18.81,109.58,24.68,119.29,14.12,23.35,51.31,12.67,58.68-3.27,8.8-19.03,4.16-95.17-11.64-128.7-18.98-40.27-68.96-36.59-71.72,12.68Z"/><path class="af" d="M242.97,184.73c16.03,12.05,19.67,79.26,14.92,113.71-3.78,21.93-18.63,35.71-36.84,45.66,15.56,18.7,49.2,8.37,56.17-6.71,8.8-19.03,4.16-95.17-11.64-128.7-5.54-11.76-13.73-19.74-22.61-23.96Z"/><path class="am" d="M229.46,179.21c-17.49-.82-35.9,11.87-37.59,42.04-2.79,49.97,19.02,110.59,24.97,120.44,5.32,8.81,14.42,13.94,25.62,14.47h0c15.27,.71,31.68-7.33,36.58-17.93,9.15-19.79,4.03-97.13-11.65-130.39-8.11-17.2-22.29-27.9-37.93-28.63Zm45.95,157.34c-4.21,9.1-19.21,16.25-32.76,15.62h0c-6.95-.33-16.47-2.76-22.38-12.54-5.82-9.63-27.15-69.03-24.4-118.15,1.54-27.44,17.89-39,33.41-38.27,14.14,.66,27.04,10.5,34.5,26.34,15.33,32.53,20.5,107.84,11.64,127.01Z"/></g><g><path class="ab" d="M299.46,287.36c-47.23,3.81-176.07,39.85-188.55,71.31-12.48,31.46,63.12,63.52,93.53,55.42-14.92,19.33-22.96,63.01-9,85.69l37.71,28.79s64.08-.02,97.1-85.58c33.02-85.57,16.44-159.43-30.79-155.62Z"/><path class="h" d="M299.46,287.36c-47.23,3.81-176.07,39.85-188.55,71.31-2.05,5.16-1.69,10.32,.41,15.33,54.84-51.71,211.51-102.27,220.8-72.22-8.06-10.17-19.09-15.51-32.66-14.42Z"/><path class="af" d="M310.88,288.09c50.19,25.91-14.65,227.16-77.92,240.33l.19,.15s64.08-.02,97.1-85.58c30.2-78.25,18.9-146.67-19.37-154.89Z"/><path class="af" d="M110.91,358.67c-12.48,31.46,63.12,63.52,93.53,55.42-.34,.45-.67,.97-1,1.44,21.5-10.41,42.32-22.15,55.1-44.98-20.91,19.05-157.11,40.59-147.63-11.89Z"/><path class="am" d="M299.3,285.37c-47.01,3.79-177.19,39.66-190.25,72.57-3.43,8.65-1,18,7.04,27.05,17.5,19.69,59.22,35.17,83.9,32-6.2,9.82-11.16,23.35-12.68,37.32-3.54,32.55,9.83,44.43,9.83,44.43-13.26-21.54-6.2-63.87,8.88-83.41l3.61-4.67-5.7,1.52c-22.03,5.86-67.24-10.03-84.84-29.84-7.07-7.95-9.19-15.66-6.32-22.91,11.64-29.35,135.52-65.92,186.85-70.05,12.81-1.04,23.81,4.05,31.76,14.7,19.85,26.59,18.65,82.13-2.99,138.21-32.1,83.18-94.61,84.3-95.24,84.3,0,0,22.67,3.66,47.76-13.61,17.97-12.37,37.38-33.42,51.21-69.25,22.12-57.32,23.11-114.4,2.47-142.04-8.82-11.81-21.01-17.45-35.29-16.29Z"/></g><path class="am" d="M184.86,412.83l-.03,4c18.02,.14,32.99-5.5,44.68-12.62,19.48-11.87,26.63-30.26,26.63-30.26-.25,.39-25.49,39.23-71.28,38.88Z"/><g><g><path class="ab" d="M1403.82,2263.17c-15.45-55.15-39.8-114.74-66.69-173.84-24.75,11.91-82.91,39.08-131.54,55.67,60.85,73.14,118.82,136.45,133.66,150.21-19.57,33.13-21.78,102.11,85.33,81.07s6.24-90.82-20.76-113.1Z"/><path class="af" d="M1346.24,2295.53c-39.72-49.91-94.29-105.66-128.13-154.67-7.38,2.79-5.42,1.71-12.53,4.13,60.85,73.14,118.82,136.45,133.66,150.21-12.28,20.8-17.71,55.71,6.43,73.63-18.88-36.67,.05-60.13,.56-73.3Z"/><path class="af" d="M1403.82,2263.17c-15.45-55.15-39.8-114.74-66.69-173.84-7.92,3.81-5.93,3.1-19.29,9.19,29.59,55.46,57.79,126.82,73.48,175.08,5.53,17.01,27.78,15.31,49.55,42.36,16.6,16.13,25.26,35.22-4.38,57.54,87.17-23.81-6.76-88.94-32.66-110.32Z"/><path class="am" d="M1413.51,2268.36c-3.01-2.38-5.7-4.51-7.93-6.34-13.6-48.39-34.78-103.55-66.63-173.52l-.85-1.86-1.84,.88c-23.16,11.14-82.3,38.86-131.32,55.58l-2.75,.94,1.86,2.23c57.97,69.69,115.25,132.71,132.68,149.31-9.57,17.08-14.49,42.15-4.28,61.05,5.84,10.8,19.3,23.99,50.26,25.43,12.22,.57,26.44-.72,42.25-3.82,29.22-5.74,45.76-15.78,49.17-29.84,6.52-26.94-37.16-61.48-60.62-80.03Zm56.74,79.09c-3.01,12.41-18.5,21.45-46.05,26.86-15.5,3.04-29.39,4.3-41.3,3.75-23.36-1.09-39.15-8.94-46.93-23.33-9.75-18.05-4.52-42.39,5-58.51l.82-1.39-1.18-1.1c-13.46-12.47-68.73-72.32-131.63-147.8,47.4-16.42,103.24-42.45,127.17-53.92,31.42,69.19,52.32,123.79,65.74,171.69l.17,.6,.49,.4c2.34,1.93,5.22,4.21,8.48,6.79,22.76,18,65.14,51.5,59.22,75.95Z"/></g><g><path class="ab" d="M1051.45,2304.82c1.81-28.81-7.12-100.27-17.71-171.49-44.61,8.11-117.54,2.05-153.27-1.76,40.35,84.27,78.72,152.88,86.2,166.29,0,0-138.71,54.61-118.43,70.57,20.28,15.96,170,25.95,218.6-7.1,48.6-33.05,4.83-60.58-15.39-56.51Z"/><path class="h" d="M900.7,2134.51c-8.95-.77-13.48-2.22-20.23-2.94,17.63,36.83,71.74,138.74,86.2,166.29-5.35-15.58-39.45-93.94-44.11-106.18-7.43-19.54-14.56-38.41-21.86-57.17Z"/><path class="af" d="M1051.45,2304.82c1.81-28.81-7.12-100.27-17.71-171.49-6.5,1.18-13.64,2.03-21.13,2.66,1.91,42.95,17.31,144.79,20.26,180.97,4,.19,31.89,3.15,26.67,29.28-7.08,20.42-126.86,36.71-211.96,14.48-1.91,3.06-1.89,5.7,.67,7.71,8.84,6.96,42.28,12.78,81.21,14.39,50.38,2.09,109.97-2.85,137.38-21.5,48.6-33.05,4.83-60.58-15.39-56.51Z"/><path class="am" d="M1053.57,2302.51c1.03-25.85-4.97-82.82-17.85-169.47l-.3-2.04-2.03,.37c-21.28,3.87-51.38,4.93-89.46,3.16-24.92-1.16-48.14-3.33-63.24-4.94l-3.56-.38,1.55,3.23c25.47,53.2,55.67,111.52,85.15,164.41-19.16,7.63-116.66,47.32-119.52,66.8-.25,1.73,0,4.24,2.71,6.37,8.88,6.99,40.93,12.9,79.75,14.71,49.43,2.3,112.48-2.2,141.2-21.73,22.74-15.47,24.61-29.01,22.16-37.65-4.13-14.62-23.49-23.93-36.56-22.82Zm12.14,57.17c-27.91,18.98-89.98,23.32-138.77,21.04-37.46-1.75-69.32-7.44-77.47-13.86-1.28-1-1.34-1.9-1.23-2.64,2.01-13.7,72.36-46.08,119.15-64.5l2.13-.84-1.42-2.54c-29.09-52.13-58.95-109.67-84.29-162.41,15.11,1.57,36.78,3.51,59.91,4.58,37.19,1.73,66.89,.77,88.33-2.86,13.05,88.05,18.91,144.92,17.39,169.04l-.16,2.6,2.55-.51c1.52-.31,3.23-.42,5.07-.33,11.61,.54,26.18,8.7,29.36,19.97,2.99,10.57-4.12,22.08-20.57,33.26Z"/></g></g><g><path class="ak" d="M871.46,2112.56c6.84,14.61,13.69,28.85,20.41,42.53,52.51,18.75,114.82,3.43,144.18-6.02-2.08-14.34-4.25-28.8-6.45-43.03-76.95,25.16-132.07,14.92-158.14,6.51Z"/><path class="t" d="M1008.85,2110.49c1.07,11.31,4.23,27.27,5.01,44.88,10.88-2.48,14.8-3.91,22.19-6.29-2.08-14.34-4.25-28.8-6.45-43.03-6.58,2.15-14.5,2.78-20.76,4.44Z"/><path class="v" d="M871.46,2112.56c6.84,14.61,13.69,28.85,20.41,42.53,7.23,2.58,11.48,4.34,18.96,5.74-4.62-14.27-11.57-31.23-16.4-42.57-10.87-1.79-16.05-3.46-22.96-5.69Z"/><path class="s" d="M1031.58,2105.75l-.36-2.33-2.24,.73c-36.22,11.84-71.38,17.06-104.52,15.52-23.6-1.1-41.52-5.51-52.39-9.01l-4.38-1.41,1.95,4.17c6.44,13.75,13.31,28.07,20.42,42.57l.36,.73,.77,.27c14.07,5.02,29.87,7.97,46.97,8.77,39.96,1.86,78.86-8.45,98.5-14.76l1.61-.52-.24-1.67c-2.08-14.35-4.26-28.81-6.45-43.04Zm-93.23,56.01c-16.39-.76-31.55-3.55-45.05-8.27-6.27-12.79-12.35-25.45-18.11-37.68,11.27,3.29,27.95,6.88,49.08,7.86,32.94,1.54,67.82-3.51,103.71-14.99,1.99,12.92,3.95,26,5.85,39.01-19.84,6.26-57.2,15.85-95.47,14.06Z"/></g><g><path class="ak" d="M1187.61,2123.19c10.65,13.04,21.33,25.89,31.84,38.35,32.59-3.47,82.75-14.55,128.43-48.27-6.3-14.28-12.81-28.57-19.42-42.81-26.35,16.36-76.71,42.69-140.85,52.72Z"/><path class="t" d="M1187.61,2123.19c10.65,13.04,21.33,25.89,31.84,38.35,7.57-.81,5.04-.01,14.23-1.83-10.97-13.2-20.96-27.33-32.2-40.24-7.72,1.76-5.68,2.44-13.87,3.73Z"/><path class="t" d="M1306.63,2082.98c7.66,14.33,15.36,28.07,22.98,42.45,9.75-5.21,8.7-5.1,18.26-12.16-6.3-14.28-12.81-28.57-19.42-42.81-8.48,5.26-8.71,6.06-21.82,12.52Z"/><path class="s" d="M1330.27,2069.62l-.95-2.05-1.92,1.19c-24.55,15.24-75.39,42.33-140.1,52.44l-3.45,.54,2.21,2.7c10.17,12.45,20.89,25.36,31.86,38.38l.69,.81,1.06-.11c33.85-3.6,83.77-14.96,129.41-48.65l1.29-.95-.65-1.47c-5.89-13.35-12.24-27.36-19.43-42.84Zm-109.98,89.81c-9.93-11.79-19.65-23.49-28.94-34.83,62.13-10.36,111.22-35.96,136.24-51.26,6.53,14.09,12.37,26.97,17.8,39.26-44.09,32.08-92.1,43.19-125.11,46.83Z"/></g><g><g><path class="ak" d="M1550.28,1526.76c-41.07,43.47-82.37,76.72-153.93,91.6-12.38,2.58-3.05,18.68,15.35,40.57,97.24-14.97,148.66-70.46,170.15-101.11-11.95-25.32-23.51-39.59-31.57-31.06Z"/><path class="t" d="M1550.28,1526.76c-2.58,2.73-11.54,9.01-14.13,11.66,13.42,15.63,21.01,31.1,23.59,46.16,6.5-7.3,17.96-20.84,22.11-26.76-11.95-25.32-23.51-39.59-31.57-31.06Z"/><path class="t" d="M1421.89,1611.88c-13.65,5.29-9.03,3.05-25.54,6.48-12.38,2.58-3.05,18.68,15.35,40.57,11.8-1.82,22.9-4.24,33.38-7.13-15.3-6.57-39.03-26.16-23.19-39.92Z"/><path class="s" d="M1555.82,1522.29c-2.59-.12-4.94,.92-7,3.1-42.99,45.5-83.56,76.6-152.88,91.02-3.55,.74-5.83,2.49-6.77,5.22-2.31,6.67,4.16,18.57,20.99,38.59l.72,.86,1.11-.17c97.54-15.02,149.31-70.31,171.49-101.94l.67-.95-.5-1.05c-10.84-22.97-19.95-34.31-27.84-34.68Zm-143.32,134.49c-14.66-17.56-21.24-28.95-19.55-33.84,.17-.49,.68-1.97,3.8-2.62,70.34-14.63,111.45-46.13,154.97-92.19,1.23-1.31,2.51-1.91,3.9-1.85,3.44,.16,11.09,4.47,23.91,31.34-22.09,31.13-72.65,84.27-167.04,99.16Z"/></g><g><path class="ab" d="M1581.85,1557.82c-21.49,30.65-72.91,86.14-170.15,101.11,34.18,40.66,99.66,101.3,115.57,132.41-31.13,9.23-46.35,77.94-51.46,101.73-5.11,23.79,19.08,48.95,40.58,45.94,0,0,21.78,19.7,70.1,13.95,48.33-5.76,50.41-136.49,46.92-204.73-2.33-45.45-27.72-139.92-51.55-190.41Z"/><path class="af" d="M1411.7,1658.93c28.75,34.2,79.64,82.54,104.56,115.55-19.67-42.22-58.31-76.22-76.06-121.39-9.04,2.32-18.51,4.31-28.5,5.84Z"/><path class="af" d="M1633.4,1748.23c-2.33-45.45-27.72-139.92-51.55-190.41-5.4,7.7-12.69,16.97-22.11,26.76,42.45,99.17,76.33,211.36,34.32,317.26-11.73,26.88-41.64,37.19-63.09,21.4-10.72-7.89-9.14-38.32,19.65-63.88-47.16,22.85-31.32,49.16-53.23,53.99-16.69,1.22-21.4-21.17-21.59-20.29-5.11,23.79,19.08,48.95,40.58,45.94,0,0,21.78,19.7,70.1,13.95,48.33-5.76,50.41-136.49,46.92-204.73Z"/><path class="am" d="M1583.66,1556.97l-1.47-3.11-1.97,2.82c-21.81,31.1-72.76,85.49-168.82,100.28l-3.52,.54,2.29,2.72c12.48,14.85,28.74,31.95,45.96,50.06,28.2,29.66,57.33,60.29,68.27,79.94-31.16,12.23-45.69,79.85-50.55,102.44-2.25,10.46,.76,22.03,8.25,31.76,8.78,11.39,21.86,17.95,33.67,16.7,3.39,2.72,18.51,13.42,47.5,14.77h0c7.46,.35,15.35,.04,23.45-.93,54.67-6.51,51.08-159.95,48.68-206.82-2.36-46.15-27.99-140.84-51.74-191.16Zm2.59,394.01c-7.88,.94-15.55,1.24-22.8,.9h0c-30.99-1.44-45.58-14.23-45.73-14.35l-.7-.62-.92,.13c-10.42,1.45-22.81-4.65-30.84-15.07-6.77-8.79-9.51-19.17-7.5-28.48,13.01-60.51,29.86-94.24,50.07-100.23l2.31-.69-1.09-2.14c-10.25-20.04-40.64-52.01-70.03-82.91-16.13-16.97-31.43-33.05-43.5-47.18,92.47-15.32,143.04-66.97,165.97-98.57,23.17,50.66,47.63,141.73,49.92,186.55,4.85,94.79-4.46,197.79-45.16,202.64Z"/></g></g><path class="am" d="M1519.74,1897.35c-7.46,15.7-10.9,32.81-1.1,45.67l3.18-2.43c-21.33-28,30.03-82.14,30.55-82.69,0,0-22.28,17.66-32.63,39.44Z"/></g><g><g><g><path class="ab" d="M1190.49,1734.08l-419.89,70.31c2.14,6.79,4.14,13.49,5.88,20.04,.49,15.67,3.01,33.33,7.12,52.37,0,0,186.68,83.47,235.84,77.77,49.16-5.7,187.96-141.73,187.96-141.73-.86-2.17-1.74-4.37-2.56-6.49-8.11-21.11-12.56-45.77-14.36-72.27Z"/><path class="af" d="M1204.84,1806.35c-8.11-21.11-12.56-45.77-14.36-72.27l-50.74,8.5c9.62,71.83-39.05,151.83-122.03,196.95-13.44,3.96-38.93,7.29-89.15-5.23,38,12.91,73.26,22.31,90.87,20.27,49.16-5.7,187.96-141.73,187.96-141.73-.86-2.17-1.74-4.37-2.56-6.49Z"/><path d="M1010.87,1956.61h-.01c-58.8-2.75-221.12-75.05-228.01-78.13l-.85-.38-.2-.92c-4.26-19.73-6.66-37.39-7.15-52.48-1.56-5.84-3.46-12.31-5.8-19.76l-.64-2.02,423.99-71,.14,2.04c1.9,27.94,6.69,52.08,14.24,71.73,.6,1.57,1.24,3.17,1.88,4.78l1.12,2.83-.88,.86c-5.69,5.57-139.82,136.53-189.04,142.24-2.54,.3-5.49,.37-8.79,.22Zm-225.65-81.12c13.06,5.79,169.87,74.81,225.82,77.43h.01c3.09,.14,5.85,.08,8.19-.19,45.96-5.32,174.11-128.8,186-140.35l-.22-.54c-.64-1.62-1.29-3.24-1.89-4.82-7.5-19.52-12.32-43.32-14.34-70.78l-415.79,69.63c2.1,6.74,3.83,12.68,5.27,18.09l.06,.42c.46,14.69,2.77,31.88,6.88,51.12Z"/></g><path class="h" d="M770.6,1804.39c2.14,6.79,4.14,13.49,5.88,20.04,.49,15.67,3.01,33.33,7.12,52.37l31.73,11.33c-4.85-30.3-14.99-59.04-23.9-87.22l-20.83,3.49Z"/></g><g><path class="ad" d="M969.54,1756.67c-59.32,9.53-127.92,17.16-209.11,17.95,6.35,17.28,11.82,33.91,16.05,49.81,.23,7.31,.92,15.07,1.99,23.18,110.3-5.54,314.96-39.44,417.01-74.53-4.22-21.33-5.99-44.77-5.95-69.16-35.5,12.43-109.33,34.97-219.99,52.75Z"/><path class="o" d="M760.43,1774.62c6.35,17.28,11.82,33.91,16.05,49.81,.23,7.31,.92,15.07,1.99,23.18,8.48-.43,17.55-1.03,27.06-1.78-7.09-24.45-15.72-48.14-21.99-71.65-7.6,.2-15.28,.36-23.11,.43Z"/><path class="l" d="M1142.38,1718.85c1.22,23.38,3.83,64.11-15.54,73.17,16.39-4.48,55.3-14.34,68.63-18.92-4.22-21.33-5.99-44.77-5.95-69.16-11.61,4.06-27.39,9.22-47.14,14.92Z"/><path d="M1191.52,1703.93v-2.82l-2.66,.93c-34.27,11.99-108.37,34.78-219.64,52.66-70.88,11.39-139.18,17.25-208.81,17.93l-2.84,.03,.98,2.66c6.74,18.32,11.95,34.49,15.94,49.41,.23,7.03,.9,14.82,2,23.15l.24,1.83,1.84-.09c108.56-5.45,314.6-39.24,417.56-74.64l1.65-.57-.34-1.71c-3.97-20.03-5.95-43.17-5.92-68.77Zm-411.31,141.59c-.95-7.6-1.53-14.71-1.74-21.15l-.07-.45c-3.83-14.38-8.79-29.89-15.14-47.32,68.86-.81,136.46-6.68,206.57-17.95,108.79-17.48,182.19-39.65,217.67-51.91,.1,24.03,2,45.88,5.65,65.02-102.6,34.89-304.77,68.07-412.96,73.76Z"/></g><g><ellipse class="ak" cx="977.59" cy="1789.75" rx="60.76" ry="38.92" transform="translate(-304.82 204.09) rotate(-10.32)"/><path class="ae" d="M977.25,1757.95c21.98-4,42.52,.13,54.97,9.56-10.61-13.89-35.08-20.88-61.6-16.05-33.01,6.01-56.65,28.03-52.8,49.18,1.29,7.07,5.53,13.11,11.78,17.85-2.6-3.4-4.39-7.2-5.15-11.36-3.85-21.15,19.79-43.17,52.8-49.18Z"/><path class="t" d="M1037.37,1778.87c-1.63-8.93-7.93-16.26-17.13-21.31,4.03,4.1,6.76,8.93,7.74,14.36,3.85,21.15-19.79,43.17-52.8,49.18-19.07,3.47-37.05,.82-49.62-6.1,11.67,11.87,34.46,17.52,59,13.05,33.01-6.01,56.65-28.03,52.8-49.18Z"/><path class="s" d="M991.37,1748.03c-6.91-.32-14.01,.17-21.12,1.46-16.34,2.97-30.98,9.87-41.23,19.42-10.49,9.77-15.17,21.17-13.18,32.09,3.1,17.04,22.38,29.29,47.96,30.48,6.91,.32,14.01-.17,21.12-1.46,16.34-2.97,30.98-9.87,41.23-19.42,10.49-9.77,15.17-21.17,13.18-32.09-3.1-17.04-22.38-29.29-47.96-30.48Zm32.05,59.64c-9.7,9.03-23.62,15.57-39.22,18.41-6.81,1.24-13.61,1.71-20.21,1.4-23.68-1.1-41.45-12.03-44.21-27.2-1.74-9.53,2.51-19.64,11.97-28.45,9.7-9.03,23.62-15.57,39.22-18.41,6.81-1.24,13.61-1.71,20.21-1.4,23.68,1.1,41.45,12.03,44.21,27.2,1.74,9.53-2.51,19.64-11.97,28.45Z"/></g></g><g><g><path class="m" d="M345.19,637.91c-58.51,52.34-18.12,195.39,102.65,182-6.41-34.34-11.12-148.17-11.12-148.17,0,0-33.03-86.17-91.54-33.83Z"/><path class="j" d="M323.84,738.65c13.97,47.21,56.38,88.76,124.01,81.26-37.68-7.76-89.45-35.71-124.01-81.26Z"/><path class="g" d="M438.73,671.66l-.13-.63c-.79-2.05-19.68-50.3-54.94-51.94-12.88-.6-26.27,5.23-39.8,17.33-26.63,23.83-34.6,67.77-19.81,109.34,16.33,45.93,54.48,74.67,102.05,76.89h0c7.1,.33,14.49,.08,21.96-.75l2.14-.24-.39-2.12c-6.31-33.81-11.04-146.75-11.08-147.89Zm-12.44,147h0c-45.9-2.14-82.71-29.89-98.47-74.23-14.24-40.06-6.72-82.27,18.71-105.02,12.72-11.38,25.15-16.87,36.94-16.32,31.3,1.46,49.65,45.06,51.28,49.08,.29,6.79,4.76,110.57,10.75,145.98-6.54,.63-12.99,.8-19.21,.51Z"/></g><path class="j" d="M390.67,675.7c-22.55,1.7-29.76,30.69-29.76,30.69,17.44-22.47,44.49-22.99,67.92-10.14,0,0-15.61-22.25-38.16-20.55Z"/><path class="g" d="M386.58,674.63c-22.26,4.22-25.66,31.76-25.66,31.76,6.64-16.43,15.51-25.79,26.39-27.83,19.54-3.65,39.68,17.46,39.89,17.68l2.92-2.74c-.88-.94-21.8-22.99-43.53-18.87Z"/><g><path class="m" d="M886.09,138.66c-125.46-.51-422.49,71.08-458.65,445.86-36.16,374.77,145.17,551.43,251.92,609.8,106.75,58.37,413.42,123.4,614-112.89,200.58-236.28,122.42-621.72,122.42-621.72-68.5-248.82-404.24-320.54-529.7-321.05Z"/><path class="j" d="M1335.4,314.81c-39.24,54.29-36.73,130.26-8.15,182.99,48.45,89.39,88.6,187.52,67.61,259.58-1.4,22.98,11.05,44.21,4.18,67.07-3.93,13.11-20.58,21.05-25.24,34.12-51.53,144.37-159.25,288.44-295.59,335.15-82.66,28.32-184.39,32.4-262.4,16.8-163.62-32.71-229.89-90.5-326.93-223.4,55.07,110.98,133.43,175.99,190.48,207.19,106.75,58.37,413.42,123.4,614-112.89,200.58-236.28,122.42-621.72,122.42-621.72-16.36-59.43-40.04-104.23-80.39-144.9Z"/><path class="g" d="M902.95,136.6c-5.86-.27-11.52-.42-16.83-.44-33.44-.13-151.31,5.42-263.95,82.55-114.72,78.56-180.9,201.4-196.69,365.12-15.96,165.39,8.47,308.28,72.61,424.71,60.66,110.1,139.03,164.45,180.34,187.04,42.83,23.42,122.27,50.01,216.78,54.42,112.91,5.26,273.9-19.57,399.7-167.76,103.98-122.49,131.84-285.5,136.9-400.68,5.48-124.7-13.84-221.77-14.07-222.87-68.19-247.71-394.73-316.48-514.79-322.07Zm388.92,943.03c-124.75,146.96-284.46,171.58-396.47,166.36-93.84-4.37-172.61-30.73-215.05-53.93-40.93-22.39-118.59-76.24-178.75-185.46-63.74-115.71-88.01-257.82-72.13-422.39,33.95-351.85,303.01-444.67,456.65-444.05,5.25,.02,10.85,.17,16.65,.44,119.26,5.56,443.56,73.73,511.09,319.01,.2,.96,19.43,97.56,13.97,221.77-5.03,114.55-32.71,276.64-135.95,398.26Z"/></g><path class="m" d="M895.03,736.38c-68.05-.67-79.06,79.94-79.47,88.67l159.37,1.41s7.39-89.22-79.91-90.08Z"/><path class="g" d="M954.59,757.14c-12.56-13.83-29.8-21.35-51.23-22.35-24.46-1.14-44.56,5.46-59.75,19.61-5.97,5.56-10.73,11.85-14.53,18.33-14.16,24.13-11.03,52.38-11.03,52.38,.01-.42,1.35-42.7,28.31-67.8,14.37-13.38,33.48-19.61,56.82-18.52,20.32,.95,36.62,8.02,48.44,21.03,23.29,25.64,21.59,66.15,21.57,66.56,0,0,5.09-25.33-5.36-48.67-3.21-7.16-7.5-14.25-13.23-20.56Z"/><g><path class="ah" d="M714.84,869.9c17.56,74.41,71.68,267.1,191.22,268.73,151.59,2.06,104.39-145.32,216.39-271.26-21.28,5.52-109.9,37.93-216.8,32.95-106.9-4.98-164.24-20.67-190.82-30.42Z"/><path class="u" d="M995.67,896.42c-27.48,3.51-57.91,5.4-90.01,3.9-34.27-1.6-63.42-4.3-88.13-7.55-34.84,22.25-38.84,108.09-31.96,161.91,29.54,46.98,68.92,83.25,120.49,83.95,65.25,.89,93.66-25.93,113.8-66.79,6.15-44.76,6.93-148.66-24.2-175.42Z"/><g><g><path class="f" d="M714.84,869.9c.1,.4,.2,.83,.3,1.24,28.26,32.93,109.49,115.55,207.87,108.08,83.18-6.31,151.56-61.82,186.95-96.86,3.94-5.02,8.09-10.02,12.5-14.99-21.28,5.52-109.9,37.93-216.8,32.95-106.9-4.98-164.24-20.67-190.82-30.42Z"/><path class="x" d="M723.09,880.11c33.66,36.83,109.53,105.98,199.92,99.12,78.16-5.93,143.24-55.29,180.17-90.3-116.72,70.14-268.36,74.88-380.09-8.82Z"/><path class="aj" d="M1109.82,868.97c-33.46,10.07-111.83,33.65-204.07,29.35-101.89-4.75-159.68-19.1-190.22-30.3l-3.48-1.28,1.26,5.33,.32,.37c26.94,31.4,99.29,104.89,188.88,109.07h0c6.89,.32,13.83,.22,20.64-.29,84.63-6.42,154.24-63.8,188.37-97.62,4.19-5.33,8.25-10.2,12.42-14.9l4.37-4.92-6.37,1.65c-2.87,.74-6.95,1.97-12.13,3.53Zm-1.28,11.97c-33.57,33.24-102.33,89.96-185.69,96.29-6.65,.5-13.43,.6-20.15,.29h0c-84.38-3.94-153.47-70.76-182.49-103.6,32.14,10.92,89.31,23.93,185.36,28.4,92.92,4.33,171.75-19.39,205.41-29.52,2.03-.61,3.89-1.17,5.57-1.67-2.7,3.17-5.35,6.44-7.99,9.81Z"/></g><g><path class="k" d="M910.04,1074.74c-36.9,.14-67.79,15.91-85.98,27.91,23.07,21.62,50.22,35.55,82,35.98,45.05,.61,72.54-11.97,91.87-33.27-21.83-14.32-54.23-30.75-87.89-30.62Z"/><path class="d" d="M910.04,1074.74c-36.9,.14-67.79,15.91-85.98,27.91,6.47,6.07,13.28,11.5,20.41,16.23,22.81-32.61,94.73-46.95,127,6.91,10.37-5.36,19.02-12.24,26.45-20.42-21.83-14.32-54.23-30.75-87.89-30.62Z"/><path class="q" d="M910.04,1072.74c-36.79,.14-67.65,15.43-87.07,28.24l-2.12,1.4,1.85,1.73c24.37,22.83,51.16,35.08,79.62,36.41h0c1.23,.06,2.47,.1,3.72,.11,42.18,.57,71.85-10.21,93.38-33.93l1.57-1.73-1.96-1.28c-21.28-13.96-54.51-31.06-89-30.95Zm-3.94,63.89c-1.2-.02-2.4-.05-3.59-.11h0c-26.76-1.25-52.04-12.55-75.19-33.6,19.05-12.19,48.26-26.05,82.74-26.18,32.46-.13,63.93,15.6,84.8,29-20.57,21.6-48.86,31.43-88.76,30.89Z"/></g></g><path class="g" d="M1109.82,868.97c-33.46,10.07-111.83,33.65-204.07,29.35-101.89-4.75-159.68-19.1-190.22-30.3l-3.49-1.28,.85,3.62c23.29,98.68,78.86,265,189.42,270.16,1.23,.06,2.47,.1,3.72,.11,92.73,1.26,112.57-53.54,137.7-122.91,16.84-46.51,35.93-99.22,80.21-149.02l4.37-4.92-6.37,1.65c-2.87,.74-6.95,1.97-12.13,3.53Zm-69.85,147.39c-25.54,70.53-44,121.49-133.88,120.27-109.13-1.46-164.68-164.53-188.45-263.6,31.63,11.09,89.27,24.69,187.92,29.29,92.92,4.33,171.75-19.39,205.41-29.52,2.02-.61,3.88-1.17,5.56-1.67-41.65,48.84-60.16,99.95-76.55,145.22Z"/></g><path class="g" d="M1171.27,542.63c-19.52-7.1-37.79-6.25-52.41-3.32-21.29,4.26-33.12,17.22-33.12,17.22,.54-.38,54.72-37.49,113.56,5.38,0,0-10.31-12.83-28.03-19.28Z"/><path class="g" d="M703.69,526.98c-20.92-8.74-42.03-9.07-59.25-7.07-23.47,2.73-38.59,14.25-38.59,14.25,.7-.34,70.49-33.09,126.61,14.91,0,0-13.31-15.63-28.78-22.1Z"/><g><path class="al" d="M690.65,408.05c-58.56-3.74-120.96,60.44-134.75,112.83,46.84-45.5,146.27-73.58,190.63-51.48,13.64-31.4-16.6-58.83-55.88-61.34Z"/><path class="r" d="M566.07,495.12c-6.87,11.49-7.22,14.57-10.17,25.76,46.84-45.5,146.27-73.58,190.63-51.48,4.63-10.66,6.53-14.09,2.41-23.02-38.43-25.92-142.04,6-182.87,48.74Z"/><path class="p" d="M690.78,406.06l-1.35-.07c-57.65-2.69-121.25,60.38-135.47,114.39l-1.83,6.95,5.16-5.01c35.6-34.58,105.52-60.81,155.86-58.46,13,.61,23.92,3.07,32.48,7.34l1.89,.94,.84-1.93c5.33-12.26,4.57-24.57-2.17-35.6-9.81-16.05-31.05-26.98-55.42-28.54Zm54.69,60.62c-8.74-3.94-19.53-6.24-32.13-6.83-48.86-2.28-115.83,21.86-153.43,54.63,17.13-50.91,75.91-106.99,129.34-104.5l1.28,.07c23.1,1.47,43.12,11.68,52.26,26.64,5.68,9.29,6.6,19.62,2.69,30Z"/></g><g><path class="al" d="M1109.42,421.75c-40.87,6.38-69.81,38.71-52.42,71.2,44.25-27.91,151.11-7.04,204.65,37.5-19.62-55.04-91.29-118.21-152.23-108.7Z"/><path class="r" d="M1054.32,467.68c-3.25,9.85-3.13,14.41,2.68,25.26,44.25-27.91,151.11-7.04,204.65,37.5-4.19-11.76-5.03-11.37-13.36-23.09-58.82-57.37-155.15-63.53-193.97-39.67Z"/><path class="p" d="M1126.16,418.89c-5.82-.27-11.56,.02-17.05,.88-24.94,3.89-45.93,17.35-54.79,35.13-6.29,12.63-5.98,26.11,.91,38.99l1.01,1.89,1.82-1.15c14.59-9.2,36.77-13.39,64.15-12.12,49.87,2.32,105.39,22.2,138.15,49.46l5.62,4.67-2.45-6.88c-17.91-50.25-78.73-108.15-137.37-110.89Zm-3.76,59.64c-27.07-1.26-49.34,2.74-64.6,11.59-5.31-11.11-5.29-22.62,.1-33.43,8.29-16.64,28.15-29.27,51.83-32.97,5.23-.81,10.69-1.1,16.25-.84,52.85,2.46,110.72,54.15,131.1,101.4-33.87-25.38-86.85-43.53-134.67-45.76Z"/></g><g><path class="al" d="M1337.15,272.65c-4.41-34.25-94.16-256.7-376.39-269.85-282.23-13.15-392.23,148.59-419.8,224.73-266.95,142.41-117.41,446.59-117.41,446.59,5.21-51.26,13.36-140.39,84.27-222.53,44.1-51.08,80.37-120.4,78.55-167.21,0,0,67.96,31.2,192.43-20.4,124.47-51.6,251.05-35.69,283.53-.13s-10.31,111.66,76.75,112.71c-55.04-43.61,29.57-22.15,75.13-129.66,0,0,45.19,72.19,103.24,104.93-16.84,91.17,24.23,146.11,65.9,216.81,52.09,88.37,40.66,146.31,42.14,178.06,114.42-171.52-13.43-448.53-88.33-474.05Z"/><path class="e" d="M586.41,227.94c91.5,34.16,175.72-57.47,333.38-35.25-130.71-56.83-247.52,32.57-333.38,35.25Z"/><path class="e" d="M1417.04,518.86c13.95-61.03-4.91-121.63-28.67-147.75,.87,8.88,8.13,35.72,10.61,49.41-10.68-16.27-19.2-44.02-31.27-72.78-5.69,41.41,9.98,101.35,21.27,125.66-4-24.6-4.7-49.81-3.32-58.41,13.61,26.44,30.68,65.42,31.39,103.87Z"/><path class="e" d="M540.15,284.62c-27.56,48.38-69.27,68.26-89.03,86.23,5.08-25.51,37.4-83.81,41.7-96.14-40.38,25.51-95.47,118.54-91.16,261.7,14.63-54.94,47.96-129.49,75.18-160.62-1.27,13.07-1.16,27.94-15.15,61.29,23.43-29.24,71.15-90.02,78.47-152.47Z"/><path class="e" d="M795.02,30.45c191.42-39.8,384.24,15.91,443.46,138.81-75.69-66.94-249.2-96.38-306.25-89.7,48.49,12.24,213.63,70.86,189.89,179.17-45.54-158.43-263.28-79.6-354.78-128.54,86.11,7.11,136.72-8.59,200.94-1.56-48.23-31.43-216.12-59.47-373.39,49.52C729.19,25.05,996.61,38.19,1091.73,80.32c-46.25-38.87-214.38-54.71-296.71-49.87Z"/><path class="r" d="M423.43,675.59c.05,.11,.1,.22,.14,.33-.04-.09-.1-.22-.14-.33Z"/><path class="r" d="M422.92,674.38c.06,.14,.14,.33,.23,.54-.07-.17-.15-.35-.23-.54Z"/><path class="r" d="M423.15,674.92c.11,.25,.2,.47,.28,.67-.1-.23-.19-.46-.28-.67Z"/><path class="r" d="M422.87,674.26s.03,.08,.05,.12c-.02-.05-.04-.08-.05-.12Z"/><path class="r" d="M422.79,674.08s.03,.07,.08,.18c-.03-.06-.05-.11-.08-.18Z"/><path class="r" d="M942.08,183.02c-2.57-.7-4.79-1.15-6.43-1.23,2.18,.4,4.31,.81,6.43,1.23Z"/><path class="r" d="M423.58,675.92c.18,.43,.3,.7,.37,.86-.08-.19-.22-.51-.37-.86Z"/><path class="r" d="M1436.97,570.96c-25.88,7.95-94.23-85.26-110.82-183.35-6.88-40.7,13.62-79.8,8.62-125.31-18.08,89.49-86.43-65.94-170.04-113.58,45.74,68.64,26.82,124.16-30.79,171.53-12.88,11.41-27.66,24.24-23.81,38.27-26.19-5.52-17.38-65.83-29.09-88.59-21.72-42.23-57.77-70.96-138.96-86.91,16.23,4.4,47.78,19.41,54.67,23.04-229.69-19.87-290.45,95.26-425.27,58.87-12.48,114.87-84.72,163.04-111.25,215.43-40.32,68.76-40.42,130.01-37.44,193.74,5.21-51.26,13.36-140.39,84.27-222.53,44.1-51.08,80.37-120.4,78.55-167.21,0,0,67.96,31.2,192.43-20.4,124.47-51.6,251.05-35.69,283.53-.13,32.48,35.56-10.31,111.66,76.75,112.71-55.04-43.61,29.57-22.15,75.13-129.66,0,0,45.19,72.19,103.24,104.93-16.84,91.17,24.23,146.11,65.9,216.81,52.09,88.37,40.66,146.31,42.14,178.06,36.73-55.06,75.85-158.69,13.17-331.82,24.42,75.34,18.69,150.09-.93,156.11Z"/><path class="r" d="M423.94,676.78c.1,.23,.11,.27,0,0h0Z"/><path class="p" d="M1338.21,271.13c-3.36-21.11-28.34-83.55-84.37-142.73C1202.35,74.02,1109.59,7.73,960.1,.77c-123.5-5.76-226.68,20.91-306.67,79.26-75.28,54.92-105.26,119.9-114.85,146.06-138.21,74.08-162.88,192.13-159.19,278.19,3.99,93.19,41.23,169.92,41.6,170.69l3.08,6.26,.93-9.14c5.27-51.89,14.08-138.73,83.57-219.23,39.96-46.28,79.42-114.87,79.1-165.54,6.08,2.23,21.6,6.97,46.24,8.12,30.09,1.4,79.66-2.6,144.89-29.65,57.03-23.64,120.32-35.18,178.21-32.48,47.67,2.22,87.16,14.42,103.08,31.85,11.44,12.53,13.23,30.83,14.96,48.53,2.99,30.61,6.07,62.25,58.39,64.69h.01c1.56,.07,3.19,.12,4.84,.14l5.86,.07-4.59-3.64c-12.1-9.59-17.41-16.03-17.23-20.9,.2-5.41,7.56-10.39,17.75-17.29,19.21-13.01,51.08-34.58,73.72-85.69,9.44,14.2,50.33,72.79,100.66,101.76-14.67,81.98,17.15,134.83,53.95,195.97,4.11,6.82,8.27,13.74,12.44,20.82,43.32,73.48,42.43,125.18,41.84,159.39-.11,6.71-.22,12.51,.03,17.75l.28,6.08,3.38-5.06c76.12-114.12,39.22-259.43,19.82-316.61-27.1-79.88-72.32-146.77-108.01-160.03Zm88.38,469c-.01-3.4,.05-7.06,.12-11.05,.59-34.66,1.5-87.03-42.39-161.49-4.18-7.09-8.35-14.03-12.46-20.86-36.6-60.79-68.21-113.29-53.19-194.58l.26-1.4-1.24-.7c-56.93-32.11-102.08-103.54-102.53-104.25l-2.04-3.25-1.5,3.54c-22.25,52.49-53.25,73.48-73.76,87.37-11.58,7.84-19.23,13.02-19.51,20.45-.21,5.66,3.95,11.75,14.14,20.42-47.75-2.67-50.53-31.02-53.45-61.02-1.79-18.35-3.64-37.33-15.98-50.84-16.86-18.45-56.42-30.84-105.85-33.15-58.47-2.72-122.36,8.92-179.93,32.78-64.56,26.76-113.49,30.73-143.17,29.35-30.97-1.44-47.5-8.85-47.66-8.92l-2.96-1.35,.13,3.25c1.65,42.49-30.45,110.68-78.06,165.83-68.06,78.83-78.58,163.45-84,216.28-8.97-20.52-34.91-85.93-38.17-162.54-3.61-85.01,20.83-201.68,157.76-274.73l.68-.36,.26-.72c9.17-25.32,38.61-90.14,113.71-144.92C735.03,25.46,837.35-.95,959.92,4.76c148.15,6.91,240.03,72.54,291.02,126.39,57.61,60.84,81.35,125.17,83.48,141.71l.16,1.24,1.18,.4c34.78,11.85,79.65,78.27,106.68,157.94,18.9,55.71,54.61,195.9-15.85,307.68Z"/></g><path class="p" d="M1164.73,148.72c.71,.61,70.41,61.28,40.06,111.98l3.43,2.05c11.61-19.4,9.56-40.02,2.17-58.46-13.02-32.49-45.66-55.58-45.66-55.58Z"/><path class="p" d="M1003.9,207.58c-32.67-18.93-68.25-25.79-68.25-25.79,1.03,.31,102.99,32.05,129.37,89.99l3.64-1.66c-12.06-26.49-38.62-47.39-64.77-62.54Z"/><path class="p" d="M1326.85,247.63c17.03,48.96-4.58,101.86-4.8,102.39,0,0,26.11-53.27,8.57-103.7l-3.78,1.31Z"/><path class="g" d="M847.6,1158.56s9.52,11,27.81,16.8c10.14,3.22,22.37,5.91,35.94,6.54,6.61,.31,13.57,.31,20.71-.72,20.47-2.97,34.66-13.8,34.66-13.8-62.29,28.24-118.56-8.45-119.13-8.82Z"/><path class="m" d="M1148.85,848.83c-19.64-18.94-58.68-6.95-72.39,4.42,0,0,35.77,7.8,38.34,64.14,15.69-8.69,53.68-49.63,34.04-68.57Z"/><path class="g" d="M1097.49,864.15c-10.75-9.78-21.03-10.9-21.03-10.9,.32,.12,32.38,12.29,38.34,64.14,0,0,1.72-14.26-1.86-26.39-3.58-12.12-9.74-21.65-15.46-26.86Z"/><path class="m" d="M665.82,840.42c-14.01,21.37,15.31,71.47,33.67,78.45,10.59-54.2,47.58-63.79,47.58-63.79,0,0-67.24-36.04-81.25-14.66Z"/><path class="g" d="M708.59,886.9c-9.44,18.94-9.1,31.97-9.1,31.97,14.67-51.6,48.14-63.63,48.48-63.75,0,0-11.22-.52-24.57,12.31-5.03,4.84-10.68,11.17-14.81,19.46Z"/><g><path class="m" d="M1505.6,680.99c-83.89-25.94-112.67,75.85-112.67,75.85l-19.13,101.73c70.57,21.14,120.68-5.24,147.69-43.77,34.74-49.55,31.3-119.22-15.89-133.81Z"/><path class="j" d="M1382.02,862.3l-.02,.16c129.31,31.34,188.02-100.58,153.1-158.38,9.59,93.54-71.61,151.83-153.08,158.22Z"/><path class="g" d="M1506.19,679.08c-22.63-7-43.43-5.48-61.81,4.51-8.67,4.71-16.11,10.9-22.45,17.68-21.71,23.22-27.07,56.12-27.07,56.12,.14-.5,14.56-50.25,51.43-70.28,17.4-9.45,37.15-10.86,58.72-4.2,37.22,11.51,43.62,55.05,33.82,90.63-12.21,44.34-49.18,85.5-105.88,91.02-15.4,1.5-29.31,.91-59.15-5.98,0,0,21.35,9.13,39.39,10.48,19.86,1.92,48.15-4.39,66.92-14.45,32.26-17.3,53.72-47.85,62.58-80,12.59-45.7-2.42-84.98-36.5-95.51Z"/></g><path class="j" d="M1444.02,727.51c-12.45,10.17-29.13,36.86-32.55,51.55,26.47-35.81,49.88-54.01,65.7-46.89,22.88,10.3,17.3,29.73,8.43,48.18,0,0,34.18-28.11,14.82-49.54-19.36-21.43-43.96-13.47-56.41-3.3Z"/><path class="g" d="M1486.56,718.82c-10.01-4.57-20.13-4.86-30.09-.85-6.99,2.82-13.34,7.5-18.97,13.04-18.12,17.82-25.66,47.38-25.66,47.38,.18-.45,18.23-45.46,46.12-56.7,8.9-3.58,17.96-3.33,26.94,.77,11.36,5.19,17.81,12.06,19.17,20.43,2.87,17.63-17.33,36.75-17.53,36.94,0,0,24.69-17.83,21.48-37.57-1.59-9.77-8.81-17.65-21.46-23.43Z"/><path class="j" d="M1438.86,763.15c-17.83,6.68-27.7,22.82-27.7,22.82,7.37-5.41,36.03-24.74,52.73-11.29,0,0-7.19-18.21-25.03-11.53Z"/><path class="g" d="M1449.14,760.24c-1.67-.08-3.34-.08-5.01,.14-17.7,2.25-32.98,25.59-32.98,25.59,.2-.23,20.11-22.57,37.16-21.77,.18,0,.35,.02,.53,.03,5.85,.44,10.57,3.58,14.45,9.59,0,0-3.64-13.1-14.16-13.58Z"/><g><g><path d="M1142.73,573.58c-79.66,2.26-105.48,105.9-91.18,149.06,14.11,42.57,157.9,54.34,184.13,3.72,20.32-39.23-1.84-155.37-92.94-152.78Z"/><path class="f" d="M1142.41,582.45c-78.76,2.02-104.11,100.68-89.9,141.8,14.02,40.57,156.22,52.02,182.06,3.86,20.02-37.32-2.09-147.97-92.16-145.66Z"/><path class="aa" d="M1052.35,695.91c-1.19-.79-2.31-1.66-3.46-2.49-.49,11.78,.74,22.5,3.62,30.83,14.02,40.57,156.22,52.02,182.06,3.86,6.61-12.32,8.59-32.65,5.09-54.25-43.72,57.75-126.47,57.98-187.3,22.05Z"/><path d="M1139.16,761.46h-.01c-37.15-1.73-80.7-13.91-88.52-36.55-8.53-24.68-3.34-70.43,20.11-104.25,12.35-17.82,34.81-39.26,71.63-40.2,2.6-.07,5.2-.04,7.73,.08,41.33,1.93,64.22,27.4,76.15,48.44,20.25,35.7,21,79.75,10.09,100.09-14.25,26.57-59.54,34.16-97.18,32.41Zm10.75-176.94c-2.43-.11-4.93-.14-7.44-.07-35.15,.9-56.62,21.43-68.45,38.48-22.73,32.78-27.82,76.93-19.61,100.67,6.18,17.89,41.11,31.82,84.93,33.86h.01c34.75,1.62,80.07-5.34,93.46-30.3,10.41-19.4,9.53-61.71-10.05-96.22-11.43-20.16-33.35-44.57-72.86-46.41Z"/></g><g><ellipse class="i" cx="1145.95" cy="678.36" rx="61.49" ry="54.01" transform="translate(414.96 1791.48) rotate(-87.33)"/><path class="n" d="M1092,675.85c-1.58,33.93,21.29,62.55,51.09,63.94,29.79,1.39,55.23-24.99,56.81-58.91-23.63,41.49-81.65,40.46-107.9-5.03Z"/><path d="M1146.32,641.68c-19.88-.93-36.85,16.67-37.91,39.31-1.06,22.64,14.21,41.74,34.09,42.66,19.88,.93,36.85-16.67,37.91-39.31,1.06-22.64-14.21-41.74-34.09-42.66Z"/><path class="w" d="M1148.91,614.94c-30.85-1.44-57.27,25.84-58.9,60.82-1.63,34.97,22.14,64.6,52.99,66.03,30.85,1.44,57.27-25.85,58.9-60.82,1.63-34.97-22.14-64.59-52.99-66.03Zm-5.73,122.85c-28.65-1.34-50.71-29.08-49.18-61.85,1.53-32.77,26.07-58.34,54.72-57.01,28.65,1.34,50.71,29.08,49.18,61.85-1.53,32.77-26.07,58.34-54.72,57.01Z"/></g><path class="f" d="M1131.12,631.87c-9.64-.45-17.82,7-18.27,16.64-.45,9.64,7,17.82,16.64,18.27,9.64,.45,17.82-7,18.27-16.64,.45-9.64-7-17.82-16.64-18.27Z"/><path class="f" d="M1156.43,708.56c-5.39-.25-9.97,3.92-10.22,9.31-.25,5.39,3.92,9.97,9.31,10.22,5.39,.25,9.97-3.92,10.22-9.31,.25-5.39-3.92-9.97-9.31-10.22Z"/></g><g><g><path d="M674.08,549.32c76.43,9.54,91.8,115.1,74.09,156.76-17.46,41.1-156.89,39.67-177.48-13.13-15.96-40.92,15.98-154.54,103.39-143.63Z"/><path class="f" d="M673.58,558.17c75.59,9.21,90.96,109.77,73.52,149.42-17.2,39.11-155.05,37.51-175.51-12.81-15.85-38.99,15.54-147.14,101.98-136.61Z"/><path class="aa" d="M749.85,679.38c1.22-.68,2.37-1.44,3.56-2.16-.61,11.77-2.77,22.33-6.3,30.37-17.2,39.11-155.05,37.51-175.51-12.81-5.23-12.87-5.28-33.29,.07-54.48,36.78,61.5,116.37,69.3,178.18,39.09Z"/><path d="M569.81,695.56c-8.64-21.25-3.88-65.04,18.86-98.74,13.4-19.85,37.76-43.13,77.69-41.27,2.44,.11,4.95,.33,7.44,.63,35.34,4.31,54.98,27.71,65.24,46.58,19.47,35.82,20.27,81.85,9.81,105.65-9.6,21.83-52.61,29.97-88.51,28.3h-.01c-36.37-1.7-79.24-13.4-90.53-41.16Zm22.03-96.46c-21.99,32.58-26.71,74.62-18.47,94.89,10.6,26.08,53.57,37.16,87.15,38.72h.01c42.35,1.97,77.22-8.7,84.81-25.95,10.07-22.89,9.2-67.32-9.66-102.03-9.82-18.07-28.6-40.47-62.33-44.58-2.4-.29-4.81-.5-7.16-.61-38.18-1.78-61.5,20.53-74.34,39.55Z"/></g><g><ellipse class="i" cx="661.54" cy="653.37" rx="61.49" ry="52.19" transform="translate(-21.92 1283.77) rotate(-87.33)"/><path class="n" d="M609.41,650.94c-1.58,33.93,20.48,62.51,49.27,63.86,28.79,1.34,53.41-25.07,55-59-22.9,41.53-78.97,40.58-104.26-4.86Z"/><ellipse cx="663.74" cy="657.84" rx="41.03" ry="34.82" transform="translate(-24.29 1290.24) rotate(-87.33)"/><path class="w" d="M664.5,589.94c-29.81-1.39-55.39,25.93-57.02,60.9-1.63,34.97,21.3,64.56,51.11,65.95,29.81,1.39,55.39-25.93,57.02-60.91,1.63-34.97-21.3-64.55-51.11-65.94Zm-5.73,122.85c-27.68-1.29-48.96-29-47.43-61.77,1.53-32.77,25.29-58.38,52.97-57.09,27.68,1.29,48.96,29,47.43,61.77-1.53,32.77-25.29,58.38-52.97,57.09Z"/></g><path class="f" d="M648.83,605.23c-9.64-.45-17.82,7-18.27,16.64-.45,9.64,7,17.82,16.64,18.27,9.64,.45,17.82-7,18.27-16.64,.45-9.64-7-17.82-16.64-18.27Z"/><path class="f" d="M674.14,681.92c-5.39-.25-9.97,3.92-10.22,9.31-.25,5.39,3.92,9.97,9.31,10.22,5.39,.25,9.97-3.92,10.22-9.31,.25-5.39-3.92-9.97-9.31-10.22Z"/></g></g></g></g></g></svg>