<?xml version="1.0" encoding="UTF-8"?><svg xmlns="http://www.w3.org/2000/svg" viewBox="0 0 2111.13 3267.26"><defs><style>.d{fill:#fff;}.e{fill:#ce1d3b;}.f{fill:#4c1411;}.g{fill:#6b221c;}.h{fill:#003084;}.i{fill:#dbdbdb;}.j{fill:#562102;}.k{fill:#fff8b6;}.l{fill:#300606;}.m{fill:#190404;}.n{fill:#0092ff;}.o{fill:#ffce76;}.p{fill:#66061b;}.q{fill:#ffaf10;}.r{fill:#005dcc;}.s{fill:#995c33;}.t{fill:#260c00;}.u{fill:#6c2e03;}.v{fill:#420b0b;}.w{fill:#f7e608;}.x{fill:#120000;}.y{fill:#f9c89f;}.a`{fill:#93433f;}.aa{fill:#e88400;}.ab{fill:#ed2e45;}.ac{fill:#87402c;}.ad{fill:#995300;}.ae{fill:#edb503;}.af{fill:#843d03;}.ag{fill:#ff7b7b;}.ah{fill:#eca77f;}</style></defs><g id="a"/><g id="b"><g id="c"><g><g><g><path class="v" d="M1953.82,2498.99c-9-9.23-581.75-1159.27-581.75-1159.27l-316.94-59.07-316.19,59.07S166.18,2489.77,157.17,2498.99c-9,9.23-44.17,333.46-44.17,333.46,0,0,127.84-22.37,212.95,31.3,53.45,33.71,115.9,145.66,240.98,148.07,101.18,1.95,200.99-58.22,278.24-45.44,56.34,9.32,114.29,67.11,209.94,70.72,95.65-3.61,154.35-61.39,210.69-70.72,77.24-12.78,177.06,47.38,278.24,45.44,125.08-2.41,187.53-114.36,240.98-148.07,85.11-53.67,212.95-31.3,212.95-31.3,0,0-35.16-324.23-44.17-333.46Z"/><path class="l" d="M113.01,2832.45s127.84-22.37,212.95,31.3c53.45,33.71,115.9,145.66,240.98,148.07,101.18,1.95,200.99-58.22,278.24-45.44,56.34,9.32,114.29,67.11,209.94,70.72,95.65-3.61,154.35-61.39,210.69-70.72,77.24-12.78,177.06,47.38,278.24,45.44,125.08-2.41,187.53-114.36,240.98-148.07,85.11-53.67,212.95-31.3,212.95-31.3,0,0-35.16-324.23-44.17-333.46-1.04-1.07-413.9-823.38-428.31-851.52,19.2,359.57,334.25,1044.02,172.06,1088.85-103.44,28.59-335.62-557.07-441.39-533-105.77,24.08-56.05,694.73-200.61,685.23-146.66-9.63-109.36-805.28-200.75-807.69-91.39-2.41-165.21,806.25-344.62,745.56-59.41-20.1-79.24-59.99-138.93-134.88-117.42-147.33,304.24-1133.44,219.41-1034.52-6.21,7.25-375.2,753.26-383.55,745.53-29.73,58.64-48.39,94.84-49.95,96.44-9,9.23-44.17,333.46-44.17,333.46Z"/><path class="x" d="M1055.2,3039.51c-58.48-2.21-102.45-24.17-141.23-43.54-25.32-12.65-47.19-23.57-69.13-27.2-39.39-6.51-85.24,6.3-133.79,19.88-46.64,13.04-94.9,26.6-144.15,25.59-90.1-1.73-147.18-58.92-193.04-104.87-18.21-18.24-33.94-34-49.05-43.53-83.44-52.62-210.17-31.22-211.45-31l-2.94,.52,.34-3.17c5.89-54.28,35.72-325.56,44.84-334.92,11.85-15.29,575.63-1147.23,581.32-1158.66l.52-1.04,317.66-59.34,.39,.07,318.03,59.27,.52,1.04c5.69,11.43,569.2,1142.82,581.4,1158.74,9.21,10.73,38.9,280.7,44.77,334.84l.34,3.17-2.94-.52c-1.27-.22-128.03-21.6-211.45,31-15.11,9.53-30.83,25.28-49.04,43.53-45.87,45.95-102.95,103.14-193.04,104.87-49.22,.99-97.51-12.54-144.15-25.59-48.54-13.58-94.39-26.38-133.79-19.88-21.92,3.63-43.9,14.54-69.34,27.18-39.03,19.38-83.26,41.36-141.61,43.56Zm-232.88-77.31c7.93,0,15.67,.56,23.2,1.81,22.57,3.73,45.78,15.33,70.35,27.6,38.39,19.18,81.91,40.92,139.32,43.09,57.28-2.17,101.08-23.92,139.72-43.12,24.68-12.26,47.99-23.84,70.55-27.57,40.32-6.67,86.6,6.28,135.61,19.98,46.35,12.95,94.31,26.44,142.93,25.43,88.36-1.7,144.74-58.18,190.04-103.57,18.4-18.44,34.3-34.37,49.84-44.16,77.68-48.99,191.83-34.95,211.52-32.06-13.97-128.46-36.74-319.83-43.21-328.95-10.92-13.16-520.65-1036.39-581.6-1158.78l-315.48-58.8-314.72,58.8c-61.07,122.63-572.69,1149.63-581.66,1158.84-6.4,8.96-29.18,200.39-43.15,328.89,19.69-2.89,133.85-16.93,211.52,32.06,15.53,9.79,31.43,25.72,49.84,44.16,45.3,45.39,101.68,101.87,190.04,103.57,48.76,1.03,96.58-12.47,142.93-25.43,39.85-11.14,77.9-21.79,112.41-21.79Z"/></g><g><path class="g" d="M761.48,1188.12c-43.09,20.08-212.72,256.39-273.48,440.52-57.97,175.67-430.48,821.8-477.85,967.87-47.38,146.06,130.53,357.93,252.06,390.04-39.01-91.49-66.76-303.36,3-464.67,69.77-161.31,230.3-555.56,285.06-730.41,54.76-174.85,309.07-551.25,309.07-551.25l-34.51-65.01-63.34,12.92Z"/><path class="a`" d="M505.88,1635.04c57.16-173.21,204.66-400.01,270.26-449.91l-14.66,2.99c-43.09,20.08-212.72,256.39-273.48,440.52-57.97,175.67-430.48,821.8-477.85,967.87-9.62,29.65-9.95,62.02-3.36,95.04,.69-2.51,1.42-5.03,2.24-7.56-1.59-56.48,60.75-177.48,134.64-322.62,136.09-267.31,324.64-612.47,362.21-726.32Z"/><path class="f" d="M824.82,1175.2l-4.88,33.71c-133.34,20.06-249.59,376.73-300.5,550.74-51.49,175.99-220.49,545.54-290.26,706.85-69.76,161.3-87.77,308.1-220.16,235.12,30.5,126.72,158.81,260.01,253.17,284.93-39.01-91.49-66.76-303.36,3-464.67,69.77-161.31,230.3-555.56,285.06-730.41,54.76-174.85,309.07-551.25,309.07-551.25l-34.51-65.01Z"/><path class="m" d="M266.18,2990.07l-4.52-1.19c-78.33-20.69-175.88-112.13-226.92-212.7-23.73-46.76-47.62-116.03-26.72-180.46,22.83-70.38,119.9-254.59,222.68-449.61,110.68-210.02,225.13-427.2,255.18-518.27,59.68-180.84,228.09-420.19,274.71-441.92l.48-.16,64.92-13.24,36.02,67.85-.85,1.25c-2.54,3.76-254.73,378.09-308.76,550.6-53.92,172.17-211.88,561.23-285.15,730.66-68.79,159.07-42.46,370.11-2.99,462.66l1.93,4.53Zm495.98-1799.63c-40.26,19.35-210.94,253.89-272.03,439-30.18,91.46-144.73,308.82-255.51,519.03-102.67,194.83-199.65,378.85-222.35,448.82-20.36,62.77,3.13,130.67,26.43,176.58,49.51,97.58,143.1,186.43,219.54,209.07-38.72-95.6-63.35-304.24,4.92-462.09,73.24-169.34,231.1-558.16,284.97-730.17,52.66-168.16,292.29-526.46,308.53-550.63l-33-62.17-61.51,12.55Z"/></g><g><path class="g" d="M1349.65,1188.45c43.09,20.08,212.72,256.39,273.48,440.52,57.97,175.67,430.48,821.8,477.85,967.87,47.38,146.06-130.53,357.93-252.05,390.04,39.01-91.49,66.76-303.36-3-464.67-69.77-161.31-230.3-555.56-285.06-730.41-54.76-174.85-309.07-551.25-309.07-551.25l34.51-65.01,63.34,12.92Z"/><path class="a`" d="M1611.27,1635.04c57.97,175.67,421.73,831.07,477.95,973.5,11.08,28.07,15.71,55.88,15.19,82.95,6.52-32.89,6.16-65.12-3.43-94.66-47.38-146.06-419.88-792.2-477.85-967.87-60.76-184.12-230.39-420.43-273.48-440.52l-63.34-12.92,52.24,20.07c43.64,19.33,211.96,255.32,272.72,439.44Z"/><path class="f" d="M1286.31,1175.53l4.88,33.71c133.34,20.06,249.59,376.73,300.5,550.74,51.49,175.99,220.49,545.54,290.26,706.85,69.76,161.3,87.77,308.1,220.16,235.12-30.5,126.72-158.81,260.01-253.17,284.93,39.01-91.49,66.76-303.36-3-464.67-69.77-161.31-230.3-555.56-285.06-730.41-54.76-174.85-309.07-551.25-309.07-551.25l34.51-65.01Z"/><path class="m" d="M1846.88,2985.87c39.46-92.55,65.8-303.6-2.99-462.66-73.28-169.43-231.23-558.49-285.16-730.66-54.03-172.51-306.22-546.84-308.76-550.6l-.85-1.25,36.02-67.85,64.92,13.24,.48,.16c46.62,21.73,215.03,261.08,274.71,441.92,30.05,91.06,144.5,308.24,255.18,518.27,102.77,195.02,199.85,379.23,222.68,449.61,20.9,64.43-3,133.7-26.72,180.46-51.03,100.57-148.59,192.01-226.91,212.7l-4.52,1.19,1.93-4.53Zm-559.41-1807.65l-33,62.17c16.24,24.17,255.87,382.48,308.53,550.63,53.87,172.01,211.74,560.83,284.97,730.17,68.27,157.85,43.64,366.48,4.92,462.09,76.44-22.64,170.03-111.49,219.54-209.07,23.3-45.9,46.79-113.81,26.43-176.58-22.7-69.98-119.67-254-222.35-448.82-110.78-210.21-225.32-427.57-255.51-519.03-61.09-185.12-231.77-419.65-272.03-439l-61.51-12.55Z"/></g><g><g><path class="y" d="M651.53,2402.29c-2.68,35.23-24.01,128.41-30.76,149.27-6.75,20.87-49.51,102.73-45.76,161.31,77.27,45.74,168.04,93.09,168.04,93.09,0,0,39.76-110.75,45.76-140.44,42.38-22.47,75.02-105.13,63.76-177.36-46.51-51.36-201.04-85.87-201.04-85.87Z"/><path class="ah" d="M852.57,2488.16c-9.39-10.37-23.21-20.03-39.24-28.88,21.88,87.81-8.46,230.12-105.84,172.94,12.26,31.39,50.6,31.09,46.44,33.3-5.46,27.04-29.3,113.25-33.53,128.47,14.08,7.5,22.65,11.97,22.65,11.97,0,0,39.76-110.75,45.76-140.44,42.38-22.47,75.02-105.13,63.76-177.36Z"/><path class="ac" d="M744.27,2809.28l-2.21-1.15c-.91-.48-91.71-47.9-168.14-93.15l-1.07-.63-.08-1.31c-2.98-46.62,23.32-108.31,37.45-141.45,3.92-9.19,7.01-16.44,8.43-20.81,6.69-20.68,27.94-113.2,30.64-148.68l.21-2.72,2.49,.56c6.34,1.42,155.74,35.24,202.2,86.55l.49,.54,.11,.74c10.88,69.82-19.58,154.85-64.02,179.39-6.67,31.03-44.02,135.2-45.63,139.68l-.88,2.45Zm-167.09-97.88c69.45,41.06,150.34,83.73,164.64,91.24,5.88-16.49,39.38-110.91,44.78-137.63l.23-1.13,.97-.52c43.25-22.92,73-105.72,62.66-174.06-42.85-46.44-177.01-79.4-196.93-84.08-3.53,37.58-24.07,126.81-30.64,147.13-1.49,4.59-4.62,11.94-8.59,21.25-13.83,32.44-39.47,92.55-37.13,137.81Z"/></g><path class="ac" d="M771.81,2670.74c-12.69,0-27.11-3.59-39.78-10.1-21.43-10.96-24.54-28.41-24.54-28.41,14.03,26.07,57.98,39.8,80.55,31.04l1.54,4.52c-5.14,2-11.23,2.96-17.77,2.96Z"/><g><path class="ab" d="M563.01,2694.41c2.25-.8,124.53-49.76,129.78-48.15,5.25,1.61,72.02,120.38,72.02,120.38,0,0-104.37,282.5-113.27,306.57,16.5,24.88,57.76,98.71,52.51,142.05-5.25,43.34-98.27,52.17-147.78,48.96-49.51-3.21-110.27-10.43-118.53-59.39-8.25-48.95,61.26-116.13,70.52-158.1,9.26-41.97,54.76-352.32,54.76-352.32Z"/><path class="ag" d="M449.74,3202.62c-8.25-48.95,63.88-110.31,73.14-152.28,8.07-36.59,64.09-301.75,75.53-369.88-19.58,7.67-34.62,13.67-35.4,13.95,0,0-45.5,310.35-54.76,352.32-9.26,41.97-78.77,109.15-70.52,158.1,5.84,34.63,37.95,48.36,73.76,54.58-27.4-5.46-56.21-23.89-61.76-56.79Z"/><path class="e" d="M764.81,2766.64s-11.29-20.09-24.95-43.84c-18.85,59.94-106.08,338.6-107.08,365.27-1.69,15.74,53.45,70.62,48.2,113.96-5.25,43.34-75.2,65.41-124.71,62.2,49.51,3.21,142.53-5.62,147.78-48.96,5.25-43.34-36.01-117.17-52.51-142.05,8.91-24.08,113.27-306.57,113.27-306.57Z"/><path class="p" d="M576.61,3267.26c-7.17,0-14.06-.22-20.48-.64-38.96-2.53-111.48-7.23-120.6-61.37-5.11-30.34,17.65-65.84,39.65-100.17,14.03-21.88,27.28-42.55,30.88-58.91,9.13-41.4,54.27-349.04,54.73-352.13l.21-1.44,1.3-.47c.33-.12,2.82-1.11,6.9-2.72,118.98-47.08,122.39-46.03,124.21-45.46,5.31,1.63,48.22,76.79,73.33,121.45l.57,1.02-.41,1.11s-101.36,274.35-112.83,305.36c16.99,25.93,57.5,98.91,52.2,142.68-4.71,38.82-75.22,51.69-129.67,51.69Zm-11.58-571.07c-3.35,22.79-45.74,310.96-54.59,351.09-3.8,17.23-17.28,38.26-31.56,60.52-20.49,31.97-43.72,68.2-38.94,96.59,7.47,44.31,60.38,53.78,116.45,57.42,45.25,2.94,140.3-4.67,145.41-46.86,5.19-42.85-35.86-115.84-52.11-140.35l-.71-1.06,.45-1.21c8.58-23.2,105.77-286.26,112.87-305.47-24.5-43.56-64.25-112.43-70.22-118.21-3.74,.41-25.14,7.22-121.33,45.28-2.58,1.02-4.54,1.79-5.73,2.26Z"/></g><path class="p" d="M647.21,3079.59c.59-2.38,1.32-4.83,2.23-7.27l4.18,1.79c-5.45,14.62-4.04,29.55-4.03,29.7,0,0-5.59-11.27-2.39-24.22Z"/><g><path class="w" d="M742.72,2826.43c13.02-35.23,22.09-59.78,22.09-59.78,0,0-66.76-118.78-72.02-120.38-5.25-1.6-127.53,47.35-129.78,48.15,0,0-3.75,25.56-9.31,62.96,35.4-16.6,116.58-54.94,116.58-54.94l72.43,123.99Z"/><path class="k" d="M596.14,2681.36c-.61,.24-1.21,.48-1.81,.71-.88,.34-1.75,.69-2.6,1.02-.73,.29-1.45,.57-2.15,.85-2.74,1.08-5.35,2.11-7.77,3.06-.15,.06-.3,.12-.44,.17-1.31,.52-2.55,1-3.74,1.48-1.85,.73-3.58,1.41-5.13,2.03-.79,.31-1.54,.61-2.25,.89-.57,.22-1.12,.44-1.63,.64-1.54,.61-2.83,1.12-3.76,1.48-.06,.02-.1,.04-.16,.06-.42,.17-.76,.3-1.03,.4-.05,.02-.09,.04-.14,.05-.26,.1-.45,.18-.52,.2,0,0-3.75,25.56-9.31,62.96,8.86-4.15,20.59-9.67,33.19-15.61,5.13-26.06,9.22-47.65,11.51-61.31-.77,.3-1.52,.6-2.27,.89Z"/><path class="ae" d="M754.05,2795.74c2.5-6.76,4.63-12.53,6.32-17.12,.63-1.7,1.19-3.22,1.69-4.58,.36-.98,.69-1.87,.98-2.67,.07-.19,.13-.35,.2-.53,.31-.84,.56-1.53,.78-2.12,.28-.76,.48-1.3,.6-1.64l.16-.45s-.13-.24-.34-.6c-.1-.17-.2-.36-.34-.61-2.03-3.59-8.52-15.1-16.84-29.68-.02-.04-.04-.08-.07-.12-.76-1.34-1.54-2.7-2.33-4.08-.02-.04-.04-.07-.06-.11-.77-1.34-1.55-2.71-2.34-4.08-.1-.18-.2-.36-.31-.54-.76-1.33-1.53-2.67-2.32-4.03-4.05,12.88-11.27,35.89-20.1,64.32l22.97,39.31c4.26-11.54,8.1-21.92,11.34-30.68Z"/><path class="ad" d="M743.17,2831.75l-73.76-126.26c-12.09,5.7-82.5,38.95-114.8,54.1l-3.77,1.77,.65-4.35c5.56-37.41,9.3-62.96,9.3-62.96l.21-1.44,1.3-.47c.33-.12,2.82-1.11,6.9-2.72,118.98-47.08,122.39-46.03,124.21-45.46,5.31,1.63,48.22,76.79,73.33,121.45l.57,1.02-24.13,65.33Zm-72.01-132.35l71.1,121.72,20.04-54.25c-24.5-43.56-64.25-112.43-70.22-118.21-3.74,.41-25.14,7.22-121.33,45.28-2.58,1.02-4.54,1.79-5.73,2.26-.82,5.56-4,27.18-8.46,57.21,37.07-17.4,112.8-53.17,112.8-53.17l1.78-.85Z"/></g></g><g><g><path class="y" d="M1459.46,2402.29c2.68,35.23,24.01,128.41,30.76,149.27,6.75,20.87,49.51,102.73,45.76,161.31-77.27,45.74-168.04,93.09-168.04,93.09,0,0-39.76-110.75-45.76-140.44-42.38-22.47-75.02-105.13-63.76-177.36,46.51-51.36,201.04-85.87,201.04-85.87Z"/><path class="ah" d="M1490.21,2551.56c-6.75-20.87-28.08-114.04-30.76-149.27,0,0-14.87,3.32-36.77,9.44,7.86,43.98,31.1,123.97,36.95,142.04,6.75,20.87,45.01,97.71,52.81,159.79l23.52-.68c3.75-58.59-39.01-140.44-45.76-161.31Z"/><path class="ac" d="M1366.72,2809.28l-.88-2.45c-1.6-4.48-38.95-108.65-45.63-139.68-44.44-24.54-74.89-109.57-64.02-179.39l.11-.74,.49-.54c46.46-51.31,195.86-85.14,202.2-86.55l2.5-.56,.21,2.72c2.7,35.47,23.96,128,30.65,148.68,1.42,4.37,4.51,11.62,8.43,20.81,14.13,33.14,40.43,94.82,37.45,141.45l-.08,1.31-1.07,.63c-76.43,45.25-167.23,92.67-168.14,93.15l-2.21,1.15Zm-106.19-319.98c-10.34,68.34,19.41,151.14,62.65,174.06l.97,.52,.23,1.13c5.41,26.73,38.9,121.15,44.79,137.63,14.3-7.51,95.2-50.18,164.64-91.24,2.34-45.26-23.29-105.38-37.13-137.82-3.96-9.3-7.1-16.65-8.58-21.24-6.58-20.32-27.11-109.56-30.64-147.13-19.92,4.69-154.08,37.64-196.93,84.08Z"/></g><path class="ac" d="M1339.18,2670.74c-6.55,0-12.63-.95-17.77-2.96l1.54-4.52c22.56,8.76,66.52-4.96,80.55-31.04,0,0-3.3,15.64-25.45,28.87-12.45,6.22-26.49,9.64-38.87,9.64Z"/><g><path class="ab" d="M1547.98,2694.41c-2.25-.8-124.53-49.76-129.78-48.15-5.25,1.61-72.02,120.38-72.02,120.38,0,0,104.37,282.5,113.27,306.57-16.5,24.88-57.76,98.71-52.51,142.05,5.25,43.34,98.27,52.17,147.78,48.96,49.51-3.21,110.27-10.43,118.53-59.39,8.25-48.95-61.26-116.13-70.52-158.1-9.26-41.97-54.76-352.32-54.76-352.32Z"/><path class="ag" d="M1462.15,3102.14c17.75-14.07-10.82-101.02-39.07-190.84-23.59-74.97-48.01-154.16-57.24-179.26-11.15,19.49-19.65,34.6-19.65,34.6,0,0,104.37,282.5,113.27,306.57-16.5,24.88-57.76,98.71-52.51,142.05,1.29,10.62,7.87,19.16,17.76,25.96-1.69-3.23-2.83-6.86-3.32-10.91-5.25-43.34,24.26-103.3,40.76-128.17Z"/><path class="e" d="M1602.74,3046.73c-9.26-41.97-54.76-352.32-54.76-352.32-.76-.27-23.14-10.06-42.01-17.45,8.37,50.8,62.85,336.13,71.27,374.29,9.26,41.97,82.89,98.61,74.64,147.57-8.25,48.96-47.64,62.2-97.15,65.41,49.51-3.21,110.27-10.43,118.53-59.39,8.25-48.95-61.26-116.13-70.52-158.1Z"/><path class="p" d="M1534.38,3267.26c-54.45,0-124.96-12.87-129.67-51.69-5.3-43.76,35.22-116.75,52.2-142.68-11.47-31.01-112.82-305.36-112.82-305.36l-.41-1.11,.57-1.02c25.11-44.66,68.02-119.83,73.33-121.45,1.83-.55,5.15-1.64,124.21,45.46,4.08,1.61,6.57,2.6,6.9,2.72l1.29,.47,.22,1.45c.45,3.1,45.6,310.73,54.73,352.13,3.61,16.36,16.86,37.03,30.89,58.91,22.01,34.33,44.77,69.83,39.65,100.17-9.12,54.13-81.64,58.84-120.6,61.37-6.42,.42-13.32,.64-20.48,.64Zm-185.7-500.4c7.09,19.2,104.28,282.27,112.86,305.47l.45,1.21-.7,1.06c-16.26,24.51-57.31,97.5-52.11,140.35,5.11,42.19,100.16,49.78,145.41,46.86,56.07-3.64,108.98-13.11,116.45-57.42,4.79-28.39-18.44-64.62-38.93-96.59-14.27-22.26-27.75-43.29-31.55-60.52-8.85-40.14-51.24-328.3-54.59-351.09-1.2-.47-3.15-1.24-5.73-2.27-96.18-38.05-117.58-44.87-121.32-45.27-5.97,5.78-45.72,74.66-70.22,118.21Z"/></g><path class="p" d="M1461.39,3103.81c.01-.15,1.41-15.12-4.03-29.7l4.18-1.79c1.1,2.95,1.94,5.89,2.58,8.74,2.78,12.32-2.73,22.75-2.73,22.75Z"/><g><path class="w" d="M1368.27,2826.43c-13.02-35.23-22.09-59.78-22.09-59.78,0,0,66.76-118.78,72.02-120.38,5.25-1.6,127.53,47.35,129.78,48.15,0,0,3.75,25.56,9.31,62.96-35.4-16.6-116.58-54.94-116.58-54.94l-72.43,123.99Z"/><path class="k" d="M1365.83,2732.04c-8.99,15.71-16.24,28.56-18.72,32.96-.03,.05-.07,.13-.1,.18-.1,.17-.17,.3-.25,.44-.35,.63-.58,1.03-.58,1.03,0,0,.07,.18,.16,.45,.13,.34,.32,.88,.6,1.64,.22,.59,.47,1.28,.78,2.12,.07,.18,.13,.34,.2,.53,.29,.79,.62,1.69,.99,2.67,.5,1.36,1.06,2.88,1.69,4.58,1.7,4.59,3.83,10.36,6.32,17.12,.8,2.16,1.63,4.4,2.49,6.75,.7,1.89,1.42,3.84,2.16,5.84,2.08,5.62,4.31,11.67,6.68,18.08l18.31-31.34c-9.08-28.64-16.51-51.54-20.74-63.05Z"/><path class="ae" d="M1557.1,2756.19c-1.66-11.2-3.16-21.29-4.44-29.94,0-.04-.01-.08-.02-.11-.42-2.82-.81-5.5-1.18-7.99-.15-1.05-.31-2.08-.45-3.07-1.92-13.03-3.04-20.66-3.04-20.66-.86-.31-19.21-7.63-41.84-16.47,1.89,11.34,5.8,33,10.89,60.5,15.23,7.18,29.76,14.01,40.26,18.93-.06-.41-.12-.79-.18-1.19Z"/><path class="ad" d="M1367.82,2831.75l-24.14-65.33,.57-1.02c25.11-44.66,68.02-119.83,73.33-121.45,1.83-.55,5.15-1.64,124.21,45.46,4.08,1.61,6.57,2.6,6.9,2.72l1.29,.47,.22,1.45s3.75,25.55,9.3,62.96l.65,4.35-3.78-1.77c-32.3-15.15-102.71-48.39-114.8-54.1l-73.76,126.26Zm-19.13-64.88l20.04,54.25,71.11-121.72,1.78,.85s75.73,35.77,112.8,53.17c-4.46-30.03-7.64-51.66-8.45-57.21-1.2-.47-3.15-1.24-5.73-2.27-96.18-38.05-117.58-44.87-121.32-45.27-5.97,5.78-45.72,74.66-70.22,118.21Z"/></g></g><g><g><path class="ab" d="M1364.19,1929.59l-309.4-.03h0l-307.98,.03c-32,91.49-192.06,428.56-179.86,453.84,12.2,25.28,101.66,70.42,144.98,69.82-1.13,8.43,38.26,38.52,86.64,45.74,48.39,7.22,99.02,5.22,108.4,0,0,15.25,2.94,19.08,9.75,22.87,26.5,14.74,96.02,32.5,138.41,12.04,49.89,17.66,112.66,2.7,139.16-12.04,6.81-3.79,9.75-7.62,9.75-22.87,9.38,5.22,60.01,7.22,108.4,0,48.39-7.22,87.77-37.32,86.64-45.74,43.32,.6,132.78-44.54,144.98-69.82,12.2-25.28-148.26-365.6-179.86-453.84Z"/><path class="ag" d="M1054.79,1929.56l-307.98,.03c-32,91.49-192.06,428.56-179.86,453.84,2.33,4.83,7.49,10.38,14.58,16.19,14.6-68.89,169.96-385.71,199.45-470.03l273.8-.02Z"/><path class="e" d="M798.56,2498.99c48.39,7.22,99.02,5.22,108.4,0,0,15.25,2.94,19.08,9.75,22.87,26.5,14.74,96.02,32.5,138.41,12.04,49.89,17.66,112.66,2.7,139.16-12.04,6.81-3.79,9.75-7.62,9.75-22.87,9.38,5.22,60.01,7.22,108.4,0,48.39-7.22,87.77-37.32,86.64-45.74,43.32,.6,132.78-44.54,144.98-69.82,12.2-25.28-148.26-365.6-179.86-453.84h-59.73c49.32,128.31,169.58,379.7,171.51,404.48,2.25,28.89-54.57,45.14-70.33,18.66-7.97-13.39-109.42-284.47-123.63-324.91,11.67,108.83,79.73,349.19,71.68,374.47-8.04,25.28-77.68,60.19-115.53,32.1-19.44-14.43-81.4-319.65-84.4-372.5-1.61,163.84,17.76,351.51,11.63,375.71-6.48,25.6-69.01,29.69-87.77,8.83-9.8-10.91-1.63-346.13-17.69-384.54-5.94,90.4-31.08,364.35-41.94,385.34-11.63,22.47-78.61,16.45-80.27-19.66-1.66-36.11,28.28-301.73,20.51-359.52-29.14,107.12-59.04,343.13-74.9,365.14-24.01,33.31-121.03,11.64-133.13-27.97-9.55-31.23,78.84-329.73,78.79-377.4-52.93,123.27-101.32,329.13-132.83,358.02-21.9,20.09-75.09,21.61-105.49,20.67,32.7,22.93,89.41,47.18,121.24,46.74-1.13,8.43,38.26,38.52,86.64,45.74Z"/><path class="p" d="M1007.83,2545.45c-35.71,0-73.62-11.14-92.16-21.45-7.02-3.9-10.44-8.14-10.91-21.57-15.58,4.75-63.73,5.33-106.52-1.05-40.84-6.09-76.96-28.71-86.32-42.01-.95-1.34-1.6-2.58-1.95-3.72-42.69-.78-132.13-44.37-145.04-71.12-7.64-15.83,39.82-127.53,107.71-283.6,31.03-71.33,60.33-138.7,72.04-172.18l.55-1.57h620.49l.55,1.55c11.05,30.86,38.57,94.17,67.71,161.21,70.54,162.27,119.87,278.38,112.05,294.6-12.91,26.75-102.34,70.33-145.04,71.12-.36,1.14-1.01,2.37-1.95,3.72-9.35,13.3-45.48,35.91-86.32,42.01-42.78,6.39-90.94,5.81-106.52,1.05-.47,13.44-3.89,17.68-10.9,21.57-27.34,15.22-90.59,29.58-140.07,12.48-13.72,6.41-30.31,8.97-47.41,8.97Zm-98.62-50.42v3.96c0,14.48,2.6,17.44,8.54,20.74,26.89,14.96,95.49,31.76,136.44,11.98l.8-.39,.83,.3c48.38,17.13,110.6,3.03,137.41-11.89,5.93-3.3,8.54-6.26,8.54-20.74v-3.96l3.29,1.83c8.77,4.87,58.7,6.96,107.05-.25,48.61-7.26,85.42-37.17,84.73-43.02l-.33-2.74h3.42c43.13,0,130.84-45.17,142.11-68.52,7.42-15.37-61.68-174.3-112.12-290.36-29.94-68.88-55.87-128.51-67.28-159.97l-307.86-.03-306.43,.03c-12.12,34.15-41.04,100.64-71.63,170.97-51.24,117.8-115.01,264.41-107.79,279.36,11.34,23.51,100.29,69.16,142.95,68.52l2.63-.04-.37,2.78c-.69,5.85,36.12,35.77,84.73,43.02,48.36,7.22,98.28,5.13,107.05,.25l3.29-1.83Z"/></g><path class="p" d="M709.68,2453.44c-2.18-28.84,42.7-173.02,78.77-288.87,20.02-64.3,37.31-119.84,40.55-136.75,0,0,1.92,13.58-6.33,40.78-7.59,25.68-18.31,60.1-29.95,97.49-34.04,109.34-80.66,259.1-78.55,286.97l-4.49,.39Z"/><path class="p" d="M909.21,2499.15l-4.49-.31c2.14-35.62,15.43-137.45,28.29-235.94,11.9-91.18,23.14-177.31,24.22-201.01,0,0,4.5,17.57-.7,51.9-4.62,39.03-11.72,93.44-19.07,149.78-12.84,98.4-26.12,200.14-28.25,235.58Z"/><path class="p" d="M1401.31,2453.44l-4.48-.39c2.11-27.87-44.51-177.62-78.55-286.97-9.02-28.97-17.48-56.16-24.37-78.88-11.91-41.75-11.91-59.39-11.91-59.39,3.24,16.91,20.53,72.45,40.55,136.75,36.07,115.85,80.95,260.03,78.76,288.87Z"/><path class="p" d="M1201.78,2499.15c-2.13-35.44-15.41-137.2-28.25-235.61-7.53-57.72-14.8-113.42-19.4-152.62-4.2-33.26-.36-49.03-.36-49.03,1.08,23.69,12.32,109.81,24.22,200.98,12.86,98.5,26.15,200.35,28.29,235.97l-4.49,.31Z"/><path class="p" d="M1053.71,2535.79c-11.64-9.96-7.06-132.22,.69-303.84,3.71-82.21,6.92-153.21,5.23-176.17,0,0,5.99,19.47,4.22,56.38-1,32.47-2.9,74.53-4.95,120.02-5.54,122.66-13.13,290.64-2.37,299.84l-2.81,3.76Z"/></g><g><path class="y" d="M1142.14,1206.5c-11.25-10.43-5.81-115.97-5.81-115.97h-161.66s5.44,105.53-5.81,115.97c-11.25,10.43-157.73,18.46-157.73,18.46l66.21,232.74,177.79,67.41h.75l177.79-67.41,66.21-232.74s-146.48-8.03-157.73-18.46Z"/><path class="ah" d="M1148.89,1208.91c0,48.25,1.81,144.28-27.01,178.97-65.31,73.43-187.17,21.27-282.5-63.57l37.95,133.39,177.79,67.41h.75l177.79-67.41,66.21-232.74s-105.79-5.89-150.98-16.05Z"/><path class="ac" d="M1056.26,1527.52l-1.89-.14-178.86-67.82-67.38-236.85,2.88-.16c58.57-3.21,148.55-10.62,156.37-17.87,7.59-7.04,7.12-73.67,5.04-114.02l-.13-2.54h166.42l-.13,2.54c-2.08,40.35-2.55,106.98,5.04,114.02,7.83,7.26,97.81,14.66,156.38,17.87l2.88,.16-67.38,236.85-1.07,.4-178.15,67.55Zm-177.11-71.69l176.34,66.87,176.34-66.87,65.05-228.63c-24.37-1.38-145.26-8.71-156.22-18.88h0c-11.1-10.3-7.6-96.71-6.71-115.38h-156.91c.89,18.67,4.39,105.08-6.72,115.38-10.96,10.17-131.84,17.5-156.21,18.88l65.04,228.63Z"/></g><g><path class="y" d="M765.28,1688.72c11.36,38.43,20.52,81.04,18.65,114.47-2.17,38.95-10.91,69.75-19.36,91.2-9.05,22.97,153.79,48.04,290.92,48.04,149.28,0,299.92-25.14,290.84-48.23-8.43-21.44-17.11-52.18-19.28-91.01-1.77-31.78,6.41-71.86,16.99-108.75,16.26-56.73-594.8-60-578.76-5.72Z"/><path class="ah" d="M1346.34,1894.2c-8.43-21.44-17.11-52.18-19.28-91.01-1.77-31.78,6.41-71.86,16.99-108.75,3.05-10.65-16-19.41-48.84-26.26,6.19,3.83,9.03,8.11,7.67,12.86-10.57,36.89-19.78,98.74-20.87,130.56-1.31,38.53,6.45,86.74,14.88,108.18,33.49-7.84,52.88-16.86,49.45-25.58Z"/><path class="ac" d="M1055.49,1944.84c-119.18,0-277.42-20.4-292.19-44.21-1.84-2.96-1.45-5.54-.8-7.18,10.93-27.73,17.39-58.15,19.19-90.41,1.58-28.39-4.66-66.61-18.55-113.6h0c-.92-3.12-.75-7.82,5.3-12.53,27.56-21.44,162.58-30.3,284.44-29.38,113,.77,256.04,10.11,287.25,33.94,6.78,5.17,7.04,10.29,6.07,13.67-12.73,44.41-18.41,80.71-16.89,107.9,1.8,32.18,8.22,62.53,19.11,90.22,.68,1.74,1.09,4.46-.85,7.59-14.03,22.61-155.97,43.98-292.06,43.98Zm-288.07-256.84c14.06,47.55,20.37,86.36,18.75,115.34-1.83,32.8-8.4,63.75-19.53,91.99-.22,.57-.38,1.38,.4,2.65,12.68,20.44,160.95,42.05,288.44,42.05,145.32,0,276.55-22.88,288.31-41.83,.9-1.44,.72-2.39,.45-3.06-11.08-28.19-17.63-59.08-19.45-91.8-1.55-27.76,4.19-64.64,17.08-109.6,.29-1.02,1.18-4.1-4.38-8.35-53.99-41.21-514.54-44.94-566.42-4.58-4.7,3.65-3.91,6.31-3.66,7.19h0Z"/></g><g><path class="u" d="M1056.62,1978.95c149.28,0,273.05-31.29,307.57-49.36,0,0-14.25-20.12-25.22-57-75.92,26.94-166.29,41.46-284.6,42.56-96.68-2.93-203.36-15.97-282.3-42.69-10.97,36.97-25.26,57.14-25.26,57.14,34.19,17.89,172.7,49.36,309.82,49.36Z"/><path class="s" d="M772.06,1872.45c-10.97,36.97-25.26,57.14-25.26,57.14,6.38,3.34,16.39,7.14,29.33,11.13,6.36-13.89,15.58-36.66,20.32-60.75-8.36-2.39-16.54-4.87-24.39-7.53Z"/><path class="j" d="M1364.19,1929.59s-14.25-20.12-25.22-57c-16.11,5.72-32.92,10.84-50.47,15.43,4.93,25.2,14.65,46.89,21.07,60.82,25.88-6.8,43.94-13.66,54.62-19.25Z"/><path class="t" d="M1056.62,1981.35c-139.76,0-278.63-32.77-310.8-49.6l-2.45-1.28,1.65-2.33c.14-.2,14.2-20.33,24.91-56.41l.68-2.29,2.14,.72c96.08,32.53,217.73,40.64,281.69,42.58,115.04-1.07,205.25-14.55,283.83-42.43l2.16-.77,.69,2.32c10.7,36,24.73,56.08,24.87,56.28l1.65,2.33-2.45,1.28c-33.06,17.3-157.5,49.6-308.56,49.6Zm-306.42-52.73c35.9,16.98,170.58,47.92,306.42,47.92,146.86,0,268.15-30.53,304.18-47.91-3.96-6.23-14.47-24.29-23.27-53-78.52,27.52-168.58,40.85-283.14,41.92-63.8-1.94-184.6-9.98-280.86-42.09-8.81,28.78-19.35,46.91-23.32,53.16Z"/></g><g><path class="y" d="M1340.56,1243.42c38.63,32.1,267.81,399.67,282.44,438.19-64.14,105.94-96.77,101.12-96.77,101.12,0,0-119.92-143.46-144.03-194.21-49.51-52.57-75.39-75.42-75.39-75.42,0,0-15.75-151.7-15.75-155.31s22.5-114.36,22.5-114.36h27.01Z"/><path class="ah" d="M1340.37,1482.37c-31.01-32.93-7.69,53.57,41.82,106.14,24.11,50.76,144.03,194.21,144.03,194.21,0,0,10.98,1.57,32.68-17.68-20.37-19.74-158.89-170.11-218.53-282.67Z"/><path class="ac" d="M1526.9,1785.17c-.54,0-.87-.04-.99-.06l-.82-.12-.55-.66c-4.89-5.85-119.87-143.64-144.19-194.38-48.68-51.67-74.72-74.77-74.98-75l-.7-.62-.1-.97c-1.61-15.54-15.77-151.93-15.77-155.57s18.79-96.34,22.56-114.87l.38-1.9h29.59l.61,.51c39.91,33.16,268.18,399.8,283.14,439.18l.44,1.16-.64,1.05c-58.9,97.29-91.88,102.25-97.98,102.25Zm-217.97-273.3c4.49,4.04,30.25,27.6,74.84,74.94l.42,.62c22.78,47.97,133.47,181.41,143.05,192.92,5.05-.27,36.66-5.93,93.2-98.96-16.76-39.42-240-400.02-280.68-435.55h-24.4c-8.9,43.8-21.85,108.45-22.07,112.02,.08,3.44,10.21,101.68,15.64,154.02Z"/></g><g><g><path class="ab" d="M1614.37,1619.01s201.93,380.64,233.11,398.46c27.38,15.65,99.96,20.26,135.97,36.52,36.01,16.25,66.58,73.03,58.7,80.86,18,16.25,50.07,50.95,50.07,58.69,0,6.32-6.38,7.52-13.78,7.52,15.19,9.63,20.35,16.25,18,22.57-3.83,10.34-76.61-2.71-123.87-21.17-47.26-18.46-78.77-32.9-102.77-33.71-24.01-.8-62.26-24.88-62.26-24.88-1.5,13.24,34.2,111.84-9.75,123.59-18,4.82-22.5-65.81-47.26-99.52-16.87-22.97-35.26-78.65-27.01-112.36-31.51-31.3-216.05-277.68-216.05-277.68,43.61-44.82,76.19-97.33,106.9-158.9Z"/><path class="e" d="M1841.1,2030.71c27.38,15.65,110.29,21.75,146.56,37.32,18.56,7.97,32.02,18.5,41.16,28.9-11.15-17.01-27.6-34.92-45.38-42.94-36.01-16.25-108.59-20.87-135.97-36.52-31.18-17.82-233.11-398.46-233.11-398.46-4.47,8.97-8.99,17.72-13.57,26.31,42.1,73.49,213.01,369.79,240.31,385.39Z"/><g><path class="e" d="M1976.41,2081.29c20.42,17.32,67.44,51.85,65.73,53.55,3.88-3.85-1.57-19.55-12.38-36.45,1.19,13.25-23.55-5.39-53.36-17.1Z"/><path class="e" d="M1739.72,2060.81c-42.15-49.02-184.26-254.07-214.38-302.41-9.25,11.55-7.5,8.85-17.87,19.51,0,0,184.54,246.38,216.05,277.68-.43,1.75,4.92,6.52,16.2,5.22Z"/><path class="e" d="M1955.69,2128.62c-2.15,.49,92.09,59.62,122.75,72.43,7.41,0,13.78-1.2,13.78-7.52,0-3.17-5.44-10.91-13.05-20.03-16.96,13.71-85.03-35.25-123.48-44.88Z"/><path class="e" d="M2068.96,2195.93c-3.38,10.83-45.03,10.23-90.77-10.73-46.25-21.2-80.96-28.68-104.65-32.9-24.75-4.41-79.99-32.85-79.99-32.85-6.23,39.2,31.23,120.73-9.33,134.79,3.91,9.22,8.11,14.68,13.55,13.23,43.96-11.76,8.25-110.35,9.75-123.59,0,0,38.26,24.08,62.26,24.88,24.01,.8,55.51,15.25,102.77,33.71,47.26,18.46,120.04,31.5,123.87,21.17,2.34-6.32-12.28-18.06-27.47-27.69Z"/></g><path class="p" d="M1795.94,2270.12c-10.16,0-15.8-18.68-22.82-41.91-6.16-20.38-13.14-43.48-24.38-58.78-16.73-22.78-35.56-77.68-27.74-113.06-33.79-34.75-207.84-266.99-215.3-276.96l-1.28-1.72,1.48-1.52c39.05-40.14,71.89-88.96,106.47-158.3l1.92-3.86,2.02,3.8c69.73,131.44,208.01,383.69,232.22,397.52,13.77,7.87,39.29,12.9,66.31,18.23,25.45,5.01,51.75,10.2,69.47,18.19,30.83,13.91,58.02,57.37,61.02,75.61,.47,2.87,.39,5.21-.26,6.98,15.92,14.68,49.39,49.84,49.39,59.17,0,6.17-4.5,8.51-8.96,9.4,9.21,6.51,15.98,13.61,13.02,21.59-5.27,14.2-87.17-4.34-126.74-19.79-8.31-3.24-16.13-6.37-23.52-9.32-34.33-13.7-59.14-23.6-78.55-24.25-20.19-.68-49.46-16.95-59.69-23,.57,3.94,1.85,9.86,3.27,16.39,7.27,33.44,20.79,95.68-14.98,105.25-.82,.22-1.62,.32-2.38,.32Zm-285.43-492.01c16.47,21.97,184.88,246.25,214.54,275.71l.99,.98-.34,1.4c-8.17,33.38,10.6,88.47,26.6,110.26,11.73,15.97,18.84,39.51,25.12,60.28,6.28,20.78,12.18,40.44,19.83,38.39,31.48-8.42,18.61-67.66,11.69-99.49-2.43-11.15-4.03-18.53-3.63-22.06l.41-3.64,2.96,1.86c.37,.23,38.04,23.77,61.19,24.55,20.15,.67,45.25,10.69,79.98,24.55,7.38,2.94,15.19,6.06,23.49,9.3,50.81,19.85,118.34,29.66,121.01,22.54,1.23-3.32,.4-8.54-17.06-19.61l-7.06-4.48h8.21c10.16,0,11.53-2.59,11.53-5.12,0-5.97-28.92-38.47-49.27-56.85l-1.94-1.75,1.86-1.85c.43-.43,.77-1.97,.29-4.87-2.86-17.33-28.84-58.7-58.34-72.01-17.27-7.8-43.33-12.93-68.53-17.9-27.38-5.39-53.23-10.49-67.62-18.71-30.07-17.19-209.63-353.55-232-395.61-33.67,66.9-65.88,114.67-103.91,154.13Z"/></g><path class="p" d="M2077.7,2203.33c-17.1-6.35-46.83-24.97-75.59-42.98-28.42-17.79-57.81-36.19-71.99-40.66,0,0,8.51-2.11,23.7,5.9,14.39,7.95,32.16,19.08,50.57,30.6,28.57,17.88,58.11,36.38,74.79,42.58l-1.48,4.55Z"/><path class="p" d="M2040.73,2136.71c-44.65-38.68-76.32-60.86-86.92-60.86,0,0,8.81-3.91,26.12,7.13,18.91,12.34,43.13,32.23,63.62,49.99l-2.83,3.74Z"/><path class="p" d="M1721.95,2057.32l3.13-3.46c6.65,6.88,14.46,6.95,14.63,6.95h0s-9.95,4.6-17.77-3.48Z"/><g><path class="w" d="M1641.25,1669.2c-16.45-30.54-26.88-50.19-26.88-50.19-30.71,61.57-63.29,114.08-106.9,158.9,0,0,10.92,14.58,27.88,37.06,59.51-50.11,90.93-109.34,105.9-145.77Z"/><path class="ae" d="M1616.3,1622.65c-.08-.15-.15-.28-.23-.42-.19-.36-.38-.72-.54-1.02-.21-.4-.39-.73-.55-1.03-.02-.03-.04-.07-.05-.1-.07-.13-.13-.24-.18-.35-.23-.44-.39-.73-.39-.73-2.21,4.44-4.44,8.82-6.68,13.16-.09,.17-.18,.34-.27,.51-2.19,4.26-4.41,8.47-6.63,12.64h0c6.67,11.65,16.58,28.89,28.63,49.72,4.73-9.41,8.67-18.15,11.83-25.83-12.31-22.85-21.23-39.57-24.95-46.55Z"/><path class="ae" d="M1552.4,1799.62c-12.16-19.04-21.48-32.26-27.06-41.22l11.48-13.81c-4.61,5.76-9.34,11.41-14.21,16.94-.05,.06-.1,.11-.15,.17-4.86,5.51-9.84,10.92-14.99,16.21,0,0,.33,.44,.9,1.2,2.9,3.87,12.82,17.1,26.97,35.86,10.49-8.84,8.25-6.12,17.06-15.35Z"/><path class="ad" d="M1534.99,1818.33l-1.39-1.85c-16.96-22.49-27.88-37.07-27.88-37.07l-1.28-1.72,1.48-1.52c39.05-40.14,71.89-88.96,106.47-158.3l1.92-3.86,2.02,3.81s10.43,19.65,26.88,50.18l.57,1.06-.46,1.11c-16.33,39.73-48.07,97.43-106.57,146.69l-1.75,1.47Zm-24.48-40.22c3.23,4.31,12.37,16.49,25.19,33.49,56.12-47.86,86.95-103.47,103.03-142.26-11.91-22.11-20.58-38.37-24.31-45.36-33.67,66.9-65.88,114.67-103.91,154.13Z"/></g></g><g><path class="y" d="M770.43,1243.42c-38.63,32.1-267.81,399.67-282.44,438.19,64.14,105.94,96.77,101.12,96.77,101.12,0,0,119.92-143.46,144.03-194.21,49.51-52.57,75.39-75.42,75.39-75.42,0,0,15.75-151.7,15.75-155.31s-22.5-114.36-22.5-114.36h-27.01Z"/><path class="ah" d="M556.92,1771.86c21.81,19.41,27.85,10.87,27.85,10.87,0,0,119.92-143.46,144.03-194.22,49.51-52.57,75.39-75.42,75.39-75.42,0,0,3.62-34.84,7.39-71.52-94.21,96.07-161.84,224.72-254.65,330.29Z"/><path class="ac" d="M584.08,1785.17c-6.09,0-39.07-4.96-97.98-102.25l-.64-1.05,.44-1.16c14.96-39.39,243.24-406.03,283.14-439.18l.61-.51h29.59l.39,1.9c3.76,18.54,22.56,111.19,22.56,114.87s-14.15,140.03-15.77,155.57l-.1,.97-.7,.62c-.26,.23-26.3,23.34-74.98,75-24.32,50.74-139.3,188.53-144.2,194.38l-.55,.66-.82,.12c-.11,.02-.45,.06-.99,.06Zm-93.54-103.79c56.46,92.9,88.06,98.67,93.21,98.96,9.61-11.54,120.26-144.95,143.04-192.91l.42-.62c44.59-47.34,70.35-70.9,74.84-74.94,5.43-52.34,15.56-150.58,15.64-154.1-.22-3.49-13.17-68.14-22.07-111.94h-24.41c-40.67,35.52-263.92,396.13-280.68,435.55Z"/></g><g><g><path class="ab" d="M496.62,1619.01s-201.93,380.64-233.11,398.46c-27.38,15.65-99.96,20.26-135.97,36.52-36.01,16.25-66.58,73.03-58.7,80.86-18,16.25-50.07,50.95-50.07,58.69,0,6.32,6.38,7.52,13.78,7.52-15.19,9.63-20.35,16.25-18,22.57,3.83,10.34,76.61-2.71,123.87-21.17,47.26-18.46,78.77-32.9,102.77-33.71,24-.8,62.26-24.88,62.26-24.88,1.5,13.24-34.2,111.84,9.75,123.59,18,4.82,22.5-65.81,47.26-99.52,16.87-22.97,35.26-78.65,27.01-112.36,31.51-31.3,216.05-277.68,216.05-277.68-43.61-44.82-76.19-97.33-106.9-158.9Z"/><path class="ag" d="M269.89,2030.71c-27.38,15.65-110.29,21.75-146.56,37.32-18.56,7.97-32.02,18.5-41.16,28.9,11.15-17.01,27.6-34.92,45.38-42.94,36.01-16.25,108.59-20.87,135.97-36.52,31.18-17.82,233.11-398.46,233.11-398.46,4.47,8.97,8.99,17.72,13.57,26.31-42.1,73.49-213.01,369.79-240.31,385.39Z"/><g><path class="e" d="M134.58,2081.29c-20.42,17.32-67.44,51.85-65.73,53.55-3.88-3.85,1.57-19.55,12.38-36.45-1.19,13.25,23.55-5.39,53.36-17.1Z"/><path class="e" d="M371.27,2060.81c24.64-38.52,172.77-267.89,202.89-316.22,9.25,11.55,18.98,22.66,29.36,33.33,0,0-184.54,246.38-216.05,277.68,.43,1.75-4.92,6.52-16.2,5.22Z"/><path class="e" d="M155.3,2128.62c2.15,.49-92.09,59.62-122.75,72.43-7.41,0-13.78-1.2-13.78-7.52,0-3.17,5.44-10.91,13.05-20.03,16.96,13.71,85.03-35.25,123.48-44.88Z"/><path class="e" d="M42.02,2195.94c3.38,10.83,45.03,10.23,90.77-10.73,46.25-21.2,80.96-28.68,104.65-32.9,24.76-4.41,79.99-32.85,79.99-32.85,6.23,39.2-31.23,120.73,9.33,134.79-3.91,9.22-8.11,14.68-13.55,13.23-43.96-11.76-8.25-110.35-9.75-123.59,0,0-38.26,24.08-62.26,24.88-24.01,.8-55.51,15.25-102.77,33.71-47.26,18.46-120.04,31.5-123.87,21.17-2.34-6.32,12.28-18.06,27.47-27.69Z"/></g><path class="p" d="M312.66,2269.8c-35.78-9.57-22.25-71.81-14.98-105.25,1.42-6.54,2.71-12.46,3.27-16.39-10.23,6.06-39.5,22.33-59.69,23-19.42,.64-44.22,10.54-78.55,24.25-7.38,2.95-15.21,6.07-23.52,9.32-39.57,15.46-121.47,33.99-126.74,19.79-2.96-7.98,3.81-15.08,13.02-21.59-4.46-.88-8.96-3.22-8.96-9.4,0-9.33,33.47-44.5,49.39-59.18-.65-1.77-.73-4.1-.26-6.98,3.01-18.24,30.2-61.7,61.02-75.61,17.72-7.99,44.03-13.18,69.47-18.19,27.02-5.32,52.54-10.35,66.31-18.23,24.21-13.83,162.48-266.08,232.22-397.52l2.02-3.8,1.93,3.86c34.58,69.34,67.42,118.16,106.47,158.3l1.48,1.52-1.28,1.72c-7.47,9.97-181.51,242.22-215.3,276.96,7.82,35.37-11.01,90.28-27.74,113.06-11.24,15.3-18.22,38.4-24.38,58.78-7.02,23.22-12.66,41.91-22.82,41.91-.77,0-1.56-.11-2.38-.32Zm183.9-645.81c-22.37,42.06-201.93,378.42-232,395.61-14.39,8.22-40.24,13.32-67.62,18.71-25.2,4.97-51.26,10.1-68.53,17.9-29.5,13.31-55.48,54.67-58.34,72.01-.48,2.9-.14,4.43,.29,4.87l1.86,1.85-1.94,1.75c-20.36,18.37-49.27,50.88-49.27,56.85,0,2.53,1.37,5.12,11.53,5.12h8.21l-7.06,4.48c-17.46,11.07-18.29,16.3-17.06,19.61,2.67,7.12,70.2-2.69,121.01-22.54,8.3-3.24,16.11-6.36,23.49-9.3,34.73-13.86,59.83-23.88,79.98-24.55,23.15-.78,60.82-24.31,61.19-24.55l2.96-1.86,.41,3.64c.4,3.53-1.2,10.91-3.63,22.06-6.91,31.83-19.79,91.07,11.69,99.49,7.65,2.05,13.55-17.61,19.83-38.39,6.27-20.77,13.38-44.3,25.12-60.28,16-21.79,34.77-76.88,26.6-110.26l-.34-1.4,.99-.98c29.65-29.46,198.06-253.74,214.54-275.71-38.03-39.46-70.24-87.22-103.91-154.13Z"/></g><path class="p" d="M33.29,2203.33c17.1-6.35,46.83-24.97,75.59-42.98,28.42-17.79,57.81-36.19,71.99-40.66,0,0-8.51-2.11-23.7,5.9-14.39,7.95-32.16,19.08-50.57,30.6-28.57,17.88-58.11,36.38-74.79,42.58l1.48,4.55Z"/><path class="p" d="M70.26,2136.71c44.65-38.68,76.32-60.86,86.92-60.86,0,0-8.81-3.91-26.12,7.13-18.91,12.34-43.13,32.23-63.62,49.99l2.83,3.74Z"/><path class="p" d="M389.04,2057.32l-3.13-3.46c-6.65,6.88-14.46,6.95-14.63,6.95h0s9.95,4.6,17.77-3.48Z"/><g><path class="w" d="M469.74,1669.2c16.45-30.54,26.88-50.19,26.88-50.19,30.71,61.57,63.29,114.08,106.9,158.9,0,0-10.92,14.58-27.88,37.06-59.51-50.11-90.93-109.34-105.9-145.77Z"/><path class="k" d="M494.69,1622.65c.08-.15,.15-.28,.23-.42,.19-.36,.38-.72,.54-1.02,.21-.4,.39-.73,.55-1.03,.02-.03,.04-.07,.05-.1,.07-.13,.13-.24,.18-.35,.23-.44,.39-.73,.39-.73,2.21,4.44,4.44,8.82,6.68,13.16,.09,.17,.18,.34,.27,.51,2.2,4.26,4.41,8.47,6.63,12.64h0c-6.67,11.65-16.58,28.89-28.63,49.72-4.73-9.41-8.67-18.15-11.83-25.83,12.31-22.85,21.23-39.57,24.95-46.55Z"/><path class="ae" d="M546.77,1787.78c12.16-19.04,21.81-34.24,27.39-43.2h0c4.61,5.76,9.34,11.41,14.21,16.95,.05,.06,.1,.11,.15,.17,4.86,5.51,9.84,10.92,14.99,16.21,0,0-.33,.44-.9,1.2-2.9,3.87-12.82,17.1-26.97,35.86-10.49-8.84-20.07-17.96-28.88-27.19Z"/><path class="ad" d="M574.25,1816.86c-58.5-49.26-90.25-106.96-106.57-146.69l-.46-1.11,.57-1.06c16.45-30.53,26.87-50.17,26.88-50.18l2.02-3.81,1.93,3.86c34.58,69.34,67.42,118.16,106.47,158.3l1.48,1.52-1.28,1.72s-10.92,14.58-27.88,37.07l-1.39,1.85-1.75-1.47Zm-77.69-192.87c-3.72,6.99-12.4,23.25-24.31,45.36,16.09,38.79,46.91,94.4,103.03,142.26,12.81-16.99,21.96-29.17,25.19-33.49-38.03-39.46-70.24-87.23-103.91-154.13Z"/></g></g><g><path class="ab" d="M1332.17,1743.76c13.89-74.04,50.02-155.25,50.02-155.25,0,0-33.76-53.77-52.89-150.08-19.13-96.31,11.25-195.02,11.25-195.02,0,0-28.13-28.89-114.8-23.73-15.72,95.94-56.42,224.83-171.42,233-96.55-2.62-153.42-137.32-169.1-233-86.67-5.16-114.8,23.73-114.8,23.73,0,0,30.38,98.71,11.25,195.02-19.13,96.31-52.89,150.08-52.89,150.08,0,0,36.13,81.21,50.02,155.24,79.73,22.57,197.03,35.76,277.8,35.76,75.1,1.2,194.69-12.73,275.55-35.75Z"/><path class="e" d="M1329.3,1438.44c.37,44.94-3.27,99.74-7.13,141.25-3.19,34.33-16.34,111.88-31.13,125.2-22.69,27.89-242.68,76.99-452.22,52.9,71.69,13.91,155.58,21.74,217.79,21.74,75.1,1.2,194.69-12.73,275.55-35.75,13.89-74.04,50.02-155.25,50.02-155.25,0,0-33.76-53.77-52.89-150.08Z"/><path class="p" d="M1066.28,1782c-3.29,0-6.51-.02-9.7-.08-75.39,0-195.23-12.31-278.34-35.84l-1.35-.39-.28-1.47c-13.68-72.9-49.49-153.87-49.85-154.68l-.55-1.24,.71-1.14c.33-.53,33.75-54.56,52.55-149.23,18.78-94.53-10.89-192.78-11.19-193.76l-.44-1.44,1.02-1.05c1.18-1.21,29.81-29.59,116.48-24.4l1.78,.11,.31,1.88c12.89,78.69,64.38,228.23,166.94,231.01,109.75-7.81,152.58-129.94,169.15-231.01l.31-1.88,1.78-.11c86.59-5.16,115.31,23.19,116.49,24.4l1.02,1.05-.44,1.44c-.3,.98-29.96,99.23-11.19,193.76,18.8,94.67,52.22,148.7,52.55,149.23l.72,1.14-.55,1.24c-.36,.81-36.17,81.81-49.85,154.69l-.28,1.47-1.35,.39c-73.3,20.86-185.79,35.91-266.47,35.91Zm-285.53-40.19c82.68,23.18,201.15,35.3,275.87,35.3,80.33,1.29,197.63-13.87,273.62-35.29,13.05-68.17,44.87-142.74,49.39-153.12-4.95-8.38-35.04-61.74-52.52-149.76-17.72-89.23,7.11-181.6,10.86-194.7-5.76-4.78-36.03-26.29-110.3-22.25-24.36,146.19-84.22,226.78-173.18,233.11-104.85-2.84-157.52-152.6-171.15-233.11-74.24-4.04-104.54,17.47-110.3,22.25,3.75,13.1,28.58,105.47,10.86,194.7-17.48,88.02-47.57,141.38-52.52,149.76,4.51,10.38,36.34,84.94,49.38,153.11Z"/></g><g><g><path class="g" d="M738.93,1206.25c31.51-29.89,70.52-49.51,109.15-38.07,35.45-15.65,78.59-3.22,94.15,26.68,20.25,38.92,9.27,129.2-1.93,167.93,8.31,37.12-51.71,37.12-51.71,37.12,12-40.93-14.51-201.81-126.29-160.88l-23.37-32.78Z"/><path class="a`" d="M833.45,1177.89c28.71,6.92,58.77,38.91,67.9,84.58,2.35-61.85-50.25-92.13-52.63-94.53-.21,.09-.43,.15-.64,.25-38.63-11.44-77.64,8.18-109.15,38.07l6.26,8.77c17.94-16.66,54.7-45.22,88.27-37.13Z"/><path class="f" d="M942.22,1194.86c-15.56-29.9-57.55-38.94-94.15-26.68,34.13-11.44,77.41,12.87,85.11,46.09,20.29,87.6-44.6,185.64-44.6,185.64,0,0,60.01,0,51.71-37.12,11.2-38.73,22.18-129,1.93-167.93Z"/><path class="m" d="M888.58,1402.32h-3.06l.92-3.13c8.07-27.52-2.62-105.04-39.1-143.06-22.7-23.66-51.48-29.33-85.55-16.85,0,0,13.01-11.66,35.28-11.27,20.23,.48,38.1,8.72,53.41,24.68,37.69,39.3,47.71,114.38,41.07,144.73,8.64-.45,33.79-2.87,43.47-15.99,3.68-4.99,4.69-10.9,3.09-18.06l-.15-.64,.18-.63c11.34-39.25,21.75-128.3,2.11-166.04-15.13-29.07-56.95-40.81-91.32-25.63l-.71,.32-.74-.22c-33.17-9.82-71.14,3.72-107.01,37.76l-1.69,1.67-1.35-5.48c36.78-34.9,75.99-48.66,110.5-38.81,36.25-15.59,80.18-2.85,96.26,28.05,20.16,38.74,9.91,128.92-1.56,169.19,1.71,8.3,.34,15.54-4.07,21.52-13.07,17.72-48.47,17.92-49.97,17.92Z"/></g><path class="m" d="M901.34,1262.47c-1.99-26.98-9.79-65.9-54.35-92.18l2.17-4.22c24.52,14.46,38.36,32.57,46.27,50.58,9.75,21.96,5.91,45.82,5.91,45.82Z"/></g><g><g><ellipse class="w" cx="906.21" cy="1387.87" rx="58.14" ry="62.2"/><path class="k" d="M856.36,1394.6c0-34.35,26.03-62.2,58.14-62.2,11.32,0,21.84,3.51,30.77,9.5-10.33-10.04-24-16.22-39.06-16.22-32.11,0-58.14,27.85-58.14,62.2,0,22.24,10.95,41.71,27.36,52.7-11.69-11.38-19.08-27.73-19.08-45.98Z"/><path class="ae" d="M932.4,1332.4c10.24,11.21,16.57,26.52,16.57,43.44,0,34.35-26.03,62.2-58.14,62.2-9.43,0-18.31-2.46-26.19-6.72,10.56,11.56,25.27,18.76,41.57,18.76,32.11,0,58.14-27.85,58.14-62.2,0-24.26-13.01-45.22-31.95-55.47Z"/><path class="ad" d="M906.21,1452.48c-33.3,0-60.39-28.98-60.39-64.6s27.09-64.6,60.39-64.6,60.39,28.98,60.39,64.6-27.09,64.6-60.39,64.6Zm0-124.39c-30.82,0-55.89,26.82-55.89,59.79s25.07,59.79,55.89,59.79,55.89-26.82,55.89-59.79-25.07-59.79-55.89-59.79Z"/></g><g><ellipse class="w" cx="906.21" cy="1387.87" rx="17.63" ry="18.86"/><path class="k" d="M914.08,1371.08c-2.38-1.28-5.03-2.07-7.87-2.07-9.74,0-17.63,8.44-17.63,18.86,0,3.49,.95,6.72,2.49,9.52,3.31-12.53,8.39-21.76,23.01-26.31Z"/><path class="ae" d="M897.9,1404.44c2.47,1.44,5.29,2.29,8.31,2.29,9.74,0,17.63-8.44,17.63-18.86,0-2.07-2.42-8.17-3-10.03-4.13,14.45-10.5,21.07-22.94,26.6Z"/><path class="ad" d="M906.21,1409.14c-10.96,0-19.88-9.54-19.88-21.27s8.92-21.27,19.88-21.27,19.88,9.54,19.88,21.27-8.92,21.27-19.88,21.27Zm0-37.72c-8.48,0-15.38,7.38-15.38,16.45s6.9,16.45,15.38,16.45,15.38-7.38,15.38-16.45-6.9-16.45-15.38-16.45Z"/></g></g><g><g><path class="g" d="M1372.06,1206.25c-31.51-29.89-70.52-49.51-109.15-38.07-35.45-15.65-78.59-3.22-94.15,26.68-20.25,38.92-9.27,129.2,1.93,167.93-8.31,37.12,51.71,37.12,51.71,37.12-12-40.93,15.02-201.57,126.8-160.64l22.86-33.03Z"/><path class="a`" d="M1209.64,1262.47c9.76-40.42,31.99-74.62,62.93-84.25,30.31-9.43,72.49,20.04,93.09,39.63l6.4-11.6c-31.51-29.89-70.52-49.51-109.15-38.07,1.4-.41-57.45,29.89-53.27,94.29Z"/><g><path class="f" d="M1229.72,1264.28c-25.06,42.46-35.82,127.6-36.77,130.82,14.1,4.81,29.46,4.81,29.46,4.81-12-40.93,15.02-201.57,126.8-160.64-42.78-37.79-91.04-23.19-119.48,25.01Z"/><path class="f" d="M1209.64,1262.47c-8.62-50.75,48.73-96.29,53.27-94.29-8.67-3.83-17.8-5.95-26.87-6.57,3.59,.76-44.77,27.64-26.4,100.86Z"/></g><path class="m" d="M1225.47,1402.32h-3.06c-1.5,0-36.9-.2-49.97-17.92-4.41-5.98-5.78-13.22-4.07-21.52-11.48-40.26-21.73-130.44-1.56-169.19,16.07-30.89,60.02-43.63,96.26-28.05,34.5-9.85,73.71,3.9,110.5,38.81l-1.67,5.15-1.31-1.16c-35.87-34.03-73.9-47.75-107.07-37.94l-.75,.22-.71-.32c-34.38-15.17-76.2-3.44-91.33,25.63-19.64,37.75-9.23,126.8,2.11,166.04l.18,.63-.15,.64c-1.6,7.16-.59,13.07,3.08,18.06,9.67,13.13,34.83,15.55,43.47,15.99-6.64-30.34,3.38-105.43,41.07-144.73,17.98-18.74,39.51-26.84,64.23-24.22,16.62,1.71,24.47,10.81,24.47,10.81-34.06-12.48-62.86-6.81-85.55,16.86-36.47,38.03-47.17,115.54-39.09,143.06l.91,3.13Z"/></g><path class="m" d="M1209.64,1262.47s-4.87-15.74,2.05-35.72c6.95-21.19,21.02-43.51,50.14-60.68l2.17,4.22c-44.57,26.28-52.37,65.19-54.36,92.18Z"/></g><g><g><ellipse class="w" cx="1204.78" cy="1387.87" rx="58.14" ry="62.2"/><path class="k" d="M1154.92,1394.6c0-34.35,26.03-62.2,58.14-62.2,11.32,0,21.84,3.51,30.77,9.5-10.33-10.04-24-16.22-39.06-16.22-32.11,0-58.14,27.85-58.14,62.2,0,22.24,10.95,41.71,27.36,52.7-11.7-11.38-19.08-27.73-19.08-45.98Z"/><path class="ae" d="M1230.97,1332.4c10.24,11.21,16.57,26.52,16.57,43.44,0,34.35-26.03,62.2-58.14,62.2-9.43,0-18.31-2.46-26.19-6.72,10.56,11.56,25.27,18.76,41.57,18.76,32.11,0,58.14-27.85,58.14-62.2,0-24.26-13.01-45.22-31.94-55.47Z"/><path class="ad" d="M1204.78,1452.48c-33.3,0-60.39-28.98-60.39-64.6s27.09-64.6,60.39-64.6,60.39,28.98,60.39,64.6-27.09,64.6-60.39,64.6Zm0-124.39c-30.82,0-55.89,26.82-55.89,59.79s25.07,59.79,55.89,59.79,55.89-26.82,55.89-59.79-25.07-59.79-55.89-59.79Z"/></g><g><ellipse class="w" cx="1204.78" cy="1387.87" rx="17.63" ry="18.86"/><path class="k" d="M1212.65,1371.08c-2.38-1.28-5.03-2.07-7.87-2.07-9.74,0-17.63,8.44-17.63,18.86,0,3.49,.95,6.72,2.49,9.52,3.31-12.53,8.39-21.76,23.01-26.31Z"/><path class="ae" d="M1196.46,1404.44c2.47,1.44,5.29,2.29,8.31,2.29,9.74,0,17.63-8.44,17.63-18.86,0-2.07-2.42-8.17-3-10.03-4.13,14.45-10.5,21.07-22.94,26.6Z"/><path class="ad" d="M1204.78,1409.14c-10.96,0-19.88-9.54-19.88-21.27s8.92-21.27,19.88-21.27,19.88,9.54,19.88,21.27-8.92,21.27-19.88,21.27Zm0-37.72c-8.48,0-15.38,7.38-15.38,16.45s6.9,16.45,15.38,16.45,15.38-7.38,15.38-16.45-6.9-16.45-15.38-16.45Z"/></g></g><g><g><ellipse class="w" cx="1055.12" cy="1942.43" rx="58.14" ry="62.2"/><path class="k" d="M1005.26,1949.16c0-34.35,26.03-62.2,58.14-62.2,11.32,0,21.84,3.51,30.77,9.5-10.33-10.05-24-16.22-39.06-16.22-32.11,0-58.14,27.85-58.14,62.2,0,22.24,10.95,41.71,27.36,52.7-11.7-11.38-19.08-27.73-19.08-45.98Z"/><path class="ae" d="M1081.31,1886.96c10.24,11.21,16.56,26.52,16.56,43.43,0,34.35-26.03,62.2-58.14,62.2-9.43,0-18.31-2.46-26.19-6.72,10.56,11.56,25.27,18.76,41.57,18.76,32.11,0,58.14-27.85,58.14-62.2,0-24.26-13.01-45.22-31.94-55.47Z"/><path class="ad" d="M1055.12,2007.04c-33.3,0-60.39-28.98-60.39-64.6s27.09-64.6,60.39-64.6,60.39,28.98,60.39,64.6-27.09,64.6-60.39,64.6Zm0-124.39c-30.82,0-55.89,26.82-55.89,59.79s25.07,59.79,55.89,59.79,55.89-26.82,55.89-59.79-25.07-59.79-55.89-59.79Z"/></g><g><ellipse class="w" cx="1055.12" cy="1942.43" rx="17.63" ry="18.86"/><path class="k" d="M1062.99,1925.64c-2.38-1.28-5.03-2.07-7.87-2.07-9.74,0-17.63,8.44-17.63,18.86,0,3.49,.95,6.72,2.49,9.52,3.31-12.53,8.39-21.76,23.01-26.31Z"/><path class="ae" d="M1046.81,1959c2.47,1.44,5.29,2.29,8.31,2.29,9.74,0,17.63-8.44,17.63-18.86,0-2.07-2.42-8.17-3-10.03-4.13,14.45-10.5,21.07-22.94,26.6Z"/><path class="ad" d="M1055.12,1963.7c-10.96,0-19.88-9.54-19.88-21.27s8.92-21.27,19.88-21.27,19.88,9.54,19.88,21.27-8.92,21.27-19.88,21.27Zm0-37.72c-8.48,0-15.38,7.38-15.38,16.45s6.9,16.45,15.38,16.45,15.38-7.38,15.38-16.45-6.9-16.45-15.38-16.45Z"/></g></g></g><g><g><g><path class="ab" d="M580.3,242.8c-19.37-19.29-41.12-37.03-52.5-30.26-26.17,15.58-75.63,138.97-62.27,154.22,13.36,15.25,46.58,39.32,57.44,36.11,10.86-3.21,57.32-160.07,57.32-160.07Z"/><path class="ag" d="M567.89,276.07l12.41-33.27c-19.37-19.29-41.12-37.03-52.5-30.26-3.6,2.15-7.66,6.39-11.92,12.06,14.33,7.9,36.71,36.23,52.01,51.47Z"/><path class="e" d="M479.23,296.43c-12.44,32.37-19.95,63.2-13.7,70.34,13.36,15.25,46.58,39.32,57.44,36.11,5.26-1.55,18.86-39.14,31.5-77.5-30.14,15.83-63.15-10.86-75.25-28.95Z"/><path class="p" d="M520.79,405.56c-14.23,0-44.77-23.33-56.88-37.14-2.89-3.3-3.58-9.89-2.11-20.15,5.43-37.72,41.74-124.04,64.92-137.84,10.39-6.2,27.9,3.53,55.08,30.6l1.05,1.04-.44,1.46c-10.99,37.09-47.7,158.37-58.86,161.66-.83,.24-1.76,.36-2.77,.36Zm12.84-192.12c-1.82,0-3.4,.4-4.76,1.21-20.45,12.18-56.99,94.98-62.66,134.36-1.68,11.65,.1,15.13,.94,16.09,14.23,16.24,46.32,38.1,55.24,35.45,6.73-3.54,33.47-83.26,55.36-157.02-20.24-20.01-35.03-30.1-44.11-30.1Z"/></g><g><g><path class="q" d="M534.58,215.08c-16.52-56.78-83.89-79.45-155.9-62.6-72.01,16.85-126.21,80.25-176.69,234.34-50.48,154.09,10.39,328.24,38.6,400.87,28.21,72.63,36.38,163.92,5.2,233.74,47.33-24.68,69.6-108.34,69.6-108.34,6.68,28.59,55.87,100.52,34.52,171.54,64.59-48.15,69.7-93.9,70.16-122.79,1.67-106.34,78.88-191.85,71.46-300.77-7.42-108.93-55.68-207.64-17.08-292.71,20.42-54.57,71.46-102.32,60.13-153.29Z"/><path class="o" d="M521.63,211.07c-56.11-73.03-187.87-56.18-235.76,40.53,51.23-65.14,141.8-92.9,235.76-40.53Z"/><path class="o" d="M521.96,235.95c-69.79-42.53-167.78-3.21-206.78,105.13,42.71-89.48,130.34-120.12,206.78-105.13Z"/><path class="o" d="M270.28,285.7c-63.4,130.81-80.18,273.67-31.44,410.24-15.33-91.63-13.02-139.07-6.42-195.96,39.35,92.29,47.23,248.05,47.23,248.05,17.07-47.35,37.12-256.14,2.97-380.53,6.68,123.59-5.2,196.2-5.2,196.2-39.35-118.15-28.64-199.34-7.14-277.99Z"/><path class="o" d="M359.31,325.03c-52.28,125.37,47.8,279.28,2.23,479.12,76.89-192.57-35.58-329.84-2.23-479.12Z"/><path class="aa" d="M245.78,1021.43c47.33-24.68,69.6-108.34,69.6-108.34,6.68,28.59,55.87,100.52,34.52,171.54,64.59-48.15,69.7-93.9,70.16-122.79,1.67-106.34,78.88-191.85,71.46-300.77-7.42-108.93-55.68-207.64-17.08-292.71,12.97-34.66,38.26-66.56,52.11-98.29-22.45-2.56-61,.79-106.86,37.02-73.31,57.91-23.44,251.03-2.42,345.37,21.02,94.34-41.2,267.25-41.2,267.25,0,0-14.48-12.69-29.7-81.06-16.52-74.23-25.3-119.65-25.3-119.65,0,0-15.16,62.27-35.68,127.36-14.58-82.14-67.46-129.5-92.17-220.64,12.65,68.46,33.78,126.99,47.36,161.96,28.21,72.63,36.38,163.92,5.2,233.74Z"/><path class="af" d="M345.76,1090.65l2.03-6.76c15.72-52.31-7.68-105.56-23.16-140.79-3.79-8.63-7.03-15.99-9.22-22.17-6.6,21.05-28.65,81.82-68.66,102.68l-5.75,3,2.78-6.21c27.97-62.62,25.96-151.43-5.24-231.76-61.39-158.05-74.4-293.5-38.65-402.61,48.29-147.4,101.62-217.94,178.32-235.89,77.07-18.03,142.25,8.37,158.5,64.23l.04,.16c7.57,34.1-11.49,66.03-31.67,99.84-10.56,17.69-21.49,35.99-28.56,54.91-25.29,55.75-12.71,118.32,.62,184.57,6.93,34.46,14.1,70.1,16.61,107.05,3.96,58.14-16.18,110.28-35.67,160.71-17.21,44.54-35,90.6-35.78,140.28-.53,33.78-9.1,78.49-71.12,124.73l-5.41,4.04Zm-30.23-186.79l2.02,8.64c1.62,6.94,6.02,16.94,11.11,28.53,15.13,34.44,37.68,85.77,25.18,137.65,62.94-49.34,63.68-96.45,64-116.88,.8-50.6,18.76-97.09,36.13-142.05,19.28-49.91,39.22-101.51,35.33-158.5-2.49-36.61-9.63-72.08-16.53-106.38-13.49-67.09-26.24-130.46-.32-187.56,7.17-19.19,18.21-37.68,28.88-55.56,19.63-32.89,38.18-63.96,31.1-96.02-15.57-53.33-78.59-78.37-153.28-60.89-75,17.55-127.35,87.17-175.06,232.79-35.36,107.94-22.39,242.22,38.56,399.13,30.6,78.79,33.49,165.75,7.95,229.11,41.99-27.44,62.44-102.66,62.65-103.45l2.28-8.57Z"/></g><path class="af" d="M313.24,913.72c-7.38-29.37-2.95-52.37,1.32-74.61,2.43-12.62,4.72-24.54,4.72-37.07,0,0,4.27,14.55-.36,38.05-.22,1.12-.43,2.25-.65,3.38-3.94,20.65-7.47,42.2-.74,68.99l-4.3,1.26Z"/><path class="af" d="M425.47,927.07l-4.45-.27c1.02-19.69,4.11-41.67,7.38-64.95,6.36-45.28,13.58-96.6,10.4-157.08-2.18-41.34-9.21-69.83-16.01-97.38-10.96-44.37-21.3-86.28-12.19-175.88,9.97-98.05,41.47-139.74,102.29-135.07l-.31,4.8c-57.8-4.41-87.9,35.93-97.55,130.8-9.02,88.71,1.22,130.19,12.07,174.12,6.86,27.79,13.95,56.52,16.15,98.35,3.21,60.99-4.05,112.57-10.44,158.08-3.25,23.16-6.33,45.03-7.34,64.49Z"/></g></g><g><g><path class="ab" d="M1487.81,263.29c-2.35-8.75,101.12-42.28,107.71-39.34,6.59,2.94,53.75,143.57,42.65,158.35-11.1,14.78-93.47,31.93-99.43,31.3-5.97-.63-43.9-124.1-50.93-150.31Z"/><path class="ag" d="M1595.51,223.95c-6.59-2.94-110.05,30.59-107.71,39.34,1.21,4.5,3.34,11.92,6.06,21.05,21.82-12.24,84.62-34.86,110.67-41.7-4.24-10.91-7.59-18.05-9.02-18.69Z"/><path class="e" d="M1624.04,277.05c-18,50.33-71.5,77.65-116.99,57.78,10.46,31.94,28.86,78.46,31.68,78.76,5.97,.63,88.34-16.52,99.43-31.3,5.47-7.29-3.12-68.36-14.13-105.24Z"/><path class="p" d="M1539.26,416.01c-.31,0-.56,0-.74-.01-9.34-.99-52.45-150.53-52.85-152.03-.43-1.61,.19-3.24,1.86-4.86,10.78-10.45,100.29-41.21,108.84-37.38,6.28,2.8,30.18,74.18,39.95,115.76,8.2,34.87,5.97,43.14,3.58,46.33-11.36,15.13-90.17,31.87-100.64,32.2Zm.14-4.79c9.04-.07,87.12-17.24,97.04-30.44,10.29-13.71-35.52-148.87-42.03-154.75-7.48-1.81-98.56,27.83-104.34,37.07,8.16,30.24,42.34,140.1,49.33,148.12Z"/></g><g><path class="q" d="M1639.84,189.76c93.71-16.17,213.77,101.87,230.41,269.96,13.76,138.98-35.27,185.35-35.27,185.35,0,0-2.81,84.43-29.29,136.96-26.48,52.54-60.11,151.17-7.02,221.8-37.02-9.71-62.61-51.08-62.61-51.08,0,0,8.1,139.45-86.66,179.67,27.15-69.47-5.88-134.41-26.66-167.79-122.87-197.37-36.08-457.73-44.24-585.14-5.49-85.77-7.01-177.95,61.33-189.74Z"/><path class="o" d="M1839.47,406.85c-79.93-224.16-230.88-181.37-245.6-147.75,31.49-95.5,205.51-43.98,245.6,147.75Z"/><path class="o" d="M1602.5,334.01c129.36,61.79-20.59,320.51,30.18,518.87-81.89-190.15,42.71-361.49-30.18-518.87Z"/><path class="o" d="M1712.77,320.64c66.78,128.83,87.29,271.11,42.13,409.12,12.93-92.06,14.1-132.69,1.3-196.08-36.92,93.45-40.94,233.28-40.94,233.28-18.3-46.81-45.44-232.88-14.55-358.27,6.66,127.65,19.24,183.06,19.24,183.06,25.33-118.51,16.36-193.14-7.18-271.1Z"/><path class="aa" d="M1649.41,1132.43c94.76-40.22,86.66-179.67,86.66-179.67,0,0,25.59,41.37,62.61,51.08-53.09-70.64-19.46-169.27,7.02-221.8,26.48-52.54,29.29-136.96,29.29-136.96,0,0,49.03-46.37,35.27-185.35-1.85-18.73-5.06-36.8-9.3-54.18-.02,62.42-8.02,112.86-12.82,119.58-6.45,9.02-19.53-86.5-64.19-123.71,58.07,287.73-43.8,339.92-45.63,440.59-1.97-8.89-18.66-37.57-48.61-69.61,8.97,30.64,24.24,198.61-6.85,245.33-5.3-51.28-91.45-109.03-119.45-220.71,8.72,57.88,26.57,115,59.34,167.64,20.78,33.38,53.81,98.31,26.66,167.79Z"/><path class="af" d="M1645.29,1136.76l2.06-5.27c19.6-50.14,10.7-105.82-26.46-165.51-88.58-142.29-69.17-313.57-53.57-451.2,6.04-53.29,11.25-99.32,8.96-135.12-5.81-90.78-5.71-180.39,63.21-192.28l.35,2.38-.35-2.38c37.34-6.45,79.44,7.8,118.52,40.11,62.4,51.59,105.18,138.31,114.46,231.97,12.98,131.11-28.98,180.13-35.3,186.7-.43,9.75-4.65,87.69-29.51,137.02-20.75,41.17-63,144.95-7.25,219.13l4.17,5.54-6.42-1.68c-29.07-7.63-50.91-33.79-59.71-45.9-.04,30.02-5.99,139.49-88.21,174.39l-4.93,2.09Zm8.94-946.03c-4.75,.14-9.44,.61-14.05,1.41-65.2,11.25-65.13,98.64-59.46,187.2,2.32,36.27-2.92,82.5-8.99,136.04-15.51,136.83-34.81,307.12,52.85,447.92,36.73,59.01,46.42,114.39,28.85,164.7,87.08-41.79,80.48-173.74,80.4-175.09l-.52-8.9,4.59,7.41c.24,.38,22.54,35.9,54.81,48.02-51.05-75.9-9.63-177.6,11.01-218.55,25.92-51.42,29-135.06,29.02-135.9l.03-1.03,.72-.69c.48-.46,47.97-47.44,34.53-183.28-9.15-92.37-51.29-177.85-112.74-228.66-33.23-27.48-68.59-41.58-101.07-40.59Z"/></g><path class="af" d="M1837.21,645.12l-4.45-.1c1.11-54.42-20.78-188-48.82-243.61,0,0,14.81,17.44,25.8,59.01,17.17,63.19,28.3,143.98,27.47,184.7Z"/><path class="af" d="M1733.85,952.98c-3.89-45.34-16.42-68.39-16.55-68.62,0,0,11.42,11.44,16.69,37.63,1.75,8.73,3.29,18.91,4.29,30.55l-4.44,.45Z"/></g><g><path class="y" d="M1478.16,390.03c-94.98-243.8-311.94-306.47-443.95-305.77h0s-.05,0-.07,0c-.23,0-.47,0-.7,0h0c-132-.69-347.45,61.97-442.43,305.77-70.15,180.07-46.25,436.99,62.36,597.09,122.5,180.57,380.85,173.35,380.85,173.35h.74s258.35,7.22,380.85-173.35c108.61-160.1,132.52-417.02,62.36-597.09Z"/><path class="ah" d="M1478.16,390.03c-91.09-233.79-294.29-300.98-427.24-305.48-.95,27.04,4.33,76.44,38.79,164.88,113.76,176.72,282.94,156.68,349.4,286.2,54.89,106.99,4.89,325.88-47.03,410.56-112.69,183.78-399.84,190.43-399.84,190.43,0,0-120.62,14.22-240.98-54.54,127.02,82.73,282.95,78.39,282.95,78.39h.74s258.35,7.22,380.85-173.35c108.61-160.1,132.52-417.02,62.36-597.09Z"/><path class="ac" d="M1031.12,1162.91c-29.68,0-265.02-5.52-379.56-174.36-107.25-158.09-134.17-415.8-62.62-599.45,88.63-227.5,287.34-307.93,443.89-307.24h1.3c46.94-.26,139.99,7.4,236.96,61.46,96.1,53.57,166.46,136.26,209.12,245.78,71.54,183.65,44.63,441.35-62.62,599.45-121.78,179.52-380.15,174.36-382.7,174.33h-.69c-.15,0-1.21,.03-3.08,.03Zm-.1-1076.23c-154.88,0-350.52,79.84-437.97,304.29-70.99,182.22-44.29,437.9,62.1,594.73,120.39,177.47,376.41,172.43,379,172.37h.8c2.65,.08,258.67,5.09,379.05-172.37,106.39-156.84,133.09-412.52,62.1-594.73-87.45-224.45-283.87-304.3-439.48-304.3-.32,0-.64,0-.97,0h-2.24c-.79,0-1.6,0-2.39,0Z"/></g><path class="ac" d="M1034.58,843.47c-8.89,0-17.53-2.18-25.25-6.17-12.56-6.52-16.18-20.05-16.18-20.05,9.54,13.4,25.03,21.41,41.43,21.41s33.04-8.58,42.5-22.96c0,0-1.94,11.17-11.03,17.89-9.11,6.36-20.03,9.89-31.47,9.89Z"/><path class="ac" d="M985.52,774.23s-1.61-11.81,7.37-23.17c10.28-11.85,25.36-19.14,41.69-19.14,15.39,0,29.71,6.51,39.92,17.22,9.22,10.67,9.03,24.71,9.03,24.71-6.14-21.85-26.27-37.11-48.95-37.11s-43.03,15.42-49.06,37.49Z"/><path class="ac" d="M1035.21,1004.16c-30.3,0-60.9-3.78-86.74-11.32-39.52-11.54-88.98-35.38-100.16-83.37l4.32-1.18c10.66,45.73,58.64,68.69,97.01,79.9,50.69,14.81,119.97,14.9,168.47,.24,56.93-17.21,90.04-44.18,98.43-80.14l4.32,1.18c-8.8,37.76-42.96,65.89-101.55,83.6-24.46,7.39-54.13,11.09-84.1,11.09Z"/><path class="ac" d="M832.32,928.2s0-13,18.1-19.91c17.9-6.83,25.53,4.61,25.53,4.61-13.99-6.4-35.6,1.18-43.63,15.3Z"/><path class="ac" d="M1236.84,928.2c-8.03-14.11-29.65-21.69-43.63-15.3,0,0,11.01-10.04,27.74-3.77,14.58,5.46,15.89,19.07,15.89,19.07Z"/><g><path class="g" d="M1517.73,606.83c-86.85-30.65-106.51-117.3-196.96-149.38-105.02-37.24-177.8,47.81-286.56,45.76h0c-109.13,2.4-180.59-83.07-285.82-45.76-90.46,32.08-110.12,118.73-196.96,149.38-.69,41.8,2.09,84.13,8.33,125.71,57.34,44.63,153.32,108.53,232.98,108.53,140.14,0,144.59-106.74,241.85-110.65,97.25,3.91,101.71,110.65,241.85,110.65,79.66,0,175.65-63.9,232.98-108.53,6.23-41.58,9.01-83.91,8.33-125.71Z"/><path class="a`" d="M1033.09,519.44c108.77,2.05,192.79-83.59,297.81-46.35,90.46,32.08,99.98,103.08,186.83,133.73-86.85-30.65-106.51-117.3-196.96-149.38-105.02-37.24-177.8,47.81-286.56,45.76h0c-109.13,2.4-180.59-83.07-285.82-45.76-49.98,17.72-78.35,52.1-108.37,84.49,28.3-25.24,58.63-50.51,104.66-66.84,105.23-37.32,161.84,46.55,288.42,44.34Z"/><path class="f" d="M1517.73,606.83c-27.83-9.82-48.75-25.4-67.32-43.09,17.24,53.93,18.4,121.99,1.94,160.13-15.59,31.3-95.52,79.16-168.71,82.68-126.3,6.09-132.24-101.54-249.44-104.15-122.22,7-111.36,122.81-241.48,127.18-79.62,2.67-175.65-52.42-232.98-97.05,57.34,44.63,153.32,108.53,232.98,108.53,140.14,0,144.59-106.74,241.85-110.65,97.25,3.91,101.71,110.65,241.85,110.65,79.66,0,175.65-63.9,232.98-108.53,6.23-41.58,9.01-83.91,8.33-125.71Z"/><path class="m" d="M1276.43,843.47c-78.05,0-115.08-33.34-147.75-62.75-26.38-23.75-51.29-46.18-94.18-47.9-42.72,1.73-67.64,24.16-94.01,47.9-32.67,29.41-69.7,62.75-147.75,62.75s-170.41-59.26-234.28-108.98l-.75-.58-.15-.99c-6.23-41.59-9.05-84.03-8.36-126.13l.03-1.71,1.51-.53c42.49-15,68.22-43.03,95.46-72.71,27.2-29.64,55.33-60.29,101.5-76.67,60.73-21.54,109.81-2.86,161.77,16.9,38.45,14.62,78.11,29.73,124.7,28.73l2.27-.05v.09c45.06,.47,84.41-14.42,122.31-28.73,52.43-19.79,101.94-38.49,162.72-16.94,46.17,16.37,74.3,47.02,101.5,76.67,27.24,29.68,52.97,57.71,95.46,72.71l1.5,.53,.03,1.71c.69,42.11-2.12,84.55-8.36,126.13l-.15,.99-.75,.58c-63.87,49.72-156.36,108.98-234.28,108.98Zm-241.93-115.46c44.57,1.79,70.06,24.73,97.03,49.01,33.66,30.3,68.46,61.63,144.9,61.63,80.38,0,178.87-67.06,230.93-107.49,6.01-40.43,8.76-81.66,8.18-122.59-42.64-15.51-69.63-44.91-95.73-73.36-26.83-29.24-54.57-59.47-99.73-75.48-59.33-21.05-108.16-2.61-159.86,16.91-38.88,14.68-79.04,29.74-126.05,28.97h-.25c-47.13,.95-87.2-14.28-125.94-29.01-51.22-19.49-99.6-37.89-158.9-16.87-45.15,16.01-72.9,46.25-99.73,75.48-26.1,28.44-53.08,57.85-95.73,73.36-.58,40.93,2.17,82.16,8.18,122.59,52.06,40.43,150.55,107.49,230.93,107.49s111.24-31.33,144.9-61.63c26.98-24.29,52.46-47.23,96.87-49.01Z"/></g><g><path class="q" d="M1317.8,40.93c-101.84-55.57-249.76-45.83-284.15-.67-34.37-45.16-180.46-54.9-282.3,.67-233.85,127.6-296.22,414.11-198.04,671.73,6.68-205.91,88.68-266.18,175.77-303.36,111.57-47.64,259.84-115.57,305.12-250.39,45.29,134.83,194.3,202.76,305.87,250.39,87.09,37.18,169.09,97.45,175.77,303.36,98.17-257.62,35.81-544.12-198.04-671.73Z"/><path class="o" d="M1101.02,154.89c39.35,68.36,112.19,113.16,183.5,145.26,85.32,38.41,121.89,65.88,143.9,97.11-25.98-55.03-99.68-103.49-131.43-116.37-71.25-28.89-176.67-107.54-195.97-126Z"/><path class="o" d="M551.32,456.24c6.55-40.93,43.39-98.54,157.72-141.09,102.1-38,201.35-87.09,264.35-182.73-50.28,127.93-185.29,183.68-256.56,209.81-71.27,26.13-120.36,35.71-165.51,114.01Z"/><path class="o" d="M934.28,37.17s-186.78-58.01-327.55,171.65c31.4-29.28,72.97-97.75,155.63-126.97-101.84,72.85-171.2,179.94-194.68,264.22,59.24-105.82,199.72-191.19,199.72-191.19,0,0-95.7,77.45-147.54,166.34,165.36-82.14,247.76-132.87,309.7-188.33-85.69,37.98-209.67,106.2-209.67,106.2,0,0,105.52-147.92,237.15-156.18-150.92-29.22-282.98,113.88-282.98,113.88C804.1,41.56,871.16,46.36,934.28,37.17Z"/><path class="o" d="M1097.59,45.62s159.66-81.74,306.43,114.39c-30.62-23.05-88.74-86.96-164.7-102.54,97.16,53.93,183.61,150.22,212.53,226.27-62.66-91.18-204.86-152.18-204.86-152.18,0,0,101.82,60.03,156.29,136.32-136.41-35.2-218.65-65.29-292.25-132.7,90.31,33.7,186.63,69.21,186.63,69.21,0,0-101.89-97.51-215.78-112.36,122.79-25.48,269.05,72.67,269.05,72.67-130.09-127.5-196.6-119.55-253.34-119.08Z"/><path class="aa" d="M553.31,712.66c6.68-205.91,88.68-266.18,175.77-303.36,111.57-47.64,259.84-115.57,305.12-250.39,45.29,134.83,194.3,202.76,305.87,250.39,87.09,37.18,169.09,97.45,175.77,303.36,76.86-201.69,55.3-421.06-69.89-568.05,65.72,96.9,76.44,180.14,81.37,208.74-45.04-78.08-103.36-130.1-103.36-130.1,0,0,70.16,96.96,84.08,167.99-34.52-59.59-131.96-115.97-131.96-115.97,0,0,77.58,68.73,99.48,180.97-46.03-69.82-213.77-124.12-282.48-165.72-90.72-54.94-135.12-150.08-158.48-188.2-7.08,22.07-46.53,103.03-128.09,172.95-99.78,85.54-292.5,82.43-368.08,251.2-11.88-44.94-20.94-114.88-15.16-180.12-26.93,115.23-16.58,244.01,30.03,366.31Z"/><path class="af" d="M555.18,723.87l-3.92-10.3c-49.13-128.93-58.21-266.09-25.57-386.22,34.65-127.5,112.34-227.29,224.66-288.58,100.27-54.71,244.78-47.25,283.3-2.18,38.77-45.37,184.24-52.89,285.16,2.18,112.33,61.29,190.02,161.08,224.66,288.58,32.65,120.13,23.56,257.29-25.57,386.22l-3.92,10.3-.36-11.13c-6.88-212.18-93.61-266.73-174.36-301.21-95.79-40.9-255.2-108.96-305.05-245.83-49.95,137.23-208.83,205.06-304.31,245.83-80.75,34.48-167.48,89.03-174.36,301.21l-.36,11.13ZM1034.21,151.85l2.09,6.23c46.64,138.84,208.12,207.78,304.59,248.98,86.48,36.92,167.5,98.35,176.74,294.37,98.34-270.1,16.63-539.69-200.83-658.35-98.97-54-247.17-46.28-281.43-1.29l-1.72,2.26-1.72-2.26c-34.03-44.7-181.24-52.37-279.57,1.29-217.45,118.66-299.16,388.24-200.83,658.35,9.23-196.02,90.26-257.45,176.73-294.37,124.39-53.11,260.7-120.52,303.85-248.98l2.09-6.23Z"/></g><g><path class="d" d="M777.85,566.35c-74.18-6.07-125.04,99.28-93.68,157.82,22.76,42.49,140.2,39.97,162.66,7.38,22.46-32.59,5.09-159.14-68.97-165.2Z"/><path class="i" d="M675.82,672.73c-2.98,19.44,1.92,39.43,8.35,51.44,22.76,42.49,140.2,39.97,162.66,7.38,5.03-7.3,10.41-25.51,8.89-43.18-44.26,42.34-152.8,32.07-179.9-15.64Z"/><path d="M768.59,758.44c-4,0-7.95-.12-11.81-.36-36.94-2.31-64.8-14.53-74.53-32.7-15.76-29.44-12.26-72.02,8.92-108.48,20.86-35.9,53.34-55.72,86.86-52.95h0c28.35,2.32,51.98,22.62,66.54,57.17,16.4,38.93,18.3,91.21,4.06,111.87-11.91,17.29-47.32,25.44-80.03,25.44Zm3.29-189.92c-29.78,0-58.2,18.68-76.94,50.95-20,34.43-23.55,76.02-8.83,103.5,8.98,16.76,35.49,28.09,70.93,30.3,39.37,2.46,77.22-7.49,88.01-23.15,11.88-17.23,12.46-66.65-4.54-107-13.85-32.88-36.16-52.18-62.82-54.37-1.94-.16-3.88-.24-5.81-.24Z"/></g><g><g><path class="n" d="M774.21,634.17c20.39-.44,37.19,24.16,37.53,54.93,.33,30.77-15.92,56.07-36.3,56.51-20.39,.44-37.19-24.16-37.53-54.93-.34-30.77,15.92-56.08,36.3-56.52Z"/><path class="r" d="M783.65,713.24c10.62-2.58,20.57-9.63,27.81-17.67-1.14,27.28-17.78,49.64-36.19,50.04-19.14,.41-36.63-24.45-37.32-53.2,10.35,15.23,28.73,22.87,45.7,20.83Z"/><path class="h" d="M773.74,748.01c-7.73-.33-15.1-3.97-21.43-10.59-10.2-10.68-16.41-28.14-16.62-46.7-.36-32.04,16.9-58.49,38.47-58.95h0c8.4-.19,16.38,3.49,23.17,10.61,10.2,10.68,16.42,28.14,16.63,46.7,.35,32.04-16.92,58.49-38.48,58.95-.59,.01-1.17,0-1.75-.02Zm.52-111.43c-19.14,.41-34.44,24.68-34.12,54.09,.19,17.3,5.9,33.49,15.27,43.3,5.92,6.2,12.78,9.43,19.99,9.25,19.13-.42,34.44-24.68,34.12-54.08-.2-17.31-5.91-33.49-15.28-43.3-5.92-6.2-12.83-9.39-19.99-9.25h0Z"/></g><path d="M774.33,660.34c11.87-.26,21.68,14.84,21.88,33.72,.21,18.87-9.25,34.39-21.13,34.64-11.87,.26-21.67-14.84-21.88-33.71-.2-18.88,9.26-34.39,21.13-34.64Z"/><path class="d" d="M776.28,660.74c6.85-.89,12.97,4.55,13.67,12.16,.7,7.6-4.29,14.48-11.15,15.37-6.85,.89-12.96-4.56-13.67-12.16-.69-7.61,4.3-14.49,11.15-15.38Z"/><path class="d" d="M785.78,707.71c3.16-.4,5.97,2.1,6.29,5.59,.32,3.5-1.98,6.67-5.13,7.08-3.15,.41-5.97-2.1-6.29-5.6-.32-3.5,1.98-6.67,5.13-7.08Z"/></g><g><path class="d" d="M1291.3,566.35c74.18-6.07,125.04,99.28,93.68,157.82-22.76,42.49-140.2,39.97-162.66,7.38-22.46-32.59-5.09-159.14,68.97-165.2Z"/><path class="i" d="M1213.21,690.68c.14,17.47,3.26,32.38,9.12,40.87,22.46,32.59,139.9,35.11,162.66-7.38,8.08-15.08,10.66-33.28,8.83-51.87-38.34,57.82-148.59,64.43-180.61,18.38Z"/><path d="M1300.57,758.44c-32.7,0-68.11-8.16-80.03-25.44-14.24-20.67-12.35-72.95,4.06-111.88,14.55-34.54,38.18-54.85,66.53-57.17h0c33.53-2.75,66.01,17.05,86.86,52.95,21.18,36.46,24.68,79.04,8.92,108.48-9.73,18.16-37.59,30.39-74.53,32.7-3.86,.24-7.82,.36-11.82,.36Zm-9.1-189.69c-26.65,2.18-48.96,21.49-62.81,54.36-17,40.34-16.42,89.77-4.54,107,10.79,15.66,48.64,25.62,88.01,23.15,35.44-2.21,61.96-13.54,70.93-30.3,14.72-27.48,11.17-69.08-8.83-103.5-19.96-34.36-50.91-53.35-82.75-50.71h0Z"/></g><g><g><path class="n" d="M1293.66,635.6c20.39-.44,37.19,24.15,37.53,54.93,.33,30.77-15.92,56.07-36.3,56.51-20.39,.44-37.19-24.16-37.53-54.93-.34-30.77,15.92-56.08,36.3-56.52Z"/><path class="r" d="M1303.1,714.67c10.62-2.58,20.57-9.63,27.81-17.67-1.14,27.28-17.78,49.64-36.19,50.04-19.14,.41-36.63-24.45-37.32-53.2,10.35,15.23,28.73,22.87,45.7,20.83Z"/><path class="h" d="M1293.19,749.44c-7.73-.33-15.1-3.97-21.43-10.59-10.2-10.68-16.41-28.14-16.62-46.7-.36-32.04,16.9-58.49,38.47-58.95h0c8.4-.19,16.38,3.49,23.18,10.61,10.2,10.68,16.42,28.14,16.63,46.7,.35,32.04-16.92,58.49-38.48,58.95-.59,.01-1.17,0-1.75-.02Zm.52-111.43c-19.14,.41-34.44,24.68-34.12,54.09,.19,17.3,5.9,33.49,15.27,43.3,5.92,6.2,12.78,9.43,19.99,9.25,19.13-.42,34.44-24.68,34.12-54.08-.2-17.31-5.91-33.49-15.28-43.3-5.92-6.2-12.83-9.39-19.99-9.25h0Z"/></g><path d="M1293.78,661.77c11.87-.26,21.68,14.84,21.88,33.72,.21,18.87-9.25,34.39-21.13,34.64-11.87,.26-21.67-14.84-21.88-33.71-.2-18.88,9.26-34.39,21.13-34.64Z"/><path class="d" d="M1295.73,662.17c6.85-.89,12.97,4.55,13.67,12.16,.7,7.6-4.29,14.48-11.15,15.37-6.85,.89-12.96-4.56-13.67-12.16-.69-7.61,4.3-14.49,11.15-15.38Z"/><path class="d" d="M1305.23,709.14c3.16-.4,5.97,2.1,6.29,5.59,.32,3.5-1.98,6.67-5.13,7.08-3.15,.41-5.97-2.1-6.29-5.6-.32-3.5,1.98-6.67,5.13-7.08Z"/></g><path class="ac" d="M1033.67,1062.32c-13.34,0-26.55-1.41-38.73-4.9-21.29-6.09-28.11-17.01-28.11-17.01,36.66,22.89,95.83,22.85,137.63-.06,0,0-6.93,8.92-27.81,16.23-13.65,4.78-28.55,5.74-42.98,5.74Z"/></g></g></g></g></svg>