<?xml version="1.0" encoding="UTF-8"?><svg xmlns="http://www.w3.org/2000/svg" viewBox="0 0 80.09 91.64"><defs><style>.d{fill:#bc5318;}.e{fill:#69000d;}.f{fill:#fff;}.g{fill:#4a0007;}.h,.i{fill:#244d8b;}.j,.k{fill:#0a172c;}.l{opacity:.7;}.l,.m,.n,.o,.i,.p,.k,.q,.r,.s,.t{mix-blend-mode:multiply;}.u,.v{fill:#fee5a4;}.m,.w{fill:#b60006;}.n{opacity:.6;}.n,.s,.t{fill:#db8c10;}.o,.x{fill:#f9c700;}.y{fill:#ec9148;}.a`{fill:#21488e;}.aa{fill:#dd6a17;}.ab{isolation:isolate;}.i,.p,.r,.t{opacity:.5;}.ac{fill:#ffff4c;}.ad{fill:#ffed57;}.ae{fill:#e0e0e0;}.af,.ag,.ah{mix-blend-mode:screen;}.af,.ai,.r{fill:#f2ad67;}.aj{fill:#e98180;}.ak{fill:#2f4463;}.al{fill:#fdbb30;}.am{fill:#112755;}.an{fill:#f47700;}.ao,.p{fill:gray;}.ap{fill:#d97f00;}.k,.ag,.s,.v{opacity:.4;}.aq{fill:#fca21c;}.ar,.q{fill:#acb0b7;}.as{fill:#c37a32;}.ag{fill:#007aec;}.at{fill:#e35e5f;}.au{fill:#d94647;}.av{fill:#ebebeb;}.ah{fill:#00a4ec;}.aw{fill:#520005;}.ax{fill:#825017;}.ay{fill:#fb8c10;}.b`{fill:#395b96;}.ba{fill:#fefdf2;}.bb{fill:#220e01;}.bc{fill:#231f20;}.bd{fill:#515659;}.be{fill:#ffc900;}.bf{fill:#e67a32;}.bg{fill:#e9b2b4;}</style></defs><g class="ab"><g id="a"/><g id="b"><g id="c"><g><g><path class="x" d="M18.99,89.64s-.19-1.11-.16-2.92c.03-1.81,.43-4.59,.16-6.43-.27-1.84-1.92-5.7-3.83-5.4-1.92,.3-2.27,.54-2.51,.84-.24,.3-1.46,2.86-1.11,7.13,.35,4.27,1.13,7.13,3.94,7.97,2.81,.84,3.59-.81,3.51-1.19Z"/><path class="o" d="M18.83,86.73c.03-1.81,.43-4.59,.16-6.43-.27-1.81-1.87-5.58-3.75-5.41,.01,.05,.02,.11,.02,.17,0,.56-.1,1.1-.04,1.67,.08,.81,.22,1.63,.68,2.33,.31,.47,.73,.96,.85,1.52,.11,.51-.35,1.04-.53,1.49-.24,.61-.26,1.24-.28,1.89-.02,.7-.04,1.42,.04,2.12,.07,.62,.18,1.4,.57,1.91,.17,.22,1.03,1.15,.31,1.34-.55,.15-1.48-.3-1.87-.64-1.35-1.14-1.81-2.86-2.19-4.56-.39-1.76-.38-3.53-.16-5.31,.17-1.36,.53-2.62,1.28-3.68-.87,.2-1.1,.39-1.28,.61-.24,.3-1.46,2.86-1.11,7.13,.35,4.27,1.13,7.13,3.94,7.97,2.81,.84,3.59-.81,3.51-1.19,0,0-.19-1.11-.16-2.92Z"/><path class="an" d="M16.92,91.13h0c-.44,0-.93-.08-1.46-.24-2.84-.85-3.63-3.7-3.99-8.02-.35-4.3,.88-6.88,1.12-7.17,.25-.3,.59-.55,2.55-.86,.07-.01,.15-.02,.22-.02,1.86,0,3.41,3.61,3.68,5.47,.18,1.23,.06,2.89-.05,4.36-.05,.76-.11,1.47-.12,2.08-.03,1.78,.16,2.89,.16,2.91,.03,.14-.04,.44-.28,.74-.23,.28-.77,.75-1.85,.75Zm-1.55-16.18c-.07,0-.13,0-.2,.02-1.92,.3-2.25,.53-2.47,.82-.24,.29-1.44,2.83-1.09,7.09,.35,4.27,1.13,7.09,3.9,7.91,.52,.15,1,.23,1.42,.23h0c1.02,0,1.54-.44,1.75-.71,.23-.28,.28-.54,.26-.64,0-.01-.19-1.14-.16-2.93,0-.61,.06-1.33,.12-2.09,.11-1.46,.22-3.12,.05-4.33-.28-1.89-1.84-5.37-3.56-5.37Z"/><g><path class="av" d="M16.56,90.05c-1.51-.38-2.89-1.7-3.59-4.05-.7-2.35-.59-6.32-.24-8.37,.18-1.08,.77-1.94,1.29-2.52-.94,.21-1.19,.4-1.37,.63-.24,.3-1.46,2.86-1.11,7.13,.35,4.27,1.13,7.13,3.94,7.97,2.6,.78,3.46-.58,3.51-1.08-.32,.44-1.22,.6-2.43,.3Z"/><path class="p" d="M16.56,90.05c-1.51-.38-2.89-1.7-3.59-4.05-.1-.35-.19-.73-.26-1.13,.02,.33,.05,.66,.11,.98,.15,.82,.45,1.5,.84,2.22,.22,.42,.52,.91,.48,1.4,0,.04-.05,.07-.09,.06-.36-.05-.67-.21-.94-.44,.57,.83,1.33,1.43,2.37,1.74,2.6,.78,3.46-.58,3.51-1.08-.32,.44-1.22,.6-2.43,.3Z"/><path class="ao" d="M16.92,91.13c-.44,0-.93-.08-1.46-.24-2.84-.85-3.63-3.7-3.99-8.02-.35-4.3,.88-6.88,1.12-7.17,.18-.22,.42-.43,1.41-.65,.03,0,.05,0,.07,.03,.01,.02,.01,.05,0,.07-.48,.54-1.09,1.4-1.28,2.49-.33,1.93-.48,5.92,.24,8.34,.64,2.15,1.93,3.61,3.55,4.01,.41,.1,.78,.15,1.13,.15,.59,0,1.04-.16,1.24-.43,.02-.02,.04-.03,.07-.02,.03,0,.04,.03,.04,.06-.04,.45-.62,1.37-2.13,1.37Zm-3.08-15.92c-.8,.2-1,.38-1.15,.56-.24,.29-1.44,2.83-1.09,7.09,.35,4.27,1.13,7.09,3.9,7.91,.52,.15,1,.23,1.42,.23,1.22,0,1.79-.62,1.96-1.06-.26,.2-.67,.32-1.18,.32-.35,0-.74-.05-1.16-.16-1.66-.42-2.98-1.91-3.64-4.09-.73-2.44-.58-6.46-.24-8.4,.17-1.03,.71-1.86,1.18-2.41Z"/></g><path class="f" d="M15.64,88.88c-.36-.34-.73-.67-1.04-1.06-.36-.48-.54-1.06-.72-1.62-.46-1.44-.78-2.92-.87-4.43-.06-1.03,0-2.09,.14-3.11,.15-1.09,.43-2.23,1.07-3.15,.03-.05-.04-.1-.07-.05-.71,.87-1.04,1.95-1.24,3.04-.21,1.18-.25,2.41-.19,3.6,.08,1.42,.4,2.85,.89,4.17,.41,1.1,.98,2.03,1.95,2.71,.06,.04,.12-.04,.07-.09Z"/></g><g><path class="x" d="M42.33,89.54s-.49-.82-1.02-2.27c-.53-1.45-1.07-3.78-1.85-5.16-.78-1.38-3.28-3.94-4.71-3.12-1.43,.83-1.64,1.13-1.74,1.44-.1,.31-.28,2.73,1.31,6.01,1.59,3.29,3.09,5.32,5.58,5.13,2.49-.2,2.61-1.75,2.43-2.02Z"/><path class="o" d="M41.3,87.27c-.53-1.45-1.07-3.78-1.85-5.16-.77-1.36-3.2-3.86-4.64-3.15,.03,.04,.05,.08,.07,.13,.17,.45,1.01,3.47,1.58,3.88,.39,.28,1.34,.98,1.33,1.39,0,.56,.17,1.07,.36,1.59,.2,.57,.41,1.14,.69,1.67,.25,.47,.57,1.06,1.04,1.34,.21,.12,1.17,.6,.65,.97-.39,.28-1.27,.21-1.69,.07-1.42-.49-2.32-1.72-3.14-2.96-.85-1.28-1.39-2.69-1.76-4.17-.28-1.14-.39-2.25-.11-3.33-.63,.43-.76,.65-.83,.88-.1,.31-.28,2.73,1.31,6.01,1.59,3.29,3.09,5.32,5.58,5.13,2.49-.2,2.61-1.75,2.43-2.02,0,0-.49-.82-1.02-2.27Z"/><path class="an" d="M41.14,91.36h0c-.35,.13-.76,.22-1.23,.26-2.52,.2-4.02-1.83-5.63-5.16-1.6-3.31-1.41-5.74-1.31-6.05,.1-.32,.3-.62,1.76-1.47,.05-.03,.11-.06,.17-.08,1.48-.57,3.82,1.83,4.61,3.22,.52,.92,.94,2.28,1.3,3.48,.19,.62,.37,1.2,.55,1.69,.53,1.42,1.02,2.25,1.02,2.26,.07,.11,.1,.37,0,.68-.1,.29-.38,.84-1.24,1.17Zm-6.21-12.4c-.05,.02-.11,.05-.15,.07-1.43,.83-1.62,1.12-1.72,1.41-.1,.3-.28,2.69,1.31,5.97,1.59,3.29,3.07,5.29,5.53,5.1,.46-.04,.86-.12,1.2-.25h0c.81-.31,1.09-.83,1.18-1.1,.09-.3,.06-.52,0-.59,0-.01-.5-.84-1.03-2.28-.18-.49-.36-1.08-.55-1.7-.37-1.2-.78-2.55-1.29-3.46-.8-1.42-3.12-3.7-4.48-3.17Z"/><g><path class="av" d="M40.52,90.61c-1.32,.16-2.82-.47-4.1-2.12-1.28-1.65-2.41-4.84-2.77-6.58-.18-.92,.02-1.78,.25-2.4-.68,.45-.82,.68-.9,.92-.1,.31-.28,2.73,1.31,6.01,1.59,3.29,3.09,5.32,5.58,5.13,2.31-.18,2.58-1.53,2.46-1.94-.12,.45-.79,.85-1.84,.99Z"/><path class="p" d="M40.52,90.61c-1.32,.16-2.82-.47-4.1-2.12-.19-.24-.37-.52-.55-.82,.12,.26,.24,.51,.39,.75,.37,.61,.82,1.05,1.35,1.51,.31,.26,.69,.56,.81,.96,.01,.04-.02,.07-.05,.08-.3,.07-.6,.04-.88-.06,.71,.49,1.49,.72,2.42,.65,2.31-.18,2.58-1.53,2.46-1.94-.12,.45-.79,.85-1.84,.99Z"/><path class="ao" d="M41.14,91.36c-.35,.13-.76,.22-1.23,.26-2.52,.2-4.02-1.83-5.63-5.16-1.6-3.31-1.41-5.74-1.31-6.05,.07-.23,.2-.47,.92-.95,.02-.01,.04-.01,.06,0,.02,.01,.03,.04,.02,.06-.22,.57-.44,1.45-.25,2.37,.33,1.64,1.44,4.86,2.75,6.56,1.17,1.51,2.65,2.27,4.06,2.1,.35-.04,.67-.12,.94-.22,.47-.18,.78-.45,.86-.73,0-.02,.03-.04,.05-.04s.04,.02,.05,.04c.1,.37-.07,1.28-1.28,1.75Zm-7.33-11.72c-.57,.4-.68,.61-.75,.8-.1,.3-.28,2.69,1.31,5.97,1.59,3.29,3.07,5.29,5.53,5.1,.46-.04,.86-.12,1.2-.25,.97-.37,1.24-1.04,1.24-1.44-.14,.24-.43,.46-.84,.61-.28,.11-.61,.19-.97,.23-1.45,.18-2.96-.6-4.15-2.14-1.33-1.72-2.44-4.96-2.78-6.61-.18-.87,0-1.69,.2-2.28Z"/></g><path class="f" d="M39.43,89.97c-.39-.16-.79-.3-1.15-.53-.43-.27-.76-.67-1.07-1.06-.81-1-1.52-2.08-2.05-3.26-.36-.81-.64-1.66-.85-2.52-.22-.91-.34-1.91-.12-2.83,.01-.05-.06-.06-.07-.02-.3,.91-.23,1.87-.05,2.79,.19,1,.54,1.99,.96,2.92,.5,1.1,1.19,2.14,1.99,3.05,.66,.74,1.4,1.31,2.38,1.56,.06,.02,.09-.07,.03-.09Z"/></g><path class="be" d="M57.33,60.76c-.08-.18-.19-.29-.36-.39-.03-.02-.05-.01-.07,0-1.85-1.23-2.69-3.97-2.61-6.08,.05-1.32-.04-2.66-.15-3.98-.07-.82-.75-1.4-1.4-1.81-2.03-1.29-4.42-1.85-6.54-2.96-1.91-.99-3.49-2.53-4.51-4.43-.41-.76-.63-1.6-1.11-2.34-.94-1.69-3.75-.35-5.07,.36-1.01,.54-1.96,1.18-2.93,1.79-1,.63-2.02,1.2-3.07,1.74-2.28,1.17-4.67,2.11-7.13,2.82-2.48,.71-5.04,1.12-7.59,1.48-2.55,.36-5.14,.62-7.65,1.19-1.68,.38-3.33,.94-4.98,1.42-.03,0-.04,.03-.05,.04,0,.02-.47,.14-.52,.17-.19,.09-.35,.21-.51,.35-1.21,1.06-1.24,2.6-.88,4.06,.24,.98,.66,1.91,1.18,2.76,.29,.48,.61,.95,.95,1.39,.77,1,1.66,1.91,2.64,2.71,.41,.34,.85,.65,1.31,.93,.64,.39,1.37,.8,2.14,.83,.04,0,.07-.02,.08-.05,.81,.85,1.82,1.52,2.92,1.84,.02,.05,.11,.06,.14,0,.03-.03,.04-.07,.02-.1,.05-.42,.03-.84,.03-1.27,0-.38,.13-.75,.11-1.12,0,0,0-.01,0-.02,.92-.67,1.92-1.22,2.81-1.94,.78-.63,1.51-1.21,2.53-1.35,1.16-.15,2.43,.24,3.35,.93,.64,.48,1.06,1.13,1.55,1.75,.48,.59,1.02,1.09,1.78,1.26,.76,.17,1.58,.05,2.32-.12,1.32-.31,2.72-.93,3.76-1.86,.01,0,.03-.01,.04-.03,.05-.04,.09-.09,.14-.13-.01-.02-.03-.04-.04-.06,.67-1.14,2.14-1.02,3.32-.88,1.31,.16,2.6,.49,3.86,.87,1.19,.36,2.38,.77,3.54,1.23,1.08,.42,2.14,.92,3.23,1.33,1.09,.41,2.21,.7,3.37,.75,.84,.03,1.69,.08,2.48-.27,.41-.19,.76-.49,1.09-.78,.44-.39,.89-.76,1.38-1.07,1.06-.68,2.27-.85,3.5-.92,.51-.03,1.01,0,1.52,.05,.06,0,.1-.06,.08-.12Z"/><path class="ap" d="M57.33,60.76c-.08-.18-.19-.29-.36-.39-.03-.02-.05-.01-.07,0-1.85-1.23-2.69-3.97-2.61-6.08,.05-1.32-.04-2.66-.15-3.98-.07-.82-.75-1.4-1.4-1.81-2.03-1.29-4.42-1.85-6.54-2.96-1.91-.99-3.49-2.53-4.51-4.43-.41-.76-.63-1.6-1.11-2.34-.94-1.69-3.75-.35-5.07,.36-1.01,.54-1.96,1.18-2.93,1.79-1,.63-2.02,1.2-3.07,1.74-2.28,1.17-4.67,2.11-7.13,2.82-2.48,.71-5.04,1.12-7.59,1.48-2.55,.36-5.14,.62-7.65,1.19-1.68,.38-3.33,.94-4.98,1.42-.03,0-.04,.03-.05,.04,0,.02-.47,.14-.52,.17-.19,.09-.35,.21-.51,.35-1.21,1.06-1.24,2.6-.88,4.06,.24,.98,.66,1.91,1.18,2.76,.29,.48,.61,.95,.95,1.39,.77,1,1.66,1.91,2.64,2.71,.41,.34,.85,.65,1.31,.93,.64,.39,1.37,.8,2.14,.83,.04,0,.07-.02,.08-.05,.81,.85,1.82,1.52,2.92,1.84,.02,.05,.11,.06,.14,0,.03-.03,.04-.07,.02-.1,.05-.42,.03-.84,.03-1.27,0-.38,.13-.75,.11-1.12,0,0,0-.01,0-.02,.92-.67,1.92-1.22,2.81-1.94,.78-.63,1.51-1.21,2.53-1.35,1.16-.15,2.43,.24,3.35,.93,.64,.48,1.06,1.13,1.55,1.75,.48,.59,1.02,1.09,1.78,1.26,.76,.17,1.58,.05,2.32-.12,1.32-.31,2.72-.93,3.76-1.86,.01,0,.03-.01,.04-.03,.05-.04,.09-.09,.14-.13-.01-.02-.03-.04-.04-.06,.67-1.14,2.14-1.02,3.32-.88,1.31,.16,2.6,.49,3.86,.87,1.19,.36,2.38,.77,3.54,1.23,1.08,.42,2.14,.92,3.23,1.33,1.09,.41,2.21,.7,3.37,.75,.84,.03,1.69,.08,2.48-.27,.41-.19,.76-.49,1.09-.78,.44-.39,.89-.76,1.38-1.07,1.06-.68,2.27-.85,3.5-.92,.51-.03,1.01,0,1.52,.05,.06,0,.1-.06,.08-.12Zm-51.03,1.07c-.55-.34-1.07-.74-1.56-1.16-1.01-.86-1.91-1.86-2.68-2.94-1.26-1.77-2.3-4.08-1.72-6.27,.29-.65,.7-1.27,1.37-1.56,.75-.33,1.54,.08,2.07,.6,.66,.64,1,1.51,1.26,2.37,.28,.93,.46,1.89,.64,2.84,.34,1.78,.67,3.58,1.49,5.22,.31,.62,.73,1.21,1.22,1.74-.75-.04-1.45-.46-2.08-.84Zm47.37-.9c-.96,.24-1.78,.81-2.53,1.43-.41,.34-.79,.72-1.25,.99-.41,.24-.87,.34-1.33,.37-1.1,.08-2.24-.06-3.3-.33-1.12-.29-2.18-.76-3.23-1.21-1.11-.48-2.24-.9-3.39-1.29-1.16-.4-2.34-.76-3.54-1.03-1.04-.24-2.13-.44-3.19-.41-.93,.03-1.76,.33-2.18,1.21-1.13,1.01-2.7,1.65-4.15,1.92-.79,.15-1.66,.18-2.39-.18-.87-.42-1.36-1.37-1.96-2.08-1.11-1.3-3.02-1.96-4.69-1.56-.88,.21-1.56,.83-2.25,1.38-.87,.71-1.86,1.24-2.76,1.89-.05,.04-.03,.1,0,.13,0,.3-.1,.63-.11,.93-.01,.46,.03,.91-.02,1.36-2.18-.68-3.78-2.58-4.57-4.66-.71-1.88-.93-3.9-1.37-5.85-.34-1.5-.82-3.29-2.28-4.09-.22-.12-.43-.19-.64-.22,1.15-.34,2.29-.7,3.44-1.02,1.28-.35,2.58-.58,3.88-.78,2.56-.4,5.13-.69,7.68-1.12,2.54-.43,5.05-1.03,7.48-1.91,2.3-.83,4.5-1.9,6.61-3.12,1.98-1.15,3.82-2.6,6.02-3.32,.84-.27,2.03-.54,2.66,.3,.03,.03,.05,.07,.07,.11,0,.01,0,.03,.01,.04,.65,.99,.95,2.16,1.59,3.16,.55,.86,1.23,1.62,2,2.28,1.77,1.53,4,2.26,6.13,3.13,1.09,.45,2.25,.94,3.15,1.71,.41,.35,.65,.81,.7,1.34,.06,.66,.07,1.32,.13,1.98,.11,1.27-.08,2.51,.19,3.77,.21,.98,.57,1.92,1.09,2.78,.4,.66,.93,1.24,1.6,1.64,.02,.01,.04,.01,.06,0,.02,.02,.04,.05,.06,.07-1.13-.12-2.35-.04-3.45,.23Z"/><path class="n" d="M57.33,60.76c-.08-.18-.19-.29-.36-.39-.03-.02-.05-.01-.07,0-1.85-1.23-2.69-3.97-2.61-6.08,.05-1.32-.04-2.66-.15-3.98-.07-.82-.75-1.4-1.4-1.81-2.03-1.29-4.42-1.85-6.54-2.96-1.91-.99-3.49-2.53-4.51-4.43-.41-.76-.63-1.6-1.11-2.34-.94-1.69-3.75-.35-5.07,.36-1.01,.54-1.96,1.18-2.93,1.79-1,.63-2.02,1.2-3.07,1.74-2.28,1.17-4.67,2.11-7.13,2.82-2.48,.71-5.04,1.12-7.59,1.48-2.55,.36-5.14,.62-7.65,1.19-1.68,.38-3.33,.94-4.98,1.42-.03,0-.04,.03-.05,.04,0,.02-.47,.14-.52,.17-.19,.09-.35,.21-.51,.35-1.21,1.06-1.24,2.6-.88,4.06,.24,.98,.66,1.91,1.18,2.76,.29,.48,.61,.95,.95,1.39,.77,1,1.66,1.91,2.64,2.71,.41,.34,.85,.65,1.31,.93,.64,.39,1.37,.8,2.14,.83,.04,0,.07-.02,.08-.05,.81,.85,1.82,1.52,2.92,1.84,.02,.05,.11,.06,.14,0,.03-.03,.04-.07,.02-.1,.05-.42,.03-.84,.03-1.27,0-.38,.13-.75,.11-1.12,0,0,0-.01,0-.02,.92-.67,1.92-1.22,2.81-1.94,.78-.63,1.51-1.21,2.53-1.35,1.16-.15,2.43,.24,3.35,.93,.64,.48,1.06,1.13,1.55,1.75,.48,.59,1.02,1.09,1.78,1.26,.76,.17,1.58,.05,2.32-.12,1.32-.31,2.72-.93,3.76-1.86,.01,0,.03-.01,.04-.03,.05-.04,.09-.09,.14-.13-.01-.02-.03-.04-.04-.06,.67-1.14,2.14-1.02,3.32-.88,1.31,.16,2.6,.49,3.86,.87,1.19,.36,2.38,.77,3.54,1.23,1.08,.42,2.14,.92,3.23,1.33,1.09,.41,2.21,.7,3.37,.75,.84,.03,1.69,.08,2.48-.27,.41-.19,.76-.49,1.09-.78,.44-.39,.89-.76,1.38-1.07,1.06-.68,2.27-.85,3.5-.92,.51-.03,1.01,0,1.52,.05,.06,0,.1-.06,.08-.12Z"/><path class="s" d="M2.18,55.85c-.07-.9,.11-1.88,.99-2.31,1.42-.7,3.05,.23,4.16,1.08,.78,.59,1.55,1.27,2.5,1.58,1,.33,2.08,.36,3.11,.2,1.03-.16,2.03-.46,2.92-1,1.02-.62,2.08-1.66,3.38-1.48,1.01,.14,1.83,.96,2.61,1.54,.66,.48,1.29,1.01,1.87,1.57,1.77,1.72,4.57,1.44,6.29-.21,.29-.28,1.21-1.19,1.72-.81,1.62,1.23,3.51,2.05,5.47,2.54,1.97,.49,3.99,.69,6.02,.7,1.05,0,2.1-.02,3.14-.09,.64-.04,1.3-.12,1.9-.35,.56-.21,1.01-.53,1.48-.89,.72-.55,1.58-1.23,2.56-1.09,.93,.13,1.63,.76,2.18,1.47,.71,.9,1.61,2,2.69,2.58,.02,0,.04,0,.06,0,.06,0,.1-.06,.08-.12-.08-.18-.19-.29-.36-.39-.03-.02-.05-.01-.07,0-1.85-1.23-2.69-3.97-2.61-6.08,.05-1.32-.04-2.66-.15-3.98-.07-.82-.75-1.4-1.4-1.81-2.03-1.29-4.42-1.85-6.54-2.96-1.91-.99-3.49-2.53-4.51-4.43-.41-.76-.63-1.6-1.11-2.34-.94-1.69-3.75-.35-5.07,.36-1.01,.54-1.96,1.18-2.93,1.79-1,.63-2.02,1.2-3.07,1.74-2.28,1.17-4.67,2.11-7.13,2.82-2.48,.71-5.04,1.12-7.59,1.48-2.55,.36-5.14,.62-7.65,1.19-1.68,.38-3.33,.94-4.98,1.42-.03,0-.04,.03-.05,.04,0,.02-.47,.14-.52,.17-.19,.09-.35,.21-.51,.35-1.21,1.06-1.24,2.6-.88,4.06,.24,.98,.66,1.91,1.18,2.76,.29,.48,.61,.95,.95,1.39,.43,.56,.89,1.08,1.39,1.58-.75-1.23-1.42-2.65-1.54-4.1Z"/><path class="s" d="M1.62,50.71c.82-.42,1.8-.51,2.71-.53,1.05-.02,2.1,.07,3.15,.18,1.09,.12,2.17,.19,3.26,.29,1.33,.11,2.66,.27,3.99,.3,1.27,.03,2.56-.07,3.82-.27,1.24-.2,2.42-.6,3.64-.86,1.12-.24,2.27-.44,3.32-.9,.76-.34,1.3-.92,1.99-1.34,.4-.24,1.08-.55,1.44-.05,.43,.59-.04,1.44,.06,2.09,.14,.85,1.05,1.38,1.79,1.64,.78,.28,1.6,.41,2.42,.48,1.22,.11,2.45,.27,3.68,.34,1.42-.07,2.81-.42,4.17-.83,1.4-.41,2.8-.8,4.2-1.22,1.24-.37,2.46-.77,3.69-1.16,.95-.3,1.9-.63,2.87-.87-1.81-.94-3.81-1.49-5.62-2.43-1.91-.99-3.49-2.53-4.51-4.43-.41-.76-.63-1.6-1.11-2.34-.94-1.69-3.75-.35-5.07,.36-1.01,.54-1.96,1.18-2.93,1.79-1,.63-2.02,1.2-3.07,1.74-2.28,1.17-4.67,2.11-7.13,2.82-2.48,.71-5.04,1.12-7.59,1.48-2.55,.36-5.14,.62-7.65,1.19-1.68,.38-3.33,.94-4.98,1.42-.03,0-.04,.03-.05,.04,0,.02-.47,.14-.52,.17-.19,.09-.35,.21-.51,.35-1.16,1.02-1.23,2.47-.93,3.88-.03-1.33,.27-2.71,1.46-3.33Z"/><path class="am" d="M51.23,65.64c-.42-.79-.91-1.54-1.46-2.24,0,0-.01-.01-.02-.02,.32-.45,.6-.93,.3-1.46,.34-.37,.6-.79,.62-1.31,.01-.55-.24-1.11-.46-1.62,.04,0,.08-.05,.07-.1-.15-.64-.77-.73-1.35-.64-.44,.06-.86,.21-1.29,.28-.51,.08-1.07,0-1.58-.04-2.02-.19-3.99-.86-5.73-1.88-1.61-.94-3.08-2.12-4.81-2.85-.67-.29-1.44-.53-2.18-.5-.22,0-.94,.03-1.09,.31-1.09,.84-1.85,2.06-2.71,3.11-1,1.23-1.82,2.6-2.49,4.04-.66,1.4-1.16,2.87-1.54,4.37-.14,.54-.24,1.08-.33,1.63-.36-.1-.71-.06-.96,.27-.31,.41-.35,1.01-.45,1.5-.92,.08-1.5,.6-2.21,1.13-.71,.54-1.49,.97-2.22,1.49-.44,.31-.87,.67-1.22,1.08,0-.01-.02-.02-.03-.03-.44-.18-.87,.17-1.25,.39-.43,.25-.85,.54-1.2,.9-.63,.66-.44,1.71-.33,2.58-.02,.03-.02,.09,.01,.11,0,.04,0,.08,.01,.12,0,.02,0,.04,0,.05h0s0,.06,0,.08c0,.03,.02,.05,.04,.06,.35,.86,.69,1.73,1.15,2.54,.49,.86,1.15,1.51,1.88,2.17,.5,.46,1.19,1.16,1.93,1.03,.33-.06,.63-.37,.89-.56,.44-.32,.89-.62,1.28-.99,.03-.03,.03-.06,.02-.09,.1-.21,.07-.45,0-.68,0,0,.02-.01,.03-.02,.37-.2,.73-.43,1.08-.66,.87-.56,1.79-1.05,2.68-1.6,2.06-1.27,3.93-2.75,5.71-4.39,1.76-1.62,3.47-3.31,5.41-4.73,.12-.09,.25-.18,.38-.28,.24,.17,.5,.29,.78,.4,.45,.19,.83,.45,1.18,.79,.71,.69,1.27,1.56,1.77,2.4,.47,.78,.91,1.57,1.51,2.25h0c0,.21-.03,.42-.07,.63-.4,.24-.96,.3-1.4,.44-.57,.18-1.14,.38-1.69,.63-.77,.33-1.5,.75-2.15,1.28,0,0-.01,0-.02,0-.46-.1-.88-.1-1.29,.15-.37,.23-.66,.61-.95,.95-.04-.01-.09,0-.1,.04-.27,.66,.01,1.47,.23,2.11,.25,.74,.58,1.5,1.01,2.15,.56,.84,1.27,1.55,2.1,2.13,.39,.27,.82,.49,1.25,.68,.49,.22,.97,.43,1.51,.46,.04,0,.07-.02,.08-.05,.77-.24,2.45-.82,1.95-1.86,0-.02-.02-.03-.03-.03,1.85-.74,3.62-1.73,5.24-2.88,1.46-1.04,2.78-2.32,3.65-3.9,1.97-3.59,.66-7.93-1.16-11.3Z"/><path class="i" d="M52.45,75.28c-.91,.99-2.45,.98-3.61,.44-1.5-.7-2.16-2.2-2.94-3.56-.37-.65-.74-1.31-1.01-2-.16-.42-.43-1.07-.15-1.5,.31-.49,1.02-.53,1.54-.56,.71-.05,1.57-.06,1.93-.76-1.5-.5-3.14-.29-4.62-.89-.06-.02-.98-.06-.92-.07,2.03-.41,3.5-1.07,4.8-1.49,.65-.21,1.23-.55,1.86-.8,.32-.12,.61-.17,.88-.09-.14-.2-.28-.39-.42-.58,0,0-.01-.01-.02-.02,.32-.45,.6-.93,.3-1.46,.34-.37,.6-.79,.62-1.31,.01-.55-.24-1.11-.46-1.62,.04,0,.08-.05,.07-.1-.15-.64-.77-.73-1.35-.64-.44,.06-.86,.21-1.29,.28-.51,.08-1.07,0-1.58-.04-2.02-.19-3.99-.86-5.73-1.88-1.61-.94-3.08-2.12-4.81-2.85-.67-.29-1.44-.53-2.18-.5-.22,0-.94,.03-1.09,.31-1.09,.84-1.85,2.06-2.71,3.11-1,1.23-1.82,2.6-2.49,4.04-.66,1.4-1.16,2.87-1.54,4.37-.14,.54-.24,1.08-.33,1.63-.36-.1-.71-.06-.96,.27-.31,.41-.35,1.01-.45,1.5-.92,.08-1.5,.6-2.21,1.13-.71,.54-1.49,.97-2.22,1.49-.44,.31-.87,.67-1.22,1.08,0-.01-.02-.02-.03-.03-.44-.18-.87,.17-1.25,.39-.43,.25-.85,.54-1.2,.9-.63,.66-.44,1.71-.33,2.58-.02,.03-.02,.09,.01,.11,0,.04,0,.08,.01,.12,0,.02,0,.04,0,.05h0s0,.06,0,.08c0,.03,.02,.05,.04,.06,.35,.86,.69,1.73,1.15,2.54,.49,.86,1.15,1.51,1.88,2.17,.5,.46,1.19,1.16,1.93,1.03,.33-.06,.63-.37,.89-.56,.44-.32,.89-.62,1.28-.99,.03-.03,.03-.06,.02-.09,.1-.21,.07-.45,0-.68,0,0,.02-.01,.03-.02,.37-.2,.73-.43,1.08-.66,.87-.56,1.79-1.05,2.68-1.6,2.06-1.27,3.93-2.75,5.71-4.39,1.76-1.62,3.47-3.31,5.41-4.73,.12-.09,.25-.18,.38-.28,.24,.17,.5,.29,.78,.4,.45,.19,.83,.45,1.18,.79,.71,.69,1.27,1.56,1.77,2.4,.47,.78,.91,1.57,1.51,2.25h0c0,.21-.03,.42-.07,.63-.4,.24-.96,.3-1.4,.44-.57,.18-1.14,.38-1.69,.63-.77,.33-1.5,.75-2.15,1.28,0,0-.01,0-.02,0-.46-.1-.88-.1-1.29,.15-.37,.23-.66,.61-.95,.95-.04-.01-.09,0-.1,.04-.27,.66,.01,1.47,.23,2.11,.25,.74,.58,1.5,1.01,2.15,.56,.84,1.27,1.55,2.1,2.13,.39,.27,.82,.49,1.25,.68,.49,.22,.97,.43,1.51,.46,.04,0,.07-.02,.08-.05,.77-.24,2.45-.82,1.95-1.86,0-.02-.02-.03-.03-.03,1.85-.74,3.62-1.73,5.24-2.88,1.46-1.04,2.78-2.32,3.65-3.9,.7-1.27,.98-2.63,.98-4.01-.12,.85-.35,1.72-.93,2.35Zm-17.23-12.03c-.15,2.3-2.06,4.18-3.56,5.74-.64,.67-1.27,1.34-1.86,2.05-.62,.75-1.25,1.57-2.09,2.08-.42,.26-.84,.36-1.32,.43-.29,.05-.63,.1-.88,.28-.25,.17-.46,.4-.68,.59-.8,.7-1.7,1.32-2.64,1.81-1.1,.58-2.84,1.66-3.7,.2-.59-1.01-.71-2.5-.21-3.57,.02-.05,.09-.07,.13-.03,.2,.21,.39,.44,.57,.66,.58-1.37,1.71-2.36,2.94-3.15,.53-.34,1.06-.86,1.7-.55,.15,.07,.23,.29,.29,.43,0,.02,.02,.05,.03,.07,0-.52,0-1.03,.06-1.55,.06-.56,.14-1.18,.5-1.63,.04-.05,.12-.03,.14,.03,.34,1.4-.08,2.85,.16,4.26,.47-1.44,.49-2.96,.71-4.45,.11-.74,.25-1.48,.53-2.18,.23-.59,.54-1.15,.83-1.72,.57-1.13,1.17-2.26,1.89-3.3,.67-.95,1.45-1.89,2.51-2.42,.05-.03,.1-.01,.12,.04,.53,1.11,1.76,1.64,2.5,2.57,.74,.92,1.41,2.09,1.33,3.31Zm4.26,.7c-.92-.57-1.43-1.55-1.61-2.59,0-.04,.03-.08,.08-.09,.88-.07,1.71,.28,2.56,.45,1.01,.21,2.02,.15,3.05,.11,1.53-.07,3.05-.15,4.54-.47,.58-.24,1.18-.43,1.81-.31,.05,0,.09,.07,.06,.11-.63,1-1.86,1.41-2.88,1.89-1.4,.65-2.86,1.25-4.4,1.43-1.12,.13-2.22,.07-3.2-.54Zm2.75,1.37c.25-.05,.5-.1,.74-.14,.01-.01,.03-.02,.05-.03,2.21-.43,4.72-.94,6.43-2.52,.05-.05,.14-.03,.14,.05,.06,1.11-1.46,1.56-2.29,1.8-.62,.18-1.25,.35-1.87,.48-1.04,.21-2.1,.28-3.14,.51-.1,.02-.15-.13-.05-.15Z"/><path class="h" d="M43.38,83.81c.44,.94-1.29,1.48-1.93,1.68,0,0-.01,0-.02,0-.9-.07-1.86-.61-2.6-1.1-.79-.53-1.46-1.21-2-1.99-.44-.64-.75-1.39-1.01-2.11-.21-.57-.49-1.34-.31-1.97,0,0,.01,0,.02-.01,.29-.31,.55-.65,.88-.93,.35-.3,.77-.33,1.2-.25-.11,.1-.22,.2-.33,.3-.02-.05-.11-.08-.15-.01-.31,.56-.08,1.29,.12,1.85,.25,.73,.63,1.4,1.1,2.01,.59,.77,1.33,1.43,2.12,2,.51,.36,1.3,1.01,1.98,.81,.01,0,.03,0,.05,0,.29-.1,.59-.21,.88-.33,0,0,0,.02,0,.03Z"/><path class="i" d="M37.28,82.78c-.63-.83-1.24-1.83-1.2-2.91,0-.09,.12-.12,.16-.03,.52,1.16,1.38,2.35,2.44,3.13-1.21-1.41-2.53-3.15-2.16-5.07,0-.03,.03-.05,.05-.06v-.03c0-.1,.16-.12,.16-.01-.01,1.37,.66,2.72,1.51,3.76,.65,.79,1.49,1.54,2.46,1.9-.09-.06-.17-.13-.25-.18-.79-.57-1.53-1.23-2.12-2-.47-.61-.85-1.29-1.1-2.01-.19-.56-.43-1.29-.12-1.85,.04-.07,.12-.04,.15,.01,.11-.1,.22-.2,.33-.3-.43-.08-.85-.05-1.2,.25-.33,.28-.59,.62-.88,.93,0,0-.01,0-.02,.01-.18,.63,.1,1.4,.31,1.97,.27,.72,.57,1.47,1.01,2.11,.53,.77,1.21,1.46,1.99,1.98-.58-.46-1.1-1.04-1.53-1.61Z"/><path class="i" d="M43.38,83.81s0-.03,0-.03c-.19,.08-.39,.15-.58,.22,.14,.04,.27,.08,.41,.11,.04,.01,.08,.05,.07,.1-.05,.23-.14,.42-.24,.58,.34-.26,.54-.58,.35-.97Z"/><path class="i" d="M40.24,85.18c.39,.17,.79,.28,1.19,.31,0,0,.01,0,.02,0,.05-.02,.11-.03,.18-.06-.46,0-.94-.09-1.38-.25Z"/><path class="h" d="M22.32,80.57s0,0,0,.02c-.27,.24-.56,.46-.86,.67-.36,.25-.73,.62-1.15,.76-.43,.14-.93-.27-1.25-.52-.33-.26-.63-.56-.95-.84-1.33-1.17-1.97-2.78-2.62-4.39-.08-.78-.31-1.71,.04-2.44,.19-.4,.64-.69,.99-.93,.33-.22,1.08-.79,1.48-.62h.01c-.14,.18-.26,.37-.36,.58-.47,.95-.26,2.14-.03,3.13,0,.04,.04,.06,.08,.06,.39,1.01,.91,1.97,1.64,2.78,.34,.38,.75,.71,1.19,.97,.35,.21,1.07,.66,1.46,.35,.02-.02,.03-.04,.03-.05,.13-.04,.25-.1,.37-.17,.07,.22,.1,.45-.06,.64Z"/><path class="i" d="M22.38,79.93c-.12,.06-.25,.13-.37,.17,0,.02-.01,.04-.03,.05-.03,.02-.06,.04-.09,.05-.17,.26-.46,.28-.8,.16,.15,.17,.29,.35,.4,.54,.03,.05,0,.11-.06,.12-.63,.12-1.19-.29-1.69-.65,.21,.42,.47,.81,.78,1.17,.05,.06-.02,.13-.08,.12-1.57-.25-2.86-1.86-3.65-3.12-.76-1.23-1.65-3.06-.95-4.5,.03-.06,.13-.06,.15,0,.08,.29,.13,.59,.19,.88,.1-.59,.16-1.24,.69-1.58,.05-.05,.11-.09,.19-.12,.05-.01,.08,0,.1,.05,0,.02,.01,.04,.02,.06,.04,.02,.07,.06,.06,.11-.02,.04-.03,.09-.04,.13,0,.03-.01,.06-.03,.09-.28,1.1,.06,2.39,.6,3.36,.28,.5,.67,.92,1.07,1.33,.16,.16,.73,.76,1.34,1.23,.01,0,.02,0,.04,.01,.17,.1,.33,.22,.48,.36,.33,.2,.64,.32,.86,.26-.37-.04-.79-.3-1.04-.45-.44-.26-.84-.59-1.19-.97-.73-.8-1.25-1.76-1.64-2.78-.03,0-.07-.01-.08-.06-.22-.99-.43-2.18,.03-3.13,.1-.21,.22-.4,.36-.57h-.01c-.4-.17-1.15,.4-1.48,.62-.36,.24-.8,.53-.99,.93-.35,.73-.12,1.66-.04,2.44,.64,1.61,1.29,3.21,2.62,4.39,.32,.28,.62,.58,.95,.84,.32,.25,.81,.66,1.25,.52,.42-.14,.79-.51,1.15-.76,.3-.21,.58-.43,.86-.67,0,0,0-.01,0-.02,.16-.19,.13-.42,.06-.64Z"/><g><path class="j" d="M34.28,59.62c-.06-.09-.4-.37-.34-.29,1.27,1.87,2.63,4.2,3.15,6.42,.02,.1,.01-.23-.01-.33-.54-2.24-1.52-3.91-2.8-5.8Z"/><path class="j" d="M45.32,67.88c-1.65-.03-3.31-.05-4.94-.32-.1-.02,.35,.11,.46,.13,1.63,.27,2.03,.33,2.47,.36,.1,.01,2.12-.17,2.01-.17Z"/><path class="j" d="M51.23,65.64c-.42-.79-.91-1.54-1.46-2.24,0,0-.01-.01-.02-.02,.32-.45,.6-.93,.3-1.46,.34-.37,.6-.79,.62-1.31,.01-.55-.24-1.11-.46-1.62,.04,0,.08-.05,.07-.1-.15-.64-.77-.73-1.35-.64-.44,.06-.86,.21-1.29,.28-.51,.08-1.07,0-1.58-.04-2.02-.19-3.99-.86-5.73-1.88-1.61-.94-3.08-2.12-4.81-2.85-.67-.29-1.44-.53-2.18-.5-.22,0-.94,.03-1.09,.31-1.09,.84-1.85,2.06-2.71,3.11-1,1.23-1.82,2.6-2.49,4.04-.66,1.4-1.16,2.87-1.54,4.37-.14,.54-.24,1.08-.33,1.63-.36-.1-.71-.06-.96,.27-.31,.41-.35,1.01-.45,1.5-.92,.08-1.5,.6-2.21,1.13-.71,.54-1.49,.97-2.22,1.49-.44,.31-.87,.67-1.22,1.08,0-.01-.02-.02-.03-.03-.44-.18-.87,.17-1.25,.39-.43,.25-.85,.54-1.2,.9-.63,.66-.44,1.71-.33,2.58-.02,.03-.02,.09,.01,.11,0,.04,0,.08,.01,.12,0,.02,0,.04,0,.05h0s0,.06,0,.08c0,.03,.02,.05,.04,.06,.35,.86,.69,1.73,1.15,2.54,.49,.86,1.15,1.51,1.88,2.17,.5,.46,1.19,1.16,1.93,1.03,.33-.06,.63-.37,.89-.56,.44-.32,.89-.62,1.28-.99,.03-.03,.03-.06,.02-.09,.1-.21,.07-.45,0-.68,0,0,.02-.01,.03-.02,.37-.2,.73-.43,1.08-.66,.87-.56,1.79-1.05,2.68-1.6,2.06-1.27,3.93-2.75,5.71-4.39,1.76-1.62,3.47-3.31,5.41-4.73,.12-.09,.25-.18,.38-.28,.24,.17,.5,.29,.78,.4,.45,.19,.83,.45,1.18,.79,.71,.69,1.27,1.56,1.77,2.4,.47,.78,.91,1.57,1.51,2.25h0c0,.21-.03,.42-.07,.63-.4,.24-.96,.3-1.4,.44-.57,.18-1.14,.38-1.69,.63-.77,.33-1.5,.75-2.15,1.28,0,0-.01,0-.02,0-.46-.1-.88-.1-1.29,.15-.37,.23-.66,.61-.95,.95-.04-.01-.09,0-.1,.04-.27,.66,.01,1.47,.23,2.11,.25,.74,.58,1.5,1.01,2.15,.56,.84,1.27,1.55,2.1,2.13,.39,.27,.82,.49,1.25,.68,.49,.22,.97,.43,1.51,.46,.04,0,.07-.02,.08-.05,.77-.24,2.45-.82,1.95-1.86,0-.02-.02-.03-.03-.03,1.85-.74,3.62-1.73,5.24-2.88,1.46-1.04,2.78-2.32,3.65-3.9,1.97-3.59,.66-7.93-1.16-11.3Zm-28.91,14.93s0,0,0,.02c-.27,.24-.56,.46-.86,.67-.36,.25-.73,.62-1.15,.76-.43,.14-.93-.27-1.25-.52-.33-.26-.63-.56-.95-.84-1.33-1.17-1.97-2.78-2.62-4.39-.08-.78-.31-1.71,.04-2.44,.19-.4,.64-.69,.99-.93,.33-.22,1.08-.79,1.48-.62h.01c-.14,.18-.26,.37-.36,.58-.47,.95-.26,2.14-.03,3.13,0,.04,.04,.06,.08,.06,.39,1.01,.91,1.97,1.64,2.78,.34,.38,.75,.71,1.19,.97,.35,.21,1.07,.66,1.46,.35,.02-.02,.03-.04,.03-.05,.13-.04,.25-.1,.37-.17,.07,.22,.1,.45-.06,.64Zm21.05,3.24c.44,.94-1.29,1.48-1.93,1.68,0,0-.01,0-.02,0-.9-.07-1.86-.61-2.6-1.1-.79-.53-1.46-1.21-2-1.99-.44-.64-.75-1.39-1.01-2.11-.21-.57-.49-1.34-.31-1.97,0,0,.01,0,.02-.01,.29-.31,.55-.65,.88-.93,.35-.3,.77-.33,1.2-.25-.11,.1-.22,.2-.33,.3-.02-.05-.11-.08-.15-.01-.31,.56-.08,1.29,.12,1.85,.25,.73,.63,1.4,1.1,2.01,.59,.77,1.33,1.43,2.12,2,.51,.36,1.3,1.01,1.98,.81,.01,0,.03,0,.05,0,.29-.1,.59-.21,.88-.33,0,0,0,.02,0,.03Zm6.26-3.87c-1.72,1.45-3.77,2.59-5.82,3.48-.38,.17-.78,.31-1.17,.45-.02-.01-.04-.02-.07,0-.71,.41-1.8-.54-2.35-.96-.69-.52-1.31-1.14-1.84-1.83-.39-.5-.68-1.07-.92-1.66-.18-.46-.43-1.13-.3-1.66h.01c.77-.84,1.76-1.43,2.79-1.88,.54-.24,1.1-.44,1.67-.62,.43-.14,.92-.19,1.33-.39-.09,.47-.18,.93-.05,1.39,.03,.09-.03-.2-.03-.29,.04-.61,.16-.71,.25-1.19h0s.04-.08,.02-.11c.03-.15,.05-.3,.06-.45,.58,.64,1.43,1.49,1.71,2.34,.03,.1-.07-.23-.1-.33-.25-.75-.75-1.34-1.29-1.91-.66-.69-1.17-1.44-1.65-2.27-.49-.82-1-1.63-1.62-2.37-.27-.32-.56-.61-.9-.86-.43-.33-.97-.44-1.42-.74,.58-.41,1.19-.78,1.87-1,.72-.23,1.45-.41,2.16-.68,.55-.2,1.35-.53,1.47-1.18,.02-.1-.07,.1-.12,.19-.4,.59-1.03,.71-1.57,.91-.7,.25-1.42,.42-2.12,.66-.81,.27-1.51,.79-2.19,1.28-.92,.65-1.78,1.39-2.62,2.13-1.76,1.56-3.4,3.25-5.24,4.72-.95,.76-1.96,1.45-2.99,2.1-.91,.58-1.87,1.08-2.77,1.66-.37,.24-.74,.47-1.11,.69-.08,.05-.18,.11-.28,.17-.03,0-.05,.02-.07,.04-.19,.11-.4,.2-.6,.2-.06,0-.08,.06-.07,.11-.4,.04-1.04-.38-1.31-.55-.48-.31-.89-.72-1.24-1.16-.63-.78-1.07-1.7-1.41-2.64,0-.02-.02-.03-.03-.04-.19-.87-.28-1.79,.03-2.64,.28-.75,.97-1.32,1.59-1.78,.67-.49,1.38-.9,2.06-1.37,.78-.54,1.38-1.18,2.39-1.27,.02,0,.04-.01,.05-.03,.03,0,.06-.02,.07-.06,.16-.73,.23-1.96,1.24-1.68-.17,1.09-.12,1.52-.24,2.62-.01,.1,0,.8,0,.7,.12-1.1,.23-2.2,.4-3.29,.05-.02,.08-.1,.02-.14,.09-.55,.19-1.1,.33-1.64,.37-1.53,.91-3.03,1.58-4.45,.63-1.34,1.41-2.61,2.32-3.78,.84-1.06,1.62-2.28,2.68-3.13,.05,.03,.13,0,.12-.08,0,0,0-.01,0-.02,.05-.04,.09-.07,.14-.11,0,0,0,0,.01-.01,.27-.1,.81-.12,.9-.13,.4-.02,.83,.1,1.21,.21,.81,.23,1.56,.62,2.29,1.04,1.34,.77,2.57,1.71,3.93,2.44,1.55,.82,3.27,1.33,5.01,1.53,.76,.09,1.5,.13,2.25-.04,.52-.12,1.46-.44,1.85,.04-.04,.01-.08,.06-.06,.11,.23,.55,.51,1.13,.58,1.73,.06,.58-.29,1.05-.67,1.45-1.03,1.1-1.54,1.34-3.13,2.04-.1,.04-.8,.23-.7,.21,1.55-.22,2.85-1.03,3.94-2.13,.34,.68-.7,1.86-1.83,2.43-.09,.05,.39-.15,.92-.46,.15-.09,.52-.34,.63-.5,1.38,1.78,2.38,3.86,3.01,6.02,.58,1.95,.78,4.03,.15,5.99-.57,1.77-1.79,3.24-3.19,4.42Z"/></g><path class="ai" d="M78.86,26.76c-.33-.5-.8-.81-1.35-.44-1.5-.95-3.49,1.22-3.74,2.64h0c-.72,1.07-.72,2.44-.76,3.71v.02c-.98,.62-2.07,1.07-3.11,1.57-1.17,.56-2.35,1.1-3.55,1.59-1.12,.46-2.28,.85-3.42,1.27-1.21,.45-2.43,.87-3.7,1.13-.02-.02-.05-.03-.09-.01-.79,.41-1.07,1.66-1.2,2.45-.12,.81-.11,2.15,.84,2.42,.01,.02,.03,.04,.06,.03,.02,0,.04,0,.05,0h.01s.04,0,.05,0c1.34-.13,2.59-.66,3.8-1.22,1.3-.6,2.61-1.17,3.92-1.76,1.32-.6,2.62-1.26,3.86-2.01,1.26-.76,2.41-1.68,3.54-2.63h0c.72,0,1.36-.16,1.81-.75,.12-.15,.2-.33,.28-.51,0,0,.01,0,.02,0,.58-.04,1.16-.15,1.6-.55,.42-.39,.59-1,.74-1.53,0-.01,0-.02,0-.04,.1-.07,.2-.15,.28-.23,.32-.29,.64-.77,.55-1.22-.05-.26-.24-.38-.47-.44,.32-.05,.64-.33,.81-.57,.28-.42,.38-.97,.37-1.46,0-.66-.34-2.05-1.23-1.44Z"/><path class="y" d="M79.78,28.78s-.09,.01-.11-.02c-.15-.25-.15-.52-.18-.8-.05-.48-.25-.85-.66-1.12,.08,.16,.15,.32,.21,.48,.16,.4,.33,.97-.07,1.28-.04,.03-.09,0-.11-.02-.26-.31-.25-.75-.37-1.12-.15-.5-.6-.83-1-1.14-.21-.13-.42-.19-.64-.21,.47,.14,.86,.43,1.11,.92,.11,.22,.62,1.3,.24,1.49-.2,.09-.37-.26-.44-.38-.21-.36-.39-.8-.72-1.07-.92-.78-1.85,.11-2.67,.58-.28,.41-.49,.85-.57,1.23,.11-.13,.23-.25,.35-.37,.52-.52,1.21-1.16,2.01-1.12,.68,.04,1.17,.77,1.26,1.38,.05,.31-.05,.55-.39,.56-.43,.01-.56-.69-.97-.61-.6,.47-1.47,1.28-1.41,2.11,.03,.43,.68,.12,.91,.04,.26-.09,.49-.15,.76-.18,.54-.06,1.09-.08,1.61-.22,.23-.06,.47-.12,.71-.1,.39,.03,.44,.32,.18,.59-.58,.61-1.5,.64-2.26,.89-.58,.2-.92,.53-1.21,1.07-.19,.36-.41,.75-.79,.95-.53,.28-1.11,.44-1.64,.72-.52,.27-1.15,.65-1.67,.92-1.12,.57-2.05,1.06-3.19,1.59-1.18,.55-2.44,1.05-3.63,1.58-1.04,.46-2.11,.85-3.16,1.29-.44,.18-1.32,.52-1.49-.19-.14-.59,.1-1.3,.47-1.79-.33,.09-.66,.17-1,.24-.02-.02-.05-.03-.09-.01-.79,.41-1.07,1.66-1.2,2.45-.12,.81-.11,2.15,.84,2.42,.01,.02,.03,.04,.06,.03,.02,0,.04,0,.05,0h.01s.04,0,.05,0c1.34-.13,2.59-.66,3.8-1.22,1.3-.6,2.61-1.17,3.92-1.76,1.32-.6,2.62-1.26,3.86-2.01,1.26-.76,2.41-1.68,3.54-2.63h0c.72,0,1.36-.16,1.81-.75,.12-.15,.2-.33,.28-.51,0,0,.01,0,.02,0,.58-.04,1.16-.15,1.6-.55,.42-.39,.59-1,.74-1.53,0-.01,0-.02,0-.04,.1-.07,.2-.15,.28-.23,.32-.29,.64-.77,.55-1.22-.05-.26-.24-.38-.47-.44,.32-.05,.64-.33,.81-.57,.28-.42,.37-.96,.37-1.45-.03,.22-.12,.43-.31,.58Z"/><path class="d" d="M78.86,26.76c-.33-.5-.8-.81-1.35-.44-1.5-.95-3.49,1.22-3.74,2.64h0c-.72,1.07-.72,2.44-.76,3.71v.02c-.98,.62-2.07,1.07-3.11,1.57-1.17,.56-2.35,1.1-3.55,1.59-1.12,.46-2.28,.85-3.42,1.27-1.21,.45-2.43,.87-3.7,1.13-.02-.02-.05-.03-.09-.01-.79,.41-1.07,1.66-1.2,2.45-.12,.81-.11,2.15,.84,2.42,.01,.02,.03,.04,.06,.03,.02,0,.04,0,.05,0h.01s.04,0,.05,0c1.34-.13,2.59-.66,3.8-1.22,1.3-.6,2.61-1.17,3.92-1.76,1.32-.6,2.62-1.26,3.86-2.01,1.26-.76,2.41-1.68,3.54-2.63h0c.72,0,1.36-.16,1.81-.75,.12-.15,.2-.33,.28-.51,0,0,.01,0,.02,0,.58-.04,1.16-.15,1.6-.55,.42-.39,.59-1,.74-1.53,0-.01,0-.02,0-.04,.1-.07,.2-.15,.28-.23,.32-.29,.64-.77,.55-1.22-.05-.26-.24-.38-.47-.44,.32-.05,.64-.33,.81-.57,.28-.42,.38-.97,.37-1.46,0-.66-.34-2.05-1.23-1.44Zm.31,1.29c.03,.44-.07,.88-.25,1.28-.06,.14-.22,.42-.42,.61-.05,0-.09,.04-.09,.08-.14,.11-.29,.15-.43,.04h0c.32-.34,.48-.86,.53-1.31,.08-.72-.14-1.61-.65-2.14-.07-.07-.13-.13-.2-.18,.85-.49,1.47,1,1.52,1.63Zm-3.79-1.26c.58-.43,1.39-.71,2.06-.32,.59,.34,.83,1.12,.9,1.76,.08,.75-.2,1.92-1.08,2.01,.04-.05,.08-.1,.12-.15,.37-.56,.38-1.24,.12-1.84-.24-.56-.75-1.04-1.39-1.01-.74,.04-1.46,.75-1.95,1.24-.05,.05-.1,.11-.15,.16,.23-.75,.74-1.39,1.36-1.86Zm2.58,3.44c-.08,0-.16,.02-.24,.03,.05-.03,.1-.06,.14-.1,0,0,0,.01,.02,.02,.03,.02,.05,.04,.08,.05Zm-.25,3.34c-.38,.38-.94,.48-1.46,.51,.03-.07,.05-.15,.08-.22,.11-.34,.13-.81,.34-1.1,.02-.03,.02-.06,0-.09,.41-.21,.89-.19,1.33-.29,.12-.03,.24-.08,.35-.14-.13,.48-.29,.96-.65,1.32Zm1.52-2.63c-.06,.49-.52,.92-.92,1.15-.58,.33-1.29,.16-1.85,.53-.06,.04-.02,.12,.04,.14-.16,.29-.19,.64-.28,.96-.09,.31-.21,.61-.39,.89-.39,.61-1.1,.75-1.77,.72-.05,0-.07,.03-.08,.07-1.19,1.01-2.41,1.96-3.75,2.75-1.24,.74-2.54,1.38-3.85,1.97-1.22,.55-2.45,1.08-3.67,1.64-1.2,.56-2.44,1.08-3.77,1.2-.85-.18-.9-1.25-.85-1.95,.04-.47,.15-.94,.3-1.38,.15-.42,.38-.99,.8-1.23,.01,0,.02,.01,.04,0,1.25-.24,2.45-.66,3.64-1.09,1.19-.44,2.39-.86,3.57-1.33,1.2-.48,2.38-1.03,3.55-1.59,1.09-.52,2.24-.99,3.25-1.66,.07-.04,.02-.13-.05-.14,.04-1.15,.02-2.35,.62-3.38,.31-.54,.82-.97,1.31-1.35,.64-.49,1.34-.69,1.94-.04,.73,.79,.58,2.09-.31,2.6-.21,.05-.42,.11-.63,.18-.34-.03-.45-.4-.42-.76,.04-.38,.28-1.01,.56-1.26,.08-.07-.09,.06-.17,.13-.39,.35-.95,1.67-.25,1.98-.04,.02-.09,.03-.13,.05-.1,.04-.48,.25-.38,.21,.12-.05,.68-.16,.81-.2,.22,0,.46-.06,.66-.18,.37-.08,.74-.14,1.1-.19,.46-.07,1.41-.21,1.31,.53Zm.5-1.62c-.13,.31-.7,1-1.09,.7,.05-.05,.11-.11,.15-.17,.37-.48,.58-1.09,.56-1.7,0-.34-.15-.84-.39-1.25,.75-.53,.97,.73,.99,1.24,.01,.4-.06,.82-.22,1.19Z"/><path class="ad" d="M76.45,7.49s-.01,.02,0,.02c0,0,0-.02,0-.02Z"/><g><path class="ai" d="M69.1,24.52c.45-1.32,.93-2.61,1.12-4,.14-.98,.16-2,.03-2.98-.1-.79-.33-1.62-.89-2.21-.06-1.04-.89-1.71-1.77-2.12-1.16-.55-2.48-.77-3.74-.92-2.48-.3-5.11-.34-7.57,.15-3.45,.68-6.61,2.5-8.86,5.22-2.36,2.85-3.54,6.53-3.57,10.21-.03,3.73,1.14,7.6,3.79,10.31,.83,.85,1.84,1.5,2.95,1.93,.7,.27,1.89,.47,1.79-.65-.02-.22-.07-.44-.14-.66-.01-.03-.04-.05-.07-.06,.37-.61,.86-1.13,1.25-1.73,.76,.47,1.65,.7,2.53,.85,1.23,.2,2.49,.17,3.7-.11,1.16-.26,2.24-.78,3.19-1.48,1.15-.85,2.02-2.04,2.94-3.11,0,0,0-.02,.01-.02,.1-.02,.2-.05,.3-.09,.74-.27,1.3-.99,.8-1.72,1.12,.16,2.15-.71,2.61-1.68,.19-.4,.3-.89-.02-1.25-.38-.42-.96-.34-1.38-.05,.22-.56,.3-1.14,.41-1.73,.13-.71,.37-1.41,.6-2.09Z"/><path class="v" d="M66.54,32.05c-.29,.42-.94,.51-1.41,.54-.59,.04-1.19-.07-1.76-.2-1.13-.26-2.15-.66-3.15-1.25-.04-.02-.09,.03-.04,.06,1.07,.69,2.36,1.28,3.61,1.54,.87,.18,2.41,.32,2.99-.56,.1-.15-.14-.29-.24-.15Z"/><path class="y" d="M69.56,28.53c.21,.63-.14,1.33-.73,1.74-.56,.39-1.36,.56-1.82,.37-.42-.18-.79-.36-1.15-.44-.27,.06-.44,.4-.3,.69,.09,.18,.25,.32,.44,.39,.3,.12,.63,.17,.96,.19-.02-.05-.05-.09-.08-.14,1.12,.16,2.15-.71,2.61-1.68,.16-.35,.27-.77,.08-1.11Z"/><path class="y" d="M66.87,25.85c-.06,.03-.11-.04-.11-.09,.15-1.1,.24-2.2,.28-3.3,.02-.49-.16-1.26,.24-1.64,.18-.18,.51-.22,.75-.27,.41-.09,.75-.24,1.09-.49,.45-.33,.86-.71,1.2-1.15,0-.46-.02-.92-.08-1.37-.1-.79-.33-1.62-.89-2.21-.06-1.04-.89-1.71-1.77-2.12-1.16-.55-2.48-.77-3.74-.92-2.48-.3-5.11-.34-7.57,.15-3.45,.68-6.61,2.5-8.86,5.22-2.36,2.85-3.54,6.53-3.57,10.21-.03,3.73,1.14,7.6,3.79,10.31,.83,.85,2.61,2.91,3.71,3.34,.7,.27,1.12-.94,1.03-2.06-.02-.22-.07-.44-.14-.66-.01-.03-.04-.05-.07-.06,.37-.61,.86-1.13,1.25-1.73,.76,.47,1.65,.7,2.53,.85,1.23,.2,2.49,.17,3.7-.11,1.16-.26,2.24-.78,3.19-1.48,1.15-.85,2.02-2.04,2.94-3.11,0,0,0-.02,.01-.02,.1-.02,.2-.05,.3-.09,.08-.03,.16-.07,.24-.11-.26,.07-.53,.12-.82,.14-.51,.05-1.02,.08-1.52,.2-.14,.03-.28,.06-.42,.08,.63,.18,1.56,.03,1.05,.67-.71,.9-2.11,2.14-3.11,2.65-1.26,.64-2.77,.88-4.21,.64-1.75-.29-3.35-1.49-4.13-3.09-1.47-3.03-.55-6.87,.85-9.75,.04-.09,.17-.04,.15,.05,0,.01,0,.03,0,.04-.1,.33-.11,.68-.08,1.02,.33-.61,.83-1.21,1.44-1.53,.73-.38,1.39-.18,2.13,.08,.75,.26,1.29,.57,1.31,1.43,.02,.92-.1,1.8,.37,2.65,.9,1.65,3.09,2.36,4.67,1.17,.64-.48,1.15-1.19,1.89-1.52,.42-.19,.88-.29,1.34-.28,.04,0,1.01,.17,.97,.26,.01-.03,.04-.04,.06-.04,.1-.39,.17-.79,.24-1.19,.05-.25,.1-.5,.17-.75-.52-.28-1.16-.31-1.8-.01Zm-15.05-2.35c-.11-.02-.18-.1-.24-.19-.17-.23-.35-.43-.63-.53-.67-.24-1.35-.15-1.81,.42-.33,.41-.53,.89-.77,1.35-.04,.09-.16,.04-.15-.05,.06-.81,.36-1.61,.95-2.18,.02-.02,.04-.02,.06-.02,.23-.3,.52-.54,.89-.6,.75-.13,1.72,.38,1.94,1.13,.04,.13,.03,.73-.23,.67Z"/><path class="bf" d="M52.84,35.74c-1.13-1.38-1.93-2.98-2.28-4.73-.12-.61-.21-1.37,.22-1.89,.45-.53,.93-.96,1.14-1.59-.98,1.26-3.16,1.5-4.11,.1-1.36,.46-2.66,1.1-3.91,1.83,.27,3.21,1.46,6.39,3.73,8.71,.83,.85,1.84,1.5,2.95,1.93,.12,.05,.25,.09,.38,.12-.19-.5-.37-1-.51-1.51-.09-.33-.17-.66-.27-.99-.06-.2-.13-.41-.15-.62-.02-.33,.34-.79,.54-1.03,.21-.25,.54-.6,.91-.5,.81,.2,1.18,1.11,1.85,1.55,.03-.04,.05-.08,.08-.12,.76,.47,1.65,.7,2.53,.85,.11,.02,.21,.03,.32,.04-1.3-.38-2.48-1.03-3.42-2.17Z"/><path class="e" d="M64.69,33.21c-.89,.82-1.79,1.63-2.81,2.29-.85,.55-1.9,1.05-2.94,.92-1.2-.16-1.88-1.41-1.7-2.53,.18-1.13,.98-2.16,1.77-2.96,1.58,.78,3.1,1.71,4.83,2.13,.28,.07,.57,.12,.86,.14Z"/><path class="g" d="M58.88,35.3c-.13-.57,.41-1.05,.83-1.35,.46-.33,.91-.54,1.47-.6,.58-.07,1.3-.07,1.8,.28,.31,.21,.42,.47,.42,.73,.44-.37,.86-.76,1.29-1.15-.29-.02-.58-.08-.86-.14-1.73-.43-3.25-1.35-4.83-2.13-.78,.8-1.58,1.82-1.77,2.96-.18,1.12,.5,2.37,1.7,2.53,.68,.09,1.36-.1,1.99-.39-.81,.07-1.87,.03-2.05-.73Z"/><g><path class="at" d="M58.08,36.07c.23-.45,.43-.93,.47-1.42,.06-.84-.24-1.53-.91-1.94-.2,.38-.34,.77-.41,1.18-.13,.82,.2,1.7,.85,2.18Z"/><path class="aj" d="M57.91,34.35c.04,.22,.24,.96,.55,.78,.04-.16,.08-.32,.09-.49,.04-.52-.07-.98-.31-1.35-.06-.02-.11-.01-.17,.06-.07,.1-.11,.21-.13,.33-.05,.22-.07,.44-.03,.66Z"/><path class="au" d="M58.07,35.65c-.16,0-.33-.17-.39-.31-.13-.31-.27-.72-.29-1.05-.01-.23,.22-1.25,.49-1.41-.08-.06-.16-.12-.24-.18-.2,.38-.34,.77-.41,1.18-.13,.82,.2,1.7,.85,2.18,.08-.16,.16-.32,.23-.49-.07,.04-.15,.07-.23,.07Z"/><path class="f" d="M59.54,32.83c.65,.27,1.33,.54,2.03,.61,.68,.07,1.25-.05,1.64-.56-1.48-.47-2.82-1.27-4.21-1.96-.32,.33-.64,.69-.92,1.09,.41,.37,.97,.61,1.47,.82Z"/><path class="ae" d="M59,30.93c-.32,.33-.64,.69-.92,1.09,.05,.04,.1,.08,.15,.12,.05-.26,.33-.48,.54-.59,.33-.18,.7,.15,1,.26,.62,.24,1.2,.55,1.81,.79,.18,.07,.89,.17,.9,.46,0,.16-.08,.29-.21,.38,.38-.06,.7-.22,.95-.55-1.48-.47-2.82-1.27-4.21-1.96Z"/></g><path class="d" d="M69.1,24.52c.45-1.32,.93-2.61,1.12-4,.14-.98,.16-2,.03-2.98-.1-.79-.33-1.62-.89-2.21-.06-1.04-.89-1.71-1.77-2.12-1.16-.55-2.48-.77-3.74-.92-2.48-.3-5.11-.34-7.57,.15-3.45,.68-6.61,2.5-8.86,5.22-2.36,2.85-3.54,6.53-3.57,10.21-.03,3.73,1.14,7.6,3.79,10.31,.83,.85,1.84,1.5,2.95,1.93,.7,.27,1.83,1.99,1.74,.87-.02-.23-.02-1.96-.08-2.18-.01-.03-.04-.05-.07-.06,.37-.61,.86-1.13,1.25-1.73,.76,.47,1.65,.7,2.53,.85,1.23,.2,2.49,.17,3.7-.11,1.16-.26,2.24-.78,3.19-1.48,1.15-.85,2.02-2.04,2.94-3.11,0,0,0-.02,.01-.02,.1-.02,.2-.05,.3-.09,.74-.27,1.3-.99,.8-1.72,1.12,.16,2.15-.71,2.61-1.68,.19-.4,.3-.89-.02-1.25-.38-.42-.96-.34-1.38-.05,.22-.56,.3-1.14,.41-1.73,.13-.71,.37-1.41,.6-2.09Zm-1.26,4.01s0,.03,0,.04c-.01,.01-.02,.02-.03,.04-.07,.08,.07,.17,.14,.09,.34-.41,.91-.58,1.36-.24,.39,.29,.19,.85,.01,1.2-.44,.87-1.4,1.69-2.43,1.51-.08-.01-.12,.08-.09,.13-.04,.02-.08,.06-.04,.11,.71,1.04-.73,1.61-1.54,1.65-.76,.04-1.53-.17-2.24-.42-1.38-.48-2.63-1.23-3.93-1.87-.05-.02-.09,0-.11,.04-.01,0-.02,.01-.03,.02-.87,.87-1.68,1.99-1.83,3.24-.12,1.04,.56,2.17,1.59,2.45,1.06,.28,2.15-.2,3.05-.72,1.18-.69,2.2-1.63,3.19-2.55v-.02c.23,0,.45,0,.66-.04-.79,.94-1.56,1.92-2.5,2.72-.98,.83-2.18,1.39-3.43,1.7-1.16,.28-2.36,.29-3.54,.13-1.12-.16-2.31-.49-3.16-1.28-.08-.07-.6-.51-.52-.44,.14,.13,.22,.35,.88,.92-.43,.66-.99,1.24-1.37,1.93-.05,.09,.09,.16,.15,.07,.01-.02,.02-.04,.04-.06,.14,.48,.3,1.22-.37,1.31-.54,.07-1.14-.23-1.61-.46-1.32-.62-2.35-1.54-3.25-2.69-2.44-3.12-3.18-7.36-2.71-11.23,.45-3.75,2.25-7.3,5.09-9.79,2.59-2.27,6.01-3.54,9.43-3.73,2.02-.11,4.09-.04,6.09,.28,1.51,.24,4.36,.79,4.44,2.78h0v.02h0s.02,.06,.04,.07c.71,.74,.86,1.88,.91,2.86,.05,.89-.03,1.78-.17,2.65-.2,1.25-.68,2.44-1.09,3.64-.21,.61-.4,1.23-.53,1.86-.15,.71-.22,1.4-.53,2.07Zm-3.15,4.68c-.89,.82-1.79,1.63-2.81,2.29-.85,.55-1.89,1.05-2.93,.92-1.2-.15-1.88-1.41-1.7-2.53,.18-1.13,.98-2.15,1.76-2.95,1.58,.78,3.09,1.7,4.82,2.13,.28,.07,.57,.12,.86,.14Z"/><path class="al" d="M76.72,14.15c-.47-1.71-2.08-2.73-2.63-4.38,1.59,.12,2.67-1.55,2.59-3.02,0-.09-.13-.09-.16-.01-.02,0-.04,.02-.05,.04-.49,.96-1.7,.88-2.6,.66-1.04-.25-2-.78-2.88-1.38-1.9-1.28-3.55-2.91-5.48-4.15C63.63,.69,61.37,.06,59.13,0c-1.9-.05-3.91,.56-4.98,2.25-.04,.06-.08,.13-.11,.2-1.62-1.22-3.91-1.12-5.8-.74-2.2,.45-4.28,1.39-6.13,2.66-2.12,1.46-3.58,3.76-5.91,4.95-.71,.36-1.58,.52-2.07-.26,0-.01-.01-.02-.02-.03-.04-.06-.16-.03-.15,.06,.1,1.09,.82,2,1.77,2.08-.68,.53-1.07,1.34-1.47,2.08-.04,.07,.04,.15,.11,.11,.54-.32,1.04-.68,1.6-.96-2.17,1.7-3.3,4.4-3.34,7.15,0,.07,.08,.12,.13,.06,.85-.85,1.78-1.6,2.81-2.22,.41-.25,.85-.47,1.29-.68-.96,.74-1.88,1.53-2.7,2.43-.98,1.06-1.91,2.32-2.1,3.79-.01,.09,.1,.11,.15,.05,.64-.76,1.41-1.44,2.27-1.93-.84,.88-1.15,2.14-1.34,3.33-.01,.08,.11,.12,.15,.05,.26-.44,.57-.84,.93-1.2-.82,1.89-.19,4.34,1.13,5.85,.04,.05,.14,.03,.14-.05-.02-1.16,.47-2.16,.97-3.17-.27,1.68,.34,3.28,1.43,4.62,.05,.07,.15,0,.14-.07-.1-.63-.18-1.52,.11-2.14,.46,2.28,2.05,4.27,3.82,5.69,2.01,1.62,4.44,2.47,6.91,3.08,.05,.01,.12-.05,.09-.11-.18-.35-.47-.62-.71-.93,.56,.17,1.13,.29,1.71,.14,.06-.02,.06-.1,.02-.14-.73-.58-1.35-1.32-1.83-2.12,.54,.55,1.18,1.03,1.87,1.35,.07,.03,.12-.05,.1-.11-.36-1.03-.61-2.1-.73-3.19-.06-.55-.06-1.1-.01-1.65,.03-.31,.08-.62,.15-.92,.05-.21,.09-.49,.2-.7,.52,.03,1.03-.25,1.44-.53,.09-.06,.26-.25,.17-.19-.56,.39-1.47,.71-2.14,.41-.52-.23-.88-.79-1.11-1.29-.43-.94-.39-2.06-.1-3.04,.29-.96,.98-2.03,1.98-2.35,1.08-.35,2.06,.5,2.35,1.72-.08,.98-.07,1.97-.07,2.95,0,.1,.15,.11,.16,0,.15-1.15,.68-2.19,1.24-3.18,.31-.56,.64-1.11,.96-1.67-.15,.74-.29,1.47-.41,2.22-.01,.07,.08,.11,.13,.07,.64-.49,1.25-1,1.89-1.49,.73-.56,1.51-1.01,2.29-1.49,1.15-.71,2.34-1.51,3.31-2.48-.6,.99-1.32,1.9-1.93,2.89v.02c-.06,.08,.07,.16,.12,.09,.65-.88,1.77-1.34,2.58-2.06,.55-.49,1.08-1.05,1.52-1.66-.35,.7-.84,1.31-1.38,1.88-.05,.06,0,.16,.08,.14,1.13-.3,2.3-.51,3.36-1.02,.87-.43,1.74-1.16,2.29-2-.1,.43-.33,.84-.56,1.2-.37,.58-.9,1.23-1.56,1.48-.06,.02-.09,.11-.02,.15,1.41,.69,3.08-.22,3.8-1.5,.14,1.07,.16,2.2-.09,3.25-.01,.06,.05,.14,.11,.1,1.88-1.14,3.65-3.05,3.55-5.38,.66,1.29,2.15,2.19,2.06,3.78,0,.09,.11,.14,.15,.05,.81-1.76,1.34-3.66,.81-5.58Z"/><path class="aq" d="M76.56,7.77c-.73,1.25-3.4,.84-4.73-.02,.85,1.19,1.83,2.63,3.04,3.44-.32-.44-.6-.89-.77-1.42,1.22,.09,2.14-.88,2.47-2Z"/><path class="aq" d="M46.58,2.27c.82-.19,1.68-.35,2.53-.37,1.65-.04,3.24,.37,4.74,1.04,.07,.03,.05,.15-.03,.15-1.69,.09-3.2,.63-4.33,1.89,1.46-.52,2.92-1.03,4.48-1.12,.06,0,.11,.06,.08,.12-.67,1.16-.82,2.5-.84,3.81,.57-1.05,1.24-2.03,2.08-2.89,.04-.04,.09-.03,.13,0,.52,.6,.94,1.26,1.18,2.01,.09-.6,.01-1.21-.26-1.76-.02-.05,0-.13,.06-.12,.5,.03,.91,.28,1.29,.58-.34-.56-.87-1.08-1.52-1.18l-.07,.03c-.07,.03-.13-.05-.1-.11,.33-.73,.9-1.12,1.53-1.53-.65,.12-1.27,.32-1.91,.46-.08,.02-.14-.06-.09-.13,.56-.75,.88-1.65,1.48-2.36,.27-.32,.57-.56,.9-.72-1.49,.2-2.91,.85-3.76,2.18-.04,.06-.08,.13-.11,.2-1.62-1.22-3.91-1.12-5.8-.74-1.3,.26-2.55,.7-3.74,1.27,.7-.2,1.37-.54,2.08-.71Z"/><path class="aq" d="M75.98,18.45c-.05,.05-.13,.02-.14-.05-.12-.98-.29-1.96-.72-2.86-.28-.59-.64-1.14-1.03-1.66-.45-.61-.94-1.21-1.51-1.72-.39-.35-.82-.71-1.33-.87,.82,1.21,1.55,2.62,1.58,4.11,.04,1.55-.68,2.85-1.82,3.85-.06,.05-.15,.02-.14-.07,.16-1.2,.36-2.53-.18-3.67-.47,1.36-1.11,2.51-2.47,3.16-.06,.03-.14-.05-.1-.11,1.12-1.71,2.13-4.33,1.14-6.3-.18,1.16-.59,2.29-1.31,3.22-.79,1.01-1.84,1.74-3.03,2.22-.07,.03-.12-.05-.1-.11,.7-1.61,1.46-3.48,.9-5.23-.5,2.26-1.5,4.84-3.54,6.09-.06,.04-.16-.03-.12-.1,.61-1.06,.98-2.26,1.09-3.48-.37,.65-.85,1.25-1.4,1.74-1.12,1.02-2.55,1.82-4.1,1.9-.05,0-.1-.04-.08-.09,.19-.65,.41-1.29,.51-1.96-.78,.85-1.39,1.85-2.21,2.68-.06,.06-.17,0-.13-.09,.73-1.58,1.21-3.25,1.72-4.91-1.31,1.54-2.37,3.29-3.74,4.78-.06,.06-.15,.01-.14-.07,.33-2.12,1.32-4.18,2.76-5.78-1.35,.73-2.68,1.5-3.93,2.41-.07,.05-.15-.03-.12-.1,.46-1.09,1.16-2.02,1.78-3.02-2.21,.61-4.31,1.53-6.49,2.21-.07,.02-.13-.05-.1-.11,.88-1.74,1.99-3.4,3.62-4.5-3.39,.76-5.81,3.94-9.37,4.19-.05,0-.1-.04-.09-.1,.18-1.01,.8-1.87,1.04-2.87-1.06,.84-2.2,1.56-3.47,2.04-1.4,.53-2.89,.88-4.08,1.83-.07,.05-.15-.03-.12-.1,.72-1.53,1.73-2.87,3.11-3.84-.7,.25-1.38,.55-2.09,.77-.07,.02-.15-.07-.09-.13,.82-.77,1.71-1.46,2.44-2.32-.83,.47-1.74,1.04-2.71,.97-.83-.06-1.48-.6-1.71-1.36,0,.01-.01,.03,0,.05,.1,1.09,.82,2,1.77,2.08-.68,.53-1.07,1.34-1.47,2.08-.04,.07,.04,.15,.11,.11,.54-.32,1.04-.68,1.6-.96-2.17,1.7-3.3,4.4-3.34,7.15,0,.07,.08,.12,.13,.06,.85-.85,1.78-1.6,2.81-2.22,.41-.25,.85-.47,1.29-.68-.96,.74-1.88,1.53-2.7,2.43-.98,1.06-1.91,2.32-2.1,3.79-.01,.09,.1,.11,.15,.05,.64-.76,1.41-1.44,2.27-1.93-.84,.88-1.15,2.14-1.34,3.33-.01,.08,.11,.12,.15,.05,.26-.44,.57-.84,.93-1.2-.82,1.89-.19,4.34,1.13,5.85,.04,.05,.14,.03,.14-.05-.02-1.16,.47-2.16,.97-3.17-.27,1.68,.34,3.28,1.43,4.62,.05,.07,.15,0,.14-.07-.1-.63-.18-1.52,.11-2.14,.46,2.28,2.05,4.27,3.82,5.69,2.01,1.62,4.44,2.47,6.91,3.08,.05,.01,.12-.05,.09-.11-.18-.35-.47-.62-.71-.93,.56,.17,1.13,.29,1.71,.14,.06-.02,.06-.1,.02-.14-.73-.58-1.35-1.32-1.83-2.12,.54,.55,1.18,1.03,1.87,1.35,.07,.03,.12-.05,.1-.11-.36-1.03-.61-2.1-.73-3.19-.06-.55-.06-1.1-.01-1.65,.03-.31,.08-.62,.15-.92,.05-.21,.09-.49,.2-.7,.52,.03,1.03-.25,1.44-.53,.09-.06,.26-.25,.17-.19-.56,.39-1.47,.71-2.14,.41-.52-.23-.88-.79-1.11-1.29-.43-.94-.39-2.06-.1-3.04,.29-.96,.98-2.03,1.98-2.35,1.08-.35,2.06,.5,2.35,1.72-.08,.98-.07,1.97-.07,2.95,0,.1,.15,.11,.16,0,.15-1.15,.68-2.19,1.24-3.18,.31-.56,.64-1.11,.96-1.67-.15,.74-.29,1.47-.41,2.22-.01,.07,.08,.11,.13,.07,.64-.49,1.25-1,1.89-1.49,.73-.56,1.51-1.01,2.29-1.49,1.15-.71,2.34-1.51,3.31-2.48-.6,.99-1.32,1.9-1.93,2.89v.02c-.06,.08,.07,.16,.12,.09,.65-.88,1.77-1.34,2.58-2.06,.55-.49,1.08-1.05,1.52-1.66-.35,.7-.84,1.31-1.38,1.88-.05,.06,0,.16,.08,.14,1.13-.3,2.3-.51,3.36-1.02,.87-.43,1.74-1.16,2.29-2-.1,.43-.33,.84-.56,1.2-.37,.58-.9,1.23-1.56,1.48-.06,.02-.09,.11-.02,.15,1.41,.69,3.08-.22,3.8-1.5,.14,1.07,.16,2.2-.09,3.25-.01,.06,.05,.14,.11,.1,1.88-1.14,3.65-3.05,3.55-5.38,.66,1.29,2.15,2.19,2.06,3.78,0,.09,.11,.14,.15,.05,.57-1.23,1-2.53,1.02-3.86-.06,.94-.32,1.84-.95,2.58Z"/><path class="ay" d="M52.48,23.1c.13-.78,.31-1.56,.46-2.34,.12-.65,.22-1.3,.4-1.93-.56,.14-.96,.7-1.29,1.14-.05,.06-.13,.02-.14-.05-.09-.68-.05-1.35,.08-2.01-.97,.53-1.84,1.23-2.81,1.75-.04,.02-.11,.01-.12-.04-.27-1.18,.47-2.48,1-3.52-1.45,.39-2.91,.91-4.43,.82-.05,0-.1-.04-.08-.09,.06-.3,.18-.56,.34-.8-.84,.11-1.63,.45-2.47,.52-.05,0-.1-.04-.09-.1,.16-.62,.53-1.14,.89-1.66-1.77,.62-3.39,1.61-5.11,2.35-.05,.02-.12-.04-.1-.09,.27-.88,.71-1.68,1.1-2.51-1.33,.68-2.62,1.45-3.83,2.31h0c-.17,.15-.34,.29-.51,.45,.36-.21,.73-.39,1.1-.57-.96,.74-1.88,1.53-2.7,2.43-.98,1.06-1.91,2.32-2.1,3.79-.01,.09,.1,.11,.15,.05,.64-.76,1.41-1.44,2.27-1.93-.84,.88-1.15,2.14-1.34,3.33-.01,.08,.11,.12,.15,.05,.26-.44,.57-.84,.93-1.2-.82,1.89-.19,4.34,1.13,5.85,.04,.05,.14,.03,.14-.05-.02-1.16,.47-2.16,.97-3.17-.27,1.68,.34,3.28,1.43,4.62,.05,.07,.15,0,.14-.07-.1-.63-.18-1.52,.11-2.14,.46,2.28,2.05,4.27,3.82,5.69,2.01,1.62,4.44,2.47,6.91,3.08,.05,.01,.12-.05,.09-.11-.18-.35-.47-.62-.71-.93,.56,.17,1.13,.29,1.71,.14,.06-.02,.06-.1,.02-.14-.73-.58-1.35-1.32-1.83-2.12,.54,.55,1.18,1.03,1.87,1.35,.07,.03,.12-.05,.1-.11-.36-1.03-.61-2.1-.73-3.19-.06-.55-.06-1.1-.01-1.65,.03-.31,.08-.62,.15-.92,.05-.21,.09-.49,.2-.7,.52,.03,1.03-.25,1.44-.53,.09-.06,.26-.25,.17-.19-.56,.39-1.47,.71-2.14,.41-.52-.23-.88-.79-1.11-1.29-.43-.94-.39-2.06-.1-3.04,.29-.96,.98-2.03,1.98-2.35,1.08-.35,2.06,.5,2.35,1.72-.04,.44-.05,.88-.06,1.31,.05-.54,.12-1.08,.21-1.62Zm-4.78-.85c-.38,1.25-.89,2.54-.49,3.85,.03,.1-.11,.15-.15,.05-.28-.6-.6-1.19-.79-1.83-.35,1.25-.54,2.64-.14,3.88,.03,.09-.09,.15-.14,.07-.85-1.3-1.77-2.58-2.16-4.1-.44,1.55-.64,3.21-.34,4.81,.01,.07-.08,.1-.13,.06-.98-.76-1.9-1.64-2.54-2.71-.6-1.02-.94-2.13-1.08-3.3-.77,.99-1.57,2.07-1.81,3.32-.02,.09-.15,.08-.16,0-.18-1.55,.13-3.05,.77-4.46-1.16,.98-2.27,2.04-3.04,3.35-.04,.07-.15,.06-.16-.03-.04-1.48,.21-3,1.19-4.13-.52,.2-1.02,.44-1.5,.74-.06,.04-.16-.03-.12-.1,.51-.84,1.15-1.58,1.92-2.19,.03-.02,.05-.02,.07-.01,.02,0,.04,.02,.05,.05,.05,.21,.06,.44,.06,.66,.73-.6,1.76-.85,2.67-.98,.06,0,.11,.06,.08,.12-.29,.58-.36,1.23-.41,1.87,.75-.45,1.35-1.11,2.2-1.39,.04-.01,.09,0,.1,.05,.06,.28,.14,.54,.26,.79,.26-.32,.95-1.04,1.16-.42,.16,.48,.88,.76,1.35,.81,.49,.05,.98-.03,1.46-.1,.04,0,.08,.03,.09,.07,.04,.33,.01,.66,0,1,.57-.33,1.05-.79,1.67-1.02,.05-.02,.1,.02,.11,.07,.01,.37-.06,.73-.17,1.07,.06-.03,.14,0,.12,.08Z"/><g><path class="w" d="M66.9,25.21s.64-.52,1.32-.32c.68,.2,.92,.86,.92,.86,0,0,.03,1.24-.62,1.73,0,0-.54-1.03-2.4-.28l.78-1.98Z"/><path class="m" d="M68.53,26.69c-.15-.13-.31-.29-.5-.36-.14-.05-.29-.05-.42-.12-.1-.04-.14-.17-.11-.27,.06-.19,.13-.38,.2-.58,.04-.13,.08-.34,.18-.45,.03-.03,.07-.05,.1-.08-.58-.04-1.08,.37-1.08,.37l-.78,1.98c1.86-.74,2.4,.28,2.4,.28,.23-.17,.37-.43,.46-.7-.11,.09-.26,.09-.46-.08Z"/><path class="aw" d="M68.52,27.53h-.01s-.03-.01-.04-.03c-.01-.02-.29-.52-1.13-.52-.35,0-.75,.09-1.2,.26-.02,.01-.05,0-.07-.01-.02-.02-.02-.04-.01-.07l.78-1.98s0-.02,.02-.02c.02-.01,.48-.38,1.04-.38,.12,0,.23,.01,.34,.05,.7,.21,.95,.88,.96,.9,0,0,0,.01,0,.02,0,.05,.02,1.28-.65,1.78-.01,0-.02,.01-.04,.01Zm-1.18-.67c.75,0,1.09,.37,1.2,.52,.54-.46,.55-1.51,.55-1.63-.03-.08-.27-.64-.87-.82-.1-.03-.2-.04-.31-.04-.47,0-.88,.29-.95,.35l-.73,1.84c.41-.15,.78-.22,1.11-.22Z"/></g><path class="bc" d="M62.85,30.31c-.24,0-.48-.04-.7-.13-.8-.31-1.34-1.16-1.51-2.38-.17-1.2,.04-2.63,.58-4.03,.97-2.48,2.74-4.21,4.32-4.21,.24,0,.48,.04,.7,.13,1.64,.64,2.06,3.51,.93,6.4-.97,2.48-2.74,4.21-4.32,4.21Zm2.69-10.58c-1.49,0-3.24,1.73-4.17,4.11-.53,1.37-.74,2.77-.57,3.94,.16,1.16,.66,1.96,1.41,2.25,.2,.08,.42,.12,.64,.12,1.49,0,3.24-1.73,4.17-4.11,1.09-2.81,.72-5.58-.84-6.19-.2-.08-.41-.12-.64-.12Z"/><g><path class="b`" d="M66.21,19.77c-1.6-.62-3.8,1.18-4.91,4.04-1.11,2.85-.72,5.67,.88,6.3,1.6,.62,3.8-1.18,4.91-4.03,1.11-2.85,.72-5.67-.88-6.3Zm.05,5.91c-.91,2.34-2.49,3.91-3.52,3.51-1.03-.4-1.13-2.62-.21-4.96,.91-2.34,2.49-3.91,3.52-3.51,1.03,.4,1.12,2.62,.21,4.96Z"/><path class="j" d="M62.85,30.29h0c-.24,0-.47-.04-.69-.13-.8-.31-1.33-1.15-1.5-2.36-.17-1.2,.04-2.62,.58-4.01,.96-2.47,2.73-4.2,4.3-4.2,.24,0,.47,.04,.69,.13,.8,.31,1.33,1.15,1.5,2.36,.17,1.2-.04,2.62-.58,4.01-.96,2.47-2.73,4.2-4.3,4.2Zm2.69-10.58c-1.5,0-3.26,1.73-4.19,4.12-.53,1.37-.74,2.77-.57,3.95,.16,1.17,.67,1.97,1.42,2.26,.2,.08,.42,.12,.65,.12h0c1.5,0,3.26-1.73,4.19-4.12,.53-1.37,.74-2.77,.57-3.95-.16-1.17-.67-1.97-1.42-2.26-.2-.08-.42-.12-.65-.12Zm-2.46,9.6c-.13,0-.25-.02-.36-.07-.52-.2-.83-.85-.87-1.81-.04-.95,.18-2.09,.63-3.23,.82-2.09,2.18-3.61,3.23-3.61,.13,0,.25,.02,.37,.07,.52,.2,.83,.85,.87,1.81,.04,.95-.18,2.1-.62,3.23-.82,2.09-2.18,3.61-3.23,3.61Zm2.62-8.6c-.99,0-2.33,1.52-3.12,3.53-.44,1.12-.66,2.25-.62,3.18,.04,.91,.32,1.52,.8,1.7,.1,.04,.21,.06,.32,.06,.99,0,2.33-1.52,3.12-3.53,.44-1.12,.66-2.25,.62-3.18-.04-.91-.32-1.52-.8-1.7-.1-.04-.21-.06-.32-.06Z"/></g><g><path class="ak" d="M66.04,20.72c-.16-.06-.34-.08-.53-.05,1,.58,1.14,2.71,.29,4.91-.81,2.07-2.23,3.5-3.34,3.44,.08,.08,.18,.13,.28,.17,1.03,.4,2.61-1.17,3.52-3.51,.91-2.34,.82-4.56-.21-4.96Z"/><path class="j" d="M63.08,29.31h0c-.13,0-.25-.02-.36-.07-.11-.04-.21-.1-.3-.19-.02-.02-.03-.04-.02-.07,0-.03,.03-.04,.06-.04,1.1,.06,2.5-1.39,3.28-3.4,.83-2.14,.72-4.26-.26-4.83-.02-.01-.03-.04-.03-.06,0-.03,.02-.04,.05-.05,.2-.03,.39-.02,.56,.05,.52,.2,.83,.85,.87,1.81,.04,.95-.18,2.1-.62,3.23-.82,2.09-2.18,3.61-3.23,3.61Zm-.44-.24s.08,.04,.12,.06c.1,.04,.21,.06,.32,.06,1.01,0,2.32-1.49,3.12-3.53,.44-1.12,.66-2.25,.62-3.18-.04-.91-.32-1.52-.8-1.7-.1-.04-.21-.06-.33-.06,.92,.71,1,2.76,.17,4.88-.76,1.95-2.1,3.38-3.22,3.48Z"/></g><g><path class="b`" d="M61.3,23.81c1.11-2.85,3.31-4.66,4.91-4.04,0,0-.9-.33-1.3-.48-1.6-.62-3.8,1.18-4.91,4.03-1.11,2.85-.72,5.67,.89,6.3,.37,.14,1.3,.49,1.3,.49-1.6-.62-2-3.44-.88-6.3Z"/><path class="j" d="M62.18,30.16s-.01,0-.02,0c0,0-.94-.35-1.3-.49-.79-.31-1.33-1.15-1.5-2.36-.17-1.2,.04-2.62,.58-4.01,.96-2.47,2.73-4.2,4.3-4.2,.24,0,.47,.04,.69,.13,.33,.13,1.03,.39,1.23,.46,.02,0,.04,.01,.06,.02,.03,.01,.05,.05,.04,.08-.01,.03-.05,.05-.08,.03l-.06-.02c-.19-.06-.38-.1-.59-.1-1.5,0-3.26,1.73-4.19,4.12-.53,1.37-.74,2.77-.57,3.95,.16,1.17,.67,1.97,1.42,2.26,.03,.01,.05,.05,.03,.08,0,.02-.03,.04-.06,.04Zm2.06-10.94c-1.5,0-3.26,1.73-4.19,4.12-.54,1.37-.74,2.77-.57,3.95,.16,1.17,.67,1.97,1.42,2.26,.16,.06,.44,.17,.7,.26-.49-.42-.82-1.12-.95-2.03-.17-1.2,.04-2.62,.58-4.01,.95-2.43,2.75-4.2,4.3-4.2-.24-.09-.49-.18-.65-.25-.2-.08-.42-.12-.65-.12Z"/></g><path class="ag" d="M63.63,20.53c.18-.15,.36-.28,.54-.39-.17-.06-.33-.12-.5-.16-.35-.1-.7-.2-1.04-.32-.12,.08-.24,.17-.36,.26,.47,.16,.92,.38,1.36,.6Z"/><path class="ag" d="M62.72,21.44c.06-.07,.11-.14,.17-.2-.46-.22-1.01-.31-1.5-.44-.04,.04-.07,.09-.11,.14,.5,.05,.98,.29,1.45,.5Z"/><path class="ag" d="M66.23,19.72s-.04-.02-.06-.02c-.21-.08-.9-.33-1.23-.46-.22-.09-.45-.13-.69-.13-.47,0-.96,.16-1.44,.44,.39,.13,.78,.23,1.17,.35,.13,.04,.26,.09,.39,.14,.4-.21,.8-.32,1.18-.32,.2,0,.4,.03,.59,.1l.06,.02s.07,0,.08-.03c.01-.03,0-.07-.04-.08Z"/><path class="k" d="M63.3,20.81c-.29,.18-.57,.39-.81,.63-.51,.51-.89,1.15-1.22,1.79-.22,.43-.31,.97-.68,1.31-.05,.05-.13,.03-.14-.05-.05-.41,.1-.82,.25-1.19,.08-.2,.17-.39,.26-.58,.15-.3,.15-.49-.23-.55-.04,0-.07-.05-.07-.1,.03-.16,.08-.32,.13-.48-.32,.51-.61,1.07-.85,1.69-.54,1.39-.75,2.82-.58,4.01,.17,1.21,.7,2.05,1.5,2.36,.36,.14,1.29,.48,1.3,.49,0,0,.01,0,.02,0,.02,0,.05-.02,.06-.04,.01-.03,0-.07-.03-.08-.75-.29-1.26-1.1-1.42-2.26-.17-1.18,.04-2.58,.57-3.95,.48-1.23,1.18-2.28,1.95-3.02Z"/><g><g><path class="r" d="M62.12,27.02s.83,.31,.59,1.83c0,0,.14-.16,.3-.69,.39,.47,1.26,.12,2.47-2.42,.74-1.54,.38-2.9-1.19-1.57-1.66,1.76-1.59,2.79-1.59,2.79,0,0-.4-.18-.58,.06Z"/><g><path class="ba" d="M63.63,25.22c-.66,.92-.89,1.96-.69,2.54,.15,.43,.51,.59,1.35-.29,.72-.76,1.78-2.71,1.37-3.36-.29-.46-1.37,.19-2.03,1.11Z"/><path class="d" d="M62.19,27.02s.71,.28,.6,1.64c.3-.98,.01-1.61-.6-1.64Z"/><path class="af" d="M62.1,27.12s.71,.28,.6,1.64c.3-.98,.01-1.62-.6-1.64Z"/></g></g><g><path class="ax" d="M64.11,25.51c-.51,.75-.77,1.64-.57,1.98,.19,.35,.76,.03,1.27-.72,.51-.75,.77-1.63,.58-1.98-.19-.35-.76-.03-1.27,.72Z"/><path class="bb" d="M64.38,25.98c-.39,.53-.62,1.15-.52,1.36,.11,.22,.51-.04,.9-.57,.39-.53,.63-1.15,.52-1.36-.1-.22-.51,.04-.91,.57Z"/><path class="f" d="M65,25.32c-.1,.26-.11,.52-.01,.57,.09,.05,.25-.11,.35-.38,.1-.27,.1-.52,.01-.57-.09-.05-.25,.12-.34,.38Z"/><path class="f" d="M63.72,26.77c-.09,.25-.08,.51,0,.58,.09,.07,.22-.09,.31-.34,.09-.25,.09-.51,0-.58-.08-.06-.22,.09-.31,.34Z"/></g></g><g><path class="al" d="M64.65,21.99c-.95,.1-1.34,1.49-1.64,2.2-.02,.05,.01,.09,.05,.09,.03,.03,.09,.03,.12-.02,.27-.41,.6-.77,1.02-1.04,.59-.38,1.13-.25,1.63,.2,.06,.05,.14-.01,.13-.08-.1-.73-.47-1.44-1.32-1.35Z"/><path class="aa" d="M64.65,21.99c-.95,.1-1.34,1.49-1.64,2.2-.02,.05,.01,.09,.05,.09,.03,.03,.09,.03,.12-.02,.27-.41,.6-.77,1.02-1.04,.59-.38,1.13-.25,1.63,.2,.06,.05,.14-.01,.13-.08-.1-.73-.47-1.44-1.32-1.35Zm-.31,.98c-.39,.16-.71,.46-.98,.79,.21-.53,.45-1.08,.89-1.43,.33-.27,.8-.24,1.13,.01,.24,.19,.34,.51,.39,.81-.43-.33-.88-.43-1.43-.19Z"/><path class="ad" d="M64.69,22.46c.31-.03,.79,.1,1.01,.36,0-.01,0-.03,0-.04-.19-.35-.56-.58-.96-.55-.45,.03-.8,.45-1.02,.82,.33-.33,.48-.54,.98-.59Z"/></g><g><path class="w" d="M60.85,22.52s-1.21-.8-1.77-.3l-.62,1.7s-.04,.45,.58,.72c.62,.27,1,.24,1,.24,0,0,.3-1.68,.81-2.36Z"/><path class="m" d="M60.09,23.98c-.09,.33-.27,.39-.57,.25-.36-.17-.24-.35-.11-.71,.1-.27,.15-.55,.22-.83,.05-.21,.07-.54-.25-.56-.04,0-.09,0-.13,0-.07,.03-.13,.06-.18,.11l-.62,1.7s-.04,.45,.58,.72c.62,.27,1,.24,1,.24,0,0,.19-1.07,.53-1.85-.21,.28-.37,.59-.48,.95Z"/><path class="aw" d="M60.01,24.94c-.1,0-.46-.02-.99-.25-.65-.28-.62-.76-.62-.78v-.02l.62-1.7s0-.02,.02-.03c.13-.12,.31-.18,.53-.18,.59,0,1.29,.45,1.32,.47,.01,0,.02,.02,.03,.04,0,.02,0,.03,0,.05-.5,.67-.8,2.32-.8,2.34,0,.03-.03,.05-.06,.05h-.04Zm-1.49-1.01c0,.06,0,.42,.54,.65,.48,.21,.81,.23,.92,.24,.05-.28,.33-1.63,.77-2.29-.17-.11-.73-.42-1.2-.42-.18,0-.32,.05-.43,.14l-.61,1.67Z"/></g><g><path class="ar" d="M54.56,22.27c.07-.28,.12-.57,.17-.86,.02-.1,.03-.21,.06-.31-.03,0-.07-.01-.1-.02-.08,.14-.13,.32-.18,.46-.07,.16-.15,.31-.25,.45-.13,.2-.28,.39-.41,.58,.17,.04,.38,.1,.63,.16,0-.16,.05-.33,.08-.47Z"/><path class="ar" d="M57.07,21.62s-.09,.05-.13,.08c-.27,.15-.5,.3-.74,.49-.29,.24-.68,.47-.94,.75,1.13,.31,2.55,.72,3.54,1.1,0,0,.38-.54,.57-1.73,0,0-1.03-.35-2.29-.69Z"/><path class="q" d="M59.25,22.31c-.06,.2-.2,.66-.26,.79-.23,.48-1.2-.13-1.86-.3-.05-.01-.49-.2-.22-.42,.26-.22,.35-.39,.67-.61-.16-.05-.33-.09-.5-.14-.04,.03-.09,.05-.13,.08-.27,.15-.5,.3-.74,.49-.29,.24-.68,.47-.94,.75,1.13,.31,2.55,.72,3.54,1.1,0,0,.67-1.03,.45-1.73Z"/><path class="q" d="M54.56,22.27c.07-.28,.12-.57,.17-.86,.02-.1,.03-.21,.06-.31-.03,0-.07-.01-.1-.02-.08,.14-.13,.32-.18,.46-.07,.16-.15,.31-.25,.45-.13,.2-.28,.39-.41,.58,.17,.04,.38,.1,.63,.16,0-.16,.05-.33,.08-.47Z"/><path class="bd" d="M59.39,22.24s-1-.34-2.23-.67c-.06,.04-.12,.08-.19,.12,1.11,.3,2.05,.6,2.3,.69-.15,.91-.42,1.42-.51,1.58-.97-.37-2.34-.77-3.44-1.07-.03,.03-.07,.07-.1,.1,0,0-.02,.02-.03,.03,1.13,.31,2.57,.72,3.57,1.11,0,0,.02,0,.03,0,.03,0,.05-.01,.07-.04,.02-.02,.39-.57,.58-1.76,0-.04-.02-.08-.05-.09Z"/><path class="bd" d="M54.48,22.65c-.23-.06-.43-.11-.59-.15-.03,.05-.07,.1-.1,.14,.18,.05,.41,.1,.68,.17,0-.05,0-.11,0-.17Z"/></g><path class="aw" d="M59.25,22.23c-.03,.66-.2,1.33-.6,1.84-.06,.08,.07,.15,.14,.08,.36-.36,.7-1.21,.72-1.9,0-.11-.26-.12-.26-.02Z"/><path class="j" d="M62.85,30.29h0c-.24,0-.47-.04-.69-.13-.8-.31-1.33-1.15-1.5-2.36-.17-1.2,.04-2.62,.58-4.01,.96-2.47,2.73-4.2,4.3-4.2,.24,0,.47,.04,.69,.13,.8,.31,1.33,1.15,1.5,2.36,.17,1.2-.04,2.62-.58,4.01-.96,2.47-2.73,4.2-4.3,4.2Zm2.69-10.58c-1.5,0-3.26,1.73-4.19,4.12-.53,1.37-.74,2.77-.57,3.95,.16,1.17,.67,1.97,1.42,2.26,.2,.08,.42,.12,.65,.12h0c1.5,0,3.26-1.73,4.19-4.12,.53-1.37,.74-2.77,.57-3.95-.16-1.17-.67-1.97-1.42-2.26-.2-.08-.42-.12-.65-.12Zm-2.46,9.6c-.13,0-.25-.02-.36-.07-.52-.2-.83-.85-.87-1.81-.04-.95,.18-2.09,.63-3.23,.82-2.09,2.18-3.61,3.23-3.61,.13,0,.25,.02,.37,.07,.52,.2,.83,.85,.87,1.81,.04,.95-.18,2.1-.62,3.23-.82,2.09-2.18,3.61-3.23,3.61Zm2.62-8.6c-.99,0-2.33,1.52-3.12,3.53-.44,1.12-.66,2.25-.62,3.18,.04,.91,.32,1.52,.8,1.7,.1,.04,.21,.06,.32,.06,.99,0,2.33-1.52,3.12-3.53,.44-1.12,.66-2.25,.62-3.18-.04-.91-.32-1.52-.8-1.7-.1-.04-.21-.06-.32-.06Z"/><path class="ah" d="M64.4,20.08s2.42-.57,2.96,1.61c.55,2.19-.49,4.97-1.49,6.29,0,0,2.2-2.53,1.62-6.18-.46-2.92-3.1-1.72-3.1-1.72Z"/><path class="d" d="M50.04,21.51c-1.15,.23-1.91,1.56-2.22,2.59-.34,1.12-.26,2.39,.32,3.42,.29,.51,.74,.95,1.32,1.12,.6,.17,1.23-.15,1.71-.48,.09-.06,.26-.25,.17-.19-.56,.39-1.47,.71-2.14,.41-.52-.23-.88-.79-1.11-1.29-.43-.94-.39-2.06-.1-3.04,.29-.96,.98-2.03,1.98-2.35,1.15-.37,2.2,.62,2.4,1.97,.01,.1,0-.16,0-.26-.09-1.19-1.14-2.13-2.35-1.89Z"/><path class="d" d="M50.83,24.53c.28-.29,.39-.74,.2-1.1-.25-.47-.8-.66-1.22-.36-.23,.16-.42,.35-.57,.58-.31,.47-.46,1.04-.48,1.6-.03,.73,.46,2.11,1.44,1.76,.37-.13,.43-.63,.32-.95-.09-.27-.29-.49-.37-.77-.1-.36,.5-.57,.69-.77Zm-.8,.47c-.15,.35,.08,.62,.25,.92,.14,.25,.16,.59,0,.83-.21,.29-.61,.1-.82-.06-1.06-.81-.54-2.97,.57-3.57,.01,.01,.03,.02,.06,.02,.72-.11,1.1,.46,.79,1.07-.18,.35-.69,.43-.84,.79Z"/><g class="l"><path class="as" d="M50.83,24.53c.28-.29,.39-.74,.2-1.1-.25-.47-.8-.66-1.22-.36-.23,.16-.42,.35-.57,.58-.31,.47-.46,1.04-.48,1.6-.03,.73,.46,2.11,1.44,1.76,.37-.13,.43-.63,.32-.95-.09-.27-.29-.49-.37-.77-.1-.36,.5-.57,.69-.77Z"/></g><path class="aa" d="M76.72,14.15c-.47-1.71-2.08-2.73-2.63-4.38,1.59,.12,2.67-1.55,2.59-3.02,0-.09-.13-.09-.16-.01-.02,0-.04,.02-.05,.04-.49,.96-1.7,.88-2.6,.66-1.04-.25-2-.78-2.88-1.38-1.9-1.28-3.55-2.91-5.48-4.15C63.63,.69,61.37,.06,59.13,0c-1.9-.05-3.91,.56-4.98,2.25-.04,.06-.08,.13-.11,.2-1.62-1.22-3.91-1.12-5.8-.74-2.2,.45-4.28,1.39-6.13,2.66-2.12,1.46-3.58,3.76-5.91,4.95-.71,.36-1.58,.52-2.07-.26,0-.01-.01-.02-.02-.03-.04-.06-.16-.03-.15,.06,.1,1.09,.82,2,1.77,2.08-.68,.53-1.07,1.34-1.47,2.08-.04,.07,.04,.15,.11,.11,.54-.32,1.04-.68,1.6-.96-2.17,1.7-3.3,4.4-3.34,7.15,0,.07,.08,.12,.13,.06,.85-.85,1.78-1.6,2.81-2.22,.41-.25,.85-.47,1.29-.68-.96,.74-1.88,1.53-2.7,2.43-.98,1.06-1.91,2.32-2.1,3.79-.01,.09,.1,.11,.15,.05,.64-.76,1.41-1.44,2.27-1.93-.84,.88-1.15,2.14-1.34,3.33-.01,.08,.11,.12,.15,.05,.26-.44,.57-.84,.93-1.2-.82,1.89-.19,4.34,1.13,5.85,.04,.05,.14,.03,.14-.05-.02-1.16,.47-2.16,.97-3.17-.27,1.68,.34,3.28,1.43,4.62,.05,.07,.15,0,.14-.07-.1-.63-.18-1.52,.11-2.14,.46,2.28,2.05,4.27,3.82,5.69,2.01,1.62,4.44,2.47,6.91,3.08,.05,.01,.12-.05,.09-.11-.18-.35-.47-.62-.71-.93,.56,.17,1.13,.29,1.71,.14,.06-.02,.06-.1,.02-.14-.73-.58-1.35-1.32-1.83-2.12,.54,.55,1.18,1.03,1.87,1.35,.07,.03,.12-.05,.1-.11-.36-1.03-.61-2.1-.73-3.19-.06-.55-.06-1.1-.01-1.65,.03-.31,.08-.62,.15-.92,.05-.21,.09-.5,.21-.71-.06,0-.12,0-.18,0-.16,.33-.21,.76-.26,1.08-.12,.64-.12,1.29-.08,1.94,.07,1.14,.34,2.25,.7,3.33-.82-.42-1.55-1.06-2.13-1.76-.06-.07-.17,.02-.13,.1,.52,1.01,1.23,1.96,2.11,2.7-.57,.1-1.14-.07-1.68-.24-.08-.03-.15,.05-.1,.12,.22,.33,.52,.6,.74,.93-2.4-.6-4.69-1.45-6.65-2.99-1.82-1.43-3.45-3.52-3.82-5.86-.02-.1-.18-.08-.16,.02h0c-.37,.6-.35,1.43-.26,2.13-1.08-1.45-1.59-3.17-1.04-4.96,.03-.09-.11-.13-.15-.05-.56,1.2-1.26,2.34-1.3,3.68-1.26-1.57-1.81-4.09-.77-5.89,.04-.08-.05-.17-.12-.11-.41,.35-.77,.75-1.07,1.2,.23-1.26,.64-2.54,1.74-3.29,.08-.05,0-.17-.09-.13-1.06,.47-1.99,1.21-2.76,2.08,.25-1.28,1.08-2.37,1.93-3.33,1.01-1.13,2.2-2.11,3.43-2.99h0c.36-.19,.72-.38,1.06-.61,.09-.06,0-.2-.08-.14-.97,.66-2.11,1.05-3.12,1.65-.98,.59-1.87,1.31-2.69,2.11,.09-2.88,1.4-5.63,3.85-7.25,.08-.05,0-.16-.09-.13-.74,.24-1.37,.69-2.03,1.09,.37-.71,.76-1.45,1.45-1.89h0c.25-.02,.51-.1,.78-.24,.09-.05,.02-.2-.07-.14-1.24,.67-2.28-.23-2.54-1.42,.59,.65,1.51,.41,2.24,.02,1.19-.63,2.2-1.61,3.16-2.53,.89-.86,1.71-1.73,2.74-2.44,1.94-1.33,4.18-2.29,6.5-2.66,1.73-.28,3.7-.26,5.16,.83,0,.07,.1,.11,.14,.05,.02-.01,.03-.04,.04-.06,.48-.89,1.27-1.53,2.18-1.94,1.02-.47,2.12-.52,3.22-.47,2.42,.11,4.71,1.01,6.67,2.41,1.86,1.33,3.51,2.96,5.49,4.12,1.2,.7,3.32,1.66,4.57,.59,.09-.08,.17-.17,.23-.28-.05,1.34-1.08,2.8-2.56,2.58-.09-.01-.12,.11-.06,.15,.5,1.61,2.01,2.62,2.58,4.2,.65,1.8,.16,3.71-.58,5.39-.14-1.54-1.69-2.42-2.21-3.83-.04-.1-.17-.04-.15,.06-.02,.02-.04,.04-.03,.07,.26,2.32-1.45,4.25-3.29,5.41,.22-1.11,.19-2.28,.02-3.39-.01-.09-.13-.07-.16,0-.57,1.26-2.16,2.26-3.53,1.72,.56-.27,1-.79,1.36-1.29,.37-.52,.75-1.18,.77-1.83,.02-.03,.03-.06,.05-.09,.05-.09-.08-.15-.13-.09-.04,0-.08,.03-.08,.07,0,.02,0,.04,0,.07-.55,1.01-1.57,1.87-2.6,2.34-.91,.42-1.91,.62-2.88,.86,.68-.74,1.25-1.57,1.55-2.53h0s.01-.03,.01-.04c.02-.06,.04-.12,.06-.18,.03-.1-.13-.14-.16-.04-.02,.06-.03,.12-.05,.18-.58,1.07-1.46,1.95-2.38,2.72-.5,.42-1.1,.72-1.61,1.13,.61-.92,1.28-1.79,1.81-2.76,.01-.03,.01-.05,0-.07,0-.06-.08-.11-.13-.06-1.09,1.24-2.56,2.21-3.96,3.06-.67,.41-1.33,.81-1.96,1.28-.62,.46-1.22,.96-1.83,1.44,.2-1.19,.46-2.36,.69-3.55,.02-.1-.14-.12-.16-.02-.07,.34-.14,.69-.21,1.03-.44,.78-.9,1.55-1.33,2.33-.39,.71-.75,1.44-.97,2.22,0-.72,.01-1.43,.07-2.15,.09-1.08,.29-2.14,.52-3.19,.02-.1-.14-.12-.16-.02-.23,1.01-.41,2.03-.51,3.07-.1,1.03-.08,2.06-.08,3.09,0,.1,.15,.11,.16,0,.15-1.15,.68-2.19,1.24-3.18,.31-.56,.64-1.11,.96-1.67-.15,.74-.29,1.47-.41,2.22-.01,.07,.08,.11,.13,.07,.64-.49,1.25-1,1.89-1.49,.73-.56,1.51-1.01,2.29-1.49,1.15-.71,2.34-1.51,3.31-2.48-.6,.99-1.32,1.9-1.93,2.89v.02c-.06,.08,.07,.16,.12,.09,.65-.88,1.77-1.34,2.58-2.06,.55-.49,1.08-1.05,1.52-1.66-.35,.7-.84,1.31-1.38,1.88-.05,.06,0,.16,.08,.14,1.13-.3,2.3-.51,3.36-1.02,.87-.43,1.74-1.16,2.29-2-.1,.43-.33,.84-.56,1.2-.37,.58-.9,1.23-1.56,1.48-.06,.02-.09,.11-.02,.15,1.41,.69,3.08-.22,3.8-1.5,.14,1.07,.16,2.2-.09,3.25-.01,.06,.05,.14,.11,.1,1.88-1.14,3.65-3.05,3.55-5.38,.66,1.29,2.15,2.19,2.06,3.78,0,.09,.11,.14,.15,.05,.81-1.76,1.34-3.66,.81-5.58Z"/><path class="t" d="M50.1,20.52c-.47-.24-1.26-.52-1.41-1.1-.08-.31,.03-.77-.17-1.03-.15-.19-.22-.22-.44-.13-.13,.05-.25,.08-.38,.11-.06,.01-.12-.03-.11-.09,.04-.2,.05-.42,.09-.62-.84,.26-1.64,.78-2.53,.82-.25,.01-.73-.05-.8-.35-.08-.31,.18-.62,.35-.89-1,.25-1.98,.48-3.02,.44-.87-.03-1.66-.42-2.53-.14-.36,.12-.64,.09-.61-.37,.04-.76,.46-1.33,.89-1.91-.98,.45-1.92,.96-2.8,1.58,.08-.04,.15-.07,.23-.11-.96,.74-1.88,1.53-2.7,2.43-.98,1.06-1.91,2.32-2.1,3.79,0,.02,0,.03,0,.05,.09-.14,.19-.28,.28-.42,.41-.58,.86-1.16,1.36-1.66,1.19-1.2,2.66-2.07,4.32-2.41,.06-.01,.11,.03,.1,.09-.01,.19-.06,.37-.12,.54,.81-.54,1.99-.05,2.86,.12,.05,.01,.08,.07,.06,.12-.02,.04-.03,.09-.04,.13,1.12-.47,2.49,.29,3.58,.54,1.44,.34,3.06,.51,4.28,1.44,.03,.02,.04,.06,.02,.09-.74,1.4-1.37,2.86-1.34,4.48,.01,.82,.18,1.5,.59,2.21,.29,.5,.6,.98,.81,1.51,.02,.06-.13,2.67,.9,4.94,.03,.07-.32-.14-.38-.16-.52-.18-1-.75-1.39-1.12-.38-.36-.79-.73-1.1-1.15-.64-.85-1.12-1.3-1.99-3.51-.4,1.92,1.26,4.54,2.48,5.88,.05,.06,.02,.15-.07,.14-.82-.13-1.4-.71-2.04-1.19,.14,.58,.72,.98,1.13,1.38,.06,.06,0,.17-.09,.13-1.99-.93-3.95-2.12-5.32-3.87-1.32-1.69-1.93-3.73-2.06-5.85-.68,.97-1.05,2.11-1.37,3.24-.02,.06-.11,.1-.15,.03-.73-1.46-.47-2.93-.16-4.46-1.06,.77-1.42,2.16-1.8,3.35-.02,.06-.11,.1-.15,.03-.9-1.75-.63-4.01,.29-5.71-1.19,.26-1.83,1.27-2.2,2.44,.24-.38,.52-.73,.84-1.05-.82,1.89-.19,4.34,1.13,5.85,.04,.05,.14,.03,.14-.05-.02-1.16,.47-2.16,.97-3.17-.27,1.68,.34,3.28,1.43,4.62,.05,.07,.15,0,.14-.07-.1-.63-.18-1.52,.11-2.14,.46,2.28,2.05,4.27,3.82,5.69,2.01,1.62,4.44,2.47,6.91,3.08,.05,.01,.12-.05,.09-.11-.18-.35-.47-.62-.71-.93,.56,.17,1.13,.29,1.71,.14,.06-.02,.06-.1,.02-.14-.73-.58-1.35-1.32-1.83-2.12,.54,.55,1.18,1.03,1.87,1.35,.07,.03,.12-.05,.1-.11-.36-1.03-.61-2.1-.73-3.19-.06-.55-.06-1.1-.01-1.65,.03-.31,.08-.62,.15-.92,.05-.21,.09-.49,.2-.7,.52,.03,1.03-.25,1.44-.53,.09-.06,.26-.25,.17-.19-.56,.39-1.47,.71-2.14,.41-.52-.23-.88-.79-1.11-1.29-.43-.94-.39-2.06-.1-3.04,.29-.96,.98-2.03,1.98-2.35,1.08-.35,2.06,.5,2.35,1.72-.04,.44-.05,.88-.06,1.31,.05-.54,.12-1.08,.21-1.62,.08-.49,.18-.97,.29-1.46-.93-.27-1.84-.69-2.66-1.12Z"/><g><path class="ar" d="M52.79,20.5s-13.6-4.28-14.88-4.47c0,0-2.27,1.29-2.86,1.71,0,0,9.13,1.48,17.45,4.32l.29-1.55Z"/><path class="q" d="M49.75,19.54c.44,.28,1.2,.53,1.62,.84,.19,.14,.13,.35-.23,.47-.33,.11-.9-.05-1.21-.14-.48-.15-9.97-2.88-10.61-3.07-.3-.09-.83-.17-1.02-.45-.22-.33,.12-.69,.46-.96-.41-.11-.71-.18-.85-.2,0,0-2.27,1.29-2.86,1.71,0,0,9.13,1.48,17.45,4.32l.29-1.55s-1.26-.39-3.04-.95Z"/><path class="bd" d="M52.5,22.13s-.02,0-.03,0c-8.22-2.8-17.35-4.3-17.44-4.31-.03,0-.06-.03-.07-.06,0-.03,0-.06,.03-.08,.59-.42,2.78-1.66,2.87-1.71,.02,0,.03-.01,.05,0,1.28,.19,14.34,4.3,14.89,4.48,.04,.01,.06,.05,.05,.09l-.29,1.55s-.02,.04-.04,.05c-.01,0-.03,.01-.04,.01Zm-17.24-4.44c1.38,.24,9.64,1.7,17.18,4.26l.26-1.39c-1.04-.33-13.41-4.22-14.77-4.45-.23,.13-1.96,1.11-2.67,1.58Z"/></g><path class="ad" d="M50.5,2.17c-.71-.15-1.48-.09-2.19-.04-.79,.05-1.57,.23-2.31,.49-1.21,.43-2.32,1.17-3.32,1.95-2.1,1.63-3.87,3.62-6.1,5.1-.03,.02,0,.07,.03,.05,2.31-1.18,4.09-3.15,6.09-4.76,1.02-.81,2.12-1.52,3.33-2.01,.7-.28,1.44-.45,2.18-.56,.76-.12,1.52-.04,2.28-.08,.08,0,.09-.12,.02-.13Z"/><path class="ad" d="M76.49,7.1c-.93,1.09-2.63,.67-3.62,.36-.8-.25-1.55-.67-2.24-1.15-1.3-.89-2.43-2.01-3.68-2.96-2.59-1.96-6.16-3.41-9.42-2.48-.04,.01-.03,.07,.01,.06,3.55-.65,7.07,.94,9.79,3.12,2.44,1.96,5.25,5.22,8.52,3.76,.6-.27,.66-.74,.64-.71Z"/><path class="ad" d="M55.06,6.58s-.04-.08-.08-.05c-.41,.42-.78,.8-1.29,1.09-.42,.24-.87,.39-1.33,.53-.72,.21-1.46,.35-2.19,.5,1.07-1.07,1.7-2.39,2.32-3.78,.06-.12-.11-.2-.2-.13-1.52,1.14-3.56,.84-5.26,1.54,.33-.51,.68-1.01,1.05-1.49,.05-.07,0-.13-.06-.15-.01,0-.02-.01-.04,0h-.01s-.03,.01-.04,.03c-2.26,1.13-3.92,3.05-5.74,4.75-.09,.08,.04,.24,.14,.16,1.92-1.51,4.54-1.7,6.86-2.32-1.5,1.28-2.66,2.91-4.19,4.14-.12,.1,.04,.26,.16,.18,1.56-1.1,3.38-1.48,5.2-1.95,1.76-.46,3.4-1.16,4.56-2.62,.03-.03,.02-.07,0-.09,.06-.1,.1-.21,.13-.33Z"/><path class="ad" d="M64.39,8.15c-.39-.75-.97-1.4-1.63-1.93-.57-.46-1.47-1.05-2.24-.99-.04,0-.05,.06-.02,.08,.15,.1,.32,.18,.49,.26,.28,.35,.53,.68,.7,1.11,.21,.5,.28,1.04,.31,1.58,.04,.85-.09,1.71-.29,2.54-.12-.5-.39-.95-.81-1.33-.63-.57-1.35-.96-1.87-1.66-.05-.06-.16-.04-.16,.04,0,.31-.04,.62-.09,.92-.22-.77-.85-1.46-1.49-1.95-.07-.05-.15,0-.15,.08-.01,.86-.23,1.79-.88,2.38-.05-.44-.19-.86-.42-1.24-.05-.09-.18-.02-.14,.08,.02,.05,.04,.1,.05,.15-.29,1.34-1.59,2.14-2.3,3.25-.07,.11,.07,.25,.17,.16,.69-.61,1.5-1.05,2.24-1.6-.4,.91-.43,1.97-1.07,2.77-.09,.11,.04,.29,.16,.2,.93-.75,1.89-1.54,2.51-2.57-.16,.82-.39,1.63-.73,2.4-.33,.74-.74,1.43-1.18,2.11-.37,.49-.69,1.01-.93,1.61-.02,.05,.06,.08,.09,.03,.75-1.3,1.83-2.37,2.8-3.5,.8-.94,1.57-2.1,1.74-3.36,.16,.44,.34,.87,.47,1.32,.19,.65,.3,1.33,.34,2.01,.04,.78-.04,1.53-.28,2.28-.22,.68-.57,1.29-.84,1.94-.03,.04-.07,.08-.1,.12-.05,.05,.01,.13,.07,.09,.02,0,.05,0,.06-.02,.01-.02,.02-.03,.03-.05,.77-.56,1.48-1.26,2.16-1.93,.64-.63,1.24-1.31,1.72-2.08,.84-1.37,1.01-2.91,.64-4.41,.68,.73,1.04,1.76,1.21,2.72,.19,1.04,.19,2.23-.34,3.16-.03,.04,.04,.08,.07,.04,.44-.45,.49-1.01,.56-1.6,.36-1.79,.18-3.58-.68-5.22Z"/><path class="ad" d="M76.36,14.83c-.1-.67-.4-1.31-.75-1.89-.66-1.11-1.62-2.02-2.58-2.86-1.04-.92-2.11-1.82-3.28-2.58-1.35-.87-2.76-1.65-4.03-2.63-.03-.02-.07,.02-.04,.05,.48,.56,1.05,1.01,1.65,1.42,.6,.58,1.11,1.25,1.66,1.89,.06,.07,.11,.13,.17,.2-.82-.39-1.52-.98-2.32-1.42-1.13-.63-2.29-1.22-3.43-1.84-.07-.04-.12,.06-.06,.11,.27,.2,.55,.38,.84,.56,0,0,0,.02,.02,.03,1.44,1.04,2.65,2.44,3.37,4.08,.31,.72,.5,1.5,.57,2.28,.07,.89-.13,1.76-.41,2.6-.21,.25-.44,.47-.69,.65-.02,.01,0,.04,.02,.03,.85-.5,1.43-1.18,1.77-2.1,.46-1.26,.25-2.63-.07-3.9,.57,.64,1.14,1.28,1.56,2.03,.61,1.1,.85,2.52,.54,3.74,0,.03,.04,.04,.05,.01,.44-1.18,.3-2.59-.23-3.71-.22-.45-.5-.87-.82-1.27,.72,.67,1.24,1.61,1.66,2.44,.62,1.25,.95,2.59,.87,3.99,0,.01,.02,.02,.02,0,.09-.8,.11-1.62-.07-2.41-.16-.65-.39-1.29-.67-1.9-.26-.56-.6-1.14-1.02-1.65,.85,.45,1.77,.8,2.58,1.23,.75,.39,1.46,.86,2.02,1.5,.29,.33,.55,.7,.74,1.1,.19,.69,.25,1.42,.16,2.15v.03h0c-.01,.09-.02,.18-.04,.27,0,.01,.02,.02,.02,0,.12-.41,.23-.73,.26-1.15,.03-.36,0-.72-.05-1.07Z"/><path class="u" d="M69.29,28.65c-.1-.32-.87-.24-1.06-.1-.42,.32,0,.58,.38,.54,.19-.02,.7-.15,.69-.39,0-.02,0-.04,0-.06Z"/><path class="u" d="M50.19,21.83c-.79,.22-1.33,1.1-1.65,1.8-.01,.03,.03,.04,.04,.02,.32-.54,.74-1.02,1.27-1.37,.32-.21,.7-.28,1.06-.16,.33,.11,.51,.43,.79,.61,.03,.02,.06,0,.06-.03,.05-.76-1.01-1.03-1.57-.86Z"/></g><path class="aw" d="M51.55,54.33c-.71,.9-1.58,1.67-2.61,2.18-.83,.41-1.75,.65-2.66,.81-1.97,.35-4.68,.38-6.46-.68-.09-.05,.11,.09,.2,.15,1.77,1.05,4.1,1.03,6.07,.73,1-.15,2-.42,2.91-.86,1.06-.51,1.62-1.13,2.34-2.04,.07-.08,.26-.37,.2-.29Z"/><path class="w" d="M60.49,42.83s-.47,.12-.67,.17l-.05-.04c-.5-.64-.56-1.71-.57-2.46-.01-.82,.06-2.29,1.09-2.52,.04,0,.15-.03,.13-.06-.17-.31-.49-.51-.85-.5-.49,.02-.84,.34-1.27,.54-.31,.14-.7,.13-1.04,.16-.35,.03-.69,.05-1.04,.08-.7,.07-1.39,.08-2.09,.11-.07,0-.09,.07-.07,.12-1.05,.13-1.27,1.48-1.53,2.34-.16,.54-.38,1.2-.96,1.4-.59,.2-1.26-.54-1.62-.91-.57-.58-1.07-1.24-1.6-1.86-.47-.56-.93-.96-1.57-1.34-.95-.56-2.02-.97-3.13-1.05-.89-.06-1.77,.2-2.58,.52-2.9,1.13-4.68,3.78-5.75,6.59-.97,2.55-1.43,5.26-1.86,7.96-.02,0-.04-.01-.06,0-.71,.2-1.79,.63-1.72,1.54,.04,.46,.29,.93,.5,1.33,.22,.41,.47,.83,.81,1.15,.02,.02,.04,.03,.06,.02,.99,.99,1.91,2.05,3.01,2.92,1.12,.88,2.48,1.4,3.82,1.82,1.44,.46,2.95,.76,4.47,.77,1.55,.01,3.02-.51,4.53-.75,.98-.09,1.98-.41,2.72-1.08,.82-.75,.9-1.98,.52-2.98,.39-.74,.73-1.5,1.08-2.27,.6-1.34,1.12-2.69,1.49-4.12,.55-2.11,.96-4.15,.99-6.24,.01,0,.02-.01,.03-.02-.01-.03-.02-.05-.03-.08h0l.04,.06s-.04,.04,0,.02c.03-.01,.05-.02,.08-.03,.06-.02,.12-.05,.18-.07,.04-.02,.09-.04,.13-.05,.69-.14,1.39-.26,2.09-.13,.44,.08,.78,.37,1.18,.54,.85,.36,1.07-.91,1.09-1.52,.04-.03-.01-.08-.01-.08Z"/><path class="m" d="M59.82,43l-.05-.04c-.5-.64-.56-1.71-.57-2.46-.01-.82,.06-2.29,1.09-2.52,.04,0,.13-.02,.13-.05-.61-.49-1.28,.55-1.48,1.15-.19,.57-.11,1.16-.11,1.74,0,.24,.04,.93-.19,1.08-.12,.08-.38,.09-.52,.13-.2,.05-.4,.09-.61,.13-.29,.05-.73,.13-1.01-.03-.6-.34-.66-1.11-1.21-1.48,.14,.76,.39,1.79-.28,2.34-.5,.41-1.54,.46-2.01-.04-.54-.59,.07-1.38,.46-1.88,.67-.86,1.5-1.64,1.49-2.79-.27,.01-.55,.02-.82,.03-.07,0-.09,.07-.07,.12-1.05,.13-1.27,1.48-1.53,2.34-.16,.54-.38,1.2-.96,1.4-.59,.2-1.26-.54-1.62-.91-.57-.58-1.07-1.24-1.6-1.86-.47-.56-.93-.96-1.57-1.34-.95-.56-2.02-.97-3.13-1.05-.89-.06-1.77,.2-2.58,.52-2.9,1.13-4.68,3.78-5.75,6.59-.97,2.55-1.43,5.26-1.86,7.96-.02,0-.04-.01-.06,0-.71,.2-1.79,.63-1.72,1.54,.04,.46,.29,.93,.5,1.33,.22,.41,.47,.83,.81,1.15,.02,.02,.04,.03,.06,.02,.99,.99,1.91,2.05,3.01,2.92,1.12,.88,2.48,1.4,3.82,1.82,1.44,.46,2.95,.76,4.47,.77,1.55,.01,3.02-.51,4.53-.75,.98-.09,1.98-.41,2.72-1.08,.82-.75,.9-1.98,.52-2.98,.35-.66,.66-1.34,.96-2.02-.37,.6-.97,1.87-1.43,2.38-1.15,1.28-.59,1.57-3.79,2.5,1.25,.24,2.91-.26,3.68-1.26,.05-.06,.16-.01,.14,.07-.19,.65-.69,1.12-1.27,1.43-1.27,.67-2.76,.88-4.17,1-.83,.07-1.66,.12-2.49,.04-1.18-.12-2.93-.39-4.04-.81-1.55-.58-2.59-1.32-3.95-2.28-1.06-.75-2.13-1.87-1.63-3.26,.03-.07,.12-.05,.15,0,.13,.33,1.16,3,5.81,4.35-1.43-.91-2.68-2.19-2.8-3.96-.14-2,.96-4.33,1.66-6.14,.45-1.17,.79-2.51,1.79-3.36,1.09-.93,2.67-1.01,3.8-1.9,.76-.6,1.07-1.4,.85-2.32-1.01,.84-1.31-1.45-1.39-2.09,0-.04,.03-.08,.07-.08,2.37-.01,3.29,2.92,5.32,3.71,.25-.08,.48-.2,.68-.44,.07-.08,.19,.03,.12,.1-.16,.19-.35,.32-.56,.42,.07,.05,.04,.17-.05,.15-.05-.02-.11-.04-.16-.06-.52,.19-1.11,.24-1.61,.44-.8,.32-1.56,.79-2.22,1.34-.45,.38-.87,.8-1.24,1.25-.33,.41-.83,1.01-.77,1.57,.07,.7,1.08,.73,1.6,.69,.85-.07,1.67-.36,2.42-.74,1.33-.67,2.71-1.6,3.56-2.85,.02-.03,.07-.03,.1-.02,.36,.16,.79,.21,1.06,.52,.29,.32,.36,.75,.72,1.02,.7,.53,1.66,.58,2.32,1.18,.18-1.07,.3-2.14,.32-3.22,.01,0,.02-.01,.03-.02-.01-.03-.02-.05-.03-.08h0l.04,.06s-.04,.04,0,.02c.03-.01,.05-.02,.08-.03,.06-.02,.12-.05,.18-.07,.04-.02,.09-.04,.13-.05,.69-.14,1.39-.26,2.09-.13,.44,.08,.78,.37,1.18,.54,.85,.36,1.07-.91,1.09-1.52,.04-.03-.01-.08-.01-.08,0,0-.47,.12-.67,.17Z"/><path class="aw" d="M60.49,42.83s-.47,.12-.67,.17l-.05-.04c-.5-.64-.56-1.71-.57-2.46-.01-.82,.06-2.29,1.09-2.52,.04,0,.15-.03,.13-.06-.17-.31-.49-.51-.85-.5-.49,.02-.84,.34-1.27,.54-.31,.14-.7,.13-1.04,.16-.35,.03-.69,.05-1.04,.08-.7,.07-1.39,.08-2.09,.11-.07,0-.09,.07-.07,.12-1.05,.13-1.27,1.48-1.53,2.34-.16,.54-.38,1.2-.96,1.4-.59,.2-1.26-.54-1.62-.91-.57-.58-1.07-1.24-1.6-1.86-.47-.56-.93-.96-1.57-1.34-.95-.56-2.02-.97-3.13-1.05-.89-.06-1.77,.2-2.58,.52-2.9,1.13-4.68,3.78-5.75,6.59-.97,2.55-1.43,5.26-1.86,7.96-.02,0-.04-.01-.06,0-.71,.2-1.79,.63-1.72,1.54,.04,.46,.29,.93,.5,1.33,.22,.41,.47,.83,.81,1.15,.02,.02,.04,.03,.06,.02,.99,.99,1.91,2.05,3.01,2.92,1.12,.88,2.48,1.4,3.82,1.82,1.44,.46,2.95,.76,4.47,.77,1.55,.01,3.02-.51,4.53-.75,.98-.09,1.98-.41,2.72-1.08,.82-.75,.9-1.98,.52-2.98,.39-.74,.73-1.5,1.08-2.27,.6-1.34,1.12-2.69,1.49-4.12,.55-2.11,.96-4.15,.99-6.24,.01,0,.02-.01,.03-.02-.01-.03-.02-.05-.03-.08h0l.04,.06s-.04,.04,0,.02c.03-.01,.05-.02,.08-.03,.06-.02,.12-.05,.18-.07,.04-.02,.09-.04,.13-.05,.69-.14,1.39-.26,2.09-.13,.44,.08,.78,.37,1.18,.54,.85,.36,1.07-.91,1.09-1.52,.04-.03-.01-.08-.01-.08Zm-.63,1.45c-.28,.19-.73-.19-.97-.32-.44-.24-.94-.31-1.44-.3-.63,.02-1.13,.09-1.71,.33-.01,0-.03,.01-.05,.02,0-.9-.06-1.81-.21-2.75-.02-.1-.2-.51-.18-.41,.49,3.01,.05,6.16-.65,9.1-.35,1.47-.84,2.89-1.47,4.26-.63,1.39-1.5,3.35-2.4,4.59-.06,.08,.35-.38,.42-.47,.31-.42,.58-.87,.83-1.33,.37,1.08,.11,2.21-.81,2.9-.62,.47-1.41,.69-2.18,.78,0,0-.01,0-.02,0-.03,0-.07,.01-.1,.02-.11,0-.21,.02-.32,.03-.03,0-.05,.02-.06,.04-1.39,.25-2.75,.69-4.18,.69-1.46,0-2.91-.31-4.3-.73-1.39-.42-2.75-.96-3.9-1.84-1.17-.9-2.12-2.05-3.17-3.08-.02-.02-.04-.02-.05-.02-.44-.49-.76-1.15-.98-1.75-.15-.42-.17-.79,.15-1.13,.33-.36,.87-.56,1.33-.68-.07,.48-.06,.64-.14,1.11-.05,.32-.05,.48-.1,.79-.02,.1,0,.6,.02,.49,.53-3.23,.93-6.51,1.96-9.62,1-3.02,2.72-5.94,5.76-7.24,.93-.4,1.93-.66,2.95-.56,1.18,.12,2.29,.67,3.28,1.3,.56,.35,.98,.92,1.39,1.42,.49,.59,.97,1.19,1.53,1.72,.36,.34,.82,.74,1.34,.72,.48-.01,.8-.48,.98-.86,.44-.91,.47-2.98,1.86-2.92,.07,0,.09-.07,.07-.12,1.07-.04,2.13-.12,3.2-.21,.4-.03,.73-.09,1.08-.29,.48-.28,1.22-.67,1.6-.02-.96,.2-1.16,1.39-1.2,2.22-.05,1.02,.05,2.53,.98,3.16,.09,.06,.16-.19,.12-.09-.07,.16-.2-.08-.26-.14,.15-.04,.3-.08,.45-.13,0,.46-.08,1.05-.48,1.32Z"/><path class="be" d="M54.55,37.54c-.4-.13-.78-.3-1.14-.52-.39,.6-.87,1.12-1.25,1.73,0,0-.09,.14-.19,.35-.21,.63-.27,1.3-.26,1.97,0,.81,.05,1.7,.37,2.45-.02,.05,0,.11,.07,.11,.71,0,1.26-.87,1.66-1.36,.48-.6,.9-1.27,1.15-2,.22-.66,.23-1.38,0-2.03-.1-.28-.24-.51-.42-.69Z"/><path class="be" d="M54.55,37.54c-.4-.13-.78-.3-1.14-.52-.39,.6-.87,1.12-1.25,1.73,0,0-.09,.14-.19,.35-.21,.63-.27,1.3-.26,1.97,0,.81,.05,1.7,.37,2.45-.02,.05,0,.11,.07,.11,.71,0,1.26-.87,1.66-1.36,.48-.6,.9-1.27,1.15-2,.22-.66,.23-1.38,0-2.03-.1-.28-.24-.51-.42-.69Z"/><path class="ap" d="M54.55,37.54c-.4-.13-.78-.3-1.14-.52-.39,.6-.87,1.12-1.25,1.73,0,0-.09,.14-.19,.35-.21,.63-.27,1.3-.26,1.97,0,.81,.05,1.7,.37,2.45-.02,.05,0,.11,.07,.11,.71,0,1.26-.87,1.66-1.36,.48-.6,.9-1.27,1.15-2,.22-.66,.23-1.38,0-2.03-.1-.28-.24-.51-.42-.69Zm.18,2.89c-.25,.67-.68,1.28-1.12,1.83-.32,.39-.82,1.14-1.37,1.2-.31-.74-.34-1.61-.36-2.39-.02-.8,.08-1.61,.42-2.34h.01c.28-.5,.65-.91,.98-1.35,1.12,.7,.5,1.94,.24,2.83-.03,.1-.23,.62-.18,.52,.53-.98,1.23-2.71,.04-3.48,.03-.04,.06-.08,.09-.12,.62,.2,1.07,.51,1.33,1.16,.28,.68,.16,1.48-.08,2.16Z"/><path class="n" d="M53.21,42.03s-.11-.02-.11-.07c-.02-.67,.34-1.27,.63-1.84,.19-.36,.37-.72,.43-1.13,.05-.42,.06-.84,.13-1.26,0-.05,.07-.08,.12-.06,.18,.08,.33,.2,.46,.33-.09-.17-.19-.33-.32-.45-.4-.13-.78-.3-1.14-.52-.39,.6-.87,1.12-1.25,1.73,0,0-.09,.14-.19,.35-.21,.63-.27,1.3-.26,1.97,0,.81,.05,1.7,.37,2.45-.02,.05,0,.11,.07,.11,.71,0,1.26-.87,1.66-1.36,.25-.31,.48-.64,.69-.99-.38,.36-.81,.64-1.29,.76Zm-.72-.4c-.06,.05-.15,.02-.14-.07,.12-.82,.09-1.65,.27-2.46,.12-.54,.36-1.38,1.07-1.28,.04,0,.05,.03,.06,.05,.76,.44-.86,3.38-1.26,3.75Z"/><path class="w" d="M45.31,42.1c.19-.53,.06-1.17-.13-1.72-.24-.69-.71-1.45-1.33-1.9-.93-1.01-2.59-.77-3.75-.38-.68,.23-1.31,.52-1.92,.89-.54,.33-1.25,.87-1.92,.75-.36-.15-.78-.02-1.09,.19-.33,.22-.42,.64-.41,1,.02,.51,.26,1.03,.45,1.5,.25,.61,.61,1.18,1.02,1.7,.36,.46,.75,.88,1.11,1.33,.28,.36,.61,.71,1.06,.84,.87,.24,1.6-.8,1.83-1.52,.01,0,.02,0,.03-.02,.6-.51,1.56-.77,2.41-1.14h.01c1.07,.09,2.17-.31,2.63-1.34,.04-.09,.05-.26,.01-.18Z"/><path class="m" d="M45.31,42.1c.12-.34,.11-.72,.04-1.09-.06,.77-.45,1.55-1.05,1.83-.05,.02-.1-.02-.11-.07-.04-.5,.04-.98-.2-1.42-.16,.66-.68,1.04-1.31,1.31-.41,.18-.83,.38-1.26,.5-.47,.13-1.01,.21-1.39,.53-.22,.19-.37,.62-.52,.86-.08,.13-.27,.41-.46,.37-.32-.07-.4-.6-.44-1-.3-1.37-.84-3-2.2-3.56-.27-.11-.59-.11-.87-.16-.11-.02-.33-.03-.4-.14-.01-.02-.03-.04-.03-.07-.28,.23-.36,.61-.35,.95,.02,.51,.26,1.03,.45,1.5,.25,.61,.61,1.18,1.02,1.7,.36,.46,.75,.88,1.11,1.33,.28,.36,.61,.71,1.06,.84,.87,.24,1.6-.8,1.83-1.52,.01,0,.02,0,.03-.02,.6-.51,1.56-.77,2.41-1.14h.01c1.07,.09,2.17-.31,2.63-1.34,.04-.09,.05-.26,.01-.18Z"/><path class="aw" d="M45.3,42.1c-.38,.87-1.39,1.35-2.33,1.37,.73-.37,1.19-.69,1.23-1.6,0-.11-.04-.27-.05-.17-.05,.91-.7,1.39-1.5,1.76-.01,0-.02,0-.03,.01-.84,.38-1.84,.64-2.44,1.12-.04-.01-.09,0-.1,.05-.21,.76-.99,1.84-1.9,1.4-.33-.17-.58-.5-.81-.79-.26-.32-.52-.63-.79-.94-.62-.71-1.07-1.5-1.41-2.37-.16-.42-.32-.86-.27-1.32,.06-.51,.72-.94,1.22-.77,0,0,.02,.02,.04,.02,0,0,.02,0,.03,0,.04,.02,.07,.04,.11,.06,.05,.04,.11,0,.13-.04,.91,.01,1.79-.85,2.56-1.21,.75-.36,1.58-.65,2.41-.76,.8-.11,2.04,.1,2.58,.77,.06,.08,.02-.05-.05-.13-.91-1.14-2.65-.89-3.84-.49-.68,.23-1.31,.52-1.92,.89-.54,.33-1.25,.87-1.92,.75-.36-.15-.78-.02-1.09,.19-.33,.22-.42,.64-.41,1,.02,.51,.26,1.03,.45,1.5,.25,.61,.61,1.18,1.02,1.7,.36,.46,.75,.88,1.11,1.33,.28,.36,.61,.71,1.06,.84,.87,.24,1.6-.8,1.83-1.52,.01,0,.02,0,.03-.02,.6-.51,1.56-.77,2.41-1.14h.01c1.07,.09,2.17-.31,2.63-1.34,.04-.1,.05-.27,0-.18Z"/><path class="ai" d="M46.93,47.86c-.3-.14-.62-.2-.95-.23-.29-.25-.61-.45-1.01-.47-.46-.02-.87,.13-1.27,.35-.79,.43-1.4,1.13-2.05,1.73-1.13-.03-2.3-.46-3.32-.92-.48-.21-.92-.48-1.36-.78-.33-.23-.65-.44-1.03-.56,.23-.61,.81-1.05,1.29-1.45,.39-.32,.78-.67,1.22-.94-.06-.45-.19-.82-.29-1.18-.11-.41-.23-.7-.42-1.08-.34-.69-.81-1.34-1.51-1.68-1.71,.9-3.19,2.13-4.44,3.61-.62,.74-1.2,1.54-1.67,2.38-.41,.74-.68,1.56-.55,2.4-.02,.02-.04,.05-.03,.08,.39,1.53,2.34,2.32,3.67,2.8,2.29,.83,4.76,1.08,7.19,.93,.38,.53,.9,.97,1.57,1.02,.24,.02,.47-.07,.69-.18,.22-.11,.42-.24,.63-.33-.1,.15-.14,.34-.04,.59,.27,.72,1.1,.64,1.7,.43,.62-.21,1.38-.66,1.61-1.31,.03-.1,.04-.19,.02-.29,.34-.36,.55-.72,.5-1.15h0c.25-.45,.3-.91,.21-1.32,.02,0,.04-.01,.05-.03,.55-.75,.51-2.02-.43-2.43Z"/><g><path class="y" d="M34.62,46.87c.47,.01,.96,.06,1.43,.15-.04-.01-.07-.03-.11-.04,.23-.61,.81-1.05,1.29-1.45,.39-.32,.78-.67,1.22-.94-.06-.45-.19-.82-.29-1.18-.11-.41-.23-.7-.42-1.08-.34-.69-.81-1.34-1.51-1.68-.17,.09-.34,.19-.5,.28,.16,.04,.31,.08,.45,.14,.51,.21,1.07,.58,1.18,1.16,.16,.82-.51,1.2-1.08,1.65-.79,.62-1.7,1.21-2.36,1.98-.36,.42-.68,.86-1.04,1.28,.54-.22,1.17-.28,1.74-.27Z"/><path class="y" d="M44.3,47.76c.55-.09,1.13-.21,1.67-.14-.23-.2-.48-.36-.77-.43,.02,.05,0,.12-.03,.2-.08,.17-.36,.23-.52,.28-.11,.03-.23,.06-.35,.09Z"/><path class="y" d="M46.93,47.86c-.27-.12-.56-.19-.86-.22,.15,.02,.29,.06,.43,.12,.16,.07,1.08,.45,.89,.8-.15,.28-.69,.26-.95,.28-.19,0-.39,0-.6,.01,.8,.24,1.3,.95,1.51,1.87,0-.13-.01-.26-.04-.39,.02,0,.04-.01,.05-.03,.55-.75,.51-2.02-.43-2.43Z"/><path class="y" d="M47.35,50.8s-.07,.07-.12,.03c-.43-.37-.7-.88-1.34-.87-.21,0-.42,.04-.63,.07,.86,.16,1.86,.99,1.7,1.89,0,.05-.07,.08-.11,.06-.75-.34-1.49-1.33-2.37-.96,.62,.29,1.5,.57,1.77,1.22,.07,.17,.16,.56-.06,.67-.18,.1-.39,0-.56-.09-.35-.19-.66-.45-1.01-.64-.47-.26-.94-.11-1.44,0-.39,.08-.8,.1-1.16-.1-.46-.26-.83-.66-1.29-.93-.19,.04-.37,.07-.53,.09-.92,.1-1.91-.03-2.82-.17-1.59-.25-3.3-.41-4.8-1.04-.61-.26-1.31-.62-1.68-1.2-.32-.52-.42-1.13-.34-1.73,.09-.75,.35-1.48,.71-2.16-.41,.54-.8,1.11-1.13,1.71-.41,.74-.68,1.56-.55,2.4-.02,.02-.04,.05-.03,.08,.39,1.53,2.34,2.32,3.67,2.8,2.29,.83,4.76,1.08,7.19,.93,.38,.53,.9,.97,1.57,1.02,.24,.02,.47-.07,.69-.18,.22-.11,.42-.24,.63-.33-.1,.15-.14,.34-.04,.59,.27,.72,1.1,.64,1.7,.43,.62-.21,1.38-.66,1.61-1.31,.03-.1,.04-.19,.02-.29,.34-.36,.55-.72,.5-1.15h0c.16-.28,.24-.56,.25-.84Z"/></g><path class="d" d="M46.93,47.86c-.3-.14-.62-.2-.95-.23-.29-.25-.61-.45-1.01-.47-.46-.02-.87,.13-1.27,.35-.79,.43-1.4,1.13-2.05,1.73-1.13-.03-2.3-.46-3.32-.92-.48-.21-.92-.48-1.36-.78-.33-.23-.65-.44-1.03-.56,.23-.61,.81-1.05,1.29-1.45,.39-.32,.78-.67,1.22-.94,0-.06-.02-.12-.03-.18-.04,0-.07,.01-.11,.02-.06,0-.07,.05-.06,.1-.49,.32-.95,.73-1.38,1.1-.43,.36-.87,.77-1.08,1.31-.02,0-.05-.01-.07-.02-.1-.02-.12,.14-.02,.16,.48,.11,.88,.4,1.29,.67,.45,.31,.92,.56,1.41,.78,1,.44,2.16,.85,3.26,.87,.02,0,.05,0,.07-.02,.52-.48,1.01-.99,1.58-1.42,.38-.29,.8-.52,1.26-.62,.44-.09,.79,.04,1.13,.27-.62-.01-.85,.12-1.43,.19-.1,.01-.49,.15-.39,.13,.68-.09,1.38-.19,2.07-.14,.01,0,.02,0,.03,0,.14,.01,.28,.03,.42,.05,.4,.07,.78,.25,1,.61,.3,.48,.17,1.23-.13,1.68-.26-.77-1.04-1.36-1.98-1.33-.1,0-.29,.08-.18,.07,1.32-.02,2.51,1.28,1.94,2.5-.02-.08-.06-.15-.09-.23-.27-.55-.84-1-1.44-1.13-.1-.02-.7-.12-.07,.07,.5,.15,.95,.54,1.25,.96,.15,.21,.24,.45,.26,.71,.03,.33-.2,.61-.42,.85-.08-.19-.21-.36-.32-.5-.33-.39-.81-.75-1.3-.9-.1-.03-.25-.03-.15,0,.57,.16,1.49,.91,1.64,1.53-.02,.03,0,.06,.02,.08,0,0,0,.02,0,.03,.06,.52-.72,.99-1.1,1.19-.44,.24-1.03,.44-1.53,.26-.28-.1-.44-.4-.44-.69,0-.51,.75-.56,1.04-.42,.09,.04,.63,.08,.17-.06-.21-.06-.45-.12-.68-.08-.01-.02-.04-.04-.07-.03-.53,.1-.91,.39-1.39,.61-.73,.33-1.45-.27-1.87-.84,0-.04-.02-.09-.07-.09h0c-.04-.05-.09-.04-.12,0-2.3,.15-4.61-.1-6.8-.82-.76-.25-1.5-.56-2.19-.97-.64-.38-1.32-.89-1.6-1.59,0-.01,0-.03,0-.04-.25-1,.13-1.94,.62-2.79,.46-.79,1.02-1.53,1.61-2.23,1.22-1.45,2.71-2.64,4.39-3.51-.06-.03-.11-.06-.17-.09-1.71,.9-3.19,2.13-4.44,3.61-.62,.74-1.2,1.54-1.67,2.38-.41,.74-.68,1.56-.55,2.4-.02,.02-.04,.05-.03,.08,.39,1.53,2.34,2.32,3.67,2.8,2.29,.83,4.76,1.08,7.19,.93,.38,.53,.9,.97,1.57,1.02,.24,.02,.47-.07,.69-.18,.22-.11,.42-.24,.63-.33-.1,.15-.14,.34-.04,.59,.27,.72,1.1,.64,1.7,.43,.62-.21,1.38-.66,1.61-1.31,.03-.1,.04-.19,.02-.29,.34-.36,.55-.72,.5-1.15h0c.25-.45,.3-.91,.21-1.32,.02,0,.04-.01,.05-.03,.55-.75,.51-2.02-.43-2.43Z"/><path class="aw" d="M38.34,43.48c-.12-.45-.28-.89-.49-1.32-.39-.79-.85-1.35-1.71-1.62-.1-.03-.29-.03-.19,0,.86,.28,1.41,1.01,1.79,1.79,.19,.38,.31,.68,.42,1.08,.11,.41,.26,.81,.3,1.34,0,.1,.03,.2,.05,.1,.09-.43-.07-.95-.18-1.37Z"/><path class="be" d="M57.9,43.68c-.57-.34-1.14-.67-1.72-.97-.56-.28-1.17-.49-1.8-.45-.64,.04-1.16,.42-1.58,.88h0c-.11-.11-.26-.21-.44-.26h0c-.06-.08-.14-.15-.23-.21,.1-.46-.06-1-.22-1.42-.06-.16-.08-.22-.18-.37-.03-.08-.08-.35-.1-.41-.25-.78-.38-1.35-.78-2.08-.31-.56-.74-1.07-1.16-1.56-.45-.52-.95-1-1.54-1.36-.42-.25-1.02-.49-1.5-.28-.39,.18-.62,.58-1,.77-.58,.29-1.45-.07-2.01-.27-.47-.17-.97-.38-1.48-.35-.59,.03-1.07,.35-1.49,.74-.46-.09-.92-.13-1.48-.09-1.07,.08-2.17,.48-3.08,1.04-1.89,1.15-3.39,2.85-5.42,3.8-2.28,1.06-4.69,1.85-7.12,2.51-1.22,.33-2.45,.63-3.67,1-1.18,.35-2.34,.73-3.51,1.11-1.31,.42-2.62,.84-3.95,1.21-1.4,.39-2.82,.67-4.23,.99-1.9,.43-4.3,1.24-6.19,2.01-.08,.01-.15,.03-.23,.06,.13,0,.27,.03,.4,.06,.59-.03,1.17,.3,1.59,.71,.66,.64,1,1.51,1.26,2.37,.28,.93,.46,1.89,.64,2.84,.34,1.78,.67,3.58,1.49,5.22,.31,.62,.73,1.21,1.22,1.74,0,0-.01,0-.02,0,.02,.02,.04,.03,.06,.06,.03,.02,.05,.04,.07,.07h0c.83,.86,1.86,1.55,2.98,1.87,.02,0,.03,0,.05,0,.05,0,.09-.02,.09-.07-.34-4.43,2.14-8.5,5.42-11.28,1.81-1.53,3.92-2.55,6-3.65,2.19-1.17,4.23-2.65,6.25-4.09,1.89-1.35,3.61-2.92,5.5-4.25-.03-.13-.05-.25-.05-.38-.01-.36,.08-.78,.41-1,.32-.21,.74-.34,1.09-.19,.67,.12,1.38-.42,1.92-.75,.61-.38,1.24-.67,1.92-.89,.56-.19,1.24-.34,1.89-.33,.26-.04,.53-.07,.8-.08,2.02-.03,3.76,1.45,5.15,2.74,.54,.5,1.28,1.15,1.85,1.65-.05,0-.11,0-.16,0-.93-.03-1.75,.04-2.59,.49-.58,.31-1.1,.74-1.62,1.15-.53,.43-1.05,.88-1.49,1.42-.28,.35-.58,.83-.41,1.29,.2,.54,1.01,.58,1.48,.57,1.51-.01,3.17-.56,4.38-1.46,.63-.48,1.14-1.13,1.29-1.91,.09,.21,.24,.41,.39,.54,.45,.4,1.13,.54,1.62,.16,.02-.01,.04-.03,.06-.05,.44,1.09,1.59,1.72,2.73,1.82,.75,.06,1.5-.18,2.16-.5,.39-.19,1.03-.49,1.08-.99,.05-.43-.51-.73-.81-.91Z"/><path class="ap" d="M57.9,43.68c-.57-.34-1.14-.67-1.72-.97-.56-.28-1.17-.49-1.8-.45-.64,.04-1.16,.42-1.58,.88h0c-.11-.11-.26-.21-.44-.26h0c-.06-.08-.14-.15-.23-.21,.1-.46-.06-1-.22-1.42-.06-.16-.08-.22-.18-.37-.03-.08-.08-.35-.1-.41-.25-.78-.38-1.35-.78-2.08-.31-.56-.74-1.07-1.16-1.56-.45-.52-.95-1-1.54-1.36-.42-.25-1.02-.49-1.5-.28-.39,.18-.62,.58-1,.77-.58,.29-1.45-.07-2.01-.27-.47-.17-.97-.38-1.48-.35-.59,.03-1.07,.35-1.49,.74-.46-.09-.92-.13-1.48-.09-1.07,.08-2.17,.48-3.08,1.04-1.89,1.15-3.39,2.85-5.42,3.8-2.28,1.06-4.69,1.85-7.12,2.51-1.22,.33-2.45,.63-3.67,1-1.18,.35-2.34,.73-3.51,1.11-1.31,.42-2.62,.84-3.95,1.21-1.4,.39-2.82,.67-4.23,.99-1.9,.43-4.3,1.24-6.19,2.01-.08,.01-.15,.03-.23,.06,.13,0,.27,.03,.4,.06,.59-.03,1.17,.3,1.59,.71,.66,.64,1,1.51,1.26,2.37,.28,.93,.46,1.89,.64,2.84,.34,1.78,.67,3.58,1.49,5.22,.31,.62,.73,1.21,1.22,1.74,0,0-.01,0-.02,0,.02,.02,.04,.03,.06,.06,.03,.02,.05,.04,.07,.07h0c.83,.86,1.86,1.55,2.98,1.87,.02,0,.03,0,.05,0,.05,0,.09-.02,.09-.07-.34-4.43,2.14-8.5,5.42-11.28,1.81-1.53,3.92-2.55,6-3.65,2.19-1.17,4.23-2.65,6.25-4.09,1.89-1.35,3.61-2.92,5.5-4.25-.02-.09-.03-.19-.04-.29-.95,.57-1.9,1.14-2.85,1.71-.02,0-.03,0-.05,.01-.77,.52-1.67,.82-2.52,1.18-.93,.39-1.84,.81-2.76,1.23-1.89,.87-3.79,1.74-5.78,2.38-1.56,.51-3.15,.97-4.64,1.67-1.56,.73-2.94,1.77-3.98,3.16-.06,.08,.51-.56,.59-.64,2.84-2.8,5.09-3.06,8.34-4.13,1.86-.61,3.63-1.43,5.41-2.25,.95-.44,1.9-.87,2.87-1.28,.72-.3,1.45-.57,2.13-.94,.01,0,.03,0,.04-.01,.88-.52,1.76-1.05,2.64-1.58-.71,.53-1.39,1.09-2.08,1.66-.99,.81-2.01,1.57-3.05,2.32-2.09,1.49-4.2,2.98-6.48,4.18-2.04,1.08-4.07,2.12-5.83,3.62-1.56,1.34-2.89,2.95-3.87,4.76-1.05,1.95-1.6,4.17-1.45,6.38-2.2-.67-3.8-2.58-4.59-4.67-.71-1.88-.93-3.9-1.37-5.85-.34-1.5-.82-3.29-2.28-4.09-.2-.11-.39-.18-.58-.21,1.63-.67,3.31-1.31,5.03-1.71,2.37-.55,4.72-1.06,7.05-1.79,2.48-.77,4.94-1.64,7.46-2.28,2.4-.61,4.77-1.32,7.07-2.25,1.14-.46,2.23-.96,3.24-1.66,1.02-.71,1.95-1.56,2.96-2.29,1.05-.76,2.22-1.3,3.51-1.49,1.26-.18,2.87,.32,4.29,.68,.1,.03-.53-.28-1.01-.41-.5-.13-.93-.25-1.35-.34,.42-.36,.89-.63,1.47-.61,.52,.02,1.03,.27,1.52,.44,.45,.15,1.04,.34,1.52,.26,.42-.06,.67-.32,.96-.6,1.02-.98,2.49,.51,3.15,1.25,.47,.53,.93,1.1,1.27,1.72,.35,.64,.55,1.35,.77,2.04-.19-.24-.41-.46-.65-.66-.53-.45-1.08-.88-1.62-1.34-.54-.46-1.09-.89-1.71-1.24-.09-.05-.58-.3-.49-.25,1.05,.6,2.33,1.85,3.27,2.6,.41,.32,.82,.64,1.13,1.07,.33,.44,.64,1.21,.51,1.78-.32-.15-.72-.16-1.03,.02-.06-.02-.13-.05-.19-.07-.08-.29-.38-.4-.71-.45-.21-.16-.5-.38-.65-.51-.65-.58-1.27-1.2-1.93-1.78-1.31-1.17-2.9-2.25-4.72-2.28-.67,0-1.32,.15-1.96,.37,.38-.08,.78-.13,1.17-.13,.26-.04,.53-.07,.8-.08,2.02-.03,3.76,1.45,5.15,2.74,.54,.5,1.28,1.15,1.85,1.65-.05,0-.11,0-.16,0-.93-.03-1.75,.04-2.59,.49-.58,.31-1.1,.74-1.62,1.15-.53,.43-1.05,.88-1.49,1.42-.28,.35-.58,.83-.41,1.29,.2,.54,1.01,.58,1.48,.57,1.51-.01,3.17-.56,4.38-1.46,.63-.48,1.14-1.13,1.29-1.91,.09,.21,.24,.41,.39,.54,.45,.4,1.13,.54,1.62,.16,.02-.01,.04-.03,.06-.05,.44,1.09,1.59,1.72,2.73,1.82,.75,.06,1.5-.18,2.16-.5,.39-.19,1.03-.49,1.08-.99,.05-.43-.51-.73-.81-.91Zm-7.32-.39s-.04,.03-.04,.07c-.14,1.75-2.05,2.71-3.55,3.14-.68,.19-3.95,.88-3.26-.74,.24-.57,.77-1.03,1.22-1.44,.4-.36,.83-.69,1.26-1.01,.77-.58,1.56-1.01,2.53-1.08,.36-.03,1.47-.1,1.8,.27,.03,.05,.05,.09,.07,.15-.79-.33-1.7,.26-2.31,.73-.68,.52-1.42,1.26-1.7,2.09-.03,.1,.12,.16,.15,.06,.25-.79,.96-1.47,1.58-1.98,.57-.47,1.52-1.12,2.28-.74h.01v.02s.01,.07,.04,.09c-.07,.12-.09,.25-.08,.38Zm2.16,.72s-.07,.04-.06,.09c-.08,.09-.19,.18-.33,.23-.36,.15-.77,0-1.07-.2-.3-.2-.56-.55-.53-.92,.05-.74,1.12-.67,1.48-.23l.02,.02s.02,.03,.05,.04c.54,.15,.67,.62,.44,.98Zm4.81,1.43c-.59,.31-1.26,.49-1.93,.49-1.14,0-2.36-.7-2.76-1.79,.2-.26,.2-.56,.07-.81,.2,.04,.39,.04,.6,.14,.38,.17,.7,.46,1.04,.69,.09,.06,.17-.08,.08-.14-.36-.23-.68-.5-1.07-.7-.19-.1-.37-.13-.57-.15h-.01c.43-.46,.93-.74,1.57-.75,.5,0,.98,.18,1.42,.39,.42,.19,.81,.44,1.21,.67,.43,.25,1,.47,1.28,.9,.31,.48-.66,.91-.95,1.06Z"/><path class="n" d="M41.49,36.39c1.59,.41,3.11,1.03,4.65,1.61-1.18-1-2.97-1.03-4.03-2.21-.03-.03-.04-.08,0-.11,.14-.13,.29-.23,.45-.32-.13-.02-.26-.03-.39-.02-.59,.03-1.07,.35-1.49,.74-.46-.09-.92-.13-1.48-.09-.05,0-.09,0-.14,.02,.82,.03,1.65,.18,2.44,.38Z"/><path class="n" d="M46.77,37.15c-.35-.43-.61-.99-.36-1.53,.07-.17,.17-.31,.29-.43-.01,0-.03,0-.04,.02-.39,.18-.62,.58-1,.77-.58,.29-1.45-.07-2.01-.27h-.03c1.01,.56,2.08,1.01,3.15,1.45Z"/><path class="n" d="M58.11,43.8c.16,.21,.27,.44,.19,.66-.22,.6-1.17,.83-1.73,.87-1.01,.07-2.78-.19-2.97-1.43,0-.06,.07-.11,.12-.08,.7,.45,1.76,.5,2.56,.23-.24-.1-.5-.16-.73-.25-.46-.16-.93-.33-1.36-.57-.21-.12-.55-.31-.55-.59,0-.08,.04-.15,.09-.21-.35,.16-.66,.42-.93,.71h0c-.11-.11-.26-.21-.44-.26h0c-.06-.08-.14-.15-.23-.21,.1-.46-.06-1-.22-1.42-.06-.16-.08-.22-.18-.37-.03-.08-.08-.35-.1-.41-.25-.78-.38-1.35-.78-2.08-.31-.56-.74-1.07-1.16-1.56-.45-.52-.95-1-1.54-1.36-.12-.07-.25-.14-.39-.2,0,0,.01,.01,.02,.02,1.26,.78,2.56,2.17,2.83,3.67,.01,.08-.08,.11-.13,.07-1.01-.85-2.11-1.99-3.51-2.03,.54,.47,1.19,.79,1.73,1.26,.27,.23,.76,.59,.97,.87,.21,.27,.28,.37,.57,.57,.4,.28,.74,.64,1.05,1.03,.3,.38,.34,.82,.25,1.28-.01,.05-.07,.08-.11,.06-2.43-1.39-4.44-3.57-7.12-4.5-1.6-.56-3.26-.53-4.86,.02-.88,.3-1.71,.7-2.53,1.15-.84,.58-1.73,1.09-2.62,1.6-1.07,.62-2.11,1.28-3.21,1.83-1.06,.52-2.16,.96-3.25,1.41-1.17,.48-2.31,1.02-3.49,1.49-1.19,.48-2.4,.92-3.6,1.38-2.12,.81-4.11,2.07-6.02,3.32-1.63,1.07-4.92,4.43-5.62,6.16,.43-.86,3.26-3.88,4.32-4.59,1.21-.82,2.53-1.81,3.88-2.35,.72-.28,1.44-.58,2.18-.77,.69-.18,1.4-.32,2.09-.49,1.52-.38,3.34-1.58,4.8-2.12,.09-.03,2.87-1.15-.27,.97-3.42,2.3-7.36,3.6-10.51,6.28-2.52,2.15-4.24,5.12-5.16,8.3,0,.04-.01,.09-.02,.13-.08,.59-.1,1.16-.1,1.75,0,.22-.03,.42-.26,.49-.43,.13-.91-.15-1.3-.49,.78,.74,1.71,1.32,2.72,1.6,.02,0,.03,0,.05,0,.05,0,.09-.02,.09-.07-.34-4.43,2.14-8.5,5.42-11.28,1.81-1.53,3.92-2.55,6-3.65,2.19-1.17,4.23-2.65,6.25-4.09,1.89-1.35,3.61-2.92,5.5-4.25-.03-.13-.05-.25-.05-.38-.01-.36,.08-.78,.41-1,.32-.21,.74-.34,1.09-.19,.67,.12,1.38-.42,1.92-.75,.61-.38,1.24-.67,1.92-.89,.56-.19,1.24-.34,1.89-.33,.26-.04,.53-.07,.8-.08,2.02-.03,3.76,1.45,5.15,2.74,.54,.5,1.28,1.15,1.85,1.65-.05,0-.11,0-.16,0-.24,0-.48,0-.71,0,.38,.04,.75,.12,1.12,.24,.08,.03,.04,.15-.03,.15-1.31,.16-2.46,1.22-3.29,2.17-.57,.66-1.36,1.61-2.34,1.34-.03,0-.06-.04-.06-.07-.01-.67,.27-1.28,.67-1.82-.37,.32-.73,.66-1.03,1.04-.28,.35-.58,.83-.41,1.29,.2,.54,1.01,.58,1.48,.57,1.51-.01,3.17-.56,4.38-1.46,.63-.48,1.14-1.13,1.29-1.91,.09,.21,.24,.41,.39,.54,.45,.4,1.13,.54,1.62,.16,.02-.01,.04-.03,.06-.05,.44,1.09,1.59,1.72,2.73,1.82,.75,.06,1.5-.18,2.16-.5,.39-.19,1.03-.49,1.08-.99,.04-.34-.31-.6-.6-.79Zm-8.25,.88c-.43,.51-1.06,.87-1.67,1.13-.64,.27-1.34,.48-2.05,.39-.09-.01-.08-.12-.01-.16,1.47-.71,2.09-2.61,3.91-2.65,.1,0,.12,.16,.01,.16h0c.05,.03,.1,.07,.14,.13,.18,.3-.16,.79-.33,1Zm2.62-.58c-.64,.28-1.39-.78-1.37-1.33,0-.05,.03-.08,.08-.09,.12-.02,.24-.02,.34,0h0s.03,0,.04,0h.01c.39,.07,.89,.26,1.11,.59,.18,.26,.09,.68-.22,.82Z"/><path class="ac" d="M27.12,45.43c-1.03,.57-3.44,1.69-4.28,2.03-.92,.37-2.37,.56-3.31,.86-1.6,.52-2.56,.89-4.02,1.73-1.44,.82-2.98,2.19-4.11,3.4-1.26,1.36-2.12,2.71-3.32,4.11-2.16,2.51,.43,4.78,.43,4.72,.38-3.89,4.21-10.09,7.35-11.81,1.4-.77,2.9-1.32,4.4-1.82,1.76-.59,3.52-1.25,5.12-2.19,.04-.02,1.77-1.05,1.73-1.03Z"/><path class="ac" d="M46.82,38.37c-.7-.4-1.49-.71-2.24-.99-.74-.29-1.49-.56-2.26-.76-1.48-.39-3.04-.42-4.51,.02-1.5,.45-2.8,1.47-4,2.44-1.22,.99-2.48,1.95-3.97,2.51-.04,.02-.01,.07,.03,.06,2.78-.89,4.71-3.31,7.35-4.47,1.42-.62,2.97-.66,4.47-.38,.91,.17,2.24,.5,3.11,.82,.8,.3,3.28,1.62,4.94,2.51,.05,.03-2.87-1.72-2.93-1.75Z"/><path class="ac" d="M51.05,40.72c-.59-.67-2.16-2.01-2.79-2.63-.4-.4-1.47-.88-1.96-1.14-1.13-.61-2.48-1.24-3.78-1.25-.04,0-.09,.03-.09,.08,0,.15,.05,.13,.13,.24,.03,.04,.08,0,.08-.03,0,0,0-.05-.01-.09,1.3,.25,2.56,.78,3.71,1.42,.48,.27,1.12,.54,1.81,.98,.69,.45,1.01,.83,1.62,1.38,.03,.02,1.32,1.08,1.3,1.05Z"/><path class="ac" d="M50.27,38.48c-.37-.85-.91-1.63-1.6-2.26-.46-.42-1.37-1.29-1.96-.59-.06,.07,0,.2,.1,.18,.22-.04,.41-.14,.64-.08,.17,.04,.32,.16,.45,.26,.3,.22,.58,.46,.85,.71,.57,.51,1.12,1.11,1.45,1.81,.02,.04,.09,.02,.07-.03Z"/><path class="ac" d="M53.61,38.24s-.08-.03-.11,0c-.1,.12-.09,.19-.1,.35-.02,.27-.09,.54-.15,.8-.13,.53-.34,1.05-.61,1.52-.02,.03,.03,.07,.05,.04,.31-.42,.56-.87,.75-1.36,.12-.31,.42-1.05,.17-1.35Z"/><path class="ac" d="M54.69,38.11c-.06-.16-.3-.04-.24,.12,.45,1.13,0,2.31-.76,3.2-.03,.03,.02,.08,.05,.05,.93-.84,1.44-2.16,.95-3.37Z"/><path class="ac" d="M29,41.98c-2.06,.76-4.16,1.36-6.29,1.92-2.17,.58-4.3,1.29-6.42,1.99-2.13,.7-4.27,1.4-6.43,1.99-1.08,.29-2.16,.56-3.26,.76-1.08,.2-2.33,.57-3.39,.87-.2,.06,1.38,.16,2.07,2.51,.3,1,3.2-3,23.75-9.97,.05-.02,.02-.1-.03-.08Z"/><path class="ac" d="M49.68,42.24c-1.06,.01-2.11,.18-3.04,.71-.99,.57-1.67,1.47-2.05,2.53-.04,.11,.06,.24,.18,.21,.51-.13,.77-.75,1.01-1.16,.42-.75,1.06-1.25,1.79-1.66,.68-.24,1.42-.34,2.12-.52,.06-.02,.07-.12,0-.12Z"/><path class="ac" d="M58.03,44.07c-.2-.34-.63-.54-.97-.71-.46-.23-.94-.41-1.41-.59-.61-.23-1.15-.38-1.77-.08-.04,.02-.02,.08,.02,.07,.88-.31,1.76,.28,2.54,.65,.35,.16,.71,.33,1.02,.55,.12,.08,.23,.18,.3,.3,.19,.31-.16,.52-.34,.69-.06,.05,.01,.14,.08,.11,.41-.19,.81-.5,.52-.99Z"/><path class="ac" d="M52.51,43.35s-.01-.01-.02-.02c-.09-.13-.27-.21-.41-.28-.19-.1-.42-.14-.64-.13-.13,0-.19,.16-.1,.25,.27,.3,.65,.45,1.05,.41,.1,0,.19-.14,.11-.23Z"/><path class="bg" d="M37.64,40.66c-.42-.47-1.14-.86-1.79-.75-.03,0-.03,.05,0,.06,.39,.12,.75,.22,1.1,.46,.27,.19,.49,.43,.7,.68,.22,.26,.4,.58,.55,.89,.16,.34,.21,.71,.39,1.04,.02,.04,.08,.02,.07-.02-.16-.83-.44-1.72-1.01-2.36Z"/><path class="bg" d="M43.55,38.95c-.54-1.02-1.84-1.01-2.8-.69-.59,.2-1.13,.52-1.66,.84-.57,.34-1.14,.6-1.75,.85-.04,.02-.03,.09,.02,.08,.47-.05,.91-.28,1.33-.48,.52-.25,1.03-.52,1.56-.76,.55-.25,1.12-.44,1.72-.44,.62,0,1.07,.28,1.51,.67,.05,.04,.1-.02,.07-.07Z"/><path class="bg" d="M59.22,37.79c-.52,.12-.99,.44-1.5,.62-.66,.23-1.36,.25-2.05,.24-.05,0-.05,.08,0,.08,.67,.02,1.32-.01,1.98-.12,.55-.08,1.25-.32,1.63-.74,.04-.04,0-.1-.06-.09Z"/><path class="bg" d="M54.66,47.97c-.68,2.35-1.33,4.69-2.37,6.92-.48,1.02-1.03,2.09-1.81,2.92-.68,.73-1.54,1.08-2.45,1.42-.07,.02-.04,.12,.03,.1,.97-.21,1.86-.65,2.59-1.32,.85-.77,1.38-1.87,1.87-2.89,1.08-2.23,1.8-4.69,2.2-7.14,0-.05-.06-.06-.07-.01Z"/><path class="bg" d="M51.08,59.17c-2.3,1.1-4.85,1.1-7.35,.96-1.17-.07-2.29-.2-3.42-.53-1.15-.33-2.24-.82-3.33-1.28-.04-.02-.07,.04-.03,.06,1.08,.51,2.17,.99,3.31,1.38,1.22,.42,2.47,.6,3.76,.67,1.29,.08,2.59,.11,3.88-.05,1.12-.13,2.33-.44,3.23-1.16,.03-.02,0-.07-.03-.05Z"/><path class="u" d="M41.85,49.57c-1.02-.18-2.02-.32-2.98-.75-.71-.32-1.33-.81-2-1.19-1.31-.75-2.94-.82-4.28-.1-.05,.03-.02,.11,.04,.08,.84-.38,1.73-.42,2.63-.28,.78,.12,1.46,.53,2.11,.95,1.33,.85,2.7,1.14,4.33,1.3,.09,0,.24,0,.16-.01Z"/><path class="u" d="M47.11,48.36c-.23-.42-.95-.49-1.38-.51-.66-.03-1.37,.08-2.01,.23-.04,0-.03,.07,.01,.07,.54-.09,1.06-.14,1.61-.12,.56,.02,1.19,.08,1.65,.44,.07,.06,.17-.02,.13-.1Z"/><path class="u" d="M47.02,50.19c-.19-.41-.37-.76-.78-.98-.36-.2-.8-.21-1.2-.26-.03,0-.04,.04,0,.04,.36,.08,.71,.17,1.04,.33,.41,.2,.65,.54,.9,.9,.02,.02,.05,0,.04-.02Z"/><path class="u" d="M45.02,50.07s-.03,.04,0,.05c.51,.07,.98,.28,1.31,.69,.23,.29,.32,.59,.45,.92,.02,.05,.09,.04,.09-.01,.01-.92-1-1.68-1.86-1.64Z"/><path class="u" d="M45.64,51.69c-.27-.2-.8-.49-1.15-.38-.02,0-.02,.03,0,.04,.12,.05,.25,.06,.37,.1,.25,.07,.47,.21,.68,.35,.29,.21,.4,.47,.6,.75,.02,.03,.07,.02,.08-.01,.04-.35-.32-.66-.57-.85Z"/><path class="u" d="M36.02,41.11c-.81,.36-1.45,.89-2.12,1.46-.56,.48-1.1,.97-1.61,1.5-.94,.99-1.91,2.42-1.55,3.86,0,.03,.06,.02,.06-.01-.2-1.55,.83-2.8,1.85-3.84,.48-.5,1-.95,1.52-1.39,.62-.53,1.26-1.01,1.89-1.51,.03-.03,0-.07-.04-.05Z"/><path class="u" d="M72.99,33.01c-.91,.53-1.8,1.06-2.75,1.52-1.03,.5-2.09,.93-3.13,1.39-1.05,.47-2.11,.91-3.18,1.34-1.14,.46-2.29,.95-3.52,1.09-.04,0-.03,.06,0,.06,1.07,0,2.1-.38,3.08-.76,1.1-.43,2.2-.87,3.27-1.36,1.13-.52,2.27-1.02,3.4-1.56,.98-.47,2-1,2.85-1.68,.03-.02,0-.07-.04-.05Z"/><path class="u" d="M76.47,27.69c-.4-.15-.77,.08-1.09,.3-.43,.3-.82,.64-1.14,1.05-.57,.7-.74,1.53-.87,2.4,0,.02,.02,.02,.02,0,.15-.73,.4-1.44,.82-2.05,.48-.7,1.36-1.49,2.22-1.53,.09,0,.12-.14,.03-.17Z"/><path class="u" d="M77.9,27.03c-.5-.96-1.69-.72-2.42-.21-.02,.01,0,.04,.02,.03,.38-.23,.79-.39,1.24-.36,.45,.03,.78,.31,1.11,.59,.03,.02,.07-.01,.06-.05Z"/><path class="u" d="M77.86,26.4s-.03,.05,0,.05c.28,.04,.45,.14,.61,.38,.1,.15,.15,.33,.26,.48,.03,.04,.08,.02,.07-.03-.06-.39-.47-1.02-.94-.88Z"/><path class="u" d="M79.67,27.21c-.1-.2-.31-.34-.54-.31-.04,0-.04,.07,0,.07,.19,.04,.32,.14,.42,.31,.09,.16,.09,.34,.16,.5,.02,.05,.08,.03,.1-.01,.04-.19-.05-.41-.14-.57Z"/><path class="u" d="M78.5,30.5c-.61-.06-1.3,.07-1.91,.18-.55,.09-1.13,.27-1.58,.6-.03,.02,0,.07,.04,.05,.5-.34,1.08-.44,1.67-.53,.58-.08,1.23-.04,1.79-.21,.04-.01,.04-.09,0-.09Z"/><path class="a`" d="M49.54,60.94c-1.62,.36-3.24,.7-4.89,.95-1.58,.24-3.2,.34-4.77-.02-.05-.01,2.5,.89,5.5,.48,1.5-.2,2.83-.5,4.01-1.09,.49-.24,.23-.33,.15-.31Z"/><path class="a`" d="M47.32,65.36c.35-.05,.68-.15,1.02-.22,.51-.11,1.11-.24,1.62-.05,.51,.19,.59,.72,.8,1.2,.26,.61,.63,1.24,.83,1.87,.38,1.21,.97,2.34,1.24,3.58,.06,.29,.37,1.31,.08,2.81,.45-1.05,.32-1.94,.2-2.67-.17-.96-.3-1.93-.63-2.83-.28-.76-.62-1.5-.96-2.23-.37-.77-.66-2.04-1.51-2.43-.65-.3-.97,.19-1.55,.46-.4,.18-1.03,.36-1.64,.56,.17,0,.34,0,.51-.03Z"/><path class="a`" d="M22.64,70.54c-1.56,.77-3.06,2-3.69,3.66-.09-.17-.19-.33-.26-.51-.02-.06-.07-.09-.13-.09h-.04c-.06,0-.1,.05-.12,.1-.22,.79-.12,1.62,.12,2.4,.02,.06,.11,.03,.1-.03-.09-.67-.18-1.36-.04-2.02,.09,.17,.19,.34,.26,.52,.05,.12,.22,.14,.26,0,.56-1.86,2.06-2.92,3.58-3.97,.04-.02,0-.08-.04-.06Z"/><path class="a`" d="M24.54,68.46c.02-.36,.15-.74,.11-1.1-.01-.08-.13-.1-.17-.03-.15,.25-.15,.57-.18,.85-.04,.39-.04,.78-.02,1.16,.02,.76,.14,1.51,.29,2.26,0,.04,.09,.03,.08-.02-.09-.69-.14-1.39-.13-2.09,0-.35,0-.7,.03-1.04Z"/><path class="a`" d="M27.98,63.69c.67-1.08,1.45-2.11,2.4-2.96,.3-.27,.64-.59,1.06-.65,.41-.07,.78,.06,1.14,.25-.09-.3-.25-.57-.36-.87-.03-.08,.07-.14,.13-.09,.2,.16,.33,.36,.5,.56,.23,.28,.5,.52,.77,.76,.16,.14,.32,.28,.49,.42-.24-.39-.54-.74-.82-1.09-.43-.53-.9-1.04-1.35-1.56-.1-.12-.34-.03-.27,.14,.15,.33,.31,.65,.41,.99-.36-.22-.74-.38-1.18-.38-.62,0-1.13,.5-1.55,.9-.89,.86-1.58,1.9-2.13,3-1,1.99-1.49,4.17-1.77,6.37,.57-2.03,1.43-4,2.54-5.79Z"/><path class="a`" d="M49.28,62.59c-.41,.27-.76,.6-1.21,.83-.58,.29-1.18,.53-1.78,.76-1.11,.42-2.26,.73-3.4,1.06-.04,0-.03,.07,.01,.06,1.33-.21,2.63-.55,3.89-1.02,.85-.32,2.13-.71,2.63-1.54,.06-.1-.04-.22-.14-.15Z"/></g></g></g></g></svg>