<?xml version="1.0" encoding="UTF-8"?><svg xmlns="http://www.w3.org/2000/svg" viewBox="0 0 1787.56 3570.42"><defs><style>.d{fill:#fff;}.e{fill:#592100;}.f{fill:#003084;}.g{fill:#dbdbdb;}.h{fill:#0092ff;}.i{fill:#00437f;}.j{fill:#c70000;}.k{fill:#005dcc;}.l{fill:#7bbaff;}.m{fill:#260c00;}.n{fill:#68210c;}.o{fill:#f9c89f;}.p{fill:#2796ff;}.q{fill:#ea9611;}.r{fill:none;}.s{fill:#f9c316;}.t{fill:#87402c;}.u{fill:#f4b456;}.v{fill:#0674ed;}.w{fill:#fff9bd;}.x{fill:#d36d11;}.y{fill:#ff7b7b;}.a`{fill:#fe0000;}.aa{fill:#fbee14;}.ab{fill:#eca77f;}.ac{fill:#935000;}.ad{fill:#441700;}.ae{fill:#77391b;}.af{fill:#5b0000;}</style></defs><g id="a"/><g id="b"><g id="c"><g><g><g><path class="q" d="M425.63,95.49C560.84-3.47,773.36-56.12,1083.88,105.94c487.46,254.4,364.7,809.46,658.24,894.85-116.3,24.68-185.02-46.26-185.02-46.26,0,0,62.27,44.48,88.95,231.27,26.69,186.8,26.69,300.66,133.43,359.36-143.21,23.13-235.28-86.73-256.18-113.86,1.78,7.12,42.7,121.86,144.99,196.58-201.03-22.24-250.96-111.34-383.66-171.69-137.91-62.72-656.19-57.81-857.22-161.88-138.49-71.7-193.91-126.31-193.91-126.31,0,0,7.12,26.69,19.57,44.48-112.97-23.57-213.46-285.21-133.89-490.29,114.75-295.76,95.4-442.59,167.69-554,56.71-87.4,138.76-72.72,138.76-72.72Z"/><path class="u" d="M183.69,656.75s-107.63,159.08-66.27,324.03c-9.34-172.12,66.27-324.03,66.27-324.03Z"/><path class="u" d="M246.38,514.67s-94.59,178.73-53.23,343.68c-9.34-172.12,53.23-343.68,53.23-343.68Z"/><path class="u" d="M1299.58,1011.47c68.05,16.01,151.22,95.62,196.14,209.38-28.57-194.08-89.3-256.08-128.04-289.44,34.64,46.7,65.33,144.72,65.33,144.72-34.2-31.75-80.5-66-133.43-64.66Z"/><path class="u" d="M1272.13,1118.65c135.15,67.6,203.58,295.33,270.29,392.28-59.5-53.98-174.74-300-270.29-392.28Z"/><path class="x" d="M233.5,1168.02s55.43,54.62,193.91,126.31c201.03,104.07,719.31,99.17,857.22,161.88,132.7,60.35,182.63,149.45,383.66,171.69-2.21-1.62-4.35-3.27-6.51-4.92-215.42-92.53-269.28-336.15-408.9-453.26-94.29-79.09-155.57-93.87-272.19-133.35-285.8-96.76-646.46-172.34-646.46-172.34,0,0-1.33,18.68,34.69,141.43,36.03,122.75,163.97,177.33,241.5,220.16-166.12,5.8-406.39-114.08-436.79-345.54-59.8,124.24-6.73,244.84,33.78,309.79,14.68,11.56,30.04,19.37,45.64,22.63-12.45-17.79-19.57-44.48-19.57-44.48Z"/><path class="x" d="M1582.45,1155.57s-67.67-172.79-164.52-240.41c79.65,129.63,115.15,409.86,115.15,409.86,0,0-140.1-260.3-260.95-260.3,86.82,18.77,147.89,158.46,197.24,265.64,29.02,63.02,56.84,111.4,75.8,126.43,39.21,41.34,120.62,106.75,234.3,88.39-106.74-58.71-106.74-172.57-133.43-359.36-21.59-151.1-66.44-209.06-82.8-225.7-4.03-3.41-6.15-5.58-6.15-5.58,0,0,2.29,1.64,6.15,5.58,19.19,16.21,82.76,61.08,178.87,40.68-118.97-2.66-176.35-96.03-281.09-120.75,107.41,105.91,121.42,275.53,121.42,275.53Z"/><path class="n" d="M1677.95,1631.65l-9.96-1.1c-134.59-14.89-200.84-58.98-270.97-105.66-34.13-22.72-69.42-46.2-113.5-66.25-59.23-26.94-187-41.09-334.94-57.47-191.17-21.17-407.83-45.16-522.39-104.47-109.73-56.81-168-103.46-187.25-120.17,3.14,9.24,8.74,23.62,16.31,34.43l3.86,5.52-6.59-1.38c-39.15-8.17-77.73-44.02-108.65-100.95-52.15-96.03-80.78-254.77-27.18-392.91,58.28-150.21,81.74-261.1,100.59-350.2,18.32-86.58,31.56-149.13,67.35-204.3,53.33-82.2,129.95-75.41,140.31-74.06,121.95-88.85,335.27-158.69,660.17,10.88,269.53,140.67,354.62,377.06,423,567,55.95,155.45,104.28,289.7,234.76,327.66l10.2,2.97-10.39,2.21c-76.73,16.28-133.47-9.01-163.43-28.36,20.84,28.98,52.31,90.42,69.45,210.39,3.49,24.44,6.49,47.4,9.4,69.6,19.37,148.06,31.07,237.43,122.67,287.81l6.79,3.74-7.65,1.24c-125.3,20.25-212.92-61.04-248.23-102.02,14.31,34.39,56.26,120.11,138.19,179.96l8.09,5.91ZM228.4,1159.26l6.97,6.86c.55,.54,56.83,55.21,193.27,125.84,113.68,58.85,329.83,82.79,520.52,103.91,148.4,16.43,276.56,30.63,336.57,57.92,44.47,20.22,79.95,43.84,114.25,66.67,67.85,45.16,132.04,87.88,258.82,103.65-90.88-70.45-133.87-175.24-138.09-192.14l-3.1-12.4,7.8,10.12c24.26,31.5,112.7,131.3,246.04,113.96-87.85-52.51-100.19-146.87-118.65-287.92-2.9-22.19-5.9-45.13-9.39-69.54-21.64-151.48-66.99-208.94-82.52-224.63-3.66-3.09-5.6-5.05-5.71-5.16l-32.11-31.99,35.58,27.96c.47,.34,2.9,2.13,6.71,5.98,18.7,15.51,77.81,56.5,165.83,41.8-125.44-42.55-173.12-175.02-228.11-327.77-68.06-189.07-152.76-424.38-420.44-564.08C759.38-60.4,547.8,9.39,427.21,97.64l-.92,.68-1.12-.2c-.8-.14-81.04-13.25-136.06,71.54-35.26,54.34-48.41,116.48-66.61,202.5-18.89,89.29-42.41,200.41-100.84,351.02-52.98,136.55-24.67,293.48,26.9,388.44,28.44,52.37,63.24,86.39,98.63,96.67-10.27-17.33-16.01-38.57-16.27-39.57l-2.52-9.45Z"/></g><path class="n" d="M1521.1,1432.84c-23.16-33.37-44.01-79.34-66.08-128.01-45.54-100.4-97.15-214.2-182.9-240.1,0,0,35.46,0,78.33,46.73,45.16,49.46,78.67,123.34,109.43,191.17,21.97,48.44,42.72,94.2,65.61,127.17l-4.39,3.04Z"/><path class="n" d="M1382.41,1515.19c-39.06-24.17-59.03-48.96-80.17-75.21-34.53-42.87-73.68-91.47-205.34-158.39,0,0,47.46,17.64,85.85,42.57,68.73,44.28,97.5,80,123.65,112.47,21.75,27.01,40.54,50.33,78.82,74.02l-2.8,4.54Z"/><path class="n" d="M1778.57,1547.68c-143.74-51.98-175.13-160.86-214.88-298.72-29.03-100.69-61.93-214.81-145.76-333.81,0,0,19.32,20.27,50.03,69.57,52.02,93.33,77.67,182.32,100.87,262.76,39.32,136.39,70.38,244.13,211.57,295.18l-1.81,5.02Z"/><path class="n" d="M231.44,1169.72c-46.8-56.73-81.76-158.25-76.08-236.36,3.09-36.21,18.28-53.29,18.28-53.29-35.32,74.18,4.99,217.25,61.91,286.25l-4.12,3.4Z"/></g><g><path class="o" d="M893.5,1146.25l-94.93,.42h-92.73s0,110.3-6.23,130.76c28.46,25.8,99.63,37.36,99.63,37.36,0,0,72.03-11.98,100.49-37.78-6.23-20.46-6.23-130.76-6.23-130.76Z"/><path class="ab" d="M831.25,1169.5s18.2,104.34-24.73,143.92c19.01-3.8,70.25-15.61,93.2-36.41-6.23-20.46-6.23-130.76-6.23-130.76l-94.93,.42,32.69,22.83Z"/><path class="t" d="M799.24,1317.5l-.43-.07c-2.94-.48-72.27-11.99-100.99-38.02l-1.25-1.14,.49-1.62c6.04-19.85,6.11-128.88,6.11-129.98v-2.67h95.4l97.6-.43v2.68c0,1.1,.07,110.13,6.11,129.98l.49,1.62-1.25,1.14c-28.71,26.02-98.88,37.94-101.85,38.43l-.43,.07Zm-96.62-40.97c27.15,23.21,90.73,34.55,96.61,35.56,5.92-1.03,70.31-12.75,97.49-35.98-5.37-22.26-5.84-110.23-5.88-127.17l-92.26,.41h-90.08c-.04,16.91-.52,104.92-5.88,127.18Z"/></g><g><path class="o" d="M668.47,136.18c-284.65,39.14-296.72,32.8-296.72,32.8,0,0-176.17,495.58-14.04,766.1,121.31,202.42,373.48,266.85,439.52,266.85s322.21-64.43,443.53-266.85c84.97-141.78,77.02-345.37,50.21-507.04-24.35-146.82-337.84-252.72-622.49-291.86Z"/><path class="ab" d="M1290.96,428.04c-8.39-50.62-51.17-96.37-115.27-136.21,11.23,17.62-28.42,62.08-25.14,81.85,36.03,101.4,171.72,241.5,44.96,499.02-96.69,196.44-316.22,284.2-408.29,284.2-49.59,0-215.34-22.18-346.21-118.92,129.06,122.08,303.01,163.95,356.22,163.95,66.71,0,322.21-64.43,443.53-266.85,84.97-141.78,77.02-345.37,50.21-507.04Z"/><path class="t" d="M797.23,1204.6c-31.98,0-111.68-15.39-200.19-57.78-73.93-35.41-175.87-100.65-241.62-210.37-84.16-140.42-75.88-341.94-54.13-486.27,23.54-156.16,67.5-280.86,67.94-282.1l1.03-2.9,2.72,1.43c.4,.03,23.07,4.33,295.12-33.08l.36-.05,.37,.05c293.39,40.34,600.35,146.92,624.76,294.07,25.15,151.68,36.8,363.09-50.55,508.85-65.74,109.7-168.64,174.95-243.39,210.37-89.44,42.39-170.06,57.78-202.43,57.78ZM373.59,171.81c-11.72,34.17-168.13,504.05-13.6,761.9,121.03,201.96,375.91,265.55,437.24,265.55s320.2-63.6,441.24-265.55c86.52-144.37,74.87-354.43,49.86-505.23-10.99-66.28-84.32-130.01-212.05-184.29-110.37-46.9-255.18-84.3-407.81-105.31-232.29,31.93-283.59,33.62-294.88,32.93Z"/></g><g><path class="q" d="M640.9,447.51c-3.56-40.03-16.9-73.83-68.49-85.39-51.59-11.56-113.86,29.35-130.76,78.28,108.52-89.84,199.25,7.12,199.25,7.12Z"/><path class="x" d="M640.9,447.51c-12.79-36.47-38.8-60.15-74.16-63.82-52.59-5.46-96,16.41-125.09,56.71,108.52-89.84,199.25,7.12,199.25,7.12Z"/><path class="n" d="M644.24,454.98l-5.29-5.64c-3.64-3.88-90.32-94.06-195.6-6.88l-7.33,6.07,3.11-9c18.13-52.49,83.18-91.36,133.87-80.01,56.43,12.65,67.34,51.46,70.57,87.76l.69,7.71Zm-107.57-55.2c49.69,0,87.37,28.9,100.82,40.84-3.93-32.19-16.25-64.82-65.67-75.9-45.26-10.15-102.64,21.92-123.91,67.32,31.79-23.89,62.02-32.26,88.76-32.26Z"/></g><g><path class="q" d="M957.56,447.51c3.56-40.03,16.9-73.83,68.49-85.39,51.59-11.56,113.86,29.35,130.76,78.28-108.52-89.84-199.25,7.12-199.25,7.12Z"/><path class="x" d="M957.56,447.51c19.46-41.26,37.9-59.46,75.69-68.53,27.8-6.67,106.66,12.49,123.56,61.41-108.52-89.84-199.25,7.12-199.25,7.12Z"/><path class="n" d="M954.22,454.98l.68-7.7c3.22-36.3,14.13-75.11,70.57-87.76,50.66-11.37,115.73,27.52,133.87,80.01l3.11,9-7.33-6.07c-105.28-87.17-191.96,3-195.6,6.88l-5.29,5.64Zm89.95-92.14c-5.97,0-11.85,.61-17.53,1.88-49.43,11.08-61.75,43.71-65.67,75.9,20.68-18.37,98.7-76.87,189.58-8.58-18.59-39.69-64.8-69.2-106.37-69.2Z"/></g><g><path class="q" d="M1367.68,844.68c-58.47-304.21-251.78-515.47-513.3-527.93-261.52-12.45-357.51-2.67-412.74-62.59,6.27,116.85-43.59,152.09-70.27,271.29-24.63,110.01-55.15,164.45-33.59,308.55,31.25,208.85,87.41,285.44,265.31,386.84l-316.43-195.95-51.1-470.03,112.69-418.69,589.52-34.69,374.06,192.51,55.85,550.68Z"/><path class="u" d="M480.06,96.15s300.49-170.79,665.17,87.98c-70.25-26.6-210.17-107.99-370.91-110.22,216.66,54.96,425.19,177.9,509.25,286.23-158.11-121.89-462.99-194.61-462.99-194.61,0,0,221.81,82.72,358.29,184.13-312.04-126.31-497.11-155.99-642.09-120.08,147.7-80.06,365.63-2.67,365.63-2.67,0,0-202.81-105.85-439.42-55.15,251.73-112.97,574.98,34.69,574.98,34.69C729.85,48.12,596.16,79.25,480.06,96.15Z"/><path class="u" d="M361.59,133.49s-90.73,65.41-120.08,224.04c22.24-53.23,47.62-82.58,47.62-82.58,0,0,15.1,47.37-26.27,126.79,95.4-72.75,111.19-238.87,111.19-238.87,0,0-42.25,102.07-61.82,136.76-15.65-76.05,49.37-166.14,49.37-166.14Z"/><path class="u" d="M298.65,506.22c-42.7,170.79-71.83,331.79,36.25,558.5-188.1-265.41-36.25-558.5-36.25-558.5Z"/><path class="u" d="M246.18,511.08s148.06-137.72,163.2-307.11c-47.73,165.63-163.2,307.11-163.2,307.11Z"/><path class="u" d="M1241.06,377.7c82.97,100.29,118.57,204.51,214.64,407.77-37.77-243.67-86.73-319.27-158.33-407.77,70.32,119.4,81.61,186.12,81.61,186.12-33.81-63.49-84.73-147.44-137.91-186.12Z"/><path class="x" d="M863.36,279.39c-261.52-12.45-367.36,6.57-444.91-97.85,5.76,161.89-74.66,248.18-90.68,345.3-18.35,111.23-44.67,174.18-23.12,318.28,31.25,208.85,101.09,286.61,298.43,375.72-177.9-101.4-234.06-177.99-265.31-386.84-21.56-144.1,8.96-198.54,33.59-308.55,26.69-119.2,76.54-154.44,70.27-271.29,55.22,59.92,151.22,50.13,412.74,62.59,261.52,12.45,454.83,223.71,513.3,527.93-5.62-49.31-7.67-90.81-19.39-134.09-71.91-265.45-260.07-420.49-484.92-431.19Z"/><path class="n" d="M558.23,1199.27c-146.41-91.79-194.72-175.27-223.09-364.87-17.04-113.89-1.74-171.92,17.64-245.37,5.28-20.02,10.74-40.73,15.99-64.16,10.51-46.94,24.8-81.43,37.41-111.86,19.63-47.35,36.57-88.25,32.79-158.7l-.4-7.4,5.02,5.45c44.19,47.95,113.59,50.45,281.26,56.5,37.95,1.37,80.96,2.92,129.64,5.24,127.63,6.08,243.78,60.03,335.9,156.04,71.15,74.15,125.43,170.49,159.49,282.13,17.78,55.95,17.78,94.26,17.78,94.26-59.23-308.17-260.76-515.07-513.42-527.1-48.65-2.32-91.65-3.87-129.58-5.23-163.26-5.88-234.21-8.44-280.05-53.13,2.39,67.38-14.29,107.63-33.51,154-12.53,30.23-26.73,64.5-37.14,110.98-5.27,23.53-10.74,44.28-16.03,64.35-19.22,72.87-34.4,130.42-17.52,243.22,30.73,205.4,85.1,285.02,264.44,387.24,0,0-28.9-10.58-46.63-21.58Z"/></g><path class="t" d="M559.17,904.76c-22.79-1.15-30.75-15.22-30.75-15.22,23.95,14.54,39.17,11.43,68.2,.88,0,0-12.54,14.33-37.45,14.33Z"/><g><path class="t" d="M848.33,872.7c-12.65,10.16-29.99,16.46-49.1,16.46s-35.39-5.96-47.94-15.59c-3.22-.32,13.77,20.9,47.94,20.93,34.69,.03,51.66-21.79,49.1-21.79Z"/><path class="t" d="M881,1024.9c-20.67,8.72-48.99,14.11-80.23,14.11s-57.83-5.11-78.32-13.37c-5.26-.27,22.5,17.93,78.32,17.95,56.68,.03,84.41-18.69,80.23-18.69Z"/><path class="t" d="M799.23,774.85c28.43,0,52.9,13.91,63.87,33.8,2,0-7.5-21.01-25.83-30.57-11.17-5.45-24.17-8.57-38.04-8.57-14.71,0-28.44,3.52-40.05,9.58-17.33,8.37-25.83,29.56-23.83,29.56,10.97-19.89,35.44-33.8,63.87-33.8Z"/></g><path class="t" d="M801.89,998.13c-.89,0-1.78,0-2.68,0-56.4-.32-111.96-9.76-133.72-15.63-41.75-11.27-94.55-34.47-108.98-80.98l5.1-1.58c.51,1.64,1.07,3.25,1.68,4.83,15.81,41,64.64,62.06,103.6,72.58,21.51,5.81,76.46,15.14,132.36,15.45,.85,0,1.71,0,2.57,0,49.56,0,97.71-8.01,116.51-12.31,45.93-10.53,103.78-33.04,118.52-80.55l5.1,1.58c-15.5,49.93-75.13,73.33-122.43,84.17-20.39,4.67-67.76,12.45-117.62,12.45Z"/><path class="t" d="M1039.29,904.76c-23.91,0-37.45-14.33-37.45-14.33,29.03,10.55,44.24,13.65,68.19-.88,0,0-11.46,15.21-30.75,15.21Z"/><g><g><path class="ab" d="M1049.66,479.84c96.82-5.78,141.78,124.4,126.7,188.19-14.89,63-150.09,78.45-211.11,30.41-37.67-29.65-6.52-213.17,84.41-218.61Z"/><path class="t" d="M1117.63,505.73s-20.96-26.14-61.21-26.14-54.89,26.77-54.89,26.77c17.79-17.23,39.37-22.02,56.03-21.75,31.97,.52,59.69,20.79,60.07,21.12Z"/><path d="M1050.04,518.87c96.82-4.66,141.39,109.2,126.32,160.58-14.89,50.74-150.09,63.18-211.11,24.49-37.67-23.88-6.14-180.69,84.79-185.07Z"/><path class="d" d="M1050.42,526.98c94.25-4.48,137.64,104.94,122.96,154.31-14.49,48.76-146.1,60.71-205.51,23.54-36.67-22.95-5.97-173.64,82.54-177.85Z"/><path class="g" d="M1174.64,641.43c2.39,14.97,2,28.9-1.25,39.86-14.49,48.76-146.1,60.71-205.51,23.54-11.62-7.27-16.45-27.39-14.85-51.59,58.02,47.15,168.32,31.22,221.61-11.81Z"/><path d="M966.47,707.08c-16.83-10.53-21.3-45.72-10.87-85.58,11.87-45.38,42.98-94.74,94.7-97.19,47.92-2.28,78.64,23.68,96.02,45.84,25.99,33.17,38.74,81.28,29.64,111.89-4.34,14.58-18.56,26.8-41.12,35.33-20.21,7.64-46.82,11.9-74.04,11.9-34.38,0-69.73-6.8-94.32-22.19Zm84.09-177.44h0c-48.83,2.32-78.4,49.67-89.79,93.21-9.69,37.03-6.1,70.55,8.54,79.7,42.71,26.73,119.1,26.66,163.64,9.82,20.95-7.92,34.05-18.93,37.89-31.86,7.36-24.75-.21-70.69-28.72-107.08-15.91-20.31-43.56-43.93-86.01-43.93-1.82,0-3.67,.04-5.55,.13Z"/></g><g><g><path class="h" d="M1065.93,579.57c-24.41-1.08-45.2,25.67-46.45,59.76-1.23,34.08,17.55,62.6,41.94,63.69,24.41,1.09,45.2-25.67,46.45-59.76,1.24-34.09-17.54-62.61-41.94-63.69Z"/><path class="k" d="M1052.48,666.9c-12.65-3.17-24.38-11.28-32.83-20.4,.62,30.26,19.94,55.53,41.99,56.52,22.91,1.02,44.54-26.02,46.14-57.85-12.81,16.57-35.03,24.5-55.31,21.74Z"/><path class="f" d="M1061.3,705.69c-25.82-1.15-45.78-30.96-44.49-66.45,.76-20.56,8.68-39.72,21.19-51.26,8.33-7.68,18-11.53,28.05-11.07h0c25.83,1.15,45.78,30.96,44.48,66.45-.75,20.56-8.67,39.72-21.18,51.26-7.75,7.15-16.69,10.96-25.95,11.1-.7,.01-1.4,0-2.1-.03Zm4.51-123.45c-8.57-.36-16.93,2.96-24.2,9.66-11.49,10.59-18.77,28.36-19.48,47.53-1.18,32.57,16.49,59.9,39.4,60.93,8.63,.42,16.93-2.97,24.2-9.66,11.49-10.59,18.77-28.37,19.47-47.53,1.19-32.58-16.48-59.91-39.39-60.93h0Z"/></g><path d="M1065.13,608.72c-14.22-.64-26.37,15.8-27.12,36.71-.77,20.91,10.14,38.38,24.37,39.01,14.22,.63,26.37-15.81,27.13-36.71,.76-20.92-10.15-38.38-24.37-39.01Z"/><path class="d" d="M1062.78,609.11c-8.18-1.18-15.66,4.66-16.7,13.08-1.04,8.4,4.75,16.18,12.94,17.36,8.18,1.19,15.65-4.67,16.7-13.07,1.04-8.41-4.76-16.18-12.94-17.37Z"/><path class="d" d="M1050.13,660.87c-3.77-.54-7.2,2.15-7.69,6.01-.48,3.87,2.19,7.44,5.96,8,3.77,.54,7.21-2.15,7.68-6.02,.48-3.87-2.19-7.44-5.95-7.99Z"/></g></g><g><g><path class="ab" d="M548.43,479.58c-96.82-5.78-142.17,120.6-127.1,184.39,14.89,63,150.09,78.45,211.11,30.41,37.67-29.65,6.92-209.37-84.01-214.81Z"/><path class="t" d="M478.73,505.73s20.96-26.14,61.21-26.14,54.89,26.77,54.89,26.77c-17.79-17.23-39.37-22.02-56.03-21.75-31.97,.52-59.69,20.79-60.07,21.12Z"/><path d="M547.65,514.81c-96.82-4.66-141.39,109.2-126.32,160.58,14.89,50.74,150.09,63.18,211.11,24.49,37.67-23.88,6.14-180.69-84.79-185.07Z"/><path class="d" d="M547.26,522.92c-94.25-4.48-137.64,104.94-122.96,154.31,14.5,48.76,146.1,60.71,205.51,23.53,36.67-22.95,5.97-173.64-82.54-177.85Z"/><path class="g" d="M423.05,637.37c-2.39,14.97-2,28.9,1.25,39.86,14.5,48.76,146.1,60.71,205.51,23.53,11.62-7.27,16.45-27.39,14.85-51.59-58.02,47.15-168.32,31.22-221.61-11.81Z"/><path d="M536.9,725.22c-27.22,0-53.83-4.26-74.04-11.9-22.57-8.53-36.79-20.75-41.12-35.33-9.1-30.62,3.64-78.72,29.64-111.89,17.37-22.17,48.09-48.12,96.02-45.84,51.72,2.46,82.83,51.82,94.7,97.19,10.43,39.86,5.96,75.05-10.87,85.58-24.59,15.39-59.94,22.19-94.32,22.19Zm4.69-199.76c-42.46,0-70.1,23.63-86.01,43.93-28.51,36.39-36.08,82.33-28.72,107.08,3.84,12.93,16.94,23.94,37.89,31.86,44.54,16.83,120.93,16.9,163.64-9.82,14.63-9.16,18.22-42.68,8.54-79.7-11.39-43.54-40.96-90.89-89.79-93.21h0c-1.88-.09-3.73-.13-5.55-.13Z"/></g><g><g><path class="h" d="M531.75,575.51c24.41-1.08,45.2,25.67,46.45,59.76,1.24,34.08-17.55,62.6-41.94,63.69-24.41,1.09-45.2-25.67-46.45-59.76-1.24-34.09,17.54-62.61,41.94-63.69Z"/><path class="k" d="M545.21,662.84c12.65-3.17,24.38-11.28,32.83-20.4-.62,30.26-19.94,55.53-41.99,56.52-22.91,1.02-44.54-26.02-46.14-57.85,12.81,16.57,35.03,24.5,55.31,21.74Z"/><path class="f" d="M534.28,701.66c-9.27-.14-18.2-3.95-25.95-11.1-12.51-11.54-20.43-30.7-21.18-51.26-1.3-35.49,18.66-65.3,44.48-66.45h0c10.05-.46,19.72,3.38,28.05,11.07,12.51,11.53,20.43,30.7,21.19,51.26,1.29,35.49-18.67,65.3-44.49,66.45-.7,.03-1.4,.04-2.1,.03Zm-2.41-123.48c-22.91,1.02-40.58,28.35-39.39,60.93,.7,19.16,7.98,36.93,19.47,47.53,7.26,6.69,15.57,10.08,24.2,9.66,22.9-1.02,40.58-28.36,39.4-60.93-.71-19.17-7.99-36.94-19.48-47.53-7.26-6.7-15.63-10.02-24.2-9.66h0Z"/></g><path d="M532.55,604.66c14.22-.64,26.37,15.8,27.12,36.71,.77,20.91-10.14,38.38-24.37,39.01-14.22,.63-26.37-15.81-27.13-36.71-.76-20.92,10.15-38.38,24.37-39.01Z"/><path class="d" d="M534.9,605.05c8.18-1.18,15.66,4.66,16.7,13.08,1.04,8.4-4.75,16.18-12.94,17.36-8.18,1.19-15.65-4.67-16.7-13.07-1.04-8.41,4.76-16.18,12.94-17.37Z"/><path class="d" d="M547.56,656.82c3.77-.54,7.2,2.15,7.69,6.01,.48,3.87-2.19,7.44-5.96,8-3.77,.54-7.21-2.15-7.69-6.02-.48-3.87,2.19-7.44,5.95-7.99Z"/></g></g><g><path class="p" d="M1099.86,1879.21c.89-176.12,35.14-461.21,69.83-527.93-92.07-72.5-238.33-84.28-269.97-101.06-14.67,29.68-49.81,49.78-100.06,51.11-46.13-.67-85.39-21.01-100.06-50.69-31.64,16.78-177.9,28.56-269.97,101.06,34.69,66.71,68.94,351.8,69.83,527.93,.6,119.13-7.12,161.89-7.12,161.89l305.22,15.92v.09l.83-.04,.84,.04v-.09l307.75-16.34s-7.72-42.76-7.12-161.89Z"/><path class="l" d="M706.79,1262c-2.8-3.61-5.23-7.39-7.19-11.36-31.64,16.78-177.9,28.56-269.97,101.06l10.89,16.47c82.04-71.61,222.29-81.96,266.26-106.18Z"/><path class="i" d="M794.89,2060.34v-.36l-305.71-15.95,.53-2.98c.08-.43,7.67-44.03,7.08-161.4-.88-173.29-34.75-459.83-69.53-526.72l-1.02-1.96,1.74-1.37c64.85-51.07,155.8-72.09,215.98-86,25.24-5.83,45.18-10.44,54.39-15.33l2.43-1.29,1.22,2.46c14.46,29.24,52.81,48.56,97.7,49.21,47.03-1.25,82.66-19.34,97.63-49.63l1.22-2.46,2.42,1.28c9.2,4.88,29.14,9.49,54.39,15.33,60.18,13.91,151.13,34.93,215.98,86l1.74,1.37-1.02,1.96c-34.77,66.88-68.65,353.42-69.52,526.71-.59,117.38,6.99,160.98,7.07,161.41l.54,2.98-308.24,16.37v.27l-3.64-.09-3.37,.18Zm-299.46-21.33l303.14,15.81,.52-.04,304.8-16.18c-1.66-11.64-7.21-58.38-6.7-159.4h0c.87-172.2,34.4-456.21,69.13-527.16-63.81-49.36-152.98-69.97-212.17-83.65-23.67-5.47-42.74-9.88-53.26-14.62-16.52,30.7-53.2,48.96-101.17,50.24-45.79-.66-85.13-20.13-101.3-49.82-10.51,4.75-29.59,9.16-53.27,14.63-59.19,13.68-148.36,34.29-212.16,83.65,34.73,70.95,68.26,354.96,69.13,527.16,.51,101.01-5.04,147.75-6.7,159.39Z"/></g><g><g><path class="a`" d="M689.82,1776.43c-37.19-112.29-143.19-206.57-214.79-218.51,14.21,105.52,23.97,228.78,24.44,321.71,.6,119.13-7.12,161.89-7.12,161.89l187.96,9.81c16.14-51.1,44.78-168.42,9.52-274.9Z"/><path class="y" d="M520.81,1886.33c-.47-92.93-16.46-227.74-45.78-328.4,14.21,105.52,23.97,228.78,24.44,321.71,.6,119.13-7.12,161.89-7.12,161.89l21.35-.11s7.72-35.95,7.12-155.08Z"/><path class="af" d="M682.23,2054.11l-193.04-10.07,.53-2.98c.08-.43,7.67-44.03,7.08-161.4-.45-89.76-9.81-212.9-24.41-321.37l-.48-3.58,3.57,.59c72.05,12.01,178.85,105.43,216.89,220.3,35.97,108.6,5.34,229.57-9.5,276.54l-.62,1.97Zm-186.8-15.09l182.95,9.55c14.89-47.81,43.9-165.64,8.91-271.29-36.82-111.17-138.66-201.87-209.13-216.06,14.35,107.78,23.52,229.44,23.97,318.4,.51,101.01-5.04,147.75-6.7,159.39Z"/></g><g><path class="a`" d="M1099.86,1879.21c.47-92.93,10.23-216.19,24.44-321.71-71.61,11.93-177.6,106.21-214.79,218.51-35.3,106.6-6.56,224.07,9.57,275.07l187.9-9.98s-7.72-42.76-7.12-161.89Z"/><path class="j" d="M1099.86,1879.21c.47-92.93,10.23-216.19,24.44-321.71-50.21,86.89-75.54,210.52-76.01,303.45-.51,100.32,9.03,166.5,9.75,182.76l48.93-2.61s-7.72-42.76-7.12-161.89Z"/><path class="af" d="M917.16,2053.86l-.62-1.97c-14.87-46.99-45.56-168.02-9.56-276.71,38.04-114.86,144.84-208.29,216.89-220.3l3.56-.59-.48,3.58c-14.6,108.44-23.96,231.58-24.41,321.36-.59,117.38,6.99,160.98,7.07,161.41l.54,2.98-192.99,10.25Zm204.01-493.06c-70.47,14.18-172.31,104.88-209.13,216.06-35.01,105.73-5.95,223.63,8.96,271.46l182.89-9.71c-1.66-11.64-7.21-58.38-6.7-159.4h0c.45-88.99,9.62-210.65,23.98-318.4Z"/></g></g><g><g><path class="p" d="M433.01,1351.41c-48.75,39.51-111.83,120.28-179.05,205.19-62.17,78.53-119.19,133.35-166.15,258.09,90.73,57.37,161.03,72.06,161.03,72.06,0,0,21.68-36.69,20.01-80.06,32.47-49.37,232.39-166.34,227.94-313.11l-63.79-142.18Z"/><path class="l" d="M270.86,1565.42c62.99-79.57,122.34-155.49,169.67-197.24l-7.52-16.77c-48.75,39.51-111.83,120.28-179.05,205.19-62.17,78.53-119.19,133.35-166.15,258.09,20.05,12.68,39.09,23.26,56.61,32.08-12.65-6.84-25.94-14.55-39.71-23.25,46.95-124.75,103.98-179.56,166.15-258.09Z"/><path class="v" d="M494.24,1494.93c-5.53,103.62-194.86,220.03-234.5,269.74-.99,1.24-6.89-18.46-16.52-30.64,19.89,70.11-22.45,121.79-39.18,138.84,27.89,10.35,44.8,13.89,44.8,13.89,0,0,21.68-36.69,20.01-80.06,32.47-49.37,229.83-165,225.38-311.77h0Z"/><path class="i" d="M250.17,1889.75l-1.87-.39c-.71-.15-71.82-15.44-161.91-72.41l-1.84-1.16,.77-2.03c38.87-103.29,85.27-159.61,134.38-219.23,10.46-12.7,21.28-25.84,32.17-39.59,10.75-13.58,21.31-27.05,31.67-40.26,55.4-70.65,103.24-131.67,144.42-165.05l6.71,1.56-3.35,2.59c-40.72,33-88.39,93.8-143.58,164.19-10.36,13.21-20.93,26.69-31.68,40.28-10.92,13.79-21.76,26.94-32.23,39.67-48.5,58.88-94.33,114.51-132.74,215.68,80.18,50.34,144.66,67.29,156.4,70.1,4.1-7.64,20.13-40.03,18.71-76.9l-.03-.85,.47-.71c9.06-13.78,30.16-32.09,56.89-55.28,69.21-60.06,173.81-150.82,170.62-256.29,0,0,5.56,27.05-1.41,52.31-24.17,85.19-107.37,157.39-165.71,208.01-25.95,22.51-46.53,40.38-55.46,53.48,1.37,43.26-19.52,79.13-20.41,80.65l-.97,1.65Z"/></g><path class="i" d="M266.2,1806.89c-.87-11.67-8.73-49.23-22.97-72.87,0,0,14.15,17.08,20.95,37.15,4.39,15.19,6.87,28.97,7.35,35.33l-5.32,.4Z"/><g><path class="a`" d="M103.45,1776.43c-24.57,56.79-121.46,296.45-96.77,443,24.02,113.86,74.63,217.71,125.34,222.38,50.7,4.67,99.49-70.05,84.14-111.41-15.34-21.35-119.42-98.74-119.42-129.42s150.01-283.68,164.6-343.49c-36.73-76.59-157.89-81.05-157.89-81.05Z"/><path class="y" d="M123.51,1778.41c-12.24-1.68-20.06-1.97-20.06-1.97-24.57,56.79-121.46,296.45-96.77,443,1.16,5.49,2.4,10.95,3.68,16.39-24.2-144.55,86.53-396.02,113.16-457.41Z"/><path class="j" d="M132.08,2312.93c19.2,13.29,13.53,39.81,2.88,54.68,19.15-10.67,30.81-43.51,31.82-46.22-9.04-6.71-34.71-8.46-34.71-8.46Z"/><path class="j" d="M96.73,2200.97c0-30.69,150.01-283.68,164.6-343.49-6.09-12.69-14.52-23.36-24.3-32.39-18.36,64.98-164.3,324.18-163.5,389.47,0,30.69,102.81,82.71,118.16,104.05,23.14,43.02-15.57,99.98-66.27,95.31-50.7-4.67-94.73-80.63-118.75-194.49,24.02,113.86,74.63,217.71,125.34,222.38,50.7,4.67,99.49-70.05,84.14-111.41-15.34-21.35-119.42-98.74-119.42-129.42Z"/><path class="af" d="M136.44,2444.68c-1.57,0-3.13-.07-4.68-.21-56.3-5.19-105.66-120-127.7-224.49-25.45-151.09,76.28-396.87,96.94-444.61l.72-1.67,1.82,.07c5.01,.18,123.19,5.41,160.2,82.57l.41,.86-.23,.92c-7.46,30.58-49.11,109.54-89.38,185.89-36.94,70.04-75.14,142.46-75.14,156.97,0,19.26,46.66,60.84,80.74,91.2,18.38,16.38,32.89,29.31,38.18,36.67l.33,.63c7.85,21.17-.22,52.83-20.11,78.78-17.69,23.09-40.59,36.43-62.11,36.43Zm-31.28-665.48c-22.11,51.38-120.75,292-95.85,439.78,26.02,123.36,77.74,216,122.95,220.17,20.98,1.94,44.2-10.83,62.06-34.14,18.7-24.41,26.49-53.82,19.46-73.35-5.15-6.96-20.01-20.2-37.19-35.5-36.77-32.76-82.52-73.53-82.52-95.19,0-15.82,35.11-82.39,75.76-159.46,39.72-75.3,80.77-153.13,88.68-183.74-33.64-68.39-138.26-77.6-153.35-78.58Z"/></g><path class="af" d="M134.96,2367.61c32.38-23.86,35.98-77.29,36.01-77.83l5.33,.32c-.11,1.87-2.55,38.37-22.22,65.49-8.98,10.99-19.12,12.01-19.12,12.01Z"/><g><path class="a`" d="M69.59,2219.88c19.12-21.35,48.71-25.35,72.29-2.67,23.57,22.68,17.23,40.47,48.03,50.7,31.23,10.37,65.45,30.37,56.04,54.71-17.46,45.14-76.92-9.59-112.69-7.92l-63.67-94.82Z"/><path class="j" d="M189.91,2267.91c31.23,10.37,48.92,27.8,40.92,44.48-14.6,29.8-57.87-22.35-97.57,2.31,35.78-1.67,95.24,53.06,112.69,7.92,9.41-24.34-24.81-44.33-56.04-54.71Z"/><path class="af" d="M222.3,2342.62c-13.5,0-29.71-7.19-45.5-14.19-15.84-7.03-32.21-14.27-44.67-13.72,0,0,10.14-5.33,22.13-1.26,8.05,2.71,16.45,6.43,24.7,10.09,19.37,8.59,39.41,17.47,52.34,12.12,5.4-2.23,9.37-6.82,12.16-14.02,2.09-5.4,1.87-10.64-.67-16.02-6.07-12.88-26.15-26.03-53.73-35.19-19.58-6.5-25.07-16.21-31.42-27.45-4.02-7.1-8.57-15.16-17.62-23.87-10.77-10.37-24.04-15.84-37.22-15.31-12.56,.46-24.36,6.17-33.21,16.06,0,0,6.63-15.73,20.01-19.18,4.19-1.3,8.55-2.05,13-2.21,14.72-.59,29.3,5.41,41.12,16.8,9.61,9.25,14.37,17.66,18.57,25.09,6.29,11.12,10.83,19.15,28.46,25.01,13.89,4.61,47.24,17.55,56.87,37.98,3.15,6.68,3.42,13.48,.82,20.22-3.29,8.52-8.37,14.24-15.09,17.02-3.4,1.41-7.11,2.02-11.04,2.02Z"/></g></g><g><g><path class="p" d="M1215.5,2827.44c-9.78-83.61,2.67-146.77-7.12-283.76-9.68-135.52-85.53-413.83-100.93-499.86-.16-.91-297.2,17.89-308.23,17.74v-.03s-.09,.02-.17,.02c-.09,0-.17,0-.17-.02v.03c-11,.16-306.85-18.24-307.02-17.33-15.4,86.03-91.25,364.34-100.93,499.86-9.78,136.99,2.67,200.14-7.12,283.76-2.45,20.91-4.89,57.64-6.92,101.9-2.27,49.71,154.13,67.11,202.76,6.42,14.41-52.79,29.57-106.99,44.77-159.47,57.23-197.63,147.72-366.19,148.54-372.33,13.35,1.6,32.93,1.21,48.9-.53,.82,6.14,95.78,174.81,153.01,372.44,15.2,52.48,30.35,106.68,44.77,159.47,48.63,60.69,205.04,43.29,202.76-6.42-2.02-44.26-4.47-80.99-6.92-101.9Z"/><path class="l" d="M1040.07,2929.15c-14.01-60.38-28.41-107.52-43.6-160-32.15-111.01-86.36-206.23-127.86-269.46,32.31,68.92,74.94,168.38,106.28,276.6,15.2,52.48,30.35,106.68,44.77,159.47l20.41-6.61Z"/><path class="l" d="M402.39,2940.83c-4.78-60.04,6.9-125.64,9.35-146.55,.7-5.95,24.35,51.15,86.83,42.48-140.99-37.8-46.34-190.34-23.81-203.94-56.69,22.47-59.58,67.65-59.78,59.38-.87-34.96,.61-76.29,3.13-146.31,5.52-153.44,84.42-411.74,99.82-497.77,.16-.91,269.96,13.61,280.96,13.46-11,.16-306.85-18.24-307.02-17.33-15.4,86.03-91.25,364.34-100.93,499.86-9.78,136.99,2.67,200.14-7.12,283.76-2.45,20.91-4.89,57.64-6.92,101.9-.76,16.59,16.21,29.56,40.91,37.25-10.03-6.48-15.93-15.29-15.43-26.18Z"/><path class="v" d="M724.51,2372.43c-.82,6.14-79.53,182.64-136.76,380.27-15.2,52.48-42.96,135.35-57.37,188.13-14.85,18.53-35.15,29.31-56.12,33.98,40.83-.12,83.79-11.63,105.42-38.63,14.41-52.79,29.57-106.99,44.77-159.47,57.23-197.63,147.72-366.19,148.54-372.33,13.35,1.6,32.93,1.21,48.9-.53-15.97,1.74-84.01-29.82-97.36-31.43Z"/><path class="v" d="M1222.42,2929.34c-2.02-44.26-4.47-80.99-6.92-101.9-9.78-83.61,2.67-146.77-7.12-283.76-9.68-135.52-85.53-413.83-100.93-499.86-.16-.91-69.56,12.81-69.39,13.72,14.78,82.6,135.01,406.95,126.76,601.09-12.16-8.74-15.97-16.23-40.26-26.23,72.38,90.94,51.6,183-23.81,203.94,13.2,2.16,42.94-.76,63.84-18.04-.89,25.13,24.9,72.27,15.27,148.82,25.6-7.62,43.32-20.81,42.54-37.78Z"/><path class="i" d="M474.2,2977.57c-23.88,0-46.87-3.84-64.36-10.44-23.65-8.92-36.3-22.23-35.6-37.5,2.08-45.4,4.54-81.66,6.93-102.09,4.78-40.88,4.22-77.16,3.58-119.18-.68-44.35-1.46-94.61,3.53-164.44,6.61-92.61,44.4-253.23,72-370.51,12.92-54.91,24.07-102.33,28.96-129.64q.47-2.65,51.92,.3c29.41,1.68,68.52,4,107.39,6.3,70.7,4.19,143.78,8.52,150.14,8.52h.15l.04,2.64,.29-2.65-.04,2.65h.09l.04-2.64h.13c6.25,0,79.82-4.44,150.98-8.74,38.99-2.35,78.2-4.72,107.67-6.44q51.57-3.01,52.04-.36c4.89,27.32,16.05,74.75,28.97,129.68,27.59,117.27,65.37,277.87,71.99,370.46,4.99,69.84,4.21,120.1,3.53,164.44-.65,42.02-1.21,78.3,3.58,119.19h0c2.39,20.45,4.85,56.71,6.93,102.09,.7,15.26-11.95,28.58-35.6,37.5-47.6,17.95-136.02,15.48-171.91-29.29l-.49-.96c-15.49-56.72-30.55-110.36-44.76-159.43-46.4-160.23-116.76-299.67-143.26-352.16-5.33-10.56-7.83-15.56-8.96-18.15-15.71,1.57-33,1.78-45.32,.54-1.11,2.65-3.58,7.79-8.86,18.72-25.35,52.48-92.7,191.89-138.92,351.47-14.25,49.2-29.31,102.83-44.76,159.43l-.49,.96c-22.7,28.33-66.44,39.72-107.56,39.73Zm19.9-930.66c-5.1,27.74-16.03,74.18-28.62,127.72-27.55,117.1-65.29,277.49-71.87,369.66-4.97,69.61-4.2,119.75-3.52,163.99,.65,42.21,1.21,78.66-3.61,119.89-2.38,20.31-4.83,56.43-6.9,101.71-.79,17.23,19.8,27.61,32.15,32.26,44.84,16.92,131.4,14.66,165.52-27.2,15.41-56.43,30.42-109.91,44.63-158.97,46.34-160.02,113.83-299.72,139.24-352.31,4.97-10.29,8.9-18.42,9.25-19.77l.35-2.61,2.59,.45c12.56,1.51,31.5,1.3,48.29-.53l2.58-.28,.35,2.58c.33,1.18,4.29,9.03,9.31,18.97,26.55,52.61,97.08,192.37,143.62,353.08,14.17,48.94,29.19,102.42,44.64,158.97,34.11,41.86,120.66,44.11,165.51,27.21,12.35-4.66,32.94-15.04,32.16-32.27-2.07-45.26-4.53-81.38-6.91-101.71h0c-4.83-41.23-4.26-77.68-3.61-119.89,.68-44.24,1.46-94.38-3.52-163.99-6.58-92.16-44.31-252.53-71.86-369.62-12.6-53.56-23.53-100-28.63-127.76-13.27,.46-88.03,4.98-154.54,9-74.49,4.5-144.87,8.75-151.35,8.75h-.15l-2.81-.06c-14.27-.53-79.45-4.39-148.15-8.46-66.33-3.94-140.89-8.35-154.14-8.8Z"/></g><path class="i" d="M455.69,2834.29c-28.62-11.4-51.59-36.18-53.18-80.17-1.44-39.89,10.34-74.55,32.62-99.09,16.96-19.09,39.63-22.22,39.63-22.22-43.93,19.73-68.95,65-66.92,121.12,2.78,76.85,70.15,82.82,90.73,82.82,0,0-20.24,5.8-42.88-2.46Z"/><g><path class="a`" d="M381.79,2848.86c-4.45,53.64-8.5,153.23-9.53,246.74-1.05,95.1,.56,183.81-5.34,206.81-22.24,86.73-185.91,175.68-146.77,225.49,39.14,49.81,202.81,53.37,263.3,7.12,24.02-18.68,11.56-57.15,11.56-57.15,0,0,42.7-20.24,42.7-54.04s-60.49-67.6-51.59-120.97c4.4-26.38,60.41-251.14,121.37-466.87l-141.83,100.83-83.87-87.96Z"/><path class="y" d="M379.56,3314.59c11.83-32.19,8.56-116.76,9.61-211.87,.97-88.34,7.93-178.17,12.45-233.06l-19.83-20.79c-4.45,53.64-8.5,153.23-9.53,246.74-1.05,95.1,.56,183.81-5.34,206.81-22.24,86.73-185.91,175.68-146.77,225.49-20.46-36.47,128.51-129.29,159.4-213.32Z"/><path class="j" d="M486.12,3302.86c4.4-26.38,60.41-251.14,121.37-466.87l-56.71,40.31c-55,204.52-85.29,405.79-89.46,430.78-8.89,53.37,45.26,76.73,44.7,99.4-.67,27.02-23.02,17.35-23.02,17.35-23.79,22.46,7.56,73.83-22.35,93.73-59.38,39.52-168.45,46.71-231.93,18.98,50.28,41.41,197.95,41.89,254.72-1.53,24.02-18.68,11.56-57.15,11.56-57.15,0,0,42.7-20.24,42.7-54.04s-60.49-67.6-51.59-120.97Z"/><path class="af" d="M353.15,3570.42c-57.58,0-113.94-13.94-135.09-40.86-22.62-28.79,15.75-67.41,60.19-112.13,35.66-35.88,76.06-76.55,86.1-115.68,4.33-16.87,4.55-72.16,4.81-136.18,.09-22.28,.18-45.94,.45-70,.99-89.62,4.91-191.16,9.54-246.93l.49-5.92,86.37,90.59,146.12-103.89-2.06,7.29c-60.2,213.05-116.91,440.2-121.3,466.58-4.99,29.91,12.98,53.9,28.83,75.06,11.72,15.66,22.8,30.44,22.8,45.47,0,31.14-33.41,50.79-42.19,55.42,2.34,8.74,8.99,40.7-13.1,57.87-29.31,22.42-81.1,33.29-131.94,33.29Zm30.83-715.4c-4.41,56.72-8.09,154.2-9.05,240.62-.27,24.05-.36,47.69-.45,69.96-.27,67.03-.48,119.98-4.97,137.48-10.39,40.53-51.35,81.75-87.48,118.11-42.65,42.92-79.48,79.99-59.78,105.07,37.64,47.9,200.18,52.06,259.58,6.64,22.27-17.31,10.76-53.84,10.65-54.2l-.72-2.23,2.12-1.01c.41-.19,41.17-19.93,41.17-51.63,0-13.26-10.55-27.35-21.73-42.27-16.49-22.02-35.18-46.98-29.82-79.14,4.36-26.16,59.9-248.8,119.37-459.87l-137.54,97.78-81.35-85.32Z"/></g><path class="af" d="M492.47,3478.69c-2.7-8.45-5.14-14.6-7.29-20.03-1.35-3.41-2.57-6.47-3.61-9.52-4.8-16.07,1.43-25.3,1.43-25.3,0,14.85,2.69,21.63,7.14,32.85,2.18,5.51,4.66,11.75,7.41,20.37l-5.08,1.63Z"/><path class="i" d="M1100.76,2836.34c20.58,0,87.95-5.97,90.73-82.82,2.03-56.12-22.99-101.39-66.92-121.12,0,0,22.24,3.88,37.51,19.95,23.65,24.65,36.23,60.22,34.75,101.35-1.53,42.18-22.71,66.71-49.69,78.7-25.34,9.73-46.38,3.93-46.38,3.93Z"/><g><path class="a`" d="M1217.54,2848.44c4.45,53.64,8.5,153.23,9.53,246.74,1.05,95.1-.56,183.81,5.34,206.81,22.24,86.73,185.91,175.68,146.77,225.49-39.14,49.81-202.81,53.37-263.3,7.12-24.02-18.68-11.56-57.15-11.56-57.15,0,0-42.7-20.24-42.7-54.04s60.49-67.6,51.59-120.97c-4.4-26.38-60.41-251.14-121.37-466.87l141.83,100.83,83.87-87.96Z"/><path class="y" d="M1124.35,3302.86c-4.27-25.62-44.55-236.37-102.7-446.09l-29.81-21.2c60.96,215.72,116.97,440.49,121.37,466.87,8.89,53.37-51.59,87.17-51.59,120.97,0-33.8,71.63-67.18,62.73-120.55Z"/><path class="j" d="M1232.4,3302c-5.9-23.01-4.29-111.71-5.34-206.81-1.03-93.51-5.08-193.1-9.53-246.74l-39.08,40.99c6.13,54.54,19.15,134.44,20.06,216.84,1.05,95.1,8.44,191.81,14.34,214.82,22.24,86.73,155.42,150.24,132.54,190.8-19.57,34.69-128.98,55.71-195.18,40.49,76.05,17.48,195.83,17.27,228.96-24.89,39.14-49.81-124.53-138.76-146.77-225.49Z"/><path class="af" d="M1246.17,3570.01c-50.84,0-102.61-10.87-131.92-33.28-22.1-17.19-15.46-49.15-13.12-57.89-8.78-4.63-42.19-24.28-42.19-55.42,0-15.04,11.08-29.82,22.8-45.48,15.85-21.16,33.82-45.15,28.83-75.06-4.39-26.35-61.08-253.47-121.3-466.58l-2.06-7.29,146.11,103.89,86.38-90.59,.49,5.92c4.63,55.82,8.55,157.36,9.54,246.93,.27,24.11,.36,47.8,.45,70.12,.26,63.96,.48,119.2,4.8,136.07,10.03,39.13,50.44,79.79,86.1,115.67,44.43,44.72,82.81,83.34,60.19,112.13-21.16,26.93-77.52,40.87-135.1,40.87Zm-249.71-727.87c59.5,211.14,115.02,433.73,119.38,459.87,5.36,32.16-13.33,57.11-29.82,79.13-11.18,14.92-21.73,29.02-21.73,42.28,0,31.69,40.76,51.43,41.18,51.62l2.11,1.01-.72,2.23c-.11,.37-11.57,36.93,10.66,54.23,59.38,45.4,221.92,41.24,259.56-6.66,19.71-25.09-17.13-62.15-59.78-105.07-36.13-36.36-77.09-77.58-87.48-118.11-4.48-17.5-4.7-70.4-4.97-137.37-.09-22.3-.19-45.99-.45-70.08-.95-86.37-4.63-183.86-9.04-240.62l-81.35,85.32-137.54-97.78Z"/></g><path class="af" d="M1106.85,3478.27l-5.09-1.63c2.76-8.63,5.23-14.86,7.42-20.37,4.45-11.22,7.14-18,7.14-32.85,0,0,5.14,11.93,1.26,25.8-1,2.88-2.16,5.8-3.44,9.02-2.15,5.43-4.59,11.58-7.29,20.03Z"/><g><path class="a`" d="M1158.9,2270.09c-21.73-95.34-43.88-184.01-51.44-226.27-.16-.91-297.2,17.89-308.23,17.74v-.03s-.09,.02-.17,.02c-.09,0-.17,0-.17-.02v.03c-11,.16-306.85-18.24-307.02-17.33-7.56,42.26-29.71,130.93-51.44,226.27,31.99,10.55,91.49,31.61,147.63,59.34,76.02,37.54,107.43,73.55,182.49,80.29,9.84,1.48,37.85,1.48,54.08-.08,74.94-6.95,109.54-42.56,186.64-80.63,56.14-27.73,115.64-48.79,147.63-59.34Z"/><path class="y" d="M491.87,2044.24c-7.56,42.26-29.71,130.93-51.44,226.27,7.61,2.51,10.71,3.49,21.02,7.14,23.38-87.05,48.84-191.28,56.18-232.23-15.97-.88-25.73-1.35-25.76-1.18Z"/><path class="j" d="M1107.46,2043.82c-.04-.25-16.88-2.02-49.41-.11,9.72,49.79,23.16,114.9,23.16,176.6-6.86,32.68-23.05,56.41-79.17,84.18-76.42,37.81-106.57,88.38-231.49,105.64,6,1.1,37.85,1.48,54.08-.08,74.94-6.95,109.54-42.56,186.64-80.63,56.14-27.73,115.64-48.79,147.63-59.34-21.73-95.34-43.88-184.01-51.44-226.27Z"/><path class="af" d="M794.74,2413.92c-10.17,0-19.54-.38-24.58-1.14-52.08-4.68-83.22-23.26-122.64-46.78-17.35-10.35-37.01-22.08-60.63-33.75-56.43-27.87-116.5-49.05-147.29-59.2l-2.3-.76,.54-2.37c7.64-33.54,15.34-66.26,22.44-96.42,12.93-54.95,24.09-102.41,28.98-129.73q.47-2.65,51.92,.3c29.41,1.68,68.52,4,107.39,6.3,70.7,4.19,143.78,8.52,150.14,8.52h.15l.04,2.64,.29-2.65-.04,2.65h.09l.04-2.64h.13c6.25,0,79.82-4.44,150.98-8.74,38.99-2.35,78.2-4.72,107.67-6.44q51.57-3.01,52.04-.36c4.89,27.33,16.06,74.8,28.99,129.77,7.09,30.15,14.79,62.85,22.43,96.38l.54,2.37-2.31,.76c-30.81,10.16-90.93,31.37-147.28,59.2-22.95,11.34-42.51,22.67-59.77,32.67-41.72,24.19-74.67,43.29-127.81,48.22-8.3,.8-19.64,1.2-30.14,1.2Zm-351.17-145.18c31.55,10.47,90.33,31.39,145.67,58.72,23.82,11.76,43.58,23.55,61.01,33.96,38.84,23.18,69.51,41.48,120.54,46.07,9.9,1.49,37.88,1.43,53.59-.08,51.97-4.82,84.48-23.66,125.63-47.52,17.33-10.04,36.97-21.43,60.08-32.84,55.27-27.3,114.1-48.24,145.67-58.72-7.46-32.68-14.95-64.55-21.88-93.98-12.61-53.6-23.54-100.08-28.64-127.85-13.27,.46-88.03,4.98-154.54,9-74.49,4.5-144.87,8.75-151.35,8.75h-.15l-2.81-.06c-14.27-.53-79.45-4.39-148.15-8.46-66.33-3.94-140.89-8.35-154.14-8.8-5.1,27.76-16.04,74.23-28.64,127.81-6.93,29.44-14.42,61.31-21.89,94.02Z"/></g></g><g><path class="e" d="M1104.56,2002.5l-300.86,5.88-308.46-5.88s-9.23,42.03-9.23,59.37c41.14,12.68,314.09,31.74,314.09,31.74,0,0,271.99-19.84,313.13-32.51,0-17.35-8.67-58.59-8.67-58.59Z"/><path class="ae" d="M495.24,2002.5s-9.23,42.03-9.23,59.37c4.91,1.51,13.15,3.12,23.8,4.77,4.89-23.8,6.35-42.44,8.11-64.14h-22.69Z"/><path class="ad" d="M1113.23,2061.09c0-17.35-8.67-58.59-8.67-58.59l-53.11,1.04c-20.72,60-244.21,80.68-362.64,81.52,60.81,5.03,111.29,8.55,111.29,8.55,0,0,271.99-19.84,313.13-32.51Z"/><path class="m" d="M800.29,2096.27c-11.53-.78-274.1-19.23-315.07-31.85l-1.88-.58v-1.97c0-17.43,8.91-58.21,9.29-59.94l.47-2.14,310.65,5.92,302.96-5.92,.45,2.16c.35,1.69,8.73,41.72,8.73,59.14v1.97l-1.88,.58c-40.96,12.62-302.61,31.81-313.73,32.63Zm-311.57-36.4c46.32,12.45,308.88,30.89,311.57,31.07,2.3-.19,263.94-19.38,310.24-31.85-.51-15.4-6.45-45.57-8.14-53.88l-298.64,5.84-306.36-5.84c-1.78,8.37-8.12,39.18-8.67,54.66Z"/></g><g><path class="aa" d="M799.23,1975.95c-41.63,0-75.39,33.75-75.39,75.39s33.75,75.39,75.39,75.39,75.39-33.75,75.39-75.39-33.75-75.39-75.39-75.39Zm.87,117.66c-23.58,0-42.7-19.12-42.7-42.7s19.12-42.7,42.7-42.7,42.7,19.12,42.7,42.7-19.12,42.7-42.7,42.7Z"/><path class="w" d="M804.57,1984.95c25.66,0,48.29,12.84,61.91,32.43-12.43-24.56-37.84-41.44-67.24-41.44-41.63,0-75.39,33.75-75.39,75.39,0,15.98,5,30.77,13.48,42.96-5.17-10.21-8.14-21.72-8.14-33.95,0-41.63,33.75-75.39,75.39-75.39Z"/><path class="s" d="M848.83,1993.81c14.13,15.66,18.93,37.51,15.84,60.04-5.57,40.55-39.51,65.89-80.06,60.32-22.54-3.1-42.12-13.33-53.39-31.16,10.58,22.09,31.67,38.63,57.75,42.21,41.25,5.67,79.28-23.18,84.94-64.43,3.58-26.08-6.66-50.85-25.08-66.99Z"/><path class="ac" d="M799.23,2129.39c-43.04,0-78.06-35.01-78.06-78.06s35.01-78.06,78.06-78.06,78.06,35.01,78.06,78.06-35.01,78.06-78.06,78.06Zm0-150.77c-40.1,0-72.72,32.62-72.72,72.72s32.62,72.72,72.72,72.72,72.72-32.62,72.72-72.72-32.62-72.72-72.72-72.72Zm.87,117.66c-25.01,0-45.37-20.35-45.37-45.37s20.35-45.37,45.37-45.37,45.37,20.35,45.37,45.37-20.35,45.37-45.37,45.37Zm0-85.39c-22.07,0-40.03,17.96-40.03,40.03s17.96,40.03,40.03,40.03,40.03-17.96,40.03-40.03-17.96-40.03-40.03-40.03Z"/></g><g><path class="p" d="M1166.32,1350.45c48.75,39.51,111.83,120.81,179.05,205.72,62.17,78.53,119.2,133.35,166.15,258.09-90.73,57.37-161.03,72.06-161.03,72.06,0,0-21.68-36.69-20.01-80.06-32.47-49.37-229.72-166.26-225.27-313.03l61.12-142.79Z"/><path class="v" d="M1511.52,1814.27c-46.95-124.75-103.98-179.56-166.15-258.09,90.97,101.74,100.98,167.35,139.5,263.75,0,0,6.4,4.55,26.65-5.66Z"/><path class="v" d="M1105.2,1493.25c-4.41,145.56,189.46,261.68,224.34,311.75,1.83-16.71,2.67-21.57,12.42-43.5-48.42-33.8-214.53-138.93-236.76-268.25Z"/><path class="i" d="M1349.16,1889.34l-.97-1.65c-.9-1.51-21.78-37.39-20.41-80.65-8.92-13.1-29.52-30.97-55.46-53.48-58.22-50.52-141.2-122.53-165.56-207.5-7.65-28.9-1.56-52.81-1.56-52.81-3.19,105.47,101.4,196.22,170.61,256.29,26.72,23.19,47.83,41.5,56.89,55.28l.47,.71-.03,.85c-1.42,36.93,14.6,69.28,18.71,76.9,11.73-2.81,76.22-19.76,156.41-70.11-38.41-101.16-84.24-156.8-132.73-215.67-10.48-12.73-21.32-25.88-32.24-39.67-10.77-13.61-21.35-27.1-31.73-40.33-55.18-70.37-102.83-131.15-143.54-164.15l-4.26-3.28,7.62-.87c41.19,33.37,89.01,94.37,144.39,165,10.37,13.22,20.94,26.71,31.7,40.31,10.89,13.75,21.71,26.89,32.18,39.6,49.11,59.62,95.5,115.93,134.38,219.22l.77,2.03-1.84,1.16c-90.1,56.97-161.21,72.27-161.92,72.42l-1.87,.39Z"/></g><path class="i" d="M1333.13,1806.47l-5.33-.4c.48-6.36,2.96-20.16,7.36-35.37,6.79-22.5,20.94-37.11,20.94-37.11-14.25,23.64-22.1,61.2-22.97,72.87Z"/><g><path class="a`" d="M1495.88,1776.01c24.57,56.79,121.46,296.45,96.77,443-24.02,113.86-74.63,217.71-125.34,222.38-50.7,4.67-99.49-70.05-84.14-111.41,15.34-21.35,119.42-98.74,119.42-129.42s-150.01-283.68-164.6-343.49c36.73-76.59,157.89-81.05,157.89-81.05Z"/><path class="y" d="M1510.84,2203.2c0-40.58-137.45-285.4-163.89-363.15-5.59,6.61-5.04,8.85-8.96,17.01,14.59,59.81,164.6,312.8,164.6,343.49s-104.07,108.08-119.42,129.42c15.34-21.35,127.67-96.09,127.67-126.78Z"/><path class="j" d="M1467.2,2312.05c-9,5.5-27.77,22.68-7.33,52.7-17.57-13.9-28.19-38.03-28.69-44.2,9.01-7.67,36.02-8.51,36.02-8.51Z"/><path class="j" d="M1495.88,1776.01s-6.39-.86-26.72,2.96c21.59,59.68,122.94,291.52,98.61,436.01-24.02,113.86-60.49,198.94-103.4,203.7-40.74,4.52-78.43-28.92-83.58-63.71,4.73,40.76,44.97,90.25,86.52,86.42,50.7-4.67,101.32-108.52,125.34-222.38,24.68-146.55-72.2-386.21-96.77-443Z"/><path class="af" d="M1462.89,2444.26c-21.52,0-44.42-13.33-62.11-36.43-19.88-25.95-27.96-57.61-20.11-78.79l.33-.63c5.29-7.35,19.81-20.29,38.18-36.67,34.07-30.36,80.73-71.94,80.73-91.2,0-14.51-38.2-86.93-75.15-156.97-40.27-76.36-81.92-155.31-89.38-185.89l-.23-.92,.41-.86c37.01-77.15,155.19-82.38,160.2-82.56l1.82-.07,.72,1.67c20.65,47.74,122.39,293.5,96.95,444.5-22.06,104.59-71.43,219.41-127.72,224.6-1.55,.14-3.11,.21-4.68,.21Zm-77.34-113.02c-7.03,19.52,.77,48.94,19.47,73.34,17.86,23.31,41.02,36.11,62.06,34.14,45.21-4.16,96.92-96.8,122.97-220.27,24.88-147.69-73.76-388.3-95.87-439.68-15.09,.97-119.72,10.18-153.36,78.57,7.91,30.61,48.97,108.44,88.68,183.74,40.65,77.08,75.76,143.64,75.76,159.46,0,21.66-45.76,62.42-82.52,95.19-17.17,15.3-32.04,28.55-37.19,35.5Z"/></g><path class="af" d="M1443.28,2352.36c-17.86-26.76-20.14-60.86-20.25-62.67l5.33-.32c.03,.54,3.63,53.97,36.02,77.83,0,0-11.68-1.33-21.09-14.84Z"/><g><path class="a`" d="M1529.74,2219.46c-19.12-21.35-48.72-25.36-72.29-2.67-23.57,22.68-17.23,40.47-48.03,50.7-31.23,10.37-65.45,30.37-56.04,54.71,17.46,45.14,78.04-9.57,113.82-7.9l62.54-94.84Z"/><path class="y" d="M1415.33,2275.69c30.8-10.23,23.96-28.35,47.53-51.04,23.57-22.68,43.72-19.72,66.88-5.2-19.13-21.35-48.72-25.36-72.29-2.67-23.57,22.68-17.23,40.47-48.03,50.7-31.23,10.37-65.45,30.37-56.04,54.71-9.41-24.34,30.73-36.13,61.95-46.5Z"/><path class="j" d="M1353.95,2304.5c-2.51,5.56-2.97,11.48-.57,17.69,17.46,45.14,78.04-9.57,113.82-7.9-38.72-22.07-100.01,38.12-113.25-9.79Z"/><path class="af" d="M1377.03,2342.2c-3.94,0-7.65-.61-11.05-2.02-6.72-2.78-11.8-8.51-15.09-17.02-2.61-6.74-2.33-13.54,.82-20.22,9.63-20.43,42.98-33.37,56.87-37.99,17.63-5.85,22.17-13.89,28.45-25,4.2-7.43,8.95-15.84,18.57-25.09,11.82-11.37,26.37-17.27,41.12-16.8,4.49,.17,8.89,.93,13.12,2.25,17.24,6.44,19.9,19.14,19.9,19.14-8.87-9.89-20.66-15.59-33.22-16.06-13.28-.41-26.45,4.95-37.22,15.31-9.05,8.71-13.61,16.76-17.62,23.87-6.35,11.24-11.84,20.94-31.42,27.44-27.57,9.16-47.65,22.31-53.73,35.19-2.54,5.38-2.75,10.62-.66,16.02,2.78,7.2,6.76,11.79,12.15,14.02,12.94,5.37,32.97-3.53,52.33-12.12,6.91-3.06,13.91-6.17,20.73-8.69,19.95-6.06,26.11-.15,26.11-.15-12.47-.53-28.83,6.69-44.68,13.71-15.79,7.01-31.99,14.19-45.49,14.19Z"/></g><g><path class="aa" d="M865.19,1424.2c-5.34,.89-167.67,95.29-189.47,104.96,9.78,4.45,166.34,96.51,166.34,96.51l-120.1,79.61,201.94-64.93s-164.6-104.96-160.13-108.52c4.47-3.56,101.43-107.63,101.43-107.63Z"/><g><path class="w" d="M721.96,1705.29l135.16-72.84s-6.65-3.11-17.26-8.07c1.39,.82,2.21,1.3,2.21,1.3l-120.1,79.61Z"/><path class="w" d="M675.72,1529.16c1.94,.88,9.67,5.22,20.74,11.57,20.27-15.04,54.88-44.11,86.56-70.97-45.81,25.97-95.88,54.33-107.3,59.4Z"/></g><g><path class="s" d="M763.76,1531.83c4.47-3.56,101.43-107.63,101.43-107.63-1.82,.3-21.9,11.48-48.42,26.46-20.83,30.79-52.84,77.77-55.83,80.16-.96,.77,1.99,1.68,2.83,1.02Z"/><path class="s" d="M923.9,1640.35s-9.39-5.99-23.54-15.1l-178.39,80.04,201.94-64.93Z"/></g><path class="ac" d="M704.37,1713.75l132.66-87.93c-23.7-13.93-153.69-90.26-162.41-94.22l-5.41-2.46,5.43-2.41c11.39-5.06,62.77-34.18,108.1-59.87,60.26-34.15,79.44-44.86,82.01-45.29l11.89-6.32-9.5,10.77c-9.32,10.01-86.72,93.05-99.98,106.24,11.33,10.87,99.23,68.26,158.16,105.84l4.79,3.05-225.76,72.59Zm-22.74-184.48c27.81,15.33,155.9,90.64,161.79,94.11l3.68,2.17-107.54,71.29,178.13-57.28c-103.71-66.21-156.41-102.32-156.67-107.36l-.07-1.37,1.16-1.07c3.02-2.44,52.57-55.29,90.74-96.2-15.3,8.39-41.68,23.34-67.46,37.95-40.75,23.1-86.38,48.96-103.74,57.77Z"/></g><g><path class="r" d="M1661.78,1622.98c7.14,3.07,14.49,5.97,22.07,8.67-34.69-50.45-135.8-168.17-135.8-168.17,0,0-1-2.38-2.88-6.7-10.19-10.74-17.57-19.87-21.88-25.47,1.74,6.96,40.99,116.93,138.48,191.66Z"/><path class="x" d="M1557.1,954.54s2.12,2.17,6.15,5.58c-3.87-3.93-6.15-5.58-6.15-5.58Z"/></g></g></g></g></svg>