<svg version="1.2" baseProfile="tiny-ps" xmlns="http://www.w3.org/2000/svg" viewBox="0 0 432 432" width="432" height="432">
		<style>
		tspan { white-space:pre }
		.shp0 { fill: #2c2e35 } 
	</style>
	<g id="Layer 10">
		<path id="&lt;Compound Path&gt;" fill-rule="evenodd" class="shp0" d="M-544.01 240.3C-545.27 258.42 -549.15 276.39 -554.19 293.81C-558.08 307.26 -562.66 319.96 -570.25 331.82C-575.68 340.31 -581.7 348.51 -588.06 356.35C-584.35 371.04 -584.88 389.38 -596.01 400.37C-602.34 406.62 -611.41 409.89 -619.8 412.27C-630.06 415.17 -640.69 416.73 -651.26 417.89C-669.93 419.93 -688.83 419.8 -707.58 419.22C-720.24 418.83 -733.04 417.8 -745.4 414.9C-753.65 412.96 -762.93 410.44 -770.17 405.86C-785.88 395.94 -783.02 377.18 -779.19 361.5C-783.73 350.75 -787.9 339.84 -791.82 328.86C-799.03 308.61 -805.53 287.93 -809.54 266.79C-811.61 255.9 -813.24 244.86 -814.56 233.85C-815.34 227.37 -816.02 220.76 -815.38 214.23C-814.28 203.06 -808.99 189.76 -800.79 181.99C-792.77 174.4 -781.73 170.06 -770.78 168.2C-766.94 160.24 -761.56 152.87 -754.53 147.56C-746.28 141.33 -735.22 137.84 -724.8 135.89C-722.96 118.99 -721.1 102.09 -719.21 85.19C-718.03 74.69 -716.85 64.18 -715.59 53.68C-714.28 42.76 -713.14 31.75 -705.01 23.47C-694.52 12.79 -678.72 12.6 -664.94 14.93C-652.85 16.98 -642.17 23.44 -638.85 35.53C-624.51 24.31 -601.23 25.21 -585.91 33.75C-569.76 42.74 -566.54 60.55 -567.74 77.52C-569.59 103.75 -571.95 129.94 -574.28 156.13C-566.44 165.31 -559.73 175.8 -554.49 186.57C-546.18 203.66 -542.69 221.36 -544.01 240.3ZM-637.68 98.86C-637.79 111.35 -637.93 123.84 -638.07 136.34C-637.49 136.18 -636.9 136.03 -636.3 135.89C-625.71 133.48 -615.36 134.76 -605.1 138.01C-599.53 139.78 -593.68 141.95 -588.3 144.85C-587.61 136.96 -586.92 129.07 -586.25 121.18C-585.03 106.76 -583.79 92.34 -582.77 77.91C-581.89 65.6 -582.23 51.9 -594.98 45.92C-602.11 42.58 -611.36 41.62 -619.09 42.91C-622.3 43.45 -625.34 44.46 -628.09 46.2C-629.63 47.17 -631.95 49.41 -632.56 50.22C-635.53 54.17 -637.58 87.27 -637.68 98.86ZM-705.81 99.61C-707.15 111.66 -708.47 123.72 -709.78 135.77C-698.02 137.93 -686.63 143.44 -677.61 150.93C-673.26 154.54 -669.48 158.85 -666 163.39C-663.52 155.76 -659.23 149.05 -653.15 144.03C-652.96 127.87 -652.79 111.7 -652.65 95.54C-652.57 85.72 -651.6 47.78 -652.93 41.02C-655.03 30.42 -667.05 28.99 -676.49 28.64C-687.96 28.22 -696.79 32.7 -699.33 44.39C-700.71 50.76 -701.29 59.54 -702.12 66.78C-703.38 77.72 -704.6 88.66 -705.81 99.61ZM-558.68 229.04C-559 210.02 -566.89 192.59 -577.34 177.02C-580.44 172.4 -583.15 168.89 -586.59 164.76C-586.74 164.59 -586.86 164.43 -586.99 164.26C-587.09 164.16 -587.2 164.07 -587.3 163.96C-592.95 158.13 -601.5 154.88 -609.09 152.48C-616.29 150.19 -623.65 148.6 -631.17 150.11C-637.66 151.41 -643.9 154.25 -648 159.64C-652.77 165.92 -653.76 173.91 -653.54 181.57C-649.88 187.4 -646.42 193.34 -643.12 199.38C-636.34 211.79 -628.39 224.67 -630.79 239.37C-633.49 255.9 -648.97 265.14 -664.34 267.63C-675.42 269.42 -685.74 267.71 -694.7 262.94C-697.33 276.15 -708.59 287.06 -722.7 290.6C-742.42 295.54 -763.16 292.15 -779.77 280.54C-784.37 277.32 -788.84 273.86 -793.17 270.22C-787.15 297.11 -778.54 323.25 -768.23 349C-767.33 351.23 -766.42 353.45 -765.5 355.67C-765.38 355.98 -765.28 356.2 -765.21 356.37C-765.19 356.42 -765.11 356.6 -764.93 357.03C-762.99 361.61 -764.92 365.95 -765.89 370.57C-766.59 373.94 -767.17 377.29 -767.32 380.73C-767.46 384.04 -767.54 385.79 -766.44 388.69C-766.57 388.26 -765.57 390.25 -765.34 390.58C-765.33 390.59 -765.33 390.6 -765.32 390.61C-765.24 390.69 -765.14 390.79 -765.01 390.93C-764.69 391.27 -764.35 391.59 -764.01 391.9C-763.65 392.23 -763.64 392.27 -763.64 392.27C-763.64 392.27 -763.54 392.3 -762.92 392.7C-762.38 393.05 -761.82 393.38 -761.26 393.7C-760.46 394.14 -758.74 394.97 -758.43 395.11C-755.66 396.3 -752.73 397.19 -749.85 398.09C-729.97 404.31 -709.17 404.35 -688.54 404.43C-673.87 404.49 -659.31 404.15 -644.75 402.08C-636.32 400.88 -627.86 399.24 -619.76 396.57C-613.67 394.56 -606.95 391.91 -603.8 385.94C-598.84 376.52 -601.62 366.15 -603.56 356.68C-604.63 351.44 -600.11 347.56 -597.14 343.77C-592.48 337.82 -588.03 331.69 -583.91 325.35C-575.7 312.72 -571.21 299.35 -567.27 284.9C-562.32 266.77 -558.37 247.91 -558.68 229.04ZM-798.75 239.95C-798.48 241.8 -798.19 243.64 -797.9 245.48C-789.7 253.76 -780.82 261.7 -771.19 268.28C-764.78 272.66 -758.68 275.6 -750.96 276.92C-741.96 278.47 -732.12 278.08 -723.42 275.18C-716.91 273.02 -711.06 267.83 -709.41 260.98C-708.34 256.58 -709.48 252.46 -711.38 248.57C-711.41 248.52 -711.44 248.48 -711.48 248.44C-711.88 247.92 -712.15 247.34 -712.33 246.73C-713.79 244.09 -715.51 241.56 -717.02 239.12C-724.8 226.61 -733.02 214.19 -742.01 202.51C-742.03 202.48 -742.05 202.46 -742.07 202.43C-742.11 202.39 -742.15 202.33 -742.21 202.27C-742.45 201.97 -742.69 201.66 -742.95 201.36C-743.44 200.81 -743.94 200.26 -744.44 199.72C-745.86 198.19 -747.31 196.7 -748.85 195.29C-754.31 190.27 -760.66 186.34 -767.13 182.74C-767.21 182.76 -767.3 182.77 -767.38 182.78C-770.07 183.28 -772.74 183.93 -775.35 184.73C-781.66 186.67 -788.42 189.73 -792.54 195.1C-794.23 197.31 -795.34 200.07 -796.54 202.58C-797.03 203.61 -797.51 204.64 -797.97 205.69C-797.99 205.72 -798 205.75 -798.01 205.78C-798.03 205.83 -798.05 205.88 -798.08 205.96C-798.26 206.44 -798.46 206.91 -798.63 207.4C-801.92 217.17 -800.43 228.23 -798.75 239.95ZM-754.9 170.39C-755.22 170.92 -755.52 171.46 -755.83 172.01C-743.9 179.28 -734.1 187.91 -725.7 199.47C-720.51 206.61 -715.52 213.9 -710.67 221.26C-706.48 227.62 -701.91 234.1 -698.45 240.96C-689.16 253.02 -674.18 255.89 -660.21 251.17C-655.75 249.67 -650.85 247.26 -648.02 243.12C-644.66 238.19 -644.61 231.87 -646.38 226.38C-646.44 226.2 -646.52 225.87 -647.06 224.69C-647.47 223.77 -647.91 222.85 -648.35 221.93C-649.51 219.5 -650.72 217.09 -651.95 214.7C-655.49 207.85 -659.23 201.11 -663.2 194.5C-671.31 180.97 -680.27 165.63 -694.25 157.46C-699.54 154.36 -705.23 152.25 -711.2 150.89C-712.51 150.6 -713.83 150.36 -715.15 150.12C-715.42 150.07 -715.7 150.04 -715.97 150C-716 149.99 -716.03 149.99 -716.07 149.99C-716.66 149.94 -717.25 149.87 -717.84 149.84C-726.93 151.28 -736.97 153.78 -744.57 158.81C-748.92 161.69 -752.22 165.97 -754.9 170.39Z" />
		<path id="&lt;Compound Path&gt;" fill-rule="evenodd" class="shp0" d="M364 236C363.2 252.3 358.86 268.21 353.17 283.43C344.59 306.39 333.24 328.23 320.95 349.4C322.41 352.88 323.54 356.55 324.28 360.18C326.03 368.82 325.9 377.72 322.24 385.86C317.25 396.93 306.91 402.48 295.99 406.43C283.03 411.12 269.52 413.97 255.78 414.92C245.35 415.64 234.93 415.03 224.5 415C200.84 414.92 175.91 412.62 153.02 406.47C142.4 403.62 132.95 398.98 128.89 388.02C124.77 376.89 127.11 363.98 130.54 352.82C123.28 336.03 116.25 319.13 109.54 302.11C105.35 291.47 100.99 280.76 97.81 269.77C94.35 257.8 92.17 245.47 90.4 233.16C86.53 206.31 84.98 179.38 84.35 152.29C84.01 137.82 83.34 123.37 82.67 108.91C82.2 98.73 80.06 86.44 84.81 77.01C90.49 65.71 103.29 61.72 114.93 60.08C119.88 59.39 124.77 59.13 129.21 59.83C129.21 52.48 130.48 45.15 133.79 38.87C138.97 29.03 150.52 24.74 160.89 22.8C169.06 21.27 177.71 21.37 185.4 24.44C195.29 13.78 211.49 8.7 225.51 11.12C237.79 13.25 247.84 22.2 253.91 32.96C267.54 29.62 283.36 31.31 293.74 40.98C298.93 45.82 301.7 52.09 304.11 58.62C307.03 66.51 309.43 74.58 311.28 82.78C312.61 88.62 313.78 94.61 314.47 100.61C326.44 103.03 338.22 108.18 347.15 116.37C362.47 130.41 363.36 154.23 364.4 173.59C365.51 194.35 365.01 215.24 364 236ZM349.96 192.7C349.83 177.2 349.46 161.34 346.23 146.12C344.96 140.11 343.35 134.37 339.21 129.67C335.42 125.36 330.57 122.29 325.42 119.87C321.18 117.88 316.62 116.49 312.06 115.44C311.38 115.28 310.7 115.14 310.02 115C309.98 115.06 309.94 115.11 309.89 115.16C309.85 115.23 309.79 115.32 309.73 115.42C308.45 117.41 307.31 119.43 306.29 121.58C306.21 121.73 305.92 122.42 305.8 122.69C305.57 123.24 305.35 123.81 305.13 124.37C304.56 125.87 304.04 127.38 303.55 128.91C302.4 132.47 301.42 136.1 300.55 139.74C294.96 163.04 292.83 187.17 291 211C290.75 214.24 288.88 217.42 285.49 218.23C282.97 218.84 280.53 219.76 278.11 220.68C277.75 220.82 277.39 220.97 277.03 221.11C276.8 221.21 275.81 221.64 275.6 221.73C274.17 222.4 272.74 223.07 271.34 223.79C268.19 225.4 265.13 227.19 262.18 229.15C245.57 240.16 234.24 256.78 229.23 275.99C226.79 285.34 212.33 281.35 214.77 272.01C222.59 241.99 246.27 214.62 276.45 205.18C278.32 181.6 280.68 157.73 286.33 134.76C288.8 124.7 292.08 111.75 299.78 103.9C299.31 98.63 298.36 93.79 297.13 88.15C295.63 81.3 293.75 74.53 291.51 67.89C289.68 62.47 288.02 56.51 283.89 52.33C276.95 45.29 266.3 45.3 257.31 47.58C256.12 83.31 255.51 119.34 258 155C258.67 164.65 243.67 164.58 243 155C240.42 117.95 241.17 80.51 242.45 43.41C242.3 43.08 242.15 42.76 241.98 42.44C240.83 40.19 239.51 37.99 237.98 35.98C234.34 31.18 229 26.93 222.74 25.81C214.94 24.42 206.24 26.87 199.95 31.6C198.17 32.94 196.65 34.58 195.14 36.22C195.33 39.26 195.52 42.3 195.72 45.33C198.08 82.06 200.15 118.89 204 155.5C204.43 159.55 200.23 163 196.5 163C192.14 163 189.42 159.53 189 155.5C188.01 146.07 187.23 136.62 186.48 127.17C184.13 97.68 182.14 68.15 180.29 38.63C174.49 36.13 167.98 36.39 161.74 37.96C155.12 39.61 148.42 41.53 145.98 48.22C144.01 53.65 144.13 59.74 144.6 65.43C144.87 68.75 144.9 69.39 145.73 73.01C145.88 73.64 145.95 74.24 145.97 74.82C145.98 74.88 145.99 74.94 146 75C149.51 107.6 152.99 140.27 155 173C155.59 182.66 140.59 182.59 140 173C138.02 140.89 134.64 108.83 131.2 76.85C128.81 71.45 116.64 74.75 112.51 75.61C106.07 76.94 98.11 79.77 97.09 87.25C96.22 93.56 97.29 100.6 97.58 106.93C98.02 116.6 98.49 126.26 98.85 135.93C100.14 170.67 100.63 205.23 106.5 239.62C111.57 269.31 123.2 296.8 134.7 324.47C138.03 332.48 141.44 340.46 144.86 348.44C147.5 354.62 143.11 362.17 142.22 368.61C141.43 374.3 141 381.93 145.04 386.6C148.3 390.35 153.56 391.15 158.6 392.42C165.63 394.2 172.79 395.44 179.96 396.5C194.67 398.65 209.63 399.95 224.5 400C240.82 400.04 256.9 400.95 272.99 397.48C286.72 394.53 308.04 390.23 310.28 373.99C310.89 369.59 310.3 365.77 309.2 361.52C308.69 359.56 308.03 357.67 307.36 355.77C307.27 355.5 307.2 355.31 307.14 355.16C306.92 354.67 306.7 354.19 306.49 353.71C305.93 352.49 305.32 351.39 305.13 350C304.46 344.99 309.44 339.39 311.81 335.19C316.67 326.61 321.32 317.92 325.69 309.08C336.82 286.58 347.74 260.9 348.98 236.38C349.72 221.85 350.08 207.26 349.96 192.7Z" />
		<path id="&lt;Compound Path&gt;" fill-rule="evenodd" class="shp0" d="M-119.41 351.17C-119.43 351.26 -119.46 351.32 -119.48 351.38C-118.27 352.63 -117.37 356.06 -116.83 357.43C-116.11 359.3 -115.49 361.2 -115 363.15C-112.48 373.19 -112.7 384.74 -118.92 393.46C-127.75 405.84 -145.21 409.33 -159.24 412.1C-176.41 415.5 -193.94 416.62 -211.42 417C-225.54 417.29 -239.72 417.47 -253.79 415.92C-267.43 414.41 -282.38 411.84 -293.71 403.52C-305.21 395.09 -312.98 382.06 -310.53 367.55C-309.76 362.98 -307.66 359.13 -306.15 354.81C-303.94 348.49 -306.88 342.29 -310.21 336.99C-319.99 321.44 -330.15 305.99 -340.82 291.05C-340.87 291 -340.91 290.96 -340.96 290.9C-341.47 290.33 -341.95 289.75 -342.45 289.17C-343.88 287.54 -345.32 285.92 -346.75 284.29C-347.77 283.12 -348.79 281.94 -349.8 280.75C-350.48 280.03 -351.13 279.26 -351.73 278.45C-351.73 278.44 -351.73 278.44 -351.74 278.43C-354.31 275.34 -356.82 272.21 -359.25 269.01C-368.25 257.11 -374.44 244.76 -375.86 229.69C-377.22 215.17 -375.17 196.3 -366.45 184.13C-362.07 178.03 -356.28 172.63 -349.87 168.51C-350.62 153.23 -342.99 138.06 -329.17 130.78C-318.02 124.9 -305.05 121.96 -292.46 120.48C-287.18 112.46 -278.34 107.02 -269.36 103.95C-254.45 98.85 -235.59 95.29 -220.19 100.97C-216.72 97.97 -212.55 95.71 -208.37 94.03C-195.97 89.03 -182.49 89.94 -169.53 91.71C-160.14 93 -149.94 95.1 -143.09 102.22C-135.42 110.19 -134.52 121.51 -132.93 131.88C-131.68 140.01 -130.36 148.13 -128.94 156.23C-119.14 158.44 -109.17 161.56 -100.63 166.69C-90.26 172.93 -85.25 182.9 -82.86 194.49C-79.54 210.53 -78.42 227.21 -76.49 243.47C-75.3 253.45 -73.31 263.75 -74.45 273.81C-77.83 303.79 -101.93 321.57 -116.71 345.71C-117.85 347.58 -118.94 349.53 -119.41 351.17ZM-209.47 111.55C-210.37 112.31 -211.15 113.17 -212.02 113.96C-214.15 118.29 -216.29 123.26 -217.2 128C-217.16 127.97 -217.3 129.24 -217.29 129.52C-217.24 130.4 -217.24 131.37 -217.15 132.17C-216.84 134.82 -216.14 137.48 -215.46 140.04C-212.65 150.53 -208.52 161.22 -202.44 170.34C-196.96 168.92 -191 168.92 -185.47 168.69C-170.96 168.07 -156.67 164.47 -143.87 157.53C-145.49 148.17 -146.96 138.79 -148.37 129.4C-149.14 124.26 -149.96 118.71 -152.29 114.71C-153.65 112.37 -156.03 110.55 -159.1 109.34C-164.34 107.25 -170.2 106.54 -175.78 105.95C-183.44 105.13 -191.21 104.64 -198.75 106.6C-200.81 107.14 -202.85 107.8 -204.76 108.72C-205.78 109.21 -206.77 109.77 -207.73 110.37C-207.91 110.49 -209.37 111.52 -209.47 111.55ZM-277.99 126.25C-279.62 127.96 -279.28 127.42 -280.29 129.15C-280.66 129.79 -281.39 131.21 -281.44 131.29C-284.73 136.39 -285.63 144.17 -283.85 149.52C-280.8 158.66 -275.2 167.2 -270.11 175.32C-264.43 184.39 -258.64 193.72 -251.99 202.12C-246.88 208.58 -236.37 221.29 -226.56 218.5C-225.86 210.28 -224.09 202.07 -221.78 194.21C-220.15 188.71 -218.41 182.99 -215.04 178.46C-222.45 167.62 -227.52 154.26 -230.52 141.66C-231.86 136.07 -233 130.01 -231.72 124.31C-230.94 120.86 -229.77 117.39 -228.41 114.01C-239.72 111.08 -253.44 114.72 -263.84 117.92C-269.15 119.55 -274.13 122.21 -277.99 126.25ZM-334.89 167.35C-334.87 168.16 -334.81 168.97 -334.75 169.78C-331.2 175.26 -327.6 180.72 -323.98 186.17C-311.44 205.01 -298.94 225.18 -284.17 241.73C-283.05 242.99 -281.87 244.18 -280.65 245.34C-280.63 245.36 -280.62 245.37 -280.6 245.39C-279.89 245.88 -279.18 246.36 -278.43 246.79C-276.77 247.73 -275.03 248.38 -273.18 248.86C-267.38 250.35 -258.26 249.41 -254.03 246.93C-249.28 244.15 -244.65 237.43 -240.8 231.2C-258.61 223.66 -272.21 199.96 -281.54 185.3C-290.59 171.09 -301.96 153.83 -299.39 136.77C-305.88 138.03 -312.45 139.63 -318.52 142.24C-325.52 145.26 -331.11 149.85 -333.47 157.37C-334.5 160.65 -334.94 163.92 -334.89 167.35ZM-356.52 245.58C-351.61 255.48 -344.52 263.8 -337.42 272.13C-334.33 274.29 -328.29 275.47 -324.9 275.87C-318.65 276.61 -311.88 276.24 -306.26 273.19C-300.49 270.06 -295.67 265.35 -291.24 260.56C-290.41 259.66 -289.6 258.75 -288.8 257.82C-290.49 256.61 -292.09 255.24 -293.56 253.67C-301.54 245.22 -308.24 235.37 -314.94 225.9C-324.99 211.72 -334.7 197.29 -344.19 182.73C-349.52 186.53 -354.37 191.47 -356.77 197.26C-362.68 211.55 -363.46 231.6 -356.52 245.58ZM-89.08 267.44C-89.12 257.78 -90.94 247.95 -92.1 238.38C-93.86 223.68 -94.49 208.2 -98.41 193.88C-100.69 185.53 -104.03 181.69 -111.2 177.98C-118.71 174.09 -127.31 171.84 -135.62 170.11C-149.48 177.85 -165.35 182.49 -181.13 183.47C-187.27 183.86 -194.87 182.9 -200.63 185.5C-206.32 188.07 -207.55 198.63 -208.87 203.96C-210.74 211.51 -212.2 219.37 -211.83 227.18C-211.55 233.25 -207.91 235.77 -202.52 238.57C-192.9 243.57 -182.18 245.23 -171.64 247.18C-162.4 248.9 -153.16 250.59 -143.92 252.27C-134.42 254 -138.47 268.45 -147.91 266.73C-159.96 264.54 -172 262.36 -184.03 260.08C-186.37 259.63 -188.76 259.14 -191.18 258.56C-202.32 265.97 -215.05 275.56 -220.44 287.84C-224.08 296.14 -225.78 305.7 -226.44 314.68C-226.94 321.55 -227.29 330.95 -224.2 336.31C-219.36 344.69 -232.33 352.24 -237.15 343.88C-241.98 335.51 -242.11 324.7 -241.49 315.33C-240.78 304.68 -238.9 293.79 -234.9 283.86C-229.8 271.18 -219.59 260.99 -208.53 252.55C-212.82 250.42 -216.79 247.79 -220.11 244.47C-222.89 241.68 -224.6 238.46 -225.61 234.99C-227.92 238.66 -230.36 242.24 -232.95 245.72C-237.67 252.07 -242.66 258.73 -250.32 261.58C-257.93 264.4 -266.42 265.29 -274.36 263.82C-282.16 273.91 -291.93 283.97 -303.86 288.51C-309.26 290.56 -315.82 291.56 -322.44 291.34C-317.3 298.9 -312.24 306.52 -307.21 314.15C-302.16 321.82 -296.14 329.57 -292.78 338.16C-290.07 345.11 -289.48 352.95 -292.18 359.99C-293.73 364.01 -295.38 366.41 -295.99 371.04C-297.38 381.64 -288.17 390.44 -279.36 394.61C-269.01 399.51 -256.86 400.89 -245.57 401.64C-234.2 402.4 -222.8 402.23 -211.42 402C-193.16 401.6 -174.84 400.51 -157.02 396.29C-146.05 393.69 -130.1 390.95 -128.57 377.54C-127.74 370.27 -130.32 363.61 -133.02 358.03C-137.52 348.74 -130.57 338.92 -125.21 331.63C-110.99 312.31 -88.99 293.33 -89.08 267.44Z" />
	</g>
</svg>