<svg version="1.2" baseProfile="tiny-ps" xmlns="http://www.w3.org/2000/svg" viewBox="0 0 432 432" width="60" height="60">
	
	<style>
		tspan { white-space:pre }
		.shp0 { fill: #2c2e35 } 
	</style>
	<g id="Layer 10">
		<path id="&lt;Compound Path&gt;" fill-rule="evenodd" class="shp0" d="M-104.01 241.3C-105.27 259.42 -109.15 277.39 -114.19 294.81C-118.08 308.26 -122.66 320.96 -130.25 332.82C-135.68 341.31 -141.7 349.51 -148.06 357.35C-144.35 372.04 -144.88 390.38 -156.01 401.37C-162.34 407.62 -171.41 410.89 -179.8 413.27C-190.06 416.17 -200.69 417.73 -211.26 418.89C-229.93 420.93 -248.83 420.8 -267.58 420.22C-280.24 419.83 -293.04 418.8 -305.4 415.9C-313.65 413.96 -322.93 411.44 -330.17 406.86C-345.88 396.94 -343.02 378.18 -339.19 362.5C-343.73 351.75 -347.9 340.84 -351.82 329.86C-359.03 309.61 -365.53 288.93 -369.54 267.79C-371.61 256.9 -373.24 245.86 -374.56 234.85C-375.34 228.37 -376.02 221.76 -375.38 215.23C-374.28 204.06 -368.99 190.76 -360.79 182.99C-352.77 175.4 -341.73 171.06 -330.78 169.2C-326.94 161.24 -321.56 153.87 -314.53 148.56C-306.28 142.33 -295.22 138.84 -284.8 136.89C-282.96 119.99 -281.1 103.09 -279.21 86.19C-278.03 75.69 -276.85 65.18 -275.59 54.68C-274.28 43.76 -273.14 32.75 -265.01 24.47C-254.52 13.79 -238.72 13.6 -224.94 15.93C-212.85 17.98 -202.17 24.44 -198.85 36.53C-184.51 25.31 -161.23 26.21 -145.91 34.75C-129.76 43.74 -126.54 61.55 -127.74 78.52C-129.59 104.75 -131.95 130.94 -134.28 157.13C-126.44 166.31 -119.73 176.8 -114.49 187.57C-106.18 204.66 -102.69 222.36 -104.01 241.3ZM-197.68 99.86C-197.79 112.35 -197.93 124.84 -198.07 137.34C-197.49 137.18 -196.9 137.03 -196.3 136.89C-185.71 134.48 -175.36 135.76 -165.1 139.01C-159.53 140.78 -153.68 142.95 -148.3 145.85C-147.61 137.96 -146.92 130.07 -146.25 122.18C-145.03 107.76 -143.79 93.34 -142.77 78.91C-141.89 66.6 -142.23 52.9 -154.98 46.92C-162.11 43.58 -171.36 42.62 -179.09 43.91C-182.3 44.45 -185.34 45.46 -188.09 47.2C-189.63 48.17 -191.95 50.41 -192.56 51.22C-195.53 55.17 -197.58 88.27 -197.68 99.86ZM-265.81 100.61C-267.15 112.66 -268.47 124.72 -269.78 136.77C-258.02 138.93 -246.63 144.44 -237.61 151.93C-233.26 155.54 -229.48 159.85 -226 164.39C-223.52 156.76 -219.23 150.05 -213.15 145.03C-212.96 128.87 -212.79 112.7 -212.65 96.54C-212.57 86.72 -211.6 48.78 -212.93 42.02C-215.03 31.42 -227.05 29.99 -236.49 29.64C-247.96 29.22 -256.79 33.7 -259.33 45.39C-260.71 51.76 -261.29 60.54 -262.12 67.78C-263.38 78.72 -264.6 89.66 -265.81 100.61ZM-118.68 230.04C-119 211.02 -126.89 193.59 -137.34 178.02C-140.44 173.4 -143.15 169.89 -146.59 165.76C-146.74 165.59 -146.86 165.43 -146.99 165.26C-147.09 165.16 -147.2 165.07 -147.3 164.96C-152.95 159.13 -161.5 155.88 -169.09 153.48C-176.29 151.19 -183.65 149.6 -191.17 151.11C-197.66 152.41 -203.9 155.25 -208 160.64C-212.77 166.92 -213.76 174.91 -213.54 182.57C-209.88 188.4 -206.42 194.34 -203.12 200.38C-196.34 212.79 -188.39 225.67 -190.79 240.37C-193.49 256.9 -208.97 266.14 -224.34 268.63C-235.42 270.42 -245.74 268.71 -254.7 263.94C-257.33 277.15 -268.59 288.06 -282.7 291.6C-302.42 296.54 -323.16 293.15 -339.77 281.54C-344.37 278.32 -348.84 274.86 -353.17 271.22C-347.15 298.11 -338.54 324.25 -328.23 350C-327.33 352.23 -326.42 354.45 -325.5 356.67C-325.38 356.98 -325.28 357.2 -325.21 357.37C-325.19 357.42 -325.11 357.6 -324.93 358.03C-322.99 362.61 -324.92 366.95 -325.89 371.57C-326.59 374.94 -327.17 378.29 -327.32 381.73C-327.46 385.04 -327.54 386.79 -326.44 389.69C-326.57 389.26 -325.57 391.25 -325.34 391.58C-325.33 391.59 -325.33 391.6 -325.32 391.61C-325.24 391.69 -325.14 391.79 -325.01 391.93C-324.69 392.27 -324.35 392.59 -324.01 392.9C-323.65 393.23 -323.64 393.27 -323.64 393.27C-323.64 393.27 -323.54 393.3 -322.92 393.7C-322.38 394.05 -321.82 394.38 -321.26 394.7C-320.46 395.14 -318.74 395.97 -318.43 396.11C-315.66 397.3 -312.73 398.19 -309.85 399.09C-289.97 405.31 -269.17 405.35 -248.54 405.43C-233.87 405.49 -219.31 405.15 -204.75 403.08C-196.32 401.88 -187.86 400.24 -179.76 397.57C-173.67 395.56 -166.95 392.91 -163.8 386.94C-158.84 377.52 -161.62 367.15 -163.56 357.68C-164.63 352.44 -160.11 348.56 -157.14 344.77C-152.48 338.82 -148.03 332.69 -143.91 326.35C-135.7 313.72 -131.21 300.35 -127.27 285.9C-122.32 267.77 -118.37 248.91 -118.68 230.04ZM-358.75 240.95C-358.48 242.8 -358.19 244.64 -357.9 246.48C-349.7 254.76 -340.82 262.7 -331.19 269.28C-324.78 273.66 -318.68 276.6 -310.96 277.92C-301.96 279.47 -292.12 279.08 -283.42 276.18C-276.91 274.02 -271.06 268.83 -269.41 261.98C-268.34 257.58 -269.48 253.46 -271.38 249.57C-271.41 249.52 -271.44 249.48 -271.48 249.44C-271.88 248.92 -272.15 248.34 -272.33 247.73C-273.79 245.09 -275.51 242.56 -277.02 240.12C-284.8 227.61 -293.02 215.19 -302.01 203.51C-302.03 203.48 -302.05 203.46 -302.07 203.43C-302.11 203.39 -302.15 203.33 -302.21 203.27C-302.45 202.97 -302.69 202.66 -302.95 202.36C-303.44 201.81 -303.94 201.26 -304.44 200.72C-305.86 199.19 -307.31 197.7 -308.85 196.29C-314.31 191.27 -320.66 187.34 -327.13 183.74C-327.21 183.76 -327.3 183.77 -327.38 183.78C-330.07 184.28 -332.74 184.93 -335.35 185.73C-341.66 187.67 -348.42 190.73 -352.54 196.1C-354.23 198.31 -355.34 201.07 -356.54 203.58C-357.03 204.61 -357.51 205.64 -357.97 206.69C-357.99 206.72 -358 206.75 -358.01 206.78C-358.03 206.83 -358.05 206.88 -358.08 206.96C-358.26 207.44 -358.46 207.91 -358.63 208.4C-361.92 218.17 -360.43 229.23 -358.75 240.95ZM-314.9 171.39C-315.22 171.92 -315.52 172.46 -315.83 173.01C-303.9 180.28 -294.1 188.91 -285.7 200.47C-280.51 207.61 -275.52 214.9 -270.67 222.26C-266.48 228.62 -261.92 235.1 -258.45 241.96C-249.16 254.02 -234.18 256.89 -220.21 252.17C-215.75 250.67 -210.85 248.26 -208.02 244.12C-204.66 239.19 -204.61 232.87 -206.38 227.38C-206.44 227.2 -206.52 226.87 -207.06 225.69C-207.47 224.77 -207.91 223.85 -208.35 222.93C-209.51 220.5 -210.72 218.09 -211.95 215.7C-215.49 208.85 -219.23 202.11 -223.2 195.5C-231.31 181.97 -240.27 166.63 -254.25 158.46C-259.54 155.36 -265.23 153.25 -271.2 151.89C-272.51 151.6 -273.83 151.36 -275.15 151.12C-275.42 151.07 -275.7 151.04 -275.97 151C-276 150.99 -276.03 150.99 -276.07 150.99C-276.66 150.94 -277.25 150.87 -277.84 150.84C-286.93 152.28 -296.97 154.78 -304.57 159.81C-308.92 162.69 -312.22 166.97 -314.9 171.39Z" />
		<path id="&lt;Compound Path&gt;" fill-rule="evenodd" class="shp0" d="M814 237C813.2 253.3 808.86 269.21 803.17 284.43C794.59 307.39 783.24 329.23 770.95 350.4C772.41 353.88 773.54 357.55 774.28 361.18C776.03 369.82 775.9 378.72 772.24 386.86C767.25 397.93 756.91 403.48 745.99 407.43C733.03 412.12 719.52 414.97 705.78 415.92C695.35 416.64 684.93 416.03 674.5 416C650.84 415.92 625.91 413.62 603.02 407.47C592.4 404.62 582.95 399.98 578.89 389.02C574.77 377.89 577.11 364.98 580.54 353.82C573.28 337.03 566.25 320.13 559.54 303.11C555.35 292.47 550.99 281.76 547.81 270.77C544.35 258.8 542.17 246.47 540.4 234.16C536.53 207.31 534.98 180.38 534.35 153.29C534.01 138.82 533.34 124.37 532.67 109.91C532.2 99.73 530.06 87.44 534.81 78.01C540.49 66.71 553.29 62.72 564.93 61.08C569.88 60.39 574.77 60.13 579.21 60.83C579.21 53.48 580.48 46.15 583.79 39.87C588.97 30.03 600.52 25.74 610.89 23.8C619.06 22.27 627.71 22.37 635.4 25.44C645.29 14.78 661.49 9.7 675.51 12.12C687.79 14.25 697.84 23.2 703.91 33.96C717.54 30.62 733.36 32.31 743.74 41.98C748.93 46.82 751.7 53.09 754.11 59.62C757.03 67.51 759.43 75.58 761.28 83.78C762.61 89.62 763.78 95.61 764.47 101.61C776.44 104.03 788.22 109.18 797.15 117.37C812.47 131.41 813.36 155.23 814.4 174.59C815.51 195.35 815.01 216.24 814 237ZM799.96 193.7C799.83 178.2 799.46 162.34 796.23 147.12C794.96 141.11 793.35 135.37 789.21 130.67C785.42 126.36 780.57 123.29 775.42 120.87C771.18 118.88 766.62 117.49 762.06 116.44C761.38 116.28 760.7 116.14 760.02 116C759.98 116.06 759.94 116.11 759.89 116.16C759.85 116.23 759.79 116.32 759.73 116.42C758.45 118.41 757.31 120.43 756.29 122.58C756.21 122.73 755.92 123.42 755.8 123.69C755.57 124.24 755.35 124.81 755.13 125.37C754.56 126.87 754.04 128.38 753.55 129.91C752.4 133.47 751.42 137.1 750.55 140.74C744.96 164.04 742.83 188.17 741 212C740.75 215.24 738.88 218.42 735.49 219.23C732.97 219.84 730.53 220.76 728.11 221.68C727.75 221.82 727.39 221.97 727.03 222.11C726.8 222.21 725.81 222.64 725.6 222.73C724.17 223.4 722.74 224.07 721.34 224.79C718.19 226.4 715.13 228.19 712.18 230.15C695.57 241.16 684.24 257.78 679.23 276.99C676.79 286.34 662.33 282.35 664.77 273.01C672.59 242.99 696.27 215.62 726.45 206.18C728.32 182.6 730.68 158.73 736.33 135.76C738.8 125.7 742.08 112.75 749.78 104.9C749.31 99.63 748.36 94.79 747.13 89.15C745.63 82.3 743.75 75.53 741.51 68.89C739.68 63.47 738.02 57.51 733.89 53.33C726.95 46.29 716.3 46.3 707.31 48.58C706.12 84.31 705.51 120.34 708 156C708.67 165.65 693.67 165.58 693 156C690.42 118.95 691.17 81.51 692.45 44.41C692.3 44.08 692.15 43.76 691.98 43.44C690.83 41.19 689.51 38.99 687.98 36.98C684.34 32.18 679 27.93 672.74 26.81C664.94 25.42 656.24 27.87 649.95 32.6C648.17 33.94 646.65 35.58 645.14 37.22C645.33 40.26 645.52 43.3 645.72 46.33C648.08 83.06 650.15 119.89 654 156.5C654.43 160.55 650.23 164 646.5 164C642.14 164 639.42 160.53 639 156.5C638.01 147.07 637.23 137.62 636.48 128.17C634.13 98.68 632.14 69.15 630.29 39.63C624.49 37.13 617.98 37.39 611.74 38.96C605.12 40.61 598.42 42.53 595.98 49.22C594.01 54.65 594.13 60.74 594.6 66.43C594.87 69.75 594.9 70.39 595.73 74.01C595.88 74.64 595.95 75.24 595.97 75.82C595.98 75.88 595.99 75.94 596 76C599.51 108.6 602.99 141.27 605 174C605.59 183.66 590.59 183.59 590 174C588.02 141.89 584.64 109.83 581.2 77.85C578.81 72.45 566.64 75.75 562.51 76.61C556.07 77.94 548.11 80.77 547.09 88.25C546.22 94.56 547.29 101.6 547.58 107.93C548.02 117.6 548.49 127.26 548.85 136.93C550.14 171.67 550.63 206.23 556.5 240.62C561.57 270.31 573.2 297.8 584.7 325.47C588.03 333.48 591.44 341.46 594.86 349.44C597.5 355.62 593.11 363.17 592.22 369.61C591.43 375.3 591 382.93 595.04 387.6C598.3 391.35 603.56 392.15 608.6 393.42C615.63 395.2 622.79 396.44 629.96 397.5C644.67 399.65 659.63 400.95 674.5 401C690.82 401.04 706.9 401.95 722.99 398.48C736.72 395.53 758.04 391.23 760.28 374.99C760.89 370.59 760.3 366.77 759.2 362.52C758.69 360.56 758.03 358.67 757.36 356.77C757.27 356.5 757.2 356.31 757.14 356.16C756.92 355.67 756.7 355.19 756.49 354.71C755.93 353.49 755.32 352.39 755.13 351C754.46 345.99 759.44 340.39 761.81 336.19C766.67 327.61 771.32 318.92 775.69 310.08C786.82 287.58 797.74 261.9 798.98 237.38C799.72 222.85 800.08 208.26 799.96 193.7Z" />
		<path id="&lt;Compound Path&gt;" fill-rule="evenodd" class="shp0" d="M320.59 352.17C320.57 352.26 320.54 352.32 320.52 352.38C321.73 353.63 322.63 357.06 323.17 358.43C323.89 360.3 324.51 362.2 325 364.15C327.52 374.19 327.3 385.74 321.08 394.46C312.25 406.84 294.79 410.33 280.76 413.1C263.59 416.5 246.06 417.62 228.58 418C214.46 418.29 200.28 418.47 186.21 416.92C172.57 415.41 157.62 412.84 146.29 404.52C134.79 396.09 127.02 383.06 129.47 368.55C130.24 363.98 132.34 360.13 133.85 355.81C136.06 349.49 133.12 343.29 129.79 337.99C120.01 322.44 109.85 306.99 99.18 292.05C99.13 292 99.09 291.96 99.04 291.9C98.53 291.33 98.05 290.75 97.55 290.17C96.12 288.54 94.68 286.92 93.25 285.29C92.23 284.12 91.21 282.94 90.2 281.75C89.52 281.03 88.87 280.26 88.27 279.45C88.27 279.44 88.27 279.44 88.26 279.43C85.69 276.34 83.18 273.21 80.75 270.01C71.75 258.11 65.56 245.76 64.14 230.69C62.78 216.17 64.83 197.3 73.55 185.13C77.93 179.03 83.72 173.63 90.13 169.51C89.38 154.23 97.01 139.06 110.83 131.78C121.98 125.9 134.95 122.96 147.54 121.48C152.82 113.46 161.66 108.02 170.64 104.95C185.55 99.85 204.41 96.29 219.81 101.97C223.28 98.97 227.45 96.71 231.63 95.03C244.03 90.03 257.51 90.94 270.47 92.71C279.86 94 290.06 96.1 296.91 103.22C304.58 111.19 305.48 122.51 307.07 132.88C308.32 141.01 309.64 149.13 311.06 157.23C320.86 159.44 330.83 162.56 339.37 167.69C349.74 173.93 354.75 183.9 357.14 195.49C360.46 211.53 361.58 228.21 363.51 244.47C364.7 254.45 366.69 264.75 365.55 274.81C362.17 304.79 338.07 322.57 323.29 346.71C322.15 348.58 321.06 350.53 320.59 352.17ZM230.53 112.55C229.63 113.31 228.85 114.17 227.98 114.96C225.85 119.29 223.71 124.26 222.8 129C222.84 128.97 222.7 130.24 222.71 130.52C222.76 131.4 222.76 132.37 222.85 133.17C223.16 135.82 223.86 138.48 224.54 141.04C227.35 151.53 231.48 162.22 237.56 171.34C243.04 169.92 249 169.92 254.53 169.69C269.04 169.07 283.33 165.47 296.13 158.53C294.51 149.17 293.04 139.79 291.63 130.4C290.86 125.26 290.04 119.71 287.71 115.71C286.35 113.37 283.97 111.55 280.9 110.34C275.66 108.25 269.8 107.54 264.22 106.95C256.56 106.13 248.79 105.64 241.25 107.6C239.19 108.14 237.15 108.8 235.24 109.72C234.22 110.21 233.23 110.77 232.27 111.37C232.09 111.49 230.63 112.52 230.53 112.55ZM162.01 127.25C160.38 128.96 160.72 128.42 159.71 130.15C159.34 130.79 158.61 132.21 158.56 132.29C155.27 137.39 154.37 145.17 156.15 150.52C159.2 159.66 164.8 168.2 169.89 176.32C175.57 185.39 181.36 194.72 188.01 203.12C193.12 209.58 203.63 222.29 213.44 219.5C214.14 211.28 215.91 203.07 218.22 195.21C219.85 189.71 221.59 183.99 224.96 179.46C217.55 168.62 212.48 155.26 209.48 142.66C208.14 137.07 207 131.01 208.28 125.31C209.06 121.86 210.23 118.39 211.59 115.01C200.28 112.08 186.56 115.72 176.16 118.92C170.85 120.55 165.87 123.21 162.01 127.25ZM105.11 168.35C105.13 169.16 105.19 169.97 105.25 170.78C108.8 176.26 112.4 181.72 116.02 187.17C128.56 206.01 141.06 226.18 155.83 242.73C156.95 243.99 158.13 245.18 159.35 246.34C159.37 246.36 159.38 246.37 159.4 246.39C160.11 246.88 160.82 247.36 161.57 247.79C163.23 248.73 164.97 249.38 166.82 249.86C172.62 251.35 181.74 250.41 185.97 247.93C190.72 245.15 195.35 238.43 199.2 232.2C181.39 224.66 167.79 200.96 158.46 186.3C149.41 172.09 138.04 154.83 140.61 137.77C134.12 139.03 127.55 140.63 121.48 143.24C114.48 146.26 108.89 150.85 106.53 158.37C105.5 161.65 105.06 164.92 105.11 168.35ZM83.48 246.58C88.39 256.48 95.48 264.8 102.58 273.13C105.67 275.29 111.71 276.47 115.1 276.87C121.35 277.61 128.12 277.24 133.74 274.19C139.51 271.06 144.33 266.35 148.76 261.56C149.59 260.66 150.4 259.75 151.2 258.82C149.51 257.61 147.91 256.24 146.44 254.67C138.46 246.22 131.76 236.37 125.06 226.9C115.01 212.72 105.3 198.29 95.81 183.73C90.48 187.53 85.63 192.47 83.23 198.26C77.32 212.55 76.54 232.6 83.48 246.58ZM350.92 268.44C350.88 258.78 349.06 248.95 347.9 239.38C346.14 224.68 345.51 209.2 341.59 194.88C339.31 186.53 335.97 182.69 328.8 178.98C321.29 175.09 312.69 172.84 304.38 171.11C290.52 178.85 274.65 183.49 258.87 184.47C252.73 184.86 245.13 183.9 239.37 186.5C233.68 189.07 232.45 199.63 231.13 204.96C229.26 212.51 227.8 220.37 228.17 228.18C228.45 234.25 232.09 236.77 237.48 239.57C247.1 244.57 257.82 246.23 268.36 248.18C277.6 249.9 286.84 251.59 296.08 253.27C305.58 255 301.53 269.45 292.09 267.73C280.04 265.54 268 263.36 255.97 261.08C253.63 260.63 251.24 260.14 248.82 259.56C237.68 266.97 224.95 276.56 219.56 288.84C215.92 297.14 214.22 306.7 213.56 315.68C213.06 322.55 212.71 331.95 215.8 337.31C220.64 345.69 207.67 353.24 202.85 344.88C198.02 336.51 197.89 325.7 198.51 316.33C199.22 305.68 201.1 294.79 205.1 284.86C210.2 272.18 220.41 261.99 231.47 253.55C227.18 251.42 223.21 248.79 219.89 245.47C217.11 242.68 215.4 239.46 214.39 235.99C212.08 239.66 209.64 243.24 207.05 246.72C202.33 253.07 197.34 259.73 189.68 262.58C182.07 265.4 173.58 266.29 165.64 264.82C157.84 274.91 148.07 284.97 136.14 289.51C130.74 291.56 124.18 292.56 117.56 292.34C122.7 299.9 127.76 307.52 132.79 315.15C137.84 322.82 143.86 330.57 147.22 339.16C149.93 346.11 150.52 353.95 147.82 360.99C146.27 365.01 144.62 367.41 144.01 372.04C142.62 382.64 151.83 391.44 160.64 395.61C170.99 400.51 183.14 401.89 194.43 402.64C205.8 403.4 217.2 403.23 228.58 403C246.84 402.6 265.16 401.51 282.98 397.29C293.95 394.69 309.9 391.95 311.43 378.54C312.26 371.27 309.68 364.61 306.98 359.03C302.48 349.74 309.43 339.92 314.79 332.63C329.01 313.31 351.01 294.33 350.92 268.44Z" />
	</g>
</svg>