<svg version="1.2" baseProfile="tiny-ps" xmlns="http://www.w3.org/2000/svg" viewBox="0 0 432 432" width="432" height="432">
	<title>rock_paper_scissors-09-ai</title>
	<style>
		tspan { white-space:pre }
		.shp0 { fill: #2c2e35 } 
	</style>
	<g id="Layer 10">
		<path id="&lt;Compound Path&gt;" fill-rule="evenodd" class="shp0" d="M367.99 241.3C366.73 259.42 362.85 277.39 357.81 294.81C353.92 308.26 349.34 320.96 341.75 332.82C336.32 341.31 330.3 349.51 323.94 357.35C327.65 372.04 327.12 390.38 315.99 401.37C309.66 407.62 300.59 410.89 292.2 413.27C281.94 416.17 271.31 417.73 260.74 418.89C242.07 420.93 223.17 420.8 204.42 420.22C191.76 419.83 178.96 418.8 166.6 415.9C158.35 413.96 149.07 411.44 141.83 406.86C126.12 396.94 128.98 378.18 132.81 362.5C128.27 351.75 124.1 340.84 120.18 329.86C112.97 309.61 106.47 288.93 102.46 267.79C100.39 256.9 98.76 245.86 97.44 234.85C96.66 228.37 95.98 221.76 96.62 215.23C97.72 204.06 103.01 190.76 111.21 182.99C119.23 175.4 130.27 171.06 141.22 169.2C145.06 161.24 150.44 153.87 157.47 148.56C165.72 142.33 176.78 138.84 187.2 136.89C189.04 119.99 190.9 103.09 192.79 86.19C193.97 75.69 195.15 65.18 196.41 54.68C197.72 43.76 198.86 32.75 206.99 24.47C217.48 13.79 233.28 13.6 247.06 15.93C259.15 17.98 269.83 24.44 273.15 36.53C287.49 25.31 310.77 26.21 326.09 34.75C342.24 43.74 345.46 61.55 344.26 78.52C342.41 104.75 340.05 130.94 337.72 157.13C345.56 166.31 352.27 176.8 357.51 187.57C365.82 204.66 369.31 222.36 367.99 241.3ZM274.32 99.86C274.21 112.35 274.07 124.84 273.93 137.34C274.51 137.18 275.1 137.03 275.7 136.89C286.29 134.48 296.64 135.76 306.9 139.01C312.47 140.78 318.32 142.95 323.7 145.85C324.39 137.96 325.08 130.07 325.75 122.18C326.97 107.76 328.21 93.34 329.23 78.91C330.11 66.6 329.77 52.9 317.02 46.92C309.89 43.58 300.64 42.62 292.91 43.91C289.7 44.45 286.66 45.46 283.91 47.2C282.37 48.17 280.05 50.41 279.44 51.22C276.47 55.17 274.42 88.27 274.32 99.86ZM206.19 100.61C204.85 112.66 203.53 124.72 202.22 136.77C213.98 138.93 225.37 144.44 234.39 151.93C238.74 155.54 242.52 159.85 246 164.39C248.48 156.76 252.77 150.05 258.85 145.03C259.04 128.87 259.21 112.7 259.35 96.54C259.43 86.72 260.4 48.78 259.07 42.02C256.97 31.42 244.95 29.99 235.51 29.64C224.04 29.22 215.21 33.7 212.67 45.39C211.29 51.76 210.71 60.54 209.88 67.78C208.62 78.72 207.4 89.66 206.19 100.61ZM353.32 230.04C353 211.02 345.11 193.59 334.66 178.02C331.56 173.4 328.85 169.89 325.41 165.76C325.26 165.59 325.14 165.43 325.01 165.26C324.91 165.16 324.8 165.07 324.7 164.96C319.05 159.13 310.5 155.88 302.91 153.48C295.71 151.19 288.35 149.6 280.83 151.11C274.34 152.41 268.1 155.25 264 160.64C259.23 166.92 258.24 174.91 258.46 182.57C262.12 188.4 265.58 194.34 268.88 200.38C275.66 212.79 283.61 225.67 281.21 240.37C278.51 256.9 263.03 266.14 247.66 268.63C236.58 270.42 226.26 268.71 217.3 263.94C214.67 277.15 203.41 288.06 189.3 291.6C169.58 296.54 148.84 293.15 132.23 281.54C127.63 278.32 123.16 274.86 118.83 271.22C124.85 298.11 133.46 324.25 143.77 350C144.67 352.23 145.58 354.45 146.5 356.67C146.62 356.98 146.72 357.2 146.79 357.37C146.81 357.42 146.89 357.6 147.07 358.03C149.01 362.61 147.08 366.95 146.11 371.57C145.41 374.94 144.83 378.29 144.68 381.73C144.54 385.04 144.46 386.79 145.56 389.69C145.43 389.26 146.43 391.25 146.66 391.58C146.67 391.59 146.67 391.6 146.68 391.61C146.76 391.69 146.86 391.79 146.99 391.93C147.31 392.27 147.65 392.59 147.99 392.9C148.35 393.23 148.36 393.27 148.36 393.27C148.36 393.27 148.46 393.3 149.08 393.7C149.62 394.05 150.18 394.38 150.74 394.7C151.54 395.14 153.26 395.97 153.57 396.11C156.34 397.3 159.27 398.19 162.15 399.09C182.03 405.31 202.83 405.35 223.46 405.43C238.13 405.49 252.69 405.15 267.25 403.08C275.68 401.88 284.14 400.24 292.24 397.57C298.33 395.56 305.05 392.91 308.2 386.94C313.16 377.52 310.38 367.15 308.44 357.68C307.37 352.44 311.89 348.56 314.86 344.77C319.52 338.82 323.97 332.69 328.09 326.35C336.3 313.72 340.79 300.35 344.73 285.9C349.68 267.77 353.63 248.91 353.32 230.04ZM113.25 240.95C113.52 242.8 113.81 244.64 114.1 246.48C122.3 254.76 131.18 262.7 140.81 269.28C147.22 273.66 153.32 276.6 161.04 277.92C170.04 279.47 179.88 279.08 188.58 276.18C195.09 274.02 200.94 268.83 202.59 261.98C203.66 257.58 202.52 253.46 200.62 249.57C200.59 249.52 200.56 249.48 200.52 249.44C200.12 248.92 199.85 248.34 199.67 247.73C198.21 245.09 196.49 242.56 194.98 240.12C187.2 227.61 178.98 215.19 169.99 203.51C169.97 203.48 169.95 203.46 169.93 203.43C169.89 203.39 169.85 203.33 169.79 203.27C169.55 202.97 169.31 202.66 169.05 202.36C168.56 201.81 168.06 201.26 167.56 200.72C166.14 199.19 164.69 197.7 163.15 196.29C157.69 191.27 151.34 187.34 144.87 183.74C144.79 183.76 144.7 183.77 144.62 183.78C141.93 184.28 139.26 184.93 136.65 185.73C130.34 187.67 123.58 190.73 119.46 196.1C117.77 198.31 116.66 201.07 115.46 203.58C114.97 204.61 114.49 205.64 114.03 206.69C114.01 206.72 114 206.75 113.99 206.78C113.97 206.83 113.95 206.88 113.92 206.96C113.74 207.44 113.54 207.91 113.37 208.4C110.08 218.17 111.57 229.23 113.25 240.95ZM157.1 171.39C156.78 171.92 156.48 172.46 156.17 173.01C168.1 180.28 177.9 188.91 186.3 200.47C191.49 207.61 196.48 214.9 201.33 222.26C205.52 228.62 210.08 235.1 213.55 241.96C222.84 254.02 237.82 256.89 251.79 252.17C256.25 250.67 261.15 248.26 263.98 244.12C267.34 239.19 267.39 232.87 265.62 227.38C265.56 227.2 265.48 226.87 264.94 225.69C264.53 224.77 264.09 223.85 263.65 222.93C262.49 220.5 261.28 218.09 260.05 215.7C256.51 208.85 252.77 202.11 248.8 195.5C240.69 181.97 231.73 166.63 217.75 158.46C212.46 155.36 206.77 153.25 200.8 151.89C199.49 151.6 198.17 151.36 196.85 151.12C196.58 151.07 196.3 151.04 196.03 151C196 150.99 195.97 150.99 195.93 150.99C195.34 150.94 194.75 150.87 194.16 150.84C185.07 152.28 175.03 154.78 167.43 159.81C163.08 162.69 159.78 166.97 157.1 171.39Z" />
		<path id="&lt;Compound Path&gt;" fill-rule="evenodd" class="shp0" d="M1286 237C1285.2 253.3 1280.86 269.21 1275.17 284.43C1266.59 307.39 1255.24 329.23 1242.95 350.4C1244.41 353.88 1245.54 357.55 1246.28 361.18C1248.03 369.82 1247.9 378.72 1244.24 386.86C1239.25 397.93 1228.91 403.48 1217.99 407.43C1205.03 412.12 1191.52 414.97 1177.78 415.92C1167.35 416.64 1156.93 416.03 1146.5 416C1122.84 415.92 1097.91 413.62 1075.02 407.47C1064.4 404.62 1054.95 399.98 1050.89 389.02C1046.77 377.89 1049.11 364.98 1052.54 353.82C1045.28 337.03 1038.25 320.13 1031.54 303.11C1027.35 292.47 1022.99 281.76 1019.81 270.77C1016.35 258.8 1014.17 246.47 1012.4 234.16C1008.53 207.31 1006.98 180.38 1006.35 153.29C1006.01 138.82 1005.34 124.37 1004.67 109.91C1004.2 99.73 1002.06 87.44 1006.81 78.01C1012.49 66.71 1025.29 62.72 1036.93 61.08C1041.88 60.39 1046.77 60.13 1051.21 60.83C1051.21 53.48 1052.48 46.15 1055.79 39.87C1060.97 30.03 1072.52 25.74 1082.89 23.8C1091.06 22.27 1099.71 22.37 1107.4 25.44C1117.29 14.78 1133.49 9.7 1147.51 12.12C1159.79 14.25 1169.84 23.2 1175.91 33.96C1189.54 30.62 1205.36 32.31 1215.74 41.98C1220.93 46.82 1223.7 53.09 1226.11 59.62C1229.03 67.51 1231.43 75.58 1233.28 83.78C1234.61 89.62 1235.78 95.61 1236.47 101.61C1248.44 104.03 1260.22 109.18 1269.15 117.37C1284.47 131.41 1285.36 155.23 1286.4 174.59C1287.51 195.35 1287.01 216.24 1286 237ZM1271.96 193.7C1271.83 178.2 1271.46 162.34 1268.23 147.12C1266.96 141.11 1265.35 135.37 1261.21 130.67C1257.42 126.36 1252.57 123.29 1247.42 120.87C1243.18 118.88 1238.62 117.49 1234.06 116.44C1233.38 116.28 1232.7 116.14 1232.02 116C1231.98 116.06 1231.94 116.11 1231.89 116.16C1231.85 116.23 1231.79 116.32 1231.73 116.42C1230.45 118.41 1229.31 120.43 1228.29 122.58C1228.21 122.73 1227.92 123.42 1227.8 123.69C1227.57 124.24 1227.35 124.81 1227.13 125.37C1226.56 126.87 1226.04 128.38 1225.55 129.91C1224.4 133.47 1223.42 137.1 1222.55 140.74C1216.96 164.04 1214.83 188.17 1213 212C1212.75 215.24 1210.88 218.42 1207.49 219.23C1204.97 219.84 1202.53 220.76 1200.11 221.68C1199.75 221.82 1199.39 221.97 1199.03 222.11C1198.8 222.21 1197.81 222.64 1197.6 222.73C1196.17 223.4 1194.74 224.07 1193.34 224.79C1190.19 226.4 1187.13 228.19 1184.18 230.15C1167.57 241.16 1156.24 257.78 1151.23 276.99C1148.79 286.34 1134.33 282.35 1136.77 273.01C1144.59 242.99 1168.27 215.62 1198.45 206.18C1200.32 182.6 1202.68 158.73 1208.33 135.76C1210.8 125.7 1214.08 112.75 1221.78 104.9C1221.31 99.63 1220.36 94.79 1219.13 89.15C1217.63 82.3 1215.75 75.53 1213.51 68.89C1211.68 63.47 1210.02 57.51 1205.89 53.33C1198.95 46.29 1188.3 46.3 1179.31 48.58C1178.12 84.31 1177.51 120.34 1180 156C1180.67 165.65 1165.67 165.58 1165 156C1162.42 118.95 1163.17 81.51 1164.45 44.41C1164.3 44.08 1164.15 43.76 1163.98 43.44C1162.83 41.19 1161.51 38.99 1159.98 36.98C1156.34 32.18 1151 27.93 1144.74 26.81C1136.94 25.42 1128.24 27.87 1121.95 32.6C1120.17 33.94 1118.65 35.58 1117.14 37.22C1117.33 40.26 1117.52 43.3 1117.72 46.33C1120.08 83.06 1122.15 119.89 1126 156.5C1126.43 160.55 1122.23 164 1118.5 164C1114.14 164 1111.42 160.53 1111 156.5C1110.01 147.07 1109.23 137.62 1108.48 128.17C1106.13 98.68 1104.14 69.15 1102.29 39.63C1096.49 37.13 1089.98 37.39 1083.74 38.96C1077.12 40.61 1070.42 42.53 1067.98 49.22C1066.01 54.65 1066.13 60.74 1066.6 66.43C1066.87 69.75 1066.9 70.39 1067.73 74.01C1067.88 74.64 1067.95 75.24 1067.97 75.82C1067.98 75.88 1067.99 75.94 1068 76C1071.51 108.6 1074.99 141.27 1077 174C1077.59 183.66 1062.59 183.59 1062 174C1060.02 141.89 1056.64 109.83 1053.2 77.85C1050.81 72.45 1038.64 75.75 1034.51 76.61C1028.07 77.94 1020.11 80.77 1019.09 88.25C1018.22 94.56 1019.29 101.6 1019.58 107.93C1020.02 117.6 1020.49 127.26 1020.85 136.93C1022.14 171.67 1022.63 206.23 1028.5 240.62C1033.57 270.31 1045.2 297.8 1056.7 325.47C1060.03 333.48 1063.44 341.46 1066.86 349.44C1069.5 355.62 1065.11 363.17 1064.22 369.61C1063.43 375.3 1063 382.93 1067.04 387.6C1070.3 391.35 1075.56 392.15 1080.6 393.42C1087.63 395.2 1094.79 396.44 1101.96 397.5C1116.67 399.65 1131.63 400.95 1146.5 401C1162.82 401.04 1178.9 401.95 1194.99 398.48C1208.72 395.53 1230.04 391.23 1232.28 374.99C1232.89 370.59 1232.3 366.77 1231.2 362.52C1230.69 360.56 1230.03 358.67 1229.36 356.77C1229.27 356.5 1229.2 356.31 1229.14 356.16C1228.92 355.67 1228.7 355.19 1228.49 354.71C1227.93 353.49 1227.32 352.39 1227.13 351C1226.46 345.99 1231.44 340.39 1233.81 336.19C1238.67 327.61 1243.32 318.92 1247.69 310.08C1258.82 287.58 1269.74 261.9 1270.98 237.38C1271.72 222.85 1272.08 208.26 1271.96 193.7Z" />
		<path id="&lt;Compound Path&gt;" fill-rule="evenodd" class="shp0" d="M792.59 352.17C792.57 352.26 792.54 352.32 792.52 352.38C793.73 353.63 794.63 357.06 795.17 358.43C795.89 360.3 796.51 362.2 797 364.15C799.52 374.19 799.3 385.74 793.08 394.46C784.25 406.84 766.79 410.33 752.76 413.1C735.59 416.5 718.06 417.62 700.58 418C686.46 418.29 672.28 418.47 658.21 416.92C644.57 415.41 629.62 412.84 618.29 404.52C606.79 396.09 599.02 383.06 601.47 368.55C602.24 363.98 604.34 360.13 605.85 355.81C608.06 349.49 605.12 343.29 601.79 337.99C592.01 322.44 581.85 306.99 571.18 292.05C571.13 292 571.09 291.96 571.04 291.9C570.53 291.33 570.05 290.75 569.55 290.17C568.12 288.54 566.68 286.92 565.25 285.29C564.23 284.12 563.21 282.94 562.2 281.75C561.52 281.03 560.87 280.26 560.27 279.45C560.27 279.44 560.27 279.44 560.26 279.43C557.69 276.34 555.18 273.21 552.75 270.01C543.75 258.11 537.56 245.76 536.14 230.69C534.78 216.17 536.83 197.3 545.55 185.13C549.93 179.03 555.72 173.63 562.13 169.51C561.38 154.23 569.01 139.06 582.83 131.78C593.98 125.9 606.95 122.96 619.54 121.48C624.82 113.46 633.66 108.02 642.64 104.95C657.55 99.85 676.41 96.29 691.81 101.97C695.28 98.97 699.45 96.71 703.63 95.03C716.03 90.03 729.51 90.94 742.47 92.71C751.86 94 762.06 96.1 768.91 103.22C776.58 111.19 777.48 122.51 779.07 132.88C780.32 141.01 781.64 149.13 783.06 157.23C792.86 159.44 802.83 162.56 811.37 167.69C821.74 173.93 826.75 183.9 829.14 195.49C832.46 211.53 833.58 228.21 835.51 244.47C836.7 254.45 838.69 264.75 837.55 274.81C834.17 304.79 810.07 322.57 795.29 346.71C794.15 348.58 793.06 350.53 792.59 352.17ZM702.53 112.55C701.63 113.31 700.85 114.17 699.98 114.96C697.85 119.29 695.71 124.26 694.8 129C694.84 128.97 694.7 130.24 694.71 130.52C694.76 131.4 694.76 132.37 694.85 133.17C695.16 135.82 695.86 138.48 696.54 141.04C699.35 151.53 703.48 162.22 709.56 171.34C715.04 169.92 721 169.92 726.53 169.69C741.04 169.07 755.33 165.47 768.13 158.53C766.51 149.17 765.04 139.79 763.63 130.4C762.86 125.26 762.04 119.71 759.71 115.71C758.35 113.37 755.97 111.55 752.9 110.34C747.66 108.25 741.8 107.54 736.22 106.95C728.56 106.13 720.79 105.64 713.25 107.6C711.19 108.14 709.15 108.8 707.24 109.72C706.22 110.21 705.23 110.77 704.27 111.37C704.09 111.49 702.63 112.52 702.53 112.55ZM634.01 127.25C632.38 128.96 632.72 128.42 631.71 130.15C631.34 130.79 630.61 132.21 630.56 132.29C627.27 137.39 626.37 145.17 628.15 150.52C631.2 159.66 636.8 168.2 641.89 176.32C647.57 185.39 653.36 194.72 660.01 203.12C665.12 209.58 675.63 222.29 685.44 219.5C686.14 211.28 687.91 203.07 690.22 195.21C691.85 189.71 693.59 183.99 696.96 179.46C689.55 168.62 684.48 155.26 681.48 142.66C680.14 137.07 679 131.01 680.28 125.31C681.06 121.86 682.23 118.39 683.59 115.01C672.28 112.08 658.56 115.72 648.16 118.92C642.85 120.55 637.87 123.21 634.01 127.25ZM577.11 168.35C577.13 169.16 577.19 169.97 577.25 170.78C580.8 176.26 584.4 181.72 588.02 187.17C600.56 206.01 613.06 226.18 627.83 242.73C628.95 243.99 630.13 245.18 631.35 246.34C631.37 246.36 631.38 246.37 631.4 246.39C632.11 246.88 632.82 247.36 633.57 247.79C635.23 248.73 636.97 249.38 638.82 249.86C644.62 251.35 653.74 250.41 657.97 247.93C662.72 245.15 667.35 238.43 671.2 232.2C653.39 224.66 639.79 200.96 630.46 186.3C621.41 172.09 610.04 154.83 612.61 137.77C606.12 139.03 599.55 140.63 593.48 143.24C586.48 146.26 580.89 150.85 578.53 158.37C577.5 161.65 577.06 164.92 577.11 168.35ZM555.48 246.58C560.39 256.48 567.48 264.8 574.58 273.13C577.67 275.29 583.71 276.47 587.1 276.87C593.35 277.61 600.12 277.24 605.74 274.19C611.51 271.06 616.33 266.35 620.76 261.56C621.59 260.66 622.4 259.75 623.2 258.82C621.51 257.61 619.91 256.24 618.44 254.67C610.46 246.22 603.76 236.37 597.06 226.9C587.01 212.72 577.3 198.29 567.81 183.73C562.48 187.53 557.63 192.47 555.23 198.26C549.32 212.55 548.54 232.6 555.48 246.58ZM822.92 268.44C822.88 258.78 821.06 248.95 819.9 239.38C818.14 224.68 817.51 209.2 813.59 194.88C811.31 186.53 807.97 182.69 800.8 178.98C793.29 175.09 784.69 172.84 776.38 171.11C762.52 178.85 746.65 183.49 730.87 184.47C724.73 184.86 717.13 183.9 711.37 186.5C705.68 189.07 704.45 199.63 703.13 204.96C701.26 212.51 699.8 220.37 700.17 228.18C700.45 234.25 704.09 236.77 709.48 239.57C719.1 244.57 729.82 246.23 740.36 248.18C749.6 249.9 758.84 251.59 768.08 253.27C777.58 255 773.53 269.45 764.09 267.73C752.04 265.54 740 263.36 727.97 261.08C725.63 260.63 723.24 260.14 720.82 259.56C709.68 266.97 696.95 276.56 691.56 288.84C687.92 297.14 686.22 306.7 685.56 315.68C685.06 322.55 684.71 331.95 687.8 337.31C692.64 345.69 679.67 353.24 674.85 344.88C670.02 336.51 669.89 325.7 670.51 316.33C671.22 305.68 673.1 294.79 677.1 284.86C682.2 272.18 692.41 261.99 703.47 253.55C699.18 251.42 695.21 248.79 691.89 245.47C689.11 242.68 687.4 239.46 686.39 235.99C684.08 239.66 681.64 243.24 679.05 246.72C674.33 253.07 669.34 259.73 661.68 262.58C654.07 265.4 645.58 266.29 637.64 264.82C629.84 274.91 620.07 284.97 608.14 289.51C602.74 291.56 596.18 292.56 589.56 292.34C594.7 299.9 599.76 307.52 604.79 315.15C609.84 322.82 615.86 330.57 619.22 339.16C621.93 346.11 622.52 353.95 619.82 360.99C618.27 365.01 616.62 367.41 616.01 372.04C614.62 382.64 623.83 391.44 632.64 395.61C642.99 400.51 655.14 401.89 666.43 402.64C677.8 403.4 689.2 403.23 700.58 403C718.84 402.6 737.16 401.51 754.98 397.29C765.95 394.69 781.9 391.95 783.43 378.54C784.26 371.27 781.68 364.61 778.98 359.03C774.48 349.74 781.43 339.92 786.79 332.63C801.01 313.31 823.01 294.33 822.92 268.44Z" />
	</g>
</svg>